<?xml version="1.0" standalone="no"?>
<!DOCTYPE svg PUBLIC "-//W3C//DTD SVG 20010904//EN"
 "http://www.w3.org/TR/2001/REC-SVG-20010904/DTD/svg10.dtd">
<svg version="1.0" xmlns="http://www.w3.org/2000/svg"
 width="1507.000000pt" height="1507.000000pt" viewBox="0 0 1507.000000 1507.000000"
 preserveAspectRatio="xMidYMid meet">
<metadata>
Created by potrace 1.11, written by Peter Selinger 2001-2013
</metadata>
<g transform="translate(0.000000,1507.000000) scale(0.100000,-0.100000)"
fill="#000000" stroke="none">
<path d="M377 10798 c-89 -29 -123 -93 -114 -212 8 -95 9 -100 38 -135 36 -43
89 -62 188 -67 212 -10 289 -27 416 -93 93 -48 180 -138 255 -263 33 -56 60
-107 60 -114 0 -7 4 -15 8 -18 8 -5 40 -67 110 -216 73 -156 169 -391 370
-910 44 -113 107 -275 140 -360 33 -85 108 -279 167 -430 59 -151 131 -336
160 -410 51 -129 261 -671 367 -945 27 -71 53 -139 58 -150 15 -34 47 -116 85
-212 39 -103 89 -232 142 -368 20 -49 59 -151 88 -225 230 -596 330 -850 345
-880 25 -48 52 -68 113 -84 61 -16 218 -14 269 3 32 11 98 69 98 88 1 5 9 26
20 48 11 22 19 43 20 47 0 7 256 627 341 826 21 51 39 95 39 97 0 3 9 24 19
48 11 23 58 137 106 252 47 116 94 230 105 255 11 25 42 101 71 170 28 69 57
139 64 155 7 17 41 98 74 180 34 83 66 159 71 170 5 11 36 88 70 170 33 83 65
159 69 170 30 69 68 160 181 435 29 69 58 139 65 155 23 55 83 199 130 315 26
63 53 129 60 145 8 17 37 86 65 155 335 817 478 1135 600 1335 106 175 258
319 407 387 175 79 276 89 551 53 24 -3 73 -17 110 -31 37 -14 75 -28 85 -31
9 -3 17 -9 17 -14 0 -5 6 -9 14 -9 7 0 47 -33 87 -72 114 -112 163 -220 184
-413 1 -11 6 -85 11 -165 10 -172 11 -3547 1 -3735 -17 -337 -54 -452 -187
-584 -105 -104 -232 -160 -400 -176 -167 -16 -181 -18 -219 -41 -51 -30 -74
-86 -75 -178 -1 -127 44 -197 137 -214 18 -3 646 -6 1397 -6 l1365 -1 47 23
c63 31 91 88 91 181 0 36 -2 78 -6 93 -16 76 -77 123 -172 132 -143 15 -174
19 -225 31 -131 30 -211 74 -296 160 -85 85 -141 208 -159 350 -3 22 -8 56
-10 75 -3 19 -8 82 -12 140 -9 137 -9 3552 0 3735 10 195 19 259 48 355 52
167 177 299 341 362 73 27 128 37 303 53 131 12 187 70 188 198 1 125 -21 174
-93 210 l-45 22 -2340 -1 c-1287 0 -2355 -4 -2373 -8 -63 -13 -115 -62 -127
-122 -15 -68 -2 -196 21 -215 8 -6 14 -17 14 -23 0 -27 87 -56 185 -62 105 -6
149 -15 203 -40 202 -95 261 -412 145 -789 -50 -166 -169 -491 -218 -600 -8
-16 -37 -88 -65 -160 -29 -71 -58 -143 -65 -160 -8 -16 -61 -147 -119 -290
-58 -143 -146 -361 -196 -485 -51 -124 -120 -295 -155 -380 -54 -133 -125
-308 -221 -545 -14 -33 -29 -69 -34 -80 -5 -11 -28 -67 -50 -125 -23 -58 -47
-118 -54 -135 -7 -16 -24 -56 -36 -87 -13 -32 -25 -57 -26 -55 -2 1 -37 97
-79 212 -231 631 -355 970 -365 990 -5 11 -22 58 -38 105 -17 47 -44 123 -62
170 -17 47 -35 96 -40 110 -5 14 -20 57 -35 95 -15 39 -62 167 -105 285 -43
118 -85 233 -93 255 -9 22 -57 153 -107 290 -51 138 -115 311 -142 385 -75
203 -130 354 -132 365 -1 6 -5 15 -9 21 -18 30 -35 141 -33 230 1 90 4 105 34
166 74 153 182 211 452 244 104 12 126 16 155 28 79 33 111 103 102 223 -8
105 -47 160 -127 179 -19 4 -664 8 -1433 9 -1290 0 -1402 -1 -1450 -17z"/>
<path d="M9765 10808 c-101 -21 -140 -83 -138 -219 1 -74 17 -121 55 -157 31
-32 67 -42 158 -48 30 -2 73 -6 95 -9 22 -3 53 -8 69 -10 62 -9 187 -58 241
-96 143 -97 215 -229 245 -444 21 -159 24 -378 24 -2050 0 -1515 -4 -1973 -17
-2040 -3 -11 -8 -47 -11 -80 -21 -185 -131 -352 -288 -438 -102 -56 -173 -73
-378 -91 -84 -8 -106 -16 -150 -60 -50 -49 -61 -197 -21 -279 17 -35 33 -51
69 -69 l47 -23 1380 0 1380 0 47 23 c65 32 91 87 92 191 1 138 -53 202 -179
215 -27 3 -79 8 -115 11 -271 26 -461 169 -541 410 -8 22 -14 45 -15 50 -1 13
-16 116 -19 136 -13 69 -18 354 -19 1029 l-1 786 515 2 c502 1 840 8 890 16
14 3 48 7 75 11 100 12 123 17 265 52 243 60 407 132 589 261 238 168 415 409
495 672 112 370 106 750 -18 1120 -114 343 -394 673 -746 881 -153 90 -241
124 -445 173 -168 41 -252 51 -571 72 -136 9 -3016 11 -3059 2z m2750 -481
c137 -33 281 -102 389 -187 35 -27 150 -145 181 -184 114 -147 198 -368 231
-606 15 -107 8 -374 -12 -485 -37 -212 -142 -405 -309 -570 -230 -228 -396
-273 -1020 -278 l-200 -2 0 1169 0 1168 340 -5 c245 -4 357 -10 400 -20z"/>
</g>
</svg>
