<svg xmlns="http://www.w3.org/2000/svg" viewBox="0 0 512 512"><path d="M121.6,204.5V320.3A27.4,27.4,0,0,1,94.1,348C78.8,348,64,335.6,64,320.3V204.5C64,189.4,78.8,177,94.1,177A27.61,27.61,0,0,1,121.6,204.5Zm10.8,157A29.53,29.53,0,0,0,162,391.1h19.9l.3,61.1c0,36.9,55.2,36.6,55.2,0V391.1h37.2v61.1c0,36.7,55.5,36.8,55.5,0V391.1h20.2a29.49,29.49,0,0,0,29.4-29.6V182.1H132.4Zm248-189.1H131.3c0-42.8,25.6-80,63.6-99.4L175.8,37.7c-2.8-4.9,4.3-8,6.7-3.8l19.4,35.6a135.11,135.11,0,0,1,108.3,0L329.5,34c2.5-4.3,9.5-1.1,6.7,3.8L317.1,73C354.8,92.4,380.4,129.6,380.4,172.4ZM209.7,116.9a10.5,10.5,0,0,0-10.5-10.5,10.5,10.5,0,0,0,0,21A10.5,10.5,0,0,0,209.7,116.9Zm113.4,0a10.35,10.35,0,1,0-10.2,10.5A10.44,10.44,0,0,0,323.1,116.9ZM417.9,177a27.42,27.42,0,0,0-27.5,27.5V320.3A27.59,27.59,0,0,0,417.9,348c15.4,0,30.1-12.4,30.1-27.7V204.5C448,189.1,433.2,177,417.9,177Z" style="fill:#d2d2d2"/></svg>