<svg xmlns="http://www.w3.org/2000/svg" viewBox="0 0 512 512"><path d="M451,46H61A45,45,0,0,0,16,91V421a45,45,0,0,0,45,45H451a45,45,0,0,0,45-45V91A45,45,0,0,0,451,46ZM241,436H61a15,15,0,0,1-15-15V106H241Zm225-15a15,15,0,0,1-15,15H271V106H466Z" style="fill:#d2d2d2"/><rect x="83.5" y="206" width="120" height="20" rx="7.5" style="fill:#d2d2d2"/><rect x="83.5" y="246" width="120" height="20" rx="7.5" style="fill:#d2d2d2"/><rect x="83.5" y="286" width="120" height="20" rx="7.5" style="fill:#d2d2d2"/><path d="M427.67,308.87l-30.23-30.23a2.77,2.77,0,0,0-2-.82H393a48.13,48.13,0,1,0-2.71,2.74V283a2.86,2.86,0,0,0,.82,2l30.23,30.23a2.79,2.79,0,0,0,4,0l2.32-2.32A2.79,2.79,0,0,0,427.67,308.87ZM357.25,286a41.25,41.25,0,1,1,41.25-41.25A41.22,41.22,0,0,1,357.25,286Z" style="fill:#d2d2d2"/></svg>