<svg xmlns="http://www.w3.org/2000/svg" viewBox="0 0 512 512"><path d="M451,46H61A45,45,0,0,0,16,91V421a45,45,0,0,0,45,45H451a45,45,0,0,0,45-45V91A45,45,0,0,0,451,46ZM46,91A15,15,0,0,1,61,76h45v60H46ZM466,421a15,15,0,0,1-15,15H61a15,15,0,0,1-15-15V166H466Zm0-285H136V76H451a15,15,0,0,1,15,15Z" style="fill:#d2d2d2"/><path d="M310.85,296.44,303,291.88a47.79,47.79,0,0,0,0-11.83l7.89-4.55a5.81,5.81,0,0,0,2.67-6.66,59.82,59.82,0,0,0-13.92-24.09,5.82,5.82,0,0,0-7.12-1l-7.88,4.55a46.66,46.66,0,0,0-10.24-5.92v-9.1a5.83,5.83,0,0,0-4.48-5.66,60.54,60.54,0,0,0-27.76,0,5.83,5.83,0,0,0-4.48,5.66v9.1a46.66,46.66,0,0,0-10.24,5.92l-7.88-4.55a5.82,5.82,0,0,0-7.12,1,59.82,59.82,0,0,0-13.92,24.09,5.81,5.81,0,0,0,2.67,6.66l7.89,4.55a47.79,47.79,0,0,0,0,11.83l-7.89,4.56a5.8,5.8,0,0,0-2.67,6.65,59.86,59.86,0,0,0,13.92,24.1,5.8,5.8,0,0,0,7.12,1l7.88-4.54a47.48,47.48,0,0,0,10.24,5.92v9.1a5.82,5.82,0,0,0,4.48,5.65,60.27,60.27,0,0,0,27.76,0,5.82,5.82,0,0,0,4.48-5.65v-9.1a47.48,47.48,0,0,0,10.24-5.92l7.88,4.54a5.8,5.8,0,0,0,7.12-1,59.86,59.86,0,0,0,13.92-24.1,5.8,5.8,0,0,0-2.67-6.65ZM295,320.74l-11.2-6.47c-6.53,5.59-8.84,7-17.19,9.94v12.94a52.66,52.66,0,0,1-21.22,0V324.21c-8.14-2.88-10.49-4.21-17.19-9.94L217,320.74a52.15,52.15,0,0,1-10.63-18.37l11.21-6.47c-1.58-8.57-1.59-11.29,0-19.86l-11.21-6.47A52.19,52.19,0,0,1,217,251.19l11.2,6.47c6.62-5.67,9-7,17.19-9.93V234.79a52.3,52.3,0,0,1,21.22,0v12.94c8.22,2.9,10.57,4.27,17.19,9.93l11.2-6.47a52.19,52.19,0,0,1,10.63,18.38L294.42,276c1.58,8.57,1.59,11.28,0,19.86l11.21,6.47A52.15,52.15,0,0,1,295,320.74Zm-39-58A23.23,23.23,0,1,0,279.23,286,23.26,23.26,0,0,0,256,262.74Zm0,38.71A15.49,15.49,0,1,1,271.48,286,15.49,15.49,0,0,1,256,301.45Z" style="fill:#d2d2d2"/></svg>