<svg xmlns="http://www.w3.org/2000/svg" viewBox="0 0 512 512"><path d="M359,187.62l-80.91,99.95a53.83,53.83,0,1,0,20.68,16.81l80.95-100A13.32,13.32,0,1,0,359,187.62ZM256,362.67A26.67,26.67,0,1,1,282.67,336,26.67,26.67,0,0,1,256,362.67Zm0-293.34c-132.55,0-240,107.45-240,240A238.81,238.81,0,0,0,48.55,430a26.37,26.37,0,0,0,22.87,12.67H440.58c9.29,0,18.2-4.65,22.87-12.67A238.81,238.81,0,0,0,496,309.33C496,176.78,388.55,69.33,256,69.33ZM440.58,416l-369,.57A213.16,213.16,0,0,1,42.67,309.33C42.67,191.7,138.37,96,256,96s213.33,95.7,213.33,213.33A211,211,0,0,1,440.58,416Z" style="fill:#d2d2d2"/></svg>