<svg xmlns="http://www.w3.org/2000/svg" viewBox="0 0 448 512"><path d="M400,32H48A48,48,0,0,0,0,80V432a48,48,0,0,0,48,48H400a48,48,0,0,0,48-48V80A48,48,0,0,0,400,32Zm16,400a16,16,0,0,1-16,16H48a16,16,0,0,1-16-16V80A16,16,0,0,1,48,64H400a16,16,0,0,1,16,16ZM99.5,374.8a12,12,0,0,1,0-17L294.6,162.7l-.6-.7-90,.3a12,12,0,0,1-12-12v-10a12,12,0,0,1,12-12l136-.3a12,12,0,0,1,12,12l-.3,136a12,12,0,0,1-12,12h-10a12,12,0,0,1-12-12l.3-90-.7-.7L122.1,380.5a12,12,0,0,1-17,0l-5.6-5.7Z" style="fill:#a9a9a9"/></svg>