<svg xmlns="http://www.w3.org/2000/svg" viewBox="0 0 512 512"><path d="M424.9,0a84.44,84.44,0,0,0-63.7,28.7L169.9,240,84.1,268.6a34.07,34.07,0,0,0-21.5,21.5L0,478l34,34,187.8-62.6a33.85,33.85,0,0,0,21.5-21.5L271.9,342,483.1,150.7C544.5,96.4,500.1,0,424.9,0Zm-212,417.8c-.2.6-145.4,49.3-145.4,49.3l68.6-68.7c2.6.7,5,1.6,7.8,1.6a32,32,0,1,0-32-32c0,2.8.9,5.2,1.6,7.8L44.9,444.5S93.6,299.2,94.2,299l88.5-29.5,59.7,59.7ZM461.6,127,264.3,305.7l-58.1-58.1L385.1,49.9A53.17,53.17,0,0,1,424.9,32c29.1,0,55.9,25.5,54.9,56.6A53,53,0,0,1,461.6,127Z" style="fill:#cc7832"/></svg>