<svg xmlns="http://www.w3.org/2000/svg" viewBox="0 0 1984.3 1984.3"><defs><clipPath ><path d="M767.1,1177.5s104.6-38.5,110.3-36.1-.5,67.3-1,89.8c-.5,29.5,4.2,108.9-5.5,117.8s-94.2,8.9-100.6,7.2S787.3,1237,767.1,1177.5Z" style="fill:none"/></clipPath></defs><path d="M513.2,1658.3s-54.1,84,71.3,90.1,228.2,33.2,281.5,76.5,234.2,49,338.9-19.1,136.9-57.4,207.3-67.9-94.8-132.3-244.2-97.6-360.6-37.5-443.6-24.9S513.2,1658.3,513.2,1658.3Z" style="fill:#eaf4fb"/><line x1="820.9" y1="1544.6" x2="187.7" y2="1703.8" style="fill:none;stroke:#c8dcf0;stroke-miterlimit:10;stroke-width:3px"/><line x1="999.8" y1="1578.7" x2="366" y2="1738" style="fill:none;stroke:#c8dcf0;stroke-miterlimit:10;stroke-width:3px"/><line x1="1181" y1="1612.1" x2="545.6" y2="1771.9" style="fill:none;stroke:#c8dcf0;stroke-miterlimit:10;stroke-width:3px"/><line x1="1357.7" y1="1646.7" x2="724.5" y2="1805.9" style="fill:none;stroke:#c8dcf0;stroke-miterlimit:10;stroke-width:3px"/><line x1="1536.6" y1="1680.7" x2="903.4" y2="1839.9" style="fill:none;stroke:#c8dcf0;stroke-miterlimit:10;stroke-width:3px"/><line x1="1730.9" y1="1710.9" x2="1082.3" y2="1873.9" style="fill:none;stroke:#c8dcf0;stroke-miterlimit:10;stroke-width:3px"/><line x1="186.7" y1="1703.6" x2="1082.3" y2="1873.9" style="fill:none;stroke:#c8dcf0;stroke-miterlimit:10;stroke-width:3px"/><line x1="344.6" y1="1663.8" x2="1235.4" y2="1833.1" style="fill:none;stroke:#c8dcf0;stroke-miterlimit:10;stroke-width:3px"/><line x1="504.3" y1="1624.2" x2="1405.4" y2="1795.6" style="fill:none;stroke:#c8dcf0;stroke-miterlimit:10;stroke-width:3px"/><line x1="662.6" y1="1584.4" x2="1556.8" y2="1754.5" style="fill:none;stroke:#c8dcf0;stroke-miterlimit:10;stroke-width:3px"/><line x1="820.9" y1="1544.6" x2="1715.5" y2="1714.8" style="fill:none;stroke:#c8dcf0;stroke-miterlimit:10;stroke-width:3px"/><path d="M644.5,1699.3s0-20,4.9-30.6a17.52,17.52,0,0,0-2.1-18.5l32.4,1.8s1.2,25.7,8.1,27.3,37.7,13.4,44.6,14.3,25.8-.1,33.8.8,4.1,8.3,4.1,13.2-49.2,5.4-68.4,5.6-58.9-3.3-58.9-3.3Z" style="fill:#394480"/><path d="M579,1722.8s-2.1-20.2,2.7-30.8.1-18.3.1-18.3l32.4,1.8s1.2,25.7,8.1,27.3,37.7,13.4,44.6,14.3,25.8-.1,33.8.8,6.1,9.1,6.2,14-49.2,5.4-68.4,5.6-58.9-3.3-58.9-3.3Z" style="fill:#394480"/><path d="M651.5,1293s66.6,206.6,54.7,227.1-41.3,17.8-43.6,16.9-39.8-180.1-39.8-180.1-4.9,310.6-5.4,329.3-66.3,15.1-67.6,5.5c-.8-5.6,20-86.1,15.1-167.6-3.5-57.1-5.7-114.5-3.7-146.7l5-78Z" style="fill:#171338"/><path d="M707.4,1515.7l-24.5,159.4s-60.4,8.3-58.5,2.6,29.5-149.1,38.2-163.7S707.4,1515.7,707.4,1515.7Z" style="fill:#171338"/><path d="M561.7,1350.3l8.7,37.2,16.5,15.5s1.3,3.6-.8,4.6S560,1388,560,1388l-.6-22.7Z" style="fill:#e57e7e"/><path d="M560.6,1360l7.4,34.7,17,11s-3.6,4-7.8,1.9-23.1-22.1-23.1-22.1l-4.2-40.7,13.2-7.6s13.3,15.9,14.7,21.4,8.1,17,8.1,17-3.2,4.2-6.4,3-8.5-18.3-8.5-18.3l.4,14.6,14.9,20.3s2.2,6.2,0,6.5-23.1-19-23.1-19l.5-18.8" style="fill:#e57e7e"/><path d="M820.1,1757.4c-1-12.7-6.1-63.5-14.3-99.1-3.1-13.7-4.1-31.9-4.1-49.3,0-27.9,2.5-53.5,2.5-53.5l28.7,8s.3,20,.6,47.1c.8,55.7,2,141.5,2.6,146.8C836.9,1765.3,821.1,1770.1,820.1,1757.4Z" style="fill:#e57e80"/><path d="M834.8,1747.8s3,5.2,18,2.8,19.3-6.8,19.3-6.8l11.7,1,2.9,5.8-10.3,8.6-41.6,9-7.5-12.2Z" style="fill:#d67776"/><path d="M836.6,1733.1s-5.2,29.5,13.4,25.4c19-4.3,26.4-5.4,27.2-8.5s-4.1-4.3-7.7-5.7,16-4.8,20.2-2.2,3,8.2-5.5,14.5-31,12-44.6,15.2c-12.9,3-22.2,7.2-26.3.5-3.4-5.6-.6-17.7-1.1-38Z" style="fill:#171338"/><path d="M889.2,1752.7s26.2-1.4,40.2-4.1c22-4.2,23.7,6.7,19,11.4s-56,17.8-68,15.2-6.8,3.4-8.8-22.5" style="fill:#d67776"/><path d="M889.2,1547v205.7H871.7s-5.5-79.1-11.9-105.2c-1.9-7.8-2.6-18-2.8-28.5a464.45,464.45,0,0,1,2.8-51.4Z" style="fill:#e57e80"/><path d="M927.5,1748.9s24.1-6.4,28.3-3.1c5,3.9,5.3,15.6-10.4,20.9s-65.6,16.5-72.2,17.8c-14.9,2.9-5.7-37.7-5.8-42.5-.1-3,29.1-7.6,25.5,1.8-2.2,5.8-1.5,26.8,5,27.4,17.4,1.5,31.5-5.8,33.4-7.4C937.9,1758.3,946.5,1748.5,927.5,1748.9Z" style="fill:#171338"/><path d="M832.9,1563.6s.3,20,.6,47.1a109.84,109.84,0,0,0-31.9-1.6c0-27.9,2.5-53.5,2.5-53.5Z" style="fill:#d37477"/><path d="M889.2,1547v81.7c-9.9-1.7-21.1-5.5-32.2-9.8a464.45,464.45,0,0,1,2.8-51.4Z" style="fill:#d37477"/><path d="M882.3,1348.6s5.6,9.2,13.1,11.5,20.9-14.1,20.9-14.1Z" style="fill:#d37477"/><path d="M920.7,1563.6c.5,5.6-39.2,20.7-60.1,22.3s-35-17.4-49.5-14.2-15.6,19.5-38.9,19.5-30.9-6.3-31.8-11.9c-.1-.9,1.1-8.8,3.3-21.4,11.6-67,49.9-267.6,49.9-267.6l63.5,1.7S920.2,1557.9,920.7,1563.6Z" style="fill:#f9b17c"/><path d="M603.9,1026.5s5.3,25,0,44c-2.4,8.8,13.5,12.5,17-2.3s5.5-43.6,5.5-43.6Z" style="fill:#d37477"/><path d="M611.7,1066.7l-6.7.2-30.4,15.9-5.2,12.8,24.5,7.9h11.4s14.9,47.9,16.1,47.9,6-13.9,6-14.5-1.8-31.8-1.8-31.8l10.3-41.9s-7.7-.5-6.9-.6c4.9-.6-15.1,3.2-15.1,3.2Z" style="fill:#d37477"/><path d="M622.4,956.3s29.3,34.5,23,60.4c-6,24.5-18.2,26.7-36.2,22.1-6.1-1.5-6.5-7.1-7.6-7.4-2.2-.8-2.4,3.8-5,2.6-19.9-9-48-27.7-31.8-44.9C583.3,969.5,622.4,956.3,622.4,956.3Z" style="fill:#e57e80"/><path d="M585.8,1021.2a19.78,19.78,0,0,1-6.3-15.8,14.44,14.44,0,0,1,8.9-12.9c18.5-8.4,2.5-23,13.6-27.9s20-2.5,20.6-9.4,0-10.8-1.8-19.4c-1.9-8.9-11.5-15.1-20.8-13.5-15.1,2.7-17,6.6-6.1,10.4,22.1,7.8-51.5,18.9-53.8,31.8s-1.7,33.8,17.9,53.6,15.7,29.5,24.3,32.7,29.7-11.7,27.2-14.7c-1.1-1.3-3.8-14.4-10.1-11.7C595,1026.4,588.4,1023.6,585.8,1021.2Z" style="fill:#171338"/><ellipse cx="618.38" cy="978.65" rx="2.8" ry="5" transform="translate(-406.49 440.32) rotate(-30)" style="fill:#171338"/><path d="M634,976.2s15.3,18.1,19.4,20.3-8.7,6.5-11.4,6S634,976.2,634,976.2Z" style="fill:#e95a5a"/><path d="M636.7,1018.3s-11.1,8.6-24.9-2" style="fill:none;stroke:#171338;stroke-linecap:round;stroke-miterlimit:10;stroke-width:3px"/><path d="M585.6,1004.7a14.26,14.26,0,0,0-1.7,6,22.67,22.67,0,0,0,1.6,6.2c.7,1.8,3.6,1,2.9-.8a24.44,24.44,0,0,1-1.4-4.6,9,9,0,0,1,1.2-5.3c.8-1.8-1.8-3.3-2.6-1.5Z" style="fill:#e95a5a"/><path d="M585.5,1011.7c1.5,0,2.8,1,3.9,1.9,1.5,1.2,3.6-.9,2.1-2.1-1.8-1.5-3.7-2.8-6-2.8-1.9-.1-1.9,2.9,0,3Z" style="fill:#e95a5a"/><path d="M614.6,963.8a5.64,5.64,0,0,0-5.1,2.4,12.77,12.77,0,0,0-1.8,6.3c-.2,1.9,2.8,1.9,3,0a11.75,11.75,0,0,1,1-4.1c.6-1.3,1.5-1.6,2.9-1.6a1.5,1.5,0,1,0,0-3Z" style="fill:#e95a5a"/><ellipse cx="621.19" cy="999.77" rx="7.3" ry="12" transform="translate(-483.11 1407.11) rotate(-78.39)" style="fill:#e95a5a"/><circle cx="615.7" cy="1161.1" r="1.7" style="fill:#171338"/><circle cx="614" cy="1134" r="1.7" style="fill:#171338"/><circle cx="612.7" cy="1108.1" r="1.7" style="fill:#171338"/><path d="M1779.6,695.7c3.2,0,3.2-5,0-5s-3.2,5,0,5Z" style="fill:#fff"/><path d="M871,1351.6s-84.2,44.7-102.9,73.9c0,0,9.3-54.3,12.9-68.6S871,1351.6,871,1351.6Z" style="fill:#f48a77"/><path d="M810.6,1132.4s6.4,17.7,4.8,26.6,14.5,14.5,14.5,4.8v-31.4Z" style="fill:#d37477"/><path d="M767.1,1177.5s-6.4,138.4-6.4,150.5,23.3,5.6,23.3,5.6S796.1,1198.4,767.1,1177.5Z" style="fill:#f48a77"/><path d="M776,1129.2s56.3,27.4,95,0c0,0-5.6-87.7-26.6-101.4s-52.3,2.4-58.8,22.5S776,1129.2,776,1129.2Z" style="fill:#171338"/><path d="M767.1,1177.5s104.6-38.5,110.3-36.1-.5,67.3-1,89.8c-.5,29.5,4.2,108.9-5.5,117.8s-94.2,8.9-100.6,7.2S787.3,1237,767.1,1177.5Z" style="fill:#5f63ac"/><path d="M814.3,1298.5a262.49,262.49,0,0,0,30.2-65.4c10.9-35.8,29.1-93.4,32.9-91.8,5.6,2.3-.5,67.3-1,89.8-.5,29.5,4.2,108.9-5.5,117.8s-94.2,8.9-100.6,7.2C765.1,1354.8,784,1345.5,814.3,1298.5Z" style="fill:#171338;opacity:0.28999999165534973;isolation:isolate"/><g style="clip-path:url(#a)"><path d="M773.6,1163.7s27.4,85.7,6,200.1,8.2,4.5,8.2,4.5,20.1-104.7-1.3-204.5,9.8-5.5,9.8-5.5,13.6,80,3.9,209.3,15.5.7,15.5.7,13.6-122.9-10-227,17.7,3.7,17.7,3.7,15.6,117.3,7,229.5,15.4-8.9,15.4-8.9,10.3-97.1-7.5-239.4,23.3,6.3,23.3,6.3,8.9,183.2,0,240.7" style="fill:none;stroke:#fff;stroke-miterlimit:10;opacity:0.41999998688697815;isolation:isolate"/></g><path d="M971.7,1320.4c-1.2,6-134.8,41.5-141.8,39.7s-27.8-73.4-29.6-88.4c-.4-3.3,2.4-6.5,6.9-9.6,16.3-10.9,55.2-19.4,55.2-19.4l41-10.3s44.8-13,47.8-11.8S972.9,1314.3,971.7,1320.4Z" style="fill:#171338"/><path d="M879,1144.9s52,199.6,45.9,204.1c-2.8,2.1-5.9,3.5-21.4.4-9.4-1.9-19.5,4.8-23,3.5-6.5-2.4-9.5-21.9-7.7-99.2S879,1144.9,879,1144.9Z" style="fill:#f48a77"/><path d="M801.3,1034c-4.2,4.1-7,9.7-9.7,14.9-3.2,6.4-6.1,12.9-8.8,19.5-1.8,4.4-3.7,8.8-5.1,13.4-3.2,10.4-9.5,20.2-14.5,29.9-.6,1.1,1.1,2.2,1.7,1,5-9.6,11.3-19.4,14.6-29.7,1.2-3.8,2.6-7.5,4.1-11.2,2.7-6.9,5.7-13.7,8.9-20.3,2.7-5.5,5.6-11.6,10.1-16,1-1-.4-2.4-1.3-1.5Z" style="fill:#171338"/><path d="M785.6,1078.9a187.71,187.71,0,0,1-13.1,36.6c-.6,1.2,1.2,2.2,1.7,1a188.71,188.71,0,0,0,13.3-37.1,1,1,0,0,0-1.9-.5Z" style="fill:#171338"/><path d="M850.7,1045.5c1.5,2.5,2.9,5.1,4.4,7.6,1.9,3.3,2.4,6.1,2.9,9.9.5,4.3,2.6,7.7,4.1,11.7a94.82,94.82,0,0,0,13.3,24.4c.8,1,2.5,0,1.7-1a105,105,0,0,1-8.4-12.5c-2.3-4.2-3.5-8.7-5.3-13-.9-2.2-2.3-4.4-2.9-6.7-.7-2.5-.4-5-.9-7.5-1-5-4.7-9.6-7.2-14-.6-1-2.3,0-1.7,1.1Z" style="fill:#171338"/><path d="M857.3,1086.8c6.3,13.1,11.6,28,21.1,39.2.8,1,2.2-.4,1.4-1.4-9.4-11-14.6-25.8-20.8-38.8-.5-1.2-2.2-.2-1.7,1Z" style="fill:#171338"/><path d="M829.9,1360.1c-7.1-1.8-27.8-73.4-29.6-88.4-.4-3.3,2.4-6.5,6.9-9.6C814.3,1274.3,829.9,1360.1,829.9,1360.1Z" style="fill:#394480"/><path d="M920.7,1563.6c.5,5.6-39.2,20.7-60.1,22.3s-35-17.4-49.5-14.2-15.6,19.5-38.9,19.5-30.9-6.3-31.8-11.9c-.1-.9,1.1-8.8,3.3-21.4,13.9,6.7,32.1,12.7,42.9,5.1,19.2-13.5,40.8.7,53.6,6.8S891.8,1585.1,920.7,1563.6Z" style="fill:#f48a77"/><path d="M941.6,1249.2c5.7,15.2,11.5,30.6,13.3,46.8.4,3.2,5.4,3.2,5,0-1.9-16.7-7.6-32.5-13.5-48.1-1.1-3-6-1.7-4.8,1.3Z" style="fill:#394480"/><path d="M936.4,1271.8a152.45,152.45,0,0,1,6.5,23.8c.6,3.2,5.4,1.8,4.8-1.3a164.3,164.3,0,0,0-6.5-23.8c-1-3-5.9-1.7-4.8,1.3Z" style="fill:#394480"/><path d="M916.1,1251.4a289.42,289.42,0,0,1,13.6,51.1c.5,3.2,5.4,1.8,4.8-1.3a291.73,291.73,0,0,0-13.6-51.1c-1.1-3.1-5.9-1.8-4.8,1.3Z" style="fill:#394480"/><rect x="1061.3" y="1316.1" width="362.7" height="133.2" style="fill:#eaf4fb"/><polygon points="1118.4 1328 1025.4 1272.3 1071.9 1382.7 1118.4 1328" style="fill:#eaf4fb"/><path d="M1121.7,1364.1H1243c9.7,0,9.7-15,0-15H1121.7c-9.7,0-9.7,15,0,15Z" style="fill:#fff"/><path d="M1121.7,1394.5h150c9.7,0,9.7-15,0-15h-150c-9.7,0-9.7,15,0,15Z" style="fill:#fff"/><path d="M1121.7,1424.8h195.5c9.7,0,9.7-15,0-15H1121.7c-9.7,0-9.7,15,0,15Z" style="fill:#fff"/><rect x="298.8" y="635.5" width="316.9" height="193.2" style="fill:#eaf4fb"/><polygon points="617.5 764.1 617.5 868.3 506.2 824.5 617.5 764.1" style="fill:#eaf4fb"/><path d="M334.2,709.2H455.5c9.7,0,9.7-15,0-15H334.2c-9.6,0-9.7,15,0,15Z" style="fill:#fff"/><path d="M334.2,739.6h150c9.7,0,9.7-15,0-15h-150c-9.6,0-9.7,15,0,15Z" style="fill:#fff"/><path d="M334.2,769.9H529.7c9.7,0,9.7-15,0-15H334.2c-9.6,0-9.7,15,0,15Z" style="fill:#fff"/><path d="M647.3,1306.2c-6.2,3-14.3,6.8-24.3,11.9-11.2,5.8-59.4-4.7-58.4-13.7s8.7-124.7,7.4-118.2-22,67.4-19.2,80.1,25,68.5,25,68.5-25.5,31.9-34.5,32.3-22.9-113.9-21.2-124.7,27.9-127.2,28.2-141.3,55.1-37.5,55.1-37.5l-.3,3.2s-14,11.6-10,13.6c6.8,3.3,18.2-4.2,18.2-4.2l5.3,23.4-1-24.3s15.9-10.4,14.1-11.3c-2-1-9.8,0-9.8,0s15-10.9,18.8-6.1-.3,76-.3,99.2,30.4,139.2,31.1,145.1C671.7,1306.1,658.6,1300.7,647.3,1306.2Z" style="fill:#f9b17c"/><path d="M647.3,1306.2c-22.6-7.8-28.8-206.6-28.8-206.6l-1-24.3s15.9-10.4,14.1-11.3c-2-1-9.8.2-9.8.2l1.1-6.7c4.1-2.8,14.7-3.4,17.7.4,3.8,4.8,10.3,80,10.3,103.1s19.7,135.3,20.4,141.2C671.7,1306.1,658.6,1300.7,647.3,1306.2Z" style="fill:#f48a77"/><circle cx="619.2" cy="1192.8" r="1.7" style="fill:#171338"/><circle cx="621" cy="1221.9" r="1.7" style="fill:#171338"/><circle cx="624.5" cy="1248.9" r="1.7" style="fill:#171338"/><circle cx="629.6" cy="1279.2" r="1.7" style="fill:#171338"/><circle cx="636" cy="1300.5" r="1.7" style="fill:#171338"/><path d="M549.1,957.1a29.19,29.19,0,0,1-16.2,2.4c-3.2-.4-3.2,4.6,0,5a34.9,34.9,0,0,0,18.8-3.1c2.8-1.3.3-5.6-2.6-4.3Z" style="fill:#171338"/><path d="M544,965a22,22,0,0,0,3.3-11.7c0-3.2-5-3.2-5,0a16.66,16.66,0,0,1-2.6,9.2c-1.7,2.7,2.6,5.3,4.3,2.5Z" style="fill:#171338"/><polygon points="1427.5 914.5 1427.5 641.6 696 641.6 696 995.7 1128 995.7 1128 914.5 1427.5 914.5" style="fill:#b5b5e2"/><rect x="1045.9" y="850.2" width="381.7" height="145.5" style="fill:#9594c8"/><circle cx="713.7" cy="970.4" r="12.5" style="fill:#fff"/><circle cx="870.5" cy="818.7" r="20.3" style="fill:#fff"/><circle cx="965" cy="948.1" r="13.3" style="fill:#fff"/><circle cx="1037.7" cy="864.5" r="20.3" transform="translate(18.14 1750.32) rotate(-80.78)" style="fill:#fff"/><circle cx="1151.1" cy="913.2" r="11.1" style="fill:#fff"/><circle cx="1343.5" cy="721.7" r="20.3" style="fill:#fff"/><polygon points="716.3 970.4 712.5 966.3 873.5 814.1 967.1 943.6 1040.5 860.9 1152.7 911.5 1342 725.9 1346 729.9 1153.8 918.2 1042 867.8 966.7 952.6 872.7 822.6 716.3 970.4" style="fill:#fff"/><rect x="736.5" y="669.9" width="35.3" height="17.2" style="fill:#fff"/><line x1="736.5" y1="721.7" x2="978.4" y2="721.7" style="fill:none;stroke:#fff;stroke-linecap:round;stroke-miterlimit:10;stroke-width:4px"/><line x1="736.5" y1="742" x2="823.1" y2="742" style="fill:none;stroke:#fff;stroke-linecap:round;stroke-miterlimit:10;stroke-width:4px"/><line x1="771.6" y1="498.2" x2="1013.6" y2="498.2" style="fill:none;stroke:#b5b5e2;stroke-linecap:round;stroke-miterlimit:10;stroke-width:4px"/><line x1="771.6" y1="518.5" x2="858.3" y2="518.5" style="fill:none;stroke:#b5b5e2;stroke-linecap:round;stroke-miterlimit:10;stroke-width:4px"/><line x1="771.6" y1="584.1" x2="1013.6" y2="584.1" style="fill:none;stroke:#f5f5ff;stroke-linecap:round;stroke-miterlimit:10;stroke-width:4px"/><line x1="771.6" y1="604.4" x2="858.3" y2="604.4" style="fill:none;stroke:#f5f5ff;stroke-linecap:round;stroke-miterlimit:10;stroke-width:4px"/><line x1="736.5" y1="765" x2="911" y2="765" style="fill:none;stroke:#fff;stroke-linecap:round;stroke-miterlimit:10;stroke-width:4px"/><circle cx="1160.3" cy="543.2" r="9.2" style="fill:#b5b5e2"/><path d="M982.7,188.6a157.42,157.42,0,0,0-102.1-46.2v39.7A119.22,119.22,0,1,1,751.2,301.7H711.6A158.8,158.8,0,1,0,982.7,188.6Z" style="fill:#f5f5ff"/><path d="M867.8,179.9h2.6V140.3h-2.6a158.84,158.84,0,0,0-158.7,152h39.6C752.4,229.8,804.4,179.9,867.8,179.9Z" style="fill:#b5b5e2"/><rect x="706" y="473.3" width="49.9" height="49.9" style="fill:#b5b5e2"/><rect x="706" y="557.4" width="49.9" height="49.9" style="fill:#f5f5ff"/><rect x="1132.8" y="391.5" width="618" height="202.1" style="fill:#f5f5ff"/><polyline points="1160.3 543.2 1302.9 473.2 1311.6 495.9 1401.8 457.1 1411.9 478.9 1541.3 418.9" style="fill:#f5f5ff;stroke:#b5b5e2;stroke-miterlimit:10;stroke-width:3px"/><polyline points="1514.7 410.3 1553.3 410.3 1541.3 447.5" style="fill:#f5f5ff;stroke:#b5b5e2;stroke-miterlimit:10;stroke-width:3px"/><rect x="1463.8" y="481" width="35.3" height="17.2" style="fill:#b5b5e2"/><line x1="1463.8" y1="532.9" x2="1705.7" y2="532.9" style="fill:none;stroke:#b5b5e2;stroke-miterlimit:10;stroke-width:3px"/><line x1="1463.8" y1="553.2" x2="1550.4" y2="553.2" style="fill:none;stroke:#b5b5e2;stroke-miterlimit:10;stroke-width:3px"/><line x1="1463.8" y1="576.1" x2="1638.3" y2="576.1" style="fill:none;stroke:#b5b5e2;stroke-miterlimit:10;stroke-width:3px"/><polygon points="1427.5 850.2 1427.5 995.7 1045.9 995.7 1045.9 1246.1 1661.2 1246.1 1661.2 850.2 1427.5 850.2" style="fill:#f5f5ff"/><rect x="1162.7" y="1079.8" width="40.6" height="103.9" style="fill:#b5b5e2"/><rect x="1227.4" y="1024.5" width="40.6" height="159.2" style="fill:#b5b5e2"/><rect x="1292.1" y="1088.3" width="40.6" height="95.3" style="fill:#b5b5e2"/><rect x="1356.8" y="1032.4" width="40.6" height="151.3" style="fill:#b5b5e2"/><rect x="1421.5" y="1105.1" width="40.6" height="78.5" style="fill:#b5b5e2"/><rect x="1486.2" y="991.3" width="40.6" height="192.4" style="fill:#b5b5e2"/><rect x="1550.9" y="933" width="40.6" height="250.7" style="fill:#b5b5e2"/><line x1="1591.6" y1="1208.9" x2="1095.5" y2="1208.9" style="fill:none;stroke:#b5b5e2;stroke-miterlimit:10;stroke-width:3px"/></svg>