<svg xmlns="http://www.w3.org/2000/svg" viewBox="0 0 1984.3 1984.3"><defs><clipPath ><path d="M1159.2,487.6c-142-67.6-345.4-24.5-343.9,158.6,1,128.2,229.2,12.4,202.7,160.3s65.8,263.5,202.4,223.9S1336.9,798.9,1473,856s199.3,48.6,208.1-34.5-58.5-255.2-246.4-267.3C1272.1,543.6,1311.5,560.1,1159.2,487.6Z" style="fill:none"/></clipPath></defs><path d="M687.5,1516.2c18.8-31.9,52.8-51.8,89.8-53.5,83.5-3.8,268.8-19.8,361-87.5,121.3-89.1,153.5-118.7,317.3-39.6s181-30.9,238.7,78.2-18,259-249.3,188.7-315.3-24.3-507.3-16.2C775.6,1593,638.6,1599.3,687.5,1516.2Z" style="fill:#e9f3fb"/><path d="M1484.3,628.3c-1,1.6-1.9,3.3-3,5-7.7,12.5-17.8,26.6-29.4,42.2-1.2,1.7-2.5,3.3-3.8,5-3.2,4.2-6.4,8.5-9.8,12.9a77.11,77.11,0,0,0-12.7,25.7,45.35,45.35,0,0,0-1.2,5c-3,13.7-2.9,28-1.6,42.1a2,2,0,0,0,.1.8c.1,1.4.3,2.8.4,4.2,0,.3.1.6.1.8,1.7,14.5,4.3,28.7,5.7,41.6.2,1.7.3,3.3.5,5,1.3,16.1.2,29.9-8,39.3a31,31,0,0,1-5.7,5c-6.6,4.6-16,7.5-29.2,8.4-16.7,1.1-30,3.5-40.6,6.9-1.7.5-3.3,1.1-4.9,1.7-15.9,6.1-25.1,14.7-31,25-.9,1.6-1.8,3.3-2.6,5-5.3,11.8-7.2,25.2-9.8,39-.3,1.7-.6,3.3-1,5-3,14.4-7.3,28.9-17.8,42-1.2,1.4-2.4,2.8-3.7,4.2-.2.3-.5.5-.7.8a45.86,45.86,0,0,1-3.9,3.7c-11.1,10-27,18.8-50.3,25.6a191.11,191.11,0,0,1-49.5,7.8h-5c-31.9-.4-60-10-83.2-26.8q-2.55-1.8-5.1-3.9c-2.4-1.9-4.7-3.9-7-5.9-1.8-1.6-3.5-3.3-5.2-5-2-2-4-4.1-5.9-6.2s-3.6-4.1-5.3-6.2a171.38,171.38,0,0,1-19.2-30.1c-.8-1.6-1.6-3.3-2.4-5-.4-1-.9-1.9-1.3-2.9-1.7-3.8-3.3-7.8-4.7-11.8a201.16,201.16,0,0,1-7-23.6c-.4-1.7-.8-3.3-1.1-5a242.44,242.44,0,0,1-4.9-42.7c0-1.7-.1-3.3-.1-5a280.33,280.33,0,0,1,2.4-38.3,21.66,21.66,0,0,1,.4-2.5c.1-.8.2-1.6.3-2.5a4.25,4.25,0,0,1,.2-1.1c.4-2.4.8-4.9,1.2-7.3,2.4-13.5,2.7-24.7,1.3-34.2-.3-1.7-.6-3.4-1-5-20.2-86.6-202.1-6.7-203-121.1-1.5-183.1,204.1-230.6,343.9-158.6,61.4,31.6,87.3,44.6,109.4,50.5a144.77,144.77,0,0,0,25.8,4.3l4,.3,5,.4c6.7.4,14.1.8,22.8,1.3l5,.3c19.5,1.1,45.1,2.8,81.6,6.9l5,.6c5.4.6,10.9,1.3,16.8,2,39.3,4.9,57.9,14.8,61.9,30.4a27.45,27.45,0,0,1,.8,5C1498.1,600.1,1493.2,613,1484.3,628.3Z" style="fill:#e9f3fb"/><path d="M1268.7,538.1a144.77,144.77,0,0,0,25.8,4.3h-24.1A2.5,2.5,0,0,1,1268.7,538.1Z" style="fill:#fff"/><path d="M1496.6,584.5a27.45,27.45,0,0,1,.8,5c-5.5,0-11,0-16.5.1H1476c-11.6,0-23.2.1-34.8.1q-32.85.15-65.6.2h-5c-27.6.1-55.3.2-82.9.2h-12.4c-3.2,0-3.2-5,0-5,17.1,0,34.1-.1,51.2-.1h5c15.2,0,30.4-.1,45.7-.1,12.1,0,24.2-.1,36.3-.1h5Z" style="fill:#fff"/><path d="M1484.3,628.3c-1,1.6-1.9,3.3-3,5H1272.1c-3.2,0-3.2-5,0-5Z" style="fill:#fff"/><path d="M1410.6,675.7c13.8,0,27.5-.1,41.3-.2-1.2,1.7-2.5,3.3-3.8,5H1441c-10.4,0-20.7.1-31.1.1h-3.6c-13.6,0-27.2.1-40.9.1h-5c-12.7,0-25.4.1-38.2.1h-5c-13.2,0-26.5.1-39.7.1H1275a2.5,2.5,0,0,1,0-5c14.1,0,28.2-.1,42.3-.1h5c18.2,0,36.3-.1,54.5-.2,9.6,0,19.1-.1,28.7-.1A21.8,21.8,0,0,0,1410.6,675.7Z" style="fill:#fff"/><path d="M1425.7,719.3a45.35,45.35,0,0,0-1.2,5H1275.2a2.25,2.25,0,0,1-2.2-1.4,2.8,2.8,0,0,1,0-2.2,2.27,2.27,0,0,1,2.2-1.3h150.5Z" style="fill:#fff"/><path d="M1423.3,771.4c-10.6,0-21.3.1-31.9.1h-5c-8.4,0-16.7,0-25.1.1h-7.9c-16.7,0-33.5.1-50.2.1h-5c-8.4,0-16.8,0-25.2.1h-4.8c-32.9.1-65.9.2-98.8.2h-14.7c-2.9,0-3.2-4-.9-4.8a2.92,2.92,0,0,1,.9-.2l116.9-.3c8.9,0,17.9,0,26.8-.1h5c27.7-.1,55.4-.1,83.1-.2h5c10.5,0,21-.1,31.5-.1a2,2,0,0,0,.1.8A20.35,20.35,0,0,0,1423.3,771.4Z" style="fill:#fff"/><path d="M1298.5,542.7v2.6c0,3.2,5,3.2,5,0v-2.2Z" style="fill:#fff"/><path d="M1331.4,585.1v2.4c0,3.2-5,3.2-5,0v-2.3c.2-13.6.2-27.2-.1-40.7l5,.3C1331.6,558.1,1331.6,571.6,1331.4,585.1Z" style="fill:#fff"/><path d="M1418.3,584.5v.3c-.3,2.8-4.6,2.8-5,0v-.3c-.2-11-.3-22-.4-32.9l5,.6C1418,562.9,1418.2,573.7,1418.3,584.5Z" style="fill:#fff"/><path d="M1282.6,588.6c.4,16.3.5,32.6.2,48.9-.1,3.2,4.9,3.2,5,0,.3-16.3.2-32.6-.2-48.9-.1-3.2-5.1-3.2-5,0Z" style="fill:#fff"/><path d="M1370.5,588.7l.6,45.9c0,3.2,5,3.2,5,0l-.6-45.9c0-3.3-5-3.3-5,0Z" style="fill:#fff"/><path d="M1475.9,590.1c-.2,13.6-.2,27.2.2,40.7.1,3.2,5.1,3.2,5,0-.4-13.6-.4-27.2-.2-40.7.1-3.2-4.9-3.2-5,0Z" style="fill:#fff"/><path d="M1317.1,633.1c.4,16.3.5,32.6.2,48.9-.1,3.2,4.9,3.2,5,0,.3-16.3.2-32.6-.2-48.9-.1-3.2-5.1-3.2-5,0Z" style="fill:#fff"/><path d="M1405,633.1l.6,45.9c0,3.2,5,3.2,5,0l-.6-45.9c-.1-3.2-5.1-3.2-5,0Z" style="fill:#fff"/><path d="M1272.6,679.6c.4,16.3.5,32.6.2,48.9-.1,3.2,4.9,3.2,5,0,.3-16.3.2-32.6-.2-48.9-.1-3.2-5.1-3.3-5,0Z" style="fill:#fff"/><path d="M1360.5,679.6l.6,45.9c0,3.2,5,3.2,5,0l-.6-45.9c-.1-3.2-5.1-3.2-5,0Z" style="fill:#fff"/><path d="M1297.9,726.4c.4,16.3.5,32.6.2,48.9-.1,3.2,4.9,3.2,5,0,.3-16.3.2-32.6-.2-48.9-.1-3.2-5.1-3.2-5,0Z" style="fill:#fff"/><path d="M1385.8,726.5l.6,45.9c0,3.2,5,3.2,5,0l-.6-45.9c-.1-3.3-5.1-3.3-5,0Z" style="fill:#fff"/><path d="M1423.4,772.2H1019.3c-.3-1.7-.6-3.4-1-5h404.6c.1,1.4.3,2.8.4,4.2C1423.3,771.7,1423.4,772,1423.4,772.2Z" style="fill:#fff"/><path d="M1429.6,818.9c-12.8,0-25.6.1-38.4.1h-5c-8.1,0-16.2,0-24.3.1q-79.8.15-159.7.4h-4.7c-13.8,0-27.6.1-41.4.1-13.5,0-26.9.1-40.4.1h-4.9c-9.3,0-18.6.1-28,.1h-5c-10.1,0-20.1,0-30.2.1h-5c-9,0-17.9,0-26.9.1a21.66,21.66,0,0,1,.4-2.5,2.56,2.56,0,0,1-4-1.2l-.3-1.2h5.2c16.4,0,32.8-.1,49.2-.1h16.7c27.3-.1,54.6-.1,81.8-.2h5q49.35-.15,98.7-.2h4.5c27.6-.1,55.3-.2,82.9-.2h4.7c22.8-.1,45.7-.1,68.5-.2C1429.3,815.6,1429.4,817.2,1429.6,818.9Z" style="fill:#fff"/><path d="M1421.5,858.2a31,31,0,0,1-5.7,5H1013.5c0-1.7-.1-3.3-.1-5Z" style="fill:#fff"/><path d="M1002.9,906.2c1,3.1-3.9,4.4-4.8,1.3-.2-.6-.3-1.1-.5-1.7h5.2C1002.8,906,1002.9,906.1,1002.9,906.2Z" style="fill:#fff"/><path d="M1272,905.2c12.7,0,25.4-.1,38.1-.1-.9,1.6-1.8,3.3-2.6,5-6.4,0-12.8,0-19.2.1h-5q-49.35.15-98.7.2h-5c-7.8,0-15.7,0-23.5.1h-4c-18,0-36,.1-54,.1h-5c-8.1,0-16.2,0-24.3.1h-5c-11.1,0-22.3,0-33.4.1h-10.8c-.4-1.7-.8-3.3-1.1-5h11.3c11.4,0,22.8,0,34.1-.1h5c27.3-.1,54.5-.1,81.8-.2h5c32.8-.1,65.7-.2,98.5-.2h4.9C1263.3,905.2,1267.7,905.2,1272,905.2Z" style="fill:#fff"/><path d="M1297.8,949.1c-.3,1.7-.6,3.3-1,5H1028a2,2,0,0,1-.4-.8,31.48,31.48,0,0,1-.9-4.2Z" style="fill:#fff"/><path d="M1279,996.1c-1.2,1.4-2.4,2.8-3.7,4.2a2,2,0,0,1,.4.8h-4.8q-50.25.15-100.5.2h-14.2c-10.6,0-21.3,0-31.9.1h-1.1c-13.5,0-27.1.1-40.7.1h-11.8c-1.8-1.6-3.5-3.3-5.2-5h.9c18.3-.1,36.7-.1,55-.1h5c27.3-.1,54.6-.1,81.9-.2h5c19.6,0,39.2-.1,58.9-.1Z" style="fill:#fff"/><path d="M1478.8,1000.6c-31.1.1-62.1.2-93.2.2.9-1.7,2-3.3,3.1-5q45-.15,90-.2C1482,995.6,1482,1000.6,1478.8,1000.6Z" style="fill:#fff"/><path d="M1440,1045h-51.6a43,43,0,0,1-2.9-5h54.6C1443.2,1040,1443.2,1045,1440,1045Z" style="fill:#fff"/><path d="M1480.3,1091a2.46,2.46,0,0,1-1.5.5c-11.8,0-23.6.1-35.4.1-2.5-1.7-5-3.3-7.5-5,14.3,0,28.6-.1,42.9-.1a2.13,2.13,0,0,1,1.2.3A2.63,2.63,0,0,1,1480.3,1091Z" style="fill:#fff"/><path d="M1014,767.2h-4C1011.1,766,1013.3,765.7,1014,767.2Z" style="fill:#fff"/><path d="M1016.3,817.4a2.56,2.56,0,0,1-4-1.2l-.3-1.2h4.7a4.25,4.25,0,0,1,.2-1.1c.1.3.2.7.3,1v.1A2.41,2.41,0,0,1,1016.3,817.4Z" style="fill:#fff"/><path d="M1077.7,770.9c.4,16.3.5,32.6.2,48.9-.1,3.2,4.9,3.2,5,0,.3-16.3.2-32.6-.2-48.9-.1-3.2-5.1-3.2-5,0Z" style="fill:#fff"/><path d="M1164.3,770.9l.6,45.9c0,3.2,5,3.2,5,0l-.6-45.9c-.1-3.2-5.1-3.2-5,0Z" style="fill:#fff"/><path d="M1268,772.4c-.2,13.6-.2,27.2.2,40.7.1,3.2,5.1,3.2,5,0-.4-13.6-.4-27.2-.2-40.7.1-3.2-4.9-3.2-5,0Z" style="fill:#fff"/><path d="M1353.1,770.2a212.88,212.88,0,0,1,2.7,42.9c-.1,3.2,4.9,3.2,5,0a212.51,212.51,0,0,0-2.9-44.3c-.5-3.1-5.3-1.8-4.8,1.4Z" style="fill:#fff"/><path d="M1042.6,818.7a166,166,0,0,1,1.8,25.4c0,7.1-1.2,14.5,1,21.4,1,3.1,5.8,1.8,4.8-1.3-2.4-7.5-.7-16.1-.8-23.9a175.46,175.46,0,0,0-2-22.9c-.4-3.2-5.3-1.9-4.8,1.3Z" style="fill:#fff"/><path d="M1110.9,820.3c.4,16.3.5,32.6.2,48.9-.1,3.2,4.9,3.2,5,0,.3-16.3.2-32.6-.2-48.9-.1-3.2-5.1-3.3-5,0Z" style="fill:#fff"/><path d="M1197.4,820.3l.6,45.9c0,3.2,5,3.2,5,0l-.6-45.9c0-3.2-5-3.2-5,0Z" style="fill:#fff"/><path d="M1301.2,821.8c-.2,13.6-.2,27.2.2,40.7.1,3.2,5.1,3.2,5,0-.4-13.6-.4-27.2-.2-40.7,0-3.3-5-3.3-5,0Z" style="fill:#fff"/><path d="M1386.3,819.5a212.88,212.88,0,0,1,2.7,42.9c-.1,3.2,4.9,3.2,5,0a212.51,212.51,0,0,0-2.9-44.3c-.6-3.1-5.4-1.7-4.8,1.4Z" style="fill:#fff"/><path d="M999.4,858.2h-3A2.4,2.4,0,0,1,999.4,858.2Z" style="fill:#fff"/><path d="M998.1,907.6c-.2-.6-.3-1.1-.5-1.7h5.2c0,.1.1.3.1.4C1003.9,909.3,999,910.6,998.1,907.6Z" style="fill:#fff"/><path d="M1063.5,862.4c.4,16.3.5,32.6.2,48.9-.1,3.2,4.9,3.2,5,0,.3-16.3.2-32.6-.2-48.9,0-3.2-5-3.2-5,0Z" style="fill:#fff"/><path d="M1150.1,862.4l.6,45.9c0,3.2,5,3.2,5,0l-.6-45.9c-.1-3.2-5.1-3.2-5,0Z" style="fill:#fff"/><path d="M1253.8,863.9c-.2,13.6-.2,27.2.2,40.7.1,3.2,5.1,3.2,5,0-.4-13.6-.4-27.2-.2-40.7.1-3.3-4.9-3.3-5,0Z" style="fill:#fff"/><path d="M1346,878.4c-1.7.5-3.3,1.1-4.9,1.7-.4-5.7-1.1-11.3-2-17a7.72,7.72,0,0,1-.2-1.5c-.5-3.1,4.3-4.5,4.8-1.3.2,1,.3,1.9.5,2.9C1345,868.2,1345.6,873.3,1346,878.4Z" style="fill:#fff"/><path d="M1032.1,954.1a2.64,2.64,0,0,1-4.1,0,2,2,0,0,1-.4-.8,31.48,31.48,0,0,1-.9-4.2c-.7-4.8-.2-9.8-.1-14.7v-2.5a167.57,167.57,0,0,0-1.3-21.2c-.2-1.4-.3-2.8-.6-4.2v-.8c.3-2.6,4.4-3.5,4.8-.6a4.33,4.33,0,0,0,.1.5c.2,1.7.5,3.3.7,5a165.67,165.67,0,0,1,1.2,17.3c.1,5.8-.8,12.1-.3,18.1a25.35,25.35,0,0,0,.4,2.9,24.6,24.6,0,0,0,.7,2.9A2.2,2.2,0,0,1,1032.1,954.1Z" style="fill:#fff"/><path d="M1093.1,908.1c.4,16.3.5,32.6.2,48.9-.1,3.2,4.9,3.2,5,0,.3-16.3.2-32.6-.2-48.9-.1-3.2-5.1-3.2-5,0Z" style="fill:#fff"/><path d="M1179.6,908.1l.6,45.9c0,3.2,5,3.2,5,0l-.6-45.9c0-3.2-5-3.2-5,0Z" style="fill:#fff"/><path d="M1283.4,909.6c-.2,13.6-.2,27.2.2,40.7.1,3.2,5.1,3.2,5,0-.4-13.6-.4-27.2-.2-40.7,0-3.2-5-3.2-5,0Z" style="fill:#fff"/><path d="M1054.2,984.2c.1-3.4.3-6.8.3-10.1a166.43,166.43,0,0,0-1.1-20c-.2-1.7-.4-3.3-.7-5a.6.6,0,0,0-.1-.4c-.5-3.1,4.4-4.5,4.8-1.3a11,11,0,0,1,.2,1.8c.2,1.7.5,3.3.6,5,.6,5.4,1,10.7,1.1,16.1.1,6.5-1.1,13.6,0,20.2C1057.7,988.4,1055.9,986.3,1054.2,984.2Z" style="fill:#fff"/><path d="M1121,950.2c.4,16.3.5,32.6.2,48.9-.1,3.2,4.9,3.2,5,0,.3-16.3.2-32.6-.2-48.9-.1-3.2-5.1-3.2-5,0Z" style="fill:#fff"/><path d="M1207.6,950.3l.6,45.9c0,3.2,5,3.2,5,0l-.6-45.9c-.1-3.3-5.1-3.3-5,0Z" style="fill:#fff"/><path d="M1404.1,992.4c-.1,3.2-5.1,3.2-5,0,.1-2.9.2-5.8.2-8.6,1.6-1.5,3.2-3,4.9-4.4C1404.3,983.7,1404.3,988.1,1404.1,992.4Z" style="fill:#fff"/><path d="M1082.7,1011.4q-2.55-1.8-5.1-3.9c0-2-.1-3.9-.1-5.9v-1.3c-.1-3.2,4.9-3.2,5,0v1.3C1082.6,1004.8,1082.6,1008.1,1082.7,1011.4Z" style="fill:#fff"/><path d="M1170.9,1038.2h-5c-.2-12.3-.3-24.6-.5-36.8v-1c0-3.2,5-3.2,5,0v1C1170.5,1013.6,1170.7,1025.9,1170.9,1038.2Z" style="fill:#fff"/><path d="M1274.6,1001.1a45.86,45.86,0,0,1-3.9,3.7v-3a1.48,1.48,0,0,1,.1-.7,2.58,2.58,0,0,1,4.4-.8,2,2,0,0,1,.4.8Z" style="fill:#fff"/><path d="M1398.5,1057.6c-2.1-2.2-4-4.4-5.8-6.5l-.9-6c-.1-.3-.1-.7-.2-1-.5-3.1,4.3-4.5,4.8-1.3.1.8.3,1.5.4,2.3C1397.5,1049.2,1398.1,1053.4,1398.5,1057.6Z" style="fill:#fff"/><path d="M1725.6,874.4a115.35,115.35,0,0,1-3.5,17.5c-.5,1.7-.9,3.3-1.5,5-4.1,13.2-9.9,26-15.3,38.9-.6,1.5-1.2,3-1.9,4.5-.1.2-.1.3-.2.5-5.6,13.8-10.6,27.9-14.8,42.1-.5,1.7-1,3.3-1.4,5-3.6,12.8-6.7,25.7-9.1,38.8-.3,1.7-.6,3.3-.9,5-2.5,14-4.3,28-5.4,42.2-.1,1.7-.3,3.3-.4,5-.9,12.9-1.2,25.8-1,38.7,0,1.7.1,3.3.1,5,.1,3.4.2,6.9.4,10.3v.3c.5,10.6,1.4,21.1,2.8,31.6.2,1.7.4,3.3.6,5,0,.3.1.6.1.9,1.1,8.2,2.5,16.5,4.1,24.6l2.7,13.2c.3,1.7.7,3.3,1,5,2.3,12.4,3.9,24.9,2.2,37.3a40.48,40.48,0,0,1-.9,4.8,46.69,46.69,0,0,1-1.4,5c-4.8,14.9-15.6,28.2-30.7,31.1-10,2-20.3-.7-30.2-3.4-24.1-6.6-49.7-14.5-70.8-27.4-2.6-1.6-5.2-3.2-7.6-5h-.1c-11.9-8.5-21.8-18.8-28.9-31.8a85.3,85.3,0,0,1-4.8-10.7c-.6-1.6-1.2-3.3-1.8-5-4-12.3-6.2-25.4-8.9-38.3-.3-1.7-.7-3.3-1.1-5-2.9-12.9-6.5-25.5-13.5-36.7-1.3-2.1-2.7-4-4.1-5.9-1.3-1.7-2.7-3.4-4.1-5-.6-.7-1.3-1.5-2-2.2-8.6-9.1-19.1-16.6-29.9-23.8-2.5-1.7-5-3.3-7.5-5-3.6-2.4-7.2-4.7-10.7-7.1-2.2-1.5-4.3-3-6.5-4.6-1.8-1.3-3.6-2.6-5.3-4a157.71,157.71,0,0,1-14.9-13.3c-2.1-2.2-4-4.4-5.8-6.5-1.6-2-3.1-4-4.4-6a43,43,0,0,1-2.9-5c-7.4-14.2-6.4-27.2.2-39.2.9-1.7,2-3.3,3.1-5a82,82,0,0,1,10.5-12c1.6-1.5,3.2-3,4.9-4.4,16.2-13.8,38.8-26.2,62.2-37.6a18.65,18.65,0,0,0,2-1c.9-.4,1.8-.9,2.7-1.3,2.6-1.2,5.2-2.5,7.8-3.7,12.4-5.8,24.7-11.4,36.2-16.7,1.7-.8,3.3-1.6,5-2.3,14.2-6.7,26.7-13.2,35.9-19.4a83.44,83.44,0,0,0,6.7-5,5.72,5.72,0,0,0,.8-.7c14.1-12.4,25.4-27.5,37.6-41.8,1.4-1.7,2.9-3.4,4.3-5a193.69,193.69,0,0,1,16.8-17.1c21.8-19.1,55-30.5,79.5-15,11.3,7.2,18.5,19,21.9,32,.4,1.6.8,3.3,1.1,5A72.75,72.75,0,0,1,1725.6,874.4Z" style="fill:#e9f3fb"/><path d="M1643.8,1294.5c-8.1,0-16.1-2.2-23.4-4.2-23-6.3-49.4-14.2-71.3-27.6-2.5-1.5-4.9-3.1-7.2-4.7h0l-.6-.4c-13.1-9.3-22.7-20-29.5-32.5a99.51,99.51,0,0,1-4.9-10.9q-.9-2.4-1.8-5.1c-3.2-9.9-5.3-20.3-7.3-30.4-.5-2.7-1.1-5.4-1.6-8.1-.3-1.7-.7-3.3-1.1-5-2.5-11.3-6-24.5-13.2-36.1a67,67,0,0,0-4-5.8c-1.3-1.7-2.6-3.3-4-4.9-.6-.7-1.3-1.4-2-2.1-8.1-8.5-17.7-15.6-29.6-23.5-1.9-1.3-3.8-2.5-5.7-3.8l-1.8-1.2c-3-1.9-6.8-4.5-10.7-7.1-2.4-1.6-4.5-3.1-6.5-4.6s-3.7-2.8-5.4-4.1a148.89,148.89,0,0,1-15.1-13.5c-2.2-2.3-4.1-4.5-5.9-6.7a60.46,60.46,0,0,1-4.5-6.2c-1.1-1.7-2.1-3.5-3-5.2-7.3-13.9-7.2-27.7.3-41.1a44.49,44.49,0,0,1,3.3-5.2,78.34,78.34,0,0,1,10.7-12.3c1.6-1.5,3.3-3,5-4.5,14-11.9,33.3-23.6,62.6-37.9.5-.2,1-.5,1.5-.7l.6-.3c.9-.4,1.8-.9,2.7-1.3,2.6-1.2,5.2-2.5,7.8-3.7,6.5-3,12.9-6,19.2-8.9,5.9-2.7,11.5-5.3,16.9-7.8,1.6-.7,3.2-1.5,4.7-2.2l.2-.1c11.3-5.4,25.6-12.4,35.7-19.2,2.4-1.6,4.6-3.3,6.6-4.9.3-.2.5-.5.8-.7,10.7-9.4,20.1-20.7,29.1-31.6,2.7-3.3,5.5-6.7,8.3-9.9,1.4-1.7,2.9-3.4,4.3-5a185.38,185.38,0,0,1,17-17.2c21.4-18.8,56.2-31.5,81.9-15.2,11,7,18.9,18.5,22.8,33.2a43.71,43.71,0,0,1,1.2,5.2,81.73,81.73,0,0,1,.8,25.2h0a127.68,127.68,0,0,1-3.6,17.8l-1.5,5.1c-3.4,10.9-8,21.6-12.4,32-1,2.3-2,4.7-3,7l-1.5,3.6-.5,1.1c0,.1-.1.2-.1.3a432.76,432.76,0,0,0-14.7,41.9c-.5,1.7-1,3.3-1.4,5-3.6,12.7-6.6,25.7-9.1,38.6-.3,1.7-.6,3.3-.9,5-2.5,13.9-4.3,28-5.4,42-.1,1.7-.3,3.3-.4,5-.9,12.8-1.2,25.8-1,38.6,0,1.7.1,3.3.1,5,.1,3.3.2,6.7.4,10.2v.4c.5,10.4,1.4,21,2.7,31.4.2,1.7.4,3.3.6,5,0,.3.1.6.1.8,1.1,8.1,2.5,16.4,4.1,24.6.5,2.4,1,4.9,1.5,7.4.4,1.9.8,3.9,1.2,5.9.3,1.7.7,3.3,1,5,2.1,11.3,4,24.7,2.2,38a40.14,40.14,0,0,1-.9,5c-.4,1.7-.9,3.4-1.4,5.2-5.5,17.2-17.9,29.6-32.3,32.5C1649,1294.3,1646.4,1294.5,1643.8,1294.5Zm-100.6-40.4.5.3c2.4,1.7,4.9,3.3,7.5,4.9,21.5,13.1,47.6,20.9,70.3,27.1,9.1,2.5,19.4,5.4,29.3,3.4,13-2.6,24.2-14,29.2-29.8a42.74,42.74,0,0,0,1.3-4.8c.4-1.5.6-3.1.9-4.7,1.7-12.7-.1-25.7-2.2-36.7-.3-1.7-.6-3.3-1-5-.4-1.9-.8-3.9-1.2-5.8-.5-2.5-1-4.9-1.5-7.4-1.6-8.3-3-16.6-4.1-24.7,0-.3-.1-.6-.1-.9-.2-1.6-.4-3.3-.6-5-1.3-10.5-2.2-21.2-2.8-31.7v-.3c-.2-3.5-.3-7-.4-10.4-.1-1.7-.1-3.3-.1-5-.2-12.9.1-26,1-38.9.1-1.7.2-3.3.4-5,1.1-14.1,3-28.3,5.4-42.4.3-1.7.6-3.4.9-5,2.4-13,5.5-26.1,9.1-38.9.5-1.7.9-3.4,1.4-5,4.2-14.3,9.2-28.5,14.8-42.3l.1-.2c0-.1.1-.2.1-.3l.4-.9,1.5-3.6c1-2.3,2-4.7,3-7,4.4-10.3,8.9-20.9,12.3-31.6.5-1.6,1-3.2,1.5-4.9a119.4,119.4,0,0,0,3.5-17.2h0a77.09,77.09,0,0,0-.8-24c-.3-1.6-.7-3.2-1.1-4.9-2.5-9.6-8.3-22.7-21.1-30.9-23.9-15.2-56.7-3-77.1,14.8a179,179,0,0,0-16.7,16.9c-1.4,1.6-2.9,3.3-4.3,5-2.8,3.3-5.6,6.6-8.3,9.9-9.1,11-18.5,22.4-29.5,32.1a6.47,6.47,0,0,0-.9.8,68.75,68.75,0,0,1-6.9,5.1c-10.3,6.9-24.7,14.1-36.2,19.5l-.3.1c-1.6.7-3.1,1.5-4.7,2.2-5.5,2.6-11.1,5.1-17,7.9-6.3,2.9-12.7,5.9-19.2,8.9-2.6,1.2-5.2,2.5-7.8,3.7-.9.4-1.8.9-2.7,1.3l-.5.3c-.5.2-1,.5-1.5.7-29,14.1-48.1,25.6-61.8,37.3-1.7,1.4-3.3,2.9-4.8,4.4a81.16,81.16,0,0,0-10.2,11.7,37.31,37.31,0,0,0-3,4.8c-6.8,12.3-6.9,24.5-.2,37.3.8,1.6,1.8,3.2,2.8,4.8,1.3,1.9,2.7,3.9,4.3,5.9a79.74,79.74,0,0,0,5.7,6.4,139.86,139.86,0,0,0,14.7,13.1c1.6,1.2,3.3,2.5,5.2,4s4.1,2.9,6.4,4.5c3.8,2.6,7.7,5.2,10.7,7.1l1.8,1.2c1.9,1.3,3.8,2.5,5.7,3.8,12.1,8.1,21.9,15.3,30.3,24.1.7.7,1.4,1.5,2,2.2,1.5,1.6,2.9,3.4,4.2,5.1,1.5,2,2.9,4,4.2,6.1,7.5,12.1,11.2,25.7,13.7,37.3.4,1.7.7,3.3,1.1,5,.6,2.7,1.1,5.4,1.6,8.2,2,10,4,20.3,7.2,29.9.6,1.8,1.2,3.4,1.7,4.9a92.31,92.31,0,0,0,4.7,10.5A96.13,96.13,0,0,0,1543.2,1254.1Z" style="fill:#fff"/><path d="M1723.7,844.8c.4,1.6.8,3.3,1.1,5H1601.1c1.4-1.7,2.9-3.4,4.3-5Z" style="fill:#fff"/><path d="M1640.5,892.1c27.2-.1,54.4-.1,81.5-.2-.5,1.7-.9,3.3-1.5,5-15.9,0-31.8.1-47.7.1h-4.7c-13.8,0-27.6.1-41.4.1-13.5,0-26.9.1-40.4.1h-4.9c-8.5,0-17.1,0-25.6.1a83.44,83.44,0,0,0,6.7-5c24.3-.1,48.6-.1,72.8-.2Z" style="fill:#fff"/><path d="M1705.3,935.7c-.6,1.5-1.2,3-1.9,4.5-.1.2-.1.3-.2.5H1468.5c.9-.4,1.8-.9,2.7-1.3,2.6-1.2,5.2-2.5,7.8-3.7Z" style="fill:#fff"/><path d="M1626.4,983c20.7-.1,41.4-.1,62.1-.2-.5,1.7-1,3.3-1.4,5-10.5,0-21.1.1-31.6.1h-5c-7.8,0-15.6,0-23.5.1h-4c-18,0-36,.1-54,.1h-5c-8.1,0-16.2,0-24.3.1h-5c-11.1,0-22.3.1-33.4.1h-5c-25.3.1-50.6.1-76,.2-3.2,0-3.2-5,0-5,16.1,0,32.1-.1,48.2-.1h5.2c7.3,0,14.7,0,22-.1h4.9c11.4,0,22.7-.1,34.1-.1h5c27.3-.1,54.6-.1,81.8-.2C1623,983.1,1624.7,983,1626.4,983Z" style="fill:#fff"/><path d="M1678.3,1027.8c0,1.3,0,2.6.1,3.8H1434.5c-3.2,0-3.2-5,0-5h244.1A1.38,1.38,0,0,0,1678.3,1027.8Z" style="fill:#fff"/><path d="M1597,1074c24.9-.1,49.7-.1,74.6-.2-.1,1.7-.3,3.3-.4,5-10,0-20.1,0-30.1.1h-14.2c-10.6,0-21.3.1-31.9.1h-1.1c-13.5,0-27.1.1-40.6.1h-5c-21.3.1-42.6.1-64,.2h-5c-18,.1-36,.1-54,.1h-5.1c-2.7,0-3.1-3.4-1.4-4.6a2.89,2.89,0,0,1,1.4-.4c19.7,0,39.5-.1,59.2-.1h4.1c14.5,0,29.1-.1,43.6-.1h10c18.3-.1,36.7-.1,55-.1C1593.6,1074.1,1595.3,1074,1597,1074Z" style="fill:#fff"/><path d="M1670.2,1117.6c0,1.7.1,3.3.1,5H1479.5c-1.3-1.7-2.7-3.4-4.1-5Z" style="fill:#fff"/><path d="M1676.2,1168.3a2.46,2.46,0,0,1-.5,1.5h-4c-13.6,0-27.1.1-40.7.1h-5c-12.7,0-25.4.1-38.1.1h-5c-13.2,0-26.5.1-39.8.1h-5c-13.3,0-26.7.1-40,.1-.3-1.7-.7-3.3-1.1-5h39.9c15.3,0,30.7-.1,46-.1h5c27.7-.1,55.5-.1,83.2-.2h5C1676.1,1165.9,1676.1,1167.1,1676.2,1168.3Z" style="fill:#fff"/><path d="M1681,1208.5c.3,1.7.7,3.3,1,5H1508.8c-.6-1.6-1.2-3.3-1.8-5Z" style="fill:#fff"/><path d="M1656.9,1255.7c8.8,0,17.6,0,26.4-.1a46.69,46.69,0,0,1-1.4,5c-8.3,0-16.6,0-24.9.1h-5c-8.4,0-16.7,0-25.1.1-19.4.1-38.8.1-58.2.1h-18.6c-2.6-1.6-5.2-3.2-7.6-5,7.1,0,14.2,0,21.2-.1h5c27.7-.1,55.4-.1,83.1-.2C1653.5,1255.7,1655.2,1255.7,1656.9,1255.7Z" style="fill:#fff"/><path d="M1634.9,848.5l.6,45.9c0,3.2,5,3.2,5,0l-.6-45.9c0-3.2-5-3.2-5,0Z" style="fill:#fff"/><path d="M1516.1,943.1c-.2-.8-.4-1.5-.6-2.3a42.61,42.61,0,0,1-.6-5c-.2-4.7.3-9.4.3-14.1V919c1.7-.8,3.3-1.6,5-2.3v1.1c.1,5.8-.8,12-.3,17.9a27.45,27.45,0,0,0,.8,5c.1.3.2.7.3,1C1521.9,944.8,1517.1,946.1,1516.1,943.1Z" style="fill:#fff"/><path d="M1581.6,897.9c.4,16.3.5,32.6.2,48.9-.1,3.2,4.9,3.2,5,0,.3-16.3.2-32.6-.2-48.9-.1-3.3-5.1-3.3-5,0Z" style="fill:#fff"/><path d="M1668.1,897.9l.6,45.9c0,3.2,5,3.2,5,0l-.6-45.9c0-3.2-5-3.3-5,0Z" style="fill:#fff"/><path d="M1468.8,985.2c-.2-.6-.3-1.1-.5-1.7-1.5-6.4-.5-13.1-.5-19.7a164,164,0,0,0-1.4-22.1c0-.3-.1-.6-.1-1h2.2c.9-.4,1.8-.9,2.7-1.3.1.4.1.9.2,1.3.8,6.4,1.3,12.7,1.5,19.2.1,7.7-1.5,16.1.7,23.5,0,.1.1.3.1.4C1474.5,986.9,1469.7,988.2,1468.8,985.2Z" style="fill:#fff"/><path d="M1534.2,940c.4,16.3.5,32.6.2,48.9-.1,3.2,4.9,3.2,5,0,.3-16.3.2-32.6-.2-48.9-.1-3.3-5.1-3.3-5,0Z" style="fill:#fff"/><path d="M1620.8,940l.6,45.9c0,3.2,5,3.2,5,0l-.6-45.9c-.1-3.2-5.1-3.3-5,0Z" style="fill:#fff"/><path d="M1495.5,984.1a166,166,0,0,1,1.8,25.4c0,7.1-1.2,14.5,1,21.4,1,3.1,5.8,1.8,4.8-1.3-2.4-7.5-.7-16.1-.8-23.9a175.46,175.46,0,0,0-2-22.9c-.4-3.2-5.3-1.8-4.8,1.3Z" style="fill:#fff"/><path d="M1563.8,985.7c.4,16.3.5,32.6.2,48.9-.1,3.2,4.9,3.2,5,0,.3-16.3.2-32.6-.2-48.9-.1-3.2-5.1-3.2-5,0Z" style="fill:#fff"/><path d="M1650.3,985.7l.6,45.9c0,3.2,5,3.2,5,0l-.6-45.9c0-3.2-5-3.2-5,0Z" style="fill:#fff"/><path d="M1523.4,1026.2a166,166,0,0,1,1.8,25.4c0,7.1-1.2,14.5,1,21.4,1,3.1,5.8,1.8,4.8-1.3-2.4-7.5-.7-16.1-.8-23.9a175.46,175.46,0,0,0-2-22.9c-.4-3.2-5.2-1.8-4.8,1.3Z" style="fill:#fff"/><path d="M1591.7,1027.8c.4,16.3.5,32.6.2,48.9-.1,3.2,4.9,3.2,5,0,.3-16.3.2-32.6-.2-48.9-.1-3.2-5.1-3.2-5,0Z" style="fill:#fff"/><path d="M1478.8,1076.3a166.11,166.11,0,0,1,1.9,25.4c0,7.1-1.2,14.5,1,21.4,1,3.1,5.8,1.7,4.8-1.3-2.4-7.5-.7-16.1-.8-23.9a175.46,175.46,0,0,0-2-22.9c-.5-3.2-5.4-1.8-4.9,1.3Z" style="fill:#fff"/><path d="M1548.1,1077.9c.4,16.3.5,32.6.2,48.9-.1,3.2,4.9,3.2,5,0,.3-16.3.2-32.6-.2-48.9,0-3.2-5-3.2-5,0Z" style="fill:#fff"/><path d="M1636,1077.9l.6,45.9c0,3.2,5,3.2,5,0l-.6-45.9c0-3.2-5-3.2-5,0Z" style="fill:#fff"/><path d="M1513.3,1120.8a166.11,166.11,0,0,1,1.9,25.4c0,7.1-1.2,14.5,1,21.4,1,3.1,5.8,1.7,4.8-1.3-2.4-7.5-.7-16.1-.8-23.9a175.46,175.46,0,0,0-2-22.9c-.6-3.2-5.4-1.9-4.9,1.3Z" style="fill:#fff"/><path d="M1582.6,1122.4c.4,16.3.5,32.6.2,48.9-.1,3.2,4.9,3.2,5,0,.3-16.3.2-32.6-.2-48.9-.1-3.2-5.1-3.3-5,0Z" style="fill:#fff"/><path d="M1676.2,1168.3a2.46,2.46,0,0,1-.5,1.5,2.37,2.37,0,0,1-1.5.9,2.45,2.45,0,0,1-3-2.4c0-1.2,0-2.3-.1-3.5-.1-10.5-.3-21.1-.4-31.6.5,10.6,1.4,21.1,2.8,31.6h2.7A20.44,20.44,0,0,0,1676.2,1168.3Z" style="fill:#fff"/><path d="M1538.1,1168.8c.4,16.3.5,32.6.2,48.9-.1,3.2,4.9,3.2,5,0,.3-16.3.2-32.6-.2-48.9-.1-3.2-5.1-3.2-5,0Z" style="fill:#fff"/><path d="M1626,1168.8l.6,45.9c0,3.2,5,3.2,5,0l-.6-45.9c0-3.2-5-3.2-5,0Z" style="fill:#fff"/><path d="M1563.4,1215.7c.4,16.3.5,32.6.2,48.9-.1,3.2,4.9,3.2,5,0,.3-16.3.2-32.6-.2-48.9-.1-3.2-5.1-3.2-5,0Z" style="fill:#fff"/><path d="M1651.3,1215.7l.6,45.9c0,3.2,5,3.2,5,0l-.6-45.9c0-3.2-5-3.2-5,0Z" style="fill:#fff"/><g style="clip-path:url(#a)"><path d="M761.1,786.6V423.2h513.5v349H970.8Zm5-358.4v353l204.6-14h299v-339Z" style="fill:#fff"/></g><g style="clip-path:url(#a)"><g style="opacity:0.3100000023841858"><polygon points="973.6 771.8 1275.1 771.8 1275.1 427.7 766.5 427.7 766.5 699.2 766.5 785.9 973.6 771.8" style="fill:#fff"/></g></g><g style="clip-path:url(#a)"><rect x="944.7" y="404.9" width="5" height="367" style="fill:#fff"/></g><g style="clip-path:url(#a)"><g style="opacity:0.4399999976158142"><polygon points="950.9 667.5 1273.1 492.7 1275.8 543.6 950.9 724.2 950.9 667.5" style="fill:#fff"/></g></g><g style="clip-path:url(#a)"><g style="opacity:0.4399999976158142"><polygon points="949.7 743.5 1271.9 568.6 1272.2 585.3 949.7 765.4 949.7 743.5" style="fill:#fff"/></g></g><rect x="1340.8" y="847.9" width="218" height="7.3" style="fill:#b4b4da"/><polygon points="1617.5 832.3 1399.5 832.3 1340.8 847.9 1558.8 847.9 1617.5 832.3" style="fill:#f4f4f9"/><rect x="1340.8" y="765.8" width="218" height="7.3" style="fill:#b4b4da"/><polygon points="1617.5 750.1 1399.5 750.1 1340.8 765.8 1558.8 765.8 1617.5 750.1" style="fill:#f4f4f9"/><rect x="1419.2" y="833.8" width="62.3" height="8.1" style="fill:#c7dbee"/><polygon points="1481.6 841.9 1507.4 837.4 1507.4 829.3 1481.6 833.8 1481.6 841.9" style="fill:#9493c7"/><polygon points="1507.4 829.3 1445.1 829.3 1419.2 833.8 1481.6 833.8 1507.4 829.3" style="fill:#e9f3fb"/><rect x="1425.8" y="816.7" width="55.8" height="15.8" style="fill:#b4b4da"/><polygon points="1481.6 832.5 1507.4 828 1507.4 812.2 1481.6 816.7 1481.6 832.5" style="fill:#9493c7"/><polygon points="1507.4 812.2 1451.6 812.2 1425.8 816.7 1481.6 816.7 1507.4 812.2" style="fill:#e9f3fb"/><rect x="1416.8" y="805.2" width="41.4" height="10.2" style="fill:#c7dbee"/><polygon points="1458.2 815.4 1484 810.9 1484 800.7 1458.2 805.2 1458.2 815.4" style="fill:#9493c7"/><polygon points="1484 800.7 1442.6 800.7 1416.8 805.2 1458.2 805.2 1484 800.7" style="fill:#e9f3fb"/><polygon points="1479 764.8 1465.4 759 1465.4 705.7 1479 711.4 1479 764.8" style="fill:#9493c7"/><polygon points="1479 764.8 1513 755.4 1513 702.1 1479 711.4 1479 764.8" style="fill:#c7dbee"/><polygon points="1465.4 705.7 1499.4 696.4 1513 702.1 1479 711.4 1465.4 705.7" style="fill:#e9f3fb"/><polygon points="1498.8 766.3 1493.6 765.1 1483.7 711.7 1489.4 714.7 1498.8 766.3" style="fill:#9493c7"/><polygon points="1498.8 766.3 1533.3 758.7 1523.4 705.4 1489.4 714.7 1498.8 766.3" style="fill:#b4b4da"/><polygon points="1483.7 711.7 1517.7 702.4 1523.4 705.4 1489.4 714.7 1483.7 711.7" style="fill:#e9f3fb"/><polygon points="1518.7 764.8 1513.5 763.6 1503.6 722.5 1509.3 725.5 1518.7 764.8" style="fill:#9493c7"/><polygon points="1518.7 764.8 1553.2 757.2 1543.3 716.2 1509.3 725.5 1518.7 764.8" style="fill:#b4b4da"/><polygon points="1503.6 722.5 1537.6 713.2 1543.3 716.2 1509.3 725.5 1503.6 722.5" style="fill:#e9f3fb"/><rect x="902.8" y="1196.6" width="153" height="21.6" style="fill:#5f64ac"/><rect x="1264.3" y="1196.6" width="153" height="21.6" style="fill:#5f64ac"/><polygon points="1551.7 1158.4 899 1158.4 762.4 1203.9 1502.6 1203.9 1551.7 1158.4" style="fill:#9493c7"/><path d="M1429.7,1411.4H854.8a66.49,66.49,0,0,1-66.4-66.4V1203.9h3V1345a63.42,63.42,0,0,0,63.4,63.4h574.9a63.42,63.42,0,0,0,63.4-63.4V1195.4h3V1345A66.49,66.49,0,0,1,1429.7,1411.4Z" style="fill:#9493c7"/><path d="M1449.7,1353.9h-499a66.49,66.49,0,0,1-66.4-66.4v-115h3v115a63.42,63.42,0,0,0,63.4,63.4h499a63.42,63.42,0,0,0,63.4-63.4V1165.2h3v122.3A66.43,66.43,0,0,1,1449.7,1353.9Z" style="fill:#9493c7"/><path d="M1310.2,1183.4s-1.8,5.1,0,6.2,133.6,5.8,133.6,5.8l34.9-19.2v-3.3Z" style="fill:#b4b4da"/><path d="M1310.2,1183.4l56.4-18.3s28.6-3.8,51,6.7l-39.4,18.8S1326.3,1182.9,1310.2,1183.4Z" style="fill:#f4f4f9"/><path d="M1417.7,1171.8s28.4-11.4,61.1,1.2l-36.2,19.8s-26.1-12-64.2-2.2" style="fill:#fff"/><path d="M1235.2,1140.5h.2a3.63,3.63,0,0,1-1.2-2.8v-26.3a3.76,3.76,0,0,1,2.9-3.7l-.9-.1a3.8,3.8,0,0,0-4.3,3.7v25.4A3.89,3.89,0,0,0,1235.2,1140.5Z" style="fill:#9493c7"/><path d="M1216.6,1075.9v88.5l46,7.5v-96Zm30.5,61.6a3.5,3.5,0,0,1-4,3.5l-7.9-1a3.55,3.55,0,0,1-3.1-3.5v-24.1a3.5,3.5,0,0,1,4-3.5l7.9,1a3.55,3.55,0,0,1,3.1,3.5Z" style="fill:#b4b4da"/><polygon points="1202.6 1161.9 1185.8 1168.7 1272 1176.3 1283.3 1169.5 1202.6 1161.9" style="fill:#b4b4da"/><polygon points="1278 1190 1273.3 1192.3 1269.8 1193.9 1266.6 1195.5 1263.1 1197.2 1259.1 1199.1 1117.5 1185.6 1123.9 1183.7 1129.1 1182.2 1133.2 1180.9 1138.3 1179.4 1145.2 1177.4 1278 1190" style="fill:#f4f4f9"/><path d="M1354.5,968.7v131.5a11,11,0,0,1-12.2,11L1159.4,1092l-8.4-.9-5.2-.5a11.06,11.06,0,0,1-9.9-11V950.1a5,5,0,0,1,5.3-5l202.9,12.5A11.07,11.07,0,0,1,1354.5,968.7Z" style="fill:#f4f4f9"/><path d="M1344.2,957.7l-202.9-12.5a5.25,5.25,0,0,0-2.8.6l192.6,11.9a11.13,11.13,0,0,1,10.4,11v131.5a11.07,11.07,0,0,1-6.8,10.2l7.7.8a11,11,0,0,0,12.2-11V968.7A11.06,11.06,0,0,0,1344.2,957.7Z" style="fill:#b4b4da"/><polygon points="1273.3 1192.3 1269.8 1193.9 1133.2 1180.9 1138.3 1179.4 1273.3 1192.3" style="fill:#fff"/><path d="M1266.6,1195.5l-3.5,1.7L1124,1183.7l5.1-1.5Q1197.8,1188.8,1266.6,1195.5Z" style="fill:#fff"/><path d="M1228.1,978.2q-46,31.2-92.2,62.4v-6q44.85-30.3,89.7-60.7C1228.3,972.1,1230.8,976.4,1228.1,978.2Z" style="fill:#fff"/><path d="M1225.6,1012.4q-45.15,28.65-89.7,58.4v-6q43.2-28.8,87.1-56.7C1225.8,1006.3,1228.3,1010.7,1225.6,1012.4Z" style="fill:#fff"/><path d="M1238.5,1041.4q-38.55,26.85-79.1,50.5l-8.4-.9q43.65-25.2,85-53.9C1238.6,1035.3,1241.1,1039.6,1238.5,1041.4Z" style="fill:#fff"/><circle cx="1339.1" cy="1211" r="4.7" style="fill:#9493c7"/><circle cx="978.3" cy="1210.6" r="5" style="fill:#9493c7"/><path d="M1437.7,1065s18.6,45.9,62.3,46.5,50.2-33.4,50.2-33.4Z" style="fill:#f8b07b"/><path d="M1683.2,1438.5l-2.8-1c.3-.7,26.7-74.8,40.8-164.3,13-82.4,17.9-195.1-32.6-264-30.4-41.6-62.8-62.6-96.1-62.6h-.5c-50.2.3-85.7,49.1-86,49.6l-2.4-1.7c.4-.5,36.7-50.6,88.5-50.9h.5c34.3,0,67.5,21.5,98.5,63.9,22.6,30.9,36.2,72.8,40.5,124.5,3.4,41.3.9,89-7.4,141.8C1710,1363.5,1683.5,1437.8,1683.2,1438.5Z" style="fill:#b4b4da"/><path d="M1426.9,1057.2c38.6,53.7,134,33.4,134,33.4a100.46,100.46,0,0,0-.3-12.6c-1.4-21-8.7-62.6-43.4-79.3-37.9-18.3-73.1,30.4-85.5,50.4C1428.6,1054,1426.9,1057.2,1426.9,1057.2Z" style="fill:#b4b4da"/><ellipse cx="1680.5" cy="1442.1" rx="80.3" ry="7.7" style="fill:#b4b4da"/><path d="M1426.9,1057.2c38.6,53.7,134,33.4,134,33.4a100.46,100.46,0,0,0-.3-12.6s-85.8,15.9-129-28.9C1428.6,1054,1426.9,1057.2,1426.9,1057.2Z" style="fill:#9493c7"/><polygon points="718 544.5 243.8 544.5 257 641.2 704.7 641.2 718 544.5" style="fill:#fff"/><polygon points="704.7 641.2 699.8 677 261.9 677 257 641.2 704.7 641.2" style="fill:#fff"/><polygon points="699.8 677 694.9 712.9 266.8 712.9 261.9 677 699.8 677" style="fill:#fefeff"/><polygon points="694.9 712.9 690 748.7 271.7 748.7 266.8 712.9 694.9 712.9" style="fill:#fdfeff"/><polygon points="690 748.7 685 784.6 276.6 784.6 271.7 748.7 690 748.7" style="fill:#fcfdfe"/><polygon points="685 784.6 680.1 820.4 281.5 820.4 276.6 784.6 685 784.6" style="fill:#fbfdfe"/><polygon points="680.1 820.4 675.2 856.3 286.4 856.3 281.5 820.4 680.1 820.4" style="fill:#fafcfe"/><polygon points="675.2 856.3 670.3 892.1 291.2 892.1 286.4 856.3 675.2 856.3" style="fill:#f9fcfe"/><polygon points="670.3 892.1 665.3 928 296.1 928 291.2 892.1 670.3 892.1" style="fill:#f8fbfe"/><polygon points="665.3 928 660.4 963.8 301 963.8 296.1 928 665.3 928" style="fill:#f7fafd"/><polygon points="660.4 963.8 655.5 999.6 305.9 999.6 301 963.8 660.4 963.8" style="fill:#f6fafd"/><polygon points="655.5 999.6 650.6 1035.5 310.8 1035.5 305.9 999.6 655.5 999.6" style="fill:#f5f9fd"/><polygon points="650.6 1035.5 645.7 1071.3 315.7 1071.3 310.8 1035.5 650.6 1035.5" style="fill:#f3f9fd"/><polygon points="645.7 1071.3 640.7 1107.2 320.6 1107.2 315.7 1071.3 645.7 1071.3" style="fill:#f2f8fd"/><polygon points="640.7 1107.2 635.8 1143 325.5 1143 320.6 1107.2 640.7 1107.2" style="fill:#f1f8fd"/><polygon points="635.8 1143 630.9 1178.9 330.4 1178.9 325.5 1143 635.8 1143" style="fill:#f0f7fc"/><polygon points="630.9 1178.9 626 1214.7 335.2 1214.7 330.4 1178.9 630.9 1178.9" style="fill:#eff6fc"/><polygon points="626 1214.7 621 1250.6 340.1 1250.6 335.2 1214.7 626 1214.7" style="fill:#eef6fc"/><polygon points="621 1250.6 616.1 1286.4 345 1286.4 340.1 1250.6 621 1250.6" style="fill:#edf5fc"/><polygon points="616.1 1286.4 611.2 1322.3 349.9 1322.3 345 1286.4 616.1 1286.4" style="fill:#ecf5fc"/><polygon points="611.2 1322.3 606.3 1358.1 354.8 1358.1 349.9 1322.3 611.2 1322.3" style="fill:#ebf4fb"/><polygon points="606.3 1358.1 601.3 1394 359.7 1394 354.8 1358.1 606.3 1358.1" style="fill:#eaf4fb"/><polygon points="601.3 1394 596.4 1429.8 364.6 1429.8 359.7 1394 601.3 1394" style="fill:#e9f3fb"/><polygon points="596.4 1429.8 593.1 1454.3 367.9 1454.3 364.6 1429.8 596.4 1429.8" style="fill:#e9f3fb"/><polygon points="718 544.5 704.7 641.2 699.8 677 694.9 712.9 690 748.7 685 784.6 680.1 820.4 675.2 856.3 670.3 892.1 665.3 928 660.4 963.8 655.5 999.6 650.6 1035.5 645.7 1071.3 640.7 1107.2 635.8 1143 630.9 1178.9 626 1214.7 621 1250.6 616.1 1286.4 611.2 1322.3 606.3 1358.1 601.3 1394 596.4 1429.8 593.1 1454.3 367.9 1454.3 364.6 1429.8 359.7 1394 354.8 1358.1 349.9 1322.3 345 1286.4 335.2 1214.7 330.4 1178.9 325.5 1143 320.6 1107.2 315.7 1071.3 310.8 1035.5 305.9 999.6 301 963.8 296.1 928 291.2 892.1 286.4 856.3 281.5 820.4 276.6 784.6 266.8 712.9 261.9 677 257 641.2 243.8 544.5 718 544.5" style="fill:none"/><ellipse cx="480.3" cy="1470.3" rx="112.6" ry="21.5" style="fill:#9493c7"/><ellipse cx="480.3" cy="1567.3" rx="112.6" ry="21.5" style="fill:#e9f3fb"/><rect x="367.8" y="1455.1" width="225.1" height="15.2" style="fill:#9493c7"/><path d="M540.3,953.7s16.1,6.7,23.4,11.1,28.2,15.7,28.6,17.7-.5,3.4-3.4,3.2-26.2-15.3-26.2-15.3,27.3,16,29.6,19-3.9,5.6-29.6-13.5c0,0,24.9,14.1,23.9,17.1-.9,2.8-13.3,0-24.1-13.1,0,0,9.8,10.2,13.2,12.2s-1.3,3.6-4.9,1.8-41-31.9-41-31.9Z" style="fill:#9493c7"/><path d="M467.1,736.3s-7.6,15.3-3.3,25.8-19.3-7-19.3-7l3.8-44.6,23.4,6.4Z" style="fill:#9493c7"/><path d="M464.1,744.1s-10.5-9.7-9.5-19.1,11.3-6.7,11.3-6.7l-.8,22.4Z" style="fill:#5f64ac"/><path d="M442.6,1273s-5.1,43.5,6.6,64.9c10.5,19.3,34.8,29.3,50.8,29s24.7,11.9,2.8,12.6-52.8-17.8-80.5-17.8c0,0,4-53.9.9-77.7s-4.1-28.2-4.1-28.2Z" style="fill:#9493c7"/><path d="M479.3,1262.8s2.2,65.7,1.1,76.7,25.8-2.5,77.6,5.7c0,0,19.2,1.3,18.6-4.6s-14.2-7.7-22.5-8-47.2,2.7-52.8-17.8-1-58.5-1-58.5Z" style="fill:#9493c7"/><path d="M423.9,1334.6s4.8,13.6,11.6,23.9,20.1,6.2,39.3,13.3,19.6-11.3,28.9-8,17.7,8.8,17.2,13-18.1,4.7-44,.2-50.3-11.9-57.9-12.3S423.9,1334.6,423.9,1334.6Z" style="fill:#5f64ac"/><path d="M480.6,1312.7s-7,29.3-2.7,31.7,43.6,1.6,54.9,1.2,46.5,4.8,47.6-.1-6.5-14.1-14-15.4-19.5,11.1-24,10.8-41.8,1.2-49.5-6.5S480.6,1312.7,480.6,1312.7Z" style="fill:#5f64ac"/><path d="M426.3,1339.9c6.5-1.9,14.6-3.1,20.1-7.2,2.6-1.9.1-6.2-2.5-4.3-5.2,3.7-12.9,4.9-18.9,6.7-3.1.9-1.8,5.8,1.3,4.8Z" style="fill:#5f64ac"/><path d="M483.8,1318.3c5.8-1.9,12.8-3.3,17.1-7.9,2.2-2.4-1.3-5.9-3.5-3.5-3.6,3.9-10.1,5-14.9,6.6-3.1,1-1.8,5.8,1.3,4.8Z" style="fill:#5f64ac"/><path d="M476.5,1300.8s34.2-.1,31.1-12.6c-7.1-28.6-6.6-266.9-13.5-310.3s-2.6-45.1-2.6-45.1l-38.9-2.2-10.4,249.1S469.5,1296.8,476.5,1300.8Z" style="fill:#5560a6"/><path d="M427.9,927.8s61.2,6.9,63.7,0S476.7,823,476.7,823l-61.9-27.4S407.8,857.9,427.9,927.8Z" style="fill:#b4b4da"/><path d="M495.5,682.3s8.4,4.5,7.8,22-18.1,52.4-32.4,42.7-4.5-21.4-12.3-22-12.3-22.6-3.9-25.2,5.8-14.2,13.6-17.5S484.5,672,495.5,682.3Z" style="fill:#9493c7"/><path d="M497.8,710.4s.9,15.2,5.5,18.8-11.5,4-11.7,0S497.8,710.4,497.8,710.4Z" style="fill:#5f64ac"/><path d="M484.8,736.7a11.36,11.36,0,0,1-10.4-6.3l.9-.5c4.7,8.3,13.3,5.2,13.4,5.2l.4.9A12.18,12.18,0,0,1,484.8,736.7Z" style="fill:#5f64ac"/><path d="M413.6,1308.6s-10.1-178.8-6.5-267.1c2.9-72,21-115.9,21-115.9l50.1,8.8s3.5,65.1-4.1,151-23.4,211.1-25.8,218.8S413.6,1308.6,413.6,1308.6Z" style="fill:#5f64ac"/><path d="M443.1,819.8s15.4,27.3,45.7,65.5c6.2,7.8,6.3,25.3,14.5,32.9,4.2,3.9,13,9.2,22.2,14.2,13.9,7.6,28.5,14.4,28.5,14.4l-26.5,28.6s-22.2-12.6-45.6-19.5c-33.4-9.9-23.6-25.2-37.3-34.2s-8.2-32.9-15.7-48.3c-15.1-31.1-25.7-58.2-25.3-71.1.5-15.9,28.8,0,28.8,0Z" style="fill:#f4f4f9"/><path d="M507.1,848.1a6.1,6.1,0,0,0-3.9,9.5l.1.1c9.6,13.5-11.3,22.7-34.1,17.4-13.4-3.1-33.1-15.7-45.5-33.1a5.9,5.9,0,0,0-10.7,3.7v.3c1.4,24.5-22,13.2-39.4,6.4s-10.3-51.9,26.6-77.7c21.4-15,28.9-38.8,31.4-56.1a105.72,105.72,0,0,0,1-21.8h0a99.7,99.7,0,0,1-.3-12.1c1-18.6,24.4-36.4,48.4-30.4a24.17,24.17,0,0,1,6.8,2.7,32.4,32.4,0,0,1,9.8,8.5c8.6,11.3,9.7,26.5,9.7,26.5-29,.6-51.3,19.1-51.1,35.7.3,28.6,19.2,35.4,32.8,39.5,26.3,7.8,41.1,17.1,41.1,32.9a19.07,19.07,0,0,1-1.5,8.2,6.79,6.79,0,0,0,1.3,7.4c.1.1.2.2.2.3C532.9,820.4,538.2,842.4,507.1,848.1Z" style="fill:#5f64ac"/><path d="M416.1,1288.5a1516.43,1516.43,0,0,0,16.2-244.6,1,1,0,0,0-2,0,1497.71,1497.71,0,0,1-16.1,244c-.3,1.4,1.7,1.9,1.9.6Z" style="fill:#b4b4da"/><ellipse cx="486.61" cy="712.82" rx="8.5" ry="2.3" transform="translate(-324.58 1007.54) rotate(-75.65)" style="fill:#5f64ac"/><path d="M528.5,976l-15.3-7.7,26.1-29.7,15.3,7.7Zm-13.6-8,13.5,6.8,24.8-28.1-13.5-6.8Z" style="fill:#b4b4da"/><rect x="523.93" y="960.18" width="1" height="16.1" transform="translate(-576.19 1001.98) rotate(-63.31)" style="fill:#b4b4da"/><rect x="527.12" y="956.59" width="1" height="16.1" transform="translate(-571.22 1002.85) rotate(-63.31)" style="fill:#b4b4da"/><rect x="530.23" y="952.95" width="1" height="16.1" transform="translate(-566.26 1003.62) rotate(-63.31)" style="fill:#b4b4da"/><rect x="533.49" y="949.36" width="1" height="16.1" transform="translate(-561.25 1004.56) rotate(-63.31)" style="fill:#b4b4da"/><rect x="536.71" y="945.68" width="1" height="16.1" transform="translate(-556.18 1005.41) rotate(-63.31)" style="fill:#b4b4da"/><rect x="539.85" y="942.09" width="1" height="16.1" transform="translate(-551.25 1006.23) rotate(-63.31)" style="fill:#b4b4da"/><rect x="543.05" y="938.49" width="1" height="16.1" transform="translate(-546.27 1007.12) rotate(-63.31)" style="fill:#b4b4da"/><path d="M426.4,767.9c-16.6,35.1-2.7,74-2.7,74a5.9,5.9,0,0,0-10.7,3.7v.3c1.4,24.5-22,13.2-39.4,6.4s-10.3-51.9,26.6-77.7c21.4-15,28.9-38.8,31.4-56.1C434.6,730.1,435.9,747.9,426.4,767.9Z" style="fill:#5560a6"/><path d="M438.9,669c-13.5,18.2-9,42.6-19.1,62.3a64.72,64.72,0,0,1-46.1,33.8c-1.3.2-.7,2.1.5,1.9a67.05,67.05,0,0,0,45.2-31c12.3-20.3,6.9-46.8,21.2-66,.8-1-.9-2-1.7-1Z" style="fill:#5f64ac"/><path d="M428.7,733.7c-.8,10.9-10,21.7-17.2,29.4-7.8,8.3-18.8,12.8-28.7,18-8.5,4.5-18.2,8.6-24.5,16.2-5.8,7-8.5,16-10.9,24.7a1,1,0,0,0,1.9.5c3.1-10.8,6.5-21.7,15.7-28.8,9-7,20.2-11.6,30.3-17,9.4-5,16.5-10.2,23-18.7,5.6-7.3,11.7-14.9,12.4-24.3.1-1.3-1.9-1.3-2,0Z" style="fill:#5560a6"/><path d="M396.3,781a91.39,91.39,0,0,1-13.7,11.9c-4.6,3.1-9.5,5.7-13.7,9.5a39.34,39.34,0,0,0-12.5,24.5c-.2,1.3,1.8,1.3,2,0a38,38,0,0,1,17.1-27c8-5.3,15.5-10.3,22.2-17.4.9-1-.5-2.4-1.4-1.5Z" style="fill:#5560a6"/><path d="M469.8,766.1a69.11,69.11,0,0,0,17.4,4.2c6.8.7,13.7-.4,20.5.3,12.7,1.2,23.7,9.3,29.4,20.5.6,1.1,2.3.1,1.7-1a39.45,39.45,0,0,0-25.1-20.4c-6.4-1.7-12.9-1.1-19.4-1.1a64,64,0,0,1-24.1-4.4c-1.1-.5-1.6,1.5-.4,1.9Z" style="fill:#5f64ac"/><path d="M427.8,836.6a47.58,47.58,0,0,0,17.7,33.1c12.4,10,26.8,10.8,42.1,10,1.3-.1,1.3-2.1,0-2-14.7.7-28.8.1-40.7-9.4a46.17,46.17,0,0,1-17.1-31.7c-.1-1.3-2.1-1.3-2,0Z" style="fill:#5f64ac"/><path d="M550.7,958.2s25.1,8.4,29,8.5,1,3.2-3.8,2.8-19.6-5-19.6-5Z" style="fill:#9493c7"/><ellipse cx="480.3" cy="1455.1" rx="112.6" ry="21.5" style="fill:#c7dbee"/><ellipse cx="480.3" cy="1455.1" rx="78.3" ry="15" style="fill:#fff"/><ellipse cx="460.35" cy="710.41" rx="14" ry="8.6" transform="translate(-353.62 942.92) rotate(-73)" style="fill:#2c2a5c"/><path d="M497.4,665.5c-.3-.2-5.7-2.9-5.7-2.9-4.3-3.5-8.3,4.2-10.2,7.1-2,3.2-4.4,6.2-6.7,9.2-5.5,7.1-11.1,14.4-11.1,23.8,0,3.2-5,3.2-5,0,0-13.3,9.4-22.4,16.5-32.6,2.9-4.1,7.2-11.6,12.4-13.2A31.38,31.38,0,0,1,497.4,665.5Z" style="fill:#2c2a5c"/><path d="M456.3,719.3c4.3,6.6,7.9,15,16.1,17.5,3.1.9,4.4-3.9,1.3-4.8-6.4-1.9-9.7-9.9-13.1-15.2-1.8-2.7-6.1-.2-4.3,2.5Z" style="fill:#2c2a5c"/><ellipse cx="456.75" cy="709.3" rx="14" ry="8.6" transform="translate(-355.1 938.69) rotate(-73)" style="fill:#4a52a3"/><path d="M496,657.6a.1.1,0,0,0-.1-.1h0c-.1-.1-.2-.3-.3-.4-8.8-8.5-16.2,4.8-20.4,10.8-7.2,10.2-16.6,19.2-16.5,32.6,0,3.2,5,3.2,5,0,0-9.4,5.6-16.7,11.1-23.8,2.3-3,4.7-6,6.7-9.2,1.8-2.9,5.9-10.6,10.2-7.1l5.2,4.5C498.3,661.7,496.4,658.3,496,657.6Z" style="fill:#4a52a3"/><path d="M899.7,1493.6q64.65-1.65,129.3-.8" style="fill:#c7dbee"/><path d="M899.7,1503.6q64.65-1.65,129.3-.8c12.9.2,12.9-19.8,0-20q-64.65-.9-129.3.8c-12.9.3-12.9,20.3,0,20Z" style="fill:#c7dbee"/><path d="M1054,1479.8c29.8-.8,59.5-1.7,89.3-2.5" style="fill:#c7dbee"/><path d="M1054,1489.8c29.8-.8,59.5-1.7,89.3-2.5,12.8-.4,12.9-20.4,0-20-29.8.8-59.5,1.7-89.3,2.5-12.8.4-12.9,20.4,0,20Z" style="fill:#c7dbee"/><polygon points="1086 1361.4 1097.9 1381.8 1105.4 1376.9 1090.1 1345.5 1086 1361.4" style="fill:#d37477"/><path d="M1018.7,1140.5s17.6,91.1,27.8,110.2,63.1,101.1,66.7,104.1-37.2,14.8-46.2,11.6-58.7-84.1-62-96.7S991.4,1148,991.4,1148Z" style="fill:#4a52a3"/><path d="M1104.1,1398.6s-10.5-11.9-9.9-16.2,2.3-4.3-.9-6.3-6.5.2-3.2-2,12-11.3,13.9-7.9-1.7,8.1,2.6,6.4,11.4,20.6,11.4,20.6Z" style="fill:#f8b07b"/><path d="M1118.5,1374.9s13,17,21.5,20.8-24,30.4-26.6,33.3-5.8-1-5.8-1-21.6,29-30.8,35.2-31,21.8-31,21.8-9.3-12.2,8.3-30.1,31.1-20.6,37.1-29.6,1.4-31.2-1.5-34.3S1118.5,1374.9,1118.5,1374.9Z" style="fill:#171338"/><path d="M981.5,1447.3s-23.1-4.1-23.4-.9,2.9.3.9,4.9-2.5,8.6-.4,9,11.7,11.5,17.6,3.9A29.24,29.24,0,0,0,981.5,1447.3Z" style="fill:#f8b07b"/><path d="M984,1464.7s-2.1,21.3,1.5,29.9-38.3,5.9-42.2,6.3-3.5-4.7-3.5-4.7-35.6,6.5-46.5,4.8-37.5-5.2-37.5-5.2,1.6-15.3,26.6-16.4,36.8,6.1,47.3,3.6,22.3-21.9,22.3-26.1S984,1464.7,984,1464.7Z" style="fill:#171338"/><path d="M905.4,930.3s-7.6-18.9-9.1-27.9-4.6-5.3-4.6-2.6,1.4,13.9,3.3,16.8C896.9,919.3,905.4,930.3,905.4,930.3Z" style="fill:#d37477"/><path d="M897.5,945.8s-25.6-17.1-25-24,9.9-20.8,13.1-19.3,21.3,24.9,22.1,35.5S897.5,945.8,897.5,945.8Z" style="fill:#d37477"/><path d="M897.4,925.1s-12.6-26.7-15.9-34c-3.7-8.1-10.3-19.3-10.8-15.9s7.4,28.1,12.1,32.8S897.4,925.1,897.4,925.1Z" style="fill:#d37477"/><path d="M984.7,993.4s-22.6,28-28,30c-3,1.1-23.1-6.9-40.1-36.8-10.1-17.7-27-29.1-29.9-32.5-7.7-8.9,20.6-30.1,25-27.1,2.1,1.4,7.4,15,17.9,24.1,12.3,10.8,17.4,24.7,19.2,24.7,3.4,0,18.7-56.6,24.1-69.4s16.2-2,16.2-2Z" style="fill:#2c2a5c"/><path d="M997.4,883.6s-24.8,6.4-25.7,12.9.7,24.2.7,24.2-9,119.8-26.4,168.8-40.9,82.5-33.5,84.9,54,14.1,54,14.1l33-150.5,2.5-100.9Z" style="fill:#17132c"/><path d="M981.8,1115.5s-31.6,231.9-29.5,329.7c0,0,17,6.4,34.5,3.3s40.2-276.7,40.2-276.7Z" style="fill:#5f64ac"/><path d="M992.2,856.5s4.4,19.6-1.2,27.1c0,0,10,7.1,14.7,1.9s4-28.4,7.1-32.2S992.2,856.5,992.2,856.5Z" style="fill:#d37477"/><path d="M1020.2,903.9l-12.3,103.7-21.4,55.2s-12.1-69.3-5-141.7a190.89,190.89,0,0,1,4.6-27.4,108.15,108.15,0,0,0,2.1-27c.7.2,1.7.4,3,.7.3.1.6.1,1,.2,1,.3,2.2.6,3.4.9l1,.3c1.4.4,2.8.7,4.3,1.1.3.1.6.2,1,.3,2.3.6,4.7,1.2,6.9,1.8l1,.3c1,.3,2,.5,2.8.8.3.1.6.2,1,.3,2.6.7,4.3,1.2,4.3,1.2a88.3,88.3,0,0,0-4.9,10.3c-1.7,4.6,2.5,19.6,2.5,19.6Z" style="fill:#f38a75"/><path d="M1012.4,898.4c3.2,1.1,7.2-7.1-1.5-2.3s-23.9,5.1-23,14-18.2,254.8-35.2,317c0,0,94.5-7.4,101.6-27.4s-10.9-59-14.4-99.8-18.4-183.1-17.8-194.7c.3-6.8,11.3-10.4-4.5-17.8l-6.1-2.8a9.2,9.2,0,0,0-.5,4.5C1011.2,891.7,1010.7,897.8,1012.4,898.4Z" style="fill:#171338"/><path d="M998,803.7s-26.5,31.9-21.3,44.3c6.2,14.7,21.7,12.9,32.8,7.5s19.4-27.7,19.1-35.2S998,803.7,998,803.7Z" style="fill:#d37477"/><path d="M989.1,815.6s-15.8,8.9-17.2,9.8,5,8.8,8.9,8.3S989.1,815.6,989.1,815.6Z" style="fill:#e85a5b"/><path d="M990.3,849.2a14.36,14.36,0,0,1-8.7-3,1.49,1.49,0,1,1,1.9-2.3,10.71,10.71,0,0,0,12.8.4,1.51,1.51,0,0,1,1.7,2.5A13.54,13.54,0,0,1,990.3,849.2Z" style="fill:#171338"/><path d="M1023.3,832.6s10.7-3.8,8.1,8.1-15.6,14.5-19.3,11.7S1023.3,832.6,1023.3,832.6Z" style="fill:#e85a5b"/><path d="M1024.6,804.8s-16,11.4-25.3-.8-9.2-29-.1-28,12.3,2.3,11.8,7.4-4.8,8-4.4,4.9,8.4-10.5,16.8-4.8,27.1,25.1,24.8,35.4-17.9,20.2-26.9,26.6c-7.3,5.2,10.4-21.1,6.5-27.1s-20.1-11.4-20.1-11.4Z" style="fill:#171338"/><ellipse cx="998.08" cy="821.32" rx="5.6" ry="2" transform="translate(-223.26 1244.48) rotate(-58.56)" style="fill:#171338"/><path d="M1045,1108.3s12.5,18.7,12.3,24.1-25.6,12.9-25.6,4.1c-.1-11.7,0-26.6,0-26.6Z" style="fill:#d37477"/><path d="M1056.8,1129.4s7.3,15.4,8.6,20,1.1,7-1.1,7-11.4-24.2-11.4-24.2Z" style="fill:#d37477"/><path d="M1052,1129.4s16.2,29.6,14.1,30.7-5.5,4.4-6.6,0-13-28.4-13-28.4Z" style="fill:#d37477"/><path d="M1046.5,1129.4s17.3,33.3,16.2,35.1-5.4,2-5.4,2l-14.7-33,3.9-5Z" style="fill:#d37477"/><path d="M1045.3,1135.6s10.7,28.3,9,28.8a15.29,15.29,0,0,1-6.4,0c-1.1-.4-7.9-28.8-7.9-28.8Z" style="fill:#d37477"/><path d="M1034.7,1115.5s-5.3,34.1-3.9,34.6,6.8-1.5,7-5.2,0-28.1,0-28.1Z" style="fill:#d37477"/><path d="M1022.6,917.2s-21.5,9-22.6,20.9c-.7,7,8.7,65.8,9.3,117.7.3,34.2,7.5,62.3,10.2,63.2,6.4,2,40.1-7.9,40.1-13.9,0-2.5-17-33.3-18-71.3C1040,974.3,1022.6,917.2,1022.6,917.2Z" style="fill:#2c2a5c"/><path d="M992,874.5c0,2.2-.2,4.5-.3,6.7a100.72,100.72,0,0,1-2,13.4c-.1.6-1.1.4-1-.3a109.7,109.7,0,0,0,2.1-15.1c.2-2.2.2-4.5.2-6.7a29.92,29.92,0,0,1,.1-5.2c.3.1.6.1,1,.2C991.7,869.8,992.1,872.2,992,874.5Z" style="fill:#f9b17c"/><path d="M995.5,868.4c0,8.5,0,17-.1,25.4a.5.5,0,0,0,1,0c0-8.4,0-16.8.1-25.2Z" style="fill:#f9b17c"/><path d="M1003.1,894c.1.6-.9.9-1,.3a140.78,140.78,0,0,1-1.4-17.1c0-2.4-.2-5,0-7.4.3.1.6.2,1,.3C1001.1,875.9,1002.8,892.2,1003.1,894Z" style="fill:#f9b17c"/><path d="M1008.6,871.9a71.46,71.46,0,0,0-.8,9.4,38.78,38.78,0,0,1-3.7,14.2c-.3.6.6,1.1.9.5a38.55,38.55,0,0,0,3.5-12c.5-4,.3-8,1.1-11.8Z" style="fill:#f9b17c"/><path d="M1013.3,873.2c-.8,3.6-1.7,7.1-2.8,10.6-.2.6-1.2.3-1-.3a97.26,97.26,0,0,0,2.8-10.6C1012.7,873,1013,873.1,1013.3,873.2Z" style="fill:#f9b17c"/><path d="M962.8,1220.2a31.57,31.57,0,0,0,15.4-3.4c.6-.3.1-1.2-.5-.9a30.85,30.85,0,0,1-14.9,3.2c-.6.1-.6,1.1,0,1.1Z" style="fill:#2c2a5c"/><path d="M988.6,1216.1a45.92,45.92,0,0,0,14.1-3.7c.6-.3.1-1.1-.5-.9a46.4,46.4,0,0,1-13.6,3.6c-.7.1-.7,1.1,0,1Z" style="fill:#2c2a5c"/><path d="M1015,1209.8c3.1-1.3,6.3-2.5,9.4-3.8.6-.2.3-1.2-.3-1-3.1,1.3-6.3,2.5-9.4,3.8-.5.2-.2,1.2.3,1Z" style="fill:#2c2a5c"/><path d="M1033.9,1204.8a34.74,34.74,0,0,0,10.9-5c.5-.4,0-1.2-.5-.9a35.24,35.24,0,0,1-10.6,4.9.51.51,0,0,0,.2,1Z" style="fill:#2c2a5c"/><path d="M914.3,1167.8c4.6.7,9.2,1.3,13.8,2,.6.1.9-.9.3-1-4.6-.7-9.2-1.3-13.8-2-.7-.1-.9.9-.3,1Z" style="fill:#2c2a5c"/><path d="M939.6,1172.2a15.63,15.63,0,0,1,7.4,1.2c.6.2.9-.7.3-1a16.87,16.87,0,0,0-7.7-1.2.5.5,0,1,0,0,1Z" style="fill:#2c2a5c"/><path d="M1021.2,1117.7l5.3-.9c.6-.1.4-1.1-.3-1l-5.3.9a.52.52,0,0,0,.3,1Z" style="fill:#2c2a5c"/><path d="M1022.1,1116.9c4.3-1.1,8.6-2.2,13-3.3a.52.52,0,0,0-.3-1c-4.3,1.1-8.6,2.2-13,3.3-.6.2-.3,1.1.3,1Z" style="fill:#2c2a5c"/><path d="M1021.8,1116.8c3.8-.6,7.6-1.3,11.3-2.2.6-.1.4-1.1-.3-1-3.7.9-7.5,1.6-11.3,2.2-.6.2-.3,1.1.3,1Z" style="fill:#2c2a5c"/><path d="M1016.4,1117.7a16.4,16.4,0,0,0,7.3-.6.52.52,0,0,0-.3-1,15.65,15.65,0,0,1-6.8.6c-.6-.1-.8.9-.2,1Z" style="fill:#171338"/><path d="M1028.1,1116.2a35,35,0,0,0,6.3-1.2.52.52,0,0,0-.3-1q-3,.75-6,1.2a.5.5,0,0,0,0,1Z" style="fill:#171338"/><path d="M1038.7,1113.6a34.32,34.32,0,0,0,7-2.5c.6-.3.1-1.1-.5-.9a27.53,27.53,0,0,1-6.8,2.4.52.52,0,0,0,.3,1Z" style="fill:#171338"/><path d="M1050.1,1109.8l3.6-2.4c.5-.4,0-1.2-.5-.9l-3.6,2.4c-.5.4,0,1.3.5.9Z" style="fill:#171338"/><path d="M888,951.4c-.2-2.1,1-3.8,2.1-5.4.4-.5-.5-1-.9-.5-1.2,1.8-2.5,3.7-2.3,5.9.1.7,1.1.7,1.1,0Z" style="fill:#171338"/><path d="M893.3,942.8a35.22,35.22,0,0,1,5.2-5.7c.5-.4-.2-1.1-.7-.7a37.84,37.84,0,0,0-5.4,5.9c-.3.5.5,1,.9.5Z" style="fill:#171338"/><path d="M902.4,934.4a53.8,53.8,0,0,1,6.6-3.8c.6-.3.1-1.1-.5-.9a43.39,43.39,0,0,0-6.6,3.8c-.5.4,0,1.2.5.9Z" style="fill:#171338"/><path d="M1003,805.2a23.91,23.91,0,0,1-6.4-2.6c-1.1-.7-6.1-3.8-5.5-5.7.2-.6-.8-.9-1-.3-.7,2.2,2.5,4.4,4,5.5a23.55,23.55,0,0,0,8.6,4.1c.7.1,1-.9.3-1Z" style="fill:#171338"/><path d="M995.7,784.2c-.4-1.2-.8-2.5-1.2-3.7a4.42,4.42,0,0,1,1.8-5.2,10.1,10.1,0,0,1,3.9-2.2c.7-.1,2.1-.2,2.7.4,1.7,1.7-.3,1.4-1,1.5a.5.5,0,0,0,0,1,6.81,6.81,0,0,0,2.8-.4.4.4,0,0,0,.2-.4,3.24,3.24,0,0,0-2.1-2.9c-1.9-.8-3.8,0-5.4,1s-3.4,2.2-4,4c-.8,2.3.7,5,1.4,7.1.2.7,1.1.5.9-.2Z" style="fill:#171338"/><path d="M1048.5,817.7a12.57,12.57,0,0,0-1.6-7.8c-.9-1.4-2.9-3.3-2.7-5.1a3.19,3.19,0,0,1,2.8-2.8,4.09,4.09,0,0,1,2.2.3c.4,2.2-.2,3-1.7,2.3-.6-.2-.9.8-.3,1,1.7.5,4.2.2,3.8-2.2s-3.4-2.7-5.3-2.1c-2.3.7-3.1,2.9-2.4,5.1.5,1.6,1.7,2.8,2.5,4.1a11.05,11.05,0,0,1,1.5,7.3c.1.5,1.1.5,1.2-.1Z" style="fill:#171338"/><path d="M1047.6,816.9c.6,1.5-.4,3.4.7,4.8.9,1.2,2.6.9,3.8.2,2.6-1.5,1.9-6.4-1.5-5.9-.6.1-.4,1.1.3,1,1.4-.2,2,1.4,1.8,2.6a2.46,2.46,0,0,1-2.4,1.9c-1.4,0-1.5-1.3-1.4-2.4a5.23,5.23,0,0,0-.2-2.5c-.3-.5-1.3-.3-1.1.3Z" style="fill:#171338"/><path d="M983.5,1039c-.9,2.7-1.9,6.7-.3,9.4a3.39,3.39,0,0,0,4,1.6c1.6-.4,2.5-1.9,3.1-3.4,1.1-2.5,2.5-6.9-.5-8.6a3.81,3.81,0,0,0-4.2.4,4.74,4.74,0,0,0-1.4,1.7c-.3.6-.3,1.5-.7,2-2.1,2.4,1.4,6,3.5,3.5a5.1,5.1,0,0,0,1.2-2,3.18,3.18,0,0,0,.3-.9c.1-.9.6.4-.7-.1-.4-.2-.7-.4-1.1-.6s-.1-.3-.2.3c-.1.4-.2.9-.3,1.3l-.3.9a2.51,2.51,0,0,1-.4.7c-.3.4-.1.4.4,0,.4.1.8.2,1.3.3.5.3.1.3.2.1s0-1.4.1-1.8a13,13,0,0,1,.8-3.4c1-3.1-3.8-4.4-4.8-1.4Z" style="fill:#f38a75"/><path d="M983.7,1075.4c-3.3,1-3.8,4-3.8,7,0,2.6-1,7,2.1,8.1s5.4-2.5,6.6-4.7a8.79,8.79,0,0,0,.4-8.6,2.52,2.52,0,0,0-3.9-.5,22.52,22.52,0,0,0-4.1,4.6c-1.8,2.7,2.5,5.2,4.3,2.5a13.75,13.75,0,0,1,3.3-3.5c-1.3-.2-2.6-.3-3.9-.5a3.31,3.31,0,0,1-.2,3.2c-.3.7-1.3,2.7-2.1,2.9l1.9.3c.5,1.3.7,1.5.6.7v-3.2c0-.4-.2-3.3.2-3.4,3-1,1.7-5.8-1.4-4.9Z" style="fill:#f38a75"/><path d="M977.3,1120.4c-1.3,2.7-2.8,7.7-.4,10.2a3.17,3.17,0,0,0,4.5.1,19.52,19.52,0,0,0,2.8-4.6c1.4-2.5,2.3-7.2-1.8-7.8-3.7-.5-5.2,5.8-5.6,8.4a2.61,2.61,0,0,0,1.7,3.1c1.2.3,2.9-.4,3.1-1.7a9.47,9.47,0,0,1,.7-2.9c.2-.5.6-2,1.1-2.2h-2.5a.6.6,0,0,0-.3-.6c0,.2-.1.3-.1.5a8.27,8.27,0,0,0-.9,1.6c-.3.6-.6,1.1-.9,1.6-.2.3-.3.5-.5.8-.5.7-.4.7.1.1.4-.1.8-.2,1.3-.3h-.4c.6.2,1.2.5,1.8.7.3.2,0-.3.1-.5a7.57,7.57,0,0,1,.1-1.5,7.32,7.32,0,0,1,.8-2.5c1-2.9-3.3-5.4-4.7-2.5Z" style="fill:#f38a75"/><path d="M970.9,1445.2l-1-.1c.2-1.6,22-159.3,25.1-191.4l1,.1C992.8,1285.9,971.1,1443.6,970.9,1445.2Z" style="fill:#2c2a5c"/><ellipse cx="1000.5" cy="832.8" rx="6.9" ry="3.8" style="fill:#e85a5b"/><path d="M1002.1,811.4a6.77,6.77,0,0,1,4.2,3.4,7.2,7.2,0,0,1,1,2.4c.1.8-.5,1.3-.5,2.1a.66.66,0,0,0,.4.5h.1a.75.75,0,0,0,.5-.1l.1-.1a.52.52,0,0,0-.1-.8h-.1c-.5-.4-1,.5-.5.9h.1c0-.3-.1-.5-.1-.8h.3a1.76,1.76,0,0,0,.4.5c0-.3.5-.8.5-1.1a4.82,4.82,0,0,0,0-1.2,8.83,8.83,0,0,0-1.3-3,7,7,0,0,0-4.7-3.7c-.6,0-.9.9-.3,1Z" style="fill:#171338"/><polygon points="892.5 839.8 852.3 869.9 680.1 878.3 655.7 765.8 844.2 788.4 844.2 846.7 892.5 839.8" style="fill:#b4b4da"/><path d="M687.1,800.9c29.2,1.2,58.5,2.1,87.7,2.4,3.2,0,3.2-5,0-5q-43.95-.6-87.7-2.4c-3.2-.2-3.2,4.8,0,5Z" style="fill:#fff"/><path d="M690.4,828.3H783c3.2,0,3.2-5,0-5H690.4c-3.3,0-3.3,5,0,5Z" style="fill:#fff"/><path d="M693.6,851.8c26.5.4,53.1.7,79.6,1.1,3.2,0,3.2-5,0-5-26.5-.4-53.1-.7-79.6-1.1-3.2-.1-3.2,4.9,0,5Z" style="fill:#fff"/><path d="M808.8,816.1c1.6-5.7,8.6-8.8,13.2-4,2.5,2.6,3.4,7.5,1.3,10.4-1.6,2.3-3.9,2.4-6.4,3.3-6,2.1-11,8-8.5,14.6,1.2,3,6,1.7,4.8-1.3-3.3-8.4,9.1-8.2,13.1-11.9s3.8-11.5,1.1-16c-6-10.1-20.5-7.1-23.5,3.7-.7,3,4.1,4.3,4.9,1.2Z" style="fill:#fff"/><path d="M813.3,861.4c3.2,0,3.2-5,0-5s-3.3,5,0,5Z" style="fill:#fff"/></svg>