<svg xmlns="http://www.w3.org/2000/svg" viewBox="0 0 1312.82 1754.76"><path d="M1350.6,1143.7c-20.25,147.2-202.39,190.76-156.76,306.91,7.18,18.29,20,38.38,40,61q8.37,9.47,18.48,19.53c1.11,1.11,2.25,2.23,3.4,3.36q10.54,10.3,19.54,20.91a275.25,275.25,0,0,1,22.93,31,237,237,0,0,1,26.48,56.86,217.55,217.55,0,0,1,5.88,23.43,70.4,70.4,0,0,0-5.88-4.77,71.85,71.85,0,0,0-26.48-12.11,71,71,0,0,0-22.93-1.39c-1.46.15-2.92.34-4.38.58a71.46,71.46,0,0,0-41.49,22.62,74.3,74.3,0,0,0-16.36,29.52,35,35,0,0,0-6.58-3.92,34.61,34.61,0,0,0-20.12-2.72c-.95.15-1.89.35-2.81.58a34.92,34.92,0,0,0-13.45,6.71,74.86,74.86,0,0,0-9.49-4.72,73.13,73.13,0,0,0-22.93-5.35,74.07,74.07,0,0,0-16.82.82c-.23,0-.44.11-.67.15a66.28,66.28,0,0,0-28.38-37,64.31,64.31,0,0,0-28.73-9.52c-1.48-.12-3-.19-4.46-.2-1.74,0-3.5,0-5.26.15q-3,.21-6,.7a64.44,64.44,0,0,0-35.81,18.67,66.68,66.68,0,0,0-18.9,45.74,29.33,29.33,0,0,0-22.31,0A30.25,30.25,0,0,0,951.74,1738a68.66,68.66,0,0,0-23.43-.26c-1.69.28-3.35.61-5,1a69,69,0,0,0-24.55,11.36v4.88c-.85-1-1.7-2-2.53-2.92-5.44-6.3-10.6-12.46-15.54-18.48-36.31-44.22-60.63-80.64-93.64-105.71a164.8,164.8,0,0,0-21.89-14.13c-28.08-15.13-63.43-23.49-114.74-23.57a209.66,209.66,0,0,1-55.35-8c-182.87-50.42-377.87-323.94-214.78-393,154-65.19,55.69-118,112.64-151.71,19.71-11.65,44.09-11.75,64.34-1.07,40.7,21.48,148.69,53,384.79-14.22,280.26-79.77,375.6-117.9,402.36,14.4,3.94,19.46,6.39,42.6,7.72,69.85A201.16,201.16,0,0,1,1350.6,1143.7Z" transform="translate(-295.32 -46.18)" style="fill:#eaf4fb"/><path d="M532.2,1375.55a42.09,42.09,0,0,1,44.36-39.67c.39,0,.78.09,1.17.12a53.15,53.15,0,0,1,77.64-55,63,63,0,0,1,114,5.45,30.72,30.72,0,0,1,37.23-3.42,64.46,64.46,0,0,1,41.74-12.41c.21,0,.4,0,.6.06a56.77,56.77,0,0,1,112,4,26,26,0,0,1,37.88,18.91,60.61,60.61,0,0,1,73.81,36.76,37.87,37.87,0,0,1,46.43,38.79,29.06,29.06,0,0,1-.39,3.73l-.06.35c-.17,1-.39,2.1-.7,3.36a1.33,1.33,0,0,0-.05.19c-3.74,14.93-19.24,46.61-83.49,46.78-70.54.18-356.85-4.37-447.08-5.84a41.94,41.94,0,0,1-27.38-.45h0A42,42,0,0,1,532.2,1375.55Z" transform="translate(-295.32 -46.18)" style="fill:#fff"/><path d="M1005.93,1108.35a31.08,31.08,0,0,1,32.76-29.29c.29,0,.57.06.87.09a39.25,39.25,0,0,1,57.33-40.61,46.52,46.52,0,0,1,84.17,4,22.71,22.71,0,0,1,27.49-2.52,47.67,47.67,0,0,1,30.83-9.17l.44.05a41.93,41.93,0,0,1,82.74,2.93,19.17,19.17,0,0,1,28,14A44.75,44.75,0,0,1,1405,1075a27.95,27.95,0,0,1,34.29,28.65,20.23,20.23,0,0,1-.29,2.75c0,.08,0,.17,0,.26-.12.72-.29,1.55-.52,2.48a1,1,0,0,1,0,.14c-2.76,11-14.2,34.42-61.65,34.55-52.1.13-263.55-3.23-330.18-4.31a31,31,0,0,1-20.23-.34h0A31,31,0,0,1,1005.93,1108.35Z" transform="translate(-295.32 -46.18)" style="fill:#fff"/><polygon points="489.6 1567.87 229.45 1567.87 327.83 1529.56 585.38 1529.2 489.6 1567.87" style="fill:#fff"/><path d="M787.06,1613.7v143.35a56.56,56.56,0,0,0-38.92-18.41,55.73,55.73,0,0,0-6.2,0V1764l-43-1.79a56.22,56.22,0,0,0-9.56,22.14c-.21,0-.4,0-.6-.06a64.57,64.57,0,0,0-41.75,12.41,30.71,30.71,0,0,0-37.22,3.42,63,63,0,0,0-87.67-31.76V1613.7Z" transform="translate(-295.32 -46.18)" style="fill:#eaf4fb"/><path d="M880.7,1575.38v194.13a71.23,71.23,0,0,0-8.72,20.38,43,43,0,0,0-34.48,11,25.95,25.95,0,0,0-36.07-12.63,56.46,56.46,0,0,0-14.37-31.26V1613.7Z" transform="translate(-295.32 -46.18)" style="fill:#c8dcf0"/><polygon points="328.46 1654.62 252.63 1651.46 252.63 1625.55 328.46 1628.71 328.46 1654.62" style="fill:#fff"/><polygon points="446.63 1660.31 370.8 1657.15 370.8 1631.24 446.63 1634.4 446.63 1660.31" style="fill:#fff"/><polygon points="328.46 1712.13 252.63 1708.96 252.63 1683.06 328.46 1686.22 328.46 1712.13" style="fill:#fff"/><polygon points="446.63 1691.9 446.63 1717.81 403.64 1716.02 370.81 1714.65 370.81 1688.74 446.63 1691.9" style="fill:#fff"/><path d="M623.78,1789.9v2.84a30.69,30.69,0,0,0-13.95,7.37,62.46,62.46,0,0,0-5.89-11Z" transform="translate(-295.32 -46.18)" style="fill:#fff"/><polygon points="764.82 1521.38 603.46 1521.38 664.48 1483.06 825.84 1483.06 764.82 1521.38" style="fill:#fff"/><path d="M1063.07,1567.56v78.61c-1.48-.12-3-.19-4.46-.2-1.74,0-3.5,0-5.26.15q-3,.21-6,.7a64.44,64.44,0,0,0-35.81,18.67,66.68,66.68,0,0,0-18.9,45.74,29.33,29.33,0,0,0-22.31,0A30.25,30.25,0,0,0,951.74,1738a68.66,68.66,0,0,0-23.43-.26c-1.69.28-3.35.61-5,1a69,69,0,0,0-24.55,11.36v-182.5Z" transform="translate(-295.32 -46.18)" style="fill:#c8dcf0"/><path d="M970.36,1603.89v107.32A30.25,30.25,0,0,0,951.74,1738a68.66,68.66,0,0,0-23.43-.26c-1.69.28-3.35.61-5,1V1603.89Z" transform="translate(-295.32 -46.18)" style="fill:#fff"/><path d="M1058.61,1603.89V1646c-1.74,0-3.5,0-5.26.15q-3,.21-6,.7a64.44,64.44,0,0,0-35.81,18.67v-61.6Z" transform="translate(-295.32 -46.18)" style="fill:#fff"/><polygon points="1029.38 1465.39 759.78 1465.39 856.87 1404.43 1121.78 1404.43 1029.38 1465.39" style="fill:#fff"/><path d="M1324.69,1511.57v150.36a71.85,71.85,0,0,0-26.48-12.11,71,71,0,0,0-22.93-1.39c-1.46.15-2.92.34-4.38.58a71.46,71.46,0,0,0-41.49,22.62,74.3,74.3,0,0,0-16.36,29.52,35,35,0,0,0-6.58-3.92,34.61,34.61,0,0,0-20.12-2.72c-.95.15-1.89.35-2.81.58a34.92,34.92,0,0,0-13.45,6.71,74.86,74.86,0,0,0-9.49-4.72,73.13,73.13,0,0,0-22.93-5.35,74.07,74.07,0,0,0-16.82.82c-.23,0-.44.11-.67.15a66.28,66.28,0,0,0-28.38-37,64.31,64.31,0,0,0-28.73-9.52c-1.48-.12-3-.19-4.46-.2-1.74,0-3.5,0-5.26.15l.55-42.23.47-36.33,0-1.53.48-36.79.23-17.67Z" transform="translate(-295.32 -46.18)" style="fill:#eaf4fb"/><path d="M1417.09,1450.61V1685a60.31,60.31,0,0,0-74.51-4.39,73.66,73.66,0,0,0-12-14,70.4,70.4,0,0,0-5.88-4.77V1511.57Z" transform="translate(-295.32 -46.18)" style="fill:#c8dcf0"/><rect x="792.99" y="1465.39" width="7" height="144.12" style="fill:#fff"/><rect x="815.92" y="1465.39" width="7" height="168.27" style="fill:#fff"/><rect x="838.85" y="1465.39" width="7" height="180.16" style="fill:#fff"/><rect x="861.79" y="1465.39" width="7" height="185.51" style="fill:#fff"/><rect x="884.72" y="1465.39" width="7" height="183.52" style="fill:#fff"/><rect x="907.66" y="1465.39" width="7" height="185.66" style="fill:#fff"/><rect x="930.59" y="1465.39" width="7" height="160.06" style="fill:#fff"/><rect x="953.53" y="1465.39" width="7" height="143.15" style="fill:#fff"/><rect x="976.47" y="1465.39" width="7" height="136.86" style="fill:#fff"/><rect x="999.39" y="1465.39" width="7" height="138.25" style="fill:#fff"/><path d="M741.94,1738.65V1764l-43-1.79A56.7,56.7,0,0,1,741.94,1738.65Z" transform="translate(-295.32 -46.18)" style="fill:#fff"/><path d="M896.24,1752c.83-.67,1.67-1.32,2.53-2v4.88C897.92,1754,897.07,1753,896.24,1752Z" transform="translate(-295.32 -46.18)" style="fill:#fff"/><path d="M553.15,939.84a34,34,0,0,1,41.15-36,61.78,61.78,0,0,1,76.24-40.71,79.11,79.11,0,0,1,157.17-10.17,43.46,43.46,0,0,1,60.67,3.9A60.66,60.66,0,0,1,977.13,934h0s-1,3.53-5.56,9a61,61,0,0,1-25.13,19.62c-31.24,17.49-93.54,36.69-216.85,37.52-45.06.3-157.89,16-173.38-49l0,0A33.52,33.52,0,0,1,553.15,939.84Z" transform="translate(-295.32 -46.18)" style="fill:#eaf4fb"/><path d="M986.3,672.5c-.94,2.54-6.26,8.76-13.89,16.81-25.48,26.88-76.72,74.26-76.72,74.26s-10.56-40.72-6.28-46.28c3-3.87,37.06-58.55,63.33-90.39,11.44-13.87,21.4-23.41,26.66-22.52C996.74,607.3,990.37,661.46,986.3,672.5Z" transform="translate(-295.32 -46.18)" style="fill:#5f63ac"/><path d="M1190.67,1371.83s12.32,10.46,14.86,14.64,18.67,70.1,23.68,81.52,2.42,32.31-5.33,46-30.78,17.6-32.83,11.94-22.56-128.34-17.2-141.33C1176.18,1379,1190.67,1371.83,1190.67,1371.83Z" transform="translate(-295.32 -46.18)" style="fill:#d32b3e"/><path d="M1031.92,1408.86s-12.59,24.66-23.14,18.74,12.1-50.67,10.55-67.74c-2.87-31.52-9.22-89.35-15.52-145-8.36-73.74-16.64-143.68-16.64-143.68l5-24.37,16.66-81.92s11,39.49,19.28,76.76c4,17.94,7.38,35.37,8.61,47.62,3.77,37.69,4.42,64.82,5.17,88.19S1031.92,1408.86,1031.92,1408.86Z" transform="translate(-295.32 -46.18)" style="fill:#e57e80"/><path d="M1194.2,1381.93c5.35,13.32,23.15,65.07,25.37,78.19s-22.89,36.5-29.64,27.75-12.48-107.16-22.53-129.42c-8.47-18.76-64.33-123.42-90.89-177.62-8.17-16.65-13.56-28.54-14-31.71-.94-7.44-7.71-60.72-13.58-106.94-4.77-37.47-8.93-70.28-8.93-70.28l61.69,5.08s-.22,19.08-.62,44.18c-.69,42.69-1.93,102.79-3.61,115.92-1.46,11.44,13.87,10.69,31.33,33.92,14.4,19.15,30.25,54.58,39.34,126.56C1168.16,1297.56,1188.84,1368.6,1194.2,1381.93Z" transform="translate(-295.32 -46.18)" style="fill:#e57e80"/><path d="M1036.67,1089.25c3.77,37.69,4.42,64.82,5.17,88.19-13.93,1.34-27.55,19.12-38,37.4-8.36-73.74-16.64-143.68-16.64-143.68l5-24.37,35.94-5.16C1032.07,1059.57,1035.44,1077,1036.67,1089.25Z" transform="translate(-295.32 -46.18)" style="fill:#d37477"/><path d="M1128.82,1171c-23.61,7-37.92,7.35-52.31,9.83-8.17-16.65-13.56-28.54-14-31.71-.94-7.44-7.71-60.72-13.58-106.94l52.14-21c-.69,42.69-1.93,102.79-3.61,115.92C1096,1148.52,1111.36,1147.77,1128.82,1171Z" transform="translate(-295.32 -46.18)" style="fill:#d37477"/><path d="M1011.18,482.42s-.89-6.7-11.48-4.19a25.84,25.84,0,0,0-14.77,10l-4.16,5.69s-.36-29.53,26.29-36,206.56,258.16,206.56,258.16-54.78,162.08-78.85,149.37S1012.58,621.54,998.6,586.76s-10.52-91.85-10.52-91.85" transform="translate(-295.32 -46.18)" style="fill:#171338"/><path d="M1033.74,1372.74s8.91,31.71,8.14,42.55-18.83,14.46-19.55,28.92-3.31,38.32-7.8,49.17-22,22.41-27.36,22.41-27.74-15.91-16.18-21,27.38-51.32,33-72.3S1033.74,1372.74,1033.74,1372.74Z" transform="translate(-295.32 -46.18)" style="fill:#e57e80"/><path d="M976.47,1489.94s30.15,20.07,36.75,6,2.16-38.7,4.58-48.79,11.72-20.6,15.35-33.93,5.69-20,5.69-20,5.22,20,6,32.1-15.75,17.77-16.56,27.46-4.13,43.62-13.77,57.35-44,24.64-51.66,23.83-23.42-12.19-20.59-18.21S976.47,1489.94,976.47,1489.94Z" transform="translate(-295.32 -46.18)" style="fill:#d32b3e"/><path d="M1096.67,901.29s-1.17,19.35.58,26.08,7.23,22.41,11.79,35c3,8.19,2.59,31-5.34,40.7-4.37,5.35-10.86,15.28-14.21,9.63s2.51-49.49-3.2-54.88c-4.85-4.58,4,24.33-.63,28.41-9.16,8-8.59-23.57-6.15-34.33s-.81-48.29-.81-48.29Z" transform="translate(-295.32 -46.18)" style="fill:#d37477"/><path d="M1022.8,552.17a12,12,0,0,0-10.44,11.56c-.4,15.31-1.54,43.11-4.53,45.37a16.62,16.62,0,0,1-6,2.1,12,12,0,0,0-8.39,17l10.43,21.14a12,12,0,0,0,20.7,1.37l12.61-18.82c4.74-7.08,24.75-13.27,16.42-15.07-2.89-.62-13.63-5.78-14.67-6.67-11.33-9.79-8.61-53.81.27-58.5C1044,549.12,1028.71,551.43,1022.8,552.17Z" transform="translate(-295.32 -46.18)" style="fill:#d37477"/><path d="M995,477.26a84.82,84.82,0,0,0-26.13,45.22c-3.69,17.23-4.84,37.74,5.8,49.7,20.88,23.49,56.09-4.31,62.35-9.53S1056.1,508,1056.1,508l-49-41.6Z" transform="translate(-295.32 -46.18)" style="fill:#e57e80"/><path d="M995,477.26c-3,3.59-7.58,6.17-10.07,11-8.14,15.63,20.56,10.87,31.2,22.84,20.88,23.49,19.09,53.29,25.36,48.07S1056.1,508,1056.1,508l-49-41.6Z" transform="translate(-295.32 -46.18)" style="fill:#d37477"/><path d="M988.43,516.44s-10.39,19.29-15.06,22.3,8.11,11.55,12.91,8S988.43,516.44,988.43,516.44Z" transform="translate(-295.32 -46.18)" style="fill:#e95a5a"/><ellipse cx="1003.14" cy="520.82" rx="8.31" ry="3.53" transform="translate(-23.38 1336.54) rotate(-77.13)" style="fill:#171338"/><ellipse cx="978.26" cy="515.13" rx="8.08" ry="3.43" transform="translate(-37.18 1307.87) rotate(-77.13)" style="fill:#171338"/><path d="M996.18,569.52a11.37,11.37,0,0,1-3.21-.4,1.5,1.5,0,0,1,.89-2.86c.51.15,12,3.28,21.9-16.43a1.5,1.5,0,0,1,2.69,1.34C1010.45,567.17,1001,569.52,996.18,569.52Z" transform="translate(-295.32 -46.18)" style="fill:#171338"/><ellipse cx="1015.11" cy="535.12" rx="14.56" ry="4.58" transform="translate(-405.99 266.65) rotate(-16.63)" style="fill:#e95a5a"/><path d="M979.4,604.38s12.76,86.67,5.17,198.35c-4.26,62.65-6.31,89.14-28.71,139.36-46.36,103.88-43.94,104.67-83.22,140.43,0,0,74.37,102.42,122.8,22,38.74-64.3,134.43.65,172.44-60.73,0,0-52.24-1.36-46.47-86.9,2.8-41.47-21.7-71.68-21.7-121.45,0-99.77-10.94-87.37-40.1-200-5.8-22.44-11-20.58-11-20.58s-9,4.36-17.24,3.44-8.56,11-23.51-8.46Z" transform="translate(-295.32 -46.18)" style="fill:#f9b17c"/><path d="M962.8,559.68c-.81-.52-14.94-1.92-18.15.42l-.11.09a.81.81,0,0,0-.14.12,2.25,2.25,0,0,0-.21.24c-.62,1-6.52,9.88-9.49,14.39a13.14,13.14,0,0,0-1.71,2.57h0c-4.76,8.59-14.89,34.15-14.89,42.26,0,10.06,11.9,14.13,11.9,14.13s15.7-16,18.61-29.42h0l4.83-4.74c-1.11,2.09-1.9,4.07-1.59,5.09.81,2.72,3.27,2.88,6.52-.42s7.43-13.09,7.43-13.09l-2.8-5c2.92-1.6-3.29-7.35-3.29-7.35.2-1.8-.22-2.08-2.68-4.6-1.88-1.92-10.16,5.52-13.94,9.12-.65-.92-1.31-1.77-2-2.56,3.8-3.77,10.3-10.75,11.28-15.12a59.41,59.41,0,0,0,7.22-.33s6.86,2.83,8.73,3a17.06,17.06,0,0,0,5.59-.4C974.44,567.84,963.65,560.23,962.8,559.68Z" transform="translate(-295.32 -46.18)" style="fill:#e57e80"/><path d="M905.51,616.48s-17.68,64.33-19.45,70.43c-4.64,16-8.23,36.42-5.9,51.08,1.83,11.55,9.32,27.35,18.84,24.69,11.92-3.34,43.52-136.7,43.52-136.7Z" transform="translate(-295.32 -46.18)" style="fill:#5f63ac"/><path d="M1158.7,931.16,1173,973.37l-7.39,25.35s.84,4.37,3.7,4S1184,967.53,1184,967.53l-13.56-22.87Z" transform="translate(-295.32 -46.18)" style="fill:#e57e7e"/><path d="M1165.89,940.19l14,38.89-10.77,21.21s6.28,1.8,9.3-2.81,10.14-36,10.14-36l-21.1-43L1149,919s-3.9,23.83-1.87,30.16,2.29,21.78,2.29,21.78,6,2.21,8.49-1-2.63-23.31-2.63-23.31l8.78,14.75-2.77,29.17s1.55,7.49,4.06,6.42,12.11-32.85,12.11-32.85l-12.27-18.34" transform="translate(-295.32 -46.18)" style="fill:#e57e7e"/><polygon points="874.33 881.23 854.81 878.66 832.18 798.31 820.43 756.56 845.74 758.36 853.46 792.96 874.33 881.23" style="fill:#e57e7e"/><path d="M1052.54,493.61c7.63,14.79,15.52,30,25.6,43.34,8.48,11.21,20.29,19.75,31.94,27.46,21.13,14,45.85,22.42,71.16,17.67,14.69-2.76,28.82-8.2,43-12.77,2.29-.73,1.31-4.36-1-3.61-21.84,7-44.82,17.09-68.25,13.37-13.61-2.16-26.48-8.1-38.31-15a167.78,167.78,0,0,1-17-11.87c-5.78-4.39-11.35-8.7-16-14.31-11.39-13.69-19.76-30.46-27.87-46.21-1.1-2.14-4.34-.25-3.24,1.9Z" transform="translate(-295.32 -46.18)" style="fill:#171338"/><path d="M1112.82,576.11c11.28,10,3.29,27.09,2.56,39.69-.28,4.87.47,10.07,4.52,13.27,5,4,12.24,3.6,18.11,2.32,8.41-1.82,16.32-5.76,24.12-9.27s16.63-8,25.49-8.1c5.36-.09,10.8,1.07,16.15,1.5,6.09.47,12.2.75,18.31.74a164.28,164.28,0,0,0,26.3-2c13.84-2.29,27.21-7,38.87-14.86,2-1.35.12-4.6-1.89-3.24-26.37,17.83-60.3,18.2-90.82,14.77-17.24-1.94-31.37,7.36-46.87,13.48-6.86,2.71-15.79,6.09-23.1,3.1-6-2.43-5.83-8.87-5.19-14.34,1.55-13,7.68-29.35-3.91-39.66-1.8-1.6-4.46,1-2.65,2.65Z" transform="translate(-295.32 -46.18)" style="fill:#171338"/><path d="M1096.4,574.53c47.3,26.22,103.34,39.35,154.5,16,2.19-1,.29-4.24-1.89-3.24-49.85,22.81-104.72,9.55-150.71-16-2.11-1.17-4,2.07-1.9,3.24Z" transform="translate(-295.32 -46.18)" style="fill:#171338"/><path d="M997.89,496.47c5.71,18.84,10.3,38.64,18.55,56.57,7.85,17.06,19.17,32.19,30.37,47.15,1.43,1.91,4.69,0,3.24-1.89-10.85-14.5-21.81-29.14-29.63-45.57-8.58-18-13.14-38.2-18.92-57.26-.7-2.3-4.32-1.32-3.61,1Z" transform="translate(-295.32 -46.18)" style="fill:#171338"/><path d="M1048.58,614.84s9.67-6.86,23.27,21.55c32.22,67.23,87.47,217.11,93.63,231.15,8.78,20-15.77,43.72-33.42,42.4S1048.58,614.84,1048.58,614.84Z" transform="translate(-295.32 -46.18)" style="fill:#5f63ac"/><path d="M987.53,484.8s34.84,29.82,37.42,53c7,63.34,65,191.71,108.64,257s108.9,54.64,100.08,16.4-29.81-43.42-6.94-91.15,64.66-55.64,55.21-90.49-75.8,19.35-156.46-54.33c-59.81-54.63-26.17-88.52-80.4-109.82C995.56,446,978.26,427.87,987.53,484.8Z" transform="translate(-295.32 -46.18)" style="fill:#171338"/><path d="M1048.89,526.09c11.07,12.26,17,27.71,22,43.19,5.1,15.66,9.87,31.28,17.5,45.94,15.14,29.09,38,54,65,72.55a208.23,208.23,0,0,0,48,24.37c3,1.09,4.35-3.74,1.33-4.82a203.25,203.25,0,0,1-80.53-53,191.68,191.68,0,0,1-29.09-40.87c-7.76-14.75-12.48-30.51-17.65-46.27-5.27-16.08-11.56-31.92-23-44.65-2.17-2.39-5.69,1.16-3.54,3.54Z" transform="translate(-295.32 -46.18)" style="fill:#5f63ac"/><path d="M1140.64,628.9a222.1,222.1,0,0,0,98.83,31.92c3.2.25,3.19-4.75,0-5a216.55,216.55,0,0,1-96.31-31.24c-2.75-1.68-5.27,2.64-2.52,4.32Z" transform="translate(-295.32 -46.18)" style="fill:#5f63ac"/><path d="M996.63,1106.15c9.09-7,18-14.68,28-20.3s21.28-7.7,32.66-8.33c20.89-1.16,42.47,1.65,62.39-6.27,3-1.17,1.67-6-1.33-4.82-21.13,8.4-44,4.41-66.09,6.46-9.94.92-19.71,3.1-28.59,7.78-10.68,5.64-20,13.85-29.58,21.16-2.52,1.93,0,6.28,2.52,4.32Z" transform="translate(-295.32 -46.18)" style="fill:#f5f5ff"/><path d="M484.37,525.28,447,695.11l187.6-3.51,36.2-164.45a11.5,11.5,0,0,0-11.45-14l-164,3.08A11.5,11.5,0,0,0,484.37,525.28Z" transform="translate(-295.32 -46.18)" style="fill:#f5f5ff"/><path d="M495.66,537.24,467.45,665.41a13.21,13.21,0,0,0,13.14,16.05L613.08,679a13.22,13.22,0,0,0,12.66-10.36L654.3,538.84A9.79,9.79,0,0,0,644.56,527L505,529.56A9.79,9.79,0,0,0,495.66,537.24Z" transform="translate(-295.32 -46.18)" style="fill:#fff"/><polygon points="331.03 689.92 151.67 648.94 339.27 645.42 518.63 686.41 331.03 689.92" style="fill:#9594c8"/><polygon points="201.16 653.78 342.05 652.12 411.16 667.91 279.89 671.78 201.16 653.78" style="fill:#f5f5ff"/><polygon points="360.79 677.97 399.39 677.51 421.47 682.56 383.66 683.2 360.79 677.97" style="fill:#f5f5ff"/><circle cx="275.84" cy="475.48" r="3.33" style="fill:#9594c8"/><path d="M515.64,554.83c3.22,0,3.22-5,0-5s-3.22,5,0,5Z" transform="translate(-295.32 -46.18)" style="fill:#9594c8"/><path d="M527.73,555.7c3.22,0,3.22-5,0-5s-3.22,5,0,5Z" transform="translate(-295.32 -46.18)" style="fill:#9594c8"/><path d="M537,554.51c3.22,0,3.22-5,0-5s-3.22,5,0,5Z" transform="translate(-295.32 -46.18)" style="fill:#9594c8"/><path d="M513.21,592.7c27.85-1.21,55.62,4,83.45,1.42,3.18-.29,3.21-5.29,0-5-27.83,2.54-55.6-2.63-83.45-1.42-3.21.14-3.22,5.14,0,5Z" transform="translate(-295.32 -46.18)" style="fill:#9594c8"/><path d="M518.29,614.62c6.36,1.57,13.31.2,19.8.22a165.13,165.13,0,0,1,23.71,1.8c3.14.47,4.5-4.35,1.33-4.82A178,178,0,0,0,542,609.9c-7.16-.19-15.42,1.61-22.38-.1-3.12-.77-4.45,4.05-1.33,4.82Z" transform="translate(-295.32 -46.18)" style="fill:#9594c8"/><path d="M509.08,639.41a840.52,840.52,0,0,0,100.26,0c3.2-.19,3.22-5.19,0-5a840.52,840.52,0,0,1-100.26,0c-3.21-.19-3.2,4.81,0,5Z" transform="translate(-295.32 -46.18)" style="fill:#9594c8"/><polygon points="151.67 648.94 150.61 653.57 329.05 694.35 518.05 688.95 518.63 686.41 331.03 689.92 151.67 648.94" style="fill:#394480"/><polygon points="150.61 653.57 189.06 479.11 155.94 654.78 150.61 653.57" style="fill:#394480"/><path d="M516.54,697.88,559,708.42c13.69,3.39,27.55,6.41,40.92,11,1.22.41,1.74-1.52.53-1.93-13.37-4.54-27.23-7.56-40.92-11L517.07,696c-1.25-.31-1.79,1.62-.53,1.93Z" transform="translate(-295.32 -46.18)" style="fill:#9594c8"/><path d="M545.19,697.05l80.32,22v-1.93l-.91.27a1,1,0,0,0,.53,1.93L626,719a1,1,0,0,0,0-1.93l-80.32-22a1,1,0,0,0-.53,1.93Z" transform="translate(-295.32 -46.18)" style="fill:#9594c8"/><path d="M572.57,695.55,649,720.08c1.23.39,1.75-1.54.53-1.93L573.1,693.62c-1.23-.39-1.75,1.54-.53,1.93Z" transform="translate(-295.32 -46.18)" style="fill:#9594c8"/><path d="M607.9,696.85c22.93,8.51,47.08,13.51,69.39,23.71,1.16.53,2.17-1.2,1-1.73-22.46-10.28-46.76-15.33-69.86-23.91-1.21-.45-1.73,1.48-.53,1.93Z" transform="translate(-295.32 -46.18)" style="fill:#9594c8"/><path d="M664.76,515.23c-5.58-4.6-13.78-3.29-20.52-3.21q-14.91.16-29.82.91c-1.28.06-1.29,2.06,0,2q12-.58,24.05-.83c7.11-.13,19-2.3,24.88,2.55,1,.81,2.4-.6,1.41-1.42Z" transform="translate(-295.32 -46.18)" style="fill:#9594c8"/><path d="M520.25,712.56q16.25,3.62,32.64,6.34c.63.1.9-.86.27-1q-16.41-2.71-32.64-6.33c-.63-.14-.89.82-.27,1Z" transform="translate(-295.32 -46.18)" style="fill:#fff"/><path d="M613.68,733c4.53,1,9.06,2.18,13.62,3.08,4.19.84,8.49-.09,12.69-.54.64-.07.64-1.07,0-1-4.46.48-8.87,1.35-13.3.38-4.26-.93-8.5-1.92-12.74-2.89-.63-.14-.9.82-.27,1Z" transform="translate(-295.32 -46.18)" style="fill:#fff"/><path d="M1414.76,435.88c-11.25,4.81-23.14,7.22-35.12,9.23-10,1.67-20.11,3.06-30,5.35-14,3.24-33.68,6.83-46.22,16.37l-50-41a131,131,0,0,0,4.51-13.58c7.16-23.33-1.91-47-3.83-70.36-1.85-22.51,1-45.21,11.62-65.4,12.52-23.69,32.93-43.47,57.66-54.06a116.09,116.09,0,0,1,91.37,213.44Z" transform="translate(-295.32 -46.18)" style="fill:#f9b17c"/><path d="M1290.08,456.11l-2.35-2.39c.09-.09,9.08-8.88,40.93-39.71a175,175,0,0,1,42.08-30.57A23.28,23.28,0,0,1,1368,379c-4.5-9.57-3.41-22.86-.19-34.82a282.66,282.66,0,0,1-28.18,2.81c-10.61.55-18.29-1.55-23.84-4.83-12.44,44.19-45.94,96.1-46.29,96.64L1266.7,437c.36-.54,34.14-52.91,46.19-96.81a29,29,0,0,1-8.3-10.19c-6.48-13.08-3.61-30.22,1.13-35.81,3.22-3.81,7.18-5.18,10.33-3.58,7.17,3.66,7.58,20.08,1.16,46.26-.15.63-.31,1.27-.48,1.9,5.81,3.71,13.47,5.38,22.74,4.89a275.16,275.16,0,0,0,29.39-3c2.69-8.64,6.37-16.27,9.62-20.82,6.8-9.52,16.64-14.74,25.06-13.27,5.67,1,9.74,4.85,11.46,10.9a10.25,10.25,0,0,1-1.77,9.15c-5.24,7.34-20.37,13.35-41.73,17-3.36,11.67-4.74,24.87-.45,34a19.8,19.8,0,0,0,2.79,4.36c14.71-7,26.78-9.41,33.47-8.78,6.54.61,11.55,5,11.16,9.79-.22,2.64-3,11.11-29.42,9.24q-10-.71-15.9-6.12A172.67,172.67,0,0,0,1331,416.41C1299.15,447.24,1290.16,456,1290.08,456.11Zm86.4-71.67c3.3,2.55,7.58,4,12.81,4.39,19.88,1.42,25.59-3.22,25.84-6.17.21-2.55-3.08-5.72-8.13-6.19C1400.57,375.88,1389.6,378.33,1376.48,384.44Zm24.24-74.82c-6.59,0-14.17,4.62-19.52,12.1-2.82,4-6.07,10.62-8.59,18.25,19.45-3.49,33.32-8.94,37.9-15.36a7,7,0,0,0,1.27-6.28c-1.37-4.82-4.42-7.76-8.81-8.52A12.81,12.81,0,0,0,1400.72,309.62Zm-87.47-16.36c-1.73,0-3.62,1.45-5,3.05-3.69,4.37-6.76,19.89-.68,32.16a25.61,25.61,0,0,0,6.23,8.1c0-.18.09-.36.14-.54,6.88-28.06,4.61-40.41.57-42.47A2.77,2.77,0,0,0,1313.25,293.26Z" transform="translate(-295.32 -46.18)" style="fill:#fff"/><path d="M1330.12,486.71q17.87,44,38.45,86.86c.63,1.3,2.55.17,1.93-1.12q-20.45-42.57-38.23-86.33c-.53-1.32-2.7-.74-2.15.59Z" transform="translate(-295.32 -46.18)" style="fill:#f9b17c"/><path d="M1465.81,454.81a269.38,269.38,0,0,0,89.88,70.76c1.28.63,2.42-1.3,1.12-1.93a267.85,267.85,0,0,1-89.42-70.41c-.92-1.11-2.49.47-1.58,1.58Z" transform="translate(-295.32 -46.18)" style="fill:#f9b17c"/><path d="M1392.42,180.11a316.32,316.32,0,0,0-40.53-133.39,1.12,1.12,0,0,0-1.93,1.13,313.71,313.71,0,0,1,40.23,132.26c.1,1.43,2.34,1.44,2.23,0Z" transform="translate(-295.32 -46.18)" style="fill:#f9b17c"/><path d="M1318.72,183.62l-56.43-64.47c-1-1.09-2.52.5-1.58,1.58l56.43,64.47c.95,1.08,2.53-.5,1.58-1.58Z" transform="translate(-295.32 -46.18)" style="fill:#f9b17c"/><path d="M1248.15,236a400.56,400.56,0,0,1-81.2-53.42c-1.09-.93-2.68.65-1.58,1.58A403.13,403.13,0,0,0,1247,237.94c1.28.64,2.42-1.29,1.13-1.93Z" transform="translate(-295.32 -46.18)" style="fill:#f9b17c"/><path d="M1208.07,294.77a162.46,162.46,0,0,1-32-1.88c-1.4-.22-2,1.93-.59,2.16a165.36,165.36,0,0,0,32.59,1.95c1.43-.06,1.44-2.29,0-2.23Z" transform="translate(-295.32 -46.18)" style="fill:#f9b17c"/><path d="M1217.91,352.5c-36.84,16.48-77.19,21.3-116.9,25.85-1.41.17-1.43,2.4,0,2.24,40.13-4.6,80.8-9.51,118-26.16,1.31-.59.18-2.51-1.13-1.93Z" transform="translate(-295.32 -46.18)" style="fill:#f9b17c"/><polygon points="1008.12 420.65 1016.33 427.38 986.73 457.75 924.32 413.65 950.73 373.63 958.11 379.67 1008.12 420.65" style="fill:#fff"/><path d="M1282.25,506.11l-64.9-45.85,28.32-42.92,8.82,7.2,59.63,48.88Zm-60.32-46.72,59.92,42.34,27.32-28-62.75-51.41Z" transform="translate(-295.32 -46.18)" style="fill:#f9b17c"/><path d="M1304.89,480.56a1.13,1.13,0,0,1-.67-.23l-65.63-49.92a1.12,1.12,0,0,1,1.35-1.78l65.63,49.92a1.13,1.13,0,0,1,.21,1.57A1.11,1.11,0,0,1,1304.89,480.56Z" transform="translate(-295.32 -46.18)" style="fill:#f9b17c"/><path d="M1297.19,489.82a1.07,1.07,0,0,1-.67-.23l-65.63-49.92a1.12,1.12,0,0,1,1.35-1.78l65.63,49.92a1.12,1.12,0,0,1-.68,2Z" transform="translate(-295.32 -46.18)" style="fill:#f9b17c"/><path d="M1289.8,501.14a1.08,1.08,0,0,1-.68-.23L1223.49,451a1.12,1.12,0,1,1,1.36-1.77l65.62,49.92a1.11,1.11,0,0,1-.67,2Z" transform="translate(-295.32 -46.18)" style="fill:#f9b17c"/><path d="M1455.26,220.41c9.44-6.63,16.72-16.21,24.4-24.71l26.12-28.89c1-1.06-.62-2.65-1.58-1.58l-24.63,27.24c-8,8.84-15.61,19.11-25.43,26-1.17.82-.06,2.76,1.12,1.93Z" transform="translate(-295.32 -46.18)" style="fill:#f9b17c"/><path d="M1496.29,281.32c8.26-.3,15.67-3.36,23.26-6.37a278.1,278.1,0,0,1,26.5-9,275,275,0,0,1,55.79-9.65c1.43-.1,1.44-2.34,0-2.24a279.2,279.2,0,0,0-52.39,8.63q-13,3.48-25.66,8.23c-9,3.39-17.72,7.79-27.5,8.16-1.44.05-1.44,2.29,0,2.23Z" transform="translate(-295.32 -46.18)" style="fill:#f9b17c"/><path d="M1511,333.22c6.92,6.82,19.21,6.42,28.24,7.35,13.17,1.34,26.38,2.08,39.6,2.29a1.12,1.12,0,0,0,0-2.23c-11.08-.18-22.15-.72-33.19-1.69-5.34-.47-10.68-1-16-1.69-6-.75-12.51-1.12-17.07-5.61-1-1-2.61.57-1.58,1.58Z" transform="translate(-295.32 -46.18)" style="fill:#f9b17c"/><path d="M1499.33,394.81A683,683,0,0,0,1606.45,466c1.27.67,2.4-1.25,1.13-1.93a680,680,0,0,1-106.67-70.79c-1.11-.89-2.7.68-1.58,1.58Z" transform="translate(-295.32 -46.18)" style="fill:#f9b17c"/><path d="M1222.46,482c6.66,4.45,13.12,9.28,20.5,12.47a55.26,55.26,0,0,1,17.64,11.63c7.29,7.28,18.61-4,11.31-11.32a64.39,64.39,0,0,0-19.36-13.47c-7.94-3.52-14.8-8.31-22-13.12-8.59-5.74-16.61,8.12-8.08,13.81Z" transform="translate(-295.32 -46.18)" style="fill:#f9b17c"/><path d="M347.81,1018.18s10.23,37.52,28.28,47.66,53.33-3.92,57.08-25.07-6.71-47.53-6.71-47.53Z" transform="translate(-295.32 -46.18)" style="fill:#9594c8"/><path d="M347.81,1018.18s33.48-34.08,78.65-24.94C426.46,993.24,378.64,1026.12,347.81,1018.18Z" transform="translate(-295.32 -46.18)" style="fill:#394480"/><path d="M426.08,1005.86a16.57,16.57,0,1,0,23.08,4.08A16.58,16.58,0,0,0,426.08,1005.86Zm15.33,21.92a10.18,10.18,0,1,1,2.51-14.18A10.17,10.17,0,0,1,441.41,1027.78Z" transform="translate(-295.32 -46.18)" style="fill:#9594c8"/><path d="M393.33,1000.75s-78.66-38.61-55.46-73,61.57-4.77,78-7,65.19-38,24.28-44.78-18.43,12-71.91,29.48-89.07,34.38-65.61,60.89c12.38,14,46.27,17,63.31,24.87C381.2,998.28,379.45,1011.67,393.33,1000.75Z" transform="translate(-295.32 -46.18)" style="fill:#394480"/><path d="M412.69,941.84c1.88-.65,5.67,2.67,7.41,3.32a12.86,12.86,0,0,0,6.17.79,9.74,9.74,0,0,0,7.74-5.59,2.55,2.55,0,0,0-1.49-3.68,36.91,36.91,0,0,0-11.32-1,2.53,2.53,0,0,0-2.16,3.76l1.73,3.18,1.49-3.67h-.1l-.6,4.57,2.94-.66a2.54,2.54,0,0,0,1.74-3.07c-1.17-5.39-10.84-4.4-14.82-4.23-3.2.15-3.22,5.15,0,5,.86,0,9.79-.39,10,.56l1.75-3.08-2.94.66c-2.29.52-2.2,3.4-.6,4.57a3.86,3.86,0,0,0,4,.5,2.55,2.55,0,0,0,1.49-3.68l-1.72-3.18-2.16,3.77a32.64,32.64,0,0,1,10,.87l-1.5-3.67c-4,8.76-12.4-2.86-18.33-.81-3,1-1.72,5.87,1.33,4.82Z" transform="translate(-295.32 -46.18)" style="fill:#394480"/><path d="M463,913.6c4.81-1.85,23.12-8.76,26.08-1.33l.64-2.43c-3.85,4.8-8.08,4.34-13.6,3.35-4.51-.82-9.18.8-13.53-.7v4.83a188.2,188.2,0,0,1,25.17-5.71L485.87,907l-8.26,3.82c-2.1,1-1.26,3.94.6,4.56a16,16,0,0,0,5.77.88l-.66-4.91c-4.65.68-9.45-2.33-14.28-2.06a24.45,24.45,0,0,0-10.36,3.13c-2.47,1.34-.79,5.39,1.93,4.56l6.5-2c3.07-.94,1.76-5.77-1.33-4.83l-6.5,2,1.93,4.57a18.53,18.53,0,0,1,13.51-1.9c3.52.84,6.24,1.88,9.93,1.34,2.82-.41,2.1-5-.67-4.91a8.32,8.32,0,0,1-4.44-.7l.59,4.57,8.26-3.81c2.78-1.29.64-5-1.92-4.57a189.73,189.73,0,0,0-25.17,5.7,2.53,2.53,0,0,0,0,4.83c3.12,1.07,5.78.73,9,.58,3.62-.17,6.83,1,10.38,1.24a15,15,0,0,0,12.61-5.76,2.54,2.54,0,0,0,.64-2.44c-4.69-11.77-23.93-5.36-32.23-2.16-3,1.15-1.68,6,1.33,4.82Z" transform="translate(-295.32 -46.18)" style="fill:#394480"/><path d="M488.06,883.69a62.8,62.8,0,0,1,10.62-.35c2,.09,4.17.08,6,1,.87.47,1.44,1.27,2.4,1.62,3.06,1.09,7.63-2.62,8.12-5.65,1.65-10.28-21.28-2.41-24.57-1.17-2.54,1-2.31,4.87.67,4.91l17.11.26-.67-4.91a10.84,10.84,0,0,0-3.81,1.34c-2.07,1-1.27,3.9.6,4.57a6.73,6.73,0,0,0,5.85-.42c2.92-1.34.38-5.65-2.52-4.31l-2-.09.6,4.57,2.61-.84c2.83-.55,2.08-4.87-.66-4.91l-17.11-.26.66,4.91a64.48,64.48,0,0,1,11.63-3.29c1.39-.24,3.94-.84,5.51-.61a8.05,8.05,0,0,0-.21,1.21c-.35-.29-.72-.56-1.09-.82-2.68-.94-4.67-1.9-7.6-2.1a64.59,64.59,0,0,0-12.12.3c-3.15.39-3.19,5.39,0,5Z" transform="translate(-295.32 -46.18)" style="fill:#394480"/></svg>