<svg xmlns="http://www.w3.org/2000/svg" viewBox="0 0 1584 792"><defs><linearGradient x1="1065.97" y1="-2.37" x2="1065.39" y2="-1.79" gradientTransform="translate(-212884 400) scale(200 100)" gradientUnits="userSpaceOnUse"><stop offset="0" stop-color="#4346de" stop-opacity="0.24"/><stop offset="1" stop-color="#4346de" stop-opacity="0.24"/></linearGradient><linearGradient x1="514.98" y1="443.59" x2="514.98" y2="442.67" gradientTransform="matrix(125.74, 42.75, 42.75, 131.72, -83357.88, -79714.82)" gradientUnits="userSpaceOnUse"><stop offset="0" stop-color="#53c0f1" stop-opacity="0.24"/><stop offset="1" stop-color="#d2f1ff"/></linearGradient><linearGradient x1="510.15" y1="439.65" x2="509.15" y2="439.17" gradientTransform="matrix(80.81, 4.65, 4.65, 81.46, -42962.52, -37571.06)" gradientUnits="userSpaceOnUse"><stop offset="0" stop-color="#25b2f2" stop-opacity="0.64"/><stop offset="1" stop-color="#85d4f8"/></linearGradient><linearGradient x1="510.44" y1="439.69" x2="509.9" y2="439.15" gradientTransform="matrix(80.81, 4.65, 4.65, 81.46, -42903.31, -37508.29)" gradientUnits="userSpaceOnUse"><stop offset="0" stop-color="#25b2f2"/><stop offset="1" stop-color="#85d4f8"/></linearGradient></defs><path d="M925.5,699.4l-6.1,87.4,187.9-68.4,6.1-87.4Z" style="fill:#d2f1ff;fill-rule:evenodd"/><path d="M619.4,678.1l-6.1,87.3,563.3-205,6.1-87.3Z" style="fill:#55c3f5;fill-rule:evenodd"/><path d="M1193.4,704.1l-6,85.2,185.9-67.7,6-85.2-185.9,67.7Z" style="fill:none;stroke:#d3ddec;stroke-width:2px"/><path d="M836.4,454l-6.1,87.3,563.3-205,6.1-87.3Z" style="fill:#4346de;fill-rule:evenodd"/><path d="M444.5,462.4l-6.1,87.4,187.9-68.4,6.1-87.4Z" style="fill:#e0e1ff;fill-rule:evenodd"/><path d="M247.4,245l100-50.4-81.8-48.8a7.2,7.2,0,0,0-6.4,0L147.4,194.6Z" style="fill:url(#a)"/><path d="M346.4,235l-100,49.9v-40l100-49.9Z" style="fill:#6e71e6"/><path d="M247.4,284.9,147.4,235V195l100,49.9Z" style="fill:#e0e1ff;opacity:0.6399999856948853;isolation:isolate"/><path d="M379.06,662.61l-90.18-33.22,26,89.35a5.92,5.92,0,0,0,3.75,4l87.25,32.13-26.85-92.28Z" style="fill-opacity:0.3199999928474426;fill:url(#b)"/><path d="M313.65,607l89.52,33.84L378.3,664l-89.52-33.84Z" style="fill-opacity:0.47999998927116394;fill:url(#c)"/><path d="M403.4,640.32,430.91,732,406,755.18l-27.51-91.67Z" style="fill-opacity:0.6399999856948853;fill:url(#d)"/><path d="M484.94,651.93l10.72-30.64-30,9.37a2.12,2.12,0,0,0-1.37,1.32l-10.35,29.6Z" style="fill:#d3ddec;fill-opacity:0.800000011920929"/><path d="M516.54,656.3l-7.44,21.09-24.38-25.25,10.86-30.5L519.06,646a1.91,1.91,0,0,1,.46,2.06l-3,8.29Z" style="fill:#d3ddec;fill-opacity:0.47999998927116394"/><path d="M509.32,677.18l-29.73,9.39a2.12,2.12,0,0,1-2-.54l-23.48-24.31,30.87-9.79,24.38,25.25Z" style="fill:#f8fbff"/></svg>