<svg xmlns="http://www.w3.org/2000/svg" viewBox="0 0 2200.97 2018.41"><defs><clipPath ><path d="M859.6,770.18c13,.28,25.52,5,36.1,12.59,12.4,8.91,30.28,24.55,43.18,40.38,7.86,9.64,11.47,15.65,13.27,24,4.13,19-1.24,19.1-23.2,30.62C920.06,882.44,903,891.61,894,894c-3,.81-6.64-14.44-12.58-10.73-32.51,20.35-54.56-46.86-55.18-78.48C826,790.35,847.76,769.93,859.6,770.18Z" style="fill:none"/></clipPath></defs><path d="M2201,1260.12v2.79c0,1.4,0,2.8-.09,4.21a23.26,23.26,0,0,1-.08,2.36c-.12,3.16-.31,6.35-.56,9.55,0,.67-.1,1.35-.16,2s-.11,1.26-.17,1.89-.12,1.28-.19,1.92a13,13,0,0,1-.14,1.4q-.27,2.7-.62,5.42c-.18,1.44-.38,2.88-.58,4.32l-.36,2.45c-.17,1.17-.35,2.34-.55,3.51l-.12.75c-.2,1.24-.42,2.47-.64,3.71q-2.49,13.9-6.4,28a354.1,354.1,0,0,1-16.56,46.57q-2.89,6.66-6.09,13.28c-1.14,2.39-2.32,4.77-3.52,7.15-.64,1.26-1.29,2.53-2,3.79s-1.31,2.51-2,3.76h0q-3.1,5.79-6.41,11.52-1.42,2.46-2.88,4.91c-.3.5-.59,1-.9,1.49-.4.68-.81,1.36-1.23,2q-4.81,7.92-10.08,15.7c-.41.62-.83,1.23-1.25,1.85l-1.42,2.06c-.63.93-1.28,1.85-1.93,2.77l-1.89,2.67q-3,4.17-6.09,8.29c-.68.91-1.37,1.81-2.06,2.71l-2.09,2.71c-.42.55-.85,1.09-1.28,1.64s-.71.89-1.06,1.33c-.67.86-1.35,1.7-2,2.55-.89,1.11-1.79,2.21-2.7,3.32-1.18,1.43-2.36,2.84-3.56,4.26a14.31,14.31,0,0,1-1,1.11l-1.49,1.74c-1.32,1.54-2.67,3.08-4,4.61q-.74.84-1.5,1.68c-.45.51-.9,1-1.36,1.51-.78.86-1.56,1.72-2.35,2.57q-6,6.54-12.37,12.87c-.75.75-1.5,1.5-2.26,2.24-2,1.94-4,3.87-6,5.77-.7.67-1.41,1.34-2.13,2l-.18.17c-1.51,1.4-3,2.8-4.57,4.18q-9.24,8.32-19.09,16.19c-.93.75-1.88,1.49-2.82,2.23-1.52,1.19-3,2.36-4.57,3.53-.91.7-1.83,1.39-2.75,2.07q-3.55,2.65-7.17,5.24-1.47,1.07-3,2.1-11.94,8.37-24.62,16l-.11.07q-3.48,2.07-7,4.08c-1.19.69-2.39,1.36-3.6,2s-2.21,1.23-3.32,1.83l-.3.16h0l-3.23,1.74c-1,.52-2,1-3,1.55-1.18.61-2.36,1.22-3.55,1.82s-2.19,1.11-3.29,1.65l-2.47,1.21c-.82.41-1.65.81-2.48,1.2l-2.49,1.19q-7.9,3.73-16.06,7.13c-.91.39-1.83.76-2.74,1.13-.52.22-1,.44-1.57.64l-2.6,1q-5,2-10.1,3.84c-1,.38-2,.75-3.07,1.11q-8.24,2.94-16.72,5.52c-.74.24-1.49.46-2.23.68q-6.67,2-13.49,3.79l-3.21.83c-1.4.36-2.81.71-4.23,1-.92.23-1.85.45-2.78.66-1.5.36-3,.71-4.54,1l-3.73.81q-3.79.81-7.62,1.54c-1.24.23-2.47.47-3.71.69l-3.39.6q-4,.72-8.11,1.33-1.92.3-3.87.57c-1.29.19-2.58.37-3.89.54l-3.65.47h-.25c-1.31.17-2.62.32-3.93.47s-2.63.3-4,.43q-4.5.48-9,.84l-3,.24-3.33.24c-1.37.1-2.75.18-4.13.26l-3,.17h-.11l-2.37.12c-2.62.12-5.27.22-7.92.28l-3.46.08c-1.46,0-2.93,0-4.4.06h-8.89c-1.26,0-2.51,0-3.77-.06s-2.41,0-3.62-.09-2.25-.06-3.38-.11-2.51-.08-3.76-.15a9.63,9.63,0,0,1-1.2,0c-1.47-.06-2.94-.14-4.41-.22h-.18l-3.38-.21-2.37-.15-4.52-.33c-1.71-.14-3.43-.28-5.15-.44-1.36-.11-2.72-.24-4.09-.39l-3.2-.32c-.7-.07-1.41-.14-2.11-.23l-2.42-.27-2.31-.28c-1.1-.12-2.21-.26-3.31-.41a7.35,7.35,0,0,1-.82-.1l-3.63-.48-1.8,0-3.12-.45-4.76-.72c-1.63-.26-3.27-.52-4.91-.8l-.77-.13-.32,0c-1.33-.22-2.67-.45-4-.69l-1.33-.24h-.24c-2.86-.52-5.73-1.06-8.61-1.64l-1.33-.26c-1.1-.22-2.2-.44-3.31-.68l-2.68-.56c-1.64-.34-3.28-.7-4.93-1.07l-4.58-1q-25.29-5.87-51.58-14.6-5.67-1.89-11.4-3.93l-3.46-1.24-3.35-1.21q-20.8-7.56-40-15.56-3-1.23-5.93-2.48c-2.09-.88-4.15-1.76-6.21-2.66l-3.52-1.52-4.57-2-4.39-2-2.71-1.23-3.88-1.77-4.56-2.11-4.53-2.14q-6.67-3.16-13.14-6.37-4.2-2.09-8.33-4.18c-2.18-1.11-4.34-2.23-6.49-3.34-1.18-.61-2.35-1.22-3.51-1.84q-14.8-7.79-28.56-15.74l-3.13-1.82q-11.85-6.91-23-13.92l-3.67-2.32q-9.75-6.2-19-12.43l-3.21-2.18-4.11-2.82-3-2.1-3.51-2.46-3.47-2.46q-6.92-4.9-13.55-9.84l-3.84-2.85c-1.29-1-2.56-1.92-3.83-2.89-1.53-1.16-3.06-2.32-4.57-3.48l-4-3.11-.46-.36c-1.49-1.16-3-2.31-4.44-3.47l-3.76-3q-14.65-11.61-28-23-2.67-2.25-5.28-4.48-10.49-8.94-20.31-17.59l-4.89-4.29-5-4.41-6.93-6.12-4.67-4.13-4.62-4.07-4.56-4q-3.46-3-6.86-6c-1.12-1-2.22-1.94-3.33-2.89s-2.21-1.92-3.31-2.86c-2.21-1.89-4.39-3.75-6.57-5.59l-1.4-1.19-2.24-1.87c-1.23-1-2.46-2-3.67-3l-1.31-1.08-2.86-2.33c-1.47-1.2-2.93-2.38-4.4-3.54l-3.87-3.06q-3-2.34-6-4.59a1,1,0,0,0-.2-.15c-3.42-2.59-6.83-5.1-10.25-7.5-.68-.49-1.37-1-2-1.44s-1.37-1-2-1.41l-.29-.2-3-2-3.33-2.19h0c-1.06-.69-2.12-1.37-3.19-2s-2.33-1.45-3.5-2.15-2.24-1.35-3.36-2c-.91-.54-1.83-1.07-2.75-1.59s-1.77-1-2.66-1.48l-1.65-.9c-.78-.42-1.56-.84-2.34-1.24-.57-.31-1.15-.6-1.72-.89q-3.14-1.6-6.3-3.09c-.9-.43-1.81-.85-2.72-1.26l-.32-.14c-.9-.41-1.81-.81-2.72-1.19l-1.39-.59c-.74-.32-1.48-.62-2.23-.92-.47-.2-.94-.38-1.41-.56-.79-.32-1.57-.62-2.36-.92-1.47-.55-3-1.09-4.43-1.6-1-.36-2.06-.71-3.1-1a163.53,163.53,0,0,0-44.45-8q-7.17-.3-14.68,0c-5.06.19-10.23.6-15.55,1.22-2.48.29-5,.63-7.55,1s-5.17.82-7.81,1.32q-9.51,1.76-19.62,4.41-6.27,1.65-12.8,3.65l-2.19.68c-1,.31-2,.64-3,1l-2.28.75-2.34.78q-14.07,4.76-29.35,11.15c-1.61.67-3.23,1.36-4.88,2.08q-3.71,1.59-7.48,3.29l-2.53,1.14-2.55,1.17q-2.57,1.17-5.15,2.39c-1.89.89-3.79,1.79-5.7,2.72-1,.45-1.92.92-2.89,1.4q-15.93,7.77-33.19,17.21-3.13,1.71-6.33,3.49c-1.06.59-2.13,1.18-3.2,1.79s-2.15,1.2-3.23,1.82l-3.58,2-2.94,1.69q-7.12,4.1-14.48,8.47c-1.09.64-2.17,1.29-3.26,2q-11.46,6.86-23.5,14.39c-28.15,17.61-58.74,38-92.13,61.55q-44.22,31.13-84.66,58.22-3.79,2.55-7.55,5-4.68,3.12-9.32,6.18l-9.23,6.08q-9.16,6-18.15,11.81c-2.41,1.55-4.81,3.1-7.2,4.62q-5.32,3.42-10.57,6.75l-8.73,5.51h0q-13,8.19-25.64,15.87-6.3,3.86-12.51,7.57l-8.22,4.9q-4.1,2.43-8.13,4.79l-8,4.68q-12,6.92-23.56,13.35l-7.67,4.22-3.81,2.07q-5.68,3.09-11.28,6-24.22,12.81-46.61,23.21h0q-3.44,1.59-6.84,3.14-6.81,3.08-13.46,5.94-3.31,1.42-6.6,2.8c-2.19.91-4.36,1.81-6.52,2.68h0l-3.46,1.39q-3.56,1.41-7.05,2.75l-3.71,1.41-4,1.47-2.48.9h0c-76.77,27.77-135.32,29.06-180.36,2.63a140.36,140.36,0,0,1-24.68-18.18c-1.16-1.07-2.3-2.16-3.44-3.28s-2.24-2.23-3.35-3.38c-31.41-32.75-54.67-84-72.32-154.52-.45-1.81-.9-3.63-1.35-5.48s-.89-3.68-1.32-5.51C135.66,1437,127.65,1389,121,1334.45q-1.68-13.76-3.26-28c-.29-2.67-.57-5.33-.86-8-.26-2.43-.52-4.88-.77-7.33l-.18-1.71q-.3-2.83-.58-5.7c-.12-1.15-.24-2.3-.35-3.45-.21-2.07-.41-4.15-.62-6.23s-.41-4.16-.61-6.26c-.23-2.45-.47-4.92-.7-7.39q-.63-6.76-1.24-13.64c-.27-3-.54-5.94-.79-8.93q-2.58-29.82-5.15-56.92c-.19-1.88-.36-3.75-.54-5.62l-.57-5.9c-.25-2.6-.5-5.17-.75-7.73-.13-1.3-.26-2.59-.38-3.88q-1.11-11.24-2.21-22l-.12-1.1c-.26-2.57-.52-5.11-.78-7.64s-.52-5-.79-7.52V1119q-.84-8-1.69-15.71c-.19-1.72-.37-3.43-.56-5.13q-.73-6.69-1.47-13.19c-.24-2.16-.48-4.32-.73-6.45s-.49-4.25-.73-6.36c-.33-2.8-.67-5.58-1-8.33-.19-1.57-.37-3.14-.56-4.69h0q-.36-3.09-.72-6.12t-.75-6.11c-.35-2.84-.7-5.64-1-8.42-.18-1.39-.35-2.77-.52-4.14-.09-.66-.17-1.31-.25-2-.35-2.75-.7-5.47-1-8.18s-.7-5.36-1-8Q85.3,998.34,83,982.22c-.18-1.2-.35-2.39-.52-3.57q-1.12-7.75-2.25-15.13l-.51-3.34c-1.19-7.78-2.38-15.25-3.56-22.46q-.5-3-1-6c-.16-1-.33-2-.5-3s-.33-2-.5-3q-.5-2.94-1-5.82c-.46-2.67-.92-5.29-1.38-7.88q-.56-3.12-1.11-6.17-.49-2.72-1-5.37c-.29-1.55-.57-3.09-.86-4.61-.35-1.84-.69-3.66-1-5.46a2,2,0,0,0-.08-.4c-.16-.83-.32-1.65-.47-2.47-.32-1.64-.63-3.26-1-4.86-.16-.81-.32-1.6-.47-2.4s-.37-1.84-.55-2.75c-.3-1.55-.61-3.07-.92-4.59a1.74,1.74,0,0,1,0-.22c-.59-3-1.18-5.84-1.79-8.68-.2-.95-.4-1.89-.59-2.83v-.12c-.31-1.48-.62-3-.94-4.41v-.08c-.31-1.47-.62-2.93-.94-4.37-.17-.74-.33-1.48-.49-2.21h0c-.21-1-.41-1.89-.62-2.82s-.41-1.86-.62-2.78l-.66-2.94c-.2-.89-.4-1.76-.6-2.63-.28-1.21-.55-2.4-.82-3.59-.48-2-.95-4.08-1.41-6.07q-1.65-7-3.26-13.6c-.62-2.52-1.23-5-1.84-7.46-.16-.62-.31-1.23-.46-1.83s-.3-1.22-.46-1.83l-.45-1.81-.66-2.61c-3.24-12.84-6.4-24.89-9.46-36.82-.38-1.48-.76-3-1.13-4.44-.23-.88-.45-1.76-.67-2.63s-.45-1.76-.67-2.64l-1.32-5.27c-1.67-6.69-3.3-13.42-4.9-20.33-.41-1.77-.81-3.55-1.22-5.35-4.07-18-7.9-37.27-11.47-59.84-.23-1.46-.46-2.92-.69-4.4-.31-2-.62-4-.91-6h0q-.44-3-.86-6c-.28-2-.57-4-.84-6q-.46-3.33-.91-6.76l-.15-1.15q-.23-1.75-.45-3.54c-.2-1.52-.39-3-.58-4.59s-.38-3.1-.57-4.67v-.17q-.32-2.72-.65-5.51t-.64-5.63c-.15-1.26-.29-2.54-.43-3.83l-.42-3.88q-.47-4.27-.91-8.7l-.33-3.31c-.14-1.36-.27-2.74-.41-4.12-.27-2.77-.53-5.58-.8-8.44s-.54-5.83-.81-8.9q-.39-4.32-.75-8.77-.42-4.83-.81-9.82l-.33-4.15c-.19-2.36-.38-4.75-.55-7.17-.06-.72-.11-1.44-.16-2.16q-.48-6.49-1-13.25c-.1-1.41-.19-2.83-.29-4.26q-.21-3.12-.42-6.3c-.08-1.17-.16-2.34-.23-3.52s-.17-2.57-.25-3.87Q.1,494.59.1,485.75c0-1.74,0-3.47,0-5.19v-1.08c0-.77,0-1.53.06-2.3,0-.94.07-1.88.11-2.81s.07-1.54.11-2.31c.06-1.16.13-2.31.2-3.46.06-.73.11-1.46.16-2.18.09-1.16.19-2.32.29-3.46.15-1.64.31-3.26.49-4.87.23-2,.49-4,.76-6l.3-2c.13-.87.26-1.73.4-2.6.28-1.72.58-3.44.89-5.13.16-.85.32-1.69.49-2.53q1.17-6,2.67-11.68c.17-.68.35-1.35.53-2V426c.19-.7.39-1.41.59-2.11.15-.54.3-1.08.46-1.62.43-1.46.87-2.9,1.33-4.33.24-.78.5-1.56.75-2.33.49-1.47,1-2.93,1.51-4.37h0c.39-1.07.78-2.13,1.19-3.18.28-.77.58-1.53.88-2.29s.48-1.22.73-1.82l.77-1.86c.38-.91.76-1.8,1.15-2.69l.06-.13c.51-1.18,1-2.34,1.58-3.5l.08-.18c.47-1,.94-2,1.42-3,.2-.42.41-.85.62-1.27.42-.83.83-1.66,1.25-2.48.64-1.23,1.28-2.44,1.94-3.65s1.2-2.18,1.82-3.25c.44-.78.89-1.56,1.35-2.33.69-1.16,1.38-2.31,2.09-3.44.35-.57.7-1.13,1.06-1.69q1-1.61,2.07-3.18c.55-.83,1.12-1.66,1.69-2.49s1-1.44,1.51-2.15c.83-1.18,1.68-2.34,2.53-3.48.52-.7,1-1.39,1.57-2.07.64-.84,1.29-1.67,2-2.5s1.49-1.86,2.25-2.78c.58-.71,1.17-1.41,1.77-2.11s1.31-1.54,2-2.3q3.9-4.46,8.07-8.66,3-3.08,6.2-6c1.11-1,2.24-2.06,3.37-3.08.9-.8,1.81-1.59,2.72-2.38l1.42-1.22c.93-.79,1.87-1.57,2.82-2.35q3.28-2.7,6.7-5.29l1-.77c1-.77,2-1.53,3.07-2.28l.13-.09c1.17-.86,2.36-1.7,3.55-2.53l.64-.45,2.88-2c1.14-.77,2.29-1.53,3.44-2.28h0l.4-.25c1-.66,2-1.3,3-1.94l.41-.26c1.25-.78,2.51-1.55,3.76-2.31,1-.61,2-1.22,3-1.81.49-.3,1-.58,1.48-.87,1.07-.61,2.15-1.23,3.23-1.83h.07l2.18-1.22c1.14-.63,2.28-1.25,3.43-1.86l.32-.17c1.33-.7,2.67-1.39,4-2.07,1.11-.57,2.23-1.13,3.36-1.69l3.56-1.75.42-.2c1-.51,2.12-1,3.18-1.51l1.21-.56,2.38-1.1,1.78-.82,3-1.34,4-1.7c1.32-.56,2.66-1.11,4-1.66l4.09-1.64q2.28-.9,4.57-1.76c1.27-.49,2.55-1,3.83-1.43s2.52-.92,3.79-1.37h0c1.1-.4,2.2-.78,3.3-1.16l2.95-1q2.34-.79,4.7-1.56l4.73-1.51c1-.31,1.94-.61,2.92-.9.78-.25,1.57-.49,2.36-.72,1.41-.43,2.84-.85,4.26-1.26,13.2-3.82,26.68-7.11,40.31-9.93a469.33,469.33,0,0,1,118.72-9.06q17.34.87,34.54,3c1.94.24,3.89.49,5.83.77s3.85.53,5.78.82a480.78,480.78,0,0,1,165.32,56.9c1.42.8,2.84,1.6,4.25,2.43s2.82,1.63,4.23,2.47c2.29,1.35,4.58,2.72,6.85,4.12q9,5.52,17.84,11.48,12.5,8.43,24.51,17.68c17.18,13.22,43.64,30.35,75.76,49.56q4.92,2.94,10,5.93c1.39.83,2.8,1.65,4.21,2.48l4.21,2.46,4.71,2.74,4.78,2.77,4.83,2.78q9.72,5.6,19.87,11.31l5.07,2.86h0l4.28,2.4,4.29,2.39,5.21,2.9c22.72,12.62,46.59,25.52,70.84,38.34h0q10.08,5.32,20.25,10.62l4,2.11h0l.35.18,4.34,2.26h0q7,3.62,13.9,6.74l2.79,1.24,1.42.62c1.2.52,2.41,1,3.61,1.52.9.38,1.8.75,2.69,1.1l2.1.83c1.37.54,2.73,1.06,4.09,1.56l4.48,1.63,1.9.65c2.17.75,4.35,1.46,6.52,2.14,1.7.53,3.41,1,5.11,1.53l.88.25c1.39.4,2.77.78,4.16,1.15h.16c1.07.28,2.14.56,3.21.82s2.39.6,3.58.87,2.18.51,3.26.74,2.23.49,3.35.71,2,.41,3,.6c1.37.26,2.75.51,4.13.75,1,.17,1.9.32,2.85.47L943,522a231.88,231.88,0,0,0,33.6,2.45h.31c97.21,0,189.43-59.26,276.64-131.51,11.68-9.66,23.26-19.57,34.76-29.59,14.47-12.61,28.8-25.43,43-38.22,120.2-108.3,230.22-214.63,330.1-184.5q26,7.83,49,17c1.59.63,3.16,1.27,4.73,1.92l4.71,1.95c56.92,24,100,55.12,128.37,95.7.93,1.33,1.84,2.67,2.73,4s1.8,2.72,2.67,4.1c32.1,50.75,42.5,115.71,29.71,199.24-.41,2.74-.86,5.5-1.33,8.28s-1,5.63-1.49,8.48c-8.4,45.58-23.34,96.46-45,153.28-23,60.17-31.92,111.41-30,155.86.08,2.19.21,4.36.36,6.51s.31,4.25.51,6.35c5.85,62.36,33.81,111,74.38,152.36q1.66,1.7,3.36,3.39t3.39,3.32c36.28,35.15,81.61,65.13,129.84,94.15l4.17,2.51,4.18,2.5c36,21.49,73.48,42.57,109.79,65a130.36,130.36,0,0,1,11.9,8.29q1.88,1.47,3.69,3c1.21,1,2.39,2.06,3.56,3.12s2.3,2.14,3.42,3.24c1.46,1.43,2.88,2.89,4.26,4.4q1.63,1.74,3.18,3.56c1,1.21,2.06,2.45,3,3.7a113.48,113.48,0,0,1,7.2,10c.85,1.3,1.68,2.61,2.48,4,1.21,2,2.37,4,3.48,6.12q1.1,2.07,2.15,4.18c1.73,3.53,3.34,7.16,4.81,10.86q1.32,3.33,2.49,6.75C2197.76,1216.82,2201,1237.87,2201,1260.12Z" style="fill:#ebf5fc"/><path d="M889.13,1306.42v85C861,1409,830.39,1429.47,797,1453q-44.22,31.13-84.66,58.22-3.8,2.55-7.55,5-4.68,3.12-9.32,6.18l-9.23,6.08q-9.16,6-18.15,11.81c-2.41,1.55-4.81,3.1-7.2,4.62q-5.32,3.42-10.57,6.75l-8.73,5.51h0q-13,8.19-25.64,15.87-6.3,3.85-12.51,7.57l-8.22,4.9q-4.1,2.43-8.13,4.79l-8,4.68q-12,6.91-23.56,13.35l-7.67,4.22-3.81,2.07q-5.68,3.09-11.28,6-24.22,12.79-46.61,23.21h0q-3.44,1.59-6.84,3.14-6.81,3.07-13.46,5.94-3.32,1.42-6.6,2.8c-2.19.91-4.36,1.81-6.52,2.68h0l-3.46,1.39q-3.55,1.41-7,2.75l-3.71,1.41-4,1.47-2.48.9h0c-76.77,27.77-135.32,29.06-180.36,2.63V1306.42Z" style="fill:#ebf5fc"/><path d="M314.67,1658c0-9.25-14.38-9.27-14.38,0S314.67,1667.3,314.67,1658Z" style="fill:#fff"/><path d="M314.67,1518.13c0-9.25-14.38-9.26-14.38,0S314.67,1527.4,314.67,1518.13Z" style="fill:#fff"/><path d="M314.67,1378.24c0-9.25-14.38-9.27-14.38,0S314.67,1387.51,314.67,1378.24Z" style="fill:#fff"/><path d="M449.43,1518.13c0-9.25-14.38-9.26-14.38,0S449.43,1527.4,449.43,1518.13Z" style="fill:#fff"/><path d="M449.43,1378.24c0-9.25-14.38-9.27-14.38,0S449.43,1387.51,449.43,1378.24Z" style="fill:#fff"/><path d="M584.19,1518.13c0-9.25-14.38-9.26-14.38,0S584.19,1527.4,584.19,1518.13Z" style="fill:#fff"/><path d="M584.19,1378.24c0-9.25-14.38-9.27-14.38,0S584.19,1387.51,584.19,1378.24Z" style="fill:#fff"/><path d="M719,1378.24c0-9.25-14.38-9.27-14.38,0S719,1387.51,719,1378.24Z" style="fill:#fff"/><path d="M853.76,1378.24c0-9.25-14.38-9.27-14.38,0S853.76,1387.51,853.76,1378.24Z" style="fill:#fff"/><path d="M1066,1306.42q-6.27,1.65-12.8,3.65l-2.19.68c-1,.31-2,.64-3,1l-2.28.75-2.34.78q-14.07,4.76-29.35,11.15c-1.61.67-3.23,1.36-4.88,2.08q-3.71,1.59-7.48,3.29l-2.53,1.14-2.55,1.17q-2.57,1.17-5.15,2.39c-1.89.89-3.79,1.79-5.7,2.72-1,.45-1.92.92-2.89,1.4q-15.93,7.77-33.19,17.21-3.13,1.71-6.33,3.49c-1.06.59-2.13,1.18-3.2,1.79s-2.15,1.2-3.23,1.82l-3.58,2-2.94,1.69q-7.12,4.1-14.48,8.47c-1.09.64-2.17,1.29-3.26,2q-11.46,6.86-23.5,14.39v-85Z" style="fill:#ebf5fc"/><path d="M1526.62,1306.42v245.22q-4.2-2.09-8.33-4.18c-2.18-1.11-4.34-2.23-6.49-3.34-1.18-.61-2.35-1.22-3.51-1.84q-14.8-7.79-28.56-15.74l-3.13-1.82q-11.85-6.92-23-13.92l-3.67-2.32q-9.75-6.2-19-12.43l-3.21-2.18-4.11-2.82-3-2.1-3.51-2.46-3.47-2.46q-6.92-4.9-13.55-9.84l-3.84-2.85c-1.29-1-2.56-1.92-3.83-2.89-1.53-1.16-3.06-2.32-4.57-3.48l-4-3.11-.46-.36c-1.49-1.16-3-2.31-4.44-3.47l-3.76-3q-14.65-11.61-28-23-2.67-2.25-5.28-4.48-10.49-8.94-20.31-17.59l-4.89-4.29-5-4.41-6.93-6.12-4.67-4.13-4.62-4.07-4.56-4q-3.47-3-6.86-6c-1.12-1-2.22-1.94-3.33-2.89s-2.21-1.92-3.31-2.86q-3.3-2.84-6.56-5.6l-1.41-1.18-2.24-1.87c-1.23-1-2.46-2-3.67-3l-1.31-1.08c-1-.79-1.91-1.57-2.86-2.33-1.47-1.2-2.93-2.38-4.4-3.54-1.29-1-2.59-2.06-3.87-3.06q-3-2.34-6-4.59a1,1,0,0,0-.2-.15c-3.42-2.59-6.83-5.1-10.25-7.5-.68-.49-1.37-1-2-1.44s-1.37-1-2-1.41l-.29-.2c-1-.7-2-1.38-3-2l-3.33-2.19h0c-1.06-.69-2.13-1.37-3.19-2s-2.33-1.45-3.5-2.15-2.24-1.35-3.36-2c-.92-.54-1.83-1.07-2.75-1.59s-1.77-1-2.66-1.48l-1.65-.9c-.78-.42-1.56-.84-2.34-1.24-.57-.31-1.15-.6-1.72-.89q-3.13-1.6-6.3-3.09c-.9-.43-1.81-.85-2.72-1.26l-.32-.14c-.9-.41-1.81-.8-2.72-1.19l-1.39-.59c-.74-.32-1.48-.62-2.23-.92l-1.41-.56c-.79-.32-1.57-.62-2.36-.92-1.47-.55-3-1.09-4.43-1.6-1-.36-2.06-.71-3.1-1Z" style="fill:#ebf5fc"/><path d="M1356.44,1378.24c0-9.25-14.38-9.27-14.38,0S1356.44,1387.51,1356.44,1378.24Z" style="fill:#fff"/><path d="M1491.2,1518.13c0-9.25-14.37-9.26-14.37,0S1491.2,1527.4,1491.2,1518.13Z" style="fill:#fff"/><path d="M1491.2,1378.24c0-9.25-14.37-9.27-14.37,0S1491.2,1387.51,1491.2,1378.24Z" style="fill:#fff"/><path d="M2164.12,1306.42v95c-.64,1.26-1.29,2.53-2,3.79s-1.31,2.51-2,3.76h0q-3.1,5.79-6.41,11.52c-.94,1.64-1.9,3.27-2.88,4.91-.3.5-.59,1-.9,1.49-.4.68-.81,1.36-1.23,2q-4.82,7.92-10.08,15.7c-.41.62-.83,1.23-1.25,1.85l-1.42,2.06c-.63.93-1.28,1.85-1.93,2.77l-1.89,2.67q-3,4.17-6.09,8.29c-.68.91-1.37,1.81-2.06,2.71l-2.09,2.71c-.42.55-.85,1.09-1.28,1.64s-.71.89-1.06,1.33c-.67.86-1.35,1.7-2,2.55-.89,1.11-1.79,2.21-2.7,3.32-1.18,1.43-2.36,2.84-3.56,4.26a14.31,14.31,0,0,1-1,1.11l-1.49,1.74c-1.32,1.54-2.67,3.08-4,4.61q-.74.84-1.5,1.68c-.45.51-.9,1-1.36,1.51-.78.86-1.56,1.72-2.35,2.57q-6,6.54-12.37,12.87c-.75.75-1.5,1.5-2.26,2.24-2,1.94-4,3.87-6,5.77-.7.67-1.41,1.34-2.13,2l-.18.17c-1.51,1.4-3,2.8-4.57,4.18q-9.24,8.32-19.09,16.19c-.93.75-1.88,1.49-2.82,2.23-1.52,1.19-3,2.36-4.57,3.53-.91.7-1.83,1.39-2.75,2.07q-3.55,2.65-7.17,5.24-1.47,1.07-3,2.1-11.94,8.37-24.62,16l-.11.07c-2.32,1.38-4.65,2.75-7,4.08-1.19.69-2.39,1.36-3.6,2s-2.21,1.23-3.32,1.83l-.3.16h0l-3.23,1.74c-1,.52-2,1-3,1.55-1.18.61-2.36,1.22-3.55,1.82s-2.19,1.11-3.29,1.65l-2.47,1.21c-.82.41-1.65.81-2.48,1.2l-2.49,1.19q-7.9,3.73-16.06,7.13c-.91.39-1.83.76-2.74,1.13-.52.22-1,.44-1.57.64l-2.6,1q-5,2-10.1,3.84c-1,.38-2,.75-3.07,1.11q-8.24,2.94-16.72,5.52c-.74.24-1.49.46-2.23.68q-6.67,2-13.49,3.79l-3.21.83c-1.4.36-2.81.71-4.23,1-.92.23-1.85.45-2.78.66-1.5.36-3,.71-4.54,1l-3.73.81q-3.79.81-7.62,1.54c-1.24.23-2.47.47-3.71.69l-3.39.6q-4,.72-8.11,1.33-1.92.3-3.87.57c-1.29.19-2.58.37-3.89.54l-3.65.47h-.25c-1.31.17-2.62.32-3.93.47s-2.63.3-4,.43q-4.5.48-9,.84l-3,.24-3.33.24c-1.37.1-2.75.18-4.13.26l-3,.17h-.11l-2.37.12c-2.62.12-5.27.22-7.92.28l-3.46.08c-1.46,0-2.93,0-4.4.06h-8.89c-1.26,0-2.51,0-3.77-.06s-2.41,0-3.62-.09-2.25-.06-3.38-.11-2.51-.08-3.76-.15a9.63,9.63,0,0,1-1.2,0c-1.47-.06-2.94-.14-4.41-.22h-.18l-3.38-.21-2.37-.15-4.52-.33c-1.71-.14-3.43-.28-5.15-.44-1.36-.11-2.72-.24-4.09-.39l-3.2-.32c-.7-.07-1.41-.14-2.11-.23l-2.42-.27-2.31-.28c-1.1-.12-2.21-.26-3.31-.41a7.35,7.35,0,0,1-.82-.1l-3.63-.48-1.78-.07-3.12-.45-4.76-.72c-1.63-.26-3.27-.52-4.91-.8l-.77-.13-.32,0c-1.33-.22-2.67-.45-4-.69l-1.33-.24h-.24c-2.86-.52-5.73-1.06-8.61-1.64l-1.33-.26c-1.1-.22-2.2-.44-3.31-.68l-2.68-.56c-1.64-.34-3.28-.7-4.93-1.07l-4.58-1q-25.29-5.87-51.58-14.6-5.67-1.89-11.4-3.93l-3.46-1.24-3.35-1.21q-20.8-7.56-40-15.56-3-1.23-5.93-2.48c-2.08-.88-4.16-1.77-6.21-2.66l-3.52-1.52-4.57-2-4.39-2-2.71-1.23-3.88-1.77-4.56-2.11-4.53-2.14q-6.67-3.16-13.14-6.37V1306.42Z" style="fill:#ebf5fc"/><path d="M1589.66,1518.13c0-9.25-14.38-9.26-14.38,0S1589.66,1527.4,1589.66,1518.13Z" style="fill:#fff"/><path d="M1589.66,1378.24c0-9.25-14.38-9.27-14.38,0S1589.66,1387.51,1589.66,1378.24Z" style="fill:#fff"/><path d="M1724.42,1518.13c0-9.25-14.38-9.26-14.38,0S1724.42,1527.4,1724.42,1518.13Z" style="fill:#fff"/><path d="M1724.42,1378.24c0-9.25-14.38-9.27-14.38,0S1724.42,1387.51,1724.42,1378.24Z" style="fill:#fff"/><path d="M1859.18,1518.13c0-9.25-14.38-9.26-14.38,0S1859.18,1527.4,1859.18,1518.13Z" style="fill:#fff"/><path d="M1859.18,1378.24c0-9.25-14.38-9.27-14.38,0S1859.18,1387.51,1859.18,1378.24Z" style="fill:#fff"/><path d="M1993.94,1518.13c0-9.25-14.38-9.26-14.38,0S1993.94,1527.4,1993.94,1518.13Z" style="fill:#fff"/><path d="M1993.94,1378.24c0-9.25-14.38-9.27-14.38,0S1993.94,1387.51,1993.94,1378.24Z" style="fill:#fff"/><path d="M2128.7,1378.24c0-9.25-14.38-9.27-14.38,0S2128.7,1387.51,2128.7,1378.24Z" style="fill:#fff"/><path d="M2201,1260.12v2.79c0,1.4,0,2.8-.09,4.21a23.26,23.26,0,0,1-.08,2.36c-.12,3.16-.31,6.35-.56,9.55,0,.67-.1,1.35-.16,2s-.11,1.26-.17,1.89-.12,1.28-.19,1.92a13,13,0,0,1-.14,1.4q-.27,2.7-.62,5.42c-.18,1.44-.38,2.88-.58,4.32l-.36,2.45c-.17,1.17-.35,2.34-.55,3.51l-.12.75c-.2,1.24-.42,2.47-.64,3.71h-1021a163.6,163.6,0,0,0-44.45-8h-14.7c-5.06.19-10.23.6-15.55,1.22-2.48.29-5,.63-7.55,1s-5.17.82-7.81,1.32q-9.51,1.75-19.62,4.41H943V522.09a231.88,231.88,0,0,0,33.6,2.45h.31c97.21,0,189.43-59.26,276.64-131.51,11.68-9.66,23.26-19.57,34.76-29.59,14.47-12.61,28.8-25.43,43-38.22,120.2-108.3,230.22-214.63,330.1-184.5q25.95,7.83,49,17c1.59.63,3.16,1.27,4.73,1.92l4.71,2c56.92,24,100,55.12,128.37,95.7.93,1.33,1.84,2.67,2.73,4s1.8,2.72,2.67,4.1c32.1,50.75,42.5,115.71,29.71,199.24-.41,2.74-.86,5.5-1.33,8.28s-1,5.63-1.49,8.48c-8.4,45.58-23.34,96.46-45,153.28-23,60.17-31.92,111.41-30,155.86.08,2.19.21,4.36.36,6.51s.31,4.25.51,6.35c5.85,62.36,33.81,111,74.38,152.36q1.67,1.69,3.36,3.39t3.39,3.32c36.28,35.15,81.61,65.13,129.84,94.15l4.17,2.51,4.18,2.5c36,21.49,73.48,42.57,109.79,65a130.36,130.36,0,0,1,11.9,8.29q1.88,1.47,3.69,3c1.21,1,2.39,2.06,3.56,3.12s2.3,2.14,3.42,3.24c1.46,1.43,2.88,2.89,4.26,4.4q1.64,1.74,3.18,3.56c1,1.21,2.06,2.45,3,3.7a113.48,113.48,0,0,1,7.2,10c.85,1.3,1.67,2.61,2.48,4,1.21,2,2.37,4,3.48,6.12q1.09,2.07,2.15,4.18c1.73,3.53,3.34,7.16,4.81,10.86q1.32,3.33,2.49,6.75C2197.76,1216.82,2201,1237.87,2201,1260.12Z" style="fill:#ebf5fc"/><line x1="753.16" y1="436.79" x2="395.63" y2="812.05" style="fill:none"/><path d="M753.16,436.82l4.29,2.39L398.76,815.69l-3.1-3.64-3.09-3.64,356.34-374Z" style="fill:#fff"/><polyline points="911.15 515.18 885.88 541.7 664.76 773.79 647.76 791.63 590.91 851.3 573.07 870.02 508.75 937.53" style="fill:none"/><path d="M916.35,516.62l-29.07,30.52L671.33,773.82l-17,17.84-63.42,66.57L573.07,877l-61.22,64.26-3.1-3.65-3.09-3.64,67.41-70.75,17.84-18.73,50.29-52.78,17-17.84L884.51,536.28l21.54-22.6c1.7.53,3.41,1,5.11,1.53l.88.25c1.39.4,2.77.78,4.16,1.15Z" style="fill:#fff"/><polyline points="1288.39 363.44 943.08 725.88 621.87 1063.02" style="fill:none"/><path d="M1331.37,325.22,943.08,732.82,625,1066.66l-3.1-3.64-3.1-3.64L943.08,719l310.55-326c11.68-9.66,23.26-19.57,34.76-29.59C1302.86,350.82,1317.19,338,1331.37,325.22Z" style="fill:#fff"/><polyline points="1715.24 159.64 943.08 970.1 734.99 1188.51" style="fill:none"/><path d="M1720,161.59,943.08,977l-205,215.16-3.1-3.64-3.09-3.64L943.07,963.22l767.43-805.5c1.59.63,3.16,1.27,4.73,1.92Z" style="fill:#fff"/><polyline points="848.11 1313.99 943.08 1214.31 1851.05 261.31" style="fill:none"/><path d="M1851.05,261.31c.91,1.36,1.8,2.72,2.67,4.1l-910.64,955.8-91.87,96.43-3.1-3.65-3.1-3.64,98.07-102.93,905.24-950.13Q1849.76,259.28,1851.05,261.31Z" style="fill:#fff"/><polyline points="1882.1 472.93 1095.59 1298.45 1093.46 1300.69" style="fill:none"/><path d="M1883.43,464.65c-.41,2.74-.86,5.5-1.33,8.28s-1,5.63-1.49,8.48l-778.44,817-1.16,1.22c-2.48.29-5,.63-7.55,1s-5.17.82-7.81,1.32l3.39-3.56Z" style="fill:#fff"/><polyline points="1805.97 797.06 1328.27 1298.45 1320.68 1306.42 1293.96 1334.47" style="fill:none"/><path d="M1806.48,803.41l-471.65,495-7.59,8-26.72,28h-13.14l26.73-28,7.59-8,483.91-507.9c.08,2.19.21,4.36.36,6.51S1806.28,801.31,1806.48,803.41Z" style="fill:#fff"/><polyline points="1884.22 959.16 1560.95 1298.45 1553.36 1306.42 1526.64 1334.47" style="fill:none"/><path d="M1887.61,962.48l-320.1,336-7.59,8-26.72,28h-13.14l26.7-28.11,7.59-8,326.51-342.6q1.67,1.7,3.36,3.39T1887.61,962.48Z" style="fill:#fff"/><polyline points="2021.62 1059.14 1793.62 1298.45 1786.03 1306.42 1759.31 1334.47" style="fill:none"/><path d="M2025.76,1061.64l-225.61,236.81-7.59,8-26.72,28h-13.08l26.72-28,7.59-8,230.4-241.82,4.17,2.51Z" style="fill:#fff"/><polyline points="2165.6 1152.24 2026.3 1298.45 2018.71 1306.42 1991.99 1334.47" style="fill:none"/><path d="M2168.64,1155.94l-135.78,142.51-7.59,8-26.72,28h-13.13l26.72-28,7.59-8,142.69-149.77q1.64,1.74,3.18,3.56C2166.64,1153.45,2167.66,1154.69,2168.64,1155.94Z" style="fill:#fff"/><path d="M2201,1260.12v2.79c0,1.4,0,2.8-.09,4.21a23.26,23.26,0,0,1-.08,2.36c-.12,3.16-.31,6.35-.56,9.55,0,.67-.1,1.35-.16,2s-.11,1.26-.17,1.89-.12,1.28-.19,1.92a13,13,0,0,1-.14,1.4q-.27,2.7-.62,5.42c-.18,1.44-.38,2.88-.58,4.32l-.36,2.45c-.17,1.17-.35,2.34-.55,3.51l-.12.75c-.2,1.24-.42,2.47-.64,3.71h-1021a163.6,163.6,0,0,0-44.45-8h-14.7c-5.06.19-10.23.6-15.55,1.22-2.48.29-5,.63-7.55,1s-5.17.82-7.81,1.32q-9.51,1.75-19.62,4.41H943V522.09a231.88,231.88,0,0,0,33.6,2.45h.31c97.21,0,189.43-59.26,276.64-131.51,11.68-9.66,23.26-19.57,34.76-29.59,14.47-12.61,28.8-25.43,43-38.22,120.2-108.3,230.22-214.63,330.1-184.5q25.95,7.83,49,17c1.59.63,3.16,1.27,4.73,1.92l4.71,2c56.92,24,100,55.12,128.37,95.7.93,1.33,1.84,2.67,2.73,4s1.8,2.72,2.67,4.1c32.1,50.75,42.5,115.71,29.71,199.24-.41,2.74-.86,5.5-1.33,8.28s-1,5.63-1.49,8.48c-8.4,45.58-23.34,96.46-45,153.28-23,60.17-31.92,111.41-30,155.86.08,2.19.21,4.36.36,6.51s.31,4.25.51,6.35c5.85,62.36,33.81,111,74.38,152.36q1.67,1.69,3.36,3.39t3.39,3.32c36.28,35.15,81.61,65.13,129.84,94.15l4.17,2.51,4.18,2.5c36,21.49,73.48,42.57,109.79,65a130.36,130.36,0,0,1,11.9,8.29q1.88,1.47,3.69,3c1.21,1,2.39,2.06,3.56,3.12s2.3,2.14,3.42,3.24c1.46,1.43,2.88,2.89,4.26,4.4q1.64,1.74,3.18,3.56c1,1.21,2.06,2.45,3,3.7a113.48,113.48,0,0,1,7.2,10c.85,1.3,1.68,2.61,2.48,4,1.21,2,2.37,4,3.48,6.12q1.09,2.07,2.15,4.18c1.73,3.53,3.34,7.16,4.81,10.86q1.32,3.33,2.49,6.75C2197.76,1216.82,2201,1237.87,2201,1260.12Z" style="fill:none"/><path d="M977,524.54v781.88H117.76c-.29-2.67-.57-5.33-.86-8-.26-2.43-.52-4.88-.77-7.33l-.18-1.71q-.3-2.84-.58-5.7c-.12-1.15-.24-2.3-.35-3.45-.21-2.07-.41-4.15-.62-6.23s-.41-4.16-.61-6.26c-.23-2.45-.47-4.92-.7-7.39q-.63-6.76-1.24-13.64c-.27-3-.54-5.94-.79-8.93q-2.58-29.82-5.15-56.92c-.19-1.88-.36-3.75-.54-5.62l-.57-5.9c-.25-2.6-.5-5.17-.75-7.73-.13-1.3-.26-2.59-.38-3.88q-1.11-11.24-2.21-22l-.12-1.1c-.26-2.57-.52-5.11-.78-7.64s-.52-5-.79-7.52V1119q-.85-8-1.69-15.71c-.19-1.72-.37-3.43-.56-5.13q-.73-6.69-1.47-13.19c-.24-2.16-.48-4.32-.73-6.45s-.49-4.25-.73-6.36c-.33-2.8-.67-5.58-1-8.33-.19-1.57-.37-3.14-.56-4.69h0q-.36-3.09-.72-6.12t-.75-6.11c-.35-2.84-.7-5.64-1-8.42-.18-1.39-.35-2.77-.52-4.14-.09-.66-.17-1.31-.25-2-.35-2.75-.7-5.47-1.05-8.18s-.7-5.36-1-8Q85.35,998.36,83,982.24c-.18-1.2-.35-2.39-.52-3.57q-1.12-7.75-2.25-15.13l-.51-3.34c-1.19-7.78-2.38-15.25-3.56-22.46q-.5-3-1-6c-.16-1-.33-2-.5-3s-.33-2-.5-3q-.5-2.94-1-5.82c-.46-2.67-.92-5.29-1.38-7.88q-.55-3.12-1.11-6.17-.5-2.72-1-5.37c-.29-1.55-.57-3.09-.86-4.61-.35-1.84-.69-3.66-1-5.46a2,2,0,0,0-.08-.4c-.16-.83-.32-1.65-.47-2.47-.32-1.64-.63-3.26-1-4.86-.16-.81-.32-1.6-.47-2.4s-.37-1.84-.55-2.75c-.3-1.55-.61-3.07-.92-4.59a1.74,1.74,0,0,1,0-.22q-.9-4.43-1.79-8.68c-.2-.95-.4-1.89-.59-2.83v-.12c-.31-1.48-.62-3-.94-4.41v-.08c-.31-1.47-.62-2.93-.94-4.37-.17-.74-.33-1.48-.49-2.21h0c-.21-1-.41-1.89-.62-2.82s-.41-1.86-.62-2.78l-.66-2.94c-.2-.89-.4-1.76-.6-2.63-.28-1.21-.55-2.4-.82-3.59-.48-2-1-4.08-1.41-6.07q-1.65-7-3.26-13.6c-.62-2.52-1.23-5-1.84-7.46-.16-.62-.31-1.23-.46-1.83s-.3-1.22-.46-1.83l-.45-1.81-.66-2.61c-3.24-12.84-6.4-24.89-9.46-36.82-.38-1.48-.76-3-1.13-4.44-.23-.88-.45-1.76-.67-2.63s-.45-1.76-.67-2.64l-1.32-5.27c-1.67-6.69-3.3-13.42-4.9-20.33-.41-1.77-.81-3.55-1.22-5.35-4.07-18-7.9-37.27-11.47-59.84-.23-1.46-.46-2.92-.69-4.4-.31-2-.62-4-.91-6h0q-.43-3-.86-6c-.28-2-.57-4-.84-6-.3-2.22-.61-4.47-.91-6.76l-.15-1.15-.45-3.54c-.2-1.52-.39-3-.58-4.59s-.38-3.1-.57-4.67v-.17q-.31-2.72-.65-5.51t-.64-5.63c-.15-1.26-.29-2.54-.43-3.83l-.42-3.88q-.46-4.27-.91-8.7l-.33-3.31c-.14-1.36-.27-2.74-.41-4.12-.27-2.77-.53-5.58-.8-8.44s-.54-5.83-.81-8.9q-.37-4.32-.75-8.77-.42-4.83-.81-9.82l-.33-4.15c-.19-2.36-.38-4.75-.55-7.17-.06-.72-.11-1.44-.16-2.16q-.48-6.5-1-13.25c-.1-1.41-.19-2.83-.29-4.26q-.21-3.12-.42-6.3c-.08-1.17-.16-2.34-.23-3.52s-.17-2.57-.25-3.87q-.58-9.27-.59-18.11c0-1.74,0-3.47.05-5.19V479.5c0-.77,0-1.53.06-2.3,0-.94.07-1.88.11-2.81,0-.78.07-1.54.11-2.31.06-1.16.13-2.31.2-3.46.06-.73.11-1.46.16-2.18.09-1.16.19-2.32.29-3.46.15-1.64.31-3.26.49-4.87.23-2,.49-4.05.76-6l.3-2.05c.13-.87.26-1.73.4-2.6.28-1.72.58-3.44.89-5.13.16-.85.32-1.69.49-2.53q1.17-6,2.67-11.68c.17-.68.35-1.35.53-2V426c.19-.7.39-1.41.59-2.11.15-.54.3-1.08.46-1.62.43-1.46.87-2.9,1.33-4.33.24-.78.5-1.56.75-2.33.49-1.47,1-2.93,1.51-4.37h0c.39-1.07.78-2.13,1.19-3.18.28-.77.58-1.53.88-2.29s.48-1.22.73-1.82l.77-1.86c.38-.91.76-1.8,1.15-2.69l.06-.13c.51-1.18,1-2.34,1.58-3.5l.08-.18c.47-1,.94-2,1.42-3,.2-.42.41-.85.62-1.27.42-.83.83-1.66,1.25-2.48.64-1.23,1.28-2.44,1.94-3.65s1.2-2.18,1.82-3.25c.44-.78.89-1.56,1.35-2.33.69-1.16,1.38-2.31,2.09-3.44.35-.57.7-1.13,1.06-1.69q1-1.61,2.07-3.18c.55-.83,1.12-1.66,1.69-2.49s1-1.44,1.51-2.15c.83-1.18,1.68-2.34,2.53-3.48.52-.7,1-1.39,1.57-2.07.64-.84,1.29-1.67,2-2.5s1.49-1.86,2.25-2.78c.58-.71,1.17-1.41,1.77-2.11s1.31-1.54,2-2.3q3.9-4.45,8.07-8.66,3-3.07,6.2-6c1.11-1,2.24-2.06,3.37-3.08.9-.8,1.81-1.59,2.72-2.38l1.42-1.22c.93-.79,1.87-1.57,2.82-2.35,2.19-1.8,4.43-3.57,6.7-5.29l1-.77c1-.77,2-1.53,3.07-2.28l.13-.09c1.17-.86,2.36-1.7,3.55-2.53l.64-.45,2.88-2c1.14-.77,2.29-1.53,3.44-2.28h0l.4-.25c1-.66,2-1.3,3-1.94l.41-.26c1.25-.78,2.51-1.55,3.76-2.31,1-.61,2-1.22,3-1.81.49-.3,1-.58,1.48-.87,1.07-.61,2.15-1.23,3.23-1.83H109l2.18-1.22c1.14-.63,2.28-1.25,3.43-1.86l.32-.17c1.33-.7,2.67-1.39,4-2.07,1.11-.57,2.23-1.13,3.36-1.69l3.56-1.75.42-.2c1-.51,2.12-1,3.18-1.51l1.21-.56,2.38-1.1,1.73-.84,3-1.34,4-1.7c1.32-.56,2.66-1.11,4-1.66l4.09-1.64q2.28-.9,4.57-1.76c1.27-.49,2.55-1,3.83-1.43s2.52-.92,3.79-1.37h0c1.1-.4,2.2-.78,3.3-1.16l2.95-1q2.34-.79,4.7-1.56l4.73-1.51c1-.31,1.94-.61,2.92-.9.78-.25,1.57-.49,2.36-.72,1.41-.43,2.84-.85,4.26-1.26,13.2-3.82,26.68-7.11,40.31-9.93a469.33,469.33,0,0,1,118.72-9.06q17.34.87,34.54,3c1.94.24,3.89.49,5.83.77s3.85.53,5.78.82a480.78,480.78,0,0,1,165.32,56.9c1.42.8,2.84,1.6,4.25,2.43s2.82,1.63,4.23,2.47c2.29,1.35,4.58,2.72,6.85,4.12q9,5.52,17.84,11.48,12.5,8.43,24.51,17.68c17.18,13.22,43.64,30.35,75.76,49.56q4.92,2.94,10,5.93c1.39.83,2.8,1.65,4.21,2.48l4.21,2.46,4.71,2.74,4.78,2.77,4.83,2.78q9.72,5.6,19.87,11.31,2.52,1.44,5.07,2.86h0l4.28,2.4,4.29,2.39,5.21,2.9c22.72,12.62,46.59,25.52,70.84,38.34h0q10.08,5.32,20.25,10.62l4,2.11h0l.35.18,4.34,2.26h0q7,3.62,13.9,6.74l2.79,1.24,1.42.62c1.2.52,2.41,1,3.61,1.52.9.38,1.79.74,2.69,1.1l2.1.83c1.37.54,2.73,1.06,4.09,1.56l4.48,1.63,1.9.65c2.17.75,4.35,1.46,6.52,2.14,1.7.53,3.41,1,5.11,1.53l.88.25c1.39.4,2.77.78,4.16,1.15h.16c1.07.28,2.14.56,3.21.82s2.39.6,3.58.87,2.17.51,3.26.74,2.23.49,3.35.71,2,.41,3,.6c1.37.26,2.75.51,4.13.75l2.85.47L943,522a231.88,231.88,0,0,0,33.6,2.45Z" style="fill:#ebf5fc"/><line x1="109.01" y1="302.76" x2="16.93" y2="399.41" style="fill:none"/><path d="M122.26,295.75l-110,115.5c.39-1.07.78-2.13,1.19-3.18.28-.77.58-1.53.88-2.29s.48-1.22.73-1.82l.77-1.86c.38-.91.76-1.8,1.15-2.69l.06-.13c.51-1.18,1-2.34,1.58-3.5l.08-.18c.47-1,.94-2,1.42-3,.2-.42.41-.85.62-1.27.42-.83.83-1.66,1.25-2.48.64-1.23,1.28-2.44,1.94-3.65l69.68-73.14h0l.4-.25c1-.66,2-1.3,3-1.94l.41-.26c1.25-.78,2.51-1.55,3.76-2.31,1-.61,2-1.22,3-1.81.49-.3,1-.58,1.48-.87,1.07-.61,2.15-1.23,3.23-1.83H109l2.18-1.22c1.14-.63,2.28-1.25,3.43-1.86l.32-.17c1.33-.7,2.67-1.39,4-2.07C120,296.87,121.13,296.31,122.26,295.75Z" style="fill:#fff"/><polyline points="386.66 255.56 340.65 303.85 187.29 464.82 14.26 646.43" style="fill:none"/><path d="M392.44,256.38l-52.82,55.44L187.29,471.7,15.12,652.41q-.43-3-.86-6c-.28-2-.57-4-.84-6L187.29,457.93l154.34-162,39.2-41.11c1.94.24,3.89.49,5.83.77S390.51,256.09,392.44,256.38Z" style="fill:#fff"/><polyline points="58.18 844.54 187.29 709.03 261.61 631.01 561.99 315.74" style="fill:none"/><path d="M566.22,318.21,256.86,642.91l-69.57,73L59.42,850.14c-.21-1-.41-1.89-.62-2.82s-.41-1.86-.62-2.78l-.66-2.94c-.2-.89-.4-1.76-.6-2.63L187.29,702.13l78.77-82.68,291.7-306.14c1.42.8,2.84,1.6,4.25,2.43S564.81,317.37,566.22,318.21Z" style="fill:#fff"/><polyline points="92.23 1053.03 187.29 953.25 230.8 907.58 341.27 791.63 358.27 773.79 540.76 582.25 540.77 582.24 573.07 548.34 590.91 529.61 705.39 409.46" style="fill:none"/><path d="M705.39,409.46l4.21,2.46L590.91,536.5l-17.84,18.73-76.73,80.53h0L364.83,773.82l-17,17.84L232.38,912.82l-45.09,47.33-94.34,99q-.36-3.09-.72-6.12t-.75-6.11l95.81-100.56,41.92-44L334.76,791.63l17-17.84L573.07,541.44l12.17-12.77,5.67-6L701.18,407C702.57,407.82,704,408.63,705.39,409.46Z" style="fill:#fff"/><polyline points="114.35 1274.03 187.29 1197.47 281.47 1098.62 573.07 792.56 573.95 791.63 590.91 773.83 590.95 773.79 593.23 771.4 593.25 771.38 854.37 497.3 854.4 497.27 858.15 493.33" style="fill:none"/><path d="M862.54,495.62,811.76,549h0L597.51,773.82l-6.6,6.93-10.4,10.91-7.44,7.81-22.48,23.6h0l-267.9,281.16-95.4,100.12L115,1280.26c-.21-2.07-.41-4.15-.62-6.23s-.41-4.16-.61-6.26l73.55-77.2,93-97.55L567.43,791.63l5.69-6,11.26-11.81,6.53-6.85L636,719.66,853.76,491l4,2.11h0l.35.18,4.34,2.26Z" style="fill:#fff"/><polyline points="289.44 1334.47 316.16 1306.42 323.75 1298.45 573.07 1036.77 590.91 1018.04 806.62 791.63 823.62 773.79 925.27 667.09 943.08 648.4 976.68 613.14 976.99 612.81" style="fill:none"/><polygon points="976.99 605.92 976.99 619.7 976.68 620.02 943.08 655.29 927.17 671.99 830.18 773.79 813.19 791.63 590.91 1024.93 573.07 1043.66 330.32 1298.45 322.73 1306.42 296.01 1334.47 282.87 1334.47 309.59 1306.42 317.18 1298.45 573.07 1029.87 590.91 1011.15 800.06 791.63 817.05 773.79 923.4 662.17 943.08 641.51 976.68 606.25 976.99 605.92" style="fill:#fff"/><polyline points="522.12 1334.47 548.84 1306.42 556.43 1298.45 573.07 1280.99 590.91 1262.26 942.81 892.91 943.08 892.63 976.68 857.36 976.99 857.03" style="fill:none"/><polygon points="976.99 850.14 976.99 863.93 976.68 864.25 943.08 899.51 940.28 902.45 590.91 1269.15 573.07 1287.88 563 1298.45 555.4 1306.42 528.68 1334.47 515.55 1334.47 542.27 1306.42 549.86 1298.45 573.07 1274.09 590.91 1255.37 943.08 885.73 945.38 883.32 976.68 850.46 976.99 850.14" style="fill:#fff"/><polyline points="754.8 1334.47 781.52 1306.42 789.11 1298.45 878.58 1204.54 943.08 1136.84 976.68 1101.58 976.99 1101.25" style="fill:none"/><polygon points="976.99 1094.36 976.99 1108.14 976.68 1108.46 943.08 1143.73 877.76 1212.29 795.67 1298.45 788.08 1306.42 761.36 1334.47 748.23 1334.47 774.95 1306.42 782.54 1298.45 879.48 1196.71 943.08 1129.95 976.68 1094.68 976.99 1094.36" style="fill:#fff"/><path d="M977,524.54v781.88H117.76c-.29-2.67-.57-5.33-.86-8-.26-2.43-.52-4.88-.77-7.33l-.18-1.71q-.3-2.84-.58-5.7c-.12-1.15-.24-2.3-.35-3.45-.21-2.07-.41-4.15-.62-6.23s-.41-4.16-.61-6.26c-.23-2.45-.47-4.92-.7-7.39q-.63-6.76-1.24-13.64c-.27-3-.54-5.94-.79-8.93q-2.58-29.82-5.15-56.92c-.19-1.88-.36-3.75-.54-5.62l-.57-5.9c-.25-2.6-.5-5.17-.75-7.73-.13-1.3-.26-2.59-.38-3.88q-1.11-11.24-2.21-22l-.12-1.1c-.26-2.57-.52-5.11-.78-7.64s-.52-5-.79-7.52V1119q-.85-8-1.69-15.71c-.19-1.72-.37-3.43-.56-5.13q-.73-6.69-1.47-13.19c-.24-2.16-.48-4.32-.73-6.45s-.49-4.25-.73-6.36c-.33-2.8-.67-5.58-1-8.33-.19-1.57-.37-3.14-.56-4.69h0q-.36-3.09-.72-6.12t-.75-6.11c-.35-2.84-.7-5.64-1-8.42-.18-1.39-.35-2.77-.52-4.14-.09-.66-.17-1.31-.25-2-.35-2.75-.7-5.47-1.05-8.18s-.7-5.36-1-8Q85.35,998.36,83,982.24c-.18-1.2-.35-2.39-.52-3.57q-1.12-7.75-2.25-15.13l-.51-3.34c-1.19-7.78-2.38-15.25-3.56-22.46q-.5-3-1-6c-.16-1-.33-2-.5-3s-.33-2-.5-3q-.5-2.94-1-5.82c-.46-2.67-.92-5.29-1.38-7.88q-.55-3.12-1.11-6.17-.5-2.72-1-5.37c-.29-1.55-.57-3.09-.86-4.61-.35-1.84-.69-3.66-1-5.46a2,2,0,0,0-.08-.4c-.16-.83-.32-1.65-.47-2.47-.32-1.64-.63-3.26-1-4.86-.16-.81-.32-1.6-.47-2.4s-.37-1.84-.55-2.75c-.3-1.55-.61-3.07-.92-4.59a1.74,1.74,0,0,1,0-.22q-.9-4.43-1.79-8.68c-.2-.95-.4-1.89-.59-2.83v-.12c-.31-1.48-.62-3-.94-4.41v-.08c-.31-1.47-.62-2.93-.94-4.37-.17-.74-.33-1.48-.49-2.21h0c-.21-1-.41-1.89-.62-2.82s-.41-1.86-.62-2.78l-.66-2.94c-.2-.89-.4-1.76-.6-2.63-.28-1.21-.55-2.4-.82-3.59-.48-2-1-4.08-1.41-6.07q-1.65-7-3.26-13.6c-.62-2.52-1.23-5-1.84-7.46-.16-.62-.31-1.23-.46-1.83s-.3-1.22-.46-1.83l-.45-1.81-.66-2.61c-3.24-12.84-6.4-24.89-9.46-36.82-.38-1.48-.76-3-1.13-4.44-.23-.88-.45-1.76-.67-2.63s-.45-1.76-.67-2.64l-1.32-5.27c-1.67-6.69-3.3-13.42-4.9-20.33-.41-1.77-.81-3.55-1.22-5.35-4.07-18-7.9-37.27-11.47-59.84-.23-1.46-.46-2.92-.69-4.4-.31-2-.62-4-.91-6h0q-.43-3-.86-6c-.28-2-.57-4-.84-6q-.46-3.33-.91-6.76l-.15-1.15-.45-3.54c-.2-1.52-.39-3-.58-4.59s-.38-3.1-.57-4.67v-.17q-.31-2.72-.65-5.51t-.64-5.63c-.15-1.26-.29-2.54-.43-3.83l-.42-3.88q-.46-4.27-.91-8.7l-.33-3.31c-.14-1.36-.27-2.74-.41-4.12-.27-2.77-.53-5.58-.8-8.44s-.54-5.83-.81-8.9q-.39-4.32-.75-8.77-.42-4.83-.81-9.82l-.33-4.15c-.19-2.36-.38-4.75-.55-7.17-.06-.72-.11-1.44-.16-2.16q-.48-6.5-1-13.25c-.1-1.41-.19-2.83-.29-4.26q-.21-3.12-.42-6.3c-.08-1.17-.16-2.34-.23-3.52s-.17-2.57-.25-3.87q-.58-9.27-.59-18.11c0-1.74,0-3.47.05-5.19V479.5c0-.77,0-1.53.06-2.3,0-.94.07-1.88.11-2.81,0-.78.07-1.54.11-2.31.06-1.16.13-2.31.2-3.46.06-.73.11-1.46.16-2.18.09-1.16.19-2.32.29-3.46.15-1.64.31-3.26.49-4.87.23-2,.49-4.05.76-6l.3-2.05c.13-.87.26-1.73.4-2.6.28-1.72.58-3.44.89-5.13.16-.85.32-1.69.49-2.53q1.17-6,2.67-11.68c.17-.68.35-1.35.53-2V426c.19-.7.39-1.41.59-2.11.15-.54.3-1.08.46-1.62.43-1.46.87-2.9,1.33-4.33.24-.78.5-1.56.75-2.33.49-1.47,1-2.93,1.51-4.37h0c.39-1.07.78-2.13,1.19-3.18.28-.77.58-1.53.88-2.29s.48-1.22.73-1.82l.77-1.86c.38-.91.76-1.8,1.15-2.69l.06-.13c.51-1.18,1-2.34,1.58-3.5l.08-.18c.47-1,.94-2,1.42-3,.2-.42.41-.85.62-1.27.42-.83.83-1.66,1.25-2.48.64-1.23,1.28-2.44,1.94-3.65s1.2-2.18,1.82-3.25c.44-.78.89-1.56,1.35-2.33.69-1.16,1.38-2.31,2.09-3.44.35-.57.7-1.13,1.06-1.69q1-1.61,2.07-3.18c.55-.83,1.12-1.66,1.69-2.49s1-1.44,1.51-2.15c.83-1.18,1.68-2.34,2.53-3.48.52-.7,1-1.39,1.57-2.07.64-.84,1.29-1.67,2-2.5s1.49-1.86,2.25-2.78c.58-.71,1.17-1.41,1.77-2.11s1.31-1.54,2-2.3q3.9-4.45,8.07-8.66,3-3.07,6.2-6c1.11-1,2.24-2.06,3.37-3.08.9-.8,1.81-1.59,2.72-2.38l1.42-1.22c.93-.79,1.87-1.57,2.82-2.35,2.19-1.8,4.43-3.57,6.7-5.29l1-.77c1-.77,2-1.53,3.07-2.28l.13-.09c1.17-.86,2.36-1.7,3.55-2.53l.64-.45,2.88-2c1.14-.77,2.29-1.53,3.44-2.28h0l.4-.25c1-.66,2-1.3,3-1.94l.41-.26c1.25-.78,2.51-1.55,3.76-2.31,1-.61,2-1.22,3-1.81.49-.3,1-.58,1.48-.87,1.07-.61,2.15-1.23,3.23-1.83H109l2.18-1.22c1.14-.63,2.28-1.25,3.43-1.86l.32-.17c1.33-.7,2.67-1.39,4-2.07,1.11-.57,2.23-1.13,3.36-1.69l3.56-1.75.42-.2c1-.51,2.12-1,3.18-1.51l1.21-.56,2.38-1.1,1.73-.84,3-1.34,4-1.7c1.32-.56,2.66-1.11,4-1.66l4.09-1.64q2.28-.9,4.57-1.76c1.27-.49,2.55-1,3.83-1.43s2.52-.92,3.79-1.37h0c1.1-.4,2.2-.78,3.3-1.16l2.95-1q2.34-.79,4.7-1.56l4.73-1.51c1-.31,1.94-.61,2.92-.9.78-.25,1.57-.49,2.36-.72,1.41-.43,2.84-.85,4.26-1.26,13.2-3.82,26.68-7.11,40.31-9.93a469.33,469.33,0,0,1,118.72-9.06q17.34.87,34.54,3c1.94.24,3.89.49,5.83.77s3.85.53,5.78.82a480.78,480.78,0,0,1,165.32,56.9c1.42.8,2.84,1.6,4.25,2.43s2.82,1.63,4.23,2.47c2.29,1.35,4.58,2.72,6.85,4.12q9,5.52,17.84,11.48,12.5,8.43,24.51,17.68c17.18,13.22,43.64,30.35,75.76,49.56q4.92,2.94,10,5.93c1.39.83,2.8,1.65,4.21,2.48l4.21,2.46,4.71,2.74,4.78,2.77,4.83,2.78q9.72,5.6,19.87,11.31,2.52,1.44,5.07,2.86h0l4.28,2.4,4.29,2.39,5.21,2.9c22.72,12.62,46.59,25.52,70.84,38.34h0q10.08,5.32,20.25,10.62l4,2.11h0l.35.18,4.34,2.26h0q7,3.62,13.9,6.74l2.79,1.24,1.42.62c1.2.52,2.41,1,3.61,1.52.9.38,1.79.74,2.69,1.1l2.1.83c1.37.54,2.73,1.06,4.09,1.56l4.48,1.63,1.9.65c2.17.75,4.35,1.46,6.52,2.14,1.7.53,3.41,1,5.11,1.53l.88.25c1.39.4,2.77.78,4.16,1.15h.16c1.07.28,2.14.56,3.21.82s2.39.6,3.58.87,2.17.51,3.26.74,2.23.49,3.35.71,2,.41,3,.6c1.37.26,2.75.51,4.13.75l2.85.47L943,522a231.88,231.88,0,0,0,33.6,2.45Z" style="fill:none"/><path d="M976.68,524.54V773.82h0v532.6H187.29V773.82h0v-503c13.2-3.82,26.68-7.11,40.31-9.93a469.56,469.56,0,0,1,118.69-9.07q17.34.87,34.54,3c1.94.24,3.89.49,5.83.77s3.85.53,5.78.82a480.78,480.78,0,0,1,165.32,56.9c1.42.8,2.84,1.6,4.25,2.43s2.82,1.63,4.23,2.47c2.29,1.35,4.58,2.72,6.85,4.12q9,5.52,17.84,11.48,12.5,8.43,24.51,17.68c17.18,13.22,43.64,30.35,75.76,49.56q4.92,2.94,10,5.93c1.39.83,2.8,1.65,4.21,2.48l4.21,2.46,4.71,2.74,4.78,2.77,4.83,2.78q9.72,5.6,19.87,11.31,2.52,1.44,5.07,2.86h0l4.28,2.4,4.29,2.39,5.21,2.9c22.72,12.62,46.59,25.52,70.84,38.34h0q10.08,5.32,20.25,10.62l4,2.11h0l.35.18,4.34,2.26h0q7,3.62,13.9,6.74l2.79,1.24,1.42.62c1.2.52,2.41,1,3.61,1.52.9.38,1.79.74,2.69,1.1l2.1.83c1.37.54,2.73,1.06,4.09,1.56l4.48,1.63,1.9.65c2.17.75,4.35,1.46,6.52,2.14,1.7.53,3.41,1,5.11,1.53l.88.25c1.39.4,2.77.78,4.16,1.15h.16c1.07.28,2.14.56,3.21.82s2.39.6,3.58.87,2.17.51,3.26.74,2.23.49,3.35.71,2,.41,3,.6c1.37.26,2.75.51,4.13.75l2.85.47L943,522A233.4,233.4,0,0,0,976.68,524.54Z" style="fill:#fff"/><path d="M709.6,411.92c16.64,9.72,34.46,19.84,53.06,30.16L590.91,649l-17.84,21.49L487.36,773.82h0l-14.8,17.84L267.37,1038.82l-80.08,96.49V1008l54-65.06L366.93,791.61l14.83-17.79h0l114.55-138h0l44.45-53.57h0l32.3-38.91,12.17-14.66,5.67-6.83,100.28-120.8q4.92,2.94,10,5.93c1.39.83,2.8,1.65,4.21,2.48Z" style="fill:#ebf5fc"/><path d="M857.76,493.15h0l-3.4,4.12h0L811.76,549h0L626.07,773.82l-14.73,17.84L590.91,816.4,573.07,838,295.89,1173.66l-108.6,131.52V1263l102.47-124.08h0L550.59,823.06h0l22.48-27.24,3.46-4.18,14.38-17.42.35-.42,2-2.39h0L636,719.66,833.5,480.42h0q10.08,5.32,20.25,10.62Z" style="fill:#ebf5fc"/><path d="M573.07,322.33q9,5.52,17.84,11.48v972.61H573.07Z" style="fill:#ebf5fc"/><rect x="187.29" y="773.79" width="789.39" height="17.85" style="fill:#ebf5fc"/><path d="M187.29,773.82s2.28,6.39,6.21,17.85c9.39,27.44,28.23,83.94,47.8,151.34,8.8,30.3,17.76,62.81,26.07,95.87,8.39,33.36,16.12,67.28,22.38,100.07,2.25,11.76,4.31,23.37,6.14,34.75,8.15,50.53,11.85,96.65,7.83,131.52H187.29Z" style="fill:#c9ddf2"/><path d="M346.29,251.82c-.81,9.35-2.27,24.53-4.66,44.15-.31,2.56-.63,5.2-1,7.92s-.67,5.25-1,8c-9.71,73.67-30.74,194-73.56,307.63q-2.18,5.79-4.45,11.56-2.33,6-4.75,11.9c-19.05,46.7-42,91.6-69.57,130.87v-503c13.2-3.82,26.68-7.11,40.31-9.93A469.52,469.52,0,0,1,346.29,251.82Z" style="fill:#c9ddf2"/><path d="M976.68,524.54V773.82c-9.39-15.41-18.16-31.7-26.34-48.63-.75-1.52-1.48-3-2.2-4.58s-1.45-3.07-2.17-4.61c-1-2.08-1.94-4.17-2.89-6.27q-8.39-18.47-15.91-37.7c-.67-1.63-1.3-3.27-1.9-4.9s-1.26-3.28-1.87-4.92a1113.73,1113.73,0,0,1-36.12-115c-.47-1.81-.94-3.63-1.4-5.44l-1.38-5.45q-4.28-17.07-8.06-33.89l2.79,1.24,1.42.62c1.2.52,2.41,1,3.61,1.52.9.38,1.79.74,2.69,1.1l2.1.83c1.37.54,2.73,1.06,4.09,1.56l4.48,1.63,1.9.65c2.17.75,4.35,1.46,6.52,2.14,1.7.53,3.41,1,5.11,1.53l.88.25c1.39.4,2.77.78,4.16,1.15h.16c1.07.28,2.14.56,3.21.82s2.39.6,3.58.87,2.17.51,3.26.74,2.23.49,3.35.71,2,.41,3,.6c1.37.26,2.75.51,4.13.75l2.85.47,3.33.51A232,232,0,0,0,976.68,524.54Z" style="fill:#c9ddf2"/><path d="M971.3,791.64c3.4-11.46,5.38-17.85,5.38-17.85v531.4h-101c-9.92-99.2,34.33-289.4,67.4-413.28C954.91,847.61,965.31,811.82,971.3,791.64Z" style="fill:#c9ddf2"/><path d="M1116.56,1298.45c-5.06.19-10.23.6-15.55,1.22-2.48.29-5,.63-7.55,1s-5.17.82-7.81,1.32q-9.51,1.76-19.62,4.41-6.27,1.65-12.8,3.65l-2.19.68c-1,.31-2,.64-3,1l-2.28.75-2.34.78q-14.07,4.76-29.35,11.15c-1.61.67-3.23,1.36-4.88,2.08q-3.71,1.59-7.48,3.29l-2.53,1.14-2.55,1.17q-2.57,1.17-5.15,2.39H121q-1.68-13.76-3.26-28c-.29-2.67-.57-5.33-.86-8Z" style="fill:#c9ddf2"/><path d="M2198,1298.45c-.17,1.17-.35,2.34-.55,3.51l-.12.75c-.2,1.24-.42,2.47-.64,3.71q-2.49,13.9-6.4,28H1230.51l-.29-.2-3-2-3.33-2.19h0c-1.06-.69-2.12-1.37-3.19-2s-2.33-1.45-3.5-2.15-2.24-1.35-3.36-2c-.91-.54-1.83-1.07-2.75-1.59s-1.77-1-2.66-1.48l-1.65-.9c-.78-.42-1.56-.84-2.34-1.24-.57-.31-1.15-.6-1.72-.89q-3.13-1.61-6.3-3.09c-.9-.43-1.81-.85-2.72-1.26l-.32-.14c-.9-.41-1.81-.81-2.72-1.19l-1.39-.59c-.74-.32-1.48-.62-2.23-.92l-1.41-.56c-.79-.32-1.57-.62-2.36-.92-1.47-.55-3-1.09-4.43-1.6-1-.36-2.06-.71-3.1-1a163.53,163.53,0,0,0-44.45-8Z" style="fill:#c9ddf2"/><path d="M835.87,1966.82c-12.41-.07-6.74,32.5,38.53,31.34s183.15-19.68,284.86-28.06c32-2.63-15.62-7.76-45.81-7.76S1015.45,1967.82,835.87,1966.82Z" style="fill:#c9ddf2"/><path d="M691.27,1922.42s-259.57,8.43-286.67,0c-19.45-6-34.94-24.55,56.24-28.86,57.86-2.74,209.09,8.07,223.83,15.61s6.6,13.25,6.6,13.25" style="fill:#c9ddf2"/><polygon points="1758.31 2018.41 450.56 2018.41 161.38 1877.32 1469.12 1877.32 1758.31 2018.41" style="fill:#ebf5fc"/><path d="M1493.82,1961.66c3.22,0,3.22-5,0-5S1490.6,1961.66,1493.82,1961.66Z" style="fill:#ebf5fc"/><path d="M1466.76,1894.58l63.18-3.14c3.21-.16,3.22-5.16,0-5l-63.18,3.14C1463.55,1889.74,1463.53,1894.74,1466.76,1894.58Z" style="fill:#ebf5fc"/><path d="M1499.86,1908.82a267.62,267.62,0,0,0,56.86-4.26c3.16-.58,1.82-5.4-1.33-4.82a261,261,0,0,1-55.53,4.08C1496.64,1903.71,1496.65,1908.71,1499.86,1908.82Z" style="fill:#ebf5fc"/><path d="M1518.9,1923.47q35.6-1.85,70.88-7c3.17-.47,1.83-5.28-1.33-4.82q-34.6,5.09-69.55,6.87C1515.69,1918.63,1515.67,1923.63,1518.9,1923.47Z" style="fill:#ebf5fc"/><path d="M1533.94,1935.52a341.34,341.34,0,0,0,73.89-8.13c3.14-.7,1.81-5.52-1.33-4.82a334.74,334.74,0,0,1-72.56,8c-3.21,0-3.22,5,0,5Z" style="fill:#ebf5fc"/><path d="M1552,1945.88l59.12-7.51c3.15-.4,3.19-5.41,0-5l-59.12,7.51C1548.89,1941.28,1548.85,1946.29,1552,1945.88Z" style="fill:#ebf5fc"/><path d="M1577.76,1956.59q32.6-4.71,65.51-6.27c3.21-.16,3.23-5.16,0-5q-33.55,1.62-66.84,6.45C1573.26,1952.22,1574.61,1957,1577.76,1956.59Z" style="fill:#ebf5fc"/><path d="M1593.11,1966.47l80.25-7c3.18-.27,3.21-5.28,0-5l-80.25,7C1589.93,1961.75,1589.9,1966.75,1593.11,1966.47Z" style="fill:#ebf5fc"/><path d="M1623.21,1979.61l68.2-8.07c3.16-.38,3.2-5.38,0-5l-68.2,8.07C1620.05,1975,1620,1980,1623.21,1979.61Z" style="fill:#ebf5fc"/><path d="M1651.27,1988.44q34.53-4.32,69.26-6.52c3.19-.2,3.22-5.2,0-5q-34.72,2.2-69.26,6.52C1648.12,1983.84,1648.08,1988.84,1651.27,1988.44Z" style="fill:#ebf5fc"/><path d="M1673,2001.72l64.18-9.15c3.17-.45,1.82-5.27-1.33-4.82l-64.18,9.15C1668.54,1997.36,1669.89,2002.17,1673,2001.72Z" style="fill:#ebf5fc"/><path d="M1695.11,2008.72a207.21,207.21,0,0,1,51.48-5c3.22.08,3.22-4.92,0-5a212.2,212.2,0,0,0-52.81,5.2c-3.14.71-1.81,5.53,1.33,4.82Z" style="fill:#ebf5fc"/><path d="M1721.16,2017.62a228.16,228.16,0,0,1,43.49-3.84c3.21,0,3.22-5,0-5a235.64,235.64,0,0,0-44.82,4c-3.15.58-1.82,5.4,1.33,4.82Z" style="fill:#ebf5fc"/><path d="M1588.76,1949.52a428,428,0,0,1,50.48-6c3.2-.19,3.22-5.19,0-5a439.87,439.87,0,0,0-51.81,6.21c-3.16.57-1.82,5.39,1.33,4.82Z" style="fill:#ebf5fc"/><path d="M1491.81,1905.37q32.16-3.52,63.89-9.92c3.15-.64,1.82-5.46-1.33-4.83q-31,6.29-62.56,9.75C1488.64,1900.71,1488.61,1905.72,1491.81,1905.37Z" style="fill:#ebf5fc"/><path d="M1446.67,1884.33q36.24-1.38,72.23-6c3.15-.4,3.19-5.41,0-5q-36,4.59-72.23,6C1443.47,1879.45,1443.45,1884.45,1446.67,1884.33Z" style="fill:#ebf5fc"/><path d="M292.34,1932.25q-25.38.51-50.72-1c-3.21-.19-3.2,4.81,0,5q25.33,1.49,50.72,1c3.21-.06,3.22-5.06,0-5Z" style="fill:#ebf5fc"/><path d="M306.22,1938.82a489.53,489.53,0,0,0-55.16,4.45c-3.18.44-1.83,5.26,1.33,4.83a475.39,475.39,0,0,1,53.83-4.28c3.22-.07,3.23-5.07,0-5Z" style="fill:#ebf5fc"/><path d="M315.83,1946.16l-43.77,1.66c-3.21.13-3.23,5.13,0,5l43.77-1.69c3.21-.12,3.22-5.12,0-5Z" style="fill:#ebf5fc"/><path d="M346.26,1958.5a556.63,556.63,0,0,0-56,1.59c-3.19.25-3.22,5.25,0,5a556.63,556.63,0,0,1,56-1.59C349.48,1963.57,349.48,1958.57,346.26,1958.5Z" style="fill:#ebf5fc"/><path d="M366,1967.46H318.5c-3.22,0-3.22,5,0,5H366C369.24,1972.46,369.25,1967.46,366,1967.46Z" style="fill:#ebf5fc"/><path d="M385.24,1976.67l-38.48,3.75c-3.17.31-3.2,5.31,0,5l38.44-3.75c3.18-.31,3.21-5.31,0-5Z" style="fill:#ebf5fc"/><path d="M408.76,1983.31a203.1,203.1,0,0,0-61.57,9.28c-3.06,1-1.75,5.79,1.33,4.83a198.17,198.17,0,0,1,60.24-9.11C412,1988.31,412,1983.31,408.76,1983.31Z" style="fill:#ebf5fc"/><path d="M424,1992.63c-12,.91-24.12.14-36.12,1.06-3.19.25-3.22,5.25,0,5,12-.92,24.11-.15,36.12-1.06C427.22,1997.38,427.24,1992.38,424,1992.63Z" style="fill:#ebf5fc"/><path d="M457.5,2003.32c-24.57-.15-49.34-.38-73.87,1-3.2.18-3.22,5.18,0,5,24.53-1.38,49.3-1.15,73.87-1C460.71,2008.32,460.72,2003.32,457.5,2003.32Z" style="fill:#ebf5fc"/><path d="M466.92,2007.51q-37.43,1.13-74.73,4.49c-3.18.29-3.21,5.29,0,5q37.29-3.36,74.73-4.49C470.13,2012.41,470.14,2007.41,466.92,2007.51Z" style="fill:#ebf5fc"/><path d="M275.76,1919l-78.48,2.71c-3.2.11-3.22,5.11,0,5l78.48-2.71C279,1923.93,279,1918.93,275.76,1919Z" style="fill:#ebf5fc"/><path d="M247,1903.47H192.51c-3.22,0-3.23,5,0,5H247C250.18,1908.47,250.18,1903.47,247,1903.47Z" style="fill:#ebf5fc"/><path d="M211.76,1889l-52.32.87c-3.21.06-3.22,5.06,0,5l52.32-.87C215,1894,215,1889,211.76,1889Z" style="fill:#ebf5fc"/><path d="M195.2,1881a398.54,398.54,0,0,0-65.69,3.3c-3.14.42-3.18,5.43,0,5a398.54,398.54,0,0,1,65.69-3.3C198.41,1886.09,198.41,1881.09,195.2,1881Z" style="fill:#ebf5fc"/><path d="M471.63,515.82c-17.69-63-35.23-103-72.09-103-38.51,0-61.48,42.43-72.58,110.87h-.2L308.41,639.21l191.44-3.54Z" style="fill:#5f63ac"/><path d="M499.85,635.67c0,11.21-42.85,35.44-95.72,35.44s-95.72-20.69-95.72-31.9,42.86-8.69,95.72-8.69S499.85,624.46,499.85,635.67Z" style="fill:#f9b17c"/><path d="M337.21,455.25s42.48,7.45,58.81,7.17c16.56-.28,62.6-9.59,62.6-9.59s-15.18-52.67-59.08-53S337.21,455.25,337.21,455.25Z" style="fill:#bdbde2"/><rect x="392.51" width="7" height="422.62" style="fill:#bdbde2"/><path d="M1879.45,522.28c-17.69-63-35.23-103-72.09-103-38.51,0-61.48,42.43-72.58,110.87h-.17l-18.38,115.51,191.44-3.54Z" style="fill:#5f63ac"/><path d="M1907.67,642.11c0,11.21-42.85,35.44-95.72,35.44s-95.72-20.69-95.72-31.9S1759.09,637,1812,637,1907.67,630.9,1907.67,642.11Z" style="fill:#f9b17c"/><path d="M1745,461.69s42.48,7.45,58.8,7.17c16.57-.28,62.61-9.59,62.61-9.59s-15.18-52.67-59.08-53S1745,461.69,1745,461.69Z" style="fill:#bdbde2"/><rect x="1800.33" y="6.44" width="7" height="422.62" style="fill:#bdbde2"/><ellipse cx="401.81" cy="6.44" rx="68.46" ry="6.44" style="fill:#bdbde2"/><ellipse cx="1803.83" cy="6.44" rx="68.46" ry="6.44" style="fill:#bdbde2"/><path d="M1578.94,619.25,1026.76,480.62a31.5,31.5,0,0,1-20-29.32V97.66c0-22.17,12.27-35.49,43-29.32L1601.9,207a31.5,31.5,0,0,1,20,29.32V589.93C1621.89,612.1,1609.18,624.62,1578.94,619.25Z" style="fill:#5f63ac"/><g style="opacity:0.7200000286102295"><g style="opacity:0.6100000143051147"><circle cx="1292.38" cy="342.5" r="170.54" style="fill:#fff"/></g><g style="opacity:0.6100000143051147"><circle cx="1292.38" cy="342.5" r="110.09" style="fill:#fff"/></g><g style="opacity:0.6100000143051147"><circle cx="1292.38" cy="342.5" r="52.82" style="fill:#fff"/></g></g><g style="opacity:0.6100000143051147"><path d="M1292.38,513.54c-94.31,0-171-76.72-171-171s76.73-171,171-171,171,76.73,171,171S1386.69,513.54,1292.38,513.54Zm0-341.08c-93.76,0-170,76.28-170,170s76.28,170,170,170,170-76.28,170-170-76.24-170-170-170Z" style="fill:#fff"/></g><g style="opacity:0.6100000143051147"><path d="M1292.38,453.09A110.59,110.59,0,1,1,1403,342.5h0A110.71,110.71,0,0,1,1292.38,453.09Zm0-220.18A109.59,109.59,0,1,0,1402,342.5h0A109.71,109.71,0,0,0,1292.38,232.91Z" style="fill:#fff"/></g><g style="opacity:0.6100000143051147"><path d="M1292.38,395.82a53.33,53.33,0,1,1,53.32-53.34h0A53.38,53.38,0,0,1,1292.38,395.82Zm0-105.65a52.33,52.33,0,1,0,52.32,52.34v0a52.38,52.38,0,0,0-52.32-52.31Z" style="fill:#fff"/></g><path d="M1315.76,368.43l-58.91-5.61a3.36,3.36,0,0,1-2.13-3.13V322a3.36,3.36,0,0,1,4.58-3.13l58.87,5.58a3.35,3.35,0,0,1,2.14,3.12V365.3a3.37,3.37,0,0,1-3.37,3.35A3.43,3.43,0,0,1,1315.76,368.43Z" style="fill:#fff"/><circle cx="1035.25" cy="99.09" r="7.19" style="fill:#fff"/><circle cx="1057.95" cy="104.04" r="7.19" style="fill:#fff"/><circle cx="1081.75" cy="108.69" r="7.19" style="fill:#fff"/><path d="M925.66,868.23s-6.31,55.14,5.89,98.07-64.82,13.89-64.82,13.89S908,927.1,899.8,891.56,925.66,868.23,925.66,868.23Z" style="fill:#e57e80"/><path d="M859.53,869.62c13.7-1.77,59.59,6.5,64.78,4.3v32.44L900.53,904h0A14,14,0,0,0,894,891Z" style="fill:#d37477"/><path d="M859.6,770.18c13,.28,25.52,5,36.1,12.59,12.4,8.91,30.28,24.55,43.18,40.38,7.86,9.64,11.47,15.65,13.27,24,4.13,19-1.24,19.1-23.2,30.62-8.89,4.67-20.16,11.46-29.15,13.84-3,.81-8.29-17.5-14.23-13.79-32.51,20.35-58.69-41.41-59.31-73C826,790.35,847.76,769.93,859.6,770.18Z" style="fill:#e57e80"/><ellipse cx="903.46" cy="834.61" rx="16.5" ry="8.83" transform="translate(-262.8 443.9) rotate(-24.21)" style="fill:#e95a5a"/><ellipse cx="899.78" cy="806.35" rx="4.56" ry="8.51" transform="translate(-288.99 1022.27) rotate(-52.16)" style="fill:#171338"/><path d="M910.83,794.82s22.51,13.28,32.77,11.47-4.87,16.9-10.74,16.9S910.83,794.82,910.83,794.82Z" style="fill:#e95a5a"/><path d="M945.81,838.58c-5.74,5.86-13,7.66-21,6-2.26-.45-3.23,3-1,3.47,9.22,1.86,17.86-.17,24.52-7,1.62-1.65-.92-4.2-2.54-2.54Z" style="fill:#171338"/><path d="M883,793.23c-3.51,1.88-5.23,5.95-6.21,9.61-.62,2.28-1.89,6.55-.48,8.77,1.24,2,4.35.15,3.11-1.81-.58-.91.48-4.69.83-6,.75-2.75,1.9-6,4.57-7.45,2-1.09.23-4.2-1.82-3.11Z" style="fill:#e95a5a"/><g style="clip-path:url(#a)"><path d="M864.09,870.42c-14.24-6.17,17.28-26,8.58-36.76-9.15-11.33-7.29-21.82-1.59-31-9.07-2.35-21.27-9.74-13.2-7.65,13.09,3.39,21.5-2.81,21.5-2.81h0c2.06-2.17,4.19-4.22,6.25-6.15-12.66,2.2-15.5-8.62-15.5-8.62,4.5,3.57,10.31,4,15.14,3.55a16.51,16.51,0,0,0,12.39-7.19c1.91-3,1.47-5.19-3.15-6.46C806.58,743.17,789,814,790.68,841.11c.86,14.38,7.63,3.52,15.08,24.82,8.76,25.05,42.29,22,88.43,36.76,26.56,8.5,1-29.59-6.41-25.34C880.89,881.31,871.81,873.82,864.09,870.42Z" style="fill:#d37477"/></g><path d="M704.36,1709s-139.05,88.39-158.44,91.35c-12.55,1.92,39.47,32.75,55.88,67.49s24.88,51.4,76.17,51.4,5.92-18.34-15.31-29-54.41-66-47.65-80.76,112.5-59.67,112.5-59.67Z" style="fill:#e67f7e"/><path d="M601.44,1772.18s-26,24.57-27.39,33.76c-4.29,29.47,62.91,104.88,80.46,109.08s3.53-20,21-18.49,26.42,14.69,25.88,16.89-11.63,23.4-63.83,2.08-110.56-99.16-99.8-109.29S601.44,1772.18,601.44,1772.18Z" style="fill:#d32b3e"/><path d="M967.46,1817.44s23.06,67,22,114.77c-.67,28.78-12.66,46.11-4.22,50.63,22.44,12.05,53.39-10.53,81.85-5.06s91.41,2.4,102.82-2,20-10.87,17.86-17.44-56.52-11.25-82.8-11.25-61.6-11.82-70.36-26.06-14.24-93.06-14.24-93.06Z" style="fill:#e67f7e"/><path d="M1026.42,1842.7h-1.26a214.93,214.93,0,0,1-24.85-1.34,9.28,9.28,0,0,1-1.28-.14c-10.91-1.16-22.54-2.92-33.44-5l-1.28-.24c-9.27-1.76-18-3.72-25.14-5.68l-1.29-.34a87,87,0,0,1-14.28-5,3.08,3.08,0,0,1-.48-.32,2.52,2.52,0,0,1-.3-.27,9,9,0,0,1-1.76-2.82l-.24-.57-.26-.66-.18-.49C904.07,1773,914,1435.1,914,1435.1s-5.15,61.47-12.72,122.35c-7.07,56.89-16.27,113.29-25.35,118.46l-.24.13a1.15,1.15,0,0,1-.25.12l-.22.07-.39.12-.42.14a44.37,44.37,0,0,0-7.28,3.84l-.72.44q-2,1.27-4.4,2.86c-.36.23-.72.48-1.09.73-2.71,1.83-5.69,3.92-8.89,6.23l-2.17,1.57-1.35,1c-.73.52-1.46,1.06-2.2,1.61l-2.41,1.79c-.81.6-1.63,1.21-2.45,1.84l-1.52,1.15c-.5.37-1,.74-1.5,1.13-.26.19-.52.38-.77.58q-2.65,2-5.4,4.13l-1.58,1.22-1.59,1.23-.69.53-5.5,4.28-.31.25-3.31,2.6-7.58,6-2.55,2a5.19,5.19,0,0,0-.46.36l-2.9,2.31-.07.06q-1.71,1.38-3.43,2.75c-.29.22-.57.45-.85.68l-2.59,2.09a2.51,2.51,0,0,0-.32.25l-12,9.68-4,3.21-.87.71-6.21,5.07c-.46.39-.93.77-1.39,1.14l-2.36,2c-.14.1-.27.21-.41.33l-4.42,3.64c-5.31,4.37-10.39,8.57-15.12,12.51l-1.41,1.17c-3.45,2.86-6.69,5.56-9.7,8.07l-1.92,1.61-1.16,1-1.13,1-8.11,6.8-8.84,7.46-6.17-9.82-5.93-9.44h0l-.67-1.07-29.83-47.45-.66-1.06-13.09-20.82-.67-1.06-12.69-20.19h0l-6.38-10.14s4.11-1.63,11-4.49h.07l2.49-1,4.26-1.8,1-.41,1.93-.82,1.82-.78,2.24-1,2.87-1.24c.85-.36,1.7-.74,2.57-1.12h.12l3.32-1.46.87-.38c1.28-.56,2.57-1.13,3.89-1.73l2.45-1.09,5-2.26,2.12-1,1.74-.8,3-1.37,2.25-1,1.33-.62c1.33-.61,2.66-1.24,4-1.88l4-1.92,5.44-2.62,2.51-1.22,2.95-1.46,1.36-.68c9.66-4.8,19.24-9.82,28.11-14.86l2.23-1.28,3.66-2.14,1.37-.82,2.85-1.73c.47-.28.93-.57,1.39-.86q2.41-1.5,4.7-3l2-1.3c2.16-1.44,4.23-2.88,6.17-4.29l1-.78,1.11-.83,1.08-.83c1.07-.82,2.09-1.65,3.06-2.46.33-.27.64-.53,1-.81s.63-.53.93-.8.57-.5.84-.76l.18-.16c.44-.4.87-.8,1.28-1.2a41.57,41.57,0,0,0,5.55-6.37c.27-.41.53-.8.76-1.2.11-.18.22-.36.31-.54a15.4,15.4,0,0,0,.87-1.78c2.11-5.11,5.51-18.07,9.69-36,1-4.39,2.09-9.08,3.2-14,20.43-90.91,54.15-268.19,54.15-268.19H999.62s41.5,543,45,560.34C1045.63,1840.25,1038.15,1842.37,1026.42,1842.7Z" style="fill:#394480"/><path d="M1085.64,679.62s50-115,52-143c0,0,11,4,13,10s-12.91,48-24.46,66" style="fill:#e67f7e"/><path d="M1112.76,690.63s47.28-50,38.1-68a79.67,79.67,0,0,0-24.64-28l-49.55,102Z" style="fill:#e67f7e"/><path d="M1112.76,690.63s8.62-10.68,17-20c5.68-6.29,8.32-12.24,4.85-19a79.67,79.67,0,0,0-24.64-28l-33.32,73Z" style="fill:#d67776"/><path d="M786.66,817.18s38.66-11,21.87-32.85-33.74-32.3-52-23.18-26,32.58-7.81,44.3A77.74,77.74,0,0,0,786.66,817.18Z" style="fill:#171338"/><g style="opacity:0.36000001430511475"><path d="M697.93,1724.41c9.4,21.57,24,42.55,46.51,52,0,0,66-54.8,88.39-71.45s42.35-28.7,42.35-28.7-106,24.72-139.43,11l-1-.41C711.13,1677.11,687.76,1701,697.93,1724.41Z" style="fill:#171338"/></g><path d="M988.83,1914.26s20,59.52,38.46,61.58,28.51-.25,43.38,0c23,.39,62.91.44,68.55-3s14.28-5.4,16.9-22.44c0,0,29.51.31,36.89,8.55s-12.29,19.73-62.54,21.36-117.09,7.06-135.11,6.15c-10.77-.54-20.37,1.52-16.26-16.56S985,1943.91,988.83,1914.26Z" style="fill:#d32b3e"/><g style="opacity:0.36000001430511475"><path d="M854.49,1290.82,842,1355.16s13.25,4.57,18.39-18,22.78-24,35.27-18.88,52.9,15.88,62.45,3.9,9.16-18.07,30.66-29.35-41-31.86-41-31.86L847.83,1258Z" style="fill:#171338"/></g><g style="opacity:0.36000001430511475"><path d="M911.76,1537.93s-.78,146.84-.34,154.8-.68,99.76,10.11,129.86c2.09,5.84,42.76,13.44,42.76,13.44S966,1590.92,911.76,1537.93Z" style="fill:#171338"/></g><path d="M988.37,1909.17s-8.86-54-13.23-66.43l29.27,1.61a279.76,279.76,0,0,1-4.89,41C995.23,1906.71,988.37,1909.17,988.37,1909.17Z" style="fill:#db7272"/><g style="opacity:0.36000001430511475"><path d="M803.32,1543.24l-11.56,83.43-.23.16-83.35,55.75-45,25.1-.67-1.06,45-25.11,83.07-55.57,9.53-68.67C801.14,1552.88,802.21,1548.19,803.32,1543.24Z" style="fill:#fff"/><polygon points="810.26 1643.94 676.92 1729.56 676.26 1728.5 809.34 1643.05 857.75 1275.05 859.02 1275.05 810.5 1643.79 810.26 1643.94" style="fill:#fff"/><polygon points="876.4 1275.05 849.57 1658.95 849.36 1659.13 707.43 1778.08 707.42 1778.08 706.75 1777.01 848.36 1658.34 875.14 1275.05 876.4 1275.05" style="fill:#fff"/><path d="M906.9,1275.05l32.27,555.3-1.29-.34-32.23-555Z" style="fill:#fff"/><path d="M965.59,1836.27l-1.28-.24-45.38-561h1.25Z" style="fill:#fff"/><path d="M939.47,1275.05l60.84,566.33a9.28,9.28,0,0,1-1.28-.14l-60.82-566.19Z" style="fill:#fff"/><path d="M1026.42,1842.7h-1.26L977.43,1275h1.26Z" style="fill:#fff"/></g><path d="M1026.42,1842.7h-1.26a214.93,214.93,0,0,1-24.85-1.34,9.28,9.28,0,0,1-1.28-.14c-10.91-1.16-22.54-2.92-33.44-5l-1.28-.24c-9.27-1.76-18-3.72-25.14-5.68l-1.29-.34a87,87,0,0,1-14.28-5,3.08,3.08,0,0,1-.48-.32,2.52,2.52,0,0,1-.3-.27,9.83,9.83,0,0,1-1.76-2.82l-.24-.57-.26-.66-.18-.49C904.07,1773,914,1435.1,914,1435.1s-5.15,61.47-12.72,122.35c-2.65-87.72-3.58-163.12-3.58-163.12s-3.37,269.8-21.77,281.58l-.24.13a1.15,1.15,0,0,1-.25.12l-.22.07-.39.12-.42.14a44.37,44.37,0,0,0-7.28,3.84l-.72.44q-2,1.27-4.4,2.86c-.36.23-.72.48-1.09.73-2.71,1.83-5.69,3.92-8.89,6.23l-2.17,1.57-1.35,1c-.73.52-1.46,1.06-2.2,1.61l-2.41,1.79c-.81.6-1.63,1.21-2.45,1.84l-1.52,1.15c-.5.37-1,.74-1.5,1.13-.26.19-.52.38-.77.58q-2.65,2-5.4,4.13l-1.58,1.22-1.59,1.23-.69.53-5.5,4.28-.31.25-3.31,2.6q-3.75,2.94-7.58,6l-2.55,2a5.19,5.19,0,0,0-.46.36l-2.9,2.31-.07.06c-1.14.91-2.29,1.82-3.43,2.75-.29.22-.57.45-.85.68-.87.69-1.73,1.38-2.59,2.09a2.51,2.51,0,0,0-.32.25l-12,9.68-4,3.21-.87.71-6.21,5.07c-.46.39-.93.77-1.39,1.14l-2.36,2c-.14.1-.27.21-.41.33l-4.42,3.64c-5.31,4.37-10.39,8.57-15.12,12.51-.48.38-.94.77-1.41,1.17-3.45,2.86-6.69,5.56-9.7,8.07l-1.92,1.61-1.16,1-1.13,1-8.11,6.8a10.08,10.08,0,0,1-14.19-1.24,12.75,12.75,0,0,1-.81-1.12l-5.93-9.44h0l-.67-1.07-29.83-47.45-.66-1.06-13.09-20.82-.67-1.06-12.69-20.19h0a10.07,10.07,0,0,1,3.16-13.89,10.62,10.62,0,0,1,1.42-.74h.07l2.49-1,4.26-1.8,1-.41,1.93-.82,1.82-.78,2.24-1,2.87-1.24c.85-.36,1.7-.74,2.57-1.12h.12l3.32-1.46.87-.38c1.28-.56,2.57-1.13,3.89-1.73l2.45-1.09,5-2.26,2.12-1,1.74-.8,3-1.37,2.25-1,1.33-.62,4-1.88,4-1.92,5.44-2.62,2.51-1.22,3-1.46,1.36-.68c9.66-4.8,19.24-9.82,28.11-14.86l2.23-1.28,3.66-2.14,1.37-.82,2.85-1.73c.47-.28.93-.57,1.39-.86q2.41-1.5,4.7-3l2-1.3c2.16-1.44,4.23-2.88,6.17-4.29l1-.78,1.11-.83,1.08-.83c1.07-.82,2.09-1.65,3.06-2.46.33-.27.64-.53,1-.81s.63-.53.93-.8.57-.5.84-.76l.18-.16c.44-.4.87-.8,1.28-1.2a41.57,41.57,0,0,0,5.55-6.37c.27-.41.53-.8.76-1.2.11-.18.22-.36.31-.54a15.4,15.4,0,0,0,.87-1.78c2.11-5.11,5.51-18.07,9.69-36,1-4.39,2.09-9.08,3.2-14,20.43-90.91,54.15-268.19,54.15-268.19H999.59s41.5,543,45,560.34C1045.63,1840.25,1038.15,1842.37,1026.42,1842.7Z" style="fill:none"/><path d="M975.22,1418.69s38.78-66,69.37-76.24,45.37,9.1,11.28,21.6S975.22,1418.69,975.22,1418.69Z" style="fill:#5f63ac"/><path d="M1088,1369.29s98.54,7.41,115.58-16-5.68-21.18-18.18-13.75S1119,1367.71,1088,1369.29Z" style="fill:#5f63ac"/><path d="M1196.9,1298.45s1-66.91,24.89-96.12,27.27,2.62,14.77,21.94S1207.23,1278.66,1196.9,1298.45Z" style="fill:#5f63ac"/><path d="M1251.76,1237.82s74.46-40.39,61-94.13c-7.55-30.12-35.41-22.57-25,0C1293,1155.13,1285.06,1208.18,1251.76,1237.82Z" style="fill:#5f63ac"/><path d="M1249.23,1071.58s-73.34-58.84-92.92-28.37c-13.4,20.83.22,11,29.62,16.22S1249.23,1071.58,1249.23,1071.58Z" style="fill:#5f63ac"/><path d="M1136.08,1010.61s-51.62-42.09-69.63-49.81,23.49-33.67,39.92-4.27S1136.08,1010.61,1136.08,1010.61Z" style="fill:#5f63ac"/><ellipse cx="731.46" cy="1947.13" rx="36.73" ry="6.63" style="fill:#5f63ac"/><path d="M801.84,926.82s-16.71-17.13-26.66-39.8S752,853.84,750.29,866.56,770.22,919.3,801.84,926.82Z" style="fill:#5f63ac"/><path d="M705.76,865.82S665.11,845,659,817.91s11.06-27.95,14.38-12S686.58,851.41,705.76,865.82Z" style="fill:#5f63ac"/><path d="M694.12,800.91s60-25.59,58.38-42.73-18.8-16.59-26.54,0S694.12,800.91,694.12,800.91Z" style="fill:#5f63ac"/><path d="M768.35,712.49s22.86-47.77,48.85-46.66,6.08,12.16-2.76,16S777.23,701.6,768.35,712.49Z" style="fill:#5f63ac"/><path d="M850.85,680s74,8.54,76.58-4.73-5.79-16.63-23.45-9.42S850.85,680,850.85,680Z" style="fill:#5f63ac"/><path d="M967.67,633s25.93-44,50.82-45.15,18.8,11.61,5,14.93S967.67,633,967.67,633Z" style="fill:#5f63ac"/><path d="M1234.64,505.7s58.68-2.45,67.53-26.23-11.62-14.93-21-5S1234.64,505.7,1234.64,505.7Z" style="fill:#5f63ac"/><path d="M1278.15,412.56s-.87-30.41-13.59-43.13-36.49-3.87-27.65,7.74,44.26,34.93,38.16,52.49C1275.07,429.66,1278.76,419.82,1278.15,412.56Z" style="fill:#5f63ac"/><path d="M721,1948.13c-.32-1-31.88-97.33-13.78-211.5,16.72-105.47,80.34-248.17,288.5-329,251.91-97.84,284.16-205.28,281-260.62-3.74-64.8-58.11-112.37-109.88-125.87-126.07-32.87-169.08-40.57-169.51-40.64l1.78-4.76c.44.07,42.74,7.63,169,40.55,53.52,14,109.73,63.24,113.61,130.43,3.28,56.7-29.28,166.6-284.14,265.59-205.86,80-268.79,220.83-285.34,324.94-18,113,13.24,208.36,13.55,209.32Z" style="fill:#5f63ac"/><path d="M730,1658.73s75.83-16.26,90.61-45.8S759.87,1605.66,730,1658.73Z" style="fill:#5f63ac"/><path d="M782.6,1558.9s5.65-97.12,39.92-105.08,16.67,14.78,0,39.78S782.6,1558.9,782.6,1558.9Z" style="fill:#5f63ac"/><path d="M833.46,1505.55s93.71-7.4,102.94-27.86-62.82,0-82.88,13.93" style="fill:#5f63ac"/><path d="M1143.76,682.74l-7,13-6.82,12.85c-2.93,5.54-6.25,11.84-9.9,18.77q-3.11,5.91-6.5,12.42c-3.46,6.61-7.12,13.64-10.94,21q-3.27,6.29-6.67,12.88c-44.07,85.45-104,206.17-112.69,247.21-14,66,3.52,146.47,31.52,226.48,17.59,50.27-13.38,52.17-41.83,50.11-16.84-1.22-32.79-3.83-37.25,1.38-12,14-50,22-82-8s-61.69,59.39-52.89-3.25c3.21-22.88,18.05-55.43,31-92.5,7.85-22.48,15-46.62,18.44-71.28,10.23-73.46,7.2-147.1,12.93-187.56.74-5.2,46.26,8.76,73.81,17.7,12,3.89,20.57,6.83,20.57,6.83s35-131.38,66.3-223.66q2.46-7.26,4.88-14.17c2.5-7.12,5-13.91,7.36-20.3q2.63-7,5.13-13.23c1.59-4,3.14-7.69,4.64-11.16,2.12-4.86,4.15-9.23,6.07-13,5.58-11,10.33-17.1,13.81-16.52,14.08,2.35,38.46,13.63,56.23,22.57C1134.55,677.6,1143.76,682.74,1143.76,682.74Z" style="fill:#f9b17c"/><path d="M864.09,870.42c-14.24-6.17,9.53-26,.83-36.76-9.15-11.33-7.28-21.82-1.58-31-9.07-2.35-21.27-9.74-13.2-7.65,13.08,3.39,21.5-2.81,21.5-2.81h0c2.06-2.17,4.18-4.22,6.24-6.15-12.66,2.2-15.49-8.62-15.49-8.62,4.49,3.57,10.3,4,15.13,3.55a16.48,16.48,0,0,0,12.39-7.19c1.91-3,1.48-5.19-3.15-6.46C798.84,743.17,781.29,814,782.93,841.11c.87,14.38,7.64,3.52,15.09,24.82,8.76,25.05,42.28,22,88.43,36.76,26.06,8.34,18.83-6-.14-19.63A121.62,121.62,0,0,0,864.09,870.42Z" style="fill:#171338"/><path d="M789.14,806.15c2.86,22.29-22.8,21.41-32.62,36.2-7.63,11.49-6.64,25.83-5,38.85.12.9,1.56.92,1.44,0-1.35-10.45-2.31-20.89,1.44-31,2.15-5.79,6-11.72,11.33-15.15,4.3-2.75,8.83-2.69,13-5,9.14-5.11,13.14-13.53,11.81-23.87-.12-.9-1.56-.91-1.44,0Z" style="fill:#171338"/><path d="M779.76,798.74c-5.14,11.14-9.63,23.54-5.63,35.78,1.12,3.44.66,2.11,2.75,6.22,3.72,7.28,4.38,7.29,4.37,17.34,0,9.58-.43,10.81-4.79,17.78a103.13,103.13,0,0,0-6.71,11.74c-.38.84.86,1.57,1.24.73,4.72-10.34,16.1-20.61,14.4-33-.7-5.1-3.77-9.14-6.16-13.53-7.93-14.63-4.93-27.86,1.77-42.37.38-.84-.85-1.57-1.24-.73Z" style="fill:#171338"/><path d="M811.26,790.44c-7.82-4-4.84-15.53-7.87-22.3a29.5,29.5,0,0,0-8.8-10.68c-10.58-8.52-23.93-12.29-37.32-12.56a.72.72,0,0,0,0,1.44c14.66.3,37.61,6,44.27,21.17,3.55,8.08-.11,19.49,9,24.17.82.43,1.55-.81.73-1.24Z" style="fill:#171338"/><path d="M850.27,764.16c14-.65,26.15.85,39.32-5,.84-.38.11-1.62-.73-1.24-12.91,5.77-25,4.2-38.59,4.83-.92,0-.92,1.48,0,1.44Z" style="fill:#171338"/><path d="M860,790.54c-12,0-24-.44-36-.08-10.07.31-15.91,4-24.33,9.43-.78.5-.06,1.74.72,1.24,10.45-6.7,19.4-9.27,32.11-9.23L860,792a.72.72,0,0,0,0-1.44Z" style="fill:#394480"/><path d="M853.81,808.35a58.81,58.81,0,0,0-52.3-6.31c-.87.31-.49,1.69.38,1.39a57.36,57.36,0,0,1,51.2,6.16c.77.51,1.5-.73.72-1.24Z" style="fill:#394480"/><path d="M878.47,768.82c-21.72-1.22-43.92-.2-60.78,15.14-.69.62.33,1.63,1,1,16.57-15.07,38.49-15.91,59.76-14.71a.72.72,0,0,0,0-1.44Z" style="fill:#394480"/><path d="M877.15,866.56c-7.76-.37-10.61-5.13-10.73-5.33l.62-.36s2.8,4.62,10.14,5Z" style="fill:#e94f57"/><path d="M871.46,865.22l-.11-.71c7.61-1.21,9.76-4.53,9.78-4.56l.62.38C881.66,860.47,879.44,864,871.46,865.22Z" style="fill:#e94f57"/><g style="opacity:0.5"><path d="M1143.76,682.74l-7,13-6.82,12.85c-2.93,5.54-6.25,11.84-9.9,18.77q-3.11,5.91-6.5,12.42c-3.46,6.61-7.12,13.64-10.94,21q-3.27,6.29-6.67,12.88c-44.07,85.45-104,206.17-112.69,247.21-14,66,3.52,146.47,31.52,226.48,17.59,50.27-13.38,52.17-41.83,50.11-13.08-31.22-20.31-64.66-22.32-98.94-2.69-45.87,4-92,11.26-137.22,7.19-44.56,16.87-88.86,31.63-131.58,19.83-57.39,47.89-112.09,76.88-166q3.36-6.29,6.76-12.54,6.08-11.25,12.15-22.46l6.61-12.23q4.47-8.29,8.89-16.59,3.43-6.4,6.8-12.82l3.42-6.52a33.94,33.94,0,0,1,6.92-9.26C1134.55,677.6,1143.76,682.74,1143.76,682.74Z" style="fill:#f48a77"/></g><g style="opacity:0.5"><path d="M937,954c-11.11,80.37-41.14,158.29-87.93,224.46a61.44,61.44,0,0,1-17.25,16.68c7.85-22.48,15-46.62,18.44-71.28,10.23-73.46,7.2-147.1,12.93-187.56C863.94,931.06,909.46,945,937,954Z" style="fill:#f48a77"/></g><path d="M1143.76,682.74S997.28,954.88,983.28,1020.9s3.52,146.46,31.52,226.47-67,37.45-79,51.45-50,22-82-8-61.7,59.39-52.9-3.26c5.17-36.75,40.33-98.45,49.43-163.78,10.24-73.46,7.2-147.09,12.94-187.56,1.06-7.45,94.38,24.54,94.38,24.54s84.15-316,108.15-312S1143.76,682.74,1143.76,682.74Z" style="fill:none"/><path d="M957.45,960.82c-7.29-.4-179.22-10.9-244.54-85.93-18.17-20.87-26.28-45-24.09-71.62,6.4-77.93,144.91-124.88,278.85-170.29,109.75-37.2,223.24-75.67,262.92-130.26,55.85-76.85,40.6-105.59,40.44-105.87l4.31-2.56c.74,1.23,17.56,31.21-40.7,111.38-40.62,55.88-154.87,94.61-265.36,132.06C836.87,682.62,700,729,693.82,803.73c-2.08,25.25,5.61,48.1,22.86,67.91,63.93,73.44,240.38,84.38,242.14,84.48Z" style="fill:#5f63ac"/><path d="M848.14,892.42c11,2.25,30.27,6.46,26.93,21.55-.5,2.25,3,3.21,3.47.95,3.9-17.62-16.12-23.24-29.45-26-2.25-.46-3.22,3-1,3.47Z" style="fill:#171338"/><path d="M1136.83,695.75,1130,708.6q-12.6-4.27-25.15-8.7-29.62-10.44-59-21.63c2.12-4.86,4.15-9.23,6.07-13q29.71,11.31,59.7,21.83Q1124.21,691.49,1136.83,695.75Z" style="fill:#f48a77"/><path d="M1120.11,727.37q-3.1,5.91-6.5,12.42c-8.16-3.45-16.23-7.19-24.25-11.07-17.76-8.58-35.33-17.84-53.24-26.06q2.63-7,5.13-13.23c18.32,8.54,36.39,18.23,54.72,27.06C1104,720.34,1112,724,1120.11,727.37Z" style="fill:#f48a77"/><path d="M1102.67,760.82q-3.27,6.28-6.67,12.88-8.91-3-17.66-6.63-4-1.62-7.89-3.33c-16.54-7.21-32.5-15.7-46.57-26.59q2.46-7.26,4.88-14.17c14.28,11.94,31.26,20.93,48.45,28.22,4.89,2.07,9.79,4,14.65,5.81Q1097.23,759,1102.67,760.82Z" style="fill:#f48a77"/><path d="M1143.76,682.74S997.28,954.88,983.28,1020.9s3.52,146.46,31.52,226.47-67,37.45-79,51.45-50,22-82-8-61.7,59.39-52.9-3.26c5.17-36.75,40.33-98.45,49.43-163.78,10.24-73.46,7.2-147.09,12.94-187.56,1.06-7.45,94.38,24.54,94.38,24.54s84.15-316,108.15-312S1143.76,682.74,1143.76,682.74Z" style="fill:none"/><path d="M1133.06,600s-9.5,16.81-8.36,17,10.19-15.33,10.19-15.33Z" style="fill:#d67776"/></svg>