<svg xmlns="http://www.w3.org/2000/svg" viewBox="0 0 1312.82 1754.76"><path d="M1055.28,1097.52c-20.25,147.2-202.39,190.76-156.76,306.91,7.18,18.29,20,38.38,40,61q8.37,9.46,18.48,19.53c1.11,1.11,2.25,2.23,3.4,3.36q10.54,10.31,19.54,20.91a274.45,274.45,0,0,1,22.93,31,237,237,0,0,1,26.48,56.86,217.51,217.51,0,0,1,5.88,23.43,70.78,70.78,0,0,0-5.88-4.77,71.12,71.12,0,0,0-49.41-13.5c-1.46.15-2.92.34-4.38.58a71.46,71.46,0,0,0-41.49,22.62A74.29,74.29,0,0,0,917.71,1655a35,35,0,0,0-6.58-3.92,34.54,34.54,0,0,0-20.12-2.72c-1,.15-1.89.35-2.81.58a34.78,34.78,0,0,0-13.45,6.71,74.85,74.85,0,0,0-9.49-4.72,73,73,0,0,0-22.93-5.35,74,74,0,0,0-16.82.82,4,4,0,0,0-.67.15,66.31,66.31,0,0,0-28.38-37,64.3,64.3,0,0,0-28.73-9.52c-1.48-.12-3-.19-4.46-.2-1.74,0-3.5,0-5.26.15q-3,.21-6,.7a64.47,64.47,0,0,0-35.81,18.67,66.7,66.7,0,0,0-18.9,45.74,29.32,29.32,0,0,0-22.31,0,30.25,30.25,0,0,0-18.57,26.76,68.53,68.53,0,0,0-23.43-.26c-1.69.28-3.35.61-5,1a69,69,0,0,0-24.55,11.36v4.88c-.85-1-1.7-2-2.53-2.92-5.44-6.3-10.6-12.46-15.54-18.48-36.31-44.22-60.63-80.64-93.64-105.71a164.07,164.07,0,0,0-21.89-14.13c-28.08-15.13-63.43-23.49-114.74-23.57a209.42,209.42,0,0,1-55.35-8C116.88,1485.57-78.12,1212.05,85,1143c154-65.19,55.69-118,112.64-151.71,19.71-11.65,44.09-11.75,64.34-1.07,40.7,21.48,148.69,53,384.79-14.22,280.26-79.77,375.6-117.9,402.36,14.4,3.94,19.46,6.39,42.6,7.72,69.85A201.14,201.14,0,0,1,1055.28,1097.52Z" style="fill:#eaf4fb"/><path d="M236.88,1329.37a42.09,42.09,0,0,1,44.36-39.67c.39,0,.78.09,1.17.12a53.15,53.15,0,0,1,77.64-55,63,63,0,0,1,114,5.45,30.72,30.72,0,0,1,37.23-3.42A64.48,64.48,0,0,1,553,1224.44a2,2,0,0,1,.6.06,56.77,56.77,0,0,1,112,4,26,26,0,0,1,37.88,18.91,60.61,60.61,0,0,1,73.81,36.76A37.86,37.86,0,0,1,823.74,1323a29.11,29.11,0,0,1-.39,3.73l-.06.35c-.17,1-.39,2.1-.7,3.36a1.33,1.33,0,0,0-.05.19c-3.74,14.93-19.24,46.61-83.49,46.78-70.54.18-356.85-4.37-447.08-5.84a41.92,41.92,0,0,1-27.38-.45h0A42,42,0,0,1,236.88,1329.37Z" style="fill:#fff"/><path d="M710.61,1062.17a31.09,31.09,0,0,1,32.76-29.29c.29,0,.57.06.87.09a39.25,39.25,0,0,1,57.33-40.61,46.52,46.52,0,0,1,84.17,4,22.72,22.72,0,0,1,27.49-2.52,47.62,47.62,0,0,1,30.83-9.17l.44.05a41.93,41.93,0,0,1,82.74,2.93,19.17,19.17,0,0,1,28,14,44.75,44.75,0,0,1,54.44,27.17,28,28,0,0,1,34.29,28.65,19.58,19.58,0,0,1-.29,2.75v.26c-.12.72-.29,1.55-.52,2.48v.14c-2.76,11-14.2,34.42-61.65,34.55-52.1.13-263.55-3.23-330.18-4.31a31,31,0,0,1-20.23-.34h0A31,31,0,0,1,710.61,1062.17Z" style="fill:#fff"/><polygon points="489.6 1567.87 229.45 1567.87 327.83 1529.56 585.38 1529.2 489.6 1567.87" style="fill:#fff"/><path d="M491.74,1567.52v143.35a56.58,56.58,0,0,0-38.92-18.41,53.43,53.43,0,0,0-6.2,0v25.36l-43-1.79a56.28,56.28,0,0,0-9.56,22.14,2,2,0,0,1-.6-.06,64.58,64.58,0,0,0-41.75,12.41,30.71,30.71,0,0,0-37.22,3.42,63,63,0,0,0-82.22-34.31,60,60,0,0,0-5.45,2.55V1567.52Z" style="fill:#eaf4fb"/><path d="M585.38,1529.2v194.13a71.43,71.43,0,0,0-8.72,20.38,43,43,0,0,0-34.48,11,25.94,25.94,0,0,0-34.09-13.58c-.68.29-1.33.61-2,.95a56.42,56.42,0,0,0-14.37-31.26v-143.3Z" style="fill:#c8dcf0"/><polygon points="328.46 1654.62 252.63 1651.46 252.63 1625.55 328.46 1628.71 328.46 1654.62" style="fill:#fff"/><polygon points="446.63 1660.31 370.8 1657.15 370.8 1631.24 446.63 1634.4 446.63 1660.31" style="fill:#fff"/><polygon points="328.46 1712.13 252.63 1708.96 252.63 1683.06 328.46 1686.22 328.46 1712.13" style="fill:#fff"/><polygon points="446.63 1691.9 446.63 1717.81 403.64 1716.02 370.81 1714.65 370.81 1688.74 446.63 1691.9" style="fill:#fff"/><path d="M328.46,1743.72v2.84a30.73,30.73,0,0,0-13.95,7.37,62.2,62.2,0,0,0-5.89-11Z" style="fill:#fff"/><polygon points="764.82 1521.38 603.46 1521.38 664.48 1483.06 825.84 1483.06 764.82 1521.38" style="fill:#fff"/><path d="M767.75,1521.38V1600c-1.48-.12-3-.19-4.46-.2-1.74,0-3.5,0-5.26.15q-3,.21-6,.7a64.47,64.47,0,0,0-35.81,18.67,66.7,66.7,0,0,0-18.9,45.74,29.32,29.32,0,0,0-22.31,0,30.27,30.27,0,0,0-18.59,26.77,68.53,68.53,0,0,0-23.43-.26c-1.69.28-3.35.61-5,1a69,69,0,0,0-24.55,11.36v-182.5Z" style="fill:#c8dcf0"/><path d="M675,1557.71V1665a30.26,30.26,0,0,0-18.62,26.79,68.53,68.53,0,0,0-23.43-.26c-1.69.28-3.35.61-5,1V1557.71Z" style="fill:#fff"/><path d="M763.29,1557.71v42.11c-1.74,0-3.5,0-5.26.15q-3,.21-6,.7a64.47,64.47,0,0,0-35.81,18.67v-61.6Z" style="fill:#fff"/><polygon points="1029.38 1465.39 759.78 1465.39 856.87 1404.43 1121.78 1404.43 1029.38 1465.39" style="fill:#fff"/><path d="M1029.37,1465.39v150.36a72,72,0,0,0-26.48-12.11,71,71,0,0,0-22.93-1.39c-1.46.15-2.92.34-4.38.58a71.43,71.43,0,0,0-41.49,22.62A74.29,74.29,0,0,0,917.73,1655a35,35,0,0,0-6.58-3.92,34.54,34.54,0,0,0-20.12-2.72c-.95.15-1.89.35-2.81.58a34.78,34.78,0,0,0-13.45,6.71,74.85,74.85,0,0,0-9.49-4.72,73,73,0,0,0-22.93-5.35,74,74,0,0,0-16.82.82,4,4,0,0,0-.67.15,66.31,66.31,0,0,0-28.38-37,64.3,64.3,0,0,0-28.73-9.52c-1.48-.12-3-.19-4.46-.2-1.74,0-3.5,0-5.26.15l.55-42.23.47-36.33v-1.53l.48-36.79.23-17.67Z" style="fill:#eaf4fb"/><path d="M1121.77,1404.43v234.39a60.31,60.31,0,0,0-74.51-4.39,73.92,73.92,0,0,0-12-14,70.78,70.78,0,0,0-5.88-4.77V1465.39Z" style="fill:#c8dcf0"/><rect x="792.99" y="1465.39" width="7" height="144.12" style="fill:#fff"/><rect x="815.92" y="1465.39" width="7" height="168.27" style="fill:#fff"/><rect x="838.85" y="1465.39" width="7" height="180.16" style="fill:#fff"/><rect x="861.79" y="1465.39" width="7" height="185.51" style="fill:#fff"/><rect x="884.72" y="1465.39" width="7" height="183.52" style="fill:#fff"/><rect x="907.66" y="1465.39" width="7" height="185.66" style="fill:#fff"/><rect x="930.59" y="1465.39" width="7" height="160.06" style="fill:#fff"/><rect x="953.53" y="1465.39" width="7" height="143.15" style="fill:#fff"/><rect x="976.47" y="1465.39" width="7" height="136.86" style="fill:#fff"/><rect x="999.39" y="1465.39" width="7" height="138.25" style="fill:#fff"/><path d="M446.62,1692.47v25.35l-43-1.79A56.69,56.69,0,0,1,446.62,1692.47Z" style="fill:#fff"/><path d="M600.92,1705.82c.83-.67,1.67-1.32,2.53-2v4.88C602.6,1707.82,601.75,1706.82,600.92,1705.82Z" style="fill:#fff"/><path d="M257.83,893.66a34,34,0,0,1,41.15-36A61.78,61.78,0,0,1,375.22,817a79.11,79.11,0,0,1,157.17-10.17,43.47,43.47,0,0,1,60.67,3.9,60.66,60.66,0,0,1,88.75,77.14h0s-1,3.53-5.56,9a61,61,0,0,1-25.13,19.62c-31.24,17.49-93.54,36.69-216.85,37.52-45.06.3-157.89,16-173.38-49h0A33.65,33.65,0,0,1,257.83,893.66Z" style="fill:#eaf4fb"/><path d="M691,626.32c-.94,2.54-6.26,8.76-13.89,16.81-25.48,26.88-76.72,74.26-76.72,74.26s-10.56-40.72-6.28-46.28c3-3.87,37.06-58.55,63.33-90.39,11.44-13.87,21.4-23.41,26.66-22.52C701.42,561.12,695.05,615.28,691,626.32Z" style="fill:#5f63ac"/><path d="M895.35,1325.65s12.32,10.46,14.86,14.64,18.67,70.1,23.68,81.52,2.42,32.31-5.33,46-30.78,17.6-32.83,11.94-22.56-128.34-17.2-141.33C880.86,1332.82,895.35,1325.65,895.35,1325.65Z" style="fill:#d32b3e"/><path d="M736.6,1362.68s-12.59,24.66-23.14,18.74,12.1-50.67,10.55-67.74c-2.87-31.52-9.22-89.35-15.52-145-8.36-73.74-16.64-143.68-16.64-143.68l5-24.37,16.66-81.92s11,39.49,19.28,76.76c4,17.94,7.38,35.37,8.61,47.62,3.77,37.69,4.42,64.82,5.17,88.19S736.6,1362.68,736.6,1362.68Z" style="fill:#e57e80"/><path d="M898.88,1335.75c5.35,13.32,23.15,65.07,25.37,78.19s-22.89,36.5-29.64,27.75-12.48-107.16-22.53-129.42c-8.47-18.76-64.33-123.42-90.89-177.62-8.17-16.65-13.56-28.54-14-31.71-.94-7.44-7.71-60.72-13.58-106.94-4.77-37.47-8.93-70.28-8.93-70.28l61.69,5.08s-.22,19.08-.62,44.18c-.69,42.69-1.93,102.79-3.61,115.92-1.46,11.44,13.87,10.69,31.33,33.92,14.4,19.15,30.25,54.58,39.34,126.56C872.84,1251.38,893.52,1322.42,898.88,1335.75Z" style="fill:#e57e80"/><path d="M741.35,1043.07c3.77,37.69,4.42,64.82,5.17,88.19-13.93,1.34-27.55,19.12-38,37.4-8.36-73.74-16.64-143.68-16.64-143.68l5-24.37,35.94-5.16C736.75,1013.39,740.12,1030.82,741.35,1043.07Z" style="fill:#d37477"/><path d="M833.5,1124.82c-23.61,7-37.92,7.35-52.31,9.83-8.17-16.65-13.56-28.54-14-31.71-.94-7.44-7.71-60.72-13.58-106.94l52.14-21c-.69,42.69-1.93,102.79-3.61,115.92C800.68,1102.34,816,1101.59,833.5,1124.82Z" style="fill:#d37477"/><path d="M715.86,436.24s-.89-6.7-11.48-4.19a25.83,25.83,0,0,0-14.77,10l-4.16,5.69s-.36-29.53,26.29-36S918.3,669.9,918.3,669.9,863.52,832,839.45,819.27,717.26,575.36,703.28,540.58s-10.52-91.85-10.52-91.85" style="fill:#171338"/><path d="M738.42,1326.56s8.91,31.71,8.14,42.55S727.73,1383.57,727,1398s-3.31,38.32-7.8,49.17-22,22.41-27.36,22.41-27.74-15.91-16.18-21,27.38-51.32,33-72.3S738.42,1326.56,738.42,1326.56Z" style="fill:#e57e80"/><path d="M681.15,1443.76s30.15,20.07,36.75,6,2.16-38.7,4.58-48.79,11.72-20.6,15.35-33.93,5.69-20,5.69-20,5.22,20,6,32.1-15.75,17.77-16.56,27.46-4.13,43.62-13.77,57.35-44,24.64-51.66,23.83-23.42-12.19-20.59-18.21S681.15,1443.76,681.15,1443.76Z" style="fill:#d32b3e"/><path d="M801.35,855.11s-1.17,19.35.58,26.08,7.23,22.41,11.79,35c3,8.19,2.59,31-5.34,40.7-4.37,5.35-10.86,15.28-14.21,9.63s2.51-49.49-3.2-54.88c-4.85-4.58,4,24.33-.63,28.41-9.16,8-8.59-23.57-6.15-34.33s-.81-48.29-.81-48.29Z" style="fill:#d37477"/><path d="M727.48,506A12,12,0,0,0,717,517.55c-.4,15.31-1.54,43.11-4.53,45.37a16.66,16.66,0,0,1-6,2.1,12,12,0,0,0-8.39,17l10.43,21.14a12,12,0,0,0,20.7,1.37l12.61-18.82c4.74-7.08,24.75-13.27,16.42-15.07-2.89-.62-13.63-5.78-14.67-6.67-11.33-9.79-8.61-53.81.27-58.5C748.68,502.94,733.39,505.25,727.48,506Z" style="fill:#d37477"/><path d="M699.68,431.08a84.82,84.82,0,0,0-26.13,45.22c-3.69,17.23-4.84,37.74,5.8,49.7,20.88,23.49,56.09-4.31,62.35-9.53s19.08-54.65,19.08-54.65l-49-41.6Z" style="fill:#e57e80"/><path d="M699.68,431.08c-3,3.59-7.58,6.17-10.07,11-8.14,15.63,20.56,10.87,31.2,22.84,20.88,23.49,19.09,53.29,25.36,48.07s14.61-51.17,14.61-51.17l-49-41.6Z" style="fill:#d37477"/><path d="M693.11,470.26s-10.39,19.29-15.06,22.3,8.11,11.55,12.91,8S693.11,470.26,693.11,470.26Z" style="fill:#e95a5a"/><ellipse cx="707.8" cy="474.61" rx="8.31" ry="3.53" transform="translate(87.46 1058.91) rotate(-77.13)" style="fill:#171338"/><ellipse cx="682.91" cy="468.93" rx="8.08" ry="3.43" transform="translate(73.65 1030.23) rotate(-77.13)" style="fill:#171338"/><path d="M700.86,523.34a11.26,11.26,0,0,1-3.21-.4,1.5,1.5,0,0,1,.89-2.86c.51.15,12,3.28,21.9-16.43a1.5,1.5,0,0,1,2.69,1.34C715.13,521,705.68,523.34,700.86,523.34Z" style="fill:#171338"/><ellipse cx="719.81" cy="488.87" rx="14.56" ry="4.58" transform="translate(-109.8 226.45) rotate(-16.63)" style="fill:#e95a5a"/><path d="M684.08,558.2s12.76,86.67,5.17,198.35c-4.26,62.65-6.31,89.14-28.71,139.36-46.36,103.88-43.94,104.67-83.22,140.43,0,0,74.37,102.42,122.8,22,38.74-64.3,134.43.65,172.44-60.73,0,0-52.24-1.36-46.47-86.9,2.8-41.47-21.7-71.68-21.7-121.45,0-99.77-10.94-87.37-40.1-200-5.8-22.44-11-20.58-11-20.58s-9,4.36-17.24,3.44-8.56,11-23.51-8.46Z" style="fill:#f9b17c"/><path d="M667.48,513.5c-.81-.52-14.94-1.92-18.15.42l-.11.09a.53.53,0,0,0-.14.12,1.57,1.57,0,0,0-.21.24c-.62,1-6.52,9.88-9.49,14.39a13.36,13.36,0,0,0-1.71,2.57h0c-4.76,8.59-14.89,34.15-14.89,42.26,0,10.06,11.9,14.13,11.9,14.13s15.7-16,18.61-29.42h0l4.83-4.74c-1.11,2.09-1.9,4.07-1.59,5.09.81,2.72,3.27,2.88,6.52-.42s7.43-13.09,7.43-13.09l-2.8-5c2.92-1.6-3.29-7.35-3.29-7.35.2-1.8-.22-2.08-2.68-4.6-1.88-1.92-10.16,5.52-13.94,9.12a31.55,31.55,0,0,0-2-2.56c3.8-3.77,10.3-10.75,11.28-15.12a58.07,58.07,0,0,0,7.22-.33s6.86,2.83,8.73,3a17,17,0,0,0,5.59-.4C679.12,521.66,668.33,514.05,667.48,513.5Z" style="fill:#e57e80"/><path d="M610.19,570.3s-17.68,64.33-19.45,70.43c-4.64,16-8.23,36.42-5.9,51.08,1.83,11.55,9.32,27.35,18.84,24.69,11.92-3.34,43.52-136.7,43.52-136.7Z" style="fill:#5f63ac"/><path d="M863.38,885l14.3,42.21-7.39,25.35s.84,4.37,3.7,4,14.69-35.19,14.69-35.19l-13.56-22.87Z" style="fill:#e57e7e"/><path d="M870.57,894l14,38.89L873.8,954.11s6.28,1.8,9.3-2.81,10.14-36,10.14-36l-21.1-43-18.46.52s-3.9,23.83-1.87,30.16,2.29,21.78,2.29,21.78,6,2.21,8.49-1S860,900.45,860,900.45l8.78,14.75L866,944.37s1.55,7.49,4.06,6.42,12.11-32.85,12.11-32.85L869.87,899.6" style="fill:#e57e7e"/><polygon points="874.33 881.23 854.81 878.66 832.18 798.31 820.43 756.56 845.74 758.36 853.46 792.96 874.33 881.23" style="fill:#e57e7e"/><path d="M757.22,447.43c7.63,14.79,15.52,30,25.6,43.34,8.48,11.21,20.29,19.75,31.94,27.46,21.13,14,45.85,22.42,71.16,17.67,14.69-2.76,28.82-8.2,43-12.77,2.29-.73,1.31-4.36-1-3.61-21.84,7-44.82,17.09-68.25,13.37-13.61-2.16-26.48-8.1-38.31-15a167.87,167.87,0,0,1-17-11.87c-5.78-4.39-11.35-8.7-16-14.31C777,478,768.6,461.25,760.49,445.5c-1.1-2.14-4.34-.25-3.24,1.9Z" style="fill:#171338"/><path d="M817.5,529.93c11.28,10,3.29,27.09,2.56,39.69-.28,4.87.47,10.07,4.52,13.27,5,4,12.24,3.6,18.11,2.32,8.41-1.82,16.32-5.76,24.12-9.27s16.63-8,25.49-8.1c5.36-.09,10.8,1.07,16.15,1.5,6.09.47,12.2.75,18.31.74a164.23,164.23,0,0,0,26.3-2c13.84-2.29,27.21-7,38.87-14.86,2-1.35.12-4.6-1.89-3.24-26.37,17.83-60.3,18.2-90.82,14.77-17.24-1.94-31.37,7.36-46.87,13.48-6.86,2.71-15.79,6.09-23.1,3.1-6-2.43-5.83-8.87-5.19-14.34,1.55-13,7.68-29.35-3.91-39.66-1.8-1.6-4.46,1-2.65,2.65Z" style="fill:#171338"/><path d="M801.08,528.35c47.3,26.22,103.34,39.35,154.5,16,2.19-1,.29-4.24-1.89-3.24-49.85,22.81-104.72,9.55-150.71-16C800.87,523.94,799,527.18,801.08,528.35Z" style="fill:#171338"/><path d="M702.57,450.29c5.71,18.84,10.3,38.64,18.55,56.57,7.85,17.06,19.17,32.19,30.37,47.15,1.43,1.91,4.69,0,3.24-1.89-10.85-14.5-21.81-29.14-29.63-45.57-8.58-18-13.14-38.2-18.92-57.26-.7-2.3-4.32-1.32-3.61,1Z" style="fill:#171338"/><path d="M753.26,568.66s9.67-6.86,23.27,21.55c32.22,67.23,87.47,217.11,93.63,231.15,8.78,20-15.77,43.72-33.42,42.4S753.26,568.66,753.26,568.66Z" style="fill:#5f63ac"/><path d="M692.21,438.62s34.84,29.82,37.42,53c7,63.34,65,191.71,108.64,257s108.9,54.64,100.08,16.4-29.81-43.42-6.94-91.15,64.66-55.64,55.21-90.49-75.8,19.35-156.46-54.33c-59.81-54.63-26.17-88.52-80.4-109.82C700.24,399.82,682.94,381.69,692.21,438.62Z" style="fill:#171338"/><path d="M753.57,479.91c11.07,12.26,17,27.71,22,43.19,5.1,15.66,9.87,31.28,17.5,45.94,15.14,29.09,38,54,65,72.55a208,208,0,0,0,48,24.37c3,1.09,4.35-3.74,1.33-4.82a203.15,203.15,0,0,1-80.53-53,191.33,191.33,0,0,1-29.09-40.87C790,552.52,785.3,536.76,780.13,521c-5.27-16.08-11.56-31.92-23-44.65-2.17-2.39-5.69,1.16-3.54,3.54Z" style="fill:#5f63ac"/><path d="M845.32,582.72a222.14,222.14,0,0,0,98.83,31.92c3.2.25,3.19-4.75,0-5a216.55,216.55,0,0,1-96.31-31.24c-2.75-1.68-5.27,2.64-2.52,4.32Z" style="fill:#5f63ac"/><path d="M701.31,1060c9.09-7,18-14.68,28-20.3s21.28-7.7,32.66-8.33c20.89-1.16,42.47,1.65,62.39-6.27,3-1.17,1.67-6-1.33-4.82-21.13,8.4-44,4.41-66.09,6.46-9.94.92-19.71,3.1-28.59,7.78-10.68,5.64-20,13.85-29.58,21.16-2.52,1.93,0,6.28,2.52,4.32Z" style="fill:#f5f5ff"/><path d="M189.05,479.1,151.68,648.93l187.6-3.51L375.48,481A11.49,11.49,0,0,0,364,467l-164,3.08A11.5,11.5,0,0,0,189.05,479.1Z" style="fill:#f5f5ff"/><path d="M200.34,491.06,172.13,619.23A13.21,13.21,0,0,0,182.19,635a12.74,12.74,0,0,0,3.08.31l132.49-2.46a13.22,13.22,0,0,0,12.66-10.36L359,492.66a9.8,9.8,0,0,0-9.74-11.84l-139.56,2.56A9.78,9.78,0,0,0,200.34,491.06Z" style="fill:#fff"/><polygon points="331.03 689.92 151.67 648.94 339.27 645.42 518.63 686.41 331.03 689.92" style="fill:#9594c8"/><polygon points="201.16 653.78 342.05 652.12 411.16 667.91 279.89 671.78 201.16 653.78" style="fill:#f5f5ff"/><polygon points="360.79 677.97 399.39 677.51 421.47 682.56 383.66 683.2 360.79 677.97" style="fill:#f5f5ff"/><circle cx="275.84" cy="475.48" r="3.33" style="fill:#9594c8"/><path d="M220.32,508.65c3.22,0,3.22-5,0-5S217.1,508.65,220.32,508.65Z" style="fill:#9594c8"/><path d="M232.41,509.52c3.22,0,3.22-5,0-5S229.19,509.52,232.41,509.52Z" style="fill:#9594c8"/><path d="M241.68,508.33c3.22,0,3.22-5,0-5S238.46,508.33,241.68,508.33Z" style="fill:#9594c8"/><path d="M217.89,546.52c27.85-1.21,55.62,4,83.45,1.42,3.18-.29,3.21-5.29,0-5-27.83,2.54-55.6-2.63-83.45-1.42C214.68,541.66,214.67,546.66,217.89,546.52Z" style="fill:#9594c8"/><path d="M223,568.44c6.36,1.57,13.31.2,19.8.22a165,165,0,0,1,23.71,1.8c3.14.47,4.5-4.35,1.33-4.82a178,178,0,0,0-21.13-1.92c-7.16-.19-15.42,1.61-22.38-.1-3.12-.77-4.45,4-1.33,4.82Z" style="fill:#9594c8"/><path d="M213.76,593.23a842.63,842.63,0,0,0,100.26,0c3.2-.19,3.22-5.19,0-5a842.63,842.63,0,0,1-100.26,0c-3.21-.19-3.2,4.81,0,5Z" style="fill:#9594c8"/><polygon points="151.67 648.94 150.61 653.57 329.05 694.35 518.05 688.95 518.63 686.41 331.03 689.92 151.67 648.94" style="fill:#394480"/><polygon points="150.61 653.57 189.06 479.11 155.94 654.78 150.61 653.57" style="fill:#394480"/><path d="M221.22,651.7l42.46,10.54c13.69,3.39,27.55,6.41,40.92,11,1.22.41,1.74-1.52.53-1.93-13.37-4.54-27.23-7.56-40.92-11l-42.46-10.49c-1.25-.31-1.79,1.62-.53,1.93Z" style="fill:#9594c8"/><path d="M249.87,650.87l80.32,22v-1.93l-.91.27a1,1,0,0,0,.53,1.93l.87-.32a1,1,0,0,0,0-1.93l-80.32-22a1,1,0,1,0-.53,1.93h0Z" style="fill:#9594c8"/><path d="M277.25,649.37l76.43,24.53c1.23.39,1.75-1.54.53-1.93l-76.43-24.53c-1.23-.39-1.75,1.54-.53,1.93Z" style="fill:#9594c8"/><path d="M312.58,650.67c22.93,8.51,47.08,13.51,69.39,23.71,1.16.53,2.17-1.2,1-1.73-22.46-10.28-46.76-15.33-69.86-23.91-1.21-.45-1.73,1.48-.53,1.93Z" style="fill:#9594c8"/><path d="M369.44,469.05c-5.58-4.6-13.78-3.29-20.52-3.21q-14.91.17-29.82.91c-1.28.06-1.29,2.06,0,2q12-.58,24-.83c7.11-.13,19-2.3,24.88,2.55,1,.81,2.4-.6,1.41-1.42Z" style="fill:#9594c8"/><path d="M224.93,666.38q16.24,3.61,32.64,6.34c.63.1.9-.86.27-1q-16.41-2.72-32.64-6.33a.52.52,0,0,0-.27,1Z" style="fill:#fff"/><path d="M318.36,686.82c4.53,1,9.06,2.18,13.62,3.08,4.19.84,8.49-.09,12.69-.54.64-.07.64-1.07,0-1-4.46.48-8.87,1.35-13.3.38-4.26-.93-8.5-1.92-12.74-2.89a.52.52,0,0,0-.27,1Z" style="fill:#fff"/><path d="M1119.44,389.7c-11.25,4.81-23.14,7.22-35.12,9.23-10,1.67-20.11,3.06-30,5.35-14,3.24-33.68,6.83-46.22,16.37l-50-41a129.34,129.34,0,0,0,4.51-13.58c7.16-23.33-1.91-47-3.83-70.36-1.85-22.51,1-45.21,11.62-65.4,12.52-23.69,32.93-43.47,57.66-54.06a116.09,116.09,0,0,1,91.37,213.44Z" style="fill:#f9b17c"/><path d="M994.76,409.93l-2.35-2.39c.09-.09,9.08-8.88,40.93-39.71a175.17,175.17,0,0,1,42.08-30.57,22.78,22.78,0,0,1-2.74-4.44c-4.5-9.57-3.41-22.86-.19-34.82q-14,2.12-28.18,2.81c-10.61.55-18.29-1.55-23.84-4.83-12.44,44.19-45.94,96.1-46.29,96.64l-2.8-1.8c.36-.54,34.14-52.91,46.19-96.81a29,29,0,0,1-8.3-10.19c-6.48-13.08-3.61-30.22,1.13-35.81,3.22-3.81,7.18-5.18,10.33-3.58,7.17,3.66,7.58,20.08,1.16,46.26-.15.63-.31,1.27-.48,1.9,5.81,3.71,13.47,5.38,22.74,4.89a273.45,273.45,0,0,0,29.39-3c2.69-8.64,6.37-16.27,9.62-20.82,6.8-9.52,16.64-14.74,25.06-13.27,5.67,1,9.74,4.85,11.46,10.9a10.26,10.26,0,0,1-1.77,9.15c-5.24,7.34-20.37,13.35-41.73,17-3.36,11.67-4.74,24.87-.45,34a19.72,19.72,0,0,0,2.79,4.36c14.71-7,26.78-9.41,33.47-8.78,6.54.61,11.55,5,11.16,9.79-.22,2.64-3,11.11-29.42,9.24q-10-.71-15.9-6.12a172.5,172.5,0,0,0-42.15,30.3C1003.83,401.06,994.84,409.82,994.76,409.93Zm86.4-71.67c3.3,2.55,7.58,4,12.81,4.39,19.88,1.42,25.59-3.22,25.84-6.17.21-2.55-3.08-5.72-8.13-6.19C1105.25,329.7,1094.28,332.15,1081.16,338.26Zm24.24-74.82c-6.59,0-14.17,4.62-19.52,12.1-2.82,4-6.07,10.62-8.59,18.25,19.45-3.49,33.32-8.94,37.9-15.36a7,7,0,0,0,1.27-6.28c-1.37-4.82-4.42-7.76-8.81-8.52A13.06,13.06,0,0,0,1105.4,263.44Zm-87.47-16.36c-1.73,0-3.62,1.45-5,3-3.69,4.37-6.76,19.89-.68,32.16a25.55,25.55,0,0,0,6.23,8.1,2.15,2.15,0,0,1,.14-.54c6.88-28.06,4.61-40.41.57-42.47A2.75,2.75,0,0,0,1017.93,247.08Z" style="fill:#fff"/><path d="M1034.8,440.53q17.87,44,38.45,86.86c.63,1.3,2.55.17,1.93-1.12q-20.45-42.57-38.23-86.33C1036.42,438.62,1034.25,439.2,1034.8,440.53Z" style="fill:#f9b17c"/><path d="M1170.49,408.63a269.38,269.38,0,0,0,89.88,70.76c1.28.63,2.42-1.3,1.12-1.93a267.85,267.85,0,0,1-89.42-70.41C1171.15,405.94,1169.58,407.52,1170.49,408.63Z" style="fill:#f9b17c"/><path d="M1097.1,133.93A316.36,316.36,0,0,0,1056.57.54,1.11,1.11,0,0,0,1055,.23a1.11,1.11,0,0,0-.38,1.44,313.71,313.71,0,0,1,40.23,132.26c.1,1.43,2.34,1.44,2.23,0Z" style="fill:#f9b17c"/><path d="M1023.4,137.44,967,73c-1-1.09-2.52.5-1.58,1.58L1021.82,139C1022.77,140.1,1024.35,138.52,1023.4,137.44Z" style="fill:#f9b17c"/><path d="M952.83,189.82a400.42,400.42,0,0,1-81.2-53.42c-1.09-.93-2.68.65-1.58,1.58a403.32,403.32,0,0,0,81.63,53.78c1.28.64,2.42-1.29,1.13-1.93Z" style="fill:#f9b17c"/><path d="M912.75,248.59a162.46,162.46,0,0,1-32-1.88c-1.4-.22-2,1.93-.59,2.16a165.36,165.36,0,0,0,32.59,1.95C914.18,250.76,914.19,248.53,912.75,248.59Z" style="fill:#f9b17c"/><path d="M922.59,306.32c-36.84,16.48-77.19,21.3-116.9,25.85-1.41.17-1.43,2.4,0,2.24,40.13-4.6,80.8-9.51,118-26.16,1.31-.59.18-2.51-1.13-1.93Z" style="fill:#f9b17c"/><polygon points="1008.12 420.65 1016.33 427.38 986.73 457.75 924.32 413.65 950.73 373.63 958.11 379.67 1008.12 420.65" style="fill:#fff"/><path d="M986.93,459.93,922,414.08l28.32-42.92,8.82,7.2,59.63,48.88Zm-60.32-46.72,59.92,42.34,27.32-28L951.1,376.14Z" style="fill:#f9b17c"/><path d="M1009.57,434.38a1.09,1.09,0,0,1-.67-.23l-65.63-49.92a1.12,1.12,0,0,1,1.35-1.78l65.63,49.92a1.13,1.13,0,0,1,.21,1.57A1.11,1.11,0,0,1,1009.57,434.38Z" style="fill:#f9b17c"/><path d="M1001.87,443.64a1.09,1.09,0,0,1-.67-.23l-65.63-49.92a1.12,1.12,0,0,1,1.35-1.78l65.63,49.92a1.12,1.12,0,0,1,.19,1.57,1.1,1.1,0,0,1-.87.43Z" style="fill:#f9b17c"/><path d="M994.48,455a1.09,1.09,0,0,1-.68-.23l-65.63-49.91a1.12,1.12,0,1,1,1.21-1.88l.15.11L995.15,453a1.11,1.11,0,0,1-.67,2Z" style="fill:#f9b17c"/><path d="M1159.94,174.23c9.44-6.63,16.72-16.21,24.4-24.71l26.12-28.89c1-1.06-.62-2.65-1.58-1.58l-24.63,27.24c-8,8.84-15.61,19.11-25.43,26-1.17.82-.06,2.76,1.12,1.93Z" style="fill:#f9b17c"/><path d="M1201,235.14c8.26-.3,15.67-3.36,23.26-6.37a278.16,278.16,0,0,1,26.5-9,275,275,0,0,1,55.79-9.65c1.43-.1,1.44-2.34,0-2.24a279.88,279.88,0,0,0-52.39,8.63q-13,3.48-25.66,8.23c-9,3.39-17.72,7.79-27.5,8.16-1.44,0-1.44,2.29,0,2.23Z" style="fill:#f9b17c"/><path d="M1215.68,287c6.92,6.82,19.21,6.42,28.24,7.35,13.17,1.34,26.38,2.08,39.6,2.29a1.12,1.12,0,0,0,0-2.23c-11.08-.18-22.15-.72-33.19-1.69-5.34-.47-10.68-1-16-1.69-6-.75-12.51-1.12-17.07-5.61-1-1-2.61.57-1.58,1.58Z" style="fill:#f9b17c"/><path d="M1204,348.63a682.87,682.87,0,0,0,107.12,71.19c1.27.67,2.4-1.25,1.13-1.93a680,680,0,0,1-106.67-70.79c-1.11-.89-2.7.68-1.58,1.58Z" style="fill:#f9b17c"/><path d="M927.14,435.82c6.66,4.45,13.12,9.28,20.5,12.47a55.31,55.31,0,0,1,17.64,11.63c7.29,7.28,18.61-4,11.31-11.32a64.44,64.44,0,0,0-19.36-13.47c-7.94-3.52-14.8-8.31-22-13.12-8.59-5.74-16.61,8.12-8.08,13.81Z" style="fill:#f9b17c"/><path d="M52.49,972s10.23,37.52,28.28,47.66,53.33-3.92,57.08-25.07-6.71-47.53-6.71-47.53Z" style="fill:#9594c8"/><path d="M52.49,972S86,937.92,131.14,947.06C131.14,947.06,83.32,979.94,52.49,972Z" style="fill:#394480"/><path d="M130.76,959.68a16.57,16.57,0,1,0,23.08,4.08A16.58,16.58,0,0,0,130.76,959.68Zm15.33,21.92a10.18,10.18,0,1,1,2.51-14.18,10.18,10.18,0,0,1-2.51,14.18Z" style="fill:#9594c8"/><path d="M98,954.57s-78.66-38.61-55.46-73,61.57-4.77,78-7,65.19-38,24.28-44.78-18.43,12-71.91,29.48-89.07,34.38-65.61,60.89c12.38,14,46.27,17,63.31,24.87C85.88,952.1,84.13,965.49,98,954.57Z" style="fill:#394480"/><path d="M117.37,895.66c1.88-.65,5.67,2.67,7.41,3.32a12.86,12.86,0,0,0,6.17.79,9.73,9.73,0,0,0,7.74-5.59,2.56,2.56,0,0,0-1-3.47,2.41,2.41,0,0,0-.5-.21,36.88,36.88,0,0,0-11.32-1,2.53,2.53,0,0,0-2.48,2.58,2.57,2.57,0,0,0,.32,1.18l1.73,3.18,1.49-3.67h-.1l-.6,4.57,2.94-.66a2.55,2.55,0,0,0,1.74-3.07c-1.17-5.39-10.84-4.4-14.82-4.23-3.2.15-3.22,5.15,0,5,.86,0,9.79-.39,10,.56l1.75-3.08-2.94.66c-2.29.52-2.2,3.4-.6,4.57a3.87,3.87,0,0,0,4,.5,2.55,2.55,0,0,0,1.7-3.18,2.41,2.41,0,0,0-.21-.5l-1.72-3.18-2.16,3.77a32.68,32.68,0,0,1,10,.87l-1.5-3.67c-4,8.76-12.4-2.86-18.33-.81-3,1-1.72,5.87,1.33,4.82Z" style="fill:#394480"/><path d="M167.68,867.42c4.81-1.85,23.12-8.76,26.08-1.33l.64-2.43c-3.85,4.8-8.08,4.34-13.6,3.35-4.51-.82-9.18.8-13.53-.7v4.83a188.55,188.55,0,0,1,25.17-5.71l-1.89-4.61-8.26,3.82c-2.1,1-1.26,3.94.6,4.56a16.16,16.16,0,0,0,5.77.88l-.66-4.91c-4.65.68-9.45-2.33-14.28-2.06a24.59,24.59,0,0,0-10.36,3.13c-2.47,1.34-.79,5.39,1.93,4.56l6.5-2c3.07-.94,1.76-5.77-1.33-4.83l-6.5,2,1.93,4.57a18.51,18.51,0,0,1,13.51-1.9c3.52.84,6.24,1.88,9.93,1.34,2.82-.41,2.1-5-.67-4.91a8.27,8.27,0,0,1-4.44-.7l.59,4.57,8.26-3.81c2.78-1.29.64-5-1.92-4.57a190.09,190.09,0,0,0-25.17,5.7,2.53,2.53,0,0,0,0,4.83c3.12,1.07,5.78.73,9,.58,3.62-.17,6.83,1,10.38,1.24A15,15,0,0,0,198,867.15a2.55,2.55,0,0,0,.64-2.44c-4.69-11.77-23.93-5.36-32.23-2.16-3,1.15-1.68,6,1.33,4.82Z" style="fill:#394480"/><path d="M192.74,837.51a62.8,62.8,0,0,1,10.62-.35c2,.09,4.17.08,6,1,.87.47,1.44,1.27,2.4,1.62,3.06,1.09,7.63-2.62,8.12-5.65,1.65-10.28-21.28-2.41-24.57-1.17-2.54,1-2.31,4.87.67,4.91l17.11.26-.67-4.91a10.77,10.77,0,0,0-3.81,1.34c-2.07,1-1.27,3.9.6,4.57a6.73,6.73,0,0,0,5.85-.42c2.92-1.34.38-5.65-2.52-4.31l-2-.09.6,4.57,2.61-.84c2.83-.55,2.08-4.87-.66-4.91L196,832.87l.66,4.91a64.48,64.48,0,0,1,11.63-3.29c1.39-.24,3.94-.84,5.51-.61a8.28,8.28,0,0,0-.21,1.21c-.35-.29-.72-.56-1.09-.82-2.68-.94-4.67-1.9-7.6-2.1a64.59,64.59,0,0,0-12.12.3c-3.15.39-3.19,5.39,0,5Z" style="fill:#394480"/></svg>