<svg xmlns="http://www.w3.org/2000/svg" viewBox="0 0 965.53 1112.75"><defs><clipPath ><path d="M568,299.12a6.53,6.53,0,0,1,7,8.19l.1-.33,4.38,1.24A6.6,6.6,0,0,1,592.2,310h0l25.44-1.4.43,1.3L592.2,311a6.6,6.6,0,0,1-13.16.25,6.45,6.45,0,0,1,.07-1.7l-4.29-1.62v-.06a6.6,6.6,0,1,1-6.85-8.77Z" style="fill:none"/></clipPath></defs><rect x="34.79" y="584.59" width="268.42" height="438.92" style="fill:#c8dcf0"/><polygon points="303.2 1023.51 384.35 982.53 384.35 543.61 303.2 584.59 303.2 1023.51" style="fill:#eaf4fb"/><polygon points="384.35 543.83 115.92 543.83 34.79 584.59 303.2 584.59 384.35 543.83" style="fill:#eaf4fb"/><rect x="74.17" y="659.8" width="54.92" height="29.39" style="fill:#eaf4fb"/><rect x="139.15" y="659.81" width="54.92" height="29.39" style="fill:#eaf4fb"/><rect x="74.17" y="698.48" width="54.92" height="29.39" style="fill:#eaf4fb"/><rect x="139.15" y="698.48" width="54.92" height="29.39" style="fill:#eaf4fb"/><rect x="74.17" y="737.16" width="54.92" height="29.39" style="fill:#eaf4fb"/><rect x="139.15" y="737.16" width="54.92" height="29.39" style="fill:#eaf4fb"/><rect x="74.17" y="775.83" width="54.92" height="29.39" style="fill:#eaf4fb"/><rect x="139.15" y="775.83" width="54.92" height="29.39" style="fill:#eaf4fb"/><rect x="74.17" y="814.51" width="54.92" height="29.39" style="fill:#eaf4fb"/><rect x="139.15" y="814.5" width="54.92" height="29.39" style="fill:#eaf4fb"/><rect x="74.17" y="853.18" width="54.92" height="29.39" style="fill:#eaf4fb"/><rect x="139.15" y="853.18" width="54.92" height="29.39" style="fill:#eaf4fb"/><rect x="104.36" y="891.85" width="54.92" height="29.39" style="fill:#eaf4fb"/><rect x="169.33" y="891.85" width="54.92" height="29.39" style="fill:#eaf4fb"/><rect x="219.6" y="573" width="2" height="342.26" style="fill:#eaf4fb"/><rect x="231.48" y="573" width="2" height="342.26" style="fill:#eaf4fb"/><rect x="243.35" y="573" width="2" height="342.26" style="fill:#eaf4fb"/><rect x="255.23" y="573" width="2" height="342.26" style="fill:#eaf4fb"/><rect x="267.1" y="573" width="2" height="342.26" style="fill:#eaf4fb"/><rect x="278.98" y="573" width="2" height="342.26" style="fill:#eaf4fb"/><rect x="290.85" y="573" width="2" height="342.26" style="fill:#eaf4fb"/><polygon points="125.51 727.87 129.09 722.43 129.09 727.87 125.51 727.87" style="fill:#fff"/><polygon points="74.17 814.51 92.53 814.51 74.17 841.77 74.17 814.51" style="fill:#fff"/><polygon points="93.94 775.83 118.58 775.83 98.79 805.22 74.59 805.22 93.94 775.83" style="fill:#fff"/><polygon points="129.09 737.16 129.09 760.22 124.83 766.55 100.05 766.55 119.39 737.16 129.09 737.16" style="fill:#fff"/><polygon points="139.15 737.16 144.62 737.16 139.15 745.28 139.15 737.16" style="fill:#fff"/><polygon points="170.66 698.48 150.87 727.87 139.15 727.87 139.15 707.15 144.85 698.48 170.66 698.48" style="fill:#fff"/><polygon points="194.07 659.81 194.07 663.72 176.91 689.2 150.96 689.2 170.31 659.81 194.07 659.81" style="fill:#fff"/><polygon points="100.02 853.18 80.53 882.57 74.17 882.57 74.17 881.72 92.96 853.18 100.02 853.18" style="fill:#fff"/><polygon points="125.67 814.51 106.18 843.9 99.07 843.9 118.42 814.51 125.67 814.51" style="fill:#fff"/><polygon points="124.53 805.22 129.09 798.3 129.09 805.22 124.53 805.22" style="fill:#fff"/><polygon points="151.32 775.83 139.15 794.18 139.15 783.02 143.88 775.83 151.32 775.83" style="fill:#fff"/><polygon points="176.97 737.16 157.48 766.55 149.99 766.55 169.34 737.16 176.97 737.16" style="fill:#fff"/><polygon points="194.07 699.59 194.07 711.37 183.13 727.87 175.45 727.87 194.07 699.59" style="fill:#fff"/><rect x="669.07" y="720.5" width="179.16" height="292.96" style="fill:#c8dcf0"/><polygon points="902.39 693.3 723.23 693.3 669.07 720.5 848.23 720.5 902.39 693.3" style="fill:#eaf4fb"/><rect x="695.36" y="770.7" width="36.66" height="19.62" style="fill:#eaf4fb"/><rect x="738.73" y="770.7" width="36.66" height="19.62" style="fill:#eaf4fb"/><rect x="695.36" y="796.51" width="36.66" height="19.62" style="fill:#eaf4fb"/><rect x="738.73" y="796.51" width="36.66" height="19.62" style="fill:#eaf4fb"/><rect x="695.36" y="822.33" width="36.66" height="19.62" style="fill:#eaf4fb"/><rect x="738.73" y="822.33" width="36.66" height="19.62" style="fill:#eaf4fb"/><rect x="695.36" y="848.14" width="36.66" height="19.62" style="fill:#eaf4fb"/><rect x="738.73" y="848.14" width="36.66" height="19.62" style="fill:#eaf4fb"/><rect x="695.36" y="873.96" width="36.66" height="19.62" style="fill:#eaf4fb"/><rect x="738.73" y="873.96" width="36.66" height="19.62" style="fill:#eaf4fb"/><rect x="695.36" y="899.77" width="36.66" height="19.62" style="fill:#eaf4fb"/><rect x="738.73" y="899.77" width="36.66" height="19.62" style="fill:#eaf4fb"/><rect x="792.09" y="712.76" width="2" height="228.44" style="fill:#eaf4fb"/><rect x="800.02" y="712.76" width="2" height="228.44" style="fill:#eaf4fb"/><rect x="807.95" y="712.76" width="2" height="228.44" style="fill:#eaf4fb"/><rect x="815.87" y="712.76" width="2" height="228.44" style="fill:#eaf4fb"/><rect x="823.8" y="712.76" width="2" height="228.44" style="fill:#eaf4fb"/><rect x="831.72" y="712.76" width="2" height="228.44" style="fill:#eaf4fb"/><polygon points="729.63 816.13 732.01 812.5 732.01 816.13 729.63 816.13" style="fill:#fff"/><polygon points="695.36 873.96 707.61 873.96 695.36 892.15 695.36 873.96" style="fill:#fff"/><polygon points="708.55 848.14 725 848.14 711.79 867.76 695.64 867.76 708.55 848.14" style="fill:#fff"/><polygon points="732.01 822.33 732.01 837.72 729.17 841.95 712.63 841.95 725.54 822.33 732.01 822.33" style="fill:#fff"/><polygon points="738.73 822.33 742.38 822.33 738.73 827.75 738.73 822.33" style="fill:#fff"/><polygon points="759.76 796.51 746.55 816.13 738.73 816.13 738.73 802.3 742.53 796.51 759.76 796.51" style="fill:#fff"/><polygon points="775.39 770.7 775.39 773.31 763.93 790.32 746.61 790.32 759.53 770.7 775.39 770.7" style="fill:#fff"/><polygon points="712.61 899.77 699.6 919.38 695.36 919.38 695.36 918.82 707.9 899.77 712.61 899.77" style="fill:#fff"/><polygon points="729.73 873.96 716.72 893.58 711.98 893.58 724.89 873.96 729.73 873.96" style="fill:#fff"/><polygon points="728.97 867.76 732.01 863.14 732.01 867.76 728.97 867.76" style="fill:#fff"/><polygon points="746.85 848.14 738.73 860.39 738.73 852.94 741.89 848.14 746.85 848.14" style="fill:#fff"/><polygon points="763.97 822.33 750.96 841.95 745.97 841.95 758.88 822.33 763.97 822.33" style="fill:#fff"/><polygon points="775.39 797.25 775.39 805.12 768.08 816.13 762.96 816.13 775.39 797.25" style="fill:#fff"/><path d="M11.14,949.9a35.56,35.56,0,0,1,37.48-33.51c.33,0,.66.07,1,.1a44.16,44.16,0,0,1-.49-9.4,44.94,44.94,0,0,1,66.08-37,53.21,53.21,0,0,1,96.27,4.57,26,26,0,0,1,31.45-2.89,54.6,54.6,0,0,1,35.27-10.48h.51a48,48,0,0,1,94.65,3.37,21.94,21.94,0,0,1,32,16,51.16,51.16,0,0,1,62.35,31,32.44,32.44,0,0,1,9-.8A32,32,0,0,1,507,944.43a23.69,23.69,0,0,1-.33,3.15v.3c-.14.82-.33,1.78-.59,2.83v.17c-3.16,12.62-16.25,39.38-70.53,39.52-59.61.16-301.49-3.69-377.72-4.93a35.56,35.56,0,0,1-23.14-.38h0A35.47,35.47,0,0,1,11.14,949.9Z" style="fill:#fff"/><polygon points="410.11 1024.24 74.27 1024.24 0 984.58 335.84 984.58 410.11 1024.24" style="fill:#e6e8f4"/><polygon points="410.11 1024.24 74.27 1024.24 74.91 1105.34 410.71 1100.4 410.11 1024.24" style="fill:#9594c8"/><polygon points="0 984.58 74.27 1024.24 74.91 1105.34 0.6 1060.74 0 984.58" style="fill:#394480"/><polygon points="619.67 947.92 283.83 947.92 284.47 1101.83 620.28 1096.89 619.67 947.92" style="fill:#9594c8"/><polygon points="623.1 950.2 287.25 950.2 209.56 908.26 545.41 908.26 623.1 950.2" style="fill:#e6e8f4"/><polygon points="209.56 908.26 283.83 947.92 285.51 1025.42 210.17 984.41 209.56 908.26" style="fill:#394480"/><polygon points="783.83 871.83 447.98 871.83 373.72 832.17 709.56 832.17 783.83 871.83" style="fill:#e6e8f4"/><polygon points="783.83 871.83 447.98 871.83 448.62 1099.36 784.43 1094.42 783.83 871.83" style="fill:#9594c8"/><polygon points="373.72 832.17 447.98 871.83 448.58 947.92 374.32 908.33 373.72 832.17" style="fill:#394480"/><ellipse cx="614.17" cy="305.92" rx="307.19" ry="305.92" style="fill:#c8dcf0;opacity:0.4699999988079071;isolation:isolate"/><path d="M540,192.24a58.3,58.3,0,0,0-19.48,2.29,25,25,0,0,0-36.45-18.2,54.62,54.62,0,0,0-107.8-3.82,1.91,1.91,0,0,1-.58-.06,62.08,62.08,0,0,0-30.59,6.21,41.37,41.37,0,0,1-6.77-19.45h0A27.15,27.15,0,0,1,374,126.08a49.53,49.53,0,0,1,65.19-23.49A63.41,63.41,0,0,1,565,112.66a34.84,34.84,0,0,1,47.65,10.1A48.79,48.79,0,0,1,682.91,169a48.27,48.27,0,0,1-8.78,25.21s-1.24,2.67-5.45,6.45a49,49,0,0,1-22.21,12.66c-12.74,4.88-31.12,9.25-57.41,11A58.3,58.3,0,0,0,540,192.24Z" style="fill:#fff"/><path d="M156.61,281.66a30.47,30.47,0,0,1,32.12-28.72,8.17,8.17,0,0,1,.85.09,38.48,38.48,0,0,1,56.21-39.81,45.6,45.6,0,0,1,82.51,3.94,22.24,22.24,0,0,1,27-2.47,46.68,46.68,0,0,1,30.22-9l.43.05a41.1,41.1,0,0,1,81.12,2.87,18.78,18.78,0,0,1,27.42,13.7,43.87,43.87,0,0,1,53.44,26.61A27.41,27.41,0,0,1,581.55,277a20.25,20.25,0,0,1-.28,2.7V280c-.12.7-.28,1.52-.51,2.43v.14c-2.71,10.81-13.93,33.75-60.45,33.87-51.07.13-258.37-3.17-323.7-4.23a30.46,30.46,0,0,1-19.82-.32h0A30.39,30.39,0,0,1,156.61,281.66Z" style="fill:#fff"/><path d="M730.68,325.54a18.45,18.45,0,0,1,24-17.51,33.59,33.59,0,0,1,43.24-18.37,43,43,0,0,1,85.61,2.11,23.62,23.62,0,0,1,32.67,5.05,33,33,0,0,1,44.32,46.1h0a15.76,15.76,0,0,1-3.44,4.58,33.26,33.26,0,0,1-14.57,9.41c-17.76,8-52.43,15.33-119.25,9.8-24.42-2-86.29,1-91.53-34.91h0A18.31,18.31,0,0,1,730.68,325.54Z" style="fill:#fff"/><polygon points="283.83 1024.39 283.83 948.07 451.38 948.07 451.38 871.98 692.29 871.98 695.04 899.43 524.2 962.63 459.37 991.48 302.59 1082.65 74.27 1024.24 283.83 1024.39" style="fill:#9594c8"/><path d="M374.13,1065a41.84,41.84,0,0,1,44.1-39.44c.39,0,.78.09,1.17.12a51.84,51.84,0,0,1-.58-11.06A52.89,52.89,0,0,1,496.59,971a62.62,62.62,0,0,1,113.3,5.42,30.51,30.51,0,0,1,37-3.4,64.12,64.12,0,0,1,41.5-12.34l.6.06a56.44,56.44,0,0,1,111.38,3.94A25.83,25.83,0,0,1,838,983.53a60.25,60.25,0,0,1,73.38,36.55,38.22,38.22,0,0,1,10.55-.94,37.6,37.6,0,0,1,35.62,39.48v0a28.65,28.65,0,0,1-.39,3.7l-.06.35c-.16,1-.39,2.09-.7,3.34v.19c-3.72,14.85-19.12,46.35-83,46.51-70.14.18-354.8-4.34-444.51-5.8a41.86,41.86,0,0,1-27.23-.45h0A41.73,41.73,0,0,1,374.13,1065Z" style="fill:#fff"/><path d="M615.37,1051.59a24.08,24.08,0,0,1,22.83-25.27h0a24.29,24.29,0,0,1,7.35.74,43.94,43.94,0,0,1,55.25-27,56.26,56.26,0,0,1,112-3.13,30.88,30.88,0,0,1,43,4.35,43.15,43.15,0,0,1,61.08,57.17h0s-.84,2.48-4.19,6.21A43.39,43.39,0,0,1,894.32,1078c-22.66,11.62-67.44,23.64-155.11,21-32-1-112.63,7.27-122-39.31h0A23.79,23.79,0,0,1,615.37,1051.59Z" style="fill:#eaf4fb"/><path d="M656.76,335.06a77.67,77.67,0,0,0,11.69-21.76c4-12.14,10.26-18.2,11.76-11.77S672.68,329.59,656.76,335.06Z" style="fill:#f05d5c"/><path d="M703.08,298.87s19.86-12.76,21.61-27-7.12-13.76-8-5.43S712.23,290.5,703.08,298.87Z" style="fill:#f05d5c"/><path d="M705.77,265s-32.21-10-32.23-18.91,8.83-9.47,13.66-1.36S705.77,265,705.77,265Z" style="fill:#f05d5c"/><path d="M663.05,223.49s-14.21-23.31-27.53-21.41-2.51,6.54,2.24,8.07S657.92,218.36,663.05,223.49Z" style="fill:#f05d5c"/><path d="M618.92,211s-37.65,8.18-39.65,1.51,2.13-8.82,11.58-6S618.92,211,618.92,211Z" style="fill:#f05d5c"/><path d="M556.4,193s-15.6-21.25-28.46-20.54-9.09,6.91-1.8,7.91S556.4,193,556.4,193Z" style="fill:#f05d5c"/><path d="M479.57,175.66s-13.74-7.63-16.52-16.47,7-17.59,10.17-10.79,5.42,28.53,14.93,29.93C488.15,178.28,482.77,177.66,479.57,175.66Z" style="fill:#f05d5c"/><path d="M555.81,195.49c70.45,16.21,143.29,33,150.26,70.93,2.35,12.84-.44,24.94-8.3,36C677.16,331.35,626,347.16,597.47,354c-4.39,1.05-11.37,2.52-11.37,2.52v-.1c-.07,0-19.68,4.19-23.88,5.15-13.7,3.17-34.71,8.26-63.69,15.79l.43,2.56c27.5-7.14,48.09-12.16,61.82-15.36,9.24-2.14,29.55-6.19,37.83-8.13,28.67-6.74,80-22.53,101.31-52.52,8.28-11.62,11.22-24.39,8.74-37.94-7.28-39.61-81-56.57-152.22-73-25.49-5.87-51.37-11.82-74.36-18.83l1,3C505.68,184,530.93,189.77,555.81,195.49Z" style="fill:#f05d5c"/><path d="M680.3,161s-37.11,12.2-65-25.54L631.68,118l49.77,19.57Z" style="fill:#171338"/><path d="M615.34,135.47c-4.43-28.5-48.72-57.62-13.21-39.6,42.36,21.51,26-52.22,41.61-4.57s52.35-5.8,44.29,18.33,54.48,28,31.82,32.59C699.18,146.39,680.3,161,680.3,161S672.68,146.26,654,138.9C632.44,130.43,615.34,135.47,615.34,135.47Z" style="fill:#394480"/><ellipse cx="735.7" cy="134.84" rx="4.22" ry="4.2" style="fill:#f05d5c"/><ellipse cx="698.71" cy="87.82" rx="7.59" ry="7.56" style="fill:#f05d5c"/><ellipse cx="634.47" cy="62.57" rx="5.31" ry="5.29" style="fill:#f05d5c"/><ellipse cx="584.48" cy="77.85" rx="3.23" ry="3.21" style="fill:#f05d5c"/><path d="M633.82,89.56c.24-1.22,2.11-1.14,2.59,0,2.72,6.64,11.27,30.44,4.38,33.8-8.15,4-11.92-.17-10.81-4.33S632.51,96.37,633.82,89.56Z" style="fill:#171338"/><path d="M661.55,129.51c-.4,1.19-.23,3.78.68,4.64,2.3,2.2,9,6.67,9.78,4,2.46-8.13,11-21.91,12.07-26.78C684.78,108.17,664.87,119.66,661.55,129.51Z" style="fill:#171338"/><path d="M686.27,156.86s26.16-10.58,28.19-13.31c1.83-2.46-14.65-.9-19.4,2.79C691.75,148.9,686.18,153.28,686.27,156.86Z" style="fill:#171338"/><path d="M596.78,101.86s16.09,8,17,17c.87,9.23-.42,9-.42,9S597.08,105.12,596.78,101.86Z" style="fill:#171338"/><path d="M511.56,840.36c-3.73-3.77-29.62-51.7-28.11-54.71.81-1.61,11.51-19.28,21.34-35.45C513.39,736,521.32,723,521.32,723l22.51,11.62s-15.08,14.16-27,27.55c-8.13,9.14-14.8,17.93-14.18,21.6,1.51,9,18.57,46.45,28.73,50.22s15.17.18,17.26,8.48S515.29,844.13,511.56,840.36Z" style="fill:#e57e7e"/><path d="M548.8,850.39a4.67,4.67,0,0,0,3.42-5.66,4.73,4.73,0,0,0-.81-1.71c-2.81-3.76-7.68-9-12.14-8-6.8,1.57-22.48,5.74-26,2.21s-24.09-45.57-24.09-45.57l1.06-17.44-12.82,9.25a5.57,5.57,0,0,0-1.3,7.73l35.31,50.26S537.29,853.05,548.8,850.39Z" style="fill:#171338"/><path d="M655.22,858.66c-5.29,1.87-33.31.76-45.62-3.47s-27.23,6.66-36.51-.87c-3.48-2.83,2.77-11.71,4.64-27.31a170.29,170.29,0,0,0,.41-29.18,336.9,336.9,0,0,0-3.85-34.12l22.82,8.08s-.6,13.72-.57,27.13c0,10.35.43,20.5,1.78,24,3.1,8.12,8.09,17.27,19.72,18.44s44.86,5.25,45.47,8.91S660.51,856.82,655.22,858.66Z" style="fill:#e57e7e"/><path d="M578.46,817.27s4.47,31.31,12.53,33.24a167,167,0,0,0,20.33,3.82c10.17,1.23,28.12,2.37,31.1-2.27,3.15-4.92,2.83-12.94,8.09-10.38,1.71.83,17.58,10.44,18.32,11.69,2.81,4.81-9,7.35-31.28,6s-52.22-1.34-60.15-2.63c-4.74-.77-9.1-.07-6.29-9.71A304.07,304.07,0,0,0,578.46,817.27Z" style="fill:#171338"/><path d="M521.32,723l22.51,11.62s-7.6,6.06-19.52,19.45c-5.31-3.85-24.13,12.21-27,8.31C506,748.3,521.32,723,521.32,723Z" style="fill:#d37477"/><path d="M596.54,799c-5.57.93-11,12.71-18,11.33-1.07-18.24-4.27-46.54-4.27-46.54l22.82,8.08S596.51,785.54,596.54,799Z" style="fill:#d37477"/><path d="M605.53,501.48S596.74,628,594.26,641.66,551.62,750,551.62,750s-54.93-29.74-56.53-42.9,71.09-133.25,71.09-133.25l-8.26-72.38Z" style="fill:#171338"/><path d="M631.42,781.13c-2.58,3.09-24.71,4.24-45.68,1-10.63-1.62-21-4.36-28.3-8.53a8,8,0,0,1-4-6.12l-17.62-247-1.44-20.24,44.07-2.89S635.55,776.19,631.42,781.13Z" style="fill:#394480"/><g style="opacity:0.28999999165534973"><path d="M585.74,782.18c-10.63-1.62-21-4.36-28.3-8.53a8,8,0,0,1-4-6.12l-17.62-247,24-2.47Z" style="fill:#171338"/></g><path d="M579.34,279.66a10.88,10.88,0,0,1-1.67,2.15c-6.27,6.35-41.77,43.21-43.22,66.34-1.59,25.38,4.89,60.56-21.13,93.87s-64.79,2.57-54,35.35c7.4,22.54,61,68.2,83.65,34.59q3.43-5.08,6.91-11c10.9-18.68,54.8-24.36,79.88-21.3a11.62,11.62,0,0,0,12.78-8.91l29.14-35a11.55,11.55,0,0,0-1-7.85l-32.23-62.73a11.86,11.86,0,0,1-.94-2.51l-13-52.63a11.86,11.86,0,0,0-.94-2.51l-11.71-22.81a11.63,11.63,0,0,0-6.4-5.62l-12.26-4.4A11.64,11.64,0,0,0,579.34,279.66Z" style="fill:#171338"/><path d="M603.27,321.27s-12,27.29-7.9,29.27a47.12,47.12,0,0,0,7.9,2.93s-16.36,14.84-22.08,0l-2.78-5.36,4,.54a3.86,3.86,0,0,0,4.35-3.29v0l3-22.16Z" style="fill:#d37477"/><path d="M569.5,346.44,552.29,447.59l11.18-1.33s-37,9-40,4.78S569.5,346.44,569.5,346.44Z" style="fill:#f8b07b"/><path d="M515.19,374.38s26.69-21.68,36-25.66-12.15-17.34-20.65-2.2S515.19,374.38,515.19,374.38Z" style="fill:#f05d5c"/><path d="M628,302.42c.79,13.29,2.65,27.06,11.77,37.42,8.57,9.74,21.68,15.84,26.68,28.43.58,1.48,3,.83,2.41-.67-4.32-10.86-14.06-17.05-22.4-24.61-12-10.91-15-24.89-16-40.57-.1-1.6-2.6-1.61-2.5,0Z" style="fill:#171338"/><path d="M675.78,434.26c5,17.31-4.72,33.14-14.61,46.57-1,1.3,1.21,2.54,2.16,1.26,10.31-14,20.08-30.52,14.86-48.5a1.25,1.25,0,0,0-2.41.67Z" style="fill:#171338"/><path d="M515.47,440.43c-14.72,13.23-34,19.46-52.83,11-1.46-.65-2.73,1.5-1.26,2.16,19.89,8.93,40.21,2.67,55.86-11.4,1.2-1.08-.58-2.84-1.77-1.77Z" style="fill:#171338"/><path d="M580.42,278.22s-6.78,9.08-8.14,17.51-3,33.86,8.23,37c9.35,2.64,20.53-2.33,31.36-12.77,0,0,9.81,4.71,12.18-6.41s-19-37.06-19-37.06Z" style="fill:#e37d80"/><path d="M572.68,274.76c-1,2.57-.64,11.75,6.35,15.24s32.52-1.34,34.65,18.72,17,54.42.16,62.76c-20.65,10.2,41.07,59.57,15.07,73.48-28.24,15.11-67.85,37.49-67.85,37.49L575,502.66s74.63-13.48,91.45-35c16-20.44,22.24-49.16,0-81.68s-33.62-33.57-30.85-77.19-22.85-45-40.35-41.21C582.23,270.36,581.4,252.66,572.68,274.76Z" style="fill:#171338"/><ellipse cx="586.81" cy="304.74" rx="3.31" ry="1.6" transform="translate(115.65 768.66) rotate(-72)" style="fill:#171338"/><ellipse cx="575.31" cy="301.55" rx="3.31" ry="1.6" transform="translate(110.74 755.52) rotate(-72)" style="fill:#171338"/><path d="M649.76,518.06l4.14,24.06-6.15,13.1s.08,2.43,1.66,2.5,11-17.83,11-17.83L655,526.36Z" style="fill:#e57e7e"/><path d="M652.89,523.56l4.29,22.24-7.63,10.57s3.25,1.51,5.28-.73S663.36,537,663.36,537L655.59,512l-10-1.32s-4.12,12.58-3.56,16.17-.61,12-.61,12,3,1.7,4.68.2.55-12.84.55-12.84l3.5,8.73-4,15.55s.21,4.19,1.66,3.82,9.34-16.76,9.34-16.76l-5.09-11" style="fill:#e57e7e"/><polygon points="655.54 512.59 645.5 511.27 633.1 467.24 626.66 444.36 640.53 445.35 644.76 464.31 655.54 512.59" style="fill:#e57e7e"/><path d="M578.16,304.77s-5,8.49-8.54,10.38,6.75,5.32,7.48,3.88S578.16,304.77,578.16,304.77Z" style="fill:#e85a5b"/><path d="M583.76,329.37a8.7,8.7,0,0,1-4.84-1.48.48.48,0,0,1-.12-.67l0,0a.5.5,0,0,1,.7-.1h0c.24.18,6,4.35,11.84-3.22a.51.51,0,0,1,.71-.09.52.52,0,0,1,.08.71C589.17,328.33,586.16,329.37,583.76,329.37Z" style="fill:#171338"/><ellipse cx="591.77" cy="317.9" rx="5.45" ry="2.33" transform="translate(-45.92 106.7) rotate(-9.92)" style="fill:#e85a5b"/><path d="M568,299.12a6.53,6.53,0,0,1,7,8.19l.1-.33,4.38,1.24A6.6,6.6,0,0,1,592.2,310h0l25.44-1.4.43,1.3L592.2,311a6.6,6.6,0,0,1-13.16.25,6.45,6.45,0,0,1,.07-1.7l-4.29-1.62v-.06a6.6,6.6,0,1,1-6.85-8.77Z" style="fill:#171338"/><path d="M592.56,302.08a.5.5,0,0,1-.47-.31c-1.64-4-6-2.95-6.16-2.9a.52.52,0,1,1-.26-1c.06,0,5.38-1.36,7.35,3.49a.51.51,0,0,1-.28.66A.64.64,0,0,1,592.56,302.08Z" style="fill:#e85a5b"/><path d="M580.51,297.05a.5.5,0,0,1-.42-.22c-.08-.12-2-2.85-6.35-.65a.5.5,0,0,1-.69-.17.51.51,0,0,1,.17-.69l.07,0c5.14-2.62,7.61.95,7.63,1a.49.49,0,0,1-.13.69h0A.43.43,0,0,1,580.51,297.05Z" style="fill:#e85a5b"/><g style="clip-path:url(#a)"><polygon points="591.02 304.99 577.74 314.12 578.75 315.41 592.55 305.57 591.02 304.99" style="fill:#394480"/><polygon points="592.77 306.25 579.55 315.58 579.59 316.57 593.39 306.74 592.77 306.25" style="fill:#394480"/><polygon points="574.34 299.72 561.05 308.84 562.06 310.13 575.87 300.3 574.34 299.72" style="fill:#394480"/><polygon points="576.08 300.98 562.86 310.31 562.9 311.3 576.71 301.46 576.08 300.98" style="fill:#394480"/></g><path d="M644.76,464.3a21.87,21.87,0,0,0-11.66,2.93l-6.42-22.88,13.87,1Z" style="fill:#d37477"/><path d="M612.93,349.53s47.23,91.66,43.1,99.88S628.12,447,607.19,461.2l-18.51-67.88Z" style="fill:#f8b07b"/><path d="M636.4,538.66a65.63,65.63,0,0,1-6.65,2.22l-.49.14-.48.13c-.67.18-1.33.35-2,.51a129,129,0,0,1-12.93,2.4l-.51.07-.5.06c-5.14.68-10.57,1.15-16.14,1.48h-1c-6.62.36-13.43.5-20.18.49h-1c-7,0-13.86-.22-20.44-.51h-1c-6.11-.28-11.92-.64-17.22-1h-1c-8.27-.61-15.23-1.27-20-1.77l-.49-.06h-.54c-3.92-.42-6.16-.7-6.16-.7,10.81-24.67,21.77-56.64,31.4-87.6.24-.76.47-1.52.71-2.27h0l.62-2c.73-2.38,1.45-4.74,2.16-7.1,4.07-13.49,7.84-26.49,11.16-38.39l1-3.48c.33-1.19.66-2.37,1-3.53,8.52-30.54,14-52.41,14-52.41h11.87s-.6,8,5,9.58l.48.13.49.08a8.92,8.92,0,0,0,1.16.08,10.32,10.32,0,0,0,7-2.29c.18-.15.35-.31.51-.47s.39-.39.57-.59c1.43-1.55,2.38-3.28,3.76-4.31l6.76,1.11.5.08.49.08,4.65.74C602.05,434.48,636.4,538.66,636.4,538.66Z" style="fill:#f48a77"/><path d="M548.11,449.52c-5,36.62-10,73.88-12.74,95h-.5c-8.27-.61-15.23-1.27-20-1.77l-.49-.06c8.31-19.75,22.94-58.37,25.41-90.62h0l.62-2c.73-2.38,1.45-4.74,2.16-7.1l5.16,6Z" style="fill:#f48a77"/><path d="M575,546.19h-.48c-7,0-13.86-.22-20.44-.51h-.51c.72-17.47,2.22-49.75,4.67-84.28l.48.57,15.08,17.66.45.53C573.79,506.05,573.88,529.9,575,546.19Z" style="fill:#f48a77"/><path d="M572.32,345.34c-6.43,25.49-11,72.54-14.08,116l-.44-.51L548.55,450l-.44-.51c2.28-16.75,4.55-33.36,6.59-48.24.33-1.19.66-2.37,1-3.53,8.52-30.54,14-52.41,14-52.41Z" style="fill:#f48a77"/><path d="M590.62,499.29l-.54-.62-15.31-17.94-.52-.6c.92-50.58,3.93-109.07,5.35-134.79h1.91s-.6,8,5,9.58l.48.13C581,389.6,585.68,452.83,590.62,499.29Z" style="fill:#f48a77"/><path d="M613.33,544.11l-.5.06c-5.14.68-10.57,1.15-16.14,1.48h-.51c-1.37-10.21-3.49-26.81-5.56-46.39l.6.71,14.46,16.93.67.78C608.32,526.56,610.68,535.41,613.33,544.11Z" style="fill:#f48a77"/><path d="M629.26,541l-.48.13c-.67.18-1.33.35-2,.51l-19.73-23.11-.72-.85c-15.47-68.49-12.11-139.35-10.12-165.23.2-.19.39-.39.57-.59,1.43-1.55,2.38-3.28,3.76-4.31l6.74,1.11.5.08C593.8,401.22,622.45,515.34,629.26,541Z" style="fill:#f48a77"/><path d="M540.36,450.07c-2,32.51-17,72.42-25.54,92.69l-.49-.06h-.54c8.08-19.24,22.27-56.64,25.24-88.3.24-.76.47-1.52.71-2.27h0C540,451.39,540.15,450.73,540.36,450.07Z" style="fill:#f05d5c"/><path d="M555.68,397.75c-2.18,15.9-4.66,34-7.14,52.28-5,36.45-10,73.48-12.68,94.57h-1c2.75-21.26,7.81-58.76,12.81-95.53,2.08-15.28,4.15-30.43,6-44.24l1-3.48C555,400.09,555.36,398.91,555.68,397.75Z" style="fill:#f05d5c"/><path d="M572.85,345.34c-6.44,25.46-11,72.87-14.13,116.6-2.42,34.31-3.92,66.35-4.64,83.73h-1c.72-17.56,2.24-50.06,4.71-84.77,3.08-43.33,7.64-90.1,14-115.52Z" style="fill:#f05d5c"/><path d="M575.51,546.19h-1c-1.12-16.42-1.2-40.47-.72-66.58.92-50.45,3.89-108.61,5.3-134.26h1c-1.42,25.81-4.43,84.7-5.33,135.39C574.32,506.46,574.4,530.07,575.51,546.19Z" style="fill:#f05d5c"/><path d="M591.22,500c2,19.26,4.12,35.57,5.47,45.65h-1c-1.39-10.35-3.52-27.19-5.61-47-4.89-46.47-9.51-109.38-3.55-143.75l.48.13.49.08C581.5,389.71,586.29,453.46,591.22,500Z" style="fill:#f05d5c"/><path d="M613.84,544l-.51.07-.5.06q-4.14-13.5-7.18-27.27c-15-67.57-11.92-137.71-10-164,.18-.15.35-.31.51-.47s.39-.39.57-.59c-2,25.5-5.44,97.66,10.27,166.67C609,527.11,611.25,535.66,613.84,544Z" style="fill:#f05d5c"/><path d="M629.75,540.86l-.49.14-.48.13c-6.77-25.69-35.33-140-21.5-192.5l.5.08.49.08C594.41,400.88,623,515.16,629.75,540.86Z" style="fill:#f05d5c"/><path d="M598.39,584.59s-20.06-34-35.88-39.28S539,550,556.67,556.44,598.39,584.59,598.39,584.59Z" style="fill:#f05d5c"/><path d="M540,559.14s-51,3.81-59.78-8.23,2.94-10.91,9.41-7.08S524,558.33,540,559.14Z" style="fill:#f05d5c"/><path d="M483.73,522.66s-.53-34.47-12.87-49.51-14.11,1.34-7.65,11.29S478.39,512.45,483.73,522.66Z" style="fill:#f05d5c"/><path d="M455.37,491.41s-38.51-20.8-31.54-48.48c3.91-15.52,18.32-11.63,12.93,0C434,448.82,438.13,476.15,455.37,491.41Z" style="fill:#f05d5c"/><path d="M456.68,405.79s37.93-30.31,48.06-14.62c6.93,10.73-.11,5.69-15.32,8.36S456.68,405.79,456.68,405.79Z" style="fill:#f05d5c"/><ellipse cx="724.47" cy="856.79" rx="19" ry="3.42" style="fill:#f05d5c"/><path d="M725.22,708.23s-39.23-8.37-46.87-23.57S709.78,680.89,725.22,708.23Z" style="fill:#f05d5c"/><path d="M698,656.81s-2.93-50-20.65-54.13-8.62,7.61,0,20.49S698,656.81,698,656.81Z" style="fill:#f05d5c"/><path d="M671.68,629.33s-48.47-3.82-53.24-14.35,32.49,0,42.87,7.17" style="fill:#f05d5c"/><path d="M737,748.35C728.37,694,695.46,620.52,587.79,578.87c-130.29-50.39-147-105.74-145.32-134.21,1.93-33.38,30.06-57.89,56.83-64.84h.07l-.71-2.49h0c-27.69,7.19-56.76,32.58-58.77,67.19-1.69,29.2,15.15,85.81,147,136.8,106.44,41.15,139,113.72,147.55,167.34,9.29,58.21-6.85,107.33-7,107.82l2.46.82C730.05,856.81,746.37,807.17,737,748.35Z" style="fill:#f05d5c"/></svg>