<svg xmlns="http://www.w3.org/2000/svg" viewBox="0 0 1984.3 1984.3"><defs><clipPath ><path d="M1219.4,791.7H806.3a48.12,48.12,0,0,0-48.1,48.1v477.3h509.4V839.9A48.29,48.29,0,0,0,1219.4,791.7Z" style="fill:none"/></clipPath></defs><rect x="621.5" y="356.4" width="780.6" height="961.8" style="fill:#f5f5ff"/><circle cx="1020.7" cy="610.5" r="88.5" transform="translate(-132.73 900.56) rotate(-45)" style="fill:#b5b5e2;opacity:0.28999999165534973;isolation:isolate"/><rect x="274.9" y="587.2" width="95.8" height="38.5" style="fill:none;stroke:#f5f5ff;stroke-miterlimit:10;stroke-width:3px"/><rect x="370.7" y="587.2" width="95.8" height="38.5" style="fill:none;stroke:#f5f5ff;stroke-miterlimit:10;stroke-width:3px"/><rect x="466.5" y="587.2" width="95.8" height="38.5" style="fill:none;stroke:#f5f5ff;stroke-miterlimit:10;stroke-width:3px"/><polyline points="738.6 625.7 562.4 625.7 562.4 587.2 658.2 587.2" style="fill:none;stroke:#f5f5ff;stroke-miterlimit:10;stroke-width:3px"/><rect x="335.8" y="625.7" width="95.8" height="38.5" style="fill:none;stroke:#f5f5ff;stroke-miterlimit:10;stroke-width:3px"/><rect x="431.7" y="625.7" width="95.8" height="38.5" style="fill:none;stroke:#f5f5ff;stroke-miterlimit:10;stroke-width:3px"/><rect x="527.5" y="625.7" width="95.8" height="38.5" style="fill:#f5f5ff;stroke:#f5f5ff;stroke-miterlimit:10"/><polyline points="274.9 664.2 370.6 664.2 370.6 702.6 191.6 702.6" style="fill:none;stroke:#f5f5ff;stroke-miterlimit:10;stroke-width:3px"/><rect x="370.7" y="664.2" width="95.8" height="38.5" style="fill:none;stroke:#f5f5ff;stroke-miterlimit:10;stroke-width:3px"/><rect x="466.5" y="664.2" width="95.8" height="38.5" style="fill:none;stroke:#f5f5ff;stroke-miterlimit:10;stroke-width:3px"/><polyline points="658.2 702.6 562.4 702.6 562.4 664.2 680.6 664.2" style="fill:none;stroke:#f5f5ff;stroke-miterlimit:10;stroke-width:3px"/><polyline points="274.9 702.6 335.8 702.6 335.8 741.1 274.9 741.1" style="fill:none;stroke:#f5f5ff;stroke-miterlimit:10;stroke-width:3px"/><rect x="335.8" y="702.6" width="95.8" height="38.5" style="fill:none;stroke:#f5f5ff;stroke-miterlimit:10;stroke-width:3px"/><rect x="431.7" y="702.6" width="95.8" height="38.5" style="fill:none;stroke:#f5f5ff;stroke-miterlimit:10;stroke-width:3px"/><rect x="527.5" y="702.6" width="95.8" height="38.5" style="fill:#f5f5ff;stroke:#f5f5ff;stroke-miterlimit:10"/><rect x="274.9" y="741.1" width="95.8" height="38.5" style="fill:none;stroke:#f5f5ff;stroke-miterlimit:10;stroke-width:3px"/><rect x="370.7" y="741.1" width="95.8" height="38.5" style="fill:#f5f5ff;stroke:#f5f5ff;stroke-miterlimit:10"/><rect x="466.5" y="741.1" width="95.8" height="38.5" style="fill:none;stroke:#f5f5ff;stroke-miterlimit:10;stroke-width:3px"/><rect x="562.4" y="741.1" width="95.8" height="38.5" style="fill:none;stroke:#f5f5ff;stroke-miterlimit:10;stroke-width:3px"/><polyline points="274.9 779.6 335.8 779.6 335.8 818 274.9 818" style="fill:none;stroke:#f5f5ff;stroke-miterlimit:10;stroke-width:3px"/><rect x="335.8" y="779.6" width="95.8" height="38.5" style="fill:none;stroke:#f5f5ff;stroke-miterlimit:10;stroke-width:3px"/><rect x="431.7" y="779.6" width="95.8" height="38.5" style="fill:none;stroke:#f5f5ff;stroke-miterlimit:10;stroke-width:3px"/><rect x="527.5" y="779.6" width="95.8" height="38.5" style="fill:none;stroke:#f5f5ff;stroke-miterlimit:10;stroke-width:3px"/><polyline points="260.2 356.5 370.6 356.5 370.6 394.9 274.9 394.9" style="fill:none;stroke:#f5f5ff;stroke-miterlimit:10;stroke-width:3px"/><rect x="466.5" y="356.5" width="95.8" height="38.5" style="fill:none;stroke:#f5f5ff;stroke-miterlimit:10;stroke-width:3px"/><polyline points="562.4 394.9 562.4 356.5 658.2 356.5" style="fill:none;stroke:#f5f5ff;stroke-miterlimit:10;stroke-width:3px"/><rect x="274.9" y="394.9" width="60.9" height="38.5" style="fill:none;stroke:#f5f5ff;stroke-miterlimit:10;stroke-width:3px"/><rect x="335.8" y="394.9" width="95.8" height="38.5" style="fill:none;stroke:#f5f5ff;stroke-miterlimit:10;stroke-width:3px"/><rect x="431.7" y="394.9" width="95.8" height="38.5" style="fill:none;stroke:#f5f5ff;stroke-miterlimit:10;stroke-width:3px"/><rect x="527.5" y="394.9" width="95.8" height="38.5" style="fill:none;stroke:#f5f5ff;stroke-miterlimit:10;stroke-width:3px"/><polyline points="274.9 433.4 370.6 433.4 370.6 471.9 274.9 471.9" style="fill:none;stroke:#f5f5ff;stroke-miterlimit:10;stroke-width:3px"/><rect x="370.7" y="433.4" width="95.8" height="38.5" style="fill:#f5f5ff;stroke:#f5f5ff;stroke-miterlimit:10"/><rect x="466.5" y="433.4" width="95.8" height="38.5" style="fill:none;stroke:#f5f5ff;stroke-miterlimit:10;stroke-width:3px"/><polyline points="658.2 471.9 562.4 471.9 562.4 433.4 708.6 433.4" style="fill:none;stroke:#f5f5ff;stroke-miterlimit:10"/><polyline points="262 471.9 335.8 471.9 335.8 510.3 274.9 510.3" style="fill:none;stroke:#f5f5ff;stroke-miterlimit:10;stroke-width:3px"/><rect x="335.8" y="471.9" width="95.8" height="38.5" style="fill:none;stroke:#f5f5ff;stroke-miterlimit:10;stroke-width:3px"/><rect x="431.7" y="471.9" width="95.8" height="38.5" style="fill:none;stroke:#f5f5ff;stroke-miterlimit:10;stroke-width:3px"/><rect x="527.5" y="471.9" width="95.8" height="38.5" style="fill:#f5f5ff;stroke:#f5f5ff;stroke-miterlimit:10"/><polyline points="215.3 510.3 370.6 510.3 370.6 548.8 274.9 548.8" style="fill:none;stroke:#f5f5ff;stroke-miterlimit:10;stroke-width:3px"/><rect x="370.7" y="510.3" width="95.8" height="38.5" style="fill:none;stroke:#f5f5ff;stroke-miterlimit:10;stroke-width:3px"/><rect x="466.5" y="510.3" width="95.8" height="38.5" style="fill:none;stroke:#f5f5ff;stroke-miterlimit:10;stroke-width:3px"/><rect x="562.4" y="510.3" width="95.8" height="38.5" style="fill:none;stroke:#f5f5ff;stroke-miterlimit:10;stroke-width:3px"/><polyline points="274.9 548.8 335.8 548.8 335.8 587.2 274.9 587.2" style="fill:none;stroke:#f5f5ff;stroke-miterlimit:10;stroke-width:3px"/><rect x="335.8" y="548.8" width="95.8" height="38.5" style="fill:none;stroke:#f5f5ff;stroke-miterlimit:10;stroke-width:3px"/><rect x="431.7" y="548.8" width="95.8" height="38.5" style="fill:#f5f5ff;stroke:#f5f5ff;stroke-miterlimit:10"/><polyline points="623.3 587.2 527.5 587.2 527.5 548.8 623.3 548.8" style="fill:none;stroke:#f5f5ff;stroke-miterlimit:10;stroke-width:3px"/><rect x="274.9" y="1048.8" width="95.8" height="38.5" style="fill:none;stroke:#f5f5ff;stroke-miterlimit:10;stroke-width:3px"/><rect x="370.7" y="1048.8" width="95.8" height="38.5" style="fill:none;stroke:#f5f5ff;stroke-miterlimit:10;stroke-width:3px"/><rect x="466.5" y="1048.8" width="95.8" height="38.5" style="fill:none;stroke:#f5f5ff;stroke-miterlimit:10;stroke-width:3px"/><polyline points="738.6 1087.2 562.4 1087.2 562.4 1048.8 658.2 1048.8" style="fill:none;stroke:#f5f5ff;stroke-miterlimit:10;stroke-width:3px"/><rect x="335.8" y="1087.2" width="95.8" height="38.5" style="fill:none;stroke:#f5f5ff;stroke-miterlimit:10;stroke-width:3px"/><rect x="431.7" y="1087.2" width="95.8" height="38.5" style="fill:none;stroke:#f5f5ff;stroke-miterlimit:10;stroke-width:3px"/><rect x="527.5" y="1087.2" width="95.8" height="38.5" style="fill:#f5f5ff;stroke:#f5f5ff;stroke-miterlimit:10"/><polyline points="274.9 1125.7 370.6 1125.7 370.6 1164.2 191.6 1164.2" style="fill:none;stroke:#f5f5ff;stroke-miterlimit:10;stroke-width:3px"/><rect x="370.7" y="1125.7" width="95.8" height="38.5" style="fill:none;stroke:#f5f5ff;stroke-miterlimit:10;stroke-width:3px"/><rect x="466.5" y="1125.7" width="95.8" height="38.5" style="fill:none;stroke:#f5f5ff;stroke-miterlimit:10;stroke-width:3px"/><polyline points="658.2 1164.2 562.4 1164.2 562.4 1125.7 680.6 1125.7" style="fill:none;stroke:#f5f5ff;stroke-miterlimit:10;stroke-width:3px"/><polyline points="274.9 1164.2 335.8 1164.2 335.8 1202.6 274.9 1202.6" style="fill:none;stroke:#f5f5ff;stroke-miterlimit:10;stroke-width:3px"/><rect x="335.8" y="1164.2" width="95.8" height="38.5" style="fill:none;stroke:#f5f5ff;stroke-miterlimit:10;stroke-width:3px"/><rect x="431.7" y="1164.2" width="95.8" height="38.5" style="fill:none;stroke:#f5f5ff;stroke-miterlimit:10;stroke-width:3px"/><rect x="527.5" y="1164.2" width="95.8" height="38.5" style="fill:#f5f5ff;stroke:#f5f5ff;stroke-miterlimit:10"/><rect x="274.9" y="1202.6" width="95.8" height="38.5" style="fill:none;stroke:#f5f5ff;stroke-miterlimit:10;stroke-width:3px"/><rect x="370.7" y="1202.6" width="95.8" height="38.5" style="fill:#f5f5ff;stroke:#f5f5ff;stroke-miterlimit:10"/><rect x="466.5" y="1202.6" width="95.8" height="38.5" style="fill:none;stroke:#f5f5ff;stroke-miterlimit:10;stroke-width:3px"/><rect x="562.4" y="1202.6" width="95.8" height="38.5" style="fill:none;stroke:#f5f5ff;stroke-miterlimit:10;stroke-width:3px"/><polyline points="274.9 1241.1 335.8 1241.1 335.8 1279.6 274.9 1279.6" style="fill:none;stroke:#f5f5ff;stroke-miterlimit:10;stroke-width:3px"/><rect x="335.8" y="1241.1" width="95.8" height="38.5" style="fill:none;stroke:#f5f5ff;stroke-miterlimit:10;stroke-width:3px"/><rect x="431.7" y="1241.1" width="95.8" height="38.5" style="fill:none;stroke:#f5f5ff;stroke-miterlimit:10;stroke-width:3px"/><rect x="527.5" y="1241.1" width="95.8" height="38.5" style="fill:none;stroke:#f5f5ff;stroke-miterlimit:10;stroke-width:3px"/><polyline points="260.2 818 370.6 818 370.6 856.5 274.9 856.5" style="fill:none;stroke:#f5f5ff;stroke-miterlimit:10;stroke-width:3px"/><rect x="466.5" y="818" width="95.8" height="38.5" style="fill:none;stroke:#f5f5ff;stroke-miterlimit:10;stroke-width:3px"/><polyline points="562.4 856.5 562.4 818 658.2 818" style="fill:none;stroke:#f5f5ff;stroke-miterlimit:10;stroke-width:3px"/><rect x="274.9" y="856.5" width="60.9" height="38.5" style="fill:none;stroke:#f5f5ff;stroke-miterlimit:10;stroke-width:3px"/><rect x="335.8" y="856.5" width="95.8" height="38.5" style="fill:none;stroke:#f5f5ff;stroke-miterlimit:10;stroke-width:3px"/><rect x="431.7" y="856.5" width="95.8" height="38.5" style="fill:none;stroke:#f5f5ff;stroke-miterlimit:10;stroke-width:3px"/><rect x="527.5" y="856.5" width="95.8" height="38.5" style="fill:none;stroke:#f5f5ff;stroke-miterlimit:10;stroke-width:3px"/><polyline points="274.9 894.9 370.6 894.9 370.6 933.4 274.9 933.4" style="fill:none;stroke:#f5f5ff;stroke-miterlimit:10;stroke-width:3px"/><rect x="370.7" y="894.9" width="95.8" height="38.5" style="fill:#f5f5ff;stroke:#f5f5ff;stroke-miterlimit:10"/><rect x="466.5" y="894.9" width="95.8" height="38.5" style="fill:none;stroke:#f5f5ff;stroke-miterlimit:10;stroke-width:3px"/><polyline points="658.2 933.4 562.4 933.4 562.4 894.9 708.6 894.9" style="fill:none;stroke:#f5f5ff;stroke-miterlimit:10"/><polyline points="262 933.4 335.8 933.4 335.8 971.9 274.9 971.9" style="fill:none;stroke:#f5f5ff;stroke-miterlimit:10;stroke-width:3px"/><rect x="335.8" y="933.4" width="95.8" height="38.5" style="fill:none;stroke:#f5f5ff;stroke-miterlimit:10;stroke-width:3px"/><rect x="431.7" y="933.4" width="95.8" height="38.5" style="fill:none;stroke:#f5f5ff;stroke-miterlimit:10;stroke-width:3px"/><rect x="527.5" y="933.4" width="95.8" height="38.5" style="fill:#f5f5ff;stroke:#f5f5ff;stroke-miterlimit:10"/><polyline points="215.3 971.9 370.6 971.9 370.6 1010.3 274.9 1010.3" style="fill:none;stroke:#f5f5ff;stroke-miterlimit:10;stroke-width:3px"/><rect x="370.7" y="971.9" width="95.8" height="38.5" style="fill:none;stroke:#f5f5ff;stroke-miterlimit:10;stroke-width:3px"/><rect x="466.5" y="971.9" width="95.8" height="38.5" style="fill:none;stroke:#f5f5ff;stroke-miterlimit:10;stroke-width:3px"/><rect x="562.4" y="971.9" width="95.8" height="38.5" style="fill:none;stroke:#f5f5ff;stroke-miterlimit:10;stroke-width:3px"/><polyline points="274.9 1010.3 335.8 1010.3 335.8 1048.8 274.9 1048.8" style="fill:none;stroke:#f5f5ff;stroke-miterlimit:10;stroke-width:3px"/><rect x="335.8" y="1010.3" width="95.8" height="38.5" style="fill:none;stroke:#f5f5ff;stroke-miterlimit:10;stroke-width:3px"/><rect x="431.7" y="1010.3" width="95.8" height="38.5" style="fill:#f5f5ff;stroke:#f5f5ff;stroke-miterlimit:10"/><polyline points="623.3 1048.8 527.5 1048.8 527.5 1010.3 623.3 1010.3" style="fill:none;stroke:#f5f5ff;stroke-miterlimit:10;stroke-width:3px"/><rect x="1334.2" y="587.2" width="95.8" height="38.5" style="fill:none;stroke:#f5f5ff;stroke-miterlimit:10;stroke-width:3px"/><rect x="1430" y="587.2" width="95.8" height="38.5" style="fill:none;stroke:#f5f5ff;stroke-miterlimit:10;stroke-width:3px"/><rect x="1525.9" y="587.2" width="95.8" height="38.5" style="fill:none;stroke:#f5f5ff;stroke-miterlimit:10;stroke-width:3px"/><polyline points="1798 625.7 1621.7 625.7 1621.7 587.2 1717.5 587.2" style="fill:none;stroke:#f5f5ff;stroke-miterlimit:10;stroke-width:3px"/><rect x="1395.2" y="625.7" width="95.8" height="38.5" style="fill:none;stroke:#f5f5ff;stroke-miterlimit:10;stroke-width:3px"/><rect x="1491" y="625.7" width="95.8" height="38.5" style="fill:none;stroke:#f5f5ff;stroke-miterlimit:10;stroke-width:3px"/><rect x="1586.9" y="625.7" width="95.8" height="38.5" style="fill:#f5f5ff;stroke:#f5f5ff;stroke-miterlimit:10"/><polyline points="1334.2 664.2 1430 664.2 1430 702.6 1250.9 702.6" style="fill:none;stroke:#f5f5ff;stroke-miterlimit:10;stroke-width:3px"/><rect x="1430" y="664.2" width="95.8" height="38.5" style="fill:none;stroke:#f5f5ff;stroke-miterlimit:10;stroke-width:3px"/><rect x="1525.9" y="664.2" width="95.8" height="38.5" style="fill:none;stroke:#f5f5ff;stroke-miterlimit:10;stroke-width:3px"/><polyline points="1717.5 702.6 1621.7 702.6 1621.7 664.2 1739.9 664.2" style="fill:none;stroke:#f5f5ff;stroke-miterlimit:10;stroke-width:3px"/><polyline points="1334.2 702.6 1395.1 702.6 1395.1 741.1 1334.2 741.1" style="fill:none;stroke:#f5f5ff;stroke-miterlimit:10;stroke-width:3px"/><rect x="1395.2" y="702.6" width="95.8" height="38.5" style="fill:none;stroke:#f5f5ff;stroke-miterlimit:10;stroke-width:3px"/><rect x="1491" y="702.6" width="95.8" height="38.5" style="fill:none;stroke:#f5f5ff;stroke-miterlimit:10;stroke-width:3px"/><rect x="1586.9" y="702.6" width="95.8" height="38.5" style="fill:#f5f5ff;stroke:#f5f5ff;stroke-miterlimit:10"/><rect x="1334.2" y="741.1" width="95.8" height="38.5" style="fill:none;stroke:#f5f5ff;stroke-miterlimit:10;stroke-width:3px"/><rect x="1430" y="741.1" width="95.8" height="38.5" style="fill:#f5f5ff;stroke:#f5f5ff;stroke-miterlimit:10"/><rect x="1525.9" y="741.1" width="95.8" height="38.5" style="fill:none;stroke:#f5f5ff;stroke-miterlimit:10;stroke-width:3px"/><rect x="1621.7" y="741.1" width="95.8" height="38.5" style="fill:none;stroke:#f5f5ff;stroke-miterlimit:10;stroke-width:3px"/><polyline points="1334.2 779.6 1395.1 779.6 1395.1 818 1334.2 818" style="fill:none;stroke:#f5f5ff;stroke-miterlimit:10;stroke-width:3px"/><rect x="1395.2" y="779.6" width="95.8" height="38.5" style="fill:none;stroke:#f5f5ff;stroke-miterlimit:10;stroke-width:3px"/><rect x="1491" y="779.6" width="95.8" height="38.5" style="fill:none;stroke:#f5f5ff;stroke-miterlimit:10;stroke-width:3px"/><rect x="1586.9" y="779.6" width="95.8" height="38.5" style="fill:none;stroke:#f5f5ff;stroke-miterlimit:10;stroke-width:3px"/><polyline points="1319.5 356.5 1430 356.5 1430 394.9 1334.2 394.9" style="fill:none;stroke:#f5f5ff;stroke-miterlimit:10;stroke-width:3px"/><rect x="1525.9" y="356.5" width="95.8" height="38.5" style="fill:none;stroke:#f5f5ff;stroke-miterlimit:10;stroke-width:3px"/><polyline points="1621.7 394.9 1621.7 356.5 1717.5 356.5" style="fill:none;stroke:#f5f5ff;stroke-miterlimit:10;stroke-width:3px"/><rect x="1334.2" y="394.9" width="60.9" height="38.5" style="fill:none;stroke:#f5f5ff;stroke-miterlimit:10;stroke-width:3px"/><rect x="1395.2" y="394.9" width="95.8" height="38.5" style="fill:none;stroke:#f5f5ff;stroke-miterlimit:10;stroke-width:3px"/><rect x="1491" y="394.9" width="95.8" height="38.5" style="fill:none;stroke:#f5f5ff;stroke-miterlimit:10;stroke-width:3px"/><rect x="1586.9" y="394.9" width="95.8" height="38.5" style="fill:none;stroke:#f5f5ff;stroke-miterlimit:10;stroke-width:3px"/><polyline points="1334.2 433.4 1430 433.4 1430 471.9 1334.2 471.9" style="fill:none;stroke:#f5f5ff;stroke-miterlimit:10;stroke-width:3px"/><rect x="1430" y="433.4" width="95.8" height="38.5" style="fill:#f5f5ff;stroke:#f5f5ff;stroke-miterlimit:10"/><rect x="1525.9" y="433.4" width="95.8" height="38.5" style="fill:none;stroke:#f5f5ff;stroke-miterlimit:10;stroke-width:3px"/><polyline points="1717.5 471.9 1621.7 471.9 1621.7 433.4 1767.9 433.4" style="fill:none;stroke:#f5f5ff;stroke-miterlimit:10"/><polyline points="1321.3 471.9 1395.1 471.9 1395.1 510.3 1334.2 510.3" style="fill:none;stroke:#f5f5ff;stroke-miterlimit:10;stroke-width:3px"/><rect x="1395.2" y="471.9" width="95.8" height="38.5" style="fill:none;stroke:#f5f5ff;stroke-miterlimit:10;stroke-width:3px"/><rect x="1491" y="471.9" width="95.8" height="38.5" style="fill:none;stroke:#f5f5ff;stroke-miterlimit:10;stroke-width:3px"/><rect x="1586.9" y="471.9" width="95.8" height="38.5" style="fill:#f5f5ff;stroke:#f5f5ff;stroke-miterlimit:10"/><polyline points="1274.6 510.3 1430 510.3 1430 548.8 1334.2 548.8" style="fill:none;stroke:#f5f5ff;stroke-miterlimit:10;stroke-width:3px"/><rect x="1430" y="510.3" width="95.8" height="38.5" style="fill:none;stroke:#f5f5ff;stroke-miterlimit:10;stroke-width:3px"/><rect x="1525.9" y="510.3" width="95.8" height="38.5" style="fill:none;stroke:#f5f5ff;stroke-miterlimit:10;stroke-width:3px"/><rect x="1621.7" y="510.3" width="95.8" height="38.5" style="fill:none;stroke:#f5f5ff;stroke-miterlimit:10;stroke-width:3px"/><polyline points="1334.2 548.8 1395.1 548.8 1395.1 587.2 1334.2 587.2" style="fill:none;stroke:#f5f5ff;stroke-miterlimit:10;stroke-width:3px"/><rect x="1395.2" y="548.8" width="95.8" height="38.5" style="fill:none;stroke:#f5f5ff;stroke-miterlimit:10;stroke-width:3px"/><rect x="1491" y="548.8" width="95.8" height="38.5" style="fill:#f5f5ff;stroke:#f5f5ff;stroke-miterlimit:10"/><polyline points="1682.6 587.2 1586.9 587.2 1586.9 548.8 1682.6 548.8" style="fill:none;stroke:#f5f5ff;stroke-miterlimit:10;stroke-width:3px"/><rect x="1334.2" y="1048.8" width="95.8" height="38.5" style="fill:none;stroke:#f5f5ff;stroke-miterlimit:10;stroke-width:3px"/><rect x="1430" y="1048.8" width="95.8" height="38.5" style="fill:none;stroke:#f5f5ff;stroke-miterlimit:10;stroke-width:3px"/><rect x="1525.9" y="1048.8" width="95.8" height="38.5" style="fill:none;stroke:#f5f5ff;stroke-miterlimit:10;stroke-width:3px"/><polyline points="1798 1087.2 1621.7 1087.2 1621.7 1048.8 1717.5 1048.8" style="fill:none;stroke:#f5f5ff;stroke-miterlimit:10;stroke-width:3px"/><rect x="1395.2" y="1087.2" width="95.8" height="38.5" style="fill:none;stroke:#f5f5ff;stroke-miterlimit:10;stroke-width:3px"/><rect x="1491" y="1087.2" width="95.8" height="38.5" style="fill:none;stroke:#f5f5ff;stroke-miterlimit:10;stroke-width:3px"/><rect x="1586.9" y="1087.2" width="95.8" height="38.5" style="fill:#f5f5ff;stroke:#f5f5ff;stroke-miterlimit:10"/><polyline points="1334.2 1125.7 1430 1125.7 1430 1164.2 1250.9 1164.2" style="fill:none;stroke:#f5f5ff;stroke-miterlimit:10;stroke-width:3px"/><rect x="1430" y="1125.7" width="95.8" height="38.5" style="fill:none;stroke:#f5f5ff;stroke-miterlimit:10;stroke-width:3px"/><rect x="1525.9" y="1125.7" width="95.8" height="38.5" style="fill:none;stroke:#f5f5ff;stroke-miterlimit:10;stroke-width:3px"/><polyline points="1717.5 1164.2 1621.7 1164.2 1621.7 1125.7 1739.9 1125.7" style="fill:none;stroke:#f5f5ff;stroke-miterlimit:10;stroke-width:3px"/><polyline points="1334.2 1164.2 1395.1 1164.2 1395.1 1202.6 1334.2 1202.6" style="fill:none;stroke:#f5f5ff;stroke-miterlimit:10;stroke-width:3px"/><rect x="1395.2" y="1164.2" width="95.8" height="38.5" style="fill:none;stroke:#f5f5ff;stroke-miterlimit:10;stroke-width:3px"/><rect x="1491" y="1164.2" width="95.8" height="38.5" style="fill:none;stroke:#f5f5ff;stroke-miterlimit:10;stroke-width:3px"/><rect x="1586.9" y="1164.2" width="95.8" height="38.5" style="fill:#f5f5ff;stroke:#f5f5ff;stroke-miterlimit:10"/><rect x="1334.2" y="1202.6" width="95.8" height="38.5" style="fill:none;stroke:#f5f5ff;stroke-miterlimit:10;stroke-width:3px"/><rect x="1430" y="1202.6" width="95.8" height="38.5" style="fill:#f5f5ff;stroke:#f5f5ff;stroke-miterlimit:10"/><rect x="1525.9" y="1202.6" width="95.8" height="38.5" style="fill:none;stroke:#f5f5ff;stroke-miterlimit:10;stroke-width:3px"/><rect x="1621.7" y="1202.6" width="95.8" height="38.5" style="fill:none;stroke:#f5f5ff;stroke-miterlimit:10;stroke-width:3px"/><polyline points="1334.2 1241.1 1395.1 1241.1 1395.1 1279.6 1334.2 1279.6" style="fill:none;stroke:#f5f5ff;stroke-miterlimit:10;stroke-width:3px"/><rect x="1395.2" y="1241.1" width="95.8" height="38.5" style="fill:none;stroke:#f5f5ff;stroke-miterlimit:10;stroke-width:3px"/><rect x="1491" y="1241.1" width="95.8" height="38.5" style="fill:none;stroke:#f5f5ff;stroke-miterlimit:10;stroke-width:3px"/><rect x="1586.9" y="1241.1" width="95.8" height="38.5" style="fill:none;stroke:#f5f5ff;stroke-miterlimit:10;stroke-width:3px"/><polyline points="1319.5 818 1430 818 1430 856.5 1334.2 856.5" style="fill:none;stroke:#f5f5ff;stroke-miterlimit:10;stroke-width:3px"/><rect x="1525.9" y="818" width="95.8" height="38.5" style="fill:none;stroke:#f5f5ff;stroke-miterlimit:10;stroke-width:3px"/><polyline points="1621.7 856.5 1621.7 818 1717.5 818" style="fill:none;stroke:#f5f5ff;stroke-miterlimit:10;stroke-width:3px"/><rect x="1334.2" y="856.5" width="60.9" height="38.5" style="fill:none;stroke:#f5f5ff;stroke-miterlimit:10;stroke-width:3px"/><rect x="1395.2" y="856.5" width="95.8" height="38.5" style="fill:none;stroke:#f5f5ff;stroke-miterlimit:10;stroke-width:3px"/><rect x="1491" y="856.5" width="95.8" height="38.5" style="fill:none;stroke:#f5f5ff;stroke-miterlimit:10;stroke-width:3px"/><rect x="1586.9" y="856.5" width="95.8" height="38.5" style="fill:none;stroke:#f5f5ff;stroke-miterlimit:10;stroke-width:3px"/><polyline points="1334.2 894.9 1430 894.9 1430 933.4 1334.2 933.4" style="fill:none;stroke:#f5f5ff;stroke-miterlimit:10;stroke-width:3px"/><rect x="1430" y="894.9" width="95.8" height="38.5" style="fill:#f5f5ff;stroke:#f5f5ff;stroke-miterlimit:10"/><rect x="1525.9" y="894.9" width="95.8" height="38.5" style="fill:none;stroke:#f5f5ff;stroke-miterlimit:10;stroke-width:3px"/><polyline points="1717.5 933.4 1621.7 933.4 1621.7 894.9 1767.9 894.9" style="fill:none;stroke:#f5f5ff;stroke-miterlimit:10"/><polyline points="1321.3 933.4 1395.1 933.4 1395.1 971.9 1334.2 971.9" style="fill:none;stroke:#f5f5ff;stroke-miterlimit:10;stroke-width:3px"/><rect x="1395.2" y="933.4" width="95.8" height="38.5" style="fill:none;stroke:#f5f5ff;stroke-miterlimit:10;stroke-width:3px"/><rect x="1491" y="933.4" width="95.8" height="38.5" style="fill:none;stroke:#f5f5ff;stroke-miterlimit:10;stroke-width:3px"/><rect x="1586.9" y="933.4" width="95.8" height="38.5" style="fill:#f5f5ff;stroke:#f5f5ff;stroke-miterlimit:10"/><polyline points="1274.6 971.9 1430 971.9 1430 1010.3 1334.2 1010.3" style="fill:none;stroke:#f5f5ff;stroke-miterlimit:10;stroke-width:3px"/><rect x="1430" y="971.9" width="95.8" height="38.5" style="fill:none;stroke:#f5f5ff;stroke-miterlimit:10;stroke-width:3px"/><rect x="1525.9" y="971.9" width="95.8" height="38.5" style="fill:none;stroke:#f5f5ff;stroke-miterlimit:10;stroke-width:3px"/><rect x="1621.7" y="971.9" width="95.8" height="38.5" style="fill:none;stroke:#f5f5ff;stroke-miterlimit:10;stroke-width:3px"/><polyline points="1334.2 1010.3 1395.1 1010.3 1395.1 1048.8 1334.2 1048.8" style="fill:none;stroke:#f5f5ff;stroke-miterlimit:10;stroke-width:3px"/><rect x="1395.2" y="1010.3" width="95.8" height="38.5" style="fill:none;stroke:#f5f5ff;stroke-miterlimit:10;stroke-width:3px"/><rect x="1491" y="1010.3" width="95.8" height="38.5" style="fill:#f5f5ff;stroke:#f5f5ff;stroke-miterlimit:10"/><polyline points="1682.6 1048.8 1586.9 1048.8 1586.9 1010.3 1682.6 1010.3" style="fill:none;stroke:#f5f5ff;stroke-miterlimit:10;stroke-width:3px"/><path d="M1267.5,846.3v470.8H758.1V846.3a54.52,54.52,0,0,1,54.6-54.5H1213A54.37,54.37,0,0,1,1267.5,846.3Z" style="fill:#d4c5e2"/><g style="opacity:0.49000000953674316"><g style="clip-path:url(#a)"><rect x="743.9" y="1009.4" width="151.1" height="60.7" style="fill:#fff;opacity:0.36000001430511475;isolation:isolate"/><rect x="895.1" y="1009.4" width="151.1" height="60.7" style="fill:#fff;stroke:#f5f5ff;stroke-miterlimit:10"/><rect x="1046.3" y="1009.4" width="151.1" height="60.7" style="fill:none;stroke:#f5f5ff;stroke-miterlimit:10;stroke-width:2px"/><polyline points="1475.6 1070.1 1197.5 1070.1 1197.5 1009.4 1348.6 1009.4" style="fill:none;stroke:#f5f5ff;stroke-miterlimit:10;stroke-width:2px"/><rect x="840.1" y="1070.1" width="151.1" height="60.7" style="fill:none;stroke:#f5f5ff;stroke-miterlimit:10;stroke-width:2px"/><rect x="991.3" y="1070.1" width="151.1" height="60.7" style="fill:none;stroke:#f5f5ff;stroke-miterlimit:10;stroke-width:2px"/><rect x="1142.5" y="1070.1" width="151.1" height="60.7" style="fill:none;stroke:#f5f5ff;stroke-miterlimit:10;stroke-width:2px"/><polyline points="743.9 1130.7 895 1130.7 895 1191.4 612.5 1191.4" style="fill:none;stroke:#f5f5ff;stroke-miterlimit:10;stroke-width:2px"/><rect x="895.1" y="1130.7" width="151.1" height="60.7" style="fill:none;stroke:#f5f5ff;stroke-miterlimit:10;stroke-width:2px"/><rect x="1046.3" y="1130.7" width="151.1" height="60.7" style="fill:none;stroke:#f5f5ff;stroke-miterlimit:10;stroke-width:2px"/><polyline points="1348.6 1191.4 1197.5 1191.4 1197.5 1130.7 1384.1 1130.7" style="fill:none;stroke:#f5f5ff;stroke-miterlimit:10;stroke-width:2px"/><polyline points="743.9 1191.4 840 1191.4 840 1252.1 743.9 1252.1" style="fill:none;stroke:#f5f5ff;stroke-miterlimit:10;stroke-width:2px"/><rect x="840.1" y="1191.4" width="151.1" height="60.7" style="fill:none;stroke:#f5f5ff;stroke-miterlimit:10;stroke-width:2px"/><rect x="991.3" y="1191.4" width="151.1" height="60.7" style="fill:none;stroke:#f5f5ff;stroke-miterlimit:10;stroke-width:2px"/><rect x="1142.5" y="1191.4" width="151.1" height="60.7" style="fill:none;stroke:#f5f5ff;stroke-miterlimit:10;stroke-width:2px"/><rect x="743.9" y="1252.1" width="151.1" height="60.7" style="fill:none;stroke:#f5f5ff;stroke-miterlimit:10;stroke-width:2px"/><rect x="895.1" y="1252.1" width="151.1" height="60.7" style="fill:none;stroke:#f5f5ff;stroke-miterlimit:10;stroke-width:2px"/><rect x="1046.3" y="1252.1" width="151.1" height="60.7" style="fill:none;stroke:#f5f5ff;stroke-miterlimit:10;stroke-width:2px"/><rect x="1197.5" y="1252.1" width="151.1" height="60.7" style="fill:#fff;stroke:#f5f5ff;stroke-miterlimit:10"/><polyline points="743.9 1312.8 840 1312.8 840 1373.5 743.9 1373.5" style="fill:none;stroke:#f5f5ff;stroke-miterlimit:10;stroke-width:2px"/><rect x="840.1" y="1312.8" width="151.1" height="60.7" style="fill:none;stroke:#f5f5ff;stroke-miterlimit:10;stroke-width:2px"/><rect x="991.3" y="1312.8" width="151.1" height="60.7" style="fill:none;stroke:#f5f5ff;stroke-miterlimit:10;stroke-width:2px"/><rect x="1142.5" y="1312.8" width="151.1" height="60.7" style="fill:none;stroke:#f5f5ff;stroke-miterlimit:10;stroke-width:2px"/><polyline points="720.7 645.3 895 645.3 895 706 743.9 706" style="fill:none;stroke:#f5f5ff;stroke-miterlimit:10;stroke-width:2px"/><rect x="895.1" y="645.3" width="151.1" height="60.7" style="fill:#f5f5ff;stroke:#f5f5ff;stroke-miterlimit:10"/><rect x="1046.3" y="645.3" width="151.1" height="60.7" style="fill:none;stroke:#f5f5ff;stroke-miterlimit:10;stroke-width:2px"/><polyline points="1197.5 706 1197.5 645.3 1348.6 645.3" style="fill:none;stroke:#f5f5ff;stroke-miterlimit:10;stroke-width:2px"/><rect x="743.9" y="706" width="96.1" height="60.7" style="fill:#fff;stroke:#f5f5ff;stroke-miterlimit:10"/><rect x="840.1" y="706" width="151.1" height="60.7" style="fill:none;stroke:#f5f5ff;stroke-miterlimit:10;stroke-width:2px"/><rect x="991.3" y="706" width="151.1" height="60.7" style="fill:none;stroke:#f5f5ff;stroke-miterlimit:10;stroke-width:2px"/><rect x="1142.5" y="706" width="151.1" height="60.7" style="fill:none;stroke:#f5f5ff;stroke-miterlimit:10;stroke-width:2px"/><polyline points="743.9 766.7 895 766.7 895 827.3 743.9 827.3" style="fill:none;stroke:#f5f5ff;stroke-miterlimit:10;stroke-width:2px"/><rect x="895.1" y="766.7" width="151.1" height="60.7" style="fill:none;stroke:#f5f5ff;stroke-miterlimit:10;stroke-width:2px"/><rect x="1046.3" y="766.7" width="151.1" height="60.7" style="fill:none;stroke:#f5f5ff;stroke-miterlimit:10;stroke-width:2px"/><polyline points="723.6 827.3 840 827.3 840 888 743.9 888" style="fill:#fff;opacity:0.36000001430511475;isolation:isolate"/><rect x="840.1" y="827.3" width="151.1" height="60.7" style="fill:none;stroke:#f5f5ff;stroke-miterlimit:10;stroke-width:2px"/><rect x="991.3" y="827.3" width="151.1" height="60.7" style="fill:none;stroke:#f5f5ff;stroke-miterlimit:10;stroke-width:2px"/><rect x="1142.5" y="827.3" width="151.1" height="60.7" style="fill:none;stroke:#f5f5ff;stroke-miterlimit:10;stroke-width:2px"/><polyline points="649.9 888 895 888 895 948.7 743.9 948.7" style="fill:#fff;opacity:0.36000001430511475;isolation:isolate"/><rect x="895.1" y="888" width="151.1" height="60.7" style="fill:none;stroke:#f5f5ff;stroke-miterlimit:10;stroke-width:2px"/><rect x="1046.3" y="888" width="151.1" height="60.7" style="fill:none;stroke:#f5f5ff;stroke-miterlimit:10;stroke-width:2px"/><rect x="1197.5" y="888" width="151.1" height="60.7" style="fill:#fff;stroke:#f5f5ff;stroke-miterlimit:10"/><polyline points="743.9 948.7 840 948.7 840 1009.4 743.9 1009.4" style="fill:none;stroke:#f5f5ff;stroke-miterlimit:10;stroke-width:2px"/><rect x="840.1" y="948.7" width="151.1" height="60.7" style="fill:none;stroke:#f5f5ff;stroke-miterlimit:10;stroke-width:2px"/><rect x="991.3" y="948.7" width="151.1" height="60.7" style="fill:none;stroke:#f5f5ff;stroke-miterlimit:10;stroke-width:2px"/><polyline points="1293.6 1009.4 1142.5 1009.4 1142.5 948.7 1293.6 948.7" style="fill:none;stroke:#f5f5ff;stroke-miterlimit:10;stroke-width:2px"/></g></g><path d="M826.5,1323.7V1039.8c0-101.6,80.8-186.3,182.4-187.6a184.88,184.88,0,0,1,187.3,184.9v286.6" style="fill:#9594c8"/><path d="M875.6,1077.2c0-101.6,80.8-186.3,182.4-187.6a184.57,184.57,0,0,1,88.3,21.1,184.56,184.56,0,0,0-137.4-58.5c-101.6,1.3-182.4,86-182.4,187.6v254h49.1Z" style="fill:#b5b5e2"/><path d="M972.4,1291.9s-115.2-17.4-113-114.7,90.3-144.8,90.3-144.8-29.9,120.5,22.7,101.9,0-168.9,0-168.9,106.1,53.4,97.2,151.1,35.2,151,61.8,110.5-19.7-130.9-19.7-130.9,99.6,71.8,67.2,142.5S972.4,1291.9,972.4,1291.9Z" style="fill:#f9b17c"/><path d="M983.7,1285.8s-89.2-13.5-87.5-88.8,70-112.2,70-112.2-23.1,93.3,17.6,79,32-130.9,32-130.9,50.1,41.4,43.3,117.1,27.3,117,47.9,85.6-15.3-101.4-15.3-101.4,77.2,55.6,52,110.4S983.7,1285.8,983.7,1285.8Z" style="fill:#f38a75"/><path d="M1098.3,1119.2s13.5,12.6,12.6,0-26.9-26-26.9-26Z" style="fill:#f38a75"/><path d="M958.4,1064.4a14,14,0,0,0,4.3,2.4c2.8.9,6.3.3,7.4-6.7,2.1-12.8-11.7-41.5-11.7-41.5S950,1054.5,958.4,1064.4Z" style="fill:#f38a75"/><circle cx="1086.1" cy="1158" r="15.4" style="fill:#9594c8"/><circle cx="1066" cy="1196.9" r="26.8" style="fill:#9594c8"/><polygon points="934.3 1213.3 1060.3 1170.7 1073.7 1222.6 951.3 1274 934.3 1213.3" style="fill:#9594c8"/><polygon points="1086.1 1142.6 1086.1 1173.4 1071.1 1178.6 1063 1181.4 1056.1 1183.7 1042 1188.6 1034 1191.3 1025.6 1194.2 1017.9 1196.9 998.9 1203.4 991.5 1205.9 969.9 1213.3 965.7 1176.5 989.9 1169.7 998.9 1167.2 1001 1166.6 1007.7 1164.7 1026.5 1159.4 1036.7 1156.5 1044.3 1154.4 1067.8 1147.8 1086.1 1142.6" style="fill:#9594c8"/><circle cx="969.9" cy="1192.4" r="18.6" style="fill:#b5b5e2"/><circle cx="942.2" cy="1243.4" r="32.4" style="fill:#b5b5e2"/><path d="M1131.7,1213a14.77,14.77,0,0,1-.1,2.1,25.78,25.78,0,0,1-1.7,7.4,26.14,26.14,0,0,1-6.2,9.4,29.49,29.49,0,0,1-5.3,4l-2.4,1.2-.2.1a26.15,26.15,0,0,1-35.9-19,27.34,27.34,0,0,1-.5-5,26.8,26.8,0,0,1,2.2-10.6,27.19,27.19,0,0,1,3.8-6.1,24.47,24.47,0,0,1,6.7-5.7c.4-.2.8-.5,1.2-.7a27.46,27.46,0,0,1,5-2,14,14,0,0,1,2.8-.6,21.54,21.54,0,0,1,4.5-.4A25.82,25.82,0,0,1,1131.7,1213Z" style="fill:#d4c5e2"/><path d="M1115.9,1237l-.2.1-19.9,9.9-6.4,3.2-11.8,5.9-6.8,3.4-10.5,5.2-8.3,4.1-48.1,23.9-22.1-57.4,25.1-10.2,6.9-2.8,16.6-6.7h0l12.3-5,8.9-3.6,6.5-2.6,15.7-6.4,9-3.6,8.9-3.6,1.5-.6h0l5-2,7.3,20.3,4.9,13.6,3,8.3Z" style="fill:#d4c5e2"/><circle cx="999.8" cy="1261.2" r="31.6" transform="translate(-405.26 2046.07) rotate(-80.78)" style="fill:#b5b5e2"/><path d="M996.1,1263.2c.4-1.3.7-2.6,1.1-3.9a9,9,0,0,1,2.8-.8,13.61,13.61,0,0,1,4-.4c6.4.3,7.5,6.5,3.9,10.5-3.7,4.2-13,6.3-17.8,3-8.4-5.7-.1-14.7,6-17.7s14.2-4.1,19.3,1.3c10.9,11.6-11.5,23.8-21,23.7-5.9-.1-12.2-2.6-15.8-7.5a9.77,9.77,0,0,1,5.5-15.5,1,1,0,0,0-.5-1.9c-5.8,1.5-10.1,7.2-9.1,13.3,1.1,6.3,7.4,10.8,13.1,12.5,7.5,2.4,15.7.6,22.2-3.7,5.5-3.6,11.7-10.1,9.8-17.4-4-15.7-28.4-9.5-33.8,1.8-7.3,15.6,17.3,18.4,24.4,8.2,3.2-4.6,1.7-11.3-4.2-12.5-4.4-.9-16,1.3-11.8,8,.8,1.1,2.6.1,1.9-1Z" style="fill:#9594c8"/><path d="M936.4,1249.7c-1.7-3.7-1.2-6,1.5-7a21.62,21.62,0,0,1,4.3-1.4c4.2-.8,8.3.7,9.4,5,1.6,6.1-4.5,9.5-9.5,11-8.3,2.4-23.6-.8-20.9-12.8.9-3.9,4.7-7.2,7.6-9.8a22.54,22.54,0,0,1,13.6-6c4.8-.5,10-.3,14.3,2.1,4,2.2,10.6,10.5,3.8,13.8-1.2.6-.1,2.3,1,1.7,3.7-1.8,4.4-6.2,3.1-9.8-2-5.4-7.7-8.6-13.1-9.6-6.2-1.1-13.6-.6-19.2,2.6-4.8,2.7-10.7,7.8-12.7,13-4.5,11.8,9.4,18.8,19,17.5,5.2-.7,11.7-2.9,14.3-7.9a9.2,9.2,0,0,0-2.9-11.5c-4.6-3.2-12.8-1.4-16.4,2.6-2.8,3.1-1.8,8,2.7,8.5,1.4.2,1.4-1.8.1-2Z" style="fill:#9594c8"/><path d="M1054.6,1173.6l-1.4-1.4a7.37,7.37,0,0,1-.4,1.4c2.5-1.4,5.2-2.9,8.2-2.2,5.6,1.3,4.5,6.4-.2,8.4-5.8,2.4-11.7-.2-12.6-6.5-.7-5.4.6-8.9,6.2-10.6a20.71,20.71,0,0,1,13,.8c1.2.4,1.7-1.5.5-1.9-6.2-2.3-15.8-2.8-20.5,3-2.4,3-1.7,7.3-1,10.8a7.77,7.77,0,0,0,5.4,6.4c4.7,1.6,15.7.7,15.3-6.3-.5-8.2-10.6-6.5-15.4-3.7a1.11,1.11,0,0,0-.4,1.4,4.74,4.74,0,0,0,2.1,2.1c1.3.7,2.3-1.1,1.2-1.7Z" style="fill:#9594c8"/><rect x="747.1" y="1293.8" width="553.9" height="33" style="fill:#9594c8"/><path d="M845.5,1151.1c-1.8-14.4,6.9-28.3,13.4-40.6a234.78,234.78,0,0,1,21.9-34.6,215.51,215.51,0,0,1,27.5-29c9.5-8.5,19.1-16.8,26.1-27.5,1.8-2.7-2.5-5.2-4.3-2.5-7.8,11.7-18.9,20.4-29.1,29.9a212,212,0,0,0-26.9,29.9,247.85,247.85,0,0,0-22,36.2c-6,11.8-13.2,24.5-11.5,38.2.3,3.2,5.3,3.2,4.9,0Z" style="fill:#f9b17c"/><path d="M900.5,1035c4.2-6,9.2-12,12.7-18.5,2.9-5.4,3.7-11.5,4.5-17.5,1.5-11.4,2.3-23.4-4.1-33.4-1.7-2.7-6.1-.2-4.3,2.5,6.2,9.7,4.8,21.5,3.3,32.3-.8,5.9-2.1,11.3-5.4,16.4-3.5,5.3-7.3,10.5-11,15.7-1.8,2.6,2.5,5.1,4.3,2.5Z" style="fill:#f9b17c"/><path d="M935.3,969.1c-5-8.6-11.1-17.4-14.4-26.8s-2.6-19.6-1.8-29.4c.3-3.2-4.7-3.2-5,0-.8,10.3-1.5,20.9,2,30.8s9.7,18.9,14.9,28c1.6,2.7,5.9.2,4.3-2.6Z" style="fill:#f9b17c"/><path d="M938.4,927.2c-3.3-13.5,3-26.6,8.9-38.4,1.4-2.9-2.9-5.4-4.3-2.5-6.6,13.2-13,27.3-9.4,42.3.7,3.1,5.5,1.7,4.8-1.4Z" style="fill:#f9b17c"/><path d="M1067.7,1035.9c-12.5-21.1-29.2-37.5-48.2-52.7-9-7.2-21.6-15.5-24.8-27.2-2.3-8.4-1.4-17.7-9.1-23.4-2.6-1.9-5.1,2.4-2.5,4.3,7.3,5.4,5.1,18.3,8.9,25.9,5.1,9.9,15.5,17.1,24,23.9,18.7,15,35.1,30.9,47.4,51.7,1.7,2.8,6,.3,4.3-2.5Z" style="fill:#f9b17c"/><path d="M1010.4,951.5a65.66,65.66,0,0,1,1.4-34.9c1-3.1-3.9-4.4-4.8-1.3a70.61,70.61,0,0,0-1.4,37.6c.7,3,5.5,1.7,4.8-1.4Z" style="fill:#f9b17c"/><path d="M1161.9,1128.2c-2.1-7.6-4.2-15.3-8.4-22.1a75.51,75.51,0,0,0-11.8-14.1c-9.5-9.3-20.5-17.5-26.6-29.7-1.4-2.9-5.8-.4-4.3,2.5,5.6,11.2,15.2,19.3,24.2,27.7,4.7,4.4,9.4,9,13,14.3,4.7,6.9,6.9,14.8,9.1,22.7.8,3.1,5.6,1.8,4.8-1.3Z" style="fill:#f9b17c"/><path d="M1097.8,1054.8c-4.4-18.8-8.8-38.4-2.3-57.2,1-3-3.8-4.4-4.8-1.3-6.8,19.6-2.3,40.3,2.3,59.9.7,3.1,5.5,1.7,4.8-1.4Z" style="fill:#f9b17c"/><path d="M1077.8,991.7c-8.4-22.2-6.7-53.9-31.5-65.9-2.9-1.4-5.4,2.9-2.5,4.3,23.1,11.3,21.3,42.2,29.2,63,1.1,2.9,6,1.6,4.8-1.4Z" style="fill:#f9b17c"/><circle cx="1006.1" cy="606.5" r="88.5" style="fill:#fff"/><polyline points="1006.1 538.9 1006.1 606.5 1062.7 606.5" style="fill:none;stroke:#eaf4fb;stroke-linecap:round;stroke-miterlimit:10;stroke-width:5px"/><path d="M1267.5,846.3V1073c-57.4-43.9,0-185-18.4-231.3s-102.8-23.7-139.9-30.5c-51-9.4-209.8,35.1-266.5,30.5s-33.3,63.7-38.6,225.5-45.5,208.6-45.5,208.6l-.4-2.2V846.3a54.52,54.52,0,0,1,54.6-54.5H1213A54.37,54.37,0,0,1,1267.5,846.3Z" style="fill:#5f63ac;opacity:0.1899999976158142;isolation:isolate"/><g style="opacity:0.3499999940395355"><rect x="708.7" y="587.8" width="161.6" height="53" style="fill:#9594c8"/><rect x="1172.8" y="452.6" width="150.4" height="42.9" style="fill:#9594c8"/><rect x="796.2" y="474" width="67.4" height="53" style="fill:#9594c8"/><rect x="1139.8" y="634.4" width="41.6" height="40.2" style="fill:#9594c8"/></g><rect x="713.2" y="583.1" width="161.6" height="53" style="fill:#fff"/><rect x="1177.3" y="447.8" width="161.6" height="42.9" style="fill:#fff"/><rect x="800.8" y="469.2" width="67.4" height="53" style="fill:#fff"/><rect x="1144.4" y="629.7" width="41.6" height="40.2" style="fill:#fff"/><polygon points="479.3 1729.7 1273.5 1729.7 1186.7 1701 656.5 1685.3 479.3 1729.7" style="fill:#cadced"/><path d="M811.9,1515.8,479.3,1729.7H516s94.2-11.7,125.7-12.5c64.6-1.6,193.5,11.6,258.1,12.5,60,.8,180-8.2,240-7.5,33.5.4,133.7,7.5,133.7,7.5l244.9-198.1-198.4,2.8c-12.3.2-24.7-.2-37-1l-134.3-9.2c-12.2-.8-24.5-1.2-36.8-1l-175,2.4a446.19,446.19,0,0,1-51.7-2.3Z" style="fill:#eaf4fb;stroke:#eaf4fb;stroke-miterlimit:10"/><path d="M537.7,1704.7H461.5c-3.2,0-3.2,5,0,5h76.2c3.3,0,3.3-5,0-5Z" style="fill:#eaf4fb"/><path d="M568.4,1683.1a243,243,0,0,1-52.4,4.3" style="fill:#eaf4fb"/><path d="M567.7,1680.7A256.65,256.65,0,0,1,516,1685c-3.2-.1-3.2,4.9,0,5a270.05,270.05,0,0,0,53.1-4.4c3.1-.7,1.7-5.5-1.4-4.9Z" style="fill:#eaf4fb"/><path d="M612.8,1660.1a199.32,199.32,0,0,1-69.1,7.4" style="fill:#eaf4fb"/><path d="M612.2,1657.7a200.44,200.44,0,0,1-68.5,7.3c-3.2-.2-3.2,4.8,0,5a205.57,205.57,0,0,0,69.8-7.5c3.1-.9,1.8-5.7-1.3-4.8Z" style="fill:#eaf4fb"/><path d="M641.7,1636q-44.55-.75-89.1,1" style="fill:#eaf4fb"/><path d="M641.7,1633.5q-44.55-.75-89.1,1c-3.2.1-3.2,5.1,0,5q44.55-1.65,89.1-1c3.2,0,3.2-5,0-5Z" style="fill:#eaf4fb"/><path d="M663.5,1620c-21.1,0-42.3.4-63.4,1.2" style="fill:#eaf4fb"/><path d="M663.5,1617.5q-31.65,0-63.4,1.2c-3.2.1-3.2,5.1,0,5q31.65-1.2,63.4-1.2c3.2,0,3.2-5,0-5Z" style="fill:#eaf4fb"/><path d="M704.1,1595.8H636.8c-3.2,0-3.2,5,0,5h67.3c3.2,0,3.2-5,0-5Z" style="fill:#eaf4fb"/><path d="M745.6,1583.3a628.94,628.94,0,0,1-75.2-1.8" style="fill:#eaf4fb"/><path d="M745.6,1580.8a628.94,628.94,0,0,1-75.2-1.8c-3.2-.3-3.2,4.7,0,5a628.94,628.94,0,0,0,75.2,1.8c3.3-.1,3.3-5.1,0-5Z" style="fill:#eaf4fb"/><path d="M774.4,1564.4q-44.55.6-89.1,1.3" style="fill:#eaf4fb"/><path d="M774.4,1561.9q-44.55.6-89.1,1.3c-3.2,0-3.2,5,0,5q44.55-.6,89.1-1.3c3.2,0,3.2-5,0-5Z" style="fill:#eaf4fb"/><path d="M804.1,1549.8,713,1545" style="fill:#eaf4fb"/><path d="M804.1,1547.3l-91.1-4.8c-3.2-.2-3.2,4.8,0,5l91.1,4.8c3.2.2,3.2-4.8,0-5Z" style="fill:#eaf4fb"/><path d="M814,1530.1a614,614,0,0,0-74.3.1" style="fill:#eaf4fb"/><path d="M814,1527.6a635.08,635.08,0,0,0-74.3.1c-3.2.2-3.2,5.2,0,5a613.92,613.92,0,0,1,74.3-.1c3.2.2,3.2-4.8,0-5Z" style="fill:#eaf4fb"/><path d="M837.7,1516.2q-51-3-102-1.8" style="fill:#eaf4fb"/><path d="M837.7,1513.7q-51-3-102-1.8c-3.2.1-3.2,5.1,0,5q51-1.2,102,1.8c3.2.2,3.2-4.8,0-5Z" style="fill:#eaf4fb"/><path d="M1257.5,1715.9q54.45.6,108.9,1.3" style="fill:#eaf4fb"/><path d="M1257.5,1718.4q54.45.6,108.9,1.3c3.2,0,3.2-5,0-5q-54.45-.6-108.9-1.3c-3.2,0-3.2,5,0,5Z" style="fill:#eaf4fb"/><path d="M1282.3,1698.8h69.3c3.2,0,3.2-5,0-5h-69.3c-3.2,0-3.2,5,0,5Z" style="fill:#eaf4fb"/><path d="M1313,1674.5c30.7-.9,61.4-1.3,92.1-1" style="fill:#eaf4fb"/><path d="M1313,1677q46.05-1.35,92.1-1c3.2,0,3.2-5,0-5-30.7-.3-61.4.1-92.1,1-3.2.1-3.2,5.1,0,5Z" style="fill:#eaf4fb"/><path d="M1346.6,1659.5c31-1,62-2.1,93.1-3.1" style="fill:#eaf4fb"/><path d="M1346.6,1662c31-1,62-2.1,93.1-3.1,3.2-.1,3.2-5.1,0-5-31,1-62,2.1-93.1,3.1-3.2.1-3.2,5.1,0,5Z" style="fill:#eaf4fb"/><path d="M1384.3,1626.5h74.3c3.2,0,3.2-5,0-5h-74.3c-3.2,0-3.3,5,0,5Z" style="fill:#eaf4fb"/><path d="M1402.1,1601.2c26.7,1.4,53.5,2.1,80.2,2.1" style="fill:#eaf4fb"/><path d="M1402.1,1603.7q40.05,2.1,80.2,2.1c3.2,0,3.2-5,0-5-26.7,0-53.5-.7-80.2-2.1-3.2-.2-3.2,4.8,0,5Z" style="fill:#eaf4fb"/><path d="M1447.6,1578.3c19.1-.3,38.3-.7,57.4-1" style="fill:#eaf4fb"/><path d="M1447.6,1580.8c19.1-.3,38.3-.7,57.4-1,3.2-.1,3.2-5.1,0-5-19.1.3-38.3.7-57.4,1-3.2,0-3.2,5,0,5Z" style="fill:#eaf4fb"/><path d="M1474.4,1553.7q29.1-2,58.4-2.1" style="fill:#eaf4fb"/><path d="M1474.4,1556.2q29.1-2,58.4-2.1c3.2,0,3.2-5,0-5q-29.25.15-58.4,2.1c-3.2.3-3.2,5.3,0,5Z" style="fill:#eaf4fb"/><ellipse cx="1000.2" cy="1625.5" rx="150.4" ry="37.3" style="fill:#cadced"/><line x1="393.8" y1="1434.1" x2="393.8" y2="1688.8" style="fill:none;stroke:#cadced;stroke-linecap:round;stroke-miterlimit:10;stroke-width:17px"/><line x1="555.3" y1="1374.7" x2="555.3" y2="1629.4" style="fill:none;stroke:#cadced;stroke-linecap:round;stroke-miterlimit:10;stroke-width:17px"/><line x1="719.5" y1="1434.1" x2="719.5" y2="1688.8" style="fill:none;stroke:#cadced;stroke-linecap:round;stroke-miterlimit:10;stroke-width:17px"/><path d="M327.2,1185.4c3.2,0,3.2-5,0-5s-3.3,5,0,5Z" style="fill:#cadced"/><ellipse cx="560.8" cy="1421.3" rx="257.3" ry="43.1" style="fill:#cadced"/><rect x="303.6" y="1405.7" width="514.5" height="15.6" style="fill:#cadced"/><ellipse cx="560.8" cy="1405.7" rx="257.3" ry="43.1" style="fill:#eaf4fb;stroke:#eaf4fb;stroke-miterlimit:10"/><ellipse cx="555.1" cy="1537.5" rx="168.2" ry="28.2" style="fill:none;stroke:#cadced;stroke-miterlimit:10;stroke-width:5px"/><ellipse cx="560.8" cy="1405.7" rx="153.4" ry="25.7" style="fill:#fff"/><path d="M535,1365.5c-8.2-1.8-16.7-5.3-21.6-12.5-4.8-7-5-16.9,1.4-22.9,5.3-5.1,13.1-7.7,19.1-11.9a93.09,93.09,0,0,0,15.3-13.5,88.44,88.44,0,0,0,11.6-15.7c2.6-4.6,2.7-8.7-1.2-12.6-4.7-4.7-11.5-8-17.2-11.1a179.52,179.52,0,0,0-21.4-9.7c-1.2-.5-1.7,1.5-.5,1.9a163.57,163.57,0,0,1,24,11.2c3.4,1.9,6.7,3.9,9.9,6.1,1.9,1.3,4.2,2.8,5.5,4.8,1.8,3,.7,5.5-.7,8.3-6.7,13.4-19.5,24.9-32.2,32.4-5.3,3.2-11.6,5.5-15.5,10.5a18.32,18.32,0,0,0-3.1,14.7c2.4,12.7,14.7,19.2,26.3,21.8,1,.4,1.6-1.5.3-1.8Z" style="fill:#b2c9ed"/><path d="M544.8,1366.5c-4.1-10.6-22-17.2-10.7-29.8,8.3-9.3,21.4-12.2,32.3-17.4,9.5-4.6,17.6-11.7,19.7-22.5a29.44,29.44,0,0,0-9.4-27.7c-1-.8-2.4.6-1.4,1.4,9.7,8.4,12.4,23.7,5.5,34.7-6.6,10.5-19.7,14.2-30.5,18.8-8.2,3.5-20.4,9.4-22,19.4-1.7,10.4,11.2,15.2,14.5,23.7.6,1.1,2.5.6,2-.6Z" style="fill:#b2c9ed"/><path d="M519.3,1370a32.89,32.89,0,0,1-14.5-20.9c-2.1-10.2,1.5-19.7,7-28.2,2.9-4.5,5.9-8.6,10.7-11.1,2.9-1.5,6-2.8,8.2-5.4,4.6-5.3,3.4-12.9,2.3-19.1-.2-1.3-2.2-.7-1.9.5.9,5.2,2.1,11.7-1.1,16.3-2.8,4.2-8.3,5.2-12.2,8.1-6.5,4.9-11.4,14.4-13.9,22-4.9,14.8,1.4,31.2,14.4,39.5,1.1.7,2.1-1,1-1.7Z" style="fill:#b2c9ed"/><path d="M496.1,1344.1s15.6-7.3,62.2,0l-27.8,34.1Z" style="fill:#b2c9ed"/><path d="M496.1,1344.1s19.3,27.9,62.2,0v61.7a11.16,11.16,0,0,1-6.8,10.3,60.55,60.55,0,0,1-50.8-1.1,11.28,11.28,0,0,1-6-7.3C491.8,1396.7,486,1368.4,496.1,1344.1Z" style="fill:#cadced"/><path d="M549.7,1371.9s14.8-19.7,26.3-5.5c11.3,14,1.4,35.1-26.3,25.9" style="fill:none;stroke:#cadced;stroke-miterlimit:10;stroke-width:4px"/><path d="M562.6,1257.1c-10.1-5.3-21.8-7.1-31.5-13.2s-18.2-21.2-6.6-30c1-.8,0-2.5-1-1.7-8.5,6.5-7.9,18.7-1.5,26.5,9.7,12,26.8,13.3,39.7,20.2,1.1.5,2.1-1.2.9-1.8Z" style="fill:#b2c9ed"/><path d="M506.7,1247.4c-6.1-3.5-13.2-7.8-15.6-14.9-2.2-6.3.9-15.2,8.4-15.8,1.3-.1,1.3-2.1,0-2-7.2.6-11.5,7.6-11.1,14.5.6,9.5,9.8,15.6,17.3,19.9,1.1.7,2.1-1,1-1.7Z" style="fill:#b2c9ed"/><path d="M533.7,1199.7c3.2-2.5,6.8-5.3,7.4-9.6.5-3.2-.7-6.5-3.7-8-1.2-.6-2.2,1.2-1,1.7,3.1,1.5,3.5,5.3,2,8.2-1.3,2.6-3.9,4.5-6.1,6.3-1,.8.4,2.2,1.4,1.4Z" style="fill:#b2c9ed"/><path d="M531,1168.4a91.3,91.3,0,0,1-14-9.2c-1-.8-2.4.6-1.4,1.4a91.92,91.92,0,0,0,14.4,9.5c1.1.6,2.1-1.1,1-1.7Z" style="fill:#b2c9ed"/><path d="M1722.2,1344.2l-222.6,70.7L1476,1090a59.25,59.25,0,0,1,43.7-63.7,56.6,56.6,0,0,1,16-1.9l62.9,1,105.9,1.6Z" style="fill:#9594c8"/><path d="M1621.5,1170.8c-9.7,57.4,22.6,129.9-42.2,118.9-65.7-11.2-40.9-263.4-40.9-263.4a55.46,55.46,0,0,1,15.9-1.7l62.7,1c-20.6,17.8-1.8,19.6,6.9,25.4,33.4,22,33.8,42.3,24.7,65.4C1641,1135.7,1627.5,1135.5,1621.5,1170.8Z" style="fill:#171338;opacity:0.3499999940395355;isolation:isolate"/><path d="M1484.8,1613.5s2.4,18.1,0,22.5-28.1,34.8-37.9,47c-4.5,5.7-53.3,8.8-41.5-10.7s50.7-48.7,50.7-48.7S1477.1,1611.7,1484.8,1613.5Z" style="fill:#171338"/><path d="M1456.9,1550.9s4.5,70.2-8.3,81.6-39.5,32.6-25.9,36.4,20.9,11,32.5-1.8,12.6-26.6,23.4-39.4-2.6-47.2,2.5-67.6C1486.4,1539.6,1456.9,1550.9,1456.9,1550.9Z" style="fill:#d37477"/><path d="M1285.7,1520.8s-8.6,46.1-29.5,58.4c-19.9,11.7-98.8,8.7-92,18s17.3,12.5,63.1,8.3,78.4,16.7,73.1-8.7c-5.4-25.9,2.1-52.4,2.1-52.4Z" style="fill:#d37477"/><path d="M1301.9,1605.3c-.2,14.2-140.6,5.7-156.6,4.3-8.1-.7,27.7-26.2,39.6-25.3s1.9,18.5,11.2,18.5,61.9-2.6,80.4-2.4C1295.6,1600.6,1302.2,1589.2,1301.9,1605.3Z" style="fill:#171338"/><path d="M1517.7,1008.1s26.2,46.6,13.2,56.8-13.5,54.5,7.4,59.7,75-10.8,90.1-30.6-29.2-85.9-29.2-85.9-4.7-54.6-17.1-54.6S1517.7,1008.1,1517.7,1008.1Z" style="fill:#171338"/><path d="M1500.7,1551.3l-202.4-30.5V1342.3a63.89,63.89,0,0,1,63.9-63.9l314.2,27.4v220.8Z" style="fill:#5f63ac"/><path d="M1427.8,1321.1s-49.8,220.8-31.8,265.2,64.8-29.9,91.8-18.8,37.8,5.7,37.1-47.1,0-212.5,0-212.5Z" style="fill:#171338"/><path d="M1567.7,1363.2s-160-12.1-168.3,12.6c-8.6,25.5-56.7,174.2-74.1,183.7s-92.1,11.6-95.2-7.4,69.3-165.4,91.5-209.8,132.3-53.9,132.3-53.9l110.2,17.3Z" style="fill:#171338"/><path d="M1541.7,1100.2l-75.5,221.2s51.5,30,65.6,12C1545.7,1315.4,1541.7,1100.2,1541.7,1100.2Z" style="fill:#f38a75"/><path d="M1529,1104.3c-4.5-22.3,6.8-13.7,29.2-15.7,41.9-3.7,74.4-12.1,85.3,2.3,16.8,22.1-3.3,235.8-11.7,266.4s-55.7-34.6-83.1-29.3c-11.4,2.2-15.7-26.7-14.8-76.4.2-9.5,2.8-40.8,0-57.2C1527.7,1157.9,1533,1124.3,1529,1104.3Z" style="fill:#f9b17c"/><path d="M1586.7,1025.5s-5.2,56.2,3.4,57.3a85.11,85.11,0,0,0,15.9.5s-27,56.3-36.7,30.6a219.53,219.53,0,0,0-9.3-21.8l-1.8-3.6,7.4-1.4a7.3,7.3,0,0,0,5.8-8.6l-8.1-41.6Z" style="fill:#d37477"/><path d="M1519.8,961.9s-6.7,20.4-4.1,36.3,14.8,62.6,37,61.6c18.4-.9,35.5-16.5,48.7-41.8,0,0,20.4,2.6,18-18.8s-56.3-55.2-56.3-55.2Z" style="fill:#e37d80"/><path d="M1541.7,1009.1c1.3,4,3.9,6.8,5.9,6.2s2.5-4.4,1.2-8.5-3.9-6.8-5.9-6.2S1540.4,1005.1,1541.7,1009.1Z" style="fill:#171338"/><path d="M1520.4,1012.4c1.6,3.9,4.5,6.4,6.4,5.6s2.1-4.6.5-8.5-4.5-6.4-6.4-5.6S1518.7,1008.4,1520.4,1012.4Z" style="fill:#171338"/><path d="M1531.7,1010.9s-3.9,18.3-9.1,23.8,15.3,5.5,15.8,2.5S1531.7,1010.9,1531.7,1010.9Z" style="fill:#e85a5b"/><path d="M1545.3,1046.4s14.1,4.8,20.5-13.5" style="fill:none;stroke:#171338;stroke-linecap:round;stroke-miterlimit:10;stroke-width:3px"/><ellipse cx="1553.04" cy="1024.38" rx="10.3" ry="4.4" transform="translate(-300.26 861.45) rotate(-28.38)" style="fill:#e85a5b"/><path d="M1541.6,994.9s8.1-5.3,14.1,1.7" style="fill:none;stroke:#e85a5b;stroke-linecap:round;stroke-miterlimit:10;stroke-width:2px"/><path d="M1531,994.8s-5.9-4.6-13,2.7" style="fill:none;stroke:#e85a5b;stroke-linecap:round;stroke-miterlimit:10;stroke-width:2px"/><path d="M1613.6,1109.3s8,73.9-2.7,89.1-24.7,53.2-45,72.2c-10.9,10.2-34.9,37.3-48,32.7s36.4,29,62.3,34.4,12-4.9,29.3.5,16.5-40.8,46.7-67.6c24.2-21.4-2-137.8-5.7-157.3S1644.4,1104.4,1613.6,1109.3Z" style="fill:#f38a75"/><path d="M1511.3,973a29.82,29.82,0,0,1,7.7,6.9c3.8,4.7,16.2-2.8,36.9-5.6,15.5-2.1,27.9,18.2,24.8,30.4s-15.3,32.4,15.1,34.5,35.4,42,10.3,62-33.1,26.1-4,27.7c27.7,1.5,19-.2,40.9,1.4s31.9,9.4,35.2-17.6c6.1-49.9-65-76.3-51.1-115.1s-6.8-67.4-46.4-64-38.9-16.2-50.5-.3C1520,946.9,1504.2,968.9,1511.3,973Z" style="fill:#282f72"/><polygon points="1492.9 1337.6 1574.6 1328 1399.9 1328 1492.9 1337.6" style="fill:#d4c5e2"/><polygon points="1339.6 1337.6 1347.6 1342.3 1515.1 1342.3 1558.1 1332.8 1521.7 1332.8 1339.6 1337.6" style="fill:#5f63ac"/><path d="M1508.5,1337.6l-31.1-136.7a14.89,14.89,0,0,0-14.8-11.6l-140.8,2.4a14.94,14.94,0,0,0-14.2,18.6l32.1,127.3Z" style="fill:#b5b5e2"/><path d="M1466.1,1189.7h0a10.29,10.29,0,0,1,10,7.6l37.9,140.3h-5.5" style="fill:#5f63ac"/><path d="M1750.6,1069.2v435.5a42.21,42.21,0,0,1-42.2,42.2l-8.3.9-167.9-2.6-37.9-.6a42.21,42.21,0,0,1-42.2-42.2V1330.5a42.28,42.28,0,0,1,34.4-41.5,40.42,40.42,0,0,1,7.8-.7h129.6a42.21,42.21,0,0,0,42.2-42.2V1069.2a42.58,42.58,0,0,1,12.4-29.9,41.47,41.47,0,0,1,29.6-12.5C1729.8,1026.9,1750.6,1043.8,1750.6,1069.2Z" style="fill:#d4c5e2"/><path d="M1532.2,1545.4l-37.9-.6a42.21,42.21,0,0,1-42.2-42.2V1330.7a42.28,42.28,0,0,1,34.4-41.5l15.1.4s27.7,5,30.2,43.9C1533.4,1360.1,1532.8,1475.5,1532.2,1545.4Z" style="fill:#9594c8"/><path d="M1510.2,969.4c3.7,14.3,17.8,14.4,30,13.4,7.5-.6,15.4-1.4,22.7,1.1,4.3,1.5,7.5,4.1,8.4,8.9.6,3.3,1.3,9.2-1.1,11.8-2.2,2.4,1.4,5.9,3.5,3.5,3.9-4.3,3.4-11.3,2.4-16.7-1.3-6.8-6.3-10.6-12.7-12.6-7.8-2.4-16.1-1.6-24.1-1-9.4.7-21.3,1.6-24.3-9.8-.8-3-5.6-1.7-4.8,1.4Z" style="fill:#282f72"/><path d="M1624.4,984.3c-3.6,9.1-7.3,20.4-4.2,30.2,2.8,8.6,11,12.8,18.9,15.7,10.5,3.9,20.1,7.3,28.9,14.6a78.17,78.17,0,0,1,22.2,29.9c1.2,2.9,6.1,1.6,4.8-1.3-8-18.9-22.9-35.8-42.2-43.6-8.2-3.3-19-4.8-25.1-11.9-7.5-8.7-2.3-22.9,1.4-32.2,1.3-3-3.5-4.3-4.7-1.4Z" style="fill:#282f72"/><path d="M1582.2,1030.6c8.4,4.1,17.7,8.6,22.7,16.8,6.3,10.4,3.1,22.2-4.2,31-11.2,13.5-30,23.5-30.1,43.2,0,3.2,5,3.2,5,0,.2-22.6,28.1-31.7,35.7-51.2a28.89,28.89,0,0,0-3.4-27.4c-5.7-8-14.7-12.6-23.3-16.8-2.8-1.3-5.3,3-2.4,4.4Z" style="fill:#282f72"/><path d="M1632.2,1051.3c.9,2.9,2.7,4.4,5.3,5.8a61.9,61.9,0,0,1,11.6,8.1,218.71,218.71,0,0,1,18,19.3,120,120,0,0,1,15.2,22.7c4.2,8.6,8.1,18.8,4.3,28.2-1.2,3,3.6,4.3,4.8,1.3,6.6-16.3-5.6-35.9-15.1-48.6a215,215,0,0,0-17.7-20.5,98,98,0,0,0-9.9-9.4,52.21,52.21,0,0,0-5.4-3.8c-1.9-1.1-5.6-2.3-6.4-4.7-.8-2.8-5.6-1.5-4.7,1.6Z" style="fill:#282f72"/><path d="M1531.7,1064a189.12,189.12,0,0,1-12,14.8c-3.2,3.7-6.3,7.1-8.1,11.7-3.4,8.9-1.8,18.9,2.4,27.2,1.5,2.9,5.8.3,4.3-2.5-4.1-8.1-5.4-18.6-.3-26.6s12.5-14.4,17.9-22.1c2-2.6-2.4-5.1-4.2-2.5Z" style="fill:#171338"/><ellipse cx="1393.23" cy="1264.96" rx="11.7" ry="15.9" transform="translate(-255.55 357.91) rotate(-13.42)" style="fill:#eaf4fb"/><path d="M1680.5,1733c-13.6,20.4-58.3,21.2-76.5,20.4s-11.5-2.2-67.2.2-50.9-25.5-42.5-33.9h0c4.8-4.7,7.3-6.9,9.9-9.4-7.6,2-14.9,4-21.8,6-7.3,2.1-14.1,4.2-19.9,6.1-40.9,13.6-107.5-9.8-125.7-65.1-5.7-17.5-3.5-34.3,3.8-50.3,1.1-2.3,2.3-4.7,3.6-7,6.3-11.2,15.1-22,25.2-32.2,18.4-18.3,41.4-34.7,62.8-48.4,31.8-20.3,78-21.5,116.7-17.4a449.85,449.85,0,0,1,59.7,10.6,98.61,98.61,0,0,1,38.9,19.6h0c20.3,16.6,39.4,44.7,54.3,91.6C1725.9,1700.5,1694.1,1712.6,1680.5,1733Z" style="fill:#9594c8"/><path d="M1433.8,1761.1s-25.6,2-16.4-28.4,24.8-38,2.4-53.2-67.6-4.8-73.6-24.8-11.3-30.8-11.3-30.8-19.7,30.4-19,55.5c.6,22.7,14.7,78.1,46.7,85.7S1432.2,1770.3,1433.8,1761.1Z" style="fill:#5f63ac"/><path d="M1649.5,1726.3s16.9-14.4,57.9-9.6c0,0-14.6,23.4-32.9,22.7S1649.5,1726.3,1649.5,1726.3Z" style="fill:#5f63ac"/><path d="M1588.9,1639.9s-6.7-38.8,0-44.1,36.5,24.1,42.3,33S1588.9,1639.9,1588.9,1639.9Z" style="fill:#5f63ac"/><path d="M1707.4,1716.7s-45.6-13.3-54.9-5.4-3,15.1-3,15.1S1695.3,1713.3,1707.4,1716.7Z" style="fill:#d4c5e2"/><path d="M1481.5,1737.6c1.5,10.8,15.1,15.5,22.3,7.3,2.1-2.4,3.4-5.8,2.8-10.4-2.1-16.3-19.9-15.1-24.2-5.2A14.71,14.71,0,0,0,1481.5,1737.6Z" style="fill:#5f63ac"/><path d="M1515.7,1746.3c3.1,1.3,28.3,5,38.5-6.6" style="fill:none;stroke:#5f63ac;stroke-linecap:round;stroke-miterlimit:10;stroke-width:5px"/><path d="M1565.7,1699s-9.5-5.9-9.5-19.6" style="fill:none;stroke:#5f63ac;stroke-linecap:round;stroke-miterlimit:10;stroke-width:5px"/><path d="M1587.4,1719.8s5.5,12.4,15.9,13" style="fill:none;stroke:#5f63ac;stroke-linecap:round;stroke-miterlimit:10;stroke-width:5px"/><path d="M1504.2,1710.3s28.9-14.7,31.7-21.1,5.5-38.4,20.2-47.5,12.9-24.7-2-24.2-67.2-5.7-60.2,13.4,19.3,3.1,19.6,30.6-2,40.5-20.3,47.2l-15.2,8.8Z" style="fill:#5f63ac"/><path d="M1328.1,1647.7c-12.3,13.7-20.8,29.4-22.2,48-1.5,19.8,3.9,39.5,9.3,58.3.9,3.1,5.7,1.8,4.8-1.3-4.9-17.4-9.9-35.2-9.3-53.5.6-18.6,8.7-34.3,20.9-47.9,2.2-2.4-1.4-6-3.5-3.6Z" style="fill:#5f63ac"/><path d="M1333.4,1693.2a47.54,47.54,0,0,0-10.6-1.5,2.54,2.54,0,0,0-2.5,2.5c.2,5.5,4.1,8.3,6.7,12.7,3.1,5.6,2.8,12.4,4.8,18.4,3.8,11.2,12.2,21.4,19.7,30.5s16.3,16.1,27.5,19.9c11.9,4,24.7,4.4,37.2,4.7,3.2.1,3.2-4.9,0-5-11.2-.3-22.6-.6-33.5-3.8-11.4-3.3-20.2-10.2-27.6-19.3-7-8.5-15.3-18.4-18.6-29.1-1.7-5.2-1.7-10.9-3.7-16-1.7-4.4-7.1-8.2-7.3-13l-2.5,2.5a41.83,41.83,0,0,1,9.3,1.4c2.9.8,4.2-4.1,1.1-4.9Z" style="fill:#5f63ac"/><path d="M1386.1,1757.6c9.2,9.3,22.4,12.9,35.1,13.7,18.9,1.1,37.9-3.8,55.2-11,2.9-1.2,1.6-6-1.3-4.8-16.2,6.7-33.5,11.4-51.1,10.9-12.3-.3-25.5-3.3-34.4-12.4-2.2-2.2-5.7,1.4-3.5,3.6Z" style="fill:#5f63ac"/><path d="M1395.5,1759.1c12.6,2.2,25.5,3.8,38.3,3.7,12.2-.1,21.9-5.1,32-11.5,2.7-1.7.2-6-2.5-4.3-10,6.3-19.2,10.9-31.3,10.8a230.66,230.66,0,0,1-35.2-3.5c-3.1-.6-4.5,4.2-1.3,4.8Z" style="fill:#5f63ac"/><path d="M1554.2,1536.3c-50.1-11.3-44.9,14-115.7,51s-69.1-19.4-69.1-19.4c18.4-18.3,41.4-34.7,62.8-48.4,31.8-20.3,78-21.5,116.7-17.4a449.85,449.85,0,0,1,59.7,10.6,98.61,98.61,0,0,1,38.9,19.6h0C1654.6,1576.2,1604.3,1547.6,1554.2,1536.3Z" style="fill:#5f63ac"/></svg>