<svg xmlns="http://www.w3.org/2000/svg" viewBox="0 0 1984.3 1984.3"><defs><clipPath ><path d="M798.1,949.6c4.5,1.6,9.1,3.2,13.7,4.6,3.1.9,4.4-3.9,1.3-4.8-4.6-1.4-9.2-2.9-13.7-4.6-3-1.1-4.3,3.7-1.3,4.8Z" style="fill:none"/></clipPath></defs><path d="M1696.3,1143.7c-89.4,7-139.1,114.7-163.9,344-2.3,20.8-7.6,39.4-15.6,55.7-80.2,163.4-426.5,108.9-600.8-25-191.8-147.3-270.2-29.1-580.7-67.2S126.8,950.4,244.7,922.4,546.5,717,538.3,545.9,732.7,332,807.6,373.3c35.9,19.8,86.9,20.6,144.2,7.2h.1c6.2-1.4,12.4-3,18.7-4.8h.2c57.3-16.1,119.8-45.3,179.1-83.2,126.7-81,300.5,22.3,293.1,197s255.8,256.1,382.5,368.4S1785.7,1136.7,1696.3,1143.7Z" style="fill:#ebf5fc"/><polygon points="653.3 943.3 571.4 943.3 575.9 936.5 653.3 943.3" style="fill:#fefeff"/><polygon points="693.2 960.6 560 960.6 571.4 943.3 653.3 943.3 683.8 946 693.2 960.6" style="fill:#fdfeff"/><polygon points="704.4 977.9 548.5 977.9 560 960.6 693.2 960.6 704.4 977.9" style="fill:#fcfdff"/><polygon points="715.6 995.2 537.1 995.2 548.5 977.9 704.4 977.9 715.6 995.2" style="fill:#fbfdfe"/><polygon points="726.8 1012.5 525.7 1012.5 537.1 995.2 715.6 995.2 726.8 1012.5" style="fill:#fafcfe"/><polygon points="738 1029.8 514.2 1029.8 525.7 1012.5 726.8 1012.5 738 1029.8" style="fill:#f9fcfe"/><polygon points="749.2 1047.1 502.8 1047.1 514.2 1029.8 738 1029.8 749.2 1047.1" style="fill:#f8fbfe"/><polygon points="760.4 1064.3 491.4 1064.3 502.8 1047.1 749.2 1047.1 760.4 1064.3" style="fill:#f7fbfe"/><polygon points="771.5 1081.6 479.9 1081.6 491.4 1064.3 760.4 1064.3 771.5 1081.6" style="fill:#f6fafe"/><polygon points="782.7 1098.9 468.5 1098.9 479.9 1081.6 771.5 1081.6 782.7 1098.9" style="fill:#f4fafd"/><polygon points="793.9 1116.2 457.1 1116.2 468.5 1098.9 782.7 1098.9 793.9 1116.2" style="fill:#f3f9fd"/><polygon points="805.1 1133.5 445.6 1133.5 457.1 1116.2 793.9 1116.2 805.1 1133.5" style="fill:#f2f9fd"/><polygon points="816.3 1150.8 434.2 1150.8 445.6 1133.5 805.1 1133.5 816.3 1150.8" style="fill:#f1f8fd"/><polygon points="827.5 1168.1 422.8 1168.1 434.2 1150.8 816.3 1150.8 827.5 1168.1" style="fill:#f0f8fd"/><polygon points="838.7 1185.4 411.3 1185.4 422.8 1168.1 827.5 1168.1 838.7 1185.4" style="fill:#eff7fd"/><polygon points="849.9 1202.7 399.9 1202.7 411.3 1185.4 838.7 1185.4 849.9 1202.7" style="fill:#eef7fc"/><polygon points="861.1 1220 388.5 1220 399.9 1202.7 849.9 1202.7 861.1 1220" style="fill:#edf6fc"/><polygon points="872.3 1237.3 377 1237.3 388.5 1220 861.1 1220 872.3 1237.3" style="fill:#ecf6fc"/><polygon points="883.4 1254.6 365.6 1254.6 377 1237.3 872.3 1237.3 883.4 1254.6" style="fill:#ebf5fc"/><polygon points="946.3 1351.7 302.7 1351.7 302.7 1349.8 365.6 1254.6 883.4 1254.6 946.3 1351.7" style="fill:#ebf5fc"/><polygon points="946.3 1351.7 302.7 1349.8 365.6 1254.6 377 1237.3 388.5 1220 399.9 1202.7 411.3 1185.4 422.8 1168.1 434.2 1150.8 445.6 1133.5 457.1 1116.2 468.5 1098.9 479.9 1081.6 491.4 1064.3 502.8 1047.1 514.2 1029.8 525.7 1012.5 537.1 995.2 548.5 977.9 560 960.6 571.4 943.3 575.9 936.5 653.3 943.3 683.8 946 693.2 960.6 704.4 977.9 715.6 995.2 726.8 1012.5 738 1029.8 749.2 1047.1 760.4 1064.3 771.5 1081.6 782.7 1098.9 793.9 1116.2 805.1 1133.5 816.3 1150.8 827.5 1168.1 838.7 1185.4 849.9 1202.7 861.1 1220 872.3 1237.3 883.4 1254.6 946.3 1351.7" style="fill:none"/><path d="M1479.4,601.5c.2.3.5.7.7,1H742.9a34.54,34.54,0,0,1-5.7-.5,32.24,32.24,0,0,1-26.5-31.8V521.6a32.06,32.06,0,0,1,18-28.9,6.12,6.12,0,0,1,1.2-.5,5,5,0,0,1,1.3-.5h0a31.32,31.32,0,0,1,11.8-2.2h700v1c0,1.2-.1,2.4-.1,3.6v2C1442.7,535.4,1456.5,570.1,1479.4,601.5Z" style="fill:#c9ddf2"/><path d="M1480.1,602.5c-.2-.3-.5-.7-.7-1H742.9a31.35,31.35,0,0,1-31.3-31.3V521.6a31.38,31.38,0,0,1,18.2-28.4,5,5,0,0,1,1.3-.5h0a7.84,7.84,0,0,1,1.4-.5,30.33,30.33,0,0,1,10.4-1.8H1443v-2H742.9a33.34,33.34,0,0,0-13.1,2.7c-.4.2-.8.3-1.2.5s-.7.3-1.1.5a33.41,33.41,0,0,0-17.9,29.5v48.6a33.35,33.35,0,0,0,25.2,32.3,20.48,20.48,0,0,0,2.4.5,36.57,36.57,0,0,0,5.7.5h737.9C1480.6,603.2,1480.3,602.8,1480.1,602.5Z" style="fill:#ebf5fc"/><path d="M1425.2,388.3c12.6,29.4,19.3,63.1,17.8,100v2c0,1.2-.1,2.4-.1,3.6v1h-700a32.58,32.58,0,0,1-11.8-2.2h0c-.4-.2-.9-.3-1.3-.5s-.8-.3-1.2-.5a32.32,32.32,0,0,1-18-29V414a32.06,32.06,0,0,1,18-28.9,6.12,6.12,0,0,1,1.2-.5,5,5,0,0,1,1.3-.5h0a31,31,0,0,1,11.8-2.2h679.4c.2.3.3.7.5,1,.6,1.2,1.1,2.4,1.6,3.6.1.3.3.7.4,1A2.93,2.93,0,0,1,1425.2,388.3Z" style="fill:#c9ddf2"/><path d="M742.9,493.9a29.52,29.52,0,0,1-10.4-1.8c-.5-.2-1-.3-1.4-.5h0a5,5,0,0,0-1.3-.5,31.38,31.38,0,0,1-18.2-28.4V414a31.38,31.38,0,0,1,18.2-28.4c.4-.2.8-.4,1.3-.6h0a12.13,12.13,0,0,1,1.4-.5,29.92,29.92,0,0,1,10.4-1.8h679.8a4.67,4.67,0,0,0-.5-1,4.67,4.67,0,0,0-.5-1H742.9a33.72,33.72,0,0,0-13.1,2.7,6.12,6.12,0,0,1-1.2.5c-.4.2-.7.4-1.1.6A33.41,33.41,0,0,0,709.6,414v48.6a33.41,33.41,0,0,0,17.9,29.5,5.36,5.36,0,0,0,1.1.5,6.12,6.12,0,0,0,1.2.5,33.72,33.72,0,0,0,13.1,2.7h700v-2h-700Z" style="fill:#ebf5fc"/><path d="M1424.4,386.3c.1.3.3.7.4,1H742.9a32.58,32.58,0,0,1-11.8-2.2h0a6.94,6.94,0,0,0-1.3-.5l-1.2-.6a32.21,32.21,0,0,1-17.5-23.5c.3,0,.7-.1,1-.1,37.3-4.5,72.5.2,95.5,12.9a114.68,114.68,0,0,0,16.7,7.5H950.4c62.7-14.4,133-46,199.5-88.5,97.3-62.2,222.4-15.7,271.8,88.5.2.3.3.7.5,1s.3.7.5,1C1423.3,383.9,1423.8,385.1,1424.4,386.3Z" style="fill:#c9ddf2"/><path d="M1424.8,387.3c-.1-.3-.3-.7-.4-1H742.9a30.33,30.33,0,0,1-10.4-1.8,12.13,12.13,0,0,0-1.4-.5h0c-.4-.2-.8-.4-1.3-.6a31,31,0,0,1-17.7-23.1c-.3,0-.7.1-1,.1s-.7.1-1,.1a33.47,33.47,0,0,0,17.4,23.9,5.36,5.36,0,0,0,1.1.5,6.12,6.12,0,0,0,1.2.5,33.72,33.72,0,0,0,13.1,2.7h682.3A2.93,2.93,0,0,1,1424.8,387.3Z" style="fill:#ebf5fc"/><path d="M1610.2,714.7c.5.3,1,.7,1.5,1H742.9a34.54,34.54,0,0,1-5.7-.5,32.24,32.24,0,0,1-26.5-31.8V634.8A32.34,32.34,0,0,1,737.2,603a36.57,36.57,0,0,1,5.7-.5h737.2c.2.3.5.7.7,1C1511.9,645.2,1558.9,681.1,1610.2,714.7Z" style="fill:#c9ddf2"/><path d="M1611.8,715.7c-.5-.3-1-.7-1.5-1H742.9a31.35,31.35,0,0,1-31.3-31.3V634.8a31.35,31.35,0,0,1,31.3-31.3h737.9c-.2-.3-.5-.7-.7-1s-.5-.7-.7-1H742.9a34.54,34.54,0,0,0-5.7.5,20.48,20.48,0,0,0-2.4.5,33.37,33.37,0,0,0-25.2,32.3v48.6a33.43,33.43,0,0,0,25.2,32.3,20.48,20.48,0,0,0,2.4.5,36.57,36.57,0,0,0,5.7.5h870.4A13,13,0,0,0,1611.8,715.7Z" style="fill:#ebf5fc"/><path d="M1787.9,827.8c.5.3.9.7,1.4,1H742.9a34.54,34.54,0,0,1-5.7-.5,32.24,32.24,0,0,1-26.5-31.8V747.9a32.34,32.34,0,0,1,26.5-31.8,36.57,36.57,0,0,1,5.7-.5h868.9c.5.3,1,.7,1.5,1C1672.1,754.9,1736.1,790.1,1787.9,827.8Z" style="fill:#c9ddf2"/><path d="M1789.2,828.8a17,17,0,0,0-1.4-1H742.8a31.35,31.35,0,0,1-31.3-31.3V747.9a31.35,31.35,0,0,1,31.3-31.3h870.4c-.5-.3-1-.7-1.5-1s-1-.7-1.5-1H742.9a34.54,34.54,0,0,0-5.7.5,20.48,20.48,0,0,0-2.4.5,33.37,33.37,0,0,0-25.2,32.3v48.6a33.43,33.43,0,0,0,25.2,32.3,20.48,20.48,0,0,0,2.4.5,36.57,36.57,0,0,0,5.7.5H1790.6A17,17,0,0,0,1789.2,828.8Z" style="fill:#ebf5fc"/><path d="M1870.8,941c0,.3.1.7.1,1H742.9a34.54,34.54,0,0,1-5.7-.5,32.24,32.24,0,0,1-26.5-31.8V861.1a32.34,32.34,0,0,1,26.5-31.8,36.57,36.57,0,0,1,5.7-.5H1789.2c.5.3.9.7,1.4,1,12.4,9.1,24.1,18.4,34.9,27.9C1854.5,883.5,1868.1,912.1,1870.8,941Z" style="fill:#c9ddf2"/><path d="M1870.9,942a3.4,3.4,0,0,0-.1-1H742.9a31.35,31.35,0,0,1-31.3-31.3V861.1a31.35,31.35,0,0,1,31.3-31.3H1790.6a11198694283456.12,11198694283456.12,0,0,0-2.8-2H742.8a34.54,34.54,0,0,0-5.7.5,20.48,20.48,0,0,0-2.4.5,33.37,33.37,0,0,0-25.2,32.3v48.6A33.43,33.43,0,0,0,734.7,942a20.48,20.48,0,0,0,2.4.5,36.57,36.57,0,0,0,5.7.5H1871A3.08,3.08,0,0,0,1870.9,942Z" style="fill:#ebf5fc"/><path d="M1871,943c2.9,38.7-13.6,77.9-38.9,111.2a7,7,0,0,1-.8,1H742.9a34.54,34.54,0,0,1-5.7-.5,32.24,32.24,0,0,1-26.5-31.8V974.3a32.34,32.34,0,0,1,26.5-31.8,36.57,36.57,0,0,1,5.7-.5h1128A3.08,3.08,0,0,1,1871,943Z" style="fill:#c9ddf2"/><path d="M711.6,1022.9V974.3A31.35,31.35,0,0,1,742.9,943H1871c0-.3-.1-.7-.1-1a3.4,3.4,0,0,0-.1-1H742.9a34.54,34.54,0,0,0-5.7.5,20.48,20.48,0,0,0-2.4.5,33.37,33.37,0,0,0-25.2,32.3v48.6a33.43,33.43,0,0,0,25.2,32.3,20.48,20.48,0,0,0,2.4.5,36.57,36.57,0,0,0,5.7.5H1830.6a9236886133736.54,9236886133736.54,0,0,0,1.6-2H742.9A31.48,31.48,0,0,1,711.6,1022.9Z" style="fill:#ebf5fc"/><path d="M742.9,1055.1H1831.3c-.3.3-.5.7-.8,1-37.7,48.6-93.8,84.4-134.2,87.5a103.69,103.69,0,0,0-58.8,23.6c-.4.3-.8.7-1.2,1H742.9a34.54,34.54,0,0,1-5.7-.5,32.24,32.24,0,0,1-26.5-31.8v-48.6a32.34,32.34,0,0,1,26.5-31.8A51,51,0,0,1,742.9,1055.1Z" style="fill:#c9ddf2"/><path d="M742.9,1054.1a34.54,34.54,0,0,0-5.7.5,20.48,20.48,0,0,0-2.4.5,33.37,33.37,0,0,0-25.2,32.3V1136a33.43,33.43,0,0,0,25.2,32.3,20.48,20.48,0,0,0,2.4.5,36.57,36.57,0,0,0,5.7.5h892.2c.4-.3.8-.7,1.2-1s.8-.7,1.2-1H742.9a31.35,31.35,0,0,1-31.3-31.3v-48.6a31.35,31.35,0,0,1,31.3-31.3H1830.6a9236886133736.47,9236886133736.47,0,0,0,1.6-2Z" style="fill:#ebf5fc"/><path d="M742.9,1168.3h893.4c-.4.3-.8.7-1.2,1-25.9,22.2-46.9,58.9-63.7,111.2-.1.3-.2.7-.3,1H742.9a34.54,34.54,0,0,1-5.7-.5,32.24,32.24,0,0,1-26.5-31.8v-48.6a32.34,32.34,0,0,1,26.5-31.8A34.54,34.54,0,0,1,742.9,1168.3Z" style="fill:#c9ddf2"/><path d="M742.9,1167.3a34.54,34.54,0,0,0-5.7.5,20.48,20.48,0,0,0-2.4.5,33.37,33.37,0,0,0-25.2,32.3v48.6a33.43,33.43,0,0,0,25.2,32.3,20.48,20.48,0,0,0,2.4.5,36.57,36.57,0,0,0,5.7.5h827.9c.1-.3.2-.7.3-1s.2-.7.3-1H742.9a31.35,31.35,0,0,1-31.3-31.3v-48.6a31.35,31.35,0,0,1,31.3-31.3h892.2c.4-.3.8-.7,1.2-1s.8-.7,1.2-1Z" style="fill:#ebf5fc"/><path d="M742.9,1281.5h828.2c-.1.3-.2.7-.3,1q-15,47.1-25.6,111.2c-.1.3-.1.7-.2,1H742.9a34.54,34.54,0,0,1-5.7-.5,32.24,32.24,0,0,1-26.5-31.8v-48.6a32.34,32.34,0,0,1,26.5-31.8A26.3,26.3,0,0,1,742.9,1281.5Z" style="fill:#c9ddf2"/><path d="M742.9,1280.5a34.54,34.54,0,0,0-5.7.5,20.48,20.48,0,0,0-2.4.5,33.37,33.37,0,0,0-25.2,32.3v48.6a33.35,33.35,0,0,0,25.2,32.3,20.48,20.48,0,0,0,2.4.5,36.57,36.57,0,0,0,5.7.5h801.9c.1-.3.1-.7.2-1s.1-.7.2-1H742.9a31.35,31.35,0,0,1-31.3-31.3v-48.6a31.35,31.35,0,0,1,31.3-31.3h827.9c.1-.3.2-.7.3-1s.2-.7.3-1Z" style="fill:#ebf5fc"/><path d="M1545,1394.6c-.1.3-.1.7-.2,1-4.7,28.2-8.8,58.8-12.4,92.1a162,162,0,0,1-3.1,19.1c-.1.3-.1.7-.2,1H901.7c-.5-.3-.9-.7-1.4-1-71.7-51.3-128-64.8-188.7-64.7h-1v-15.2a32.34,32.34,0,0,1,26.5-31.8,36.57,36.57,0,0,1,5.7-.5Z" style="fill:#c9ddf2"/><path d="M742.9,1393.6a34.54,34.54,0,0,0-5.7.5,20.48,20.48,0,0,0-2.4.5,33.37,33.37,0,0,0-25.2,32.3v15.2h2v-15.2a31.35,31.35,0,0,1,31.3-31.3h801.9c.1-.3.1-.7.2-1s.1-.7.2-1Zm157.4,113.2c.5.3.9.7,1.4,1s.9.7,1.4,1h625.8a3.55,3.55,0,0,0,.2-1c.1-.3.1-.7.2-1Z" style="fill:#ebf5fc"/><path d="M901.7,1507.8h627.5a3.55,3.55,0,0,0-.2,1c-11.9,52.2-45.5,87.7-92.1,109.3-.7.3-1.4.7-2.2,1s-1.4.6-2,.9a.35.35,0,0,0-.2.1l-2.1.9h-298l-3.3-.9c-.1,0-.2-.1-.4-.1-1.1-.3-2.2-.6-3.2-.9-1.2-.3-2.3-.7-3.5-1-76.7-22.1-150.1-56.8-205.9-99.6-4.4-3.3-8.7-6.6-12.9-9.6C902.6,1508.4,902.1,1508.1,901.7,1507.8Z" style="fill:#c9ddf2"/><path d="M900.3,1506.8c.5.3.9.7,1.4,1s.9.7,1.4,1h625.8a3.55,3.55,0,0,0,.2-1c.1-.3.1-.7.2-1Zm228.3,113.1c.1,0,.2.1.4.1l3.3.9c1.2.3,2.5.7,3.7,1h291.9c.8-.3,1.6-.7,2.4-1l2.1-.9a.35.35,0,0,0,.2-.1Z" style="fill:#ebf5fc"/><path d="M1125.4,1619h309.2c-.7.3-1.4.6-2,.9a.35.35,0,0,0-.2.1l-2.1.9c-.8.3-1.6.7-2.4,1-77.4,31.8-186.8,27.9-291.9,0-1.2-.3-2.5-.7-3.7-1l-3.3-.9c-.1,0-.2-.1-.4-.1Z" style="fill:#c9ddf2"/><path d="M1121.9,1618c1.2.3,2.3.7,3.5,1l3.2.9c.1,0,.2.1.4.1h303.4a.35.35,0,0,0,.2-.1c.7-.3,1.4-.6,2-.9s1.5-.7,2.2-1Z" style="fill:#ebf5fc"/><rect x="891.4" y="389.2" width="2" height="105.7" style="fill:#ebf5fc"/><rect x="1208.4" y="389.2" width="2" height="105.7" style="fill:#ebf5fc"/><rect x="999.3" y="497.5" width="2" height="105.7" style="fill:#ebf5fc"/><rect x="1316.3" y="497.5" width="2" height="105.7" style="fill:#ebf5fc"/><rect x="818.3" y="602.5" width="2" height="113.2" style="fill:#ebf5fc"/><rect x="1135.3" y="602.5" width="2" height="113.2" style="fill:#ebf5fc"/><rect x="1028.9" y="715.3" width="2" height="113.2" style="fill:#ebf5fc"/><rect x="1345.9" y="715.3" width="2" height="113.2" style="fill:#ebf5fc"/><rect x="1263" y="830.3" width="2" height="113.2" style="fill:#ebf5fc"/><rect x="1580" y="830.3" width="2" height="113.2" style="fill:#ebf5fc"/><rect x="920" y="829.4" width="2" height="113.2" style="fill:#ebf5fc"/><rect x="1374.6" y="944.7" width="2" height="113.2" style="fill:#ebf5fc"/><rect x="1691.6" y="944.7" width="2" height="113.2" style="fill:#ebf5fc"/><rect x="1031.6" y="943.8" width="2" height="113.2" style="fill:#ebf5fc"/><rect x="1194.1" y="1058.3" width="2" height="113.2" style="fill:#ebf5fc"/><rect x="1511.1" y="1058.3" width="2" height="113.2" style="fill:#ebf5fc"/><rect x="851.1" y="1057.4" width="2" height="113.2" style="fill:#ebf5fc"/><rect x="1300.9" y="1168.5" width="2" height="113.2" style="fill:#ebf5fc"/><rect x="957.9" y="1167.7" width="2" height="113.2" style="fill:#ebf5fc"/><rect x="1121.6" y="1282.3" width="2" height="113.2" style="fill:#ebf5fc"/><rect x="1438.7" y="1282.3" width="2" height="113.2" style="fill:#ebf5fc"/><rect x="778.6" y="1281.5" width="2" height="113.2" style="fill:#ebf5fc"/><rect x="1330.7" y="1395.3" width="2" height="113.2" style="fill:#ebf5fc"/><rect x="987.6" y="1394.4" width="2" height="113.2" style="fill:#ebf5fc"/><rect x="1165.1" y="1508.4" width="2" height="113.2" style="fill:#ebf5fc"/><path d="M1832.1,1054.1a7,7,0,0,1-.8,1c-.3.3-.5.7-.8,1-37.7,48.6-93.8,84.4-134.2,87.5a103.69,103.69,0,0,0-58.8,23.6c-.4.3-.8.7-1.2,1s-.8.7-1.2,1c-25.9,22.2-46.9,58.9-63.7,111.2-.1.3-.2.7-.3,1s-.2.7-.3,1q-15,47.1-25.6,111.2c-.1.3-.1.7-.2,1s-.1.7-.2,1c-4.7,28.2-8.8,58.8-12.4,92.1a162,162,0,0,1-3.1,19.1c-.1.3-.1.7-.2,1a3.55,3.55,0,0,0-.2,1c-11.9,52.2-45.5,87.7-92.1,109.3-.7.3-1.4.7-2.2,1s-1.4.6-2,.9a.35.35,0,0,0-.2.1l-2.1.9c-.8.3-1.6.7-2.4,1-77.4,31.8-186.8,27.9-291.9,0-1.2-.3-2.5-.7-3.7-1l-3.3-.9c-.1,0-.2-.1-.4-.1-1.1-.3-2.2-.6-3.2-.9-1.2-.3-2.3-.7-3.5-1-76.7-22.1-150.1-56.8-205.9-99.6-4.4-3.3-8.7-6.6-12.9-9.6-.5-.3-.9-.7-1.4-1s-.9-.7-1.4-1c-71.7-51.3-128-64.8-188.7-64.7h-2c-91.6.6-193.7,31.3-374.4,9.1-310.6-38.1-208.5-500.8-90.6-528.8S546.5,717.1,538.3,546.1c-5.6-117.5,88.2-174.5,171.8-185.3.3,0,.7-.1,1-.1s.7-.1,1-.1c37.3-4.5,72.5.2,95.5,12.9a114.68,114.68,0,0,0,16.7,7.5c1,.3,1.9.7,2.9,1s2.1.7,3.2,1c4.7,1.4,9.6,2.6,14.6,3.6,1.9.4,3.8.7,5.8,1,2.5.4,5.1.7,7.7,1a228.88,228.88,0,0,0,46.1,0c3-.3,6.1-.6,9.2-1,2.4-.3,4.9-.6,7.4-1q9.9-1.5,20.1-3.6c1.6-.3,3.2-.7,4.8-1s3-.7,4.4-1c62.7-14.4,133-46,199.5-88.5,97.3-62.2,222.4-15.7,271.8,88.5.2.3.3.7.5,1s.3.7.5,1c.6,1.2,1.1,2.4,1.6,3.6.1.3.3.7.4,1a4.18,4.18,0,0,1,.4,1c12.6,29.4,19.3,63.1,17.8,100v2c0,1.2-.1,2.4-.1,3.6v2c-.2,39.5,13.6,74.2,36.5,105.6.2.3.5.7.7,1s.5.7.7,1c31.1,41.8,78.1,77.6,129.4,111.2.5.3,1,.7,1.5,1s1,.7,1.5,1c58.8,38.2,122.8,73.5,174.6,111.2.5.3.9.7,1.4,1s.9.7,1.4,1c12.4,9.1,24.1,18.4,34.9,27.9,29,25.7,42.7,54.3,45.4,83.2,0,.3.1.7.1,1s.1.7.1,1C1873.9,981.7,1857.4,1020.8,1832.1,1054.1Z" style="fill:none"/><path d="M575.9,936.5s32.3-62.4,47.6-58.8,44.7,16.1,60.2,68.2C683.8,946,623,982,575.9,936.5Z" style="fill:#b5b5e2"/><rect x="791.4" y="570.6" width="636.5" height="775.1" style="fill:#ebf5fc"/><polygon points="1427.9 1345.6 791.4 1345.6 908.6 1291.4 1508.3 1291.4 1427.9 1345.6" style="fill:#c9ddf2"/><path d="M1428.5,1347.6H782.3l125.9-58.2h606.6Zm-628-4h626.8l74.5-50.2H909.1Z" style="fill:#ebf5fc"/><polygon points="796.9 610.1 791.4 1345.6 908.6 1291.4 914.1 555.8 796.9 610.1" style="fill:#fff"/><polygon points="778.8 1364.3 778.8 1345.6 1484.7 1345.6 1484.7 1359.4 778.8 1364.3" style="fill:#aecbe5"/><polygon points="778.8 746.2 778.8 733.9 1452 733.9 1452 745.1 778.8 746.2" style="fill:#fff"/><path d="M620.6,878.3c-.4-2.3-10.3-57.7,20.4-99,13.2-17.7,32.5-23.8,55.9-17.5a103.14,103.14,0,0,1,31,14.7l-3.6,4.8a100.37,100.37,0,0,0-29.1-13.8c-21-5.6-37.7-.5-49.4,15.3-29.2,39.2-19.5,93.8-19.4,94.3Z" style="fill:#c9ddf2"/><path d="M598.9,898.9s20.8-43.9,51.2-6.9C650.1,892,626.4,903.9,598.9,898.9Z" style="fill:#c9ddf2"/><path d="M612.6,901.1a83.33,83.33,0,0,1-13.9-1.2l-1.3-.2.6-1.2c.4-.8,9.8-20.2,25.5-22.2,9.1-1.1,18.3,3.9,27.4,15l.8,1-1.1.6A97,97,0,0,1,612.6,901.1Zm-12.2-3c22.9,3.8,43.1-4.3,48.1-6.6-8.3-9.8-16.7-14.3-24.8-13.3C611.2,879.8,602.7,893.9,600.4,898.1Z" style="fill:#ebf5fc"/><rect x="792.2" y="571" width="648.1" height="162.9" style="fill:#c9ddf2"/><path d="M1441.3,734.9H791.2V570h650.1Zm-648.1-2h646.1V572H793.2Z" style="fill:#ebf5fc"/><path d="M1436.3,849.6l-.1-2c.3,0,33-1.8,39.4-19.1l1.9.7C1470.6,847.7,1437.7,849.5,1436.3,849.6Z" style="fill:#fff"/><path d="M1363.2,787.2l-1.2-1.6c8.3-5.9,30.1-22.8,31-30.6l2,.2C1393.8,765.4,1364.4,786.3,1363.2,787.2Z" style="fill:#fff"/><polygon points="1475.2 1019.5 1476.6 1058.4 1483.2 1058.2 1481.7 1019.5 1475.2 1019.5" style="fill:#9594c8"/><polygon points="1475.2 1075.4 1476.6 1114.4 1483.2 1114.2 1481.7 1075.5 1475.2 1075.4" style="fill:#9594c8"/><polygon points="995.7 733.9 1012.7 733.9 1110 581.8 1092.9 581.9 995.7 733.9" style="fill:#ebf5fc"/><polygon points="1034.7 733.9 1087.7 733.9 1185 581.8 1131.8 581.9 1034.7 733.9" style="fill:#ebf5fc"/><path d="M1518.5,1169.1l-1.3-1.5c.4-.3,35.7-30.7,34.1-66.4l2-.1C1555,1137.7,1518.9,1168.8,1518.5,1169.1Z" style="fill:#fff"/><polygon points="778.8 1345.6 778.8 582.5 778.8 558.2 804 558.2 804 1345.6 778.8 1345.6" style="fill:#fff"/><rect x="932.9" y="582.3" width="16.1" height="163.9" style="fill:#fff"/><rect x="1269.5" y="582.3" width="16.1" height="163.9" style="fill:#fff"/><polygon points="790.6 583 790.6 558.2 1440.3 558.2 1440.3 580.6 790.6 583" style="fill:#fff"/><polygon points="1427.7 1345.6 1427.7 582.5 1427.7 558.2 1452.9 558.2 1452.9 1345.6 1427.7 1345.6" style="fill:#fff"/><path d="M1304.4,965s72.2-7.4,80.4,7.8l-41,46.8-39.4-33.3-6.8-15.3Z" style="fill:#9594c8"/><path d="M1348.4,937.1s-97.5-13.9-75.8-82.8,68.9-47.2,87.6-94.5,12.1-124.2,12.1-124.2,41.1,98.6,13.5,142.4-42.6,65.1-32.5,86.1S1373,934.1,1348.4,937.1Z" style="fill:#c9ddf2"/><path d="M1348.4,938.1h-.1c-.5-.1-52.9-7.9-72.4-38.9-8.2-12.9-9.6-28.1-4.2-45.2,12.1-38.5,32.7-49.3,50.8-58.8,14.7-7.7,28.6-15,36.9-35.8,18.4-46.5,12.1-123,12-123.7l-.6-6.4,2.5,5.9a371.76,371.76,0,0,1,17.1,55c9.1,40.3,7.9,70-3.7,88.4-1.7,2.7-3.4,5.3-5,7.9-24.4,38.7-36.7,58.1-27.5,77.3,8.2,17,15.3,50.2,6.9,65.6a16,16,0,0,1-12.6,8.7Zm25.3-296c1.1,19.6,2.8,79.2-12.6,118.1-8.5,21.5-22.7,28.9-37.8,36.8-18.7,9.8-37.9,19.9-49.8,57.6-5.2,16.5-3.8,31.1,4,43.5,18.6,29.5,68,37.5,70.9,37.9a14,14,0,0,0,10.9-7.6c8.2-14.9,1.1-47.2-6.9-63.8-9.7-20.2,2.7-39.9,27.6-79.2,1.6-2.5,3.3-5.2,5-7.9C1408.1,740.9,1382,664.1,1373.7,642.1Z" style="fill:#fff"/><path d="M1347.8,937.9a195.08,195.08,0,0,1-29.9-28.9c-18-21.9-22.5-40.9-13.2-55,4.8-7.2,11.7-14,19.7-22,29.2-29,69.3-68.8,50.6-172.4l2-.4c8.3,46.3,5.8,84.1-7.6,115.5-11.5,26.9-29.3,44.5-43.6,58.7-7.9,7.9-14.7,14.6-19.4,21.7-21.4,32.3,42,80.6,42.6,81.1Z" style="fill:#fff"/><path d="M1338.8,1050.3S1263,919.4,1331.4,871s116.7-59.1,125.5-121.1c0,0,45.6,62,0,134.9s-89.6,60.1-99.4,100.4S1338.8,1050.3,1338.8,1050.3Z" style="fill:#c9ddf2"/><path d="M1339,1052.7l-1.1-1.9c-.2-.3-19.1-33.3-29.5-71.7-6.1-22.6-8-42.7-5.8-59.7,2.8-21.4,12.3-37.9,28.1-49.1,17.2-12.2,33.3-22,47.4-30.7,42.8-26.3,71.1-43.7,77.7-89.7l.3-2.4,1.4,2c.1.2,11.6,16,17.3,40.5,5.2,22.6,6.5,57.6-17.2,95.5-24.5,39.1-48.1,53.4-67.1,64.9-16.1,9.8-27.8,16.8-32.3,35.2-9.7,40-18.6,64.9-18.7,65.2Zm118.5-300.1c-7.4,45-35.7,62.5-78.2,88.6-14.1,8.7-30.2,18.5-47.3,30.7-34.9,24.7-31,71.6-21.6,106.7,8.8,32.9,24,61.7,28.2,69.3,2.3-6.8,9.8-29.6,17.9-62.9,4.7-19.2,17.2-26.8,33.2-36.4,18.8-11.4,42.2-25.5,66.4-64.3,23.4-37.3,22.1-71.7,17-94A126.38,126.38,0,0,0,1457.5,752.6Z" style="fill:#fff"/><path d="M1332.7,1034a126.57,126.57,0,0,1-12.3-42.7c-2.3-22.6,1.1-55.3,30.9-83,23.3-21.7,42-32.4,57-41.1,24.5-14.1,38-21.9,43.6-61.5l3.1-50.6,2,.1-3.1,50.7c-5.7,40.7-20.3,49.1-44.6,63.1-15,8.6-33.6,19.3-56.7,40.8-29.2,27.2-32.6,59.3-30.3,81.4a123.51,123.51,0,0,0,12.1,41.9Z" style="fill:#fff"/><path d="M1297.6,971s50.5,26.5,87.2,1.8l3.2,148.4a21.66,21.66,0,0,1-18,21.8c-21.6,3.6-54.5,6.1-55.6-12.4C1312.7,1100.5,1297.6,971,1297.6,971Z" style="fill:#b5b5e2"/><path d="M1364.2,940.5a234.12,234.12,0,0,1-33.7-2.4l.3-2c.6.1,61.4,9.5,91.2-10.4l1.1,1.7C1407.3,937.9,1383.7,940.5,1364.2,940.5Z" style="fill:#fff"/><path d="M1395.5,898.9c-15.6,0-27.9-1.4-29.2-1.5l.2-2c.7.1,73,8.1,91.9-15l1.6,1.3C1448.4,895.9,1418.5,898.9,1395.5,898.9Z" style="fill:#fff"/><path d="M1401.2,872.5c-.1-.2-14.6-23.7,2.1-48.7l1.7,1.1c-16,23.9-2.2,46.3-2.1,46.5Z" style="fill:#fff"/><path d="M1351.1,909.4c-.1-.3-13.6-30.5,3.4-55l1.6,1.1c-16.3,23.5-3.3,52.7-3.2,53Z" style="fill:#fff"/><path d="M1323.2,954.8c-.9-1.6-23-39.5-14-58.7l1.8.8c-8.5,18.2,13.7,56.4,14,56.8Z" style="fill:#fff"/><path d="M1308.2,852.1l-.3-2c.4-.1,40-5.8,44.8-16.3l1.8.8C1349.3,846.1,1309.9,851.9,1308.2,852.1Z" style="fill:#fff"/><path d="M1319.8,837.1c0-1.4-1-35.5,5.9-43.5l1.5,1.3c-6.4,7.4-5.4,41.8-5.4,42.1Z" style="fill:#fff"/><path d="M1302.4,882.2c-.3-.1-29.6-11.1-28.3-35.2l2,.1c-1.3,22.6,26.7,33.1,27,33.2Z" style="fill:#fff"/><polygon points="1373.6 1019.5 1375 1058.4 1381.5 1058.2 1380.1 1019.5 1373.6 1019.5" style="fill:#9594c8"/><polygon points="1373.6 1075.4 1375 1114.4 1381.5 1114.2 1380.1 1075.5 1373.6 1075.4" style="fill:#9594c8"/><line x1="1376.6" y1="1038.9" x2="1479.2" y2="1037.1" style="fill:none"/><rect x="1376.63" y="1035.99" width="102.6" height="4" transform="translate(-18.52 25.97) rotate(-1.04)" style="fill:#9594c8"/><line x1="1376.6" y1="1094.5" x2="1479.2" y2="1092.6" style="fill:none"/><rect x="1376.6" y="1091.55" width="102.6" height="4" transform="translate(-19.52 25.97) rotate(-1.04)" style="fill:#9594c8"/><path d="M1472.2,1589.4s-74-66.4-9.4-194.8,134.5-119,94.9-273.4-79.3-184.9-79.3-184.9,77.5,145.5-7.8,235.4-145.5,206-97.9,303.9S1472.2,1589.4,1472.2,1589.4Z" style="fill:#ebf5fc"/><path d="M1480.3,1593.9l-8.7-2.7c-.5-.2-13.6-4.3-32.6-20.6-17.4-14.9-43.4-43.4-68.1-94.2-22.4-46-22.8-98.7-1-156.5,18.4-48.9,52.7-100.6,99.2-149.6,43.5-45.8,43.3-106.6,35.4-149.6a320.2,320.2,0,0,0-27.9-83.5l-4.3-8.1,7.3,5.6c1.6,1.3,40.8,32.7,80.1,186,12.7,49.5,14.9,84.4,7,113.1-7.3,26.8-22.6,46.1-41.8,70.4-18.5,23.4-39.4,49.9-60.2,91.2-33,65.6-28.8,114.4-19.5,143.8,10.1,31.8,28.3,48.4,28.4,48.6Zm5.7-646a333.17,333.17,0,0,1,22.4,72c5.1,27.9,5.5,53.9,1.3,77.4-5.3,29.5-18,54.9-37.8,75.7-48.6,51.1-155.3,182.9-97.5,301.6,35.2,72.2,72.8,99.5,89.5,108.7a128.52,128.52,0,0,1-22.6-42.6c-9.6-30.1-14-80.1,19.6-147.1,21-41.7,43-69.5,60.7-91.9,37.8-47.8,60.6-76.6,34.1-180.1C1528,1013.4,1499.9,966.1,1486,947.9Z" style="fill:#c9ddf2"/><path d="M1454.4,1580.8c-.5-.4-11.6-9.4-24.1-30.6-11.5-19.6-26.2-53.6-31.2-104.7-8.5-87.6,34.8-142.4,69.7-186.4,17.1-21.6,31.9-40.2,38.4-59.4.7-1.9,1.3-3.8,2-5.7,19.5-56.4,39.8-114.8-28.5-254.1l1.8-.9c30.8,62.8,46.3,114.7,47.5,158.7,1.1,39.3-9.1,68.6-18.9,97-.7,1.9-1.3,3.8-2,5.7-6.7,19.5-21.6,38.2-38.8,60-34.6,43.7-77.7,98.2-69.3,185,9.4,96.9,54.1,133.6,54.5,133.9Z" style="fill:#c9ddf2"/><path d="M1398.2,1426c-.3-.7-32-73.3-6.6-150.4l1.9.6c-25.2,76.4,6.2,148.2,6.5,149Z" style="fill:#c9ddf2"/><path d="M1448.2,1273.6c-.2-.3-16.2-30.6-.1-78.5l1.9.6c-15.9,47.1-.2,76.6-.1,76.9Z" style="fill:#c9ddf2"/><path d="M1511,1237.6a85.5,85.5,0,0,1-20.8-2.3l.5-1.9c.5.1,47.6,12.5,77.8-22.3l1.5,1.3C1551.9,1233.2,1527.9,1237.6,1511,1237.6Z" style="fill:#c9ddf2"/><path d="M1427.7,1619s58.1-50.2,34.4-140.2-69.1-93.4-23.3-185.8,59.3-120.2,59.3-120.2-52.9,95.5-10.9,163.8,64.7,155.6,21.7,220.6C1470.1,1616.1,1427.7,1619,1427.7,1619Z" style="fill:#ebf5fc"/><path d="M1421.9,1621.4l4.5-3.9c.1-.1,14.4-12.7,25.7-35.9,10.4-21.4,20.2-56.5,8.1-102.3-7.6-28.9-17.3-48.5-25.8-65.7-9-18.1-16-32.4-17.1-50.5-1.1-19.4,5-41.3,19.7-71,30.1-60.8,46.4-93.8,53.9-109.1,3.2-7,5.4-11,5.5-11.1l3.5,1.8c0,.1-1.6,3.4-5.4,11.1a273.38,273.38,0,0,0-15.7,44.9c-7.2,29.2-11.2,71.2,10.1,105.9,22.9,37.3,37.8,76.2,43,112.3,6.1,42.6-1,79.8-21.3,110.5-38.9,58.9-81,62.4-82.8,62.6Zm55.6-402c-8.9,18.1-21,42.4-36.9,74.5-30.5,61.6-20,82.8-2.7,118,8.2,16.6,18.4,37.2,26.1,66.5,12.4,47.1,2.2,83.2-8.5,105.2a134.17,134.17,0,0,1-21.8,32.3c13-3.3,44.4-15.5,73.5-59.6,36.5-55.2,28.3-136.9-21.7-218.5-22-35.9-17.9-79.1-10.5-109.1C1475.8,1225.5,1476.6,1222.4,1477.5,1219.4Z" style="fill:#c9ddf2"/><path d="M1427.9,1620l-.4-2c.4-.1,36.6-7.5,56.2-75.9,17.2-59.9-2.8-117.8-17.4-160-3-8.7-5.9-17-8-24.2-12.8-43.6-1.8-97.8,37-181.4l1.8.8c-38.5,83.1-49.5,136.9-36.9,180,2.1,7.2,5,15.4,8,24.1,14.7,42.5,34.8,100.7,17.5,161.2-10.4,36.3-25.5,55.4-36.3,65C1437.5,1618.2,1428.3,1619.9,1427.9,1620Z" style="fill:#c9ddf2"/><path d="M1481.8,1555l-1.4-1.4c.4-.4,37.4-38,48.1-108.3l2,.3C1519.7,1516.6,1482.2,1554.7,1481.8,1555Z" style="fill:#c9ddf2"/><path d="M1488.8,1461.4l-1.5-1.3c.2-.2,20.1-24.8,20-83.8h2C1509.4,1436.1,1489.7,1460.4,1488.8,1461.4Z" style="fill:#c9ddf2"/><path d="M1466.4,1382.7c-.1-.3-8.4-32.2,11.9-63.4l1.7,1.1c-19.8,30.5-11.7,61.5-11.6,61.8Z" style="fill:#c9ddf2"/><path d="M1470.9,1395.5c-.5-.3-48-27.3-47.9-66.5h2c-.1,38,46.4,64.5,46.8,64.7Z" style="fill:#c9ddf2"/><path d="M1484.7,1446.4c-.7,0-27.9-.3-48.7-31.9l1.7-1.1c20.2,30.7,46.5,31,47.1,31h0l-.1,2Z" style="fill:#c9ddf2"/><path d="M1486.2,1533.9c-.9-.7-22.4-18.3-21.2-36.7l2,.1c-1.1,17.4,20.3,34.9,20.5,35Z" style="fill:#c9ddf2"/><path d="M871.9,933.1s-9.4-31.3,26.4-28.6c75.5,5.5,15.8,52.8,53.1,64.6s-.1,90.2,45,111.5,87.4,52.1,68.5,86.1-50.4,34.4-91.3,38.5-86.6-12.3-76.8-64.8,14.7-82.5-7.3-108.9C867.7,1005.2,830.3,973.5,871.9,933.1Z" style="fill:#171338"/><path d="M850.3,1238.2s-1.8,16.5,2.2,26.3,11.5,20.3,14.9,28.7,0,10.4-4.6,6.9-7.6-25.8-10.3-19.4,1.4,44,2.1,50-2.7,12.4-4.8,4.2-6.1-33.9-6.1-33.9,10.2,44.4,8.8,46.7-4.3,4.3-6.8-9.4-6.7-33.6-6.7-33.6,9.5,37.9,4.7,39.5-8.9-23.8-8.9-23.8l1.8-33.1s1.1,47-1.8,47.6-4.6-23.8-5.8-30.2,2-29.2,4.3-43,1.9-22.2,1.9-22.2Z" style="fill:#d37476"/><path d="M1182.1,1240.3s13.3,33,10.4,46.4-3.4,20.6,17.2,21,109,.8,109-4.6-31-4.7-53.1-10.8c-11.2-3.1-25.4-7.9-36.4-11.8a31.61,31.61,0,0,1-20.7-24.6l-3-17.7Z" style="fill:#d37477"/><path d="M1192,1273.1s13.5,12.7,19,23.7,84.6,10.5,85.4,6.3-1.3-12.8,3.8-12.7,22.3,8.5,22.7,12.3-6.7,5.3-6.7,5.3-114.4,4-127.9,0C1188.2,1307.9,1187.1,1285.3,1192,1273.1Z" style="fill:#d22b3e"/><path d="M883.8,996s9.2,32.1,10.1,53.7c0,0,16.9,21.3,14.8-10.5,0,0-11.2-19.1-8.5-43.3Z" style="fill:#d36267"/><path d="M872.1,1062.3s4.9,191.3-4.7,201.4-54.1,19.1-54.7,3.3,42.8-242.2,42.8-242.2Z" style="fill:#2d3266"/><path d="M1202.9,1539.6s11.8,33.1,11.8,49.7-18.9,35.5,0,41.8,45,22.1,63.1,40.2,36.3,17.4,44.2,11.8-37.9-24.5-48.9-41.8a322.73,322.73,0,0,1-23.6-45c-5.6-12.6-23.8-74.9-23.8-74.9Z" style="fill:#d37477"/><path d="M1313.1,1665.5s-21.6-7.8-31.4.1c0,0-67.2-37.7-66.6-42.4s6.7-24.2-.7-31.3l-18,35.7s51.5,29.8,78,47.5c26.3,17.6,47.5,18.1,50.8,10.5S1313.1,1665.5,1313.1,1665.5Z" style="fill:#d22b3e"/><g style="opacity:0.3199999928474426"><path d="M910.2,1011.2s-26.8,42.1-3.9,64.7,28.5,12.4,27.6,48.4-3.3,52.2,42.7,44.4-6.1-74.4-6.1-74.4l-27.9-86.5Z" style="fill:#171338"/></g><path d="M877.7,925s-18.5,27.2-8.7,60.5c6.1,20.7,17,21.2,32.3,11.7,18.7-11.7,23.2-15.7,17.3-44.9S894.6,921.5,877.7,925Z" style="fill:#d37476"/><path d="M884,954.4s-5.5,14.3-10.7,21.5a23.09,23.09,0,0,0,8.9,1.7C886.8,977.4,884,954.4,884,954.4Z" style="fill:#e9425a"/><path d="M890.1,992.6a15,15,0,0,1-8.5-2.7,1,1,0,0,1,1.2-1.6,14,14,0,0,0,9.2,2.1c3.8-.6,7.3-3.1,10.4-7.3a1,1,0,0,1,1.6,1.2c-3.4,4.7-7.4,7.5-11.7,8.1C891.4,992.5,890.7,992.6,890.1,992.6Z" style="fill:#171338"/><ellipse cx="897.41" cy="959.78" rx="7.8" ry="3.5" transform="translate(-231.63 1631.93) rotate(-77.69)" style="fill:#171338"/><ellipse cx="876.81" cy="956.18" rx="7.8" ry="3.5" transform="translate(-244.32 1608.97) rotate(-77.69)" style="fill:#171338"/><path d="M874.9,923.7s25.6,3.3,43.3,27.1c15.1,20.2-4,69.5-4,69.5l26.6-17.2L910.6,915Z" style="fill:#171338"/><path d="M1236.1,1234.1c-.3.1-.7.3-1,.4a157.56,157.56,0,0,1-29.5,7.9c-.4.1-.7.1-1.1.2a113.64,113.64,0,0,1-21.1,1.7h-1.1c-6.8-.2-12.5-1.5-15.8-4-16.2-12.2-20.7-69.4-20.7-69.4l-95.7,84.5-36.5-1.6-5.7-.2-13.7-.6-9.1-.4-62.6-2.7-34.4-93.3,28,4.8,8.8,10.4c4.5,11.9,26.4,33.2,42.3,21.1s160.9-122.3,175.3-119.9,102,139.5,106.8,150.3C1250.7,1226.5,1245.1,1230.5,1236.1,1234.1Z" style="fill:#f69d79"/><g style="opacity:0.4699999988079071"><path d="M1205.5,1242.4c-.4.1-.7.1-1.1.2-11.4-29.7-45.7-114.5-65.5-118.6-13.9-2.9-47.5,27-80,55.9-24,21.4-48.9,43.5-66.9,53.5-13,7.2-15,11.4-14.4,13.7,1,3.4,8.3,5.1,16.3,5.9a133.56,133.56,0,0,0,13.7.6c1.7,0,3.2,0,4.5-.1,4.2-4.1,93-91.2,108.6-105.6,7-6.5,13.8-8.9,20-7.1,9.9,2.9,18.1,16.3,24.5,40,6.5,24.3,13.2,47.7,17.9,63.5H1182c-4.6-15.8-11.4-39.1-17.8-63.2-6.2-23.3-14.2-36.5-23.8-39.3-5.8-1.7-12.2.6-19,6.8-15.3,14.1-100.3,97.5-108.2,105.2l-.6.6-.2.2h-.2c-1,0-17.3.7-27.6-2-4.3-1.1-7.5-2.8-8.2-5.2-1.1-3.9,3.8-8.7,14.9-14.9,17.9-10,42.7-32,66.7-53.4,34.2-30.4,66.4-59.1,80.9-56.1C1159.8,1127.2,1194.1,1212.6,1205.5,1242.4Z" style="fill:#fff"/><path d="M1236.1,1234.1c-.3.1-.7.3-1,.4-21-33-82.2-127.1-100-132.3-20.8-6.1-107.7,72.6-144.8,106.2l-4.5,4.1c-33.5,30.3-66.2,8.8-66.5,8.6l.6-.9c.3.2,32.3,21.2,65.2-8.5l4.5-4.1c37.2-33.7,124.4-112.7,145.8-106.4C1153.8,1106.6,1215.1,1201,1236.1,1234.1Z" style="fill:#fff"/></g><path d="M1240.8,1522.6c-.3.2-.7.3-1,.5-8,4-17.2,8.2-26.3,12.1a4.18,4.18,0,0,1-1,.4c-8.3,3.5-16.5,6.7-23.5,9.1a3,3,0,0,0-1,.4,103.31,103.31,0,0,1-14.5,4.1c-20.7,3.5-72.5-240.3-78.9-251.1s-27.9,9.2-86.9,13.7-104.4,1.5-119.7-3c-13.2-3.9-8.8-81.1-7.4-97.9.2-2.5.3-4,.3-4l30.3-31.1s17.5,52.6,41.5,56,183.4-15.3,192.9-8.6,23.1,42.7,44.7,113.4,71.7,163.6,74.1,170C1265.3,1509.1,1255,1515.5,1240.8,1522.6Z" style="fill:#f9b17c"/><g style="opacity:0.4699999988079071"><path d="M1122.7,1266c18.1,21.7,71.4,202,90.9,269.2a4.18,4.18,0,0,1-1,.4c-19.4-66.8-73-247.6-90.7-268.9-22-26.5-188.3,12.1-198.3,15.3a4.51,4.51,0,0,1-3.7-.5c-11.4-6.5-23.7-58.1-25.9-67.8l-7.3,14.8c.7,3.4,10.5,53,17.9,66.1,3.7,6.6,53,.7,100.7-5,50.7-6.1,98.5-11.8,107-5.5,14.6,10.8,62.8,203.9,76.8,260.7a3,3,0,0,0-1,.4c-13.8-56.1-62.2-249.8-76.4-260.2-8.2-6-58-.1-106.3,5.7-50.2,6-97.7,11.7-101.8,4.5-7.7-13.6-17.6-64.5-18-66.6v-.2l8.8-17.9.3,1.5c.1.6,13.8,61.8,25.8,68.6a3.2,3.2,0,0,0,2.8.4c5.8-1.9,49.4-12.3,96.1-19.1C1060.1,1256.1,1111,1252,1122.7,1266Z" style="fill:#fff"/><path d="M1240.8,1522.6c-.3.2-.7.3-1,.5-6.1-21.1-23.5-75.2-43.3-131-30.4-86-51.8-135.4-60.3-139-17.2-7.4-119.8-4-169.2-2.3-9.6.3-17.1.6-21.7.7h-.5c-28.2,0-47.7-49.7-48.5-51.8l1-.4c.2.5,20.1,51.1,47.5,51.1h.5c4.6-.1,12.1-.3,21.7-.7,49.4-1.6,152.2-5.1,169.6,2.4,11.2,4.8,39.3,78.6,60.9,139.6C1216.8,1446.2,1234.6,1500.9,1240.8,1522.6Z" style="fill:#fff"/></g><path d="M855.5,1024.9s14.3,8,44-1,21.7,1.5,23.3,5.1,45.9,156.1,37.9,166.6-16.9,3.2-35.3,1.6-38.8,62.4-58.8,60.5,2.8-141.8-3.4-182.2S855.5,1024.9,855.5,1024.9Z" style="fill:#394480"/><ellipse cx="900.28" cy="975.6" rx="8.7" ry="3.8" transform="translate(-233.94 285.78) rotate(-15.99)" style="fill:#e9425a"/><g style="clip-path:url(#a)"><rect x="795.1" y="943.7" width="21.1" height="11.4" style="fill:#fff"/></g><g style="clip-path:url(#a)"><circle cx="805.6" cy="949.5" r="5.3" style="fill:#fff"/></g><g style="clip-path:url(#a)"><circle cx="805.6" cy="949.5" r="2.7" style="fill:#fff"/></g><path d="M893.5,947.9c4.4-.4,9-.2,12.4,2.9.9.9,2.4-.5,1.4-1.4-3.8-3.5-8.8-3.9-13.8-3.5-1.3.1-1.3,2.1,0,2Z" style="fill:#171338"/><path d="M882.5,941.3a34.37,34.37,0,0,0-5.3-2.1,15.19,15.19,0,0,0-5.2-.1c-1.3.2-.7,2.1.5,1.9,3.6-.5,6.3.9,9.5,2.1,1.2.6,1.7-1.4.5-1.8Z" style="fill:#171338"/><ellipse cx="548.62" cy="1418.37" rx="28.2" ry="71.4" transform="translate(-963.73 1578.24) rotate(-74.89)" style="fill:#b5b5e2"/><path d="M571.4,1442.3a109.19,109.19,0,0,1-28.2-4.1,1,1,0,0,1-.7-1.2,1,1,0,0,1,1.2-.7c12.7,3.4,25.1,4.7,35,3.6,9.5-1.1,15.6-4.3,16.8-8.8a1,1,0,0,1,1.2-.7,1,1,0,0,1,.7,1.2c-1.5,5.5-8.1,9.1-18.5,10.3A58.57,58.57,0,0,1,571.4,1442.3Z" style="fill:#fff"/><path d="M500.6,1406.4h-.3a1,1,0,0,1-.7-1.2c3-11.1,26.9-14.1,54.3-6.7a1,1,0,1,1-.5,1.9c-25.5-6.9-49.2-4.5-51.9,5.3A1,1,0,0,1,500.6,1406.4Z" style="fill:#fff"/><path d="M591.2,1462.2c-15.9,0-34-2.6-52.4-7.5a1,1,0,1,1,.5-1.9c48.8,13.2,92.8,8.5,97.9-10.4a1,1,0,0,1,1.2-.7,1,1,0,0,1,.7,1.2c-2.7,9.9-14.7,16.5-33.8,18.6C600.8,1461.9,596.1,1462.2,591.2,1462.2Z" style="fill:#b5b5e2"/><path d="M459,1395.2h-.3a1,1,0,0,1-.7-1.2c2.7-9.9,14.7-16.5,33.8-18.6,18.8-2.1,42.5.3,66.5,6.8a1,1,0,1,1-.5,1.9c-48.8-13.2-92.8-8.5-97.9,10.4A.81.81,0,0,1,459,1395.2Z" style="fill:#b5b5e2"/><ellipse cx="548.62" cy="1418.37" rx="14.9" ry="37.8" transform="translate(-963.73 1578.24) rotate(-74.89)" style="fill:#9594c8"/><path d="M542.1,1411.7a10.51,10.51,0,0,1,13.4-6.7,10.63,10.63,0,0,1,6.7,13.4" style="fill:#394480"/><ellipse cx="240.89" cy="1158.5" rx="36.9" ry="93.6" transform="translate(-813.32 621.12) rotate(-51.24)" style="fill:#b5b5e2"/><path d="M196.9,1177.8c-36.6-34.6-55.1-71.9-42-88.3,10.8-13.5,40.2-9.1,73.5,8.7" style="fill:none;stroke:#b5b5e2;stroke-linecap:round;stroke-miterlimit:10;stroke-width:2px"/><path d="M326.8,1227.5c-11.9,14.8-46.2,8-83.6-14.4" style="fill:none;stroke:#b5b5e2;stroke-linecap:round;stroke-miterlimit:10;stroke-width:2px"/><path d="M270.9,1147.6c25.6,25.4,38.2,52.5,28.5,64-8,9.5-28.9,5.8-52.5-7.5" style="fill:none;stroke:#fff;stroke-linecap:round;stroke-miterlimit:10;stroke-width:2px"/><path d="M178.7,1109.8c8.8-10.4,33.3-4.9,59.6,11.8" style="fill:none;stroke:#fff;stroke-linecap:round;stroke-miterlimit:10;stroke-width:2px"/><ellipse cx="642.58" cy="1349.89" rx="36.9" ry="93.6" transform="matrix(0.1, -0.99, 0.99, 0.1, -766.46, 1849.6)" style="fill:#b5b5e2"/><path d="M534.1,1339.5H534a1.09,1.09,0,0,1-.9-1.1c1.2-11.9,13.9-21.7,35.6-27.8,21.4-6,49.3-7.6,78.4-4.6a250.4,250.4,0,0,1,54.8,11.7,1,1,0,0,1-.7,1.9,246.77,246.77,0,0,0-54.4-11.6c-28.8-3-56.4-1.4-77.6,4.5-20.9,5.8-33,15.1-34.2,26.1A.9.9,0,0,1,534.1,1339.5Z" style="fill:#b5b5e2"/><path d="M666.1,1395a268.35,268.35,0,0,1-28-1.5,1,1,0,0,1,.2-2c28.8,3,56.4,1.4,77.6-4.5,20.9-5.8,33-15.1,34.2-26.1.6-5.5-1.6-11.1-6.5-16.7a1,1,0,0,1,1.5-1.3c5.2,6,7.6,12.2,7,18.2-1.2,11.9-13.9,21.7-35.6,27.8C702,1392.9,684.7,1395,666.1,1395Z" style="fill:#b5b5e2"/><ellipse cx="209.16" cy="1268.85" rx="28.2" ry="71.4" transform="translate(-1002.89 839.13) rotate(-61.12)" style="fill:#b5b5e2"/><path d="M140.3,1250.5c-4.6-8.2-5.8-15.6-2.7-21.2,8.6-15.6,47.7-10.6,87.3,11.3" style="fill:none;stroke:#b5b5e2;stroke-linecap:round;stroke-miterlimit:10;stroke-width:2px"/><path d="M280.9,1308.4c-8.6,15.6-47.7,10.6-87.3-11.3" style="fill:none;stroke:#b5b5e2;stroke-linecap:round;stroke-miterlimit:10;stroke-width:2px"/><path d="M255.2,1284.4c2.7,5.8,3.2,10.9.9,14.5-6.5,10.2-32.8,5-58.7-11.6" style="fill:none;stroke:#fff;stroke-linecap:round;stroke-miterlimit:10;stroke-width:2px"/><path d="M162.4,1238.8c6.5-10.2,32.8-5,58.7,11.6" style="fill:none;stroke:#fff;stroke-linecap:round;stroke-miterlimit:10;stroke-width:2px"/><ellipse cx="240.94" cy="1157.81" rx="24.3" ry="61.7" transform="translate(-812.77 620.89) rotate(-51.24)" style="fill:#9594c8"/><ellipse cx="642.58" cy="1349.89" rx="28.5" ry="72.2" transform="matrix(0.1, -0.99, 0.99, 0.1, -766.46, 1849.6)" style="fill:#9594c8"/><path d="M653.1,1370.6a111.76,111.76,0,0,1-12.7-.7,1.09,1.09,0,0,1-.9-1.1,1.17,1.17,0,0,1,1.1-.9c12.9,1.3,25.2.6,34.7-2,9-2.5,14.5-6.6,15-11.2.3-2.7-1.1-5.6-4-8.4a1,1,0,1,1,1.4-1.4c3.4,3.2,5,6.7,4.6,10-.6,5.6-6.4,10.2-16.4,13A88,88,0,0,1,653.1,1370.6Z" style="fill:#fff"/><path d="M593.8,1345.7h-.1a1.09,1.09,0,0,1-.9-1.1c1.2-11.3,23.9-17.9,51.8-15a110.18,110.18,0,0,1,25.1,5.4,1,1,0,1,1-.7,1.9,106.72,106.72,0,0,0-24.7-5.3c-25.9-2.7-48.6,3.4-49.6,13.3C594.8,1345.3,594.3,1345.7,593.8,1345.7Z" style="fill:#fff"/><ellipse cx="209.16" cy="1268.85" rx="13.1" ry="33.1" transform="translate(-1002.89 839.13) rotate(-61.12)" style="fill:#9594c8"/><path d="M336.1,1256.3s18.1-24.3,45.8-30.3,70.8,9.7,70.8,9.7l-6.7,43.2-64.1,9.7Z" style="fill:#9594c8"/><path d="M333.2,1587.8c-31.1,0-76.4-9.7-124-52.4l-.8-.7.8-.7c1.4-1.4,144.9-139.5,178.1-211.9l.3-.6h23.3v1c0,1.8,3,181.9-15.5,251.1l-.1.4-.4.2c-.2.1-22.4,12.3-56.2,13.5C336.9,1587.7,335.1,1587.8,333.2,1587.8Zm-121.8-53.2c49.7,44.2,96.6,52.2,127.2,51.1,31-1.1,52-11.5,55-13.1,17.6-66.5,15.5-234.7,15.3-249.1H388.8C356.3,1393.5,222.8,1523.5,211.4,1534.6Z" style="fill:#394480"/><path d="M231.1,1471l145.8,58.8L310,1680.5s-128.8-61.1-135-72.3Z" style="fill:#f9b17c"/><polygon points="419.4 1520.9 381.9 1518.4 310 1680.5 359 1664.9 419.4 1520.9" style="fill:#f69d79"/><polygon points="231.1 1471 281.9 1460.9 419.4 1520.9 376.8 1529.8 231.1 1471" style="fill:#f69d79"/><polygon points="252.8 1466.7 269.7 1463.4 406.7 1523.1 389.5 1527.6 252.8 1466.7" style="fill:#ebf5fc"/><line x1="359" y1="1347.1" x2="204.2" y2="1264.3" style="fill:none;stroke:#394480;stroke-miterlimit:10;stroke-width:2px"/><line x1="356.7" y1="1275.9" x2="232.1" y2="1151" style="fill:none;stroke:#394480;stroke-miterlimit:10;stroke-width:2px"/><rect x="548.33" y="1230.9" width="2" height="223.69" transform="translate(-828.63 1796.57) rotate(-85.98)" style="fill:#394480"/><rect x="481.33" y="1309.3" width="2" height="168.6" transform="translate(-991.49 1444.89) rotate(-72.9)" style="fill:#394480"/><path d="M232.1,1150.9a14.71,14.71,0,1,1,20.4,21.2" style="fill:#394480"/><path d="M630.8,1347.6a14.74,14.74,0,1,1,29.4,2.2" style="fill:#394480"/><path d="M204.2,1265.7a10.64,10.64,0,1,1,18.5,10.5" style="fill:#394480"/><path d="M417.7,1272s26.1-6.5,35.1-36.3c0,0,22.3,47.6,11.2,93,0,0-28.7,39.8-46.2,40.2C400.1,1369.3,417.7,1272,417.7,1272Z" style="fill:#b5b5e2"/><path d="M354.6,1352.9a538.74,538.74,0,0,0-17.9-83.1c-13-42.3,65.6-12.7,81,2.1s12.6,78.7,3.5,93.9S354.6,1352.9,354.6,1352.9Z" style="fill:#c9ddf2"/><ellipse cx="454.94" cy="1273.19" rx="3.8" ry="12.9" transform="translate(-428.06 249.33) rotate(-21.11)" style="fill:#171338"/><ellipse cx="436.64" cy="1283.71" rx="3.8" ry="12.9" transform="translate(-433.07 243.44) rotate(-21.11)" style="fill:#171338"/><path d="M446.9,1331.8a11.72,11.72,0,0,1-5.5-1.3c-8.2-4-11.4-15.7-11.5-16.2a1,1,0,1,1,1.9-.5c0,.1,3.1,11.3,10.5,14.9,3,1.5,6.5,1.4,10.2-.1a1,1,0,1,1,.8,1.8A17.65,17.65,0,0,1,446.9,1331.8Z" style="fill:#171338"/><path d="M450.1,1297.3a4.57,4.57,0,0,0,.4.6c1.7,2.9,8.6,14.8,13.8,17.2,6,2.7-14.2,7.9-14.2,3.8v-21.6Z" style="fill:#e95a5a"/><polygon points="389.5 1527.6 372.2 1571 388.2 1568.3 406.7 1523.1 389.5 1527.6" style="fill:#ebf5fc"/><circle cx="277.4" cy="1541.8" r="10.5" style="fill:#ebf5fc"/><polygon points="227.1 1530 290.5 1516.2 285.9 1495.5 221.7 1508.8 227.1 1530" style="fill:#f69d79"/><rect x="218.72" y="1471.64" width="235.11" height="2" transform="translate(-1151 1208.48) rotate(-67.07)" style="fill:#394480"/><path d="M367.8,1596.6a153.46,153.46,0,0,1-16.5-1c-26-2.9-73.2-13.8-151-49.6a1,1,0,1,1,.8-1.8c77.1,35.5,124.1,46.4,149.9,49.4,28,3.2,37.8-2.1,37.9-2.2a1,1,0,1,1,1,1.8C389.6,1593.3,383.6,1596.6,367.8,1596.6Z" style="fill:#394480"/></svg>