<svg xmlns="http://www.w3.org/2000/svg" viewBox="0 0 100 100"><path d="M45.11,6.57a.18.18,0,0,1,0-.18,1.22,1.22,0,0,1,.14-.16.51.51,0,0,1,.21-.15L45.74,6,46,5.86a.57.57,0,0,0,.22-.15l.14.14.34-.36a1.72,1.72,0,0,1,.38-.29c0,.07,0,.11,0,.11s0,0,.1.08l0,0s0,0,0-.08l.05-.09.14-.06.14-.07,0,0,0,0,0,0,0,0,0,0,.06-.07a.62.62,0,0,0,.09-.12L48,4.62,48,4.55l0,0,0,0,.09-.07.16-.13.15-.13.08-.07L48.73,4,49,3.74l.31-.19c.09,0,.15-.07.18,0a.29.29,0,0,1-.07.16l-.08.13,0,0a3.22,3.22,0,0,0,.24-.28,3,3,0,0,1,.23-.27l.1-.06.17-.09.18-.06c.05,0,.09,0,.11,0l0,0-.07.22.09-.1a.3.3,0,0,0,.09-.13A.43.43,0,0,1,50.66,3a.73.73,0,0,0,.15.11.14.14,0,0,0,.17,0A.06.06,0,0,0,51,3,.19.19,0,0,0,50.92,3a.36.36,0,0,0-.09-.08l.06-.06s.06,0,.08,0,0,0,.07.06,0,.06.05.06l.15-.09.08.09L51.4,3l.05,0h.07a.59.59,0,0,0-.13.19,2.09,2.09,0,0,0-.08.23l-.09.23a.49.49,0,0,1-.13.2L50.93,4a.7.7,0,0,0-.17.13.49.49,0,0,0-.11.23,1,1,0,0,0,0,.25.81.81,0,0,1-.13.12,1.07,1.07,0,0,0-.19.18,1,1,0,0,0-.15.21.28.28,0,0,0,0,.2l-.32.33c-.13.14-.25.3-.38.46l-.35.49a2.15,2.15,0,0,0-.22.42h0v0a.24.24,0,0,0,.2,0A1.72,1.72,0,0,0,49.38,7l.28-.11.22-.09h.06l.11,0,.11,0h.07l.19-.15.31-.21a1.26,1.26,0,0,1,.34-.15.26.26,0,0,1,.27.06l0,0,0,0-.07,0-.07,0,.07.16,0,0s0,0,0,.06a.16.16,0,0,1,0,.07.21.21,0,0,0,0,.06s0,0,0,.06a.16.16,0,0,1,.05.12.15.15,0,0,0,.06.14l.4-.4a.32.32,0,0,1,0-.16,1.67,1.67,0,0,1,.08-.2c0-.06.05-.12.08-.17s0-.08,0-.09h0l-.12,0-.11,0a.11.11,0,0,1,0-.11.17.17,0,0,1,.06-.1s.06,0,.08,0,0,0,.06,0l.09,0a.37.37,0,0,0,.16-.11l0,0L52,5.92a.23.23,0,0,1,.07.08s.06,0,.12-.07l0,0,.05-.07.1-.13.11-.14s0-.07.06-.07l0,0,0,0,.14-.09.1-.06h.35l.08,0,.15-.05.15,0a.18.18,0,0,1,.11,0s0,0,0,0l-.24.4,0,.14.21-.06.16-.07h0a.24.24,0,0,1,0,.08l.06.17a1.65,1.65,0,0,1,.06.24l-.09.15-.11.22a1.59,1.59,0,0,1-.13.22.49.49,0,0,1-.12.15s-.06,0-.12,0a.32.32,0,0,0-.16-.06h-.14a.43.43,0,0,0,.11-.12c0-.06.06-.1.07-.13h-.22s0,0,0,0a.07.07,0,0,0,0-.05l-.11.1-.12.1s0,0,0,0a.05.05,0,0,0,0,0,.91.91,0,0,0,.3.21.8.8,0,0,1,.29.2.3.3,0,0,1-.11.07s-.08,0-.12,0a.64.64,0,0,1-.13.22l-.15.16-.15.15h-.16l0,0h0s0,0,0,.09a.23.23,0,0,0,0,.07A.92.92,0,0,0,52.4,8a.79.79,0,0,0-.14.17.49.49,0,0,0-.07.19.25.25,0,0,0,.06.2l-.08-.06-.05,0a.35.35,0,0,0-.1.13.49.49,0,0,0,0,.11.5.5,0,0,0,0,.12,1.21,1.21,0,0,1-.05.14h-.1l-.27.28-.12,0,0,0,0,0a.71.71,0,0,0-.15.22l-.09.25a2,2,0,0,1-.08.26.71.71,0,0,1-.15.22.12.12,0,0,1-.14,0,.14.14,0,0,0-.13,0,.08.08,0,0,0,0,.07.59.59,0,0,0,0,.08l0,.09s0,.06,0,.07-.06,0-.11,0l-.11,0-.07.1-.08.12a.49.49,0,0,1,0,.12.3.3,0,0,1,0,.11s-.05,0-.09,0-.07,0-.07,0l-.15-.37h-.08l-.06,0,0,0-.45-.29s0-.05,0-.11a.28.28,0,0,0,0-.19.85.85,0,0,1,0-.13s0-.05.06-.08a.11.11,0,0,1,.13,0,.12.12,0,0,0,.12,0,.12.12,0,0,0,0-.16.15.15,0,0,1,0-.16.39.39,0,0,1,.11-.06.37.37,0,0,0,.12-.07.14.14,0,0,0,0-.14.15.15,0,0,1,0-.14,2.46,2.46,0,0,1,.42-.7,4.78,4.78,0,0,1,.59-.6.17.17,0,0,1,0-.14.64.64,0,0,1,.06-.18c0-.06,0-.11.07-.16a.54.54,0,0,1,.07-.12.53.53,0,0,1-.16,0l-.13,0h0a.24.24,0,0,0-.06.11.17.17,0,0,0,0,.13h-.08l-.07,0-.06,0s0,0-.07,0,0,0-.07,0,0,0-.09.06-.06.06-.06.08l-.27-.18L50,7.36l0-.06c-.05,0-.07.08-.06.11a.19.19,0,0,0,0,.08l0,.08a.12.12,0,0,1,0,.09.41.41,0,0,1-.13.08l-.18.06-.16,0-.11.06a.13.13,0,0,0,0,.12.16.16,0,0,1,0,.14l-.13.08L49,8.33l-.18.09-.12.06a.24.24,0,0,0-.19-.16.72.72,0,0,0-.25,0,1.59,1.59,0,0,0-.27.12l-.21.13s0,0,0-.08,0-.06,0-.07h0s0,0,0,0a.18.18,0,0,0-.08-.05h-.17a.09.09,0,0,1-.08,0s0,0,0-.05,0,0,0-.1a1,1,0,0,1,0-.14.81.81,0,0,0,0-.16l0,0a.84.84,0,0,0-.2-.11A1.08,1.08,0,0,0,47,7.65a.2.2,0,0,1,0-.08.07.07,0,0,1,.07,0l.06,0,.05,0a0,0,0,0,0,.06,0l0,0a.35.35,0,0,1,.08-.13.83.83,0,0,0,.08-.12,1.05,1.05,0,0,0,.05-.19l.06-.19s0,0,.07,0l.11,0,.1,0s0,0,0,0l-.2-.23a.22.22,0,0,0-.06-.14.08.08,0,0,1,0-.12.11.11,0,0,1,.1,0l.13.06.13.06s.07,0,.09,0,0-.06,0-.11A.71.71,0,0,0,48,6.18L47.86,6c0-.08,0-.13,0-.16a.15.15,0,0,1,.06.09L48,6l.18-.16a.25.25,0,0,0,.08-.22l.22.19a.46.46,0,0,0,0-.14.64.64,0,0,1-.06-.14l-.14-.1v0l-.15.08-.13.09-.19.15-.2.15-.12.1a.2.2,0,0,1-.11,0l-.08,0-.08,0s-.07,0-.11.06-.07.11,0,.16,0,.09,0,.11a.1.1,0,0,1-.08,0h-.18a.15.15,0,0,0-.08,0s-.07.08-.06.11a.11.11,0,0,1,0,.08.5.5,0,0,1-.21.12l-.28.1-.28.09a.53.53,0,0,0-.2.12c-.05,0-.05.1,0,.17a.15.15,0,0,0-.13,0l-.1.07-.09.07a.07.07,0,0,1-.09,0v0s0,0,0,0,0-.14,0-.19a.86.86,0,0,1,0-.15.38.38,0,0,1,0-.15.59.59,0,0,1,.1-.16Zm2.74.54h-.16a.25.25,0,0,0-.15.05c0,.22.06.34.1.35s.1-.09.17-.35l0,0Zm-.27.58,0,0,.05,0-.05,0Zm.12-1.23,0,0,0,0Zm.52-.53s0,0,0,.11a2,2,0,0,0,0,.26,2.8,2.8,0,0,0,0,.29.43.43,0,0,0,0,.15s.06,0,.09,0a.75.75,0,0,0,0-.24,1,1,0,0,0,0-.3A.49.49,0,0,0,48.22,5.93Zm0-.73,0,.07a.2.2,0,0,0,0,.07l.28.19,0-.4h0l-.09,0-.09,0Zm.45-.31a.22.22,0,0,0,0,.08l0,.14a.68.68,0,0,0,0,.14.22.22,0,0,0,0,.09l.4-.56H49l-.1,0-.1.05Zm-.06,1.19a.12.12,0,0,0,.09,0,.19.19,0,0,0,.09,0L48.74,6Zm0,2.16,0,0,0,0Zm.25-.46a.09.09,0,0,0,.14,0v0s0,0,0,0l0,0h0Zm0-3.06.05,0,0,0Zm0,1.4a0,0,0,0,0,0,.07h0l0,0V6.08h0Zm0,2.05h0a0,0,0,0,0,0,0S49.06,8.19,49,8.17Zm.07-3.66,0,0,0,0,0,0Zm.31,1.27a.13.13,0,0,0-.13,0,.11.11,0,0,0,.13,0Zm0,1.32a0,0,0,1,0-.06.06s0,0,.07,0S49.47,7.12,49.44,7.1Zm.28-1.54,0,0,0,0Zm.14-2v.09h0a0,0,0,0,0,0,0v0h0v0s0,0,0,0l0,0Zm0,3.33H50l0,0h0ZM50,3.72h.07l0,0Zm.07-.31.09.1a.21.21,0,0,0,.06-.1s0-.07,0-.11Zm.23,3.82s-.05,0-.08,0a.05.05,0,0,0,0,.08.05.05,0,0,0,.08,0S50.31,7.25,50.28,7.23Zm0,.12h.07l0,0Zm.08-3a.19.19,0,0,0,0,.09.11.11,0,0,0,0,.11l.17-.17a.18.18,0,0,0-.08-.05A.06.06,0,0,0,50.4,4.33Zm.21,2.79.08.09V7.13ZM50.83,10s0,0,0,0l0,0h0s0,0,0-.06v0l0,0Zm.05-1.71.07.07A.16.16,0,0,0,51,8.27a.06.06,0,0,0,0-.09h0Zm.19-1.46,0,0s0,0,0,0A.2.2,0,0,1,51,7L51,7h0a.09.09,0,0,0,.13,0,.53.53,0,0,0,.11-.09Zm.14,1.26s0,0,0,0,0,0,0,0h0Zm.29.9a.11.11,0,0,0,0,.13.17.17,0,0,0,.06.1c.07-.07.07-.13,0-.19Zm.56-.62s0,0-.07,0,0,0,0,.07,0,0,0,0S52.08,8.38,52.06,8.36ZM52.4,7.2l.08-.08h-.07Zm.19.26a0,0,0,0,0-.07,0s0,0,0,.07.05,0,.08,0A0,0,0,0,0,52.59,7.46Zm.12-.34s0,0-.08,0-.05.07,0,.08,0,0,.07,0A.08.08,0,0,0,52.71,7.12ZM52.84,7a.08.08,0,0,0,0,.09l0,.07.08-.08Zm.53-1.07a.16.16,0,0,0,0,.21,1,1,0,0,0,.15.19c.08-.08.11-.15.07-.2A1,1,0,0,0,53.37,5.9Z" style="fill:#bd3d37"/><path d="M52.81,13.41l-.05-.05-.06,0h-.08l-.16-.16-.09,0a.2.2,0,0,0,0-.27,1.53,1.53,0,0,0-.17-.23l-.06,0-.09,0,.22-.22v0s0,0,0,0l0-.07a.56.56,0,0,0,0-.12l0-.13,0-.07a.11.11,0,0,1,0-.13.15.15,0,0,0,0-.13s-.05,0-.07,0l-.06.07a.23.23,0,0,1-.07.07s0,0-.06,0l-.08-.12c0-.06,0-.11,0-.13v0a.11.11,0,0,1,.08,0v-.09a.34.34,0,0,0,0-.08s-.06,0-.08,0l-.06,0-.06,0s0,0,0,0a.16.16,0,0,1,0-.07.09.09,0,0,1,0-.1s.05,0,.08,0l0-.05a.3.3,0,0,0,.1-.22c0-.09,0-.17,0-.25s0,0,0,0a0,0,0,0,1,0,0,.14.14,0,0,0,.18,0,.66.66,0,0,0,.19-.09l.06-.06.12-.12.12-.13.08-.07a.39.39,0,0,1,.16-.1A.42.42,0,0,0,53,10v0h0v0s0,0,0-.08,0-.07,0-.07v0h0l.21-.09a.54.54,0,0,1,.22-.08h0a.42.42,0,0,0,.27,0l.26-.11a0,0,0,0,0,0,.06l0,0,0,0,.07-.24.43.26c.08-.07.14-.11.2-.1a.27.27,0,0,1,.17.06l.17.11a.3.3,0,0,0,.21,0l.28.29.11-.1,0,0a.2.2,0,0,1,0-.05.11.11,0,0,1,0,0h.06l.32.32.11,0a.84.84,0,0,0-.19.19,1.62,1.62,0,0,0-.1.18l-.09.17a.61.61,0,0,1-.13.16l-.05.06-.43,0h0s0-.05,0-.07,0-.06,0-.1-.11-.08-.15-.05l-.13.12a.12.12,0,0,0-.09-.06h-.09l-.1,0a.24.24,0,0,1-.12,0l-.11-.06-.12,0-.14,0a.11.11,0,0,1-.11,0L54,10.64l-.08,0a.12.12,0,0,0-.08,0,.86.86,0,0,0-.07.1.26.26,0,0,1-.08.13.47.47,0,0,1-.19.12h-.2l0,0a.67.67,0,0,0-.15.19.17.17,0,0,0,0,.13.52.52,0,0,0,0,.11.34.34,0,0,1,0,.14c0,.05-.06.12-.11.2s-.06.14,0,.2l.15.32c.05.11.11.22.17.33a2.34,2.34,0,0,0,.35.46l.4.42a1,1,0,0,0,.17.14.3.3,0,0,0,.14,0l.15,0,.19,0c0,.09,0,.13,0,.13l.08.06a.45.45,0,0,1,.1-.09l.16-.1a.3.3,0,0,1,.16-.05.2.2,0,0,1,.15.06s-.05.07,0,.1a.21.21,0,0,0,.06.08l.13-.12a.26.26,0,0,0,.08-.12h0a.24.24,0,0,1,.08.16.31.31,0,0,1,0,.13l0,.12a.06.06,0,0,0,0,.08h0l.16-.11a.58.58,0,0,0,.13-.11.14.14,0,0,0,0-.09s0-.06,0-.09v-.1a.12.12,0,0,1,0-.08.31.31,0,0,1,.13-.06.35.35,0,0,0,.16-.09.22.22,0,0,0,.09-.16s0-.14,0-.25,0,0,0-.08V12.7a1.27,1.27,0,0,1,0-.2.38.38,0,0,0,0-.16l-.12-.16a2.49,2.49,0,0,1-.17-.24,1.28,1.28,0,0,1-.14-.25c0-.08,0-.13,0-.17l.26-.26s0,0,0-.07a.25.25,0,0,1,0-.08h-.07l0,0a.11.11,0,0,0,0,0,.35.35,0,0,0,0,.07l0,.08-.07,0-.1,0h-.06a.17.17,0,0,0,.06-.06.06.06,0,0,0,0-.08l-.08,0-.1,0s0-.1,0-.18a1.2,1.2,0,0,1,.15-.24l.19-.21.1-.11c.08.08.13.12.17.11l.23-.05s0,.05,0,.08a.26.26,0,0,1-.11.07l-.1.07a.21.21,0,0,0,0,.06s0,0,0,.09a.2.2,0,0,0,.15,0,.31.31,0,0,1,.13,0,.64.64,0,0,1,0,.09.05.05,0,0,1,0,0s0,0,0,0a.13.13,0,0,0-.06.05l.08.08.13.12.1-.12c0-.05,0-.1,0-.16h0l.05,0,0,0,0,0,0,0h0a.48.48,0,0,1,0,.12c0,.07,0,.12,0,.16s.05,0,.09,0a.18.18,0,0,1,.09,0h0a.2.2,0,0,1,.05.15.57.57,0,0,1,0,.14h.19a.31.31,0,0,1,0,.19.17.17,0,0,0,0,.17l.09.19c0,.09.07.18.1.27a1.45,1.45,0,0,1,0,.28.25.25,0,0,1-.07.21l-.53.53,0,0,.4,0a.47.47,0,0,1,0-.19c0-.09,0-.14.07-.16l0,0h.05l0,0h0a.11.11,0,0,1,0,.08.76.76,0,0,1,0,.11.39.39,0,0,1-.06.11l0,.06h0l0,0a.06.06,0,0,0,.08,0l.08-.06.09.09-.18.31a.94.94,0,0,1-.2.27l-.13.12-.11.06-.13,0-.19,0a.14.14,0,0,0,0,.11s0,.06,0,.09a.06.06,0,0,1-.09,0l-.12-.08a.33.33,0,0,0-.15,0,.3.3,0,0,0-.18.09,0,0,0,0,0,0,.06.09.09,0,0,0,0,0l0,.06s0,0,0,0,0,0,0,0L56,14.8l-.07-.05,0-.06-.09-.1-.1.12-.11.13,0,0h-.05s0,0-.06,0l-.08,0a.32.32,0,0,0,.07-.13.23.23,0,0,0,0-.14s0,0-.07,0l-.06,0a.16.16,0,0,0,0,.12.16.16,0,0,1,0,.12.18.18,0,0,1-.11.05l-.12,0-.11,0a.13.13,0,0,0-.11,0l.07-.2-.21.2,0,0,0,0-.05-.05.19-.2-.05-.05-.09.05-.17.05-.17,0a.17.17,0,0,1-.12,0s-.05-.07,0-.11a.49.49,0,0,1,.06-.13h0a.25.25,0,0,0-.12-.07h-.1l-.11,0H53.6s0-.06,0-.1l.1-.13a1,1,0,0,0,.07-.15.14.14,0,0,0-.05-.15l-.07.09-.11.13-.12.11a.27.27,0,0,1-.14.07,0,0,0,0,1,0-.06l.07,0,.07,0h0l.09-.16c0-.07,0-.1,0-.11l0,0h-.4l-.13,0c-.08,0-.13,0-.14,0a.08.08,0,0,1,0-.09l0-.09a.25.25,0,0,0,0-.12A.3.3,0,0,0,52.81,13.41Zm-.38-1.14,0,0v-.06Zm.3.75h.06v-.08h0Zm.45.19a.12.12,0,0,0-.15,0l-.13.11,0,0a.11.11,0,0,0,.16,0Zm.11-3.42h0s0,0,0,0h0S53.29,9.81,53.29,9.79Zm0,3.81a0,0,0,0,0,0,0s0,0,0,0l0,0a.26.26,0,0,0,.23.08.36.36,0,0,0,.23-.11.58.58,0,0,0-.22-.13.2.2,0,0,0-.24.05ZM53.57,10l0,0a1,1,0,0,0,.25-.06.52.52,0,0,0,.22-.12.14.14,0,0,0-.09,0h-.16l-.22,0C53.54,9.86,53.53,9.92,53.57,10Zm.2,4.35s0,0-.06,0,0,0,0,.06,0,0,.06,0S53.79,14.33,53.77,14.31ZM55.22,10l0,0,.13-.13,0,0Zm.13.13.06.06,0-.05a.07.07,0,0,0,0-.06h0Zm0,4.45.1.1s0-.06,0-.08l0,0h0Zm.13.12s0,0-.05,0,0,0,0,0a0,0,0,0,0,.06,0S55.54,14.67,55.53,14.65Zm.25-3.53,0,.06a.22.22,0,0,0,.05-.08.11.11,0,0,0,0-.08Zm.14-.26s0,0,0,0,0,0,0,.07l.1-.1,0,0Zm0-.1H56l0,0Zm.15,2.91h.06l0,0Zm.29-.23-.06,0-.07,0-.06,0s.06,0,.11,0l.09-.05S56.43,13.47,56.41,13.44Zm-.12.56v.1l0,0,0,0v0s0,0,0,0Zm.16-.65a0,0,0,0,0-.07,0,0,0,0,0,0,0,.06s0,0,0,0S56.46,13.36,56.45,13.35Zm0-.11s0,0-.06,0,0,0,0,.05a0,0,0,0,0,.06,0S56.5,13.26,56.48,13.24Zm.19.34a0,0,0,1,0-.06.06s0,0,0,0S56.69,13.59,56.67,13.58Zm0-.42,0,0,0,0,0,0Zm0,.26,0,0,0,0,0,0Zm.26.51,0,0,0,0,0,0Zm.1-.94a0,0,0,1,0,0,.06A0,0,0,0,0,57.07,13Zm.1-.1a0,0,0,1,0,0,.06A0,0,0,0,0,57.17,12.89Z" style="fill:#bd3d37"/><path d="M56.48,17.39h0l0,0,0,0s0,0,0,0v-.07h-.19l-.2,0v0h0v-.08h0v0h-.09L56,17s0,0,0,0l0,0a.18.18,0,0,0,.07,0c0-.05-.09-.08-.11-.08s0,0,0,0,0,0,0,0,0,0-.08,0a.32.32,0,0,1,0-.13.14.14,0,0,1,0-.13.38.38,0,0,0,.19.07.17.17,0,0,0,.18,0,.5.5,0,0,0,.1-.18.26.26,0,0,1,.11-.16s0,0,0,0l.06,0,.08,0,.11-.07.1-.06s.06,0,.08,0v0s0,0,0,.05,0,0,0,.05a.35.35,0,0,0,.18,0,.6.6,0,0,1,.18,0,.24.24,0,0,1,0,.07.15.15,0,0,0,0,.07l.06.06,0,.06-.19.19,0,0,0,0,0,0h0l0,0a.11.11,0,0,1,0,.08s0,.05,0,.08l0,.09a.1.1,0,0,0,0,.07l.22-.22a.35.35,0,0,1,.08.13.23.23,0,0,1,0,.14h.06l0,0,0,0a.2.2,0,0,1,0,.05l0,.05h0v0l.15,0h.14a.76.76,0,0,0,.12.1l.18.14.17.13.12.09.17.11a.15.15,0,0,0,.19,0,.53.53,0,0,0,.12-.21,1.26,1.26,0,0,0,.05-.28.84.84,0,0,0,0-.27.42.42,0,0,0-.11-.21L59,16.94a.27.27,0,0,0-.19-.07.15.15,0,0,0-.08.05s-.06.06-.06.08,0-.09,0-.11a.24.24,0,0,1,.06-.09.12.12,0,0,1,.08,0,.14.14,0,0,0,.09-.05.32.32,0,0,0,.09-.3l-.23.23h-.08a.11.11,0,0,1,0-.14l.11-.17.1-.17c0-.06,0-.11,0-.14a.08.08,0,0,0-.12,0,.14.14,0,0,1-.1.06s0,0,0,0,0-.05-.06-.06h-.29l-.15,0-.07,0h0a.15.15,0,0,1,0-.07s0-.05,0-.06h.06l0,0v0s0,0,0,0h0l-.06,0a.12.12,0,0,0,.06-.1s0-.08,0-.12a.5.5,0,0,1,0-.17.66.66,0,0,1,.12-.24.3.3,0,0,0,.07-.08l.12-.14.13-.14c0-.05.06-.08.08-.09l.34-.16a.68.68,0,0,1,.37,0h.08l0,0,0-.06a.46.46,0,0,1,.07-.07h.12l0,0H60l.12.06s.05,0,.06,0l0,0s0,0,0,0a.1.1,0,0,0,.07,0,.26.26,0,0,1,0,.08.11.11,0,0,0,0,.08l.09-.06c.06,0,.1-.05.14,0s0,0,0,0,0,0,0,0l0,0,0,0h.25l0,0h0v0h0s-.07,0-.1,0h0v0l.18,0a.23.23,0,0,0,.18-.08l.16.16a.42.42,0,0,0,0,.06.1.1,0,0,0,0,0v0h0l.06,0,.07,0h0s0,.08,0,.16a.37.37,0,0,0,0,.19h.15v0c0,.07,0,.11,0,.13s0,.05,0,.12a1.1,1.1,0,0,1,0,.31,2.09,2.09,0,0,1-.08.34,2.22,2.22,0,0,1-.14.31,1.24,1.24,0,0,1-.16.24l-.06.06-.07.05L61,17l-.11.08-.07.06q-.16.06-.24,0s0-.05,0-.07a.17.17,0,0,0,.06-.09l.12-.18.11-.18s0-.09-.07-.18a.46.46,0,0,1-.06-.28v-.07L60.55,16l-.14-.11a.45.45,0,0,1-.14-.1h0s0-.05-.06-.11l-.06-.09-.05,0h-.14v0l0-.08-.05-.08,0,0a.59.59,0,0,0-.42-.17.53.53,0,0,0-.39.15l.08.08v.4l.06,0h.06l.16.2c.06.09.11.18.16.27a1.19,1.19,0,0,1,.12.29.55.55,0,0,1,0,.25.64.64,0,0,0,.06.1c0,.05.05.1.08.16l.08.16a.89.89,0,0,0,0,.1l0,.11a.84.84,0,0,1,.05.17.51.51,0,0,1,0,.17.17.17,0,0,1,0,.13s-.07.05-.11,0-.07,0-.12.05L59.7,18a.18.18,0,0,0,0,.11h.2s0,0,0,0,0,0,0,0,0,.07,0,.12l-.09.1s-.07.05-.09,0,0,0-.07,0a.1.1,0,0,0,0,.07,0,0,0,0,1,0,.06l-.13.06-.25.12-.27.1c-.08,0-.14.05-.15,0s0,0,0,0a.11.11,0,0,1,0-.05l-.29.08a.87.87,0,0,1-.32,0,.18.18,0,0,1,0-.13l.07-.09,0,0,0,0-.13,0s-.06,0-.1.06,0,0,0,.06a.06.06,0,0,1,0,0h-.09a.68.68,0,0,0,0-.12c0-.06,0-.1,0-.12l0,0-.09.08s-.07,0-.11,0a.15.15,0,0,1,0-.06.06.06,0,0,1,0-.06.33.33,0,0,0,0-.06s0,0,0-.08-.08,0-.1,0a.09.09,0,0,1-.1,0h-.08l-.08,0h-.07L56.78,18l.1-.19a.69.69,0,0,1,.13-.16l0,0H56.9l0,0a.11.11,0,0,1,0-.05.57.57,0,0,1-.2.13.7.7,0,0,1-.23,0,.36.36,0,0,1,0-.11c0-.05,0-.08,0-.09s0,0,0,0Zm-.11-.78h0a0,0,0,0,0,0,0S56.38,16.65,56.37,16.61Zm0,.33h.13l-.07-.06Zm.17-.17h0s0,0,0,0S56.54,16.81,56.53,16.77Zm.68,1.14s0,0-.05,0,0,0,0,.06a0,0,0,0,0,.06,0S57.23,17.93,57.21,17.91Zm.22-.48s0,0,0,0,0,0,0,0h0Zm.17.36,0,0,.1-.1,0,0Zm.2-.47s0,0,0,0,0,0,0,.05a0,0,0,0,0,.07,0S57.82,17.34,57.8,17.32ZM59,15.4s0,0-.06,0,0,0,0,.05a0,0,0,0,0,.06,0S59,15.41,59,15.4Zm.16-1s0,0-.05,0,0,0,0,0,0,0,0,0S59.19,14.47,59.17,14.45Zm.07.33,0,0,0,0Zm0,2,.06-.06h-.06Zm.3.17s0,0-.07,0,0,0,0,.07a0,0,0,0,0,.06,0S59.58,17,59.57,16.94Zm.06-2.3a.34.34,0,0,0-.06.12.22.22,0,0,0,0,.1.11.11,0,0,0,0,.08v0h0l.13,0s.06,0,.1,0,0-.06,0-.07a.05.05,0,0,0,0,0l0-.05s0,0,0,0a.22.22,0,0,1,0-.1s0-.07.06-.07a.14.14,0,0,0-.11,0Zm0,3.63h0s0,0,0,0,0,0,0,0S59.67,18.29,59.66,18.27Zm0-3.95,0,.06,0,.06a.07.07,0,0,0,.1,0s.05-.07,0-.1A0,0,0,0,0,59.7,14.32ZM60,15a.3.3,0,0,0-.09.13.13.13,0,0,0,0,.14l.27-.27a.18.18,0,0,0-.11,0A.15.15,0,0,0,60,15Zm0-.44a0,0,0,0,0-.06,0s0,.05,0,.06,0,0,.06,0S60,14.53,60,14.52Zm.95,1s0,0,0,0,0,0,0,.05H61v0a.08.08,0,0,0,0,0,.11.11,0,0,0,0-.05s0,0,0,0l0,0Zm0-.52a.08.08,0,0,0,0,.1l.06.09,0,0A.06.06,0,0,0,61,15Zm.6.74s0,0-.05,0,0,0,0,0l0,0A.06.06,0,0,0,61.53,15.69Z" style="fill:#bd3d37"/><path d="M60.67,21.35l-.1,0-.1,0a.32.32,0,0,1-.1-.2.41.41,0,0,0-.09-.22s-.05,0-.07,0h-.13L60,20.79l.12-.12h0l-.06,0a.23.23,0,0,1,0-.11,1.24,1.24,0,0,1,0-.16.88.88,0,0,1,0-.15.19.19,0,0,1,0-.08.1.1,0,0,1,.05,0s0,0,.07,0a.5.5,0,0,1-.1-.14,1.12,1.12,0,0,1,0-.13l.33-.46a2.79,2.79,0,0,1,.37-.42c.09-.09.17-.18.26-.26a1.33,1.33,0,0,1,.3-.23.25.25,0,0,1,.12,0l.11,0,0,0a.51.51,0,0,0,.12-.16A.86.86,0,0,1,61.9,18l.11-.11.16-.14.16-.11a.24.24,0,0,1,.13-.06l2.07-2.07a.22.22,0,0,0,.16,0,.17.17,0,0,0,.06-.11.13.13,0,0,1,0-.1s.07,0,.15,0a.58.58,0,0,1,.14.07s0,.06,0,.09,0,.05,0,.08a.09.09,0,0,0,.13,0,.91.91,0,0,1,.1-.1.5.5,0,0,1,.11.16.14.14,0,0,1,0,.18.14.14,0,0,1-.09.05h-.12a.06.06,0,0,0,0,0,0,0,0,0,0,0,.05l0,0h.05l-.06.06.08.08s0,0,.09,0l0,0a.59.59,0,0,1,0-.08l.06-.09.07-.09,0-.11h.09v0c.07.07.08.13,0,.2a.93.93,0,0,1-.16.18.19.19,0,0,0,.13.07h.09l.09,0a.12.12,0,0,1,.08,0s0,0,0,.08l-.06.18-.07.18c0,.05-.05.09-.07.1a.65.65,0,0,1-.22.15,1.28,1.28,0,0,0-.25.15s0,0,0,0a0,0,0,0,1,0,0l0,0s0,0,0,0a.23.23,0,0,0-.11,0l-.16.05-.14.08s-.08.05-.09.08l0,.08a.34.34,0,0,0,0,.09l0,0h0l-.1,0-.09.06,0,.07,0,.08a.22.22,0,0,0-.1,0l-.12.05a.11.11,0,0,0,0,.08l0,.1a.18.18,0,0,1,0,.1.29.29,0,0,1-.08.14l-.11.07a.3.3,0,0,0-.11.06l0,.06,0,.08a.3.3,0,0,1,.07.08l.1.12.1.12.06.08,0,0s0,0,.07,0,0,0,.09,0l.08.08q.08.08.06.12a.06.06,0,0,0,0,.07v0h0s0,0,.07,0h.09a.19.19,0,0,1,.05.1.38.38,0,0,0,0,.1s0,.06,0,.1a.14.14,0,0,0,.06.1s.06.05.09,0l.07,0,.08,0a.19.19,0,0,1,.13.08,1,1,0,0,1-.16.13h-.17a.1.1,0,0,0-.08.05l-.07.06s0,0,0,.08,0,.08,0,.09l-.07,0a.31.31,0,0,1-.1.05.23.23,0,0,1-.11,0,.08.08,0,0,1-.08,0s0,0,0-.07v-.07l0,0h-.08l0,0h0L64,20c0,.05,0,.08-.05.08l0,.05,0,0,0-.08,0-.06,0,0a.09.09,0,0,0-.09,0l-.11,0-.11,0a.13.13,0,0,1-.11-.05.35.35,0,0,1-.12-.19.46.46,0,0,0-.13-.2l-.05,0-.06,0,.06,0,.08,0,.09,0a.28.28,0,0,0,0-.13v-.12a.29.29,0,0,1,0-.13.28.28,0,0,1,.08-.12.56.56,0,0,1,.13-.09c.07,0,.12,0,.15,0v0a.16.16,0,0,0,0,.06h.06a.29.29,0,0,0,.07-.17.21.21,0,0,0,0-.18l-.06-.06a.41.41,0,0,1,0,.1.58.58,0,0,1,0,.1h0s-.07,0-.16,0a.55.55,0,0,0-.23,0,.49.49,0,0,1-.2.06H63a.24.24,0,0,0-.12,0,.35.35,0,0,0-.16.11h0a.6.6,0,0,0-.08-.13.21.21,0,0,1,0-.06v-.06a.63.63,0,0,0,0-.13h0s0,0,0,0-.09,0-.15,0a.23.23,0,0,0,0,.1.81.81,0,0,0,0,.16.32.32,0,0,0,0,.14.15.15,0,0,0,.08.09.27.27,0,0,1-.26,0A.33.33,0,0,0,62,19s0,0,0,.05l0,0,0,.05a.19.19,0,0,1,0,.08l0,0s0,0,0,0a.06.06,0,0,0,.05.05.39.39,0,0,1-.16.21,1.62,1.62,0,0,0-.22.19l.07.07-.06.05a.1.1,0,0,1-.09,0l-.32.32a.11.11,0,0,0-.1,0l-.05,0a.13.13,0,0,0,0,.06l0,.06a.36.36,0,0,0,.12.08l.14,0a.45.45,0,0,0-.07.32.73.73,0,0,0,.08.33l0,0,.06,0,.07.08.12.14a1.34,1.34,0,0,1,.11.14l.09.09a.64.64,0,0,0,.15.14s0,.07,0,.13a.79.79,0,0,0,.15.12.83.83,0,0,1,.16.12l.07.07s0,.08,0,.1l0,0,0,0-.1.09-.09.09h0s0,0,0,0h0l-.12,0-.11-.05a.41.41,0,0,0-.15,0h-.08a.09.09,0,0,1-.08,0l-.15-.13,0-.06s0,0,0,0v-.07l-.15,0v.08l-.07,0-.07,0,0,0h0l-.07-.11a.61.61,0,0,0-.07-.14l-.06-.13s0-.06,0-.06v-.1a.68.68,0,0,0,0-.12h0Zm-.15-.42s-.05,0-.07,0a0,0,0,0,0,0,.07s0,0,.07,0S60.54,21,60.52,20.93Zm0-.63.05,0,.27-.27h-.08Zm.42.73s0,0,0,0,0,0,0,.05.05,0,.07,0A0,0,0,0,0,60.9,21Zm.11-.41.05.05,0,0Zm0-1.52,0,0,.08-.07Zm.19.53c-.05-.06-.11-.05-.17,0A.11.11,0,0,0,61.24,19.63Zm-.16.21.13.13s0,0,0,0v-.05Zm.16-.7-.06.07a.24.24,0,0,0,0,.07s.07.06.11,0a.18.18,0,0,0,.08-.06s0,0,.08-.09,0-.09,0-.12-.07,0-.11,0Zm0,2a0,0,0,0,0-.06,0s0,0,0,.06,0,0,.07,0A0,0,0,0,0,61.27,21.18Zm.19.81a.09.09,0,0,0-.15,0v0s0,0,.08,0ZM61.4,20s0,0,0,0,0,0,0,0h0A0,0,0,0,0,61.4,20Zm.05-.75,0,0,0,0,0,0Zm.11.25a.17.17,0,0,0,0,.11.26.26,0,0,0,0,.09l.09-.1a.09.09,0,0,0,0-.13h0l-.06,0Zm0-.36h.06v-.06h-.07Zm.25,2.45s0,0-.07,0,0,.05,0,.07,0,0,.07,0S61.83,21.65,61.81,21.63Zm0-2.71s0,0,0,0,0,0,0,0a0,0,0,0,0,0,0Zm.9-.24s0,0,0,0,0,0,0,0h0S62.77,18.69,62.76,18.68Zm.15-.28a0,0,0,0,0,0,0v0l0,0,0,0c0-.05,0-.07,0-.08h0S62.92,18.4,62.91,18.4Zm0,.28.07-.07h-.06Zm.09-.47s0,0,0,0,0,0,0,0v0h.09l0,0h0s0-.07,0-.08v0h0s0,0-.08,0h0Zm.11-.69a.22.22,0,0,0-.06.14.17.17,0,0,0,.05.15.23.23,0,0,0,.06-.13A.19.19,0,0,0,63.11,17.52Zm.1,1s0,0,0,0a1.34,1.34,0,0,0-.06.12c0,.05,0,.08,0,.09l.05.05a.39.39,0,0,0,.1-.14.16.16,0,0,0-.05-.17Zm.1-1.07h0l0,0Zm.12.78a.21.21,0,0,0-.06.1c0,.06,0,.1,0,.13s.07,0,.1,0l.08-.06a.18.18,0,0,0,.06-.1s0-.06,0-.1A.09.09,0,0,0,63.43,18.21Zm0-.44a.39.39,0,0,1,0,.13.23.23,0,0,0,.05.12h.2l.21,0a.14.14,0,0,0,.07-.11.17.17,0,0,0,0-.12l-.08-.07-.11-.09a.28.28,0,0,0-.12,0,.1.1,0,0,0-.09,0,.15.15,0,0,0,0,.06.13.13,0,0,0,0,.06l0,0a0,0,0,0,1,0,.05l0,0,0,0Zm0,1.65,0,0a.1.1,0,0,0,0-.11Zm.28-.35a.09.09,0,0,0,0,.15l.05,0,0-.07a.26.26,0,0,0,0-.07S63.77,19,63.73,19.07Zm.07-2.14h0s0,0,0,0S63.83,17,63.8,16.93Zm.11.18,0,0v-.08Zm.1,2.11s-.05,0-.07,0a0,0,0,0,0,0,.07,0,0,0,0,0,.06,0S64,19.24,64,19.22Zm-.06.57H64v-.06Zm0-.26,0,0h.09a.14.14,0,0,0,0-.07.2.2,0,0,0,0-.08Zm.08-2.42,0,0,0,0Zm.69-.22a.44.44,0,0,0-.15-.05.62.62,0,0,0-.19,0h-.19a.37.37,0,0,0-.14.07s0,0,.11,0h.46c.07,0,.11,0,.11,0Zm-.58.48s0,0-.07,0,0,.05,0,.07,0,0,.05,0S64.18,17.38,64.16,17.37Zm.1-.61h.08l-.09-.08Zm.06.56s0,0,0-.05,0,0,0,0a0,0,0,0,0,0,0A.06.06,0,0,0,64.32,17.32Zm.05,2.32v0h.08l.06,0-.11-.11Zm.15-3.42s-.06,0-.08,0l0,0v.05h.12Zm-.09.28s0,0,0,0,0,0,0,0h0S64.44,16.51,64.43,16.5Zm0-.71s0,.07,0,.11l.1.07a.23.23,0,0,1,.11.07l.13-.12a.26.26,0,0,0-.19-.09Zm.28.39v0a.3.3,0,0,1,0,.21.27.27,0,0,0,0,.2h.13v.14H65s0-.08,0-.12l-.1-.06a.14.14,0,0,1,.1,0h.1l.11,0a.24.24,0,0,0,.11-.06.31.31,0,0,0-.16-.1.36.36,0,0,1-.16-.11s0-.06,0-.09h-.14a.24.24,0,0,0-.12,0Zm.08.61s0,0-.06,0,0,0,0,.06,0,0,0,0S64.81,16.8,64.8,16.79Zm.32-1.13a.3.3,0,0,0-.17-.08.2.2,0,0,0-.18.06.43.43,0,0,0,.17.11S65.05,15.73,65.12,15.66Zm.13,0a0,0,0,0,0-.07.07s0,0,.06,0S65.27,15.63,65.25,15.62Zm.39,1-.14,0a.12.12,0,0,0-.14,0l0,0h.16Z" style="fill:#bd3d37"/><path d="M67,28l-.07.06s-.07,0-.1,0h0a.38.38,0,0,0,0-.17.37.37,0,0,0,0-.11l-.06-.07a.06.06,0,0,1,0-.08.16.16,0,0,0,0-.06l0-.07.11-.11,0,0h0v-.05l0,0h0a0,0,0,0,1,0,0,.37.37,0,0,1,.14-.08.39.39,0,0,0,.15-.11.21.21,0,0,0,.06-.1.25.25,0,0,1,0-.11h0a.23.23,0,0,0,.12-.05s.06,0,.1,0l.12-.15a.17.17,0,0,0,0-.17.38.38,0,0,0,.12-.17.42.42,0,0,1,.09-.15l0,0h0l0,0h0l0-.06a.15.15,0,0,1,0-.06l0,0a.6.6,0,0,1,.21-.18.91.91,0,0,0,.21-.18.75.75,0,0,0,.07-.12l.06-.09a.74.74,0,0,1,.16-.12.83.83,0,0,0,.17-.11c.09-.06.13-.11.14-.15s0-.07.13-.1v0h0s0,0,0,0,0,0,0,0h.17c.06,0,.11,0,.12-.06a.15.15,0,0,0,0-.09.18.18,0,0,0,0-.1.25.25,0,0,0,.19-.11s0-.07,0-.09a.28.28,0,0,1,0-.08h0l.36-.07a.55.55,0,0,0,.29-.18l.17.13h0l0,0h0s0,0,0-.05a.1.1,0,0,1,0-.06l.06,0c0-.08.07-.11.12-.09a.49.49,0,0,1,.13.08.25.25,0,0,1,.08.1c0,.05,0,.09,0,.14a1,1,0,0,1-.13.16l-.11.15a.5.5,0,0,1-.13.1.31.31,0,0,0-.13.1l-.08.11a.16.16,0,0,0,0,.12s0,0,0,0l0,0,0,0s0,0,0,0v.1h0l-.05,0-.06.06,0,.05s0,0,0,0l0,0s0,0,0,0l0,0a.22.22,0,0,0,0,.08.09.09,0,0,0,0,.09.51.51,0,0,0,.22.05.32.32,0,0,1,.23.08h0s0,0,0,0l0,0,.19,0a.34.34,0,0,1,.18,0l0,.05,0,0h.14l0,0,0,0a.65.65,0,0,0,.21.07l.22,0,.21,0a.4.4,0,0,1,.18.1.14.14,0,0,1,.06.11.09.09,0,0,0,0,.1s0,0,.08,0l.12-.07a.48.48,0,0,1,.17-.05.31.31,0,0,1,.21.08h0a0,0,0,0,0,0,0v0l.08,0,.07,0s0,.07,0,.08l0,.07s.08,0,.14,0a.1.1,0,0,0,0-.13l.12-.15.06,0a.08.08,0,0,0,.08,0,.15.15,0,0,0,0-.1h0l0,0h0l-.06,0s0,0,0,0l0,0a.34.34,0,0,1,.12-.12.43.43,0,0,0,.12-.11l0,0h-.06l0,0s0,0,0,.05a.11.11,0,0,1-.06,0s0,0,0,0l0,0,0,0,0,0h0s0,0,0,0l0-.05.08-.06a.25.25,0,0,1-.07-.12s0-.09,0-.14a.65.65,0,0,0,0-.13.36.36,0,0,0-.08-.12l-.06.07,0,.25-.07-.06L73,25.36s0,0,0,0h0s-.06-.09,0-.12a.37.37,0,0,1,.07-.12L72.92,25a.09.09,0,0,1,0-.05.2.2,0,0,1,0-.07.5.5,0,0,0,0-.12v0l-.08,0a.1.1,0,0,1-.09,0,.1.1,0,0,1,0-.05.09.09,0,0,0,0-.06s0,0,0,0,0,0,0,0a.09.09,0,0,1-.06-.07.36.36,0,0,1,0-.09l0-.12a.25.25,0,0,0-.12-.07.27.27,0,0,1-.14-.05L72,24c-.09-.09-.16-.18-.24-.25a.37.37,0,0,1,0-.15v-.11h-.11a.32.32,0,0,1-.1,0,.44.44,0,0,1-.19-.1,1.88,1.88,0,0,0-.23-.16.66.66,0,0,0-.25-.1.21.21,0,0,0-.22.1.44.44,0,0,0-.08.2.54.54,0,0,1-.09.22l0,0v-.08a.12.12,0,0,0-.14,0,.13.13,0,0,0,0,.06s0,0,0,.05a.06.06,0,0,1-.08,0,0,0,0,0,0-.07,0,.27.27,0,0,1-.06.1s0,.08,0,.11l.07,0v-.05a.26.26,0,0,1,.18.05c0,.07-.09.09-.14.07v0a.08.08,0,0,1,0,.05h-.06l0,0-.07.06a.19.19,0,0,0-.1-.05l-.16,0h-.15a.23.23,0,0,1-.11,0,.18.18,0,0,1-.06-.08l-.06-.12a1.56,1.56,0,0,0-.07-.17h-.14s.07-.08.06-.11a.14.14,0,0,0,0-.06l0-.05s0,0,0-.06a.35.35,0,0,1,.16-.08.1.1,0,0,1,0,0s0,0,0,0h-.11l0,0a.52.52,0,0,0,.2-.07.53.53,0,0,0,.13-.13.42.42,0,0,0,.09-.15.47.47,0,0,1,.06-.15,1.31,1.31,0,0,1,.15-.12.36.36,0,0,0,.11-.13.34.34,0,0,1,0,.09l0,0h0l.06-.1a.13.13,0,0,1,.09-.07l0,0h0l0,0s0,0,0,0l0,0s.07,0,.13,0a.11.11,0,0,1,.15,0h0l0,0h0a.06.06,0,0,1,0,0s0,0,0,0a.19.19,0,0,0,.15,0l.18-.07a1.27,1.27,0,0,1,.18-.06.13.13,0,0,1,.14,0s0,.05,0,.07a.07.07,0,0,0,0,.06l.07.05s0,0,.08-.07l.29.25,0,.08.1-.06h0l0,0s0,0,.07,0l.06,0,.07,0h0a.16.16,0,0,1,0,.11l.11-.11,0,0a0,0,0,0,0,0,0s0,0,0,0,0,0,0,0a.06.06,0,0,0,0,0v0l.06,0a.11.11,0,0,0,0,.07l0,.05h0s.06,0,.08,0,.06,0,.11,0l0,.06s0,.05,0,.06a.15.15,0,0,1,.1,0h.09a0,0,0,0,1,0,.06.15.15,0,0,0,0,.07h0v0h.07a.4.4,0,0,0,0,.13.17.17,0,0,1,0,.13H73l.12-.05h0s0,.05,0,.06l0,0-.08,0a.18.18,0,0,0-.09,0C73,24,73,24,73,24.05l.09.1-.1,0a.2.2,0,0,0-.09,0h0v0h.24l0,0v-.17s0,0,0,0l0,0v0h0l0,0c.05.07.1.09.15.08a.48.48,0,0,1,.18,0l0,.07a.13.13,0,0,0,0,.07.14.14,0,0,0,.12,0,.13.13,0,0,1,.12,0,.75.75,0,0,1,.23.32c.06.14.12.26.18.37s0,0,0,.05l0,0V25a.06.06,0,0,1,0,0,.05.05,0,0,0,0,0v0a.19.19,0,0,0,.13.09,1.13,1.13,0,0,1,.18.07.34.34,0,0,0-.08.16.16.16,0,0,0,.07.16l0,0h.06s0,0,0,.08,0,0,0,0h.11s0,0,0,.07h0a.12.12,0,0,1-.08.06l-.11,0-.12,0-.1.07,0,0a0,0,0,0,1,0,0l.07,0a.11.11,0,0,0,.08,0l.08,0,0,0s0,0,0,0V26s.08,0,.1,0a.07.07,0,0,1,.06,0,.14.14,0,0,1,.07.1.1.1,0,0,1,0,.1l0,0h0l0,0v0h0a.28.28,0,0,1-.09.07.13.13,0,0,0-.09.09.26.26,0,0,0-.08.11.41.41,0,0,1-.06.11l0,0a0,0,0,0,1-.06,0v0h0s0,0,0,0H74.1l0,0a.08.08,0,0,0,0,0,.25.25,0,0,0,0,.07h0l.08,0s.05,0,.06,0v0l-.07,0L74,27l-.13.11-.07.05-.12,0a.22.22,0,0,0-.13.07l0,0,0,0s0,0,0,0,0,0,0,0v0a.69.69,0,0,1-.07-.13c0-.06,0-.09-.07-.1s0,0,0,0h0l-.1,0-.09,0s0,.05,0,.09a.2.2,0,0,0,0,.08.12.12,0,0,0-.09,0h-.3c-.05,0-.08,0-.09,0h0v.1l0,0s0-.05-.08-.05l-.08,0-.06,0a0,0,0,0,1,0,0c0-.06,0-.1,0-.12a.28.28,0,0,0,.05-.11l0,0h0l-.11,0a.15.15,0,0,1-.13,0s0-.06,0-.08L71.84,27l-.07.07L71.58,27l-.21.12.08-.08a0,0,0,0,0,0,0l0,0a.13.13,0,0,0-.12,0l-.1.06-.1,0A.09.09,0,0,1,71,27s0-.05,0-.1a.08.08,0,0,0,.11,0l.1-.08,0,0s0,0,0,0,0-.09,0-.12a.11.11,0,0,0-.11,0l-.15.09-.15.08a.17.17,0,0,1-.15,0l0-.07c0-.05,0-.08,0-.09s0,0,0,0v-.07s0,0-.06,0h-.06l0,0a.09.09,0,0,0-.06,0,.14.14,0,0,0,0,.14c0,.05,0,.09,0,.11h-.14l0,0a.13.13,0,0,1,0-.05l0,0h-.1s0,0,0-.06,0-.06,0-.07a.67.67,0,0,1-.17.06.18.18,0,0,1-.16,0l.11-.11.11-.1-.08-.07,0,0-.06.08a.23.23,0,0,1-.07.07.09.09,0,0,1-.07,0,.34.34,0,0,0,0-.08l0-.1a.76.76,0,0,0,0-.11.09.09,0,0,0,0-.09h-.07l-.06,0-.11-.11,0,0,0,.27,0,0s0,0-.06.05h-.1c.08-.05.11-.09.08-.12l-.09-.1a.6.6,0,0,1-.32.2l-.38.13,0,0,0,0h-.11a.57.57,0,0,0-.1.19l-.06.2a.11.11,0,0,0,0,0l0,.06s0,0,0,.06a.07.07,0,0,0,0,.09l0,0q.07-.11.15-.06a.1.1,0,0,1,0,.11l-.06.1a.64.64,0,0,1-.15.14l-.18.12-.08.08s-.07-.05-.1,0L68,28a.29.29,0,0,0-.06.1.24.24,0,0,0,0,.09v.09h0l0,0-.13.11-.13.11,0-.06a.22.22,0,0,1-.08.09s-.07,0-.12,0a.07.07,0,0,1,0-.09h0l0,0h0s0,0,0,0h0a.1.1,0,0,0-.1,0l-.1.08-.09.1a.21.21,0,0,1-.1.06l0,0,0,0c-.07-.06-.1-.12-.09-.16a.47.47,0,0,1,.06-.15l.08-.12A.11.11,0,0,0,67,28ZM67,28s0,0,0,0,0,0,0,0,0,0,0,0S67,28,67,28Zm0,.48s0,0,0,0h0v-.07H67Zm.12.06s0,0,0,0a0,0,0,0,0,0,0s0,0,0,0S67.12,28.49,67.11,28.49Zm0-.15s0,0,0,0,0,0,0,0,0,0,0,0S67.11,28.35,67.12,28.34Zm.53-1.49,0,0a.15.15,0,0,0,0,.06l0,.06s0,0,0,0l0,0,.05,0,0,0,0,0h0s0,0,0,0,0,0,0,0,0-.06,0-.08Zm.19,0s0,0,0,0,0,0,0,0,0,0,0,0S67.85,26.88,67.84,26.86Zm0,.9s0,0,0,0l.06.06,0-.06a.06.06,0,0,0,0-.08h-.06Zm0,.21h.06l0,0Zm.24-.29-.09,0,0,0Zm.35-.74s0,0,0,0a0,0,0,0,0,0,0s0,0,0,0S68.46,27,68.45,26.94Zm.91-3.09s0,0,0,0a0,0,0,0,0,0,0,0,0,0,0,0,0,0A0,0,0,0,0,69.32,23.89Zm.36-.78s-.08,0-.11,0l-.08.07s0,0,0,0l0,0s0,0,.11,0Zm-.17.88a0,0,0,0,0,0,.05,0,0,0,0,0,0-.05S69.56,24,69.55,24Zm0,1.32s0,0,0,0,0,0,0,0,0,0,0,0A0,0,0,0,0,69.55,25.27Zm.06-1.62a.24.24,0,0,0-.06.11s0,.08,0,.1a.88.88,0,0,0,.07-.12S69.65,23.68,69.61,23.65Zm.16.12s0,0,0,0,0,0,0,0,0,0,0,0A0,0,0,0,0,69.77,23.77Zm.22-1a.11.11,0,0,0-.13,0l-.12.08a.11.11,0,0,0,.14,0A.52.52,0,0,0,70,22.77Zm-.13,3.09h0a0,0,0,0,0,0,0s0,0,.05,0S69.88,25.87,69.86,25.86Zm.07-2.43v.22a0,0,0,0,1,0,0l.07-.1s0-.07,0-.09h-.08Zm0,1.33h0s0,0,0,0S70,24.78,70,24.76Zm0,1a.11.11,0,0,0,0,.07l0,0Zm.09-1.06s0,0,0,0,0,0,0,0,0,0,0,0S70.13,24.72,70.11,24.7Zm0-1.24s0,0,0,0,0,0,0,.05a0,0,0,0,0,0,0S70.15,23.46,70.13,23.46Zm.08.47s0,0,0,0,0,0,0,0,0,0,0,0S70.22,23.94,70.21,23.93Zm0-.63a0,0,0,0,0,0,0s0,0,0,0v0S70.21,23.31,70.22,23.3Zm0,.17,0,0,0,0Zm0,3,0,0,0-.06h0Zm0-1.69h0s0,0,0-.06Zm.07-1.35a.08.08,0,0,0,0,0s0,0,0,0S70.28,23.38,70.3,23.38Zm.06,3.19s0,0,0,0v0a.06.06,0,0,0,.07,0,.09.09,0,0,0,.06,0l0,0a.07.07,0,0,0,0-.05l0,0h0l-.06,0S70.36,26.56,70.36,26.57Zm.16-.21,0,0v0Zm.39-2h0a0,0,0,0,0,0,0h0S70.92,24.34,70.91,24.33Zm0,2.38s0,0,0,0,0,0,0,0a0,0,0,0,0,.06,0S71,26.72,71,26.71Zm.83-3.08h0s0,0,0,0,0,0,0,0S71.79,23.64,71.78,23.63ZM71.84,27h0l0,0h0l0,0Zm.26-3.74s0,0,0,0,0,0,0,0l0,0S72.1,23.23,72.1,23.22Zm.11.11,0,0,0,0,0,0Zm.33.39a.15.15,0,0,0,0,.17l0-.08s0,0,0-.07S72.56,23.71,72.54,23.72Zm.31.16s0,0-.07,0l0,0Zm0,2.69c-.09.11-.1.2,0,.28l.05,0a.2.2,0,0,0,.1.13l.06,0s.06,0,.08,0h0a.48.48,0,0,1-.07-.2.35.35,0,0,0-.1-.19l0,0S72.88,26.55,72.86,26.57Zm0-2s0,0,.06,0l0,0,0,0Zm.27-.22c0,.05-.06.08-.06.1s0,.05.06.09S73.13,24.44,73.08,24.39Zm.35,2,.08,0a0,0,0,0,0,.07,0,.11.11,0,0,1,0,0l0,0v0l0,0a.1.1,0,0,0,0-.08.53.53,0,0,0,0-.13c0-.05,0-.09,0-.13a.24.24,0,0,0,0-.07h0Zm.07.22,0-.07-.05,0Zm0-1.45,0,0,0,0Zm.11-1s0,0,0,0,0,0,0,0,0,0,0,0A0,0,0,0,0,73.63,24.19Zm0,2.63s0,0,0,0a0,0,0,0,0,0,0h0S73.68,26.83,73.66,26.82Zm.17-.25s0,0,0,0a0,0,0,0,0,0,0s0,0,0,0A0,0,0,0,0,73.83,26.57Z" style="fill:#bd3d37"/><path d="M71.84,32.44a.23.23,0,0,1,0,0l-.06,0h-.08l-.16-.16-.09,0a.21.21,0,0,0,0-.26l-.17-.23-.06,0s0,0-.09,0l.22-.22v0s0,0,0,0l0-.07a.56.56,0,0,0,0-.12l0-.13a.14.14,0,0,1,0-.07.11.11,0,0,1,0-.13.15.15,0,0,0,0-.13s0,0-.07,0a.22.22,0,0,0-.06.07.23.23,0,0,1-.07.07s0,0-.07,0l-.07-.12c0-.06,0-.11,0-.13v0a.08.08,0,0,1,.08,0,.34.34,0,0,0,0-.09.1.1,0,0,0,0-.08.06.06,0,0,0-.07,0s0,0-.06,0l-.06,0s0,0,0,0l0-.07a.11.11,0,0,1,0-.1s0,0,.08,0l0-.05a.34.34,0,0,0,.1-.22c0-.09,0-.17,0-.25s0,0,0,0a0,0,0,0,1,0,0,.16.16,0,0,0,.18,0,.76.76,0,0,0,.18-.09l.07-.06.12-.12.12-.13.08-.07a.31.31,0,0,1,.16-.1.42.42,0,0,0,.16-.09,0,0,0,0,0,0,0h0v0s0,0,0-.08,0-.07,0-.07v0h0l.21-.09a.54.54,0,0,1,.22-.08h0a.42.42,0,0,0,.27,0l.26-.11a0,0,0,0,0,0,.06l0,0,0,0,.08-.24.43.26c.08-.07.14-.11.2-.1a.27.27,0,0,1,.17.06l.17.11a.3.3,0,0,0,.21,0l.28.29.11-.11,0,0a.06.06,0,0,1,0,0,.11.11,0,0,1,0,0h.06l.32.32.11,0a.84.84,0,0,0-.19.19l-.1.17-.09.17a.64.64,0,0,1-.13.17l0,.05-.43,0h0s0-.05,0-.08,0-.05,0-.09-.11-.08-.15-.05l-.13.11a.14.14,0,0,0-.09-.05h-.09l-.1,0h-.12l-.11-.06-.12,0-.14,0a.11.11,0,0,1-.11,0L73,29.67l-.07,0a.12.12,0,0,0-.08,0,.36.36,0,0,0-.07.1.23.23,0,0,1-.08.12.42.42,0,0,1-.19.13h-.2l0,0a.67.67,0,0,0-.15.19.15.15,0,0,0,0,.12.49.49,0,0,0,0,.12.33.33,0,0,1,0,.14c0,.05-.06.12-.11.2a.19.19,0,0,0,0,.2,3.18,3.18,0,0,1,.16.32,3.24,3.24,0,0,0,.17.32,2.43,2.43,0,0,0,.34.47l.41.42a1,1,0,0,0,.17.14.48.48,0,0,0,.14,0l.15,0,.19-.05c0,.08,0,.13,0,.13a.21.21,0,0,1,.08.06.45.45,0,0,1,.1-.09l.15-.1a.37.37,0,0,1,.17,0,.2.2,0,0,1,.15.06s0,.07,0,.1a.21.21,0,0,0,.06.08l.12-.12s0,0,.09-.13v0a.2.2,0,0,1,.08.15.32.32,0,0,1,0,.14,1.17,1.17,0,0,1,0,.11s0,.07,0,.09h0l.16-.11a.58.58,0,0,0,.13-.11.14.14,0,0,0,0-.09v-.09a.31.31,0,0,0,0-.1.09.09,0,0,1,0-.08.31.31,0,0,1,.13-.06.35.35,0,0,0,.16-.09.22.22,0,0,0,.09-.16s0-.14,0-.25,0,0,0-.08a1,1,0,0,1,0-.17,1.34,1.34,0,0,1,0-.2.38.38,0,0,0,0-.16l-.12-.16A1.46,1.46,0,0,1,75,31a1.28,1.28,0,0,1-.14-.25c0-.08,0-.14,0-.17l.26-.26s0,0,0-.07a.25.25,0,0,1,0-.08h0s0,0,0,0h0s0,0,0,0a.07.07,0,0,0,0,0,.24.24,0,0,0,0,.07.16.16,0,0,1,0,.08s0,0-.06,0l-.1,0h-.06a.17.17,0,0,0,.06-.06s0,0,0-.08l-.08.05-.1,0a.25.25,0,0,1,0-.19,1.5,1.5,0,0,1,.15-.23l.18-.21.11-.11c.08.08.13.12.17.11l.22-.05a.07.07,0,0,1,0,.08.26.26,0,0,1-.11.07l-.1.07a.21.21,0,0,0,0,.06s0,0,0,.09a.22.22,0,0,0,.14,0,.35.35,0,0,1,.14,0s0,.06,0,.08a.08.08,0,0,1,0,.05l0,0a.13.13,0,0,0-.06.05l.08.07.13.13a.64.64,0,0,0,.1-.13s0-.09,0-.15h0l.06,0,0,0,0,0,0,0h0a.48.48,0,0,1,0,.12.15.15,0,0,0,0,.16.09.09,0,0,0,.1,0,.18.18,0,0,1,.09,0h0a.16.16,0,0,1,0,.15.33.33,0,0,1,0,.14h.2a.32.32,0,0,1,0,.19.15.15,0,0,0,0,.16l.08.2a1.48,1.48,0,0,1,.1.27,1,1,0,0,1,.05.28.25.25,0,0,1-.07.21l-.53.53,0,0,.4,0a.45.45,0,0,1,0-.19.34.34,0,0,1,.07-.17l0,0h0l.05,0h0a.06.06,0,0,1,0,.07.56.56,0,0,1,0,.12l-.06.11s0,.05,0,.05v0h0a.05.05,0,0,0,.08,0l.08-.07.09.1a2.18,2.18,0,0,0-.18.31.94.94,0,0,1-.2.27l-.14.12-.11.06-.12,0-.2,0a.15.15,0,0,0,0,.11.06.06,0,0,1,0,.09.06.06,0,0,1-.09,0l-.12-.08a.44.44,0,0,0-.15,0,.3.3,0,0,0-.18.09s0,0,0,0a.09.09,0,0,0,0,.06l0,.06s0,0,0,0h0L75,33.83l-.06,0,0-.06-.1-.1-.09.12-.11.13,0,0h-.06l-.06,0-.07,0a.22.22,0,0,0,.07-.12.23.23,0,0,0,0-.14s0-.05-.07,0l-.07,0a.13.13,0,0,0,0,.12.16.16,0,0,1,0,.12.18.18,0,0,1-.11,0L74,34l-.11,0a.12.12,0,0,0-.11,0l.07-.2-.21.2,0,0,0,0-.06,0,.2-.2,0,0-.09,0-.17.05-.17,0a.14.14,0,0,1-.12,0s0-.07,0-.11a.49.49,0,0,1,.06-.13h0a.19.19,0,0,0-.12-.07h-.1l-.11,0h-.13s0,0,0-.09l.09-.13a.55.55,0,0,0,.08-.15.14.14,0,0,0,0-.15l-.07.09-.11.13-.12.11a.31.31,0,0,1-.14.07,0,0,0,0,1,0-.06l.06,0,.08,0h0l.08-.16c0-.07.06-.1,0-.11l0,0h-.4l-.13,0c-.08,0-.13,0-.14,0a.07.07,0,0,1,0-.08.93.93,0,0,0,.05-.1.2.2,0,0,0,0-.11A.3.3,0,0,0,71.84,32.44Zm-.38-1.15,0,0v-.06Zm.3.76h0V32h0Zm.44.19a.1.1,0,0,0-.14,0,.69.69,0,0,0-.13.11l0,0a.11.11,0,0,0,.16,0A.92.92,0,0,0,72.2,32.24Zm.12-3.42a0,0,0,0,0,0,0s0,0,0,0h0S72.32,28.83,72.32,28.82Zm0,3.81a0,0,0,0,0,0,0s0,0,0,0l0,0a.29.29,0,0,0,.23.08.36.36,0,0,0,.23-.11.93.93,0,0,0-.22-.14.22.22,0,0,0-.24.06ZM72.6,29l0,0,.25-.06a.45.45,0,0,0,.22-.13h-.48C72.57,28.89,72.56,28.94,72.6,29Zm.2,4.35s0,0-.06,0,0,0,0,.06,0,0,.06,0S72.82,33.36,72.8,33.34ZM74.25,29l0,0,.13-.13,0,0Zm.13.13.06.06,0-.05a.07.07,0,0,0,0-.06h0Zm.05,4.45.1.1s0-.06,0-.08l0,0h0Zm.12.12s0,0,0,0,0,0,0,0a0,0,0,0,0,.06,0S74.57,33.7,74.55,33.68Zm.26-3.53,0,.05a.18.18,0,0,0,0-.07.19.19,0,0,0,0-.08Zm.13-.26a.1.1,0,0,0,0,0,.2.2,0,0,0,0,.07l.1-.1,0,0Zm.06-.1h0l0,0Zm.15,2.91h.06l0,0Zm.29-.23-.06,0-.07,0-.06,0s.06,0,.11,0l.09-.05A.06.06,0,0,0,75.44,32.47Zm-.12.56v0s0,0,0,0a.08.08,0,0,1,0,0l0,0,0,0s0,0,0,0a.06.06,0,0,0,0,0Zm.15-.65a0,0,0,1,0-.06.06s0,0,0,0S75.49,32.39,75.47,32.38Zm0-.11s0,0,0,0,0,0,0,.05a0,0,0,0,0,.06,0S75.52,32.29,75.5,32.27Zm.2.33a0,0,0,0,0-.06,0,0,0,0,0,0,0,.06s0,0,0,0S75.72,32.62,75.7,32.6Zm0-.41,0,0,0,0,0,0Zm0,.26,0,0,0,0,0,0ZM76,33l0,0,0,0,0,0Zm.1-.94A0,0,0,0,0,76,32s0,0,0,.06a0,0,0,0,0,.07,0S76.12,32,76.1,32Zm.1-.1a0,0,0,1,0,0,.06A0,0,0,0,0,76.2,31.92Z" style="fill:#bd3d37"/><path d="M71.82,39.68l.13-.21.11-.16.11-.14.15-.18a1.57,1.57,0,0,1,.32-.24.55.55,0,0,1,.17-.1.57.57,0,0,0,.17-.12l.07-.06s0,0,0,0,0,0,0,0a.47.47,0,0,1,.14-.2.84.84,0,0,0,.19-.19,1.53,1.53,0,0,1,.25-.28,1.3,1.3,0,0,0,.26-.27c.17-.19.34-.38.52-.56l.41-.44L75.2,36c.43-.41.84-.83,1.22-1.26s.8-.84,1.23-1.25l.14-.13.18-.17.16-.15.08-.08.31-.2a.2.2,0,0,0,.1,0l.16,0a.47.47,0,0,1,.17,0,.38.38,0,0,1,.15.09h0a.57.57,0,0,0,.07.13,1.51,1.51,0,0,1,.09.18,1,1,0,0,0,.09.15c0,.05,0,.07,0,.08l-.41.4.07.15H79l0,0h-.12a.21.21,0,0,0,0,.09.18.18,0,0,0,0,.08.16.16,0,0,0,.18,0,1.14,1.14,0,0,0,.22-.07l-.29.33-.27.32s0,0,0,.06,0,0,0,.07h0l0,0,.08,0h.09V35a.45.45,0,0,0,0-.08l0,0L79,34.8l.07-.06.11-.1.19-.17.2.06a.19.19,0,0,1,.1-.05l.07,0,.08.05a.15.15,0,0,0,.13,0,.2.2,0,0,1,0,.13.55.55,0,0,1-.09.14l-.13.12a.33.33,0,0,1-.11.08.24.24,0,0,0,.18.06A.34.34,0,0,0,80,35l.61-.35a.51.51,0,0,1,.09.16.46.46,0,0,0,.11.16s0,0,.07,0H81s0,0,.07,0,.07.11,0,.13a.6.6,0,0,0-.12.11s.09.07.13.06a.14.14,0,0,1,.13.05.4.4,0,0,1,.14.28,1,1,0,0,1,0,.3c0,.1-.06.21-.1.31a1,1,0,0,0,0,.34l-.09.05-.09,0-.1.11-.14.18-.15.2a.76.76,0,0,1-.1.12l-.25-.11a.17.17,0,0,0,0,.1l0,.08a.41.41,0,0,1,0,.08.1.1,0,0,1,0,.08.09.09,0,0,1-.12,0L80,37.51a.69.69,0,0,1-.13-.11l-.08-.08-.07,0-.07,0v0l0,0,0,0,.06,0a0,0,0,0,1,0,0l0,0-.18.11-.14.09a.21.21,0,0,1-.13,0,.37.37,0,0,1-.14-.07.2.2,0,0,0,.11-.2.25.25,0,0,0,0-.21l0,0h-.1c-.05,0-.08,0-.09,0a.06.06,0,0,0,0,.06.25.25,0,0,0,0,.07.56.56,0,0,0,0,.08.13.13,0,0,1,0,.07l-.1.09-.08.09,0,0,0,0,0,0,0,0,0,0s0,0,0,0l-.15,0-.29,0H78l-.06,0-.08,0-.11,0-.14,0-.15,0a.14.14,0,0,1-.1-.07s0,0,0-.09,0-.08,0-.09l-.08,0-.07,0h0s0,0,0,0a.08.08,0,0,0,0,.05c-.06.09-.13.14-.19.12a.31.31,0,0,1-.2-.13.15.15,0,0,1,0-.07.56.56,0,0,0,0-.07l0,.06-.08.08-.08.05a.06.06,0,0,1-.07,0,.09.09,0,0,1,0-.08.28.28,0,0,1,0-.09.29.29,0,0,0,0-.09.12.12,0,0,0,0-.09s-.08-.07-.11-.06a.11.11,0,0,0-.07,0l-.07,0a.16.16,0,0,1-.09,0,.31.31,0,0,1,0-.11s0-.07,0-.1A.28.28,0,0,0,76,37a.14.14,0,0,0,0-.1.12.12,0,0,0-.16,0,.45.45,0,0,0-.17.11,1.07,1.07,0,0,0-.14.16c-.05,0-.07.09-.09.1s-.09,0-.09,0,0,0,0-.07a.14.14,0,0,1-.07,0s0,.05,0,.09a.29.29,0,0,0,.08,0l.08,0-.1.07a.09.09,0,0,0,0,.05.25.25,0,0,0,0,.07l-.06.08,0,0h-.09a.14.14,0,0,1-.09,0,.15.15,0,0,1,0,.12.26.26,0,0,1-.08.11.14.14,0,0,1-.08,0,.2.2,0,0,1-.13,0l-.1.17-.08.17,0,.05a.16.16,0,0,1-.2,0,.85.85,0,0,1-.19-.09l0,0a.33.33,0,0,0,0,.13,2.08,2.08,0,0,0,0,.25,2.46,2.46,0,0,0,0,.28.28.28,0,0,0,0,.17l-.26.24-.1-.1a.6.6,0,0,0-.12-.11l-.13-.06a.13.13,0,0,0-.13,0,.16.16,0,0,0,0,.12c0,.05,0,.11,0,.18a.57.57,0,0,1,0,.22.43.43,0,0,1-.13.22c-.07-.07-.12-.1-.16-.08a1.13,1.13,0,0,0-.17.12l-.12.13s0,0,0,.09a.14.14,0,0,1-.06.08h-.09l-.08-.09L72.42,40a.17.17,0,0,0-.1,0l-.08.07a.11.11,0,0,1-.08,0,.14.14,0,0,1-.09-.05A.23.23,0,0,1,72,40a.43.43,0,0,0,0-.11.19.19,0,0,0,0-.1A.31.31,0,0,0,71.82,39.68Zm1.42-.32s0,0,0,0,0,0,0,0S73.25,39.39,73.24,39.36Zm.53-.53a.2.2,0,0,0-.06.14.15.15,0,0,0,.05.14.16.16,0,0,0,.08.06.09.09,0,0,0,.09,0,.08.08,0,0,0,0-.08.2.2,0,0,0,0-.09.27.27,0,0,0-.07-.08Zm.64-.85a.05.05,0,0,0-.08,0s0,0,0,.08.05,0,.08,0A.05.05,0,0,0,74.41,38Zm.16-.31c-.06.06,0,.11,0,.17l.21-.21a.1.1,0,0,0-.12,0Zm.2-.36a.06.06,0,0,0-.08,0s0,.06,0,.08,0,0,.07,0S74.79,37.33,74.77,37.31ZM74.9,37a.16.16,0,0,0,0,.06l0,.07h.09a.18.18,0,0,0,.06-.08A.23.23,0,0,0,75,37h-.09l0,0Zm.85-.72,0-.05,0,0Zm.62-.16-.07.08-.11.16a.7.7,0,0,0-.09.17s0,.08,0,.1h0a.47.47,0,0,1,.19-.12.17.17,0,0,1,.1,0l.06.06s0,0,.09,0l.08-.09a.58.58,0,0,0,.11-.15.48.48,0,0,0,.08-.16.12.12,0,0,0,0-.12.29.29,0,0,0-.13.09l-.14.12h-.07v-.18Zm.1.53a.1.1,0,0,0,0,.08.14.14,0,0,0,0,.09l.09-.09ZM76.66,35s0,0,0,0,0,0,0,0a0,0,0,0,0,0,0A0,0,0,0,0,76.61,35Zm.06,1.59.06.06,0-.07a.14.14,0,0,0,0-.11Zm.32-.49a.35.35,0,0,0-.06.09.14.14,0,0,0,0,.11l.18.2a1.11,1.11,0,0,0,.18.19.38.38,0,0,0,.18.09.22.22,0,0,0,.2-.08s0,0,.1.07a.37.37,0,0,1,.1.07A.24.24,0,0,1,78,37s0,.11.06.18l.37-.35h.19l0,0s0,0,0,0,0,0,0,0h.22L79,37l0,0a0,0,0,0,1,0,0l0-.1c0-.06,0-.09,0-.1l.17-.09.25-.14.24-.13.14-.07.09-.07s.07-.06.09,0l.08-.08a.27.27,0,0,0,.06-.1.33.33,0,0,0,0-.1.41.41,0,0,1,0-.11.14.14,0,0,1,.06-.1s-.08,0-.15,0l-.25,0a1.13,1.13,0,0,1-.3,0,.53.53,0,0,1-.28-.23.89.89,0,0,1-.49.16l-.58,0a3.81,3.81,0,0,0-.59.08A1.36,1.36,0,0,0,77,36.06Zm0,.37a.06.06,0,0,0,0,.07l0,.06.07.06,0,0,.12.12a0,0,0,0,0,0-.06.43.43,0,0,0,0-.07l-.06-.06s0,0,0,0l-.07-.06Zm0,1h.06l0,0Zm1-3a.26.26,0,0,0-.11.23.33.33,0,0,0,.1.23l.06,0,.07,0,.21.14.08,0a.21.21,0,0,1,0-.1.22.22,0,0,1,0-.09,1.18,1.18,0,0,0,.08-.12.21.21,0,0,0,.05-.1s0,0-.05-.07l-.08-.07s0-.07.07-.13.07-.08.08-.08l0-.05s-.06.06-.12.1a.79.79,0,0,0-.12.15.41.41,0,0,0-.07.17.17.17,0,0,0,.1.15l-.07,0h-.07a.16.16,0,0,1-.08-.09v-.11a.49.49,0,0,1,0-.12A.13.13,0,0,0,78.11,34.5Zm.47,2.74-.15.1s0,0,0,.11,0,0,0,0l0,0a.49.49,0,0,0,.13-.14S78.64,37.29,78.58,37.24Zm.36-1.77a.08.08,0,0,0-.1,0,.06.06,0,0,0,0,.09s0,0,.07,0S79,35.48,78.94,35.47Zm-.07-.23.06.06,0,0-.06-.06Zm.76.17s0,0-.07,0,0,0,0,.06a.11.11,0,0,0,.07,0S79.64,35.42,79.63,35.41Zm.13,1.69s.09.08.13.08a.15.15,0,0,0,0-.07s0,0,0,0v0l0,0Zm.28-.75s0,0-.06.07,0,.11,0,.13,0,0,.06-.06A.16.16,0,0,0,80,36.35Zm0-.07s0,0-.06.06,0,.11,0,.13,0,0,0-.07S80.06,36.3,80,36.28Zm.09.66,0,0,.08-.08,0,0Zm.38-.42,0,0v-.08Zm.54-.79a.1.1,0,0,0-.09,0l-.08.07.09.11.07-.08A.09.09,0,0,0,81.05,35.73Zm0,.4a0,0,0,0,0-.07,0s0,0,0,.06a0,0,0,0,0,.07,0S81,36.16,81,36.13Z" style="fill:#bd3d37"/><path d="M82.13,43.39s.05,0,.08,0l.07,0a.41.41,0,0,0,0-.09.21.21,0,0,1,.06-.08l.06,0a.42.42,0,0,0-.09.14.12.12,0,0,0,0,.15v0a1.34,1.34,0,0,0,.12-.24.22.22,0,0,0,0-.24.33.33,0,0,0-.12-.06.14.14,0,0,0-.14,0,.19.19,0,0,0,0,.12.15.15,0,0,1,0,.13l0,0A.5.5,0,0,0,82,43a1.11,1.11,0,0,0-.18-.19h0l0,.18-.09,0a.12.12,0,0,1-.09,0,.46.46,0,0,1-.09-.12s0-.09,0-.12l.08-.05s0,0,.08,0a.21.21,0,0,0,.06-.1.08.08,0,0,0,0-.09l-.06,0h-.09a.21.21,0,0,1,0-.15.27.27,0,0,1,0-.13l0,0,.07-.05.07,0a.59.59,0,0,1-.1-.11l-.08-.13a.35.35,0,0,1,0-.12.31.31,0,0,0,0-.12.35.35,0,0,1,0-.07.45.45,0,0,1,0-.08.13.13,0,0,1,0-.07s0-.07,0-.09h0a0,0,0,0,0-.06,0l-.29.29v.06h0s0,0,0,0h0l0,0a.05.05,0,0,1,0,0v.06l0,0,0,0L81,41.5,81,41.41l0,0s-.07,0-.11,0l-.08.08s-.08,0-.11,0h0a.15.15,0,0,0,0,.07.26.26,0,0,1,0,.07l0,0,0,0a.1.1,0,0,1,0,0l0,0-.07-.19a.76.76,0,0,0-.12-.19l-.08-.07L80.12,41a.48.48,0,0,1-.12-.1l0-.07v-.07l0,0,0,0a.13.13,0,0,1,0,0,.06.06,0,0,1,0-.05.22.22,0,0,0,0-.19.76.76,0,0,1-.14-.16s0-.08,0-.12a.18.18,0,0,0,.07-.15s0,0,0,0a.1.1,0,0,0,0,0v0s.09.07.12.06l.11-.08,0,0h-.06l0,0h0s0,0,.06-.1,0-.1,0-.13l-.06,0a.1.1,0,0,1-.08,0l0,0,0-.06,0,0v-.18s0,0,0,0h.08L80,39l.06,0a1,1,0,0,0,.24-.43l.06,0,.09,0,.07,0,.09,0h0a.08.08,0,0,0,0-.07.09.09,0,0,0,0,0s-.08,0-.11,0a.2.2,0,0,1-.13,0l0,0,0,0,0,0a.11.11,0,0,1,.08,0,.19.19,0,0,1,0-.18.67.67,0,0,1,.11-.14s0,0,0,0l.09-.08.11-.08.08-.07a3.12,3.12,0,0,1,.35-.25l.36-.22c.1-.07.21-.14.32-.23a1,1,0,0,1,.36-.17s0,0,0,0v0h0v0h-.1s0,0,0,.07h.13l.14,0,.07,0h.09a0,0,0,0,0,0,0s0,0,0,0,0,.07,0,.15a.48.48,0,0,1,0,.13l-.11,0a.38.38,0,0,0-.15.09c0,.05-.06.09,0,.12a.19.19,0,0,1,.07.12v.09a.25.25,0,0,0,0,.1l.11.11v0a0,0,0,0,0,0,0,.42.42,0,0,0,0,.07.35.35,0,0,0,0,.07.26.26,0,0,1,0,.15.47.47,0,0,1-.09.12l-.12.11-.08.12a.18.18,0,0,0,0,.09.14.14,0,0,1,0,.07l-.06.06-.08.08a.26.26,0,0,1-.1,0l-.05,0s0,0,0,0l0,0a.75.75,0,0,0-.14.17,1.15,1.15,0,0,1-.14.17l0,0-.09.06-.06,0s0,0-.06-.05,0-.06,0-.06-.1,0-.12,0l-.09.08-.1.11a.18.18,0,0,0,0,.13l-.33.33s0,.07,0,.08l-.05,0s0,0,.06,0,0,0,0,.08h-.07l-.07,0h0v0a.13.13,0,0,0,.11,0l.13,0H81a.18.18,0,0,1,.13.06.19.19,0,0,1,0,.09.17.17,0,0,1,0,.1l-.1-.1h0l.07.1a.62.62,0,0,0,.08.1l0,0h.06l0,0,.09-.07a.19.19,0,0,1,.1,0l0,0a.09.09,0,0,0,.06,0h.06l.1,0,.08,0,.07,0,.08.05h.8a.55.55,0,0,0,.17-.08l.2-.1.08-.07.14-.13.14-.12.08-.07a.5.5,0,0,1,.22-.1.37.37,0,0,0,.21-.09l0,0v0l.2-.2.19-.18.1,0,.2-.07.19-.05c.06,0,.09,0,.1,0a.28.28,0,0,1,.06.08l0,.08s0,0,0,.07a.32.32,0,0,0,0,.08s0,.06,0,.08l.08.08a.15.15,0,0,0,.08,0h.14a.15.15,0,0,1,.07,0l0,0,0,0-.09,0-.08,0-.19.18H85l0,0s0,0,0,.09,0,.08,0,.08l0,.11a.61.61,0,0,1,0,.11l0,0,.08-.11.07-.09.09,0,0,0,0,0a.56.56,0,0,0,0-.08.84.84,0,0,0,0-.1h0a.06.06,0,0,1,0,0,.28.28,0,0,1,0,.08.1.1,0,0,1,0,.07l-.44.44a.19.19,0,0,0,0,.09.77.77,0,0,1,0,.15l0,.16s0,.07,0,.07,0,0-.06,0h-.2a.24.24,0,0,0-.13.07.83.83,0,0,0-.08.12s0,.08,0,.13-.08.06-.1,0l-.06-.06-.08,0s-.07,0-.12,0l-.3.3a.16.16,0,0,1-.18-.06l0,0s0,0,0-.05l0,0h.1l0,0-.17-.18-.13.15s0,.1,0,.18a0,0,0,0,1-.06,0l0-.06s0,0,0,0a.09.09,0,0,0-.06,0s0,.07,0,.1a0,0,0,0,1,0,.08l0,0s0,0,0,0a.06.06,0,0,0,0,0s0,0,0,0a.05.05,0,0,1,0,0l.08.05.08,0h0l-.06.19a.11.11,0,0,1,.07,0l0,0,.08.07.14.14.13.13.07.08.06,0,.13.08.12.08.07.06,0,0,0,0s0,.05,0,.11a.31.31,0,0,1-.06.13l0,0s0,0-.08,0h-.09l0,0a.18.18,0,0,0,0,.06l0,.07a.32.32,0,0,0,0,.08l0,0a.35.35,0,0,1-.09.07s-.06,0-.09,0,0-.06,0-.08l0-.08s0-.05,0-.08,0,0,0-.08l-.09-.07h-.11l-.06,0-.07,0-.05.06s0,.05-.06.05h-.3s0,0-.06-.08a.37.37,0,0,0,0-.1.46.46,0,0,0-.07.1l-.09.1c0,.05-.07.06-.09,0a.33.33,0,0,0-.12-.06h-.15v0a0,0,0,0,0,0-.06l-.05-.11S82.09,43.44,82.13,43.39ZM80,39.2s0,0,0,0a0,0,0,0,0,0,0l.09,0,.1,0,0,0a.13.13,0,0,0-.11,0A.18.18,0,0,0,80,39.2Zm.23-.22s0,0,0,0,0,0,0,0S80.22,39,80.23,39Zm.28,2.22h.06v-.06Zm0-1.05s0,0,0,0,0,0,0,0h0S80.57,40.16,80.56,40.15Zm0-1.41,0,0,0,0Zm0,2.52s0,.06,0,.09l0,0Zm0-2.94.08.09.06-.06-.09-.09Zm.11,1.06h0v.06l.06,0a.11.11,0,0,0,.06,0l0,0h0l0-.06,0-.06h-.09Zm.23.24-.08,0a.1.1,0,0,0-.1,0l.08.07a.12.12,0,0,0,.11,0s0,0,0,0S81,39.63,81,39.62Zm-.17-.77h.07a.07.07,0,0,0,.08,0l-.06-.06Zm.08,2.35s0,0,0,0,0,0,0,0a0,0,0,1,0,.06-.06Zm0-.05a0,0,0,0,0-.06.06s0,0,0,0S80.94,41.16,80.93,41.15Zm0-3.12a.05.05,0,0,0,0,.08.18.18,0,0,0,0,.07l.11-.1L81,38A.06.06,0,0,0,80.94,38Zm0,.35s0,.06,0,.09l.06.06.1.09a.08.08,0,0,0,.12,0L81,38.38Zm.16.51A.69.69,0,0,0,81,39a.2.2,0,0,0,0,.17h.11v.07a.22.22,0,0,0,.19-.06s-.06,0-.07,0,0,0-.08-.06l.13-.09s0-.08,0-.14,0,0-.07,0Zm0,2s0,0-.08,0L81,41l.14.13a.15.15,0,0,0,0-.1A.12.12,0,0,0,81.14,40.94Zm.33-2.89h-.06l-.08.05-.08.06q.06.08.12.06a.3.3,0,0,0,.11-.06l0,0a0,0,0,0,1,0,0,0,0,0,0,0,0,0l0,0Zm0,1.06,0,.06a.16.16,0,0,0,0,.06l.1,0,.09,0a.23.23,0,0,0,.06-.18.12.12,0,0,0-.1,0Zm.16-.29.07,0h.06l-.07-.08Zm.12,2.45a0,0,0,0,0-.06,0s0,0,0,0a0,0,0,0,0,.06,0S81.78,41.28,81.76,41.27Zm.31.54-.18-.14a.14.14,0,0,0-.18,0l.11.1h.06a.17.17,0,0,1,.09.06S82,41.86,82.07,41.81Zm-.2-.31,0,0a.2.2,0,0,0,0,.05h.21a.39.39,0,0,0,.21-.08l.17-.15.16-.17-.06-.06a.58.58,0,0,1-.14.12.11.11,0,0,1-.16,0,.3.3,0,0,1-.18.15l-.22.06ZM82,42.72a.09.09,0,0,0-.09,0l-.08.05.08.07ZM82,42s0,0,0,0,0,0,0,0h0A0,0,0,0,0,82,42Zm.07-1A0,0,0,0,0,82,41s0,0,0,.07a.06.06,0,0,0,0,0S82.08,41,82.07,41ZM82,42.47s.07,0,.1,0v0h0V42.4l0,0h0Zm.12.47s0,0-.05,0,0,0,0,.06,0,0,0,0S82.13,43,82.12,42.94Zm.17-.43a.19.19,0,0,0,0,.08l-.06.11a1,1,0,0,0,0,.12.32.32,0,0,0,0,.08l.1-.07.1-.07,0,0,.09-.1a.13.13,0,0,0,0-.13h-.09a.14.14,0,0,0-.09,0h0Zm-.11-.75s0,0,0,.07l0,0Zm.2-4.57s0,0,0,0l0,0h0l0,0,0,0v-.05h0Zm0,4.55a.09.09,0,0,0,.1,0l0,0Zm0-3.63a.05.05,0,0,0,0,.08l0,0a.1.1,0,0,0,0-.09Zm.14-.81a0,0,0,0,0-.06,0s0,0,0,0,0,0,0,0S82.58,37.32,82.57,37.3Zm.08,5.34,0,0,0,0ZM82.89,38a.26.26,0,0,1,0,.17.12.12,0,0,0,0,.14.26.26,0,0,0,.09.05l.11,0s0,0,0,0l0,0,0,0,0,0H82.8s0,0,0,0h0a.72.72,0,0,1,0-.25.35.35,0,0,1,.1-.23ZM83,42.39a.13.13,0,0,0-.1,0l0,0ZM83.13,38h.05a.24.24,0,0,1,0,.16c0,.08,0,.14-.06.16v0h-.08l0,0a.11.11,0,0,1,0-.16l.1-.12Zm.15,5.43s0,0,0,0,0,0,0,0,0,0,0,0S83.29,43.39,83.28,43.38Zm.44-1.69,0,0h-.09a.07.07,0,0,0-.06,0,.49.49,0,0,0,.13.11s.07,0,.13-.08l.06-.07s0-.06,0-.09h0s0,0,0,0A.16.16,0,0,1,83.72,41.69Zm-.12,1.59,0,0a.06.06,0,0,0,.08.08l.05,0Zm.26-2.09a.06.06,0,0,0-.07,0l-.06,0,.06.06Zm.08-.19a0,0,0,0,0-.06,0s0,0,0,.05,0,0,.05,0S84,41,83.94,41Zm.26.44,0,0v-.06Zm.06-.41s.1,0,.16,0l-.06-.07Zm.13-.18s0,0,0,0,0,0,0,0,0,0,0,0S84.4,40.86,84.39,40.85Zm.35-.54,0,0,0,0Zm.06.42s0,.06,0,.09l.06-.06Zm.18-.66s0,.07,0,.1l0,0s.06-.07,0-.1Z" style="fill:#bd3d37"/><path d="M84.72,45.54c.06,0,.08-.08.07-.12a.51.51,0,0,0,0-.14.65.65,0,0,0,0-.11s0-.07,0-.08,0,0-.1,0l-.1,0a.33.33,0,0,0,0-.14.46.46,0,0,0-.07-.13.06.06,0,0,0-.09,0s-.07,0-.11,0l0,0,.12-.09.12-.1v0h0l-.11,0-.12,0h-.1l0,0,0,0a.22.22,0,0,0,.2-.09s.07-.07.07-.09a.18.18,0,0,0,0-.07s0,0,0,0,0,0,0,0h-.05l0,0a0,0,0,0,1,0-.06l0,0,0,0h.06l0,0,0,0a.24.24,0,0,1,.11.06.09.09,0,0,0,.13,0l.26-.26s0,0,0,0a.14.14,0,0,0,0-.06.64.64,0,0,1,0-.07.09.09,0,0,1,0-.06l.09-.08a.08.08,0,0,1,.11,0,.12.12,0,0,0,0,.14.44.44,0,0,0,.08.11.16.16,0,0,0,.06-.13.43.43,0,0,0,0-.16s0-.1,0-.14,0-.08,0-.09.07,0,.12,0l.13.09,0,0v0l0,.1s0,.07,0,.07l0,0,.18-.19h0s0,0,0-.06,0,0,0,0h0v0l0,0,0,0,0,0h0a.39.39,0,0,0,0-.13q0-.08,0-.09s0,0,0,0l0,0,0,0,0,0,0,.08,0,.07,0,0-.08-.12s-.06-.09,0-.11a.12.12,0,0,1,.11-.07.43.43,0,0,1,.16,0h.17a.17.17,0,0,0,.13,0l0,0,0,0,0,0,0,0H86l.18-.18.1,0a.11.11,0,0,0,.08,0v0l-.14,0-.14-.07v0h.25l.09,0,.08,0,0,0h0v0h0a.31.31,0,0,1-.17,0l-.13-.1a.12.12,0,0,1,.09,0h.09l.1,0a.09.09,0,0,0,.08,0s0-.08,0-.18,0-.16,0-.19l-.12-.12s0,0,0,0a.11.11,0,0,1,0-.05s0,0,.06-.09l.08-.06a.15.15,0,0,0,0-.07.16.16,0,0,1,0-.06l0,0,0,0v0a0,0,0,0,0,0,0l-.06.12-.06.11v0h0l.07,0,.07,0v-.06a.08.08,0,0,0,0-.07h0v0l.08,0s.06,0,.08,0v.06l0,0v0s0,0,.06,0l.06,0,.08-.09a.19.19,0,0,1,.07-.08,0,0,0,0,1,.06,0s0,.05,0,.05l0,0,.12-.12-.32-.31,0,0,0,0h.16l.07-.08c0-.05.07-.07.08-.07s0,0,.06,0a.06.06,0,0,1,0,.09l-.07,0h.24a.17.17,0,0,0,0-.17.83.83,0,0,0-.11-.15l0,0,.06,0,0,0s0,0,.07.06L88,41l.07,0,.11,0h0v0s0,0,0,0a.08.08,0,0,1,0,0,.49.49,0,0,1,0-.1.42.42,0,0,0,0-.1l.08,0h.11a0,0,0,0,0,0,0h0a0,0,0,0,1,0,0l0,0a.19.19,0,0,0,0-.09s0-.07,0-.08l0,0,0,0v0s0,0,0,0l.06-.08.07-.08.07.07a.41.41,0,0,0,0-.09A.18.18,0,0,1,89,40a.17.17,0,0,1,.28,0c.06,0,.07.11,0,.15a.24.24,0,0,0,0,.17h0l.24-.25,0,0h0l.1.09.12.07h0l.07,0,0,0s0,0,0,.07l-.14.15s0,0,0,0v.07l0,.1-.05.11,0,0,0,0s0,0,0-.05a.06.06,0,0,0-.09,0l0,.05s0,0,0,.06l-.07.07-.1.12-.09.11,0,0a.22.22,0,0,1-.15.08s-.1,0-.16.08v0h.09l0,0a.11.11,0,0,1,0,0l0,0,0,0,0,0h0l-.06,0-.09.07-.09.08-.07.05-.18.19,0,0-.07,0h-.09l-.18.17-.12.13v.06l-.24.24a.12.12,0,0,0-.14,0l-.11.09a.78.78,0,0,0-.11.18.76.76,0,0,1-.12.19L87,43.4a2.12,2.12,0,0,0-.12.2,1.1,1.1,0,0,1-.14.18.47.47,0,0,1-.12.09l-.13.1-.09.09-.06.08-.1.13-.08.12-.07.08a.34.34,0,0,0-.14.09s0,.06,0,.13a.6.6,0,0,0,0,.19c0,.06,0,.13,0,.18a.4.4,0,0,0,.06.13l.53.53a0,0,0,0,1,.06,0l0,0,0,.05a0,0,0,0,1,0,.06l0,0h-.05a0,0,0,0,0,0,.06l.06,0,.06,0,0,0s0,0,0,0l0-.06h.05a1.59,1.59,0,0,1,.26.14,1.3,1.3,0,0,1,.23.18.24.24,0,0,1-.13.07H87.1l-.1,0s0,0-.07,0,0,.08,0,.11,0,.07,0,.09l-.09.07a.05.05,0,0,1-.08,0,.07.07,0,0,1,0-.1.4.4,0,0,1-.22,0l-.24.24,0,0,.06-.06-.09-.1-.07.08-.1-.08c-.06,0-.1,0-.13,0l-.09-.1a.22.22,0,0,0-.14-.06l0,0-.09.09-.48-.48a.13.13,0,0,0,0-.12h0l-.09,0-.08,0h0l0,0a.37.37,0,0,1,0-.08c0-.05,0-.08,0-.09a.31.31,0,0,0-.06-.12Zm-.14-.81s0,.07,0,.11h.06A.09.09,0,0,0,84.58,44.73Zm.24-.52s0,0,0,0,0,0,0,.05,0,0,0,0S84.83,44.22,84.82,44.21Zm.48.13,0,0,0,0,0,0Zm.59-1.26h-.07l-.08,0v0h0a0,0,0,0,0,.06,0l0,0Zm.1.8a.09.09,0,0,0-.14,0l.07.08Zm0-.45s0,0,0,0,0,0,0,.05a0,0,0,0,0,.06,0S86,43.44,86,43.43Zm0,3h0s0,0,0,0h0v0Zm.36-.07s0,0,0,0,0,0,0,0,0,0,0,0S86.32,46.36,86.31,46.35Zm.32-2.66s0,0,0,0,0,0,0,0v0S86.62,43.7,86.63,43.69Zm0-.33.06,0,0,0Zm.59-.7.06.06a.06.06,0,0,0,0-.06,0,0,0,0,0,0,0h0Zm.27-.26h0l0,0,.1.11a.08.08,0,0,0,0-.07Zm0-1.17s0,0,0,0,0,0,0,0h0S87.57,41.24,87.55,41.23Zm.36.3h0a0,0,0,0,0,0,0s0,0,0,0S87.93,41.54,87.91,41.53ZM89.2,40a0,0,0,0,0-.06,0,0,0,0,0,0,0,.06s0,0,.06,0S89.22,40,89.2,40ZM89.14,41h.06l0,0Zm.06-.29s0,0,0,0,0,0,0,0h0Zm.24-.3-.1,0,0,0,0,0,.06,0,0,0s0,0,0-.06v-.06h0Zm.15.44s0,0,0,0,0,0,0,0,0,0,.06,0S89.61,40.88,89.59,40.87Zm-.06-.53,0,0v-.06Zm.11,0a.35.35,0,0,1,0,.07v.05a.33.33,0,0,1-.05.12s0,.07,0,.11a.55.55,0,0,0,.1-.17c0-.07,0-.12,0-.17h0v0h0s0,0,0,0h0Z" style="fill:#bd3d37"/><path d="M90.21,50.91a.69.69,0,0,1-.14-.15,2.18,2.18,0,0,1-.12-.22,1.17,1.17,0,0,1-.09-.24.34.34,0,0,1,0-.2l0,0a.6.6,0,0,0,.11-.25.67.67,0,0,0,0-.2c0-.06,0-.12,0-.17a.26.26,0,0,1,0-.15s0,0,0,0l.06,0a.06.06,0,0,0,0-.05s0,0,0-.07l-.07,0-.07,0-.15,0H89.4a.17.17,0,0,0-.14.06l0,0,.08,0a.14.14,0,0,1,.07,0s0,0,0,0v0h0v0l-.06,0,0,0s0,0,0,0,0,0-.07,0l-.08,0H89s0,0,0-.06-.06-.05-.06-.06,0-.1,0-.11l-.09-.07a.26.26,0,0,1-.15,0l-.16-.09-.16,0a.11.11,0,0,0-.12,0l-.42-.42a.06.06,0,0,1-.07,0l0-.06a1.22,1.22,0,0,1-.27-.41.38.38,0,0,1,.11-.43l.12-.11a.48.48,0,0,1,.16-.08.16.16,0,0,0,0-.08l-.05-.07-.06,0-.08,0a.13.13,0,0,1,0,.07l0,.06,0,0,0,0a.2.2,0,0,1-.08-.18.45.45,0,0,1,.07-.18.7.7,0,0,1,.13-.17.6.6,0,0,0,.11-.14s0,0,0-.05l0-.1s0-.07,0-.11l0-.05.06-.09a.55.55,0,0,1,.09-.14l.09-.14.06-.08h.15A.26.26,0,0,0,88.3,46a.19.19,0,0,1,0-.09.29.29,0,0,1,.11-.06.1.1,0,0,1,.12,0l0,0a.11.11,0,0,1,0,.05.08.08,0,0,1,0,0l.09,0a.15.15,0,0,0,0-.13l-.06-.11,0-.1a.1.1,0,0,1,0-.1.08.08,0,0,1,.07,0l.06,0,.07,0s0,0,.08,0l.22.22.07-.06L89,45.5l0,0a.38.38,0,0,1,.44-.13.56.56,0,0,1,.15.1.17.17,0,0,0,.13,0l0-.05a.06.06,0,0,1,0-.06v0a.16.16,0,0,1,.14,0l.13.06.13.09a.31.31,0,0,0,.12,0l.06,0,0,0h.23l0,0,0,0,0-.18,0,0h.18v.11l.28.29s0,0,0,0a.07.07,0,0,0,0,.05.26.26,0,0,0,.19.12h.4a.41.41,0,0,1,.22.15.46.46,0,0,1,0,.16c0,.09,0,.19,0,.3s0,.21.05.32a1.69,1.69,0,0,0,0,.21.33.33,0,0,1,0,.14.64.64,0,0,1-.06.16,1,1,0,0,1-.08.15.38.38,0,0,1-.08.09.14.14,0,0,1,0,.11.5.5,0,0,1,0,.12.38.38,0,0,0,0,.1.12.12,0,0,0,0,.1s0,0,0,.07-.05.08-.07.13l-.06.13a.39.39,0,0,1,0,.09l0,0,0,0v0l0,0,0,0,0,0a.39.39,0,0,1-.1-.16.39.39,0,0,0-.1-.16l-.07.11c0,.07,0,.11,0,.13l.29.29s0,0,0,0a.19.19,0,0,1-.09,0l-.1,0-.06,0-.17.32a.08.08,0,0,0,0,.12s0,.06,0,.11l-.09,0s-.09,0-.1,0a.16.16,0,0,0,0,.1s0,.06,0,.09a.38.38,0,0,1,0,.1.1.1,0,0,1,0,.08l-.18.13s0,0,0,.07l0,.11a.56.56,0,0,1,0,.12.11.11,0,0,1,0,.08h0s0,0,0,0l-.09.15c0,.06-.06.1,0,.12s0,0,0,.12.06.15.1.23.07.18.1.27a.64.64,0,0,1,.05.2.18.18,0,0,0-.13,0,.23.23,0,0,0-.07.07l-.07.09a.11.11,0,0,1-.09.05s-.1,0-.18-.06a1.85,1.85,0,0,1-.3-.26.12.12,0,0,1,0-.08.25.25,0,0,1,0-.09l0-.09A.31.31,0,0,0,90.21,50.91Zm-1.77-3.86a.45.45,0,0,1-.06.19.33.33,0,0,0,0,.2l.08.15.06.1.07.08.09.1a.36.36,0,0,0,.12.09l.08,0h.08a.68.68,0,0,1,.15,0l.11.08c.06,0,.09.07.11.07a.51.51,0,0,0,.32,0l.31-.1s.07,0,.11,0l.11,0h0l0,0,0-.07s0-.06,0-.07a.14.14,0,0,1,.09,0h.09a4.28,4.28,0,0,0,.54-.34,4.58,4.58,0,0,0,.48-.4.34.34,0,0,0,.11-.2.38.38,0,0,0,0-.2,1,1,0,0,0-.12-.19l-.17-.18L91,46.38l-.28-.08-.27-.06-.13,0-.09.06-.09,0-.05,0,0,0h-.29s0,0,0,0h0a.06.06,0,0,0,0,.07s0,0,0,.09a.32.32,0,0,1-.09.08l-.08,0-.1.06-.15.07a.53.53,0,0,1-.23.06.6.6,0,0,1-.19-.06l-.14-.07s-.07,0-.08,0-.07.08-.06.12a.34.34,0,0,0,.06.12l.09.11a.13.13,0,0,1,0,.12h-.13Zm0,.88s0,0,0,0,0,0,0,0,0,0,0,0Zm.14,0s0,0-.07,0a0,0,0,1,0,.06.06A0,0,0,0,0,88.58,47.94Zm.33.33H89a.1.1,0,0,0,.1,0L89,48.17Zm.36.36s0,0-.07,0a0,0,0,0,0,0,.07s0,0,.07,0A0,0,0,0,0,89.27,48.63Zm.06-.14,0,0,0,0,0,0Zm.53-.31a.08.08,0,0,0,0,.08l.06.07.06.06.09-.17-.1,0A.08.08,0,0,0,89.86,48.18ZM90,49l.07.07.07-.07-.07-.07Zm.54-2.9,0,0,0,0,0,0Zm1.37,0s0,0,0,0,0,0,0,0,0,0,0,0Zm.08.14a.05.05,0,0,0-.07.07s0,0,.06,0S92,46.16,92,46.14Z" style="fill:#bd3d37"/><path d="M91.56,52.76s0,0,0,0,0,0-.07,0l.09-.12a.29.29,0,0,0,.06-.16l.34-.34L92,52a.36.36,0,0,1,.07-.1s.07,0,.13,0a.17.17,0,0,0,.16-.05l.1-.12.09-.13v-.09a.23.23,0,0,1,0-.1s0,0,.05-.06a.34.34,0,0,1,.11-.07h.08l0,0A2.54,2.54,0,0,1,93,50.9a1.64,1.64,0,0,1,.21-.25l0,0h.06l.1-.1.11-.12a1.4,1.4,0,0,0,.12-.18.82.82,0,0,0,.09-.19.23.23,0,0,0,0-.18h0l0,0h0s0,0,0,0l0-.05,0,0a.27.27,0,0,0-.1-.06,1.14,1.14,0,0,0,.1-.19c0-.07,0-.12-.08-.17l.08-.15a.23.23,0,0,0,0-.18.29.29,0,0,0,.28,0l.21-.19,0,0s0,0,0-.06l0-.06.06-.06.09-.1a.14.14,0,0,1,.12-.06,0,0,0,0,1,0,.07l-.08.07-.08.06s0,0,0,.07a.1.1,0,0,0,.08,0l-.08.13h.13l0,0,0-.06,0,0h0v0h.1a.17.17,0,0,1,.1,0l0,0h0l0,0a.25.25,0,0,1,0,.07.12.12,0,0,0,0,.07l.22.15a.27.27,0,0,0,.24,0,.16.16,0,0,1,0,.1.16.16,0,0,1,0,.1l0,.09a.08.08,0,0,0,0,.07.08.08,0,0,0,.1,0,.08.08,0,0,1,.09,0,.41.41,0,0,0-.15.24.35.35,0,0,0,.06.18,1.71,1.71,0,0,0,.11.14.1.1,0,0,1,0,.13.27.27,0,0,1,.15,0l.13,0a.22.22,0,0,1,.07.07s0,.06.06.06a.87.87,0,0,0,.31.05l.29,0h0l.06.07,0,0h.23s0,0,0,0,0,0,0,0h0a.05.05,0,0,1,0,0l0,0,0,0h0l.06,0s0,0,0,0,0,0,0,.08,0,.07,0,.08a.4.4,0,0,0,.07.12l.09.1a.2.2,0,0,0-.06.09.23.23,0,0,1-.07.11l0,0,.05,0,0,0,0,0a.09.09,0,0,1,0,.09.56.56,0,0,1,0,.12s0,.08,0,.13a.26.26,0,0,0,0,.15v0l-.07,0-.06,0,0,0V52h.12v0a.34.34,0,0,0,0,.09c0,.05,0,.07,0,.08l-.25.25h-.05s-.06,0-.06-.12v-.16l0,0a.05.05,0,0,1,0,0v0h0s0,.05-.07.1l-.08.09H96l-.15,0s-.07,0-.07,0a.1.1,0,0,1,0-.11.52.52,0,0,1,0-.11.36.36,0,0,0,0-.11.12.12,0,0,0,0-.1l-.11-.06a.31.31,0,0,0-.12-.06.68.68,0,0,1,0-.13l.07-.09a.24.24,0,0,1,.09-.06.15.15,0,0,1,.1,0l-.06-.07s-.06-.05-.08-.05a.09.09,0,0,1-.06,0s0-.06,0-.08,0,0-.06-.09a.3.3,0,0,0-.24-.1.63.63,0,0,0-.26.11v0s0,0,0,0H95s0,0,0,0l0-.06a.14.14,0,0,0,0-.09.2.2,0,0,0-.07-.11l-.13,0c-.07,0-.11,0-.14,0h0v.08l0,0v0l0,0v0s0,0,0-.05v0a.16.16,0,0,0-.15,0,.36.36,0,0,0-.15.08s0,.06,0,.11.06.09.1.1l-.17.08a.58.58,0,0,0-.13.11.09.09,0,0,0,0,.06l0,.07,0,0a.06.06,0,0,0-.05,0l0,0v.1h-.09v0a.49.49,0,0,0-.09.18.66.66,0,0,1-.11.21l-.06,0-.09.06a.26.26,0,0,1-.1,0s0,0-.07,0l-.08.08a1.77,1.77,0,0,0-.23.32,1.93,1.93,0,0,1-.22.32.26.26,0,0,1-.16.09l-.12,0a.19.19,0,0,1-.09,0s0,0-.07,0a.12.12,0,0,0,0,.08l0,.07a.25.25,0,0,1-.16.07l-.16-.05-.16-.08a.34.34,0,0,0-.17,0h-.11v-.11s0,0,0,0v0h-.16s0,0,0,0l0,0a.12.12,0,0,1,.13,0A.15.15,0,0,0,91.56,52.76Zm.27-.18a.07.07,0,0,0-.12,0l-.09.07,0,.06,0,0,0,0,0,0,0,0Zm.14,0a.09.09,0,0,0,0,.09l.06-.06Zm.51.3s0,0,0,0a0,0,0,0,0,0,0h0A0,0,0,0,0,92.48,52.9Zm.19-1.49.08,0,0,0Zm.34.38a.06.06,0,0,0-.05,0s0,0,0,0,0,0,0,0S93,51.8,93,51.79Zm0-.55,0,0,0,0,0,0Zm.13.9h-.07l-.05,0,0,0Zm.16,0,0,0,0,0Zm.74-3.22s0,0,0,0a0,0,0,0,0,0,0s0,0,0,0S94.11,48.94,94.09,48.92Zm.26,0h0a0,0,0,0,0,0,0h0S94.35,48.91,94.35,48.89Zm.23.59s-.07,0-.1,0l-.08.06,0,0,.14-.06ZM95,50.57s0,0-.05,0,0,0,0,.05,0,0,0,0S95,50.58,95,50.57Zm.7.63,0-.05h0Zm.18,0s0,0,0,0a.05.05,0,0,0,0,0l0,0Zm.32.74,0,0,0,0Zm.13-.25s0,0,0,0,0,0,0,0h0S96.36,51.76,96.34,51.74Zm0,.23.05.05,0-.08Z" style="fill:#bd3d37"/></svg>