<svg xmlns="http://www.w3.org/2000/svg" viewBox="0 0 512 512"><path d="M432,32H80A48,48,0,0,0,32,80V432a48,48,0,0,0,48,48H432a48,48,0,0,0,48-48V80A48,48,0,0,0,432,32ZM159,384.5a20,20,0,1,1-34.6-20l14.3-24.7q24.15-7.35,39.6,11.4Zm138.9-53.9H116a20,20,0,0,1,0-40h51l65.4-113.2L211.9,142a20,20,0,1,1,34.6-20l8.9,15.4,8.9-15.4a20,20,0,0,1,34.6,20L213.1,290.6h62.1c20.2,0,31.5,23.7,22.7,40Zm98.1,0H367l19.6,33.9a20,20,0,0,1-34.6,20q-49.35-85.35-74-128.1c-16.7-29-4.8-58,7.1-67.8q19.65,34.05,58.9,102h52a20,20,0,0,1,0,40Z" style="fill:#d2d2d2"/></svg>