<svg xmlns="http://www.w3.org/2000/svg" viewBox="0 0 512 512"><path d="M69,110.25h96.21c6.71,0,11.93,4.07,11.18,10.59v10.58c0,5.7-6,10.58-11.93,10.58H68.27c-6.71,0-11.93-4.07-11.18-10.58V120.84C57.09,115.14,62.31,108.63,69,110.25Z" style="fill:#52aee9"/><path d="M66.13,190h141c5.28,0,9.8,5.59,9,10.38v11.17c0,5.59-5.28,10.38-9.8,10.38h-141c-5.28,0-9.8-5.59-9-10.38V201.2C56.33,195.62,60.1,189.23,66.13,190Z" style="fill:#52aee9"/><path d="M65.1,269.9h63.55c3.74,0,8.23,5.73,8.23,10.64v10.64c0,5.73-3.74,10.64-8.23,10.64H65.1c-4.49.82-8.22-4.91-8.22-9.82V281.36C56.88,274,59.87,269.9,65.1,269.9Z" style="fill:#52aee9"/><path d="M68.49,349.87h95.58c6.72,0,11.94,4.1,11.94,10.66V371.2c0,5.74-6,10.67-11.94,10.67H68.49c-6.72,0-11.94-4.11-11.94-10.67V360.53C57.29,354,61.77,349.87,68.49,349.87Z" style="fill:#52aee9"/><path d="M354.55,204.8,405.75,0l-192,307.2H329L277.75,512l192-307.2H354.55" style="fill:#f38f19"/></svg>