<svg xmlns="http://www.w3.org/2000/svg" viewBox="0 0 512 512"><path d="M315,247.86l-52.85,53a4.29,4.29,0,0,1-6.07,0l-52.86-53a4.29,4.29,0,0,1,0-6.07l2.53-2.54a4.3,4.3,0,0,1,6.08,0l41.21,41.43V169.29a4.3,4.3,0,0,1,4.29-4.29h3.57a4.3,4.3,0,0,1,4.28,4.29V280.68l41.22-41.39a4.29,4.29,0,0,1,6.07,0l2.53,2.53A4.25,4.25,0,0,1,315,247.86Zm12.68,72.85v-2.85a4.3,4.3,0,0,0-4.28-4.29H194.87a4.3,4.3,0,0,0-4.29,4.29v2.85a4.3,4.3,0,0,0,4.29,4.29H323.44A4.3,4.3,0,0,0,327.72,320.71Z" style="fill:#d2d2d2"/><path d="M256,16C123.42,16,16,123.42,16,256S123.42,496,256,496,496,388.58,496,256,388.58,16,256,16ZM465,256c0,114.87-93,209-209,209C141.13,465,47,372,47,256,47,141.13,140,47,256,47,370.87,47,465,140,465,256Z" style="fill:#d2d2d2"/></svg>