<svg id="Layer_1" xmlns="http://www.w3.org/2000/svg" xmlns:xlink="http://www.w3.org/1999/xlink" x="0px" y="0px"
	 viewBox="0 0 552 691" >
<style type="text/css">
	.st0{opacity:0.536;fill:#78AF9F;enable-background:new    ;}
	.st1{opacity:0.811;fill:#D36E2D;enable-background:new    ;}
	.st2{opacity:0.398;fill:#D36E2D;enable-background:new    ;}
	.st3{opacity:0.55;fill:#78AF9F;enable-background:new    ;}
	.st4{opacity:0.55;fill:#D36E2D;enable-background:new    ;}
	.st5{opacity:0.4;fill-rule:evenodd;clip-rule:evenodd;fill:#8A653B;fill-opacity:0.48;enable-background:new    ;}
	.st6{opacity:0.4;fill-rule:evenodd;clip-rule:evenodd;fill:#BC3D36;fill-opacity:0.48;enable-background:new    ;}
	.st7{opacity:0.4;fill-rule:evenodd;clip-rule:evenodd;fill:#589DF6;fill-opacity:0.48;enable-background:new    ;}
</style>
<circle class="st0" cx="190.5" cy="104.3" r="3.5"/>
<circle class="st1" cx="363.5" cy="550.3" r="2.5"/>
<circle class="st1" cx="1.5" cy="190.3" r="2.5"/>
<circle class="st2" cx="139" cy="480.8" r="4"/>
<circle class="st3" cx="325" cy="250.8" r="3"/>
<circle class="st4" cx="548" cy="37.8" r="3"/>
<path class="st5" d="M419.2,652.3c9.1,11.5,22.2,19.2,36.7,21.6c7.2,1.2,14.5,1.1,21.6-0.5c7.1-1.5,13.9-4.3,20.1-8.2
	c6.2-3.9,11.5-9,15.8-14.9c13.2-18.2,15.1-42.3,4.7-62.2c-3.3-6.5-7.8-12.4-13.3-17.2c-24.6-21.8-62.3-19.5-84.1,5.2
	c-13.6,15.3-18.3,36.6-12.5,56.2c0.4,1.2,0.7,2.4,0.9,3.6c0.2,0.9,0.1,1.3-0.1,1.4s-0.5-0.3-0.9-1c-0.6-1.1-1.1-2.3-1.4-3.5
	c-7.8-26.3,2.5-54.6,25.3-69.7c29.2-19.1,68.3-10.9,87.5,18.2l0,0c1,1.6,1.9,3.1,2.7,4.7c3.7,7,6.2,14.6,7.2,22.4
	c1,7.9,0.5,15.9-1.5,23.6c-8.1,32.6-40,53.5-73.1,47.8c-7.9-1.4-15.5-4.2-22.4-8.3c-6.8-4.1-12.9-9.5-17.8-15.8
	c-3-3.9-5.3-8.3-6.8-13c-0.3-1.2-0.5-2.4-0.6-3.7c0-0.9,0.2-1.5,0.5-1.6c0.3-0.1,0.8,0,1.4,0.6c0.8,0.8,1.6,1.7,2.2,2.7
	C413.7,644.7,416.3,648.6,419.2,652.3"/>
<path class="st6" d="M382.4,96.3c10.7,1.2,21.4-1.6,30.2-7.8c4.4-3.1,8.1-6.9,11-11.4c2.9-4.5,5-9.5,6.2-14.7
	c1.1-5.2,1.3-10.6,0.4-15.9s-2.7-10.4-5.4-15c-2.7-4.7-6.2-8.8-10.4-12.1c-4.2-3.4-9-5.9-14.1-7.6c-23-7.3-47.5,5.5-54.8,28.5
	c-6.3,19.9,2.4,41.5,20.7,51.5c1,0.6,1.8,1,2.3,1.3s0.7,0.6,0.7,0.7s-0.4,0.1-1,0c-0.9-0.3-1.7-0.6-2.5-1.1
	c-22.2-11.9-30.6-39.6-18.7-61.8c2.7-5,6.3-9.4,10.6-13.1c3.1-2.6,6.5-4.8,10.1-6.6c5.2-2.5,10.8-4,16.5-4.5
	c5.8-0.5,11.6,0.1,17.1,1.8c25,7.5,39.1,33.7,31.7,58.7c-3,10.1-9.3,18.9-17.9,24.9c-9.7,6.8-21.6,9.8-33.4,8.3
	c-3.6-0.4-7-1.5-10.2-3.2c-0.8-0.4-1.6-1-2.3-1.6c-0.5-0.5-0.7-0.8-0.6-1.1s0.4-0.4,1-0.4c0.9,0,1.7,0.1,2.6,0.3
	C375.5,95.3,379,95.9,382.4,96.3"/>
<path class="st7" d="M182.2,374.1c8.5,10.8,20.8,18,34.4,20.3c6.8,1.1,13.6,1,20.3-0.5c6.7-1.4,13-4,18.9-7.7
	c5.8-3.7,10.8-8.4,14.8-14c12.4-17.1,14.2-39.7,4.4-58.3c-3.1-6.1-7.3-11.6-12.5-16.1c-23.1-20.4-58.4-18.3-78.9,4.9
	c-12.8,14.3-17.2,34.3-11.7,52.7c0.4,1.1,0.7,2.3,0.8,3.4c0.2,0.8,0.1,1.2-0.1,1.3c-0.2,0.1-0.5-0.3-0.8-0.9c-0.6-1-1-2.2-1.3-3.3
	c-7.3-24.7,2.3-51.2,23.7-65.4c27.4-17.9,64.1-10.2,82.1,17.1l0,0c0.9,1.5,1.8,2.9,2.5,4.4c3.5,6.6,5.8,13.7,6.8,21
	c0.9,7.4,0.5,14.9-1.4,22.1c-7.6,30.6-37.5,50.2-68.6,44.8c-7.4-1.3-14.5-3.9-21-7.8c-6.4-3.8-12.1-8.9-16.7-14.8
	c-2.8-3.7-5-7.8-6.4-12.2c-0.3-1.1-0.5-2.3-0.6-3.5c0-0.8,0.2-1.4,0.5-1.5c0.3-0.1,0.8,0,1.3,0.6c0.8,0.8,1.5,1.6,2.1,2.5
	C177,367,179.5,370.7,182.2,374.1"/>
</svg>
