<svg id="Layer_1" xmlns="http://www.w3.org/2000/svg" xmlns:xlink="http://www.w3.org/1999/xlink" x="0px" y="0px"
	 viewBox="0 0 552 691" >
<style type="text/css">
	.st0{opacity:0.536;fill:#78AF9F;enable-background:new    ;}
	.st1{opacity:0.811;fill:#D36E2D;enable-background:new    ;}
	.st2{opacity:0.398;fill:#D36E2D;enable-background:new    ;}
	.st3{opacity:0.55;fill:#78AF9F;enable-background:new    ;}
	.st4{opacity:0.55;fill:#D36E2D;enable-background:new    ;}
	.st5{opacity:0.4;fill-rule:evenodd;clip-rule:evenodd;fill:#8A653B;fill-opacity:0.48;enable-background:new    ;}
	.st6{opacity:0.4;fill-rule:evenodd;clip-rule:evenodd;fill:#BC3D36;fill-opacity:0.48;enable-background:new    ;}
	.st7{opacity:0.4;fill-rule:evenodd;clip-rule:evenodd;fill:#589DF6;fill-opacity:0.48;enable-background:new    ;}
</style>
<circle class="st0" cx="360.5" cy="110.5" r="3.5"/>
<circle class="st1" cx="187.5" cy="556.5" r="2.5"/>
<circle class="st1" cx="549.5" cy="196.5" r="2.5"/>
<circle class="st2" cx="412" cy="487" r="4"/>
<circle class="st3" cx="226" cy="257" r="3"/>
<circle class="st4" cx="3" cy="44" r="3"/>
<path class="st5" d="M131.8,658.5c-9.1,11.5-22.2,19.2-36.7,21.6c-7.2,1.2-14.5,1.1-21.6-0.5c-7.1-1.5-13.9-4.3-20.1-8.2
	s-11.5-9-15.8-14.9c-13.2-18.2-15.1-42.3-4.7-62.2c3.3-6.5,7.8-12.4,13.3-17.2c24.6-21.8,62.3-19.5,84.1,5.2
	c13.6,15.3,18.3,36.6,12.5,56.2c-0.4,1.2-0.7,2.4-0.9,3.6c-0.2,0.9-0.1,1.3,0.1,1.4s0.5-0.3,0.9-1c0.6-1.1,1.1-2.3,1.4-3.5
	c7.8-26.3-2.5-54.6-25.3-69.7c-29.2-19.1-68.3-10.9-87.5,18.2l0,0c-1,1.6-1.9,3.1-2.7,4.7c-3.7,7-6.2,14.6-7.2,22.4
	c-1,7.9-0.5,15.9,1.5,23.6c8.1,32.6,40,53.5,73.1,47.8c7.9-1.4,15.5-4.2,22.4-8.3c6.8-4.1,12.9-9.5,17.8-15.8c3-3.9,5.3-8.3,6.8-13
	c0.3-1.2,0.5-2.4,0.6-3.7c0-0.9-0.2-1.5-0.5-1.6s-0.8,0-1.4,0.6c-0.8,0.8-1.6,1.7-2.2,2.7C137.3,650.9,134.7,654.8,131.8,658.5"/>
<path class="st6" d="M168.6,102.5c-10.7,1.2-21.4-1.6-30.2-7.8c-4.4-3.1-8.1-6.9-11-11.4c-2.9-4.5-5-9.5-6.2-14.7
	c-1.1-5.2-1.3-10.6-0.4-15.9s2.7-10.4,5.4-15c2.7-4.7,6.2-8.8,10.4-12.1c4.2-3.4,9-5.9,14.1-7.6c23-7.3,47.5,5.5,54.8,28.5
	c6.3,19.9-2.4,41.5-20.7,51.5c-1,0.6-1.8,1-2.3,1.3s-0.7,0.6-0.7,0.7s0.4,0.1,1,0c0.9-0.3,1.7-0.6,2.5-1.1
	C207.5,87,215.9,59.3,204,37.1c-2.7-5-6.3-9.4-10.6-13.1c-3.1-2.6-6.5-4.8-10.1-6.6c-5.2-2.5-10.8-4-16.5-4.5
	c-5.8-0.5-11.6,0.1-17.1,1.8c-25,7.5-39.1,33.7-31.7,58.7c3,10.1,9.3,18.9,17.9,24.9c9.7,6.8,21.6,9.8,33.4,8.3
	c3.6-0.4,7-1.5,10.2-3.2c0.8-0.4,1.6-1,2.3-1.6c0.5-0.5,0.7-0.8,0.6-1.1s-0.4-0.4-1-0.4c-0.9,0-1.7,0.1-2.6,0.3
	C175.5,101.5,172,102.1,168.6,102.5"/>
<path class="st7" d="M368.8,380.3c-8.5,10.8-20.8,18-34.4,20.3c-6.8,1.1-13.6,1-20.3-0.5c-6.7-1.4-13-4-18.9-7.7
	c-5.8-3.7-10.8-8.4-14.8-14c-12.4-17.1-14.2-39.7-4.4-58.3c3.1-6.1,7.3-11.6,12.5-16.1c23.1-20.4,58.4-18.3,78.9,4.9
	c12.8,14.3,17.2,34.3,11.7,52.7c-0.4,1.1-0.7,2.3-0.8,3.4c-0.2,0.8-0.1,1.2,0.1,1.3c0.2,0.1,0.5-0.3,0.8-0.9c0.6-1,1-2.2,1.3-3.3
	c7.3-24.7-2.3-51.2-23.7-65.4c-27.4-17.9-64.1-10.2-82.1,17.1l0,0c-0.9,1.5-1.8,2.9-2.5,4.4c-3.5,6.6-5.8,13.7-6.8,21
	c-0.9,7.4-0.5,14.9,1.4,22.1c7.6,30.6,37.5,50.2,68.6,44.8c7.4-1.3,14.5-3.9,21-7.8c6.4-3.8,12.1-8.9,16.7-14.8
	c2.8-3.7,5-7.8,6.4-12.2c0.3-1.1,0.5-2.3,0.6-3.5c0-0.8-0.2-1.4-0.5-1.5c-0.3-0.1-0.8,0-1.3,0.6c-0.8,0.8-1.5,1.6-2.1,2.5
	C374,373.2,371.5,376.9,368.8,380.3"/>
</svg>
