<svg xmlns="http://www.w3.org/2000/svg" viewBox="0 0 512 512"><path d="M456,42.67H56a40,40,0,0,0-40,40v240a40,40,0,0,0,40,40H216l-20,80H136a13.33,13.33,0,0,0,0,26.66H376a13.33,13.33,0,0,0,0-26.66H316l-20-80H456a40,40,0,0,0,40-40v-240A40,40,0,0,0,456,42.67Zm-232.5,400,13.33-53.34h38.34l13.33,53.34Zm245.83-120A13.37,13.37,0,0,1,456,336H56a13.37,13.37,0,0,1-13.33-13.33v-240A13.37,13.37,0,0,1,56,69.33H456a13.37,13.37,0,0,1,13.33,13.34Z" style="fill:#d2d2d2"/><rect x="195" y="145" width="120" height="20" rx="7.5" style="fill:#d2d2d2"/><rect x="195" y="185" width="120" height="20" rx="7.5" style="fill:#d2d2d2"/><rect x="195" y="225" width="120" height="20" rx="7.5" style="fill:#d2d2d2"/></svg>