<svg xmlns="http://www.w3.org/2000/svg" viewBox="0 0 512 512"><title>icon-twitter-white</title><path d="M459.4,151.7c.3,4.5.3,9.1.3,13.6,0,138.7-105.6,298.6-298.6,298.6A296,296,0,0,1,0,416.8a211.74,211.74,0,0,0,25.3,1.3,210.6,210.6,0,0,0,130.3-44.8,105.15,105.15,0,0,1-98.1-72.8,128.75,128.75,0,0,0,19.8,1.6,110.31,110.31,0,0,0,27.6-3.6,104.87,104.87,0,0,1-84.1-103v-1.3a104.9,104.9,0,0,0,47.4,13.3A105.14,105.14,0,0,1,35.7,67.1a298.28,298.28,0,0,0,216.4,110,120.21,120.21,0,0,1-2.6-24A105.06,105.06,0,0,1,431.1,81.3,205.67,205.67,0,0,0,497.7,56a104.74,104.74,0,0,1-46.1,57.8A211.74,211.74,0,0,0,512,97.6,226.91,226.91,0,0,1,459.4,151.7Z" style="fill:#fff"/></svg>