<svg xmlns="http://www.w3.org/2000/svg" viewBox="0 0 512 512"><path d="M349.3,52.3C328.3,35.5,292.9,0,256,0c-36.7,0-71.4,34.8-93.3,52.3-34.6,27.5-109.5,87.9-145.1,117A48,48,0,0,0,0,206.4V464a48,48,0,0,0,48,48H464a48,48,0,0,0,48-48V206.4a48,48,0,0,0-17.6-37.1C458.8,140.2,383.9,79.7,349.3,52.3ZM464,480H48a16,16,0,0,1-16-16V206.2a16,16,0,0,1,5.9-12.4C64.2,172.3,159.7,95.6,182.6,77.4,200.2,63.3,232.3,32,256,32s55.8,31.3,73.4,45.3c22.9,18.2,118.4,95,144.7,116.5a16,16,0,0,1,5.9,12.4V464a16,16,0,0,1-16,16Zm-8.8-216.3a12,12,0,0,1-1.8,16.9c-22.8,18.4-55.1,44.2-104.2,83.1-21,16.8-56.9,52.5-93.3,52.3-36.6.3-72.8-35.9-93.3-52.3-49-38.9-81.3-64.7-104.1-83.1a12,12,0,0,1-1.8-16.9l5-6.2a12,12,0,0,1,16.8-1.8c22.8,18.4,55,44.1,103.9,83,16.9,13.4,50.2,45.7,73.4,45.3,23.2.4,56.6-31.9,73.4-45.3,48.9-38.8,81.2-64.6,103.9-83a11.84,11.84,0,0,1,16.8,1.8Z" style="fill:#a9a9a9"/></svg>