<svg xmlns="http://www.w3.org/2000/svg" viewBox="0 0 512 512"><title>icon-instagram-gray</title><path d="M256.1,141A114.9,114.9,0,1,0,371,255.9h0A114.72,114.72,0,0,0,256.46,141Zm0,189.6a74.7,74.7,0,1,1,74.7-74.7h0a74.85,74.85,0,0,1-74.7,74.7ZM402.5,136.3a26.8,26.8,0,1,1-26.8-26.8h0a26.74,26.74,0,0,1,26.8,26.68Zm76.1,27.2c-1.7-35.9-9.9-67.7-36.2-93.9s-58-34.4-93.9-36.2c-37-2.1-147.9-2.1-184.9,0C127.8,35.1,96,43.3,69.7,69.5s-34.4,58-36.2,93.9c-2.1,37-2.1,147.9,0,184.9,1.7,35.9,9.9,67.7,36.2,93.9s58,34.4,93.9,36.2c37,2.1,147.9,2.1,184.9,0,35.9-1.7,67.7-9.9,93.9-36.2s34.4-58,36.2-93.9c2.1-37,2.1-147.8,0-184.8ZM430.8,388a75.63,75.63,0,0,1-42.6,42.6c-29.5,11.7-99.5,9-132.1,9s-102.7,2.6-132.1-9A75.63,75.63,0,0,1,81.4,388c-11.7-29.5-9-99.5-9-132.1s-2.6-102.7,9-132.1A75.63,75.63,0,0,1,124,81.2c29.5-11.7,99.5-9,132.1-9s102.7-2.6,132.1,9a75.63,75.63,0,0,1,42.6,42.6c11.7,29.5,9,99.5,9,132.1S442.5,358.6,430.8,388Z" style="fill:#a9a9a9"/></svg>