<svg xmlns="http://www.w3.org/2000/svg" viewBox="0 0 512 512"><path d="M440.3,203.5a53.23,53.23,0,0,0-37.9,15.9c-35.7-24.7-83.8-40.6-137.1-42.3L293,52.3l88.2,19.8a39.25,39.25,0,0,0,39.2,39.2,39.7,39.7,0,1,0,0-79.4h0c-15.4,0-28.7,9.3-35.3,22L287.7,32.3c-4.9-1.3-9.7,2.2-11,7.1L246.3,177c-52.9,2.2-100.5,18.1-136.3,42.8a53.12,53.12,0,0,0-38.4-16.3c-55.6,0-73.8,74.6-22.9,100.1a112.1,112.1,0,0,0-2.6,24.7c0,83.8,94.4,151.7,210.3,151.7,116.4,0,210.8-67.9,210.8-151.7a95.29,95.29,0,0,0-3.1-25.1c49.9-25.6,31.5-99.7-23.8-99.7ZM129.4,308.9a39.45,39.45,0,1,1,39.7,39.2A39.45,39.45,0,0,1,129.4,308.9Zm214.3,93.5c-36.4,36.4-139.1,36.4-175.5,0-4-3.5-4-9.7,0-13.7a9.61,9.61,0,0,1,13.2,0c27.8,28.5,120,29,149,0a9.61,9.61,0,0,1,13.2,0c4.1,4,4.1,10.2.1,13.7Zm-.8-54.2a39.51,39.51,0,1,1,.38,0Z"/></svg>