<svg xmlns="http://www.w3.org/2000/svg" viewBox="0 0 448 512"><path d="M296,432h16a8,8,0,0,0,8-8V152a8,8,0,0,0-8-8H296a8,8,0,0,0-8,8V424A8,8,0,0,0,296,432Zm-160,0h16a8,8,0,0,0,8-8V152a8,8,0,0,0-8-8H136a8,8,0,0,0-8,8V424A8,8,0,0,0,136,432ZM440,64H336L302.4,19.2A48,48,0,0,0,264,0H184a48,48,0,0,0-38.4,19.2L112,64H8a8,8,0,0,0-8,8V88a8,8,0,0,0,8,8H32V464a48,48,0,0,0,48,48H368a48,48,0,0,0,48-48h0V96h24a8,8,0,0,0,8-8V72A8,8,0,0,0,440,64ZM171.2,38.4A16.1,16.1,0,0,1,184,32h80a16.1,16.1,0,0,1,12.8,6.4L296,64H152ZM384,464a16,16,0,0,1-16,16H80a16,16,0,0,1-16-16V96H384ZM216,432h16a8,8,0,0,0,8-8V152a8,8,0,0,0-8-8H216a8,8,0,0,0-8,8V424A8,8,0,0,0,216,432Z" style="fill:#737373"/></svg>