<svg xmlns="http://www.w3.org/2000/svg" viewBox="0 0 496 512"><path d="M248,8C111,8,0,119,0,256S111,504,248,504,496,393,496,256,385,8,248,8ZM441.2,160H358.7c-9-44.4-24.1-82.2-43.2-109.1A217,217,0,0,1,441.2,160ZM336,256a472.35,472.35,0,0,1-4.3,64H164.3a478.7,478.7,0,0,1,0-128H331.7A472.35,472.35,0,0,1,336,256ZM248,40c26.9,0,61.4,44.1,78.1,120H169.9C186.6,84.1,221.1,40,248,40ZM180.5,50.9c-19,26.8-34.2,64.6-43.2,109.1H54.8A217,217,0,0,1,180.5,50.9ZM32,256a214.67,214.67,0,0,1,9.7-64h90.5a507.24,507.24,0,0,0-4.2,64,489.24,489.24,0,0,0,4.2,64H41.7A214.67,214.67,0,0,1,32,256Zm22.8,96h82.5c9,44.4,24.1,82.2,43.2,109.1A217,217,0,0,1,54.8,352ZM248,472c-26.9,0-61.4-44.1-78.1-120H326.1C309.4,427.9,274.9,472,248,472Zm67.5-10.9c19-26.8,34.2-64.6,43.2-109.1h82.5A217,217,0,0,1,315.5,461.1ZM363.8,320a507.24,507.24,0,0,0,4.2-64,489.24,489.24,0,0,0-4.2-64h90.5a216,216,0,0,1,0,128Z" style="fill:#c8c8c8"/></svg>