<svg xmlns="http://www.w3.org/2000/svg" viewBox="0 0 512 512"><path d="M181.85,383.12c0,1.8-2.08,3.25-4.7,3.25-3,.27-5.06-1.18-5.06-3.25,0-1.81,2.08-3.26,4.7-3.26C179.5,379.59,181.85,381,181.85,383.12Zm-28.1-4.07c-.63,1.81,1.18,3.89,3.89,4.43,2.35.9,5.06,0,5.6-1.81s-1.18-3.88-3.89-4.7c-2.34-.63-5,.28-5.6,2.08Zm39.93-1.53c-2.62.63-4.43,2.34-4.16,4.42.27,1.81,2.62,3,5.33,2.35s4.43-2.35,4.16-4.15S196.3,377.25,193.68,377.52ZM253.11,31.4C127.83,31.4,32,126.51,32,251.79,32,352,95.05,437.67,185.1,467.84c11.56,2.08,15.62-5.06,15.62-10.93,0-5.6-.27-36.49-.27-55.46,0,0-63.22,13.55-76.5-26.91,0,0-10.3-26.29-25.11-33.06,0,0-20.69-14.18,1.44-13.91,0,0,22.49,1.8,34.87,23.3,19.78,34.87,52.93,24.84,65.84,18.88,2.08-14.45,7.95-24.48,14.46-30.44C165,333.71,114,326.39,114,239.5c0-24.84,6.87-37.3,21.32-53.2-2.35-5.87-10-30.07,2.35-61.33C156.55,119.1,200,149.36,200,149.36a213.33,213.33,0,0,1,113.45,0S356.89,119,375.77,125c12.37,31.35,4.69,55.46,2.35,61.33,14.45,16,23.3,28.46,23.3,53.2,0,87.16-53.2,94.12-103.69,99.81,8.31,7.14,15.35,20.68,15.35,41.91,0,30.44-.27,68.1-.27,75.51,0,5.87,4.16,13,15.63,10.93C418.76,437.67,480,352,480,251.79,480,126.51,378.39,31.4,253.11,31.4ZM119.79,342.92c-1.17.91-.9,3,.64,4.7,1.44,1.44,3.52,2.08,4.69.9,1.18-.9.91-3-.63-4.69C123.05,342.38,121,341.75,119.79,342.92ZM110,335.61c-.63,1.17.27,2.62,2.08,3.52,1.44.9,3.25.63,3.88-.63s-.27-2.62-2.08-3.53C112.12,334.43,110.67,334.7,110,335.61Zm29.26,32.15c-1.44,1.18-.9,3.89,1.18,5.6,2.07,2.08,4.69,2.35,5.87.9,1.17-1.17.63-3.88-1.18-5.6-1.94-2.07-4.65-2.34-5.83-.9ZM129,354.48c-1.45.91-1.45,3.26,0,5.33s3.88,3,5.05,2.08c1.45-1.17,1.45-3.52,0-5.6-1.26-2.08-3.61-3-5.05-1.81Z" style="fill:#a9a9a9"/></svg>