<?xml version="1.0" encoding="utf-8"?>
<!-- Generator: Adobe Illustrator 23.0.1, SVG Export Plug-In . SVG Version: 6.00 Build 0)  -->
<svg version="1.1" id="Layer_1" focusable="false" xmlns="http://www.w3.org/2000/svg" xmlns:xlink="http://www.w3.org/1999/xlink"
	 x="0px" y="0px" viewBox="0 0 448 512" style="enable-background:new 0 0 448 512;" xml:space="preserve">
<style type="text/css">
	.st0{fill:#737373;}
</style>
<path class="st0" d="M267.4,64c11.4,0,20.6,9.2,20.6,20.6V256h117c7.1,0,10.7,8.6,5.7,13.7L238.6,442c-8,8-21.1,8-29.1,0L37.4,269.7
	c-5-5-1.5-13.7,5.7-13.7h117V84.6c0-11.4,9.2-20.6,20.6-20.6H267.4 M267.4,32h-86.9c-29,0-52.6,23.6-52.6,52.6V224H43
	c-35.5,0-53.5,43-28.3,68.3l172.1,172.3c20.6,20.6,53.8,20.6,74.4,0l172.1-172.3c25.1-25.1,7.4-68.3-28.3-68.3h-85V84.6
	C320,55.6,296.4,32,267.4,32z"/>
</svg>
