<svg xmlns="http://www.w3.org/2000/svg" viewBox="0 0 576 512"><path d="M569.4,231.6C513,135.9,407.8,72,288,72S63,136,6.6,231.6a47.75,47.75,0,0,0,0,48.7C63,376.1,168.2,440,288,440s225-64,281.4-159.6a48.4,48.4,0,0,0,0-48.8ZM416,228c0,68.5-57.3,124-128,124S160,296.5,160,228s57.3-124,128-124S416,159.5,416,228Zm125.8,36.1C489.8,352.3,393.9,408,288,408,181.7,408,85.9,351.9,34.2,264.1a15.71,15.71,0,0,1,0-16.2A292.74,292.74,0,0,1,161.9,132,153.24,153.24,0,0,0,128,228c0,85.8,71.2,156,160,156s160-70.2,160-156a152.65,152.65,0,0,0-33.9-96A292.28,292.28,0,0,1,541.8,247.9a16.17,16.17,0,0,1,0,16.2ZM224,224a63.33,63.33,0,0,1,7.5-30.1h0a26.4,26.4,0,1,0,26.4-26.4h0A64,64,0,1,1,224,224Z" style="fill:#cc7832"/></svg>