<svg id="Layer_1" focusable="false" xmlns="http://www.w3.org/2000/svg" xmlns:xlink="http://www.w3.org/1999/xlink"
	 x="0px" y="0px" viewBox="0 0 448 512" >
<style type="text/css">
	.st0{fill:#737373;}
</style>
<path class="st0" d="M296,432h16c4.4,0,8-3.6,8-8V152c0-4.4-3.6-8-8-8h-16c-4.4,0-8,3.6-8,8v272C288,428.4,291.6,432,296,432z
	 M136,432h16c4.4,0,8-3.6,8-8V152c0-4.4-3.6-8-8-8h-16c-4.4,0-8,3.6-8,8v272C128,428.4,131.6,432,136,432z M440,64H336l-33.6-44.8
	C293.3,7.1,279.1,0,264,0h-80c-15.1,0-29.3,7.1-38.4,19.2L112,64H8c-4.4,0-8,3.6-8,8v16c0,4.4,3.6,8,8,8h24v368
	c0,26.5,21.5,48,48,48l0,0h288c26.5,0,48-21.5,48-48l0,0V96h24c4.4,0,8-3.6,8-8V72C448,67.6,444.4,64,440,64z M171.2,38.4
	c3-4,7.8-6.4,12.8-6.4h80c5,0,9.8,2.4,12.8,6.4L296,64H152L171.2,38.4z M384,464c0,8.8-7.2,16-16,16H80c-8.8,0-16-7.2-16-16V96h320
	V464z M216,432h16c4.4,0,8-3.6,8-8V152c0-4.4-3.6-8-8-8h-16c-4.4,0-8,3.6-8,8v272C208,428.4,211.6,432,216,432z"/>
</svg>
