<?xml version="1.0" encoding="utf-8"?>
<!-- Generator: Adobe Illustrator 25.2.1, SVG Export Plug-In . SVG Version: 6.00 Build 0)  -->
<svg version="1.1" id="Layer_1" xmlns="http://www.w3.org/2000/svg" xmlns:xlink="http://www.w3.org/1999/xlink" x="0px" y="0px"
	 viewBox="0 0 1984.3 1984.3" style="enable-background:new 0 0 1984.3 1984.3;" xml:space="preserve">
<style type="text/css">
	.st0{fill:#E8F2FA;}
	.st1{fill:#FFFFFF;}
	.st2{fill:#E9F3FB;}
	.st3{opacity:0.39;}
	.st4{fill:#C6DAED;}
	.st5{fill:#F6F6FB;}
	.st6{clip-path:url(#SVGID_3_);}
	.st7{clip-path:url(#SVGID_4_);}
	.st8{fill:#B4B3D9;}
	.st9{fill:#5F64AC;}
	.st10{fill:#9493C6;}
	.st11{fill:none;}
	.st12{fill:#D07375;}
	.st13{fill:#E47D7F;}
	.st14{fill:#171337;}
	.st15{fill:#4A52A1;}
	.st16{fill:#E75A5B;}
	.st17{fill:#5F64AA;}
	.st18{fill:#F38977;}
	.st19{fill:#2C2A5B;}
	.st20{fill:#4248A1;}
	.st21{fill:#F8B07C;}
	.st22{fill:#C16C75;}
</style>
<path class="st0" d="M1738.9,1241.6c-0.2,0.4-0.4,0.8-0.6,1.3c-5.5,11.7-11.8,23-18.9,33.8c-0.6,0.8-1.1,1.7-1.7,2.5
	c-10.6,15.5-23.1,29.6-37.3,41.9c-1,0.9-2,1.7-3,2.5c-21,17.5-46.7,31.9-78.2,41.9c-2.8,0.9-5.6,1.7-8.4,2.5
	c-55.5,15.7-128.3,18-223.9,0c-0.6-0.1-1.2-0.2-1.9-0.3c-3.9-0.8-7.9-1.5-11.8-2.2c-177.5-31.5-370.4-15.6-547.3,0
	c-9.6,0.8-19.1,1.7-28.6,2.5c-128.7,11.3-247.9,21.2-345.1,10.5c-15.5-1.7-30.7-5.2-45.4-10.5h-14.4v-2.5h7.9
	c-52.6-21.2-94.8-64.9-126.6-122.6c-0.2-0.4-0.5-0.8-0.7-1.3L1738.9,1241.6z"/>
<path class="st1" d="M252.2,1240.3c0.2,0.4,0.5,0.8,0.7,1.3s0.5,0.8,0.7,1.3h1484.8c0.2-0.4,0.4-0.8,0.6-1.3s0.4-0.8,0.6-1.3H252.2z
	"/>
<rect x="1152.9" y="491.2" class="st2" width="157.6" height="238.6"/>
<path class="st1" d="M1153.9,728.8V492.2h-1v101.3h-1v137.4h157.6v-2h-155.6V728.8z M1153.9,728.8V594.4h-1v135.4h6.5v1h150v-2
	H1153.9z M1153.9,728.8V594.4h-1v135.4h6.5v1h150v-2H1153.9z M1153.9,728.8V594.4h-1v135.4h6.5v1h150v-2H1153.9z M1153.9,728.8v1
	h5.5v1h150v-2H1153.9z M1153.9,728.8v1h5.5v1h150v-2H1153.9z M1153.9,728.8v1h5.5v1h150v-2H1153.9z M1153.9,728.8v1h5.5v1h150v-2
	H1153.9z M1153.9,728.8v1h5.5v1h150v-2H1153.9z M1151.9,490.2v240.6h159.6V490.2L1151.9,490.2z M1309.4,728.8h-155.6V492.2h155.6
	V728.8z M1153.9,728.8v1h5.5v1h150v-2H1153.9z M1153.9,728.8v1h5.5v1h150v-2H1153.9z M1153.9,728.8v1h5.5v1h150v-2H1153.9z
	 M1153.9,728.8v1h5.5v1h150v-2H1153.9z M1153.9,728.8V594.4h-1v135.4h6.5v1h150v-2H1153.9z M1153.9,728.8V594.4h-1v135.4h6.5v1h150
	v-2H1153.9z M1153.9,728.8V594.4h-1v135.4h6.5v1h150v-2H1153.9z M1153.9,728.8V594.4h-1v135.4h6.5v1h150v-2H1153.9z"/>
<rect x="1093" y="593.4" class="st2" width="59.9" height="136.4"/>
<path class="st1" d="M1092,592.4v138.4h61.9V592.4H1092z M1151.9,728.8H1094V594.4h57.9V728.8z"/>
<rect x="1035.9" y="491.2" class="st2" width="117" height="102.3"/>
<path class="st1" d="M1036.9,592.4v2h115v-2H1036.9z M1036.9,592.4v2h55.1v-2H1036.9z M1036.9,592.4v2h55.1v-2H1036.9z
	 M1036.9,592.4v2h55.1v-2H1036.9z M1036.9,592.4v2h55.1v-2H1036.9z M1036.9,592.4v2h55.1v-2H1036.9z M1036.9,592.4v2h55.1v-2H1036.9
	z M1036.9,592.4v2h55.1v-2H1036.9z M1036.9,592.4v2h55.1v-2H1036.9z M1034.9,490.2v104.3h119V490.2H1034.9z M1151.9,592.4h-115
	V492.2h115V592.4z M1036.9,592.4v2h55.1v-2H1036.9z M1036.9,592.4v2h55.1v-2H1036.9z M1036.9,592.4v2h55.1v-2H1036.9z M1036.9,592.4
	v2h55.1v-2H1036.9z M1036.9,592.4v2h55.1v-2H1036.9z M1036.9,592.4v2h55.1v-2H1036.9z M1036.9,592.4v2h55.1v-2H1036.9z
	 M1036.9,592.4v2h55.1v-2H1036.9z"/>
<path class="st2" d="M1310.4,287v204.2h-122.5V325c0.3-0.1,0.7-0.3,1-0.4c23.7-9.7,47.1-18.5,70.8-25.5c1.3-0.4,2.7-0.8,4-1.2
	c15-4.4,30.3-8,45.7-10.7C1309.8,287.1,1310.1,287.1,1310.4,287z"/>
<path class="st1" d="M1188.9,490.2V324.6c-0.3,0.1-0.7,0.3-1,0.4s-0.7,0.3-1,0.4v166.7h122.5v-2h-120.5V490.2z M1188.9,490.2V324.6
	c-0.3,0.1-0.7,0.3-1,0.4s-0.7,0.3-1,0.4v166.7h122.5v-2h-120.5V490.2z M1188.9,490.2V324.6c-0.3,0.1-0.7,0.3-1,0.4s-0.7,0.3-1,0.4
	v166.7h122.5v-2h-120.5V490.2z M1310.4,287c-0.3,0-0.7,0.1-1,0.2v203h-120.5V324.6c-0.3,0.1-0.7,0.3-1,0.4s-0.7,0.3-1,0.4v166.7
	h124.5V286.8C1311.1,286.9,1310.8,286.9,1310.4,287z M1188.9,490.2V324.6c-0.3,0.1-0.7,0.3-1,0.4s-0.7,0.3-1,0.4v166.7h122.5v-2
	h-120.5V490.2z M1188.9,490.2V324.6c-0.3,0.1-0.7,0.3-1,0.4s-0.7,0.3-1,0.4v166.7h122.5v-2h-120.5V490.2z M1188.9,490.2V324.6
	c-0.3,0.1-0.7,0.3-1,0.4s-0.7,0.3-1,0.4v166.7h122.5v-2h-120.5V490.2z"/>
<path class="st2" d="M1187.9,325v166.2h-35V339.9c0.3-0.2,0.7-0.3,1-0.4c11.1-4.8,22.1-9.5,33-14
	C1187.2,325.3,1187.5,325.1,1187.9,325z"/>
<path class="st1" d="M1153.9,490.2v1h33v-1H1153.9z M1153.9,490.2v1h33v-1H1153.9z M1153.9,490.2v1h33v-1H1153.9z M1187.9,325
	c-0.3,0.1-0.7,0.3-1,0.4v164.7h-33V339.5c-0.3,0.2-0.7,0.3-1,0.4c-0.3,0.1-0.7,0.3-1,0.4v151.8h37V324.6
	C1188.6,324.7,1188.2,324.9,1187.9,325z M1153.9,490.2v1h33v-1H1153.9z M1153.9,490.2v1h33v-1H1153.9z M1153.9,490.2v1h33v-1H1153.9
	z M1153.9,490.2v1h33v-1H1153.9z"/>
<path class="st2" d="M1151.9,340.3c0.3-0.1,0.7-0.3,1-0.4v151.3h-152v-89.4c0.3-0.1,0.7-0.2,1-0.3
	C1055.9,383.3,1104.7,360.9,1151.9,340.3z"/>
<path class="st1" d="M1001.8,490.2v-13.1h-2v15.1h152v-2H1001.8z M1152.9,339.9c-0.3,0.1-0.7,0.3-1,0.4v149.8h-150v-88.7
	c-0.3,0.1-0.7,0.2-1,0.3s-0.7,0.2-1,0.3v90h154V339.5C1153.5,339.6,1153.2,339.7,1152.9,339.9L1152.9,339.9z"/>
<rect x="1000.8" y="491.2" class="st2" width="35" height="165.9"/>
<path class="st1" d="M999.8,490.2V658h37V490.2H999.8z M1034.9,656h-33V492.2h33V656z"/>
<rect x="1035.9" y="593.4" class="st2" width="57.1" height="136.4"/>
<path class="st1" d="M1034.9,592.4v138.4h59.1V592.4H1034.9z M1092,728.8h-55.1V594.4h55.1V728.8z"/>
<rect x="1000.8" y="657" class="st2" width="35" height="72.8"/>
<path class="st1" d="M999.8,656v74.8h37V656H999.8z M1034.9,728.8h-33V658h33V728.8z"/>
<rect x="1462.5" y="491.2" class="st2" width="157.6" height="238.6"/>
<path class="st1" d="M1463.5,728.8V492.2h-2v238.6h65.4v-2H1463.5z M1463.5,728.8V492.2h-2v238.6h65.4v-2H1463.5z M1463.5,728.8
	V492.2h-2v238.6h65.4v-2H1463.5z M1463.5,728.8V492.2h-2v238.6h65.4v-2H1463.5z M1463.5,728.8V492.2h-2v238.6h65.4v-2H1463.5z
	 M1463.5,728.8V492.2h-2v238.6h65.4v-2H1463.5z M1463.5,728.8V492.2h-2v238.6h65.4v-2H1463.5z M1463.5,728.8V492.2h-2v238.6h65.4v-2
	H1463.5z M1463.5,728.8V492.2h-2v238.6h65.4v-2H1463.5z M1461.5,490.2v240.6H1621V490.2L1461.5,490.2z M1619,728.8h-155.6V492.2
	H1619V728.8z M1463.5,728.8V492.2h-2v238.6h65.4v-2H1463.5z M1463.5,728.8V492.2h-2v238.6h65.4v-2H1463.5z M1463.5,728.8V492.2h-2
	v238.6h65.4v-2H1463.5z M1463.5,728.8V492.2h-2v238.6h65.4v-2H1463.5z M1463.5,728.8V492.2h-2v238.6h65.4v-2H1463.5z M1463.5,728.8
	V492.2h-2v238.6h65.4v-2H1463.5z M1463.5,728.8V492.2h-2v238.6h65.4v-2H1463.5z M1463.5,728.8V492.2h-2v238.6h65.4v-2H1463.5z"/>
<rect x="1402.6" y="593.4" class="st2" width="59.9" height="136.4"/>
<path class="st1" d="M1401.6,592.4v138.4h61.9V592.4H1401.6z M1461.5,728.8h-57.9V594.4h57.9V728.8z"/>
<rect x="1345.5" y="491.2" class="st2" width="117" height="102.3"/>
<path class="st1" d="M1346.4,592.4v2h55.1v-2H1346.4z M1346.4,592.4v2h55.1v-2H1346.4z M1346.4,592.4v1h55.1v-1H1346.4z
	 M1346.4,592.4v1h55.1v1h1v-1h58.9v-1H1346.4z M1346.4,592.4v1h55.1v1h1v-1h58.9v-1H1346.4z M1346.4,592.4v1h55.1v1h1v-1h58.9v-1
	H1346.4z M1346.4,592.4v1h55.1v1h1v-1h58.9v-1H1346.4z M1346.4,592.4v1h55.1v1h1v-1h58.9v-1H1346.4z M1346.4,592.4v1h55.1v1h1v-1
	h58.9v-1H1346.4z M1344.4,490.2v104.3h119V490.2H1344.4z M1461.5,592.4h-115V492.2h115V592.4z M1346.4,592.4v1h55.1v1h1v-1h58.9v-1
	H1346.4z M1346.4,592.4v1h55.1v1h1v-1h58.9v-1H1346.4z M1346.4,592.4v1h55.1v1h1v-1h58.9v-1H1346.4z M1346.4,592.4v1h55.1v1h1v-1
	h58.9v-1H1346.4z M1346.4,592.4v1h55.1v1h1v-1h58.9v-1H1346.4z M1346.4,592.4v1h55.1v-1H1346.4z M1346.4,592.4v1h55.1v-1H1346.4z
	 M1346.4,592.4v2h55.1v-2H1346.4z"/>
<path class="st2" d="M1620,333.1v158.1h-122.6V274c0.3,0,0.7,0.1,1,0.1c44.7,5.8,80.4,23.2,120.6,58.1
	C1619.4,332.5,1619.7,332.8,1620,333.1z"/>
<path class="st1" d="M1620.6,333.6c-0.2-0.2-0.4-0.3-0.6-0.5s-0.7-0.6-1-0.9v157.9h-120.6v-216c-0.3,0-0.7-0.1-1-0.1
	c-0.3-0.1-0.7-0.1-1-0.1v218.3H1621V334C1620.9,333.8,1620.7,333.7,1620.6,333.6z"/>
<rect x="1462.5" y="306.9" class="st2" width="35" height="184.3"/>
<path class="st1" d="M1461.5,305.9v186.3h37V305.9H1461.5z M1496.5,490.2h-33V307.9h33V490.2z"/>
<path class="st2" d="M1462.5,271.8v219.4h-152V287c0.3-0.1,0.7-0.1,1-0.2c2.9-0.5,5.8-1,8.8-1.4c58.2-8.4,103.3-13.9,141.2-13.7h1
	V271.8z"/>
<path class="st1" d="M1311.4,490.2v2h150v-2H1311.4z M1311.4,490.2v2h150v-2H1311.4z M1311.4,490.2v2h150v-2H1311.4z M1462.5,271.8
	h-1v218.4h-150V286.8c-0.3,0-0.7,0.1-1,0.2c-0.3,0-0.7,0.1-1,0.2v205h154V271.8L1462.5,271.8z M1311.4,490.2v2h150v-2H1311.4z
	 M1311.4,490.2v2h150v-2H1311.4z M1311.4,490.2v2h150v-2H1311.4z"/>
<path class="st2" d="M1497.5,274v32.9h-35v-35.1h1c11,0.1,22,0.8,33,2.1C1496.8,273.9,1497.2,273.9,1497.5,274z"/>
<path class="st1" d="M1497.5,274c-0.3-0.1-0.7-0.1-1-0.1v32h-33v-34.1h-2v36.1h37v-33.8C1498.2,274,1497.8,274,1497.5,274z"/>
<rect x="1310.4" y="491.2" class="st2" width="35" height="165.9"/>
<path class="st1" d="M1311.4,656v2h33v-2H1311.4z M1344.4,594.4V658h2v-63.6H1344.4z M1345.4,593.4V492.2h-1V658h2v-64.6H1345.4z
	 M1345.4,593.4V492.2h-1V658h2v-64.6H1345.4z M1345.4,593.4V492.2h-1V658h2v-64.6H1345.4z M1345.4,593.4V492.2h-1V658h2v-64.6
	H1345.4z M1345.4,593.4V492.2h-1V658h2v-64.6H1345.4z M1345.4,593.4V492.2h-1V658h2v-64.6H1345.4z M1345.4,593.4V492.2h-1V658h2
	v-64.6H1345.4z M1309.4,490.2V658h37V490.2H1309.4z M1344.4,656h-33V492.2h33V656z M1345.4,593.4V492.2h-1V658h2v-64.6H1345.4z
	 M1345.4,593.4V492.2h-1V658h2v-64.6H1345.4z M1345.4,593.4V492.2h-1V658h2v-64.6H1345.4z M1345.4,593.4V492.2h-1V658h2v-64.6
	H1345.4z M1345.4,593.4V492.2h-1V658h2v-64.6H1345.4z M1345.4,593.4V492.2h-1V658h2v-64.6H1345.4z M1345.4,593.4V492.2h-1V658h2
	v-64.6H1345.4z"/>
<rect x="1345.5" y="593.4" class="st2" width="57.1" height="136.4"/>
<path class="st1" d="M1401.6,594.4v134.4h1V594.4H1401.6z M1401.6,594.4v134.4h1V594.4H1401.6z M1346.4,593.4v1h55.1v-1H1346.4z
	 M1401.6,594.4v134.4h1V594.4H1401.6z M1346.4,593.4v1h55.1v-1H1346.4z M1344.4,592.4v138.4h59.1V592.4H1344.4z M1401.6,728.8h-55.1
	V594.4h55.1V728.8z M1346.4,593.4v1h55.1v-1H1346.4z M1401.6,594.4v134.4h1V594.4H1401.6z M1346.4,593.4v1h55.1v-1H1346.4z
	 M1401.6,594.4v134.4h1V594.4H1401.6z"/>
<rect x="1310.4" y="657" class="st2" width="35" height="72.8"/>
<path class="st1" d="M1311.4,728.8v1h33v-1H1311.4z M1344.4,658v70.8h-33v1h34V658H1344.4z M1344.4,658v70.8h-33v1h34V658H1344.4z
	 M1344.4,658v70.8h-33v1h34V658H1344.4z M1344.4,658v70.8h-33v1h34V658H1344.4z M1344.4,658v70.8h-33v1h34V658H1344.4z M1344.4,658
	v70.8h-33v1h34V658H1344.4z M1344.4,658v70.8h-33v1h34V658H1344.4z M1309.4,656v74.8h37V656H1309.4z M1344.4,728.8h-33V658h33V728.8
	z M1344.4,658v70.8h-33v1h34V658H1344.4z M1344.4,658v70.8h-33v1h34V658H1344.4z M1344.4,658v70.8h-33v1h34V658H1344.4z M1344.4,658
	v70.8h-33v1h34V658H1344.4z M1344.4,658v70.8h-33v1h34V658H1344.4z M1344.4,658v70.8h-33v1h34V658H1344.4z M1344.4,658v70.8h-33v1
	h34V658H1344.4z"/>
<rect x="1310.4" y="729.8" class="st2" width="157.6" height="238.6"/>
<path class="st1" d="M1434,967.4v1h33v-1H1434z M1311.4,728.8v1h-1v1h-1v71.8h1v164.8h1V730.8h90.1v-2H1311.4z M1345.4,728.8v1h-34
	v1h90.1v-2H1345.4z M1310.4,730.8v70.8h1v-70.8H1310.4z M1346.4,728.8v2h55.1v-2H1346.4z M1402.6,729.8v-1h-56.1v2h115v-1H1402.6z
	 M1402.6,729.8v-1h-56.1v2h115v-1H1402.6z M1402.6,729.8v-1h-56.1v2h115v-1H1402.6z M1402.6,729.8v-1h-56.1v2h115v-1H1402.6z
	 M1402.6,729.8v-1h-56.1v2h115v-1H1402.6z M1402.6,729.8v-1h-56.1v2h115v-1H1402.6z M1309.4,728.8v240.6H1469V728.8H1309.4z
	 M1467,967.4h-155.6V730.8H1467V967.4z M1402.6,729.8v-1h-56.1v2h115v-1H1402.6z M1402.6,729.8v-1h-56.1v2h115v-1H1402.6z
	 M1402.6,729.8v-1h-56.1v2h115v-1H1402.6z M1402.6,729.8v-1h-56.1v2h115v-1H1402.6z M1402.6,729.8v-1h-56.1v2h115v-1H1402.6z
	 M1402.6,729.8v-1h-56.1v2h115v-1H1402.6z M1345.4,728.8v1h-34v1h90.1v-2H1345.4z M1311.4,728.8v1h-1v1h-1v71.8h1v164.8h1V730.8
	h90.1v-2L1311.4,728.8z M1434,967.4v1h33v-1H1434z"/>
<rect x="1468" y="729.8" class="st2" width="59.9" height="136.4"/>
<path class="st1" d="M1467,728.8v138.4h61.9V728.8H1467z M1526.9,865.2H1469V730.8h57.9V865.2z"/>
<rect x="1468" y="866.2" class="st2" width="117" height="102.3"/>
<path class="st1" d="M1468,867.2v100.3h1V867.2H1468z M1468,867.2v100.3h1V867.2H1468z M1468,867.2v100.3h1V867.2H1468z M1468,867.2
	v100.3h1V867.2H1468z M1468,867.2v100.3h1V867.2H1468z M1468,867.2v100.3h1V867.2H1468z M1468,867.2v100.3h1V867.2H1468z
	 M1468,867.2v100.3h1V867.2H1468z M1467,865.2v104.3h119V865.2H1467z M1584,967.4h-115V867.2h115V967.4z M1468,867.2v100.3h1V867.2
	H1468z M1468,867.2v100.3h1V867.2H1468z M1468,867.2v100.3h1V867.2H1468z M1468,867.2v100.3h1V867.2H1468z M1468,867.2v100.3h1
	V867.2H1468z M1468,867.2v100.3h1V867.2H1468z M1468,867.2v100.3h1V867.2H1468z M1468,867.2v100.3h1V867.2H1468z"/>
<rect x="1310.4" y="968.4" class="st2" width="122.5" height="270"/>
<path class="st1" d="M1311.4,967.4v2H1432v-2H1311.4z M1311.4,967.4v2H1432v-2H1311.4z M1311.4,967.4v2H1432v-2H1311.4z
	 M1311.4,967.4v2H1432v-2H1311.4z M1311.4,967.4v2H1432v-2H1311.4z M1311.4,967.4v2H1432v-2H1311.4z M1311.4,967.4v2H1432v-2H1311.4
	z M1311.4,967.4v2H1432v-2H1311.4z M1311.4,967.4v2H1432v-2H1311.4z M1309.4,967.4v272H1434v-272H1309.4z M1432,1237.4h-120.6v-268
	H1432V1237.4z M1311.4,967.4v2H1432v-2H1311.4z M1311.4,967.4v2H1432v-2H1311.4z M1311.4,967.4v2H1432v-2H1311.4z M1311.4,967.4v2
	H1432v-2H1311.4z M1311.4,967.4v2H1432v-2H1311.4z M1311.4,967.4v2H1432v-2H1311.4z M1311.4,967.4v2H1432v-2H1311.4z M1311.4,967.4
	v2H1432v-2H1311.4z"/>
<rect x="1433" y="968.4" class="st2" width="35" height="184.3"/>
<path class="st1" d="M1432,967.4v186.3h37V967.4H1432z M1467,1151.7h-33V969.4h33V1151.7z"/>
<rect x="1468" y="968.4" class="st2" width="152" height="270"/>
<path class="st1" d="M1469,967.4v2h115v-2H1469z M1467,967.4v272h154v-272H1467z M1619,1237.4h-150v-268h150V1237.4z"/>
<rect x="1433" y="1152.7" class="st2" width="35" height="85.7"/>
<path class="st1" d="M1432,1151.7v87.7h37v-87.7H1432z M1467,1237.4h-33v-83.7h33V1237.4z"/>
<rect x="1585" y="802.6" class="st2" width="35" height="165.9"/>
<path class="st1" d="M1584,801.6v167.8h37V801.6H1584z M1619,967.4h-33V803.6h33V967.4z"/>
<rect x="1527.9" y="729.8" class="st2" width="57.1" height="136.4"/>
<path class="st1" d="M1526.9,728.8v138.4h59.1V728.8H1526.9z M1584,865.2h-55.1V730.8h55.1V865.2z"/>
<rect x="1585" y="729.8" class="st2" width="35" height="72.8"/>
<path class="st1" d="M1584,728.8v74.8h37v-74.8H1584z M1619,801.6h-33v-70.8h33V801.6z"/>
<rect x="1000.8" y="729.8" class="st2" width="157.6" height="238.6"/>
<path class="st1" d="M1157.4,730.8v236.6h2V730.8H1157.4z M1093,728.8v1h-56.1v1h115v-2H1093z M1151.9,729.8v-1H1093v1h-56.1v1
	h120.6v236.6h-33v2h34v-1h1V729.8H1151.9z M1151.9,729.8v-1H1093v1h-56.1v1h120.6v236.6h-33v2h34v-1h1V729.8H1151.9z M1151.9,729.8
	v-1H1093v1h-56.1v1h120.6v236.6h-33v2h34v-1h1V729.8H1151.9z M1151.9,729.8v-1H1093v1h-56.1v1h120.6v236.6h-33v2h34v-1h1V729.8
	H1151.9z M1151.9,729.8v-1H1093v1h-56.1v1h120.6v236.6h-33v2h34v-1h1V729.8H1151.9z M1151.9,729.8v-1H1093v1h-56.1v1h120.6v236.6
	h-33v2h34v-1h1V729.8H1151.9z M1151.9,729.8v-1H1093v1h-56.1v1h120.6v236.6h-33v2h34v-1h1V729.8H1151.9z M1151.9,729.8v-1H1093v1
	h-56.1v1h120.6v236.6h-33v2h34v-1h1V729.8H1151.9z M999.8,728.8v240.6h159.6V728.8H999.8z M1157.4,967.4h-155.6V730.8h155.6V967.4z
	 M1151.9,729.8v-1H1093v1h-56.1v1h120.6v236.6h-33v2h34v-1h1V729.8L1151.9,729.8z M1151.9,729.8v-1H1093v1h-56.1v1h120.6v236.6h-33
	v2h34v-1h1V729.8L1151.9,729.8z M1151.9,729.8v-1H1093v1h-56.1v1h120.6v236.6h-33v2h34v-1h1V729.8L1151.9,729.8z M1151.9,729.8v-1
	H1093v1h-56.1v1h120.6v236.6h-33v2h34v-1h1V729.8L1151.9,729.8z M1151.9,729.8v-1H1093v1h-56.1v1h120.6v236.6h-33v2h34v-1h1V729.8
	L1151.9,729.8z M1151.9,729.8v-1H1093v1h-56.1v1h120.6v236.6h-33v2h34v-1h1V729.8L1151.9,729.8z M1151.9,729.8v-1H1093v1h-56.1v1
	h120.6v236.6h-33v2h34v-1h1V729.8L1151.9,729.8z M1151.9,729.8v-1H1093v1h-56.1v1h120.6v236.6h-33v2h34v-1h1V729.8L1151.9,729.8z"/>
<rect x="1158.4" y="729.8" class="st2" width="59.9" height="136.4"/>
<path class="st1" d="M1157.4,728.8v138.4h61.9V728.8H1157.4z M1217.3,865.2h-57.9V730.8h57.9V865.2z"/>
<rect x="1158.4" y="866.2" class="st2" width="117" height="102.3"/>
<path class="st1" d="M1159.4,866.2v1h57.9v-1H1159.4z M1217.3,866.2v1h57.1v-1H1217.3z M1217.3,866.2v1h57.1v-1H1217.3z
	 M1217.3,866.2v1h57.1v-1H1217.3z M1217.3,866.2v1h57.1v-1H1217.3z M1217.3,866.2v1h57.1v-1H1217.3z M1217.3,866.2v1h57.1v-1H1217.3
	z M1217.3,866.2v1h57.1v-1H1217.3z M1217.3,866.2v1h57.1v-1H1217.3z M1157.4,865.2v104.3h119V865.2H1157.4z M1274.4,967.4h-115
	V867.2h115V967.4z M1217.3,866.2v1h57.1v-1H1217.3z M1217.3,866.2v1h57.1v-1H1217.3z M1217.3,866.2v1h57.1v-1H1217.3z M1217.3,866.2
	v1h57.1v-1H1217.3z M1217.3,866.2v1h57.1v-1H1217.3z M1217.3,866.2v1h57.1v-1H1217.3z M1217.3,866.2v1h57.1v-1H1217.3z
	 M1217.3,866.2v1h57.1v-1H1217.3z"/>
<rect x="1000.8" y="968.4" class="st2" width="122.5" height="270"/>
<path class="st1" d="M999.8,967.4v272h124.5v-272H999.8z M1122.4,1237.4h-120.5v-268h120.5V1237.4z"/>
<rect x="1123.4" y="968.4" class="st2" width="35" height="184.3"/>
<path class="st1" d="M1122.4,967.4v186.3h37V967.4H1122.4z M1157.4,1151.7h-33V969.4h33V1151.7z"/>
<rect x="1158.4" y="968.4" class="st2" width="152" height="270"/>
<path class="st1" d="M1159.4,967.4v2h150v-2H1159.4z M1159.4,967.4v2h150v-2H1159.4z M1159.4,967.4v2h150v-2H1159.4z M1159.4,967.4
	v2h150v-2H1159.4z M1159.4,967.4v2h150v-2H1159.4z M1159.4,967.4v2h150v-2H1159.4z M1159.4,967.4v2h150v-2H1159.4z M1159.4,967.4v2
	h150v-2H1159.4z M1159.4,967.4v2h150v-2H1159.4z M1157.4,967.4v272h154v-272H1157.4z M1309.4,1237.4h-150v-268h150V1237.4z
	 M1159.4,967.4v2h150v-2H1159.4z M1159.4,967.4v2h150v-2H1159.4z M1159.4,967.4v2h150v-2H1159.4z M1159.4,967.4v2h150v-2H1159.4z
	 M1159.4,967.4v2h150v-2H1159.4z M1159.4,967.4v2h150v-2H1159.4z M1159.4,967.4v2h150v-2H1159.4z M1159.4,967.4v2h150v-2H1159.4z"/>
<rect x="1123.4" y="1152.7" class="st2" width="35" height="85.7"/>
<path class="st1" d="M1122.4,1151.7v87.7h37v-87.7H1122.4z M1157.4,1237.4h-33v-83.7h33V1237.4z"/>
<rect x="1275.4" y="802.6" class="st2" width="35" height="165.9"/>
<path class="st1" d="M1275.4,803.6v61.6h-1v1h1v101.3h1V803.6H1275.4z M1275.4,803.6v61.6h-1v1h1v101.3h1V803.6H1275.4z
	 M1275.4,803.6v61.6h-1v1h1v101.3h1V803.6H1275.4z M1275.4,803.6v61.6h-1v1h1v101.3h1V803.6H1275.4z M1275.4,803.6v61.6h-1v1h1
	v101.3h1V803.6H1275.4z M1275.4,803.6v61.6h-1v1h1v101.3h1V803.6H1275.4z M1275.4,803.6v61.6h-1v1h1v101.3h1V803.6H1275.4z
	 M1275.4,803.6v61.6h-1v1h1v101.3h1V803.6H1275.4z M1274.4,801.6v167.8h37V801.6H1274.4z M1309.4,967.4h-33V803.6h33V967.4z
	 M1275.4,803.6v61.6h-1v1h1v101.3h1V803.6H1275.4z M1275.4,803.6v61.6h-1v1h1v101.3h1V803.6H1275.4z M1275.4,803.6v61.6h-1v1h1
	v101.3h1V803.6H1275.4z M1275.4,803.6v61.6h-1v1h1v101.3h1V803.6H1275.4z M1275.4,803.6v61.6h-1v1h1v101.3h1V803.6H1275.4z
	 M1275.4,803.6v61.6h-1v1h1v101.3h1V803.6H1275.4z M1275.4,803.6v61.6h-1v1h1v101.3h1V803.6H1275.4z M1275.4,803.6v61.6h1v-61.6
	H1275.4z"/>
<rect x="1218.3" y="729.8" class="st2" width="57.1" height="136.4"/>
<path class="st1" d="M1219.3,865.2v1h55.1v-1H1219.3z M1219.3,865.2v1h55.1v-1H1219.3z M1219.3,865.2v1h55.1v-1H1219.3z
	 M1219.3,865.2V730.8h-1v135.4h56.1v-1H1219.3z M1219.3,865.2V730.8h-1v135.4h56.1v-1H1219.3z M1219.3,865.2V730.8h-1v135.4h56.1v-1
	H1219.3z M1219.3,865.2V730.8h-1v135.4h56.1v-1H1219.3z M1219.3,865.2V730.8h-1v135.4h56.1v-1H1219.3z M1219.3,865.2V730.8h-1v135.4
	h56.1v-1H1219.3z M1217.3,728.8v138.4h59.1V728.8L1217.3,728.8z M1274.4,865.2h-55.1V730.8h55.1V865.2z M1219.3,865.2V730.8h-1
	v135.4h56.1v-1L1219.3,865.2z M1219.3,865.2V730.8h-1v135.4h56.1v-1L1219.3,865.2z M1219.3,865.2V730.8h-1v135.4h56.1v-1
	L1219.3,865.2z M1219.3,865.2V730.8h-1v135.4h56.1v-1L1219.3,865.2z M1219.3,865.2V730.8h-1v135.4h56.1v-1L1219.3,865.2z
	 M1219.3,865.2V730.8h-1v135.4h56.1v-1L1219.3,865.2z M1219.3,865.2v1h55.1v-1H1219.3z M1219.3,865.2v1h55.1v-1H1219.3z"/>
<rect x="1275.4" y="729.8" class="st2" width="35" height="72.8"/>
<path class="st1" d="M1274.4,728.8v74.8h37v-74.8H1274.4z M1309.4,801.6h-33v-70.8h33V801.6z"/>
<path class="st2" d="M1801.6,728.8c0,0.3,0.1,0.7,0.1,1h-28.1V569.6c0.3,1.1,0.7,2.3,1,3.4C1789.2,623.4,1797.7,676.5,1801.6,728.8z
	"/>
<path class="st1" d="M1801.7,729.8c0-0.3,0-0.7-0.1-1h-27V573c-0.3-1.1-0.7-2.3-1-3.4v23.8h-1v136.4h6.5v1h22.6
	C1801.8,730.5,1801.8,730.1,1801.7,729.8z M1801.7,729.8c0-0.3,0-0.7-0.1-1h-27V573c-0.3-1.1-0.7-2.3-1-3.4v24.8h-1v134.4h1v1h5.5v1
	h22.6C1801.8,730.5,1801.8,730.1,1801.7,729.8z M1801.7,729.8c0-0.3,0-0.7-0.1-1h-27V573c-0.3-1.1-0.7-2.3-1-3.4v24.8h-1v134.4h1v1
	h5.5v1h22.6C1801.8,730.5,1801.8,730.1,1801.7,729.8z M1801.7,729.8c0-0.3,0-0.7-0.1-1h-27V573c-0.3-1.1-0.7-2.3-1-3.4
	s-0.7-2.2-1-3.4v164.5h29.2C1801.8,730.5,1801.7,730.1,1801.7,729.8z M1801.7,729.8c0-0.3,0-0.7-0.1-1h-27V573
	c-0.3-1.1-0.7-2.3-1-3.4v24.8h-1v134.4h1v1h5.5v1h22.6C1801.8,730.5,1801.8,730.1,1801.7,729.8z M1801.7,729.8c0-0.3,0-0.7-0.1-1
	h-27V573c-0.3-1.1-0.7-2.3-1-3.4v24.8h-1v134.4h1v1h5.5v1h22.6C1801.8,730.5,1801.8,730.1,1801.7,729.8z M1801.7,729.8
	c0-0.3,0-0.7-0.1-1h-27V573c-0.3-1.1-0.7-2.3-1-3.4v24.8h-1v134.4h1v1h5.5v1h22.6C1801.8,730.5,1801.8,730.1,1801.7,729.8z"/>
<rect x="1713.7" y="593.4" class="st2" width="59.9" height="136.4"/>
<path class="st1" d="M1712.7,592.4v138.4h61.9V592.4H1712.7z M1772.6,728.8h-57.9V594.4h57.9V728.8z"/>
<path class="st2" d="M1772.6,566.3c-7.5-25.4-17-50.1-28.2-74.1c-0.2-0.3-0.3-0.7-0.5-1h-87.3v102.3h117v-23.8
	C1773.3,568.5,1773,567.4,1772.6,566.3z"/>
<path class="st1" d="M1714.7,592.4v2h57.9v-2H1714.7z M1714.7,592.4v2h57.9v-2H1714.7z M1714.7,592.4v2h57.9v-2H1714.7z
	 M1773.6,569.6c-0.3-1.1-0.7-2.2-1-3.4v26.2h-115V492.2h86.8c-0.2-0.3-0.3-0.7-0.5-1s-0.3-0.7-0.5-1h-87.9v104.3h119V573
	C1774.3,571.8,1774,570.7,1773.6,569.6L1773.6,569.6z M1714.7,592.4v2h57.9v-2H1714.7z M1714.7,592.4v2h57.9v-2H1714.7z
	 M1714.7,592.4v2h57.9v-2H1714.7z"/>
<path class="st2" d="M1743.5,490.2c0.2,0.3,0.3,0.7,0.5,1h-122.3V334.5c0.3,0.3,0.7,0.6,1,0.9c17.9,15.9,36.8,35.4,57.8,58.8
	C1706,422.6,1726.8,455.1,1743.5,490.2z"/>
<path class="st1" d="M1743.9,491.2c-0.2-0.3-0.3-0.7-0.5-1h-85.9v2h86.8C1744.3,491.8,1744.1,491.5,1743.9,491.2z M1743.9,491.2
	c-0.2-0.3-0.3-0.7-0.5-1h-85.9v2h86.8C1744.3,491.8,1744.1,491.5,1743.9,491.2z M1743.9,491.2c-0.2-0.3-0.3-0.7-0.5-1h-85.9v2h86.8
	C1744.3,491.8,1744.1,491.5,1743.9,491.2z M1743.9,491.2c-0.2-0.3-0.3-0.7-0.5-1h-120.9V335.4c-0.3-0.3-0.7-0.6-1-0.9
	s-0.4-0.3-0.6-0.5s-0.3-0.2-0.4-0.4v158.6h123.8C1744.3,491.8,1744.1,491.5,1743.9,491.2z M1743.9,491.2c-0.2-0.3-0.3-0.7-0.5-1
	h-85.9v2h86.8C1744.3,491.8,1744.1,491.5,1743.9,491.2z M1743.9,491.2c-0.2-0.3-0.3-0.7-0.5-1h-85.9v2h86.8
	C1744.3,491.8,1744.1,491.5,1743.9,491.2z M1743.9,491.2c-0.2-0.3-0.3-0.7-0.5-1h-85.9v2h86.8
	C1744.3,491.8,1744.1,491.5,1743.9,491.2z"/>
<rect x="1621.6" y="491.2" class="st2" width="35" height="165.9"/>
<path class="st1" d="M1620.6,490.2V658h37V490.2H1620.6z M1655.6,656h-33V492.2h33V656z"/>
<rect x="1656.6" y="593.4" class="st2" width="57.1" height="136.4"/>
<path class="st1" d="M1656.6,658v70.8h1V658H1656.6z M1656.6,658v70.8h1V658H1656.6z M1655.6,592.4v138.4h59.1V592.4H1655.6z
	 M1712.7,728.8h-55.1V594.4h55.1V728.8z M1656.6,658v70.8h1V658H1656.6z M1656.6,658v70.8h1V658H1656.6z"/>
<rect x="1621.6" y="657" class="st2" width="35" height="72.8"/>
<path class="st1" d="M1620.6,656v74.8h37V656H1620.6z M1655.6,728.8h-33V658h33V728.8z"/>
<rect x="1621.6" y="729.8" class="st2" width="157.6" height="238.6"/>
<path class="st1" d="M1779.2,730.8v-1h-4.5v1h3.5v236.6h2V730.8H1779.2z M1779.2,730.8v-1h-4.5v1h3.5v236.6h-33v2h34v-1h1V730.8
	H1779.2z M1779.2,730.8v-1h-4.5v1h3.5v236.6h-33v2h34v-1h1V730.8H1779.2z M1745.1,967.4v1h33v-1H1745.1z M1745.1,967.4v1h33v-1
	H1745.1z M1745.1,967.4v1h33v-1H1745.1z M1745.1,967.4v1h33v-1H1745.1z M1745.1,967.4v1h33v-1H1745.1z M1745.1,967.4v1h33v-1H1745.1
	z M1620.6,728.8v240.6h159.6V728.8H1620.6z M1778.2,967.4h-155.6V730.8h155.6V967.4z M1745.1,967.4v1h33v-1H1745.1z M1745.1,967.4v1
	h33v-1H1745.1z M1745.1,967.4v1h33v-1H1745.1z M1745.1,967.4v1h33v-1H1745.1z M1745.1,967.4v1h33v-1H1745.1z M1779.2,730.8v-1h-4.5
	v1h3.5v236.6h-33v2h34v-1h1V730.8L1779.2,730.8z M1779.2,730.8v-1h-4.5v1h3.5v236.6h-33v2h34v-1h1V730.8L1779.2,730.8z
	 M1779.2,730.8v-1h-4.5v1h3.5v236.6h-33v2h34v-1h1V730.8L1779.2,730.8z"/>
<path class="st2" d="M1801.8,730.8c3.2,44.7,3.6,89.6,1.1,134.4c0,0.3,0,0.7-0.1,1h-23.7V729.8h22.6
	C1801.7,730.1,1801.8,730.5,1801.8,730.8z"/>
<path class="st2" d="M1802.8,866.2c0,0.3,0,0.7-0.1,1c-2,35.9-5.6,69.8-10.2,100.3c0,0.3-0.1,0.7-0.1,1h-13.3V866.2H1802.8z"/>
<path class="st1" d="M1778.2,865.2v104.3h14.2c0-0.3,0.1-0.7,0.1-1c0.1-0.3,0.1-0.7,0.1-1h-12.4V867.2h22.6c0-0.3,0-0.7,0.1-1v-1
	H1778.2z"/>
<path class="st2" d="M1744.1,968.4v261.1c-0.3,0.8-0.7,1.6-1,2.4v0.2h-0.1c-0.4,0.8-0.7,1.7-1.1,2.5l-1.2,2.7
	c-0.2,0.3-0.3,0.7-0.5,1h-118.8v-270h122.7V968.4z"/>
<path class="st1" d="M1743.1,969.4v182.3h2V969.4H1743.1z M1743.1,1143.3v8.4h2v-8.4H1743.1z M1743.1,1143.3v8.4h2v-8.4H1743.1z
	 M1743.1,1143.3v8.4h1v-8.4H1743.1z M1743.1,1143.3v8.4h1v-8.4H1743.1z M1743.1,1143.3v8.4h1v-8.4H1743.1z M1743.1,1143.3v8.4h1
	v-8.4H1743.1z M1743.1,1143.3v8.4h1v-8.4H1743.1z M1743.1,1143.3v8.4h1v-8.4H1743.1z M1620.6,967.4v272h119.3c0.2-0.3,0.3-0.7,0.4-1
	c0.2-0.3,0.3-0.7,0.5-1h-118.2v-268h120.5V1232c0.3-0.8,0.7-1.6,1-2.4s0.7-1.6,1-2.4V967.4H1620.6z M1743.1,1143.3v8.4h1v-8.4
	H1743.1z M1743.1,1143.3v8.4h1v-8.4H1743.1z M1743.1,1143.3v8.4h1v-8.4H1743.1z M1743.1,1143.3v8.4h1v-8.4H1743.1z M1743.1,1143.3
	v8.4h1v-8.4H1743.1z M1743.1,1143.3v8.4h2v-8.4H1743.1z M1743.1,1143.3v8.4h2v-8.4H1743.1z M1743.1,1143.3v8.4h2v-8.4H1743.1z"/>
<path class="st2" d="M1779.2,968.4v89.3c-0.3,3.2-0.7,6.4-1,9.8c-2.4,23.2-5.2,49.1-10,75.8c-0.1,0.8-0.3,1.7-0.4,2.5
	c-0.3,1.9-0.7,3.9-1.1,5.9c-0.1,0.3-0.1,0.7-0.2,1h-22.3V968.4H1779.2z"/>
<path class="st1" d="M1745.1,968.4v1h33v-1H1745.1z M1744.1,969.4v173.9h1V969.4H1744.1z M1745.1,968.4v1h33v-1H1745.1z
	 M1744.1,969.4v173.9h1V969.4H1744.1z M1745.1,968.4v1h33v-1H1745.1z M1744.1,969.4v173.9h1V969.4H1744.1z M1745.1,968.4v1h33v-1
	H1745.1z M1744.1,969.4v173.9h1V969.4H1744.1z M1745.1,968.4v1h33v-1H1745.1z M1744.1,969.4v173.9h1V969.4H1744.1z M1745.1,968.4v1
	h33v-1H1745.1z M1744.1,1143.3h1V969.4h-1V1143.3z M1743.1,967.4v186.3h23.1c0.1-0.3,0.1-0.7,0.2-1s0.1-0.7,0.2-1h-21.5V969.4h33v98
	c0.3-3.3,0.7-6.6,1-9.8s0.7-6.4,1-9.5v-80.8h-37L1743.1,967.4z M1744.1,969.4v173.9h1V969.4H1744.1z M1745.1,968.4v1h33v-1H1745.1z
	 M1744.1,969.4v173.9h1V969.4H1744.1z M1745.1,968.4v1h33v-1H1745.1z M1744.1,969.4v173.9h1V969.4H1744.1z M1745.1,968.4v1h33v-1
	H1745.1z M1744.1,969.4v173.9h1V969.4H1744.1z M1745.1,968.4v1h33v-1H1745.1z M1744.1,969.4v173.9h1V969.4H1744.1z M1745.1,968.4v1
	h33v-1H1745.1z"/>
<path class="st2" d="M1792.5,968.4c0,0.3-0.1,0.7-0.1,1c-2.1,13.8-4.4,27-6.8,39.3c-2.2,11.2-3.8,24.5-5.4,39.5
	c-0.3,3.1-0.7,6.3-1,9.5v-89.3H1792.5z"/>
<path class="st1" d="M1780.2,967.4v2h12.2c0-0.3,0.1-0.7,0.1-1c0.1-0.3,0.1-0.7,0.1-1H1780.2z M1780.2,967.4v2h12.2
	c0-0.3,0.1-0.7,0.1-1c0.1-0.3,0.1-0.7,0.1-1H1780.2z M1780.2,967.4v2h12.2c0-0.3,0.1-0.7,0.1-1c0.1-0.3,0.1-0.7,0.1-1H1780.2z
	 M1778.2,967.4v100c0.3-3.3,0.7-6.6,1-9.8s0.7-6.4,1-9.5v-78.8h12.2c0-0.3,0.1-0.7,0.1-1c0.1-0.3,0.1-0.7,0.1-1h-14.4L1778.2,967.4z
	 M1780.2,967.4v2h12.2c0-0.3,0.1-0.7,0.1-1c0.1-0.3,0.1-0.7,0.1-1H1780.2z M1780.2,967.4v2h12.2c0-0.3,0.1-0.7,0.1-1
	c0.1-0.3,0.1-0.7,0.1-1H1780.2z M1780.2,967.4v2h12.2c0-0.3,0.1-0.7,0.1-1c0.1-0.3,0.1-0.7,0.1-1H1780.2z"/>
<path class="st2" d="M1766.4,1152.7c-0.1,0.3-0.1,0.7-0.2,1c-2.2,11.3-4.8,22.7-8,34c-0.2,0.8-0.4,1.7-0.7,2.5
	c-3.5,12.5-7.7,24.8-12.5,36.9c-0.3,0.8-0.7,1.6-1,2.4v-76.8H1766.4z"/>
<path class="st1" d="M1743.1,1151.7v80.3c0.3-0.8,0.7-1.6,1-2.4s0.7-1.6,1-2.4v-73.4h21.1c0.1-0.3,0.1-0.7,0.2-1s0.1-0.7,0.2-1
	L1743.1,1151.7L1743.1,1151.7z"/>
<path class="st2" d="M374.8,491.2v238.6H217.2v-79.9c0.3-1,0.7-2.1,1-3.1c19-59.1,45-112.2,78-154.6c0.2-0.4,0.5-0.7,0.8-1
	L374.8,491.2z"/>
<path class="st1" d="M218.2,728.8v-82.1c-0.3,1-0.7,2.1-1,3.1s-0.7,2.1-1,3.2v76.8h6.5v1h116v-2H218.2z M218.2,728.8v-82.1
	c-0.3,1-0.7,2.1-1,3.1s-0.7,2.1-1,3.2v75.8h1v1h6.5v1h57.9v-2H218.2z M297.8,490.2c-0.3,0.3-0.5,0.7-0.8,1s-0.5,0.7-0.8,1h77.6
	v236.6H218.2v-82.1c-0.3,1-0.7,2.1-1,3.1s-0.7,2.1-1,3.2v77.8h159.6V490.2L297.8,490.2z M218.2,728.8v-82.1c-0.3,1-0.7,2.1-1,3.1
	s-0.7,2.1-1,3.2v75.8h1v1h6.5v1h57.9v-2H218.2z M218.2,728.8v-82.1c-0.3,1-0.7,2.1-1,3.1s-0.7,2.1-1,3.2v75.8h1v1h6.5v1h57.9v-2
	H218.2z"/>
<path class="st2" d="M217.2,649.9v79.9h-20.4c0.1-0.3,0.1-0.7,0.2-1c5.1-25.6,11.5-50.9,19.2-75.8
	C216.6,652,216.9,650.9,217.2,649.9z"/>
<path class="st1" d="M217.2,649.9c-0.3,1.1-0.7,2.1-1,3.2v75.8H197c-0.1,0.3-0.1,0.7-0.2,1s-0.1,0.7-0.2,1h21.6v-84.1
	C217.9,647.8,217.6,648.8,217.2,649.9z"/>
<path class="st2" d="M374.8,421.4v69.8H297c0.3-0.3,0.5-0.7,0.8-1c21.9-27.7,46.8-50.7,74.8-67.5c0.3-0.2,0.7-0.4,1-0.6
	c0.1,0,0.1-0.1,0.2-0.1c0.3-0.2,0.5-0.3,0.8-0.5C374.7,421.4,374.7,421.4,374.8,421.4z"/>
<path class="st1" d="M373.8,477.1v13.1h-76c-0.3,0.3-0.5,0.7-0.8,1s-0.5,0.7-0.8,1h79.6v-15.1H373.8z M374.8,421.4
	c-0.1,0-0.1,0.1-0.2,0.1c-0.3,0.2-0.5,0.3-0.8,0.5v68.2h-76c-0.3,0.3-0.5,0.7-0.8,1s-0.5,0.7-0.8,1h79.6v-71.4
	C375.5,421,375.1,421.2,374.8,421.4z"/>
<path class="st2" d="M222.7,729.8v238.6h-41c0-0.3,0-0.7-0.1-1c-5.1-78.8-0.1-160.4,14.9-236.6c0.1-0.3,0.1-0.7,0.2-1L222.7,729.8z"
	/>
<path class="st1" d="M217.2,729.8v-1H197c-0.1,0.3-0.1,0.7-0.2,1s-0.1,0.7-0.2,1h25.1v236.6h2V729.8H217.2z M217.2,729.8v-1H197
	c-0.1,0.3-0.1,0.7-0.2,1s-0.1,0.7-0.2,1h25.1v236.6h-33v1h34v-1h1V729.8H217.2z M197.1,728.8c-0.1,0.3-0.1,0.7-0.2,1s-0.1,0.7-0.2,1
	h25.1v236.6h-40c0,0.3,0,0.7,0.1,1c0,0.3,0,0.7,0.1,1h41.9V728.8H197.1z M217.2,729.8v-1H197c-0.1,0.3-0.1,0.7-0.2,1s-0.1,0.7-0.2,1
	h25.1v236.6h-33v1h34v-1h1V729.8H217.2z M217.2,729.8v-1H197c-0.1,0.3-0.1,0.7-0.2,1s-0.1,0.7-0.2,1h25.1v236.6h-33v1h34v-1h1V729.8
	H217.2z"/>
<rect x="222.8" y="729.8" class="st2" width="59.9" height="136.4"/>
<path class="st1" d="M221.7,728.8v138.4h61.9V728.8H221.7z M281.6,865.2h-57.9V730.8h57.9V865.2z M281.6,730.8v134.4h-57.9v2h57.9
	v-1h1V730.8L281.6,730.8z"/>
<rect x="222.8" y="866.2" class="st2" width="117" height="102.3"/>
<path class="st1" d="M223.7,865.2v2h57.9v-1h1v-1H223.7z M338.8,867.2v100.3h1V867.2H338.8z M338.8,867.2v100.3h1V867.2H338.8z
	 M338.8,867.2v100.3h1V867.2H338.8z M338.8,867.2v100.3h1V867.2H338.8z M338.8,867.2v100.3h1V867.2H338.8z M338.8,867.2v100.3h1
	V867.2H338.8z M221.7,865.2v104.3h119V865.2H221.7z M338.8,967.4h-115V867.2h115V967.4z M338.8,867.2v100.3h1V867.2H338.8z
	 M338.8,867.2v100.3h1V867.2H338.8z M338.8,867.2v100.3h1V867.2H338.8z M338.8,867.2v100.3h1V867.2H338.8z M338.8,867.2v100.3h1
	V867.2H338.8z M338.8,867.2v100.3h1V867.2H338.8z"/>
<path class="st2" d="M187.7,968.4v59.6c-0.3-2.5-0.7-5.1-1-7.7c-2.1-16.8-3.8-33.8-4.9-50.9c0-0.3,0-0.7-0.1-1L187.7,968.4z"/>
<path class="st1" d="M181.7,967.4c0,0.3,0,0.7,0.1,1c0,0.3,0,0.7,0.1,1h4.9v-2H181.7z M181.7,967.4c0,0.3,0,0.7,0.1,1
	c0,0.3,0,0.7,0.1,1h4.9v50.9c0.3,2.6,0.7,5.1,1,7.7c0.3,2.4,0.7,4.8,1,7.2v-67.8H181.7z"/>
<path class="st2" d="M222.7,968.4v184.3h-7.4c-0.1-0.3-0.2-0.7-0.3-1c-11.9-38.1-20.7-77-26.3-116.5c-0.3-2.4-0.7-4.8-1-7.2v-59.6
	H222.7z"/>
<path class="st1" d="M186.7,967.4v52.9c0.3,2.6,0.7,5.1,1,7.7c0.3,2.4,0.7,4.8,1,7.2v-65.8h33v182.3H215c0.1,0.3,0.2,0.7,0.3,1
	s0.2,0.7,0.3,1h8.1V967.4H186.7z"/>
<path class="st2" d="M374.8,968.4v270H251.1c-0.2-0.3-0.4-0.6-0.5-1c-10.3-19.5-19.3-39.6-26.9-60.3c-0.3-0.9-0.7-1.8-1-2.7v-206
	H374.8z"/>
<path class="st1" d="M223.7,967.4v2h150v261.2h1v-42.9h1V967.4H223.7z M372.3,968.4v-1H223.7v2h150v218.3h1V968.4H372.3z
	 M372.3,968.4v-1H223.7v2h150v218.3h1V968.4H372.3z M372.3,968.4v-1H223.7v2h150v218.3h1V968.4H372.3z M372.3,968.4v-1H223.7v2h150
	v218.3h1V968.4H372.3z M221.7,967.4v204.2c0.3,0.9,0.7,1.9,1,2.8s0.7,1.8,1,2.7V969.4h150v268H250.6c0.2,0.3,0.4,0.6,0.5,1
	c0.2,0.3,0.4,0.6,0.5,1h124.1v-272H221.7z M372.3,968.4v-1H223.7v2h150v218.3h1V968.4H372.3z M372.3,968.4v-1H223.7v2h150v218.3h1
	V968.4H372.3z M372.3,968.4v-1H223.7v2h150v218.3h1V968.4H372.3z M372.3,968.4v-1H223.7v2h150v218.3h1V968.4H372.3z M372.3,968.4v-1
	H223.7v2h150v218.3h1V968.4H372.3z"/>
<path class="st2" d="M222.7,1152.7v21.7c-0.3-0.9-0.7-1.9-1-2.8c-2.1-5.9-4.2-11.9-6.1-17.9c-0.1-0.3-0.2-0.7-0.3-1L222.7,1152.7z"
	/>
<path class="st1" d="M215,1151.7c0.1,0.3,0.2,0.7,0.3,1s0.2,0.7,0.3,1h6.1v17.9c0.3,0.9,0.7,1.9,1,2.8s0.7,1.8,1,2.7v-25.4H215z"/>
<rect x="339.8" y="802.6" class="st2" width="35" height="165.9"/>
<path class="st1" d="M338.8,803.6v62.6h1v101.3h1V803.6H338.8z M339.8,803.6v163.8h1V803.6H339.8z M339.8,803.6v163.8h1V803.6H339.8
	z M339.8,803.6v163.8h1V803.6H339.8z M339.8,803.6v163.8h1V803.6H339.8z M339.8,803.6v163.8h1V803.6H339.8z M339.8,803.6v163.8h1
	V803.6H339.8z M339.8,803.6v163.8h1V803.6H339.8z M338.8,801.6v167.8h37V801.6H338.8z M373.8,967.4h-33V803.6h33V967.4z
	 M339.8,803.6v163.8h1V803.6H339.8z M339.8,803.6v163.8h1V803.6H339.8z M339.8,803.6v163.8h1V803.6H339.8z M339.8,803.6v163.8h1
	V803.6H339.8z M339.8,803.6v163.8h1V803.6H339.8z M339.8,803.6v163.8h1V803.6H339.8z M338.8,803.6v62.6h1v101.3h1V803.6H338.8z
	 M338.8,803.6v62.6h1v101.3h1V803.6H338.8z"/>
<rect x="282.6" y="729.8" class="st2" width="57.1" height="136.4"/>
<path class="st1" d="M282.6,730.8v134.4h1V730.8H282.6z M338.8,866.2v-1h-56.1v1h-1v1h58.1v-1H338.8z M338.8,866.2v-1h-56.1v1h-1v1
	h58.1v-1H338.8z M338.8,866.2v-1h-56.1v1h-1v1h58.1v-1H338.8z M338.8,866.2v-1h-56.1v1h-1v1h58.1v-1H338.8z M338.8,866.2v-1h-56.1v1
	h-1v1h58.1v-1H338.8z M338.8,866.2v-1h-56.1v1h-1v1h58.1v-1H338.8z M338.8,866.2v-1h-56.1v1h-1v1h58.1v-1H338.8z M281.6,728.8v138.4
	h59.1V728.8H281.6z M338.8,865.2h-55.1V730.8h55.1V865.2z M338.8,866.2v-1h-56.1v1h-1v1h58.1v-1H338.8z M338.8,866.2v-1h-56.1v1h-1
	v1h58.1v-1H338.8z M338.8,866.2v-1h-56.1v1h-1v1h58.1v-1H338.8z M338.8,866.2v-1h-56.1v1h-1v1h58.1v-1H338.8z M338.8,866.2v-1h-56.1
	v1h-1v1h58.1v-1H338.8z M338.8,866.2v-1h-56.1v1h-1v1h58.1v-1H338.8z M338.8,866.2v-1h-55.1V730.8h-1v135.4h-1v1h58.1v-1
	L338.8,866.2z"/>
<rect x="339.8" y="729.8" class="st2" width="35" height="72.8"/>
<path class="st1" d="M338.8,728.8v74.8h37v-74.8H338.8z M373.8,801.6h-33v-70.8h33V801.6z"/>
<path class="st2" d="M810.4,437.2h1v38.9H687.2v-46.2c0.3,0,0.7,0.1,1,0.1C728.6,436,769.5,438.4,810.4,437.2z"/>
<path class="st1" d="M811.4,437.2h-1v37.9H688.2V430c-0.3,0-0.7-0.1-1-0.1c-0.3,0-0.7-0.1-1-0.2v47.4h126.1v-40
	C812,437.1,811.7,437.1,811.4,437.2z"/>
<path class="st2" d="M1000.8,401.8v74.3h-154V435c0.3,0,0.7,0,1-0.1c55.9-5.2,105.9-17.3,152-32.7
	C1000.1,402,1000.5,401.9,1000.8,401.8z"/>
<path class="st1" d="M846.8,434.9c-0.3,0-0.7,0.1-1,0.1v40h2v-40.2C847.5,434.9,847.1,434.9,846.8,434.9z M1000.8,401.8l-1,0.3V475
	h-152v-40.2c-0.3,0-0.7,0.1-1,0.1s-0.7,0.1-1,0.1v42h156v-75.6C1001.5,401.6,1001.2,401.7,1000.8,401.8z"/>
<path class="st2" d="M845.8,435c0.3,0,0.7-0.1,1-0.1V476h-35.5v-38.9h1C823.7,436.7,834.9,436,845.8,435z"/>
<path class="st1" d="M846.8,434.9c-0.3,0-0.7,0.1-1,0.1v40h-33.5v-38h-2v39.9h37.5v-42.2C847.5,434.9,847.1,434.9,846.8,434.9z"/>
<path class="st2" d="M497.7,391.1v85H373.6v-54c0.1,0,0.1-0.1,0.2-0.1c0.3-0.2,0.5-0.3,0.8-0.5c0.1,0,0.1-0.1,0.2-0.1
	c0.3-0.2,0.7-0.4,1-0.6c35.5-20.6,75.8-31.4,120.9-29.7L497.7,391.1z"/>
<path class="st1" d="M496.7,391.4v83.7H374.8v2h123.9v-85.7H496.7z M497.7,391.1h-1v84H374.6v-53.6c-0.3,0.2-0.5,0.3-0.8,0.5
	c-0.1,0-0.1,0.1-0.2,0.1c-0.3,0.2-0.7,0.4-1,0.6v54.4h126.1v-85.9C498.4,391.1,498,391.1,497.7,391.1z"/>
<path class="st1" d="M498.7,391.2h-2v0.3h6C501.4,391.3,500,391.2,498.7,391.2z"/>
<path class="st2" d="M687.2,429.8V476h-154v-81c0.3,0.1,0.7,0.1,1,0.2c10.9,2,21.7,4.6,32.3,7.7c39.2,11.7,79.2,20.6,119.7,26.8
	C686.5,429.7,686.9,429.8,687.2,429.8z"/>
<path class="st1" d="M687.2,429.8c-0.3,0-0.7-0.1-1-0.2V475h-152v-79.8c-0.3-0.1-0.7-0.1-1-0.2s-0.7-0.1-1-0.2V477h156v-47
	C687.9,429.9,687.5,429.9,687.2,429.8z"/>
<path class="st2" d="M533.2,395v81h-35.5v-85h1c1.3,0.1,2.7,0.1,4,0.2c9.9,0.6,19.7,1.8,29.4,3.5C532.4,394.9,532.8,395,533.2,395z"
	/>
<path class="st1" d="M533.2,395c-0.3-0.1-0.7-0.1-1-0.2V475h-33.5v-83.7h4c-1.4-0.1-2.7-0.2-4-0.2h-2v86h37.5v-81.8
	C533.9,395.2,533.5,395.1,533.2,395z"/>
<g class="st3">
	<path class="st1" d="M805.8,1365.4c-9.6,0.8-19.1,1.7-28.6,2.5H372.3v-2.5H805.8z"/>
	<path class="st1" d="M1599.2,1365.4c-2.8,0.9-5.6,1.7-8.4,2.5h-223.9c-0.6-0.1-1.2-0.2-1.9-0.3c-3.9-0.8-7.9-1.5-11.8-2.2H1599.2z"
		/>
</g>
<g class="st3">
	<path class="st1" d="M1719.4,1276.6c-0.6,0.8-1.1,1.7-1.7,2.5H372.3v-2.5H1719.4z"/>
</g>
<g class="st3">
	<path class="st1" d="M1680.4,1321c-1,0.9-2,1.7-3,2.5h-1298v-2.5H1680.4z"/>
</g>
<rect x="696.9" y="475" class="st4" width="304.5" height="766.5"/>
<rect x="372.3" y="475" class="st4" width="304.5" height="766.5"/>
<rect x="746.4" y="599.7" class="st5" width="205.4" height="641.9"/>
<rect x="421.8" y="599.7" class="st5" width="205.4" height="641.9"/>
<polygon class="st1" points="951.8,923.6 746.4,765.8 746.4,875 951.8,1029.1 "/>
<polygon class="st1" points="421.8,599.7 421.8,631.5 627.2,785.6 627.2,674.3 530.1,599.7 "/>
<polygon class="st1" points="421.8,709.5 421.8,756.1 627.2,910.2 627.2,867.3 "/>
<rect x="842.3" y="737.2" class="st4" width="13.6" height="504.3"/>
<rect x="703" y="733.1" class="st4" width="298.3" height="8.2"/>
<rect x="517.7" y="737.2" class="st4" width="13.6" height="504.3"/>
<rect x="378.4" y="733.1" class="st4" width="298.3" height="8.2"/>
<path class="st5" d="M703,937.3c0,9.6,7.8,17.4,17.4,17.4c5,0,9.7-2.1,13-5.8c2.9-3.2,4.4-7.3,4.4-11.6c0-9.6-7.8-17.4-17.4-17.4
	c-5.9,0-11.4,3-14.6,7.9C704,930.6,703,933.9,703,937.3z"/>
<circle class="st5" cx="652.5" cy="931.7" r="17.4"/>
<rect x="696.9" y="1230.7" class="st4" width="304.5" height="10.9"/>
<rect x="372.3" y="1230.7" class="st4" width="304.5" height="10.9"/>
<polygon class="st1" points="951.8,1116.6 746.4,958.8 746.4,999.6 951.8,1153.7 "/>
<path class="st1" d="M705.9,927.7c-1.9,2.8-2.8,6.1-2.8,9.5c0,9.6,7.8,17.4,17.4,17.4c5,0,9.7-2.1,13-5.8L705.9,927.7z"/>
<path class="st4" d="M1259.7,299l4-1.2v237.4h-4V299z"/>
<path class="st1" d="M1304.6,572.2c0,23.7-19.2,42.9-42.9,42.9s-42.9-19.2-42.9-42.9H1304.6z"/>
<g>
	<defs>
		<polygon id="SVGID_1_" points="1,1 2,1 1,2 		"/>
	</defs>
	<defs>
		<polygon id="SVGID_2_" points="-1,-1 -2,-1 -1,-2 		"/>
	</defs>
	<clipPath id="SVGID_3_">
		<use xlink:href="#SVGID_1_"  style="overflow:visible;"/>
	</clipPath>
	<clipPath id="SVGID_4_" class="st6">
		<use xlink:href="#SVGID_2_"  style="overflow:visible;"/>
	</clipPath>
	<g class="st7">
		
			<image style="overflow:visible;enable-background:new    ;" width="1060" height="602" xlink:href="3998FE3D02C1E214.png"  transform="matrix(0.4784 0 0 0.4784 1007.4651 571.74)">
		</image>
	</g>
</g>
<path class="st4" d="M1218.8,572.2c0-23.7,19.2-42.9,42.9-42.9s42.9,19.2,42.9,42.9H1218.8z"/>
<path class="st4" d="M1306.6,572.2h-4c0-22.6-18.3-40.9-40.9-40.9s-40.9,18.3-40.9,40.9h-4c0-25,20.2-45.3,44.9-45.3
	S1306.6,547.3,1306.6,572.2z"/>
<path class="st0" d="M344.2,1500.3c0,0-160.4,48.4-37,96.4s241.2-35.1,400.3,15.7s463.5,49.2,463.5,0s-177.8-4.2-173.2-72.4
	s-226.1-43.4-429.6-41.6C364.8,1500.4,344.2,1500.3,344.2,1500.3z"/>
<path class="st8" d="M359.3,1612.2c-1.9,0-3.8-0.3-5.6-1c-6.4-2.2-10.7-8.3-10.6-15.1v-262.9h103.3v172.6c0,6.9-2.4,13.5-6.8,18.8
	l-68,81.8C368.6,1610.1,364.1,1612.2,359.3,1612.2z M349.5,1339.5V1596c-0.1,4.2,2.5,7.9,6.5,9.2c3.9,1.4,8.2,0.3,10.9-2.9l68-81.8
	c3.4-4.2,5.3-9.4,5.3-14.8v-166.3L349.5,1339.5L349.5,1339.5z"/>
<path class="st8" d="M838.4,1612.2c-1.9,0-3.8-0.3-5.6-1c-6.4-2.2-10.7-8.3-10.6-15.1v-262.9h103.3v172.6c0,6.9-2.4,13.5-6.8,18.8
	l-68,81.8C847.6,1610,843.1,1612.1,838.4,1612.2z M828.5,1339.5V1596c-0.1,4.2,2.5,7.9,6.5,9.2c3.9,1.4,8.2,0.3,10.9-2.9l68-81.8
	c3.4-4.2,5.3-9.4,5.3-14.8v-166.3L828.5,1339.5L828.5,1339.5z"/>
<polygon class="st8" points="226.2,1378.5 335.8,1284 1060.3,1283.8 952,1378.5 "/>
<polygon class="st1" points="540.9,1290.5 516.7,1313.9 711.3,1311 729.9,1288.9 "/>
<polygon class="st9" points="554.3,1344.2 530.1,1367.6 654.3,1364.7 672.9,1342.6 "/>
<path class="st10" d="M763.9,1103.9V1260c0,5.1-4.1,9.3-9.3,9.3c0,0,0,0,0,0H464.4c-5.1,0-9.3-4.2-9.3-9.3v-156.1
	c0-5.1,4.1-9.3,9.3-9.3c0,0,0,0,0,0h290.2C759.7,1094.6,763.9,1098.7,763.9,1103.9C763.9,1103.9,763.9,1103.9,763.9,1103.9z"/>
<path class="st9" d="M619,1202.7h-30.3c-6.7,0-12.2,5.5-12.2,12.2v132.3c0,6.7,5.5,12.2,12.2,12.2H619c6.7,0,12.2-5.5,12.2-12.2
	v-132.3C631.2,1208.2,625.8,1202.7,619,1202.7C619,1202.7,619,1202.7,619,1202.7z M615.2,1328.7c0,5-4.1,9.1-9.1,9.1h-4.7
	c-5,0-9.1-4.1-9.1-9.1v-47.2c0-5,4.1-9.1,9.1-9.1h4.7c5,0,9.1,4.1,9.1,9.1V1328.7z"/>
<rect x="226.2" y="1378.5" class="st10" width="725.6" height="13.1"/>
<rect x="778.3" y="1206.2" class="st10" width="44.8" height="172.3"/>
<ellipse class="st1" cx="800.7" cy="1337.7" rx="13" ry="13.1"/>
<rect x="789.3" y="1226.7" class="st1" width="21.6" height="65.6"/>
<circle class="st1" cx="721.8" cy="1262.6" r="6"/>
<circle class="st1" cx="697.3" cy="1262.6" r="6"/>
<circle class="st1" cx="672.9" cy="1262.6" r="6"/>
<path class="st10" d="M700.8,1385.3c-10.3-14-21.8-30.7-28.5-53.6c-17.6-59.9-0.4-69.3,0.3-69.7l0.6,1.1l-0.3-0.6l0.3,0.6
	c-0.2,0.1-16.9,9.6,0.3,68.2c6.7,22.6,18.1,39.3,28.3,53.2L700.8,1385.3z"/>
<path class="st10" d="M662.7,1390.6l-0.9-0.9c4.6-4.4,10.3-8.3,17-12.8c10.6-7.1,23.8-16,36.5-30.7c9.5-11.1,13.7-23.1,12.3-35.6
	c-3-26.7-30.3-47.3-30.6-47.5l0.8-1c0.3,0.2,28.1,21.1,31.1,48.4c1.4,12.9-2.8,25.2-12.6,36.5c-12.8,14.9-26.1,23.8-36.8,31
	C672.9,1382.4,667.2,1386.2,662.7,1390.6z"/>
<path class="st10" d="M738.2,1381.7l-1-0.8c4.6-5.7,9.8-12,15.4-18.7l1.1-1.3c13.4-16.2,18.4-32.2,14.9-47.7
	c-7.1-31.2-46.8-49.8-47.2-50l0.5-1.1c0.4,0.2,40.7,19.1,47.9,50.9c3.6,15.9-1.5,32.3-15.2,48.7l-1.1,1.3
	C748,1369.7,742.8,1376,738.2,1381.7z"/>
<rect x="374.8" y="1302.2" class="st1" width="114.7" height="68.2"/>
<path class="st8" d="M489.7,1370.6H374.6V1302h115.1V1370.6z M374.9,1370.3h114.4v-67.9H374.9L374.9,1370.3z"/>
<rect x="374.8" y="1308" class="st8" width="114.7" height="0.3"/>
<rect x="374.8" y="1311.1" class="st8" width="114.7" height="0.3"/>
<rect x="374.8" y="1314.1" class="st8" width="114.7" height="0.3"/>
<rect x="374.8" y="1317.1" class="st8" width="114.7" height="0.3"/>
<rect x="374.8" y="1320.1" class="st8" width="114.7" height="0.3"/>
<rect x="374.8" y="1323.1" class="st8" width="114.7" height="0.3"/>
<rect x="374.8" y="1326.1" class="st8" width="114.7" height="0.3"/>
<rect x="374.8" y="1335.1" class="st8" width="114.7" height="0.3"/>
<rect x="374.8" y="1338.1" class="st8" width="114.7" height="0.3"/>
<rect x="374.8" y="1341.1" class="st8" width="114.7" height="0.3"/>
<rect x="374.8" y="1352.1" class="st8" width="114.7" height="0.3"/>
<rect x="374.8" y="1363" class="st8" width="114.7" height="0.3"/>
<polygon class="st1" points="489.5,1370.4 511.8,1354.4 511.8,1286.1 489.5,1302.2 "/>
<path class="st8" d="M489.4,1370.7v-68.6h0.1l22.5-16.2v68.6h-0.1L489.4,1370.7z M489.7,1302.3v67.8l22-15.8v-67.8L489.7,1302.3z"/>
<line class="st11" x1="511.8" y1="1292.1" x2="489.5" y2="1308.2"/>
<rect x="486.9" y="1299.9" transform="matrix(0.8117 -0.5841 0.5841 0.8117 -665.1173 537.2435)" class="st8" width="27.5" height="0.3"/>
<line class="st11" x1="511.8" y1="1295.1" x2="489.5" y2="1311.2"/>
<rect x="486.9" y="1302.9" transform="matrix(0.8117 -0.5841 0.5841 0.8117 -666.8708 537.8194)" class="st8" width="27.5" height="0.3"/>
<line class="st11" x1="511.8" y1="1298.2" x2="489.5" y2="1314.2"/>
<rect x="486.8" y="1306" transform="matrix(0.8117 -0.5841 0.5841 0.8117 -668.6731 538.3505)" class="st8" width="27.5" height="0.3"/>
<line class="st11" x1="511.8" y1="1301.2" x2="489.5" y2="1317.2"/>
<rect x="486.8" y="1309" transform="matrix(0.8117 -0.5841 0.5841 0.8117 -670.4249 538.9156)" class="st8" width="27.5" height="0.3"/>
<line class="st11" x1="511.8" y1="1304.2" x2="489.5" y2="1320.2"/>
<rect x="486.8" y="1312" transform="matrix(0.8117 -0.5841 0.5841 0.8117 -672.1784 539.4915)" class="st8" width="27.5" height="0.3"/>
<line class="st11" x1="511.8" y1="1307.2" x2="489.5" y2="1323.2"/>
<rect x="486.8" y="1315" transform="matrix(0.8117 -0.5841 0.5841 0.8117 -673.9332 540.0587)" class="st8" width="27.5" height="0.3"/>
<line class="st11" x1="511.8" y1="1310.2" x2="489.5" y2="1326.3"/>
<rect x="486.8" y="1318" transform="matrix(0.8117 -0.5841 0.5841 0.8117 -675.685 540.6238)" class="st8" width="27.5" height="0.3"/>
<line class="st11" x1="511.8" y1="1319.2" x2="489.5" y2="1335.3"/>
<rect x="486.8" y="1327" transform="matrix(0.8117 -0.5841 0.5841 0.8117 -680.9432 542.3378)" class="st8" width="27.5" height="0.3"/>
<line class="st11" x1="511.8" y1="1322.2" x2="489.5" y2="1338.3"/>
<rect x="486.8" y="1330" transform="matrix(0.8117 -0.5841 0.5841 0.8117 -682.6986 542.9078)" class="st8" width="27.5" height="0.3"/>
<line class="st11" x1="511.8" y1="1325.2" x2="489.5" y2="1341.3"/>
<rect x="486.9" y="1333" transform="matrix(0.8117 -0.5841 0.5841 0.8117 -684.4485 543.4788)" class="st8" width="27.5" height="0.3"/>
<line class="st11" x1="511.8" y1="1336.1" x2="489.5" y2="1352.2"/>
<rect x="486.9" y="1343.9" transform="matrix(0.8117 -0.5841 0.5841 0.8117 -690.8143 545.5291)" class="st8" width="27.5" height="0.3"/>
<line class="st11" x1="511.8" y1="1347.1" x2="489.5" y2="1363.1"/>
<rect x="486.8" y="1354.9" transform="matrix(0.8117 -0.5841 0.5841 0.8117 -697.236 547.5614)" class="st8" width="27.5" height="0.3"/>
<polygon class="st1" points="511.8,1286.1 405.1,1286.1 374.8,1302.2 489.5,1302.2 "/>
<path class="st8" d="M489.6,1302.3H374.1l30.9-16.4h107.2L489.6,1302.3z M375.4,1302h114.1l21.8-15.7H405.1L375.4,1302z"/>
<polygon class="st10" points="951.8,1378.5 1060.3,1283.8 1060.3,1299 951.8,1391.6 "/>
<polygon class="st9" points="823.1,1206.2 874.1,1168.2 874.1,1305.1 823.1,1378.5 "/>
<polygon class="st8" points="778.3,1206.2 829.8,1168.2 874.1,1168.2 823.1,1206.2 "/>
<rect x="838.4" y="1206.2" class="st10" width="44.8" height="172.3"/>
<ellipse class="st1" cx="860.8" cy="1337.7" rx="13" ry="13.1"/>
<rect x="849.4" y="1226.7" class="st1" width="21.6" height="65.6"/>
<polygon class="st10" points="883.2,1206.2 934.1,1168.2 934.1,1305.1 883.2,1378.5 "/>
<polygon class="st8" points="838.4,1206.2 889.9,1168.2 934.1,1168.2 883.2,1206.2 "/>
<path class="st12" d="M1486.2,1139.3c-3.7,2.7-14.7,7.9-25.6,12.9c-2.8,1.2-5.6,2.5-8.3,3.7c-0.1,0-0.1,0.1-0.2,0.1
	c-3.6,1.6-7,0.5-9.8,1.7c-0.7,0.3-2.3,0.7-2.9,1c-1,0.4-1,3.2-1.8,3.6c-1,0.4-2.2,0.9-3.4,1.4c-1,0.4-2.1,0.8-3.3,1.2
	c-2.5,0.8-5.2,1.7-8,2.5c-1.3-0.2-2.6-0.5-3.9-0.7c-2.2-0.5-4.8-1.1-7.4-1.9c-0.1,0-0.2-0.1-0.4-0.1c-3.6-1.1-7.4-2.4-11.3-3.8
	c-0.2-0.1-0.5-0.2-0.7-0.2c-3.9-1.5-7.9-3-11.8-4.6c1.3-0.3,2.8-0.5,4.3-0.8c-1.9,0.2-3.8,0.3-5.7,0.2c-0.2,0-0.4,0-0.6-0.1
	c-0.6,0-1.2-0.3-1.5-0.8c-1-1.9,3.4-6.2,13.4-6.9c10.2-0.7,33.5-5.9,40.3-8.1c1.3-0.4,2-0.8,1.8-0.9l5.9-2.8
	c16.1,0.7,29.3-10.6,29.3-10.6S1493.1,1134.3,1486.2,1139.3z"/>
<path class="st13" d="M1447,1149.8c-2.8,1.2,8,4.9,5.3,6.1c-0.1,0-0.1,0.1-0.2,0.1c-3.6,1.6-7.9,1.5-10.8,2.8
	c-0.7,0.3-2.6-1.1-3.2-0.8c-1,0.4,0.3,4.1-0.5,4.4c-1,0.4-2.2,0.9-3.4,1.4c-1,0.4-2.1,0.8-3.3,1.2c-2.5,0.8-5.2,1.7-8,2.5
	c-1.3-0.2-2.6-0.5-3.9-0.7c-2.2-0.5-4.8-1.1-7.4-1.9c-0.1,0-0.2-0.1-0.4-0.1c-3.6-1.1-7.4-2.4-11.3-3.8c-0.2-0.1-0.5-0.2-0.7-0.2
	c-3.9-1.5-7.9-3-11.8-4.6c-0.5-0.2-0.9-0.4-1.4-0.6c-0.7-0.3-1.4-0.6-2.1-0.8c-12.4-5.1-22.4-9.8-22.4-9.8l4.2-8.9l24.6,3.4
	c0,0,23.2-0.1,36.4-1.2c3.6-0.3,10.1-1.9,11.5-2.8c2.9-2,0.6,2.5-0.6,4.3c-1,1.4-4.2,3.1-10.8,3.8c-8.1,0.9-6,1.3-6,1.3
	S1432.6,1147.5,1447,1149.8z"/>
<path class="st12" d="M1383.9,1154.6c0,0,3.1,4.9,6.5,5.2s5.6,5,11.6,5.2s3.3,1.9,9.1,3.3s4.1,1.1,7.6,1.2s9.7-6.7,10.4-9
	s-2.6-3.8-5.7-1.4c0,0,2.7-3.5-0.7-5.3c-2.9-1.6-6.4,1.9-6.4,1.9s5.7-3.3,2.3-5.4c-1-0.6-5.2-2.7-7.4-0.4c0,0-2.9-3.8-6.3-2.6
	C1401.7,1148.4,1388.8,1150.4,1383.9,1154.6z"/>
<path class="st12" d="M1445.4,1135.9c0,0-25.5,4.9-34,4.9s1.4,6.1,11,5.1s19.7-0.9,19.7-0.9L1445.4,1135.9z"/>
<path class="st13" d="M1422.9,1167.4c0,0,4.8,1.2,6.7,0.2s2.8-2.9,4.4-2.8c2.2-0.1,4.1-1.2,5.2-3.1c2.1-3.6,4-0.8,7.2-2.3
	c1.4-0.6,3.4-2.8,6.2-2.3s5.3-2.4,4.2-3.1c-3.3-2.1-7-3.6-10.8-4.3c-5.2-1-15.2,1.9-15.2,1.9v9.6L1422.9,1167.4z"/>
<path class="st14" d="M1610.5,1622.3c0,0,12.4,16.8,21.9,8s3.7,33.3,3.7,33.3v11.8c0,0-98.7,1.6-119.8,0
	c-15.9-1.2-10.7-22.5,18-25.5s27.9,5.8,50.4,5.8C1607,1655.7,1610.5,1622.3,1610.5,1622.3z"/>
<path class="st15" d="M1568.7,1653.6c3.6,1.9,6.3,5.2,7.3,9.2c0.9,3.1,5.7,1.8,4.8-1.3c-1.5-5.2-4.9-9.6-9.6-12.2
	C1568.3,1647.7,1565.8,1652,1568.7,1653.6L1568.7,1653.6z"/>
<path class="st15" d="M1545.2,1648.7c5.4,2.1,9,7.1,9.3,12.9c0.2,3.2,5.2,3.2,5,0c-0.4-8-5.5-15-13-17.8
	C1543.5,1642.8,1542.2,1647.6,1545.2,1648.7z"/>
<path class="st14" d="M1742.7,1536.9c0,0,23.5,1.1,24-11.8s20.8,14.7,20.8,14.7l8.3,8.3c0,0-68.5,71.6-84.5,85.5
	c-12,10.5-23.4-8.3-5.3-30.8s23.7-15.8,39.6-31.9C1761.5,1555,1742.7,1536.9,1742.7,1536.9z"/>
<path class="st15" d="M1733.4,1578.8c3.9-1.2,8.1-0.8,11.6,1.2c2.8,1.6,5.3-2.8,2.5-4.3c-4.7-2.6-10.2-3.3-15.4-1.7
	C1729,1574.9,1730.3,1579.8,1733.4,1578.8z"/>
<path class="st15" d="M1713.4,1592.2c5.3-2.3,11.4-1.3,15.7,2.5c2.4,2.1,6-1.4,3.5-3.5c-5.9-5.3-14.5-6.6-21.7-3.2
	C1708,1589.2,1710.5,1593.5,1713.4,1592.2z"/>
<path class="st12" d="M1699.7,1232.9c0,0-1.7,46.1,0.3,51.7s7.2-3.8,6.4-9.9s0-10.3,0.7-11.6s12.5,14.6,7,35.1
	c-3.1,11.8,6.8,14,6.5,9.7s5.3-20.6,2.7-25.7c-2-3.8-1.6,26.2-0.1,28.4s3.2,3.4,5.4,2.8s1.5-3.6,0.4-7.2s1.6-25.6,0.7-27
	s-1.8,26.1,2.2,28.5s6-0.5,4.6-2.5s2.1-25.6-0.7-28.9s-1,20.2,0.9,21.3s5.3,2,3.3-2.6s-4.6-34-12-43.6s-24.5-53.8-30.8-58.7
	c-6.6-5.1-5.8,18.9-5.8,18.9S1697.2,1216.8,1699.7,1232.9z"/>
<path class="st14" d="M1606.1,975.9c0,0-36.1,41.3-85.1,89c-47.1,45.8-75.1,44.5-71.7,52.4c6.9,16.1,15.7,32.5,37.8,29.7
	c10.7-1.4,54-23,88-61.7c36.5-41.5,46.1-52,46.1-52L1606.1,975.9z"/>
<path class="st14" d="M1637.5,950.4c0,0-35.5-0.1-37.7,13.1s-2.2,68.1-13.6,116.5s-31.5,137.8-21,145.2s15.8-10.1,15.8-10.1
	l61.2-258.5L1637.5,950.4z"/>
<path class="st12" d="M1573.2,866.4c4.6,10.1,6.9,21,7,32.1c0.1,12-0.7,28.2,9.6,39.6c20.4,22.5,37.1,4.1,45.5-9s12.3-43.7,2.6-52.8
	S1586.1,845.6,1573.2,866.4z"/>
<path class="st14" d="M1563.7,850.5c0,0-4.8,31.6,29.1,27.3s43.9,5.9,42.5,23.2s6.1,31.5,10.8,16.3c3.6-11.6,3.5-20.3,3.8-33.1
	c0.5-18.6,0.8-9.6,1.2-25.9c0.5-19.6-9.7-35.1-16.4-29.8s-39.1,23.5-49.5,19.2S1565.7,835.2,1563.7,850.5z"/>
<ellipse class="st14" cx="1595.5" cy="895.5" rx="3.8" ry="6.8"/>
<path class="st16" d="M1580.2,898.6c0,0-4,22.5-6.7,28s13.2,4.6,17.5-1.4C1595.2,919,1580.2,898.6,1580.2,898.6z"/>
<path class="st14" d="M1601,937.4c-1.1,0.1-2.2-0.1-3.3-0.5c-0.5-0.2-0.8-0.8-0.6-1.3c0.2-0.5,0.8-0.8,1.3-0.6l0,0
	c2.8,0.7,5.7,0.3,8.2-1.2c3.9-2.5,6.3-7.7,7.3-15.5c0.1-0.6,0.5-1,1.1-0.9c0.6,0.1,1,0.5,0.9,1.1c-1,8.4-3.8,14.2-8.2,17
	C1605.7,936.7,1603.4,937.4,1601,937.4z"/>
<path class="st12" d="M1626.9,932.9c0,0,1.9,49.8,8.6,60.8s-35.6,11.3-28.6,3.4s0.9-50.2,5.4-50.9S1626.9,932.9,1626.9,932.9z"/>
<path class="st15" d="M1589.9,1205.4c0,0,3.5,393.3,16.6,424.1c0,0,27.4,20.4,36.1,5s18.2-407.8,18.2-407.8L1589.9,1205.4z"/>
<path class="st17" d="M1607,1198c0,0-46.1,177.2-26.3,204.7s151.3,140.7,163.3,141.8s36.3-16.6,37.4-19.9s-144.7-140.1-142.5-155.5
	s31.9-120.7,31.9-132.8S1607,1198,1607,1198z"/>
<path class="st18" d="M1637.5,950.4c0,0,8.3,6.4-5.1,16s-16.6-4.5-19.3,4.3c-4.2,14.1-79.8,200.9-48,254.4
	c5.1,8.5,15.8-10.1,40.9,13.4c54.8,51.3,75.1,3.1,82.4-20.1c12.1-38.5-17-156.2-30.5-220.2C1650.4,962.9,1637.5,950.4,1637.5,950.4z
	"/>
<path class="st16" d="M1617.9,903.5c1.6,2.5-0.7,6.8-5.2,9.7s-9.4,3.3-10.9,0.8s0.7-6.8,5.2-9.7S1616.3,901.1,1617.9,903.5z"/>
<path class="st19" d="M1608.2,991.3c-2.6,5-3.4,10.8-2.2,16.4c6.6,33.1,42.8,210.9,63,225.6c22.3,16.3,33.1-21.8,46.3-25.4
	s-57.6-204.3-69.2-218.7C1636.5,977.1,1616.3,976.1,1608.2,991.3z"/>
<path class="st14" d="M1634.6,829.4c-1.1,4.6-7.8,7.2-11.8,8.8c-4.3,1.6-8.7,3-13.2,4.1c-5,1.3-10.1,2.4-15.1,0.7
	c-4.3-1.5-7.8-4.5-10-8.5c-0.3-0.6-1.2-0.1-0.9,0.5c2.1,3.9,5.4,6.9,9.5,8.6c5.2,2.1,10.5,1.2,15.7-0.1c5.4-1.2,10.8-2.9,15.9-5
	c3.9-1.7,9.7-4.2,10.8-8.7C1635.7,829,1634.7,828.7,1634.6,829.4L1634.6,829.4z"/>
<path class="st14" d="M1631.1,836.6c-5.2,1.9-10.7,3.1-16.2,3.6c-4.9,0.4-10.5,0.7-14.8-2.3c-0.5-0.4-1,0.5-0.5,0.9
	c4.1,2.9,9.5,2.8,14.3,2.5c5.9-0.4,11.8-1.7,17.4-3.7C1632,837.4,1631.7,836.4,1631.1,836.6L1631.1,836.6z"/>
<path class="st14" d="M1603.9,871.2c-5.2,1-10.4,1.9-15.6,2.9s-11,2.8-16.3,1.9c-10.5-1.8-14.5-13.1-15.1-22.3
	c0-0.3-0.2-0.5-0.5-0.5s-0.5,0.2-0.5,0.5c0.6,9.1,4.1,19.5,13.7,22.7c4.9,1.7,10.2,0.3,15.1-0.7l19.5-3.6
	C1604.8,872.1,1604.5,871.1,1603.9,871.2L1603.9,871.2z"/>
<path class="st12" d="M1571.5,1221.3c-1.1-1.4-1.4-3.3-0.8-5c0.6-1.8-2.3-2.6-2.9-0.8c-0.8,2.5-0.4,5.2,1.1,7.3
	C1570,1224.4,1572.6,1222.9,1571.5,1221.3L1571.5,1221.3z"/>
<path class="st12" d="M1567.7,1201.2v-6.5c0-0.8-0.7-1.5-1.5-1.5s-1.5,0.7-1.5,1.5v6.5c0,0.8,0.7,1.5,1.5,1.5
	S1567.7,1202,1567.7,1201.2z"/>
<path class="st12" d="M1567.2,1181c-0.5-2-0.5-4.1,0-6.1c0.2-0.8-0.2-1.6-1.1-1.8c-0.8-0.2-1.6,0.2-1.8,1l0,0
	c-0.7,2.5-0.7,5.2,0,7.7c0.2,0.8,1,1.3,1.8,1C1567,1182.6,1567.4,1181.8,1567.2,1181L1567.2,1181z"/>
<path class="st12" d="M1569,1157.7v-6c0-0.8-0.7-1.5-1.5-1.5s-1.5,0.7-1.5,1.5v6c0,0.8,0.7,1.5,1.5,1.5S1569,1158.5,1569,1157.7z"/>
<path class="st12" d="M1571.9,1136.2c0.6-1.9,1.1-3.7,1.7-5.6s-2.3-2.6-2.9-0.8s-1.1,3.7-1.7,5.6S1571.3,1138,1571.9,1136.2z"/>
<path class="st12" d="M1576.3,1115.5c0.1-0.7,0.3-1.4,0.4-2.2c0.2-0.7-0.1-1.5-0.9-1.8c0,0-0.1,0-0.1,0c-0.8-0.2-1.6,0.2-1.8,0.9
	c0,0,0,0,0,0.1c-0.1,0.7-0.3,1.4-0.4,2.2c-0.2,0.8,0.3,1.6,1.1,1.7C1575.3,1116.6,1576.1,1116.2,1576.3,1115.5z"/>
<path class="st12" d="M1579.2,1099.8c1.6-1.7,2.9-3.6,3.8-5.8c0.2-0.8-0.2-1.6-0.9-1.8c0,0,0,0-0.1,0c-0.8-0.2-1.6,0.2-1.8,1
	c-0.7,1.7-1.8,3.2-3.1,4.5C1575.7,1099.1,1577.9,1101.2,1579.2,1099.8L1579.2,1099.8z"/>
<path class="st12" d="M1586.1,1079.8v-3.9c0-0.8-0.7-1.5-1.5-1.5s-1.5,0.7-1.5,1.5v3.9c0,0.8,0.7,1.5,1.5,1.5
	S1586.1,1080.6,1586.1,1079.8z"/>
<path class="st12" d="M1591,1061.2c0.5-2.3,0.9-4.6,1.4-6.9c0.4-1.9-2.5-2.7-2.9-0.8c-0.5,2.3-0.9,4.6-1.4,6.9
	C1587.7,1062.3,1590.6,1063.1,1591,1061.2z"/>
<path class="st12" d="M1595.3,1039.3c0.7-1.6,1.4-3.2,2.1-4.7c0.3-0.7,0.1-1.6-0.5-2.1c-0.7-0.4-1.6-0.2-2.1,0.5
	c-0.7,1.6-1.4,3.2-2.1,4.7c-0.3,0.7-0.1,1.6,0.5,2.1C1593.9,1040.2,1594.9,1040,1595.3,1039.3z"/>
<path class="st12" d="M1198.6,934.3c0,0,0.1,29.9,2.2,41.9s-13.3,13.5-16.8,7.4s3.3-19.7,2.5-33.3s1.8-16,1.8-16L1198.6,934.3z"/>
<path class="st13" d="M1214,854.9c0,0,28.7,5.9,23.5,39.8s-8.1,45.7-20.5,49.2c-26.7,7.4-49.4-22.9-40.7-48.5S1182.1,853,1214,854.9
	z"/>
<path class="st16" d="M1237,898.3c0,0-2.3,19.1,1.2,26.5s-14.6,5.8-11.2-0.3S1237,898.3,1237,898.3z"/>
<path class="st14" d="M1228.4,897.8c-1.1,4.2-3.8,7.1-6,6.5s-3.1-4.5-1.9-8.6s3.8-7.1,6-6.5S1229.6,893.6,1228.4,897.8z"/>
<path class="st14" d="M1217.6,935.6c-3.3,0-8.4-0.5-11.4-3.4c-1.8-1.8-2.6-4.4-2.2-6.9c0.1-0.5,0.6-1,1.1-0.9
	c0.5,0.1,0.9,0.6,0.9,1.1c-0.3,1.9,0.3,3.9,1.6,5.3c3.8,3.7,12.6,2.8,12.7,2.7c0.6-0.1,1,0.3,1.1,0.9s-0.3,1-0.9,1.1
	C1220.4,935.4,1219.3,935.6,1217.6,935.6z"/>
<path class="st12" d="M1225.9,1691.1c-3,3.2-45.7,1.6-69-2.4s-45.2-1.8-42.6-11.5c7.2-27,15.2-60.3,14.2-77.5
	c-3.4-60.6-0.1-112.2,5.5-153.5c3.9-29.7,10-59,18.4-87.7c5.8-19.7,10.4-29.9,10.4-29.9l40.9,11.3c0,0-3.6,16.2-9.1,40.8
	c-3.6,16.3-8.1,36.3-12.8,57.8c-16.8,76.3-37.4,171.6-39.2,187.2c-3.1,26.6-4,41.7,31.8,50.6c20,5,39.7-0.4,48.7,3.4
	C1228.4,1681.9,1229.7,1687,1225.9,1691.1z"/>
<path class="st12" d="M1331.5,1674.1c-44.9-6.4-70.2,1.7-81-9.5s7.8-28.9-5.2-61.3c-10.3-25.8-40.4-110.8-43.3-161.2v-0.8
	c-1.2-22.1,0.8-39.6,2.3-56.2c1.9-21.1,2.9-40.5-4.5-65.6c-13.1-44.7,29.9-43.9,29.9-43.9s22.7,83.5,19.9,121
	c-0.6,7.6-0.7,20-0.4,35.4c0.2,7,0.4,14.7,0.8,22.7c2.8,61.2,11.9,146.9,30.2,174.8c14.8,22.6,33.2,33.3,51.9,30.9
	c22.3-2.8,27.1-2.4,38.3,10.3C1370.4,1670.8,1376.4,1680.4,1331.5,1674.1z"/>
<path class="st14" d="M1235.9,873.9c0,0-10.1-10-17.4-3.8s-10.3,24.4-19,39.5s-12.7,20.8-6.1,31.7s-7.6,12.3-20,8.8
	s-21.1-1.9-34.2-13.3s-11.3-16.7,2.2-26.9s21.8-37.3,25.8-51.3s18.5-19.9,28.5-16.8s33.1,8.8,39.5,16.3s8.6,13.2,5.4,15.2
	S1235.9,873.9,1235.9,873.9z"/>
<path class="st17" d="M1186.4,1189.8c12.3-2.7-18.3,30.2,25.1,11.5c21.3-9.2-5.3,1,2.6-19.8c5.5-14.5,24.7,3,21.5-15.1
	c-1.4-8,3.6-16.8,4.4-23c2.6-20.1,4.7-27-2.1-71.5s-11.5-94.9-40.8-99.8c0,0-24.6-8.2-25.7,13c-0.7,12.7-2.3,53.2-2.7,109.9
	c-0.2,22.9,7.6,43.2,2.8,59.7c-1.7,5.7,18.4,16.6,18.9,21.5C1192.9,1205.3,1163.4,1194.8,1186.4,1189.8z"/>
<path class="st15" d="M1172.9,1010.9c13.6,22.5,30.4,9.3,45.2,49c7.6,20.4,25.4,23.4,34.5,35.3c3.1-4.7,16.4,6.9,30.5,9.6
	c17.5,3.4,20.6,21.1,57.4,19.7c16.3-0.5,32.6-2.3,48.7-5.3c-2.6-1-5.4-2.2-8.2-3.5c-20.9-10.1-50.1-37.3-78.1-60.6
	s-47.7-10.4-66.2-39.6s-25-45.1-50.8-45.1C1178.9,970.5,1151.5,975.5,1172.9,1010.9z"/>
<path class="st15" d="M1250.1,1628.8c0,0-4,22.3-9,35c-3.2,8.2,127.1,17.7,131.8,12s-9.4-18.6-19.3-16.7s-10.5,10.8-24.6,11.8
	s-65.3-9.7-67.7-17.7S1259.3,1629.8,1250.1,1628.8z"/>
<path class="st15" d="M1120.7,1651.8c0,0-7.1,20.3-9.4,28.8c-1.9,7.1,122,15.7,122,15.7s7.3-2.6,2.4-8.5s-13.7-9.8-21.3-9.2
	s-6.7,9.7-30.9,7.8s-50-4.7-52.7-15.1S1125,1648.3,1120.7,1651.8z"/>
<path class="st20" d="M1252.5,1095.3c8.6,11.4,19,20.1,33.7,28.5c30.5,17.4,46.2,25.9,59.8,42.6c18.2,22.3,6,3.1,40.6-19.6
	c29.9-19.6,19.5-20.9,2.6-27.4c-16.1,2.9-32.4,4.7-48.7,5.3c-36.8,1.4-40-16.3-57.4-19.7C1268.9,1102.1,1255.7,1090.5,1252.5,1095.3
	z"/>
<path class="st21" d="M1286.7,1428.8c-2.3-0.6-4.7-1-7.1-1.2c-32.8-3.6-20.8,27.9-59.1,6.5c-19-10.6-39-17.6-46-6.9
	c-15.9,24.5-28.6,7.8-45.9-1c-31-15.8,8.4-50,13.9-95.4c0.7-5.8,0.8-11.7,0.3-17.5c-10-104.7,28.4-177.6,28.4-177.6l66.4,19
	c0,0,27.5,74.5,30.5,182.9C1269.5,1392.9,1337.2,1440,1286.7,1428.8z"/>
<path class="st20" d="M1171.9,1127.2c0,0-6.1,3.5-4.2,15.8l72.1,18.7c0,0,4.2-8.8,0-14.3L1171.9,1127.2z"/>
<path class="st14" d="M1181.3,847.3c-5.3,2.9-9.6,7.1-12.6,12.3c-3.9,6.7-7.9,13.4-12.1,19.9s-8.3,13.9-13.6,19.5
	s-12.8,7.8-20.1,9.7c-1.2,0.3-0.7,2.3,0.5,1.9c6-1.6,12.2-3.3,17.3-7c5.3-3.9,8.9-10.1,12.5-15.4c4.5-6.7,8.8-13.5,13-20.5
	c2-3.3,3.8-6.9,5.9-10.1c2.6-4,6.1-6.3,10.2-8.7C1183.4,848.4,1182.4,846.7,1181.3,847.3L1181.3,847.3z"/>
<path class="st14" d="M1236.5,870.6c-6.3-1.9-13-1.1-18.2,3.2c-5.7,4.7-7.2,11.6-8,18.6c-0.1,1.3,1.9,1.3,2,0
	c0.7-6,1.8-11.9,6.3-16.2c4.7-4.5,11.3-5.5,17.3-3.6c0.6,0.2,1.1-0.1,1.3-0.7C1237.4,871.3,1237.1,870.8,1236.5,870.6L1236.5,870.6
	L1236.5,870.6z"/>
<path class="st22" d="M1191.1,1379.6c1.2,0.4,2.4,0.7,3.5,1.1c-3.6,16.3-8.1,36.3-12.8,57.8c-3.4,0.4-6.4,2.3-8.2,5.1
	c-13.9,21.4-25.3,11.4-39.5,2.6c3.9-29.7,10-59,18.4-87.7C1163.6,1368.3,1176.8,1375.5,1191.1,1379.6z"/>
<path class="st22" d="M1250.1,1454.8c-5.7,4.1-12.6,5.7-30.5-4.3c-5.7-3.2-11.5-6-17.6-8.4v-0.8c-1.2-22.1,0.8-39.6,2.3-56.2
	c20,12.7-0.2,32.2,32,42.9c4.9,1.6,9.3,3,13.1,4.1C1249.4,1439.1,1249.7,1446.7,1250.1,1454.8z"/>
<path class="st18" d="M1279.5,1427.6c-32.8-3.6-20.8,27.9-59.1,6.5c-19-10.6-39-17.6-46-6.9c-15.9,24.5-28.6,7.8-45.9-1
	c-31-15.8,8.4-50,13.9-95.4c12.9,15.5,30.1,26.8,49.5,32.4c41,11.8,7.8,36,45.1,48.4C1266.1,1421.3,1274.1,1419.7,1279.5,1427.6z"/>
<path class="st18" d="M1204.5,1395.2c-0.1-69.3-1.3-138.6-3.5-207.8c-0.1-3.2-5.1-3.2-5,0c2.3,69.2,3.5,138.5,3.5,207.8
	C1199.5,1398.4,1204.5,1398.4,1204.5,1395.2z"/>
<path class="st18" d="M1211.9,1231.8c3.2,0,3.2-5,0-5S1208.6,1231.8,1211.9,1231.8z"/>
<path class="st18" d="M1211.9,1267.5c3.2,0,3.2-5,0-5S1208.6,1267.5,1211.9,1267.5z"/>
<path class="st18" d="M1211.2,1305.7c3.2,0,3.2-5,0-5S1208,1305.7,1211.2,1305.7z"/>
<path class="st18" d="M1212.5,1350.1c3.2,0,3.2-5,0-5S1209.3,1350.1,1212.5,1350.1z"/>
</svg>
