<svg xmlns="http://www.w3.org/2000/svg" viewBox="0 0 1984.3 1984.3"><defs><radialGradient cx="736.92" cy="1170.39" r="558.29" gradientTransform="matrix(1, 0, 0, -1, 0, 1984)" gradientUnits="userSpaceOnUse"><stop offset="0" stop-color="#fff"/><stop offset="1" stop-color="#fff" stop-opacity="0"/></radialGradient><clipPath ><path d="M1014.9,1219.8l-13.7-7.4a3.82,3.82,0,0,1-.9-.9c-3.9-5.5-8-10.9-12.1-16.2a4.35,4.35,0,0,0-.7-.6l13.7,7.4a1.34,1.34,0,0,1,.7.6c4.1,5.3,8.1,10.7,12.1,16.2A2.55,2.55,0,0,0,1014.9,1219.8Z" style="fill:none"/></clipPath><clipPath ><path d="M1067,1034.1l13.7,7.4a1.55,1.55,0,0,0-1.2-.2,6.15,6.15,0,0,0-1.1.3,33.85,33.85,0,0,1-5.4,1.7l-15.9,4.9-13.7-7.4,15.9-4.9a33.85,33.85,0,0,0,5.4-1.7,2.61,2.61,0,0,1,1.1-.3A2.17,2.17,0,0,1,1067,1034.1Z" style="fill:none"/></clipPath><clipPath ><path d="M1056.4,1048l-13.7-7.4a4.12,4.12,0,0,0,.8.3l13.7,7.4A3.39,3.39,0,0,0,1056.4,1048Z" style="fill:none"/></clipPath><clipPath ><path d="M972.7,1158.2l-13.7-7.4a37.81,37.81,0,0,0,23.3,4.1l13.7,7.4A38.65,38.65,0,0,1,972.7,1158.2Z" style="fill:none"/></clipPath><clipPath ><path d="M1005.9,1064.2l13.7,7.4c12.4,6.7,20.5,20.6,20.4,37.7-.2,25.6-20,49.5-44,52.9l-13.7-7.4c24-3.4,43.8-27.3,44-52.9C1026.4,1084.8,1018.3,1071,1005.9,1064.2Z" style="fill:none"/></clipPath><clipPath ><path d="M941.1,1215.6l-13.7-7.4a7.46,7.46,0,0,1-1.2-.7,2.18,2.18,0,0,1-1.2-2.6q1.8-11.4,3.3-22.8a3.85,3.85,0,0,0-.8-2.6c-1-1.2-2.4-1.9-3.3-3.2a6.37,6.37,0,0,0-1.7-1.6l13.7,7.4a4.25,4.25,0,0,1,1.7,1.6c.9,1.3,2.4,2,3.3,3.2a3.85,3.85,0,0,1,.8,2.6q-1.5,11.4-3.3,22.8a2.08,2.08,0,0,0,1.2,2.6A7.46,7.46,0,0,0,941.1,1215.6Z" style="fill:none"/></clipPath><clipPath ><path d="M992.7,1028.1l-13.7-7.4,3.2-.7a10.87,10.87,0,0,1,1.8-.1,4.1,4.1,0,0,0,1.1-.1c1.9-.3,3.2-1.4,4.4-3.5,3.6-6.1,7.5-12,11.1-18.1.7-1.1,1.3-1.6,2.2-1.7h1.1a85.81,85.81,0,0,1,34.1,10.4l13.7,7.4a85.81,85.81,0,0,0-34.1-10.4h-1.1c-.9.1-1.5.6-2.2,1.7-3.7,6.1-7.5,12-11.1,18.1-1.2,2.1-2.5,3.2-4.4,3.5-.3,0-.7.1-1.1.1a10.87,10.87,0,0,0-1.8.1A18.94,18.94,0,0,0,992.7,1028.1Z" style="fill:none"/></clipPath><clipPath ><path d="M991.1,1027.8l-13.7-7.4a2.85,2.85,0,0,0,1.6.2l13.7,7.4A1.76,1.76,0,0,1,991.1,1027.8Z" style="fill:none"/></clipPath><clipPath ><path d="M963.6,1002.7l13.7,7.4a3.16,3.16,0,0,0-2-.3l-13.7-7.4A3.16,3.16,0,0,1,963.6,1002.7Z" style="fill:none"/></clipPath><clipPath ><path d="M934,1065.4l-13.7-7.4a3.44,3.44,0,0,0,2.3-1.2c1.8-2,3.5-4.1,5.2-6.3a3.82,3.82,0,0,0,.7-2.7c-1-7.3-2-14.6-3.2-21.9a2.76,2.76,0,0,1,1.1-3,115.37,115.37,0,0,1,35.2-20.6l13.7,7.4a116.56,116.56,0,0,0-35.2,20.6,2.76,2.76,0,0,0-1.1,3c1.1,7.3,2.2,14.6,3.2,21.9a4.39,4.39,0,0,1-.7,2.7,62.08,62.08,0,0,1-5.2,6.3A3.23,3.23,0,0,1,934,1065.4Z" style="fill:none"/></clipPath><clipPath ><path d="M911.2,1188.1l-13.7-7.4a3.82,3.82,0,0,1-.9-.9,100.38,100.38,0,0,1-14.4-35.9,3.93,3.93,0,0,1,1.2-2.9c5.4-5.2,10.9-10.2,16.4-15.3a3.79,3.79,0,0,0,1.6-3.9,11.5,11.5,0,0,1-.1-3.7c.7-3.7-.7-5.7-3.5-7.3-5-2.8-9.7-6.2-14.6-9.3a2.2,2.2,0,0,1-1-2.7,130.16,130.16,0,0,1,14.6-39.7c.6-1,1.1-1.5,2-1.6h.8q10.35.45,20.7.6l13.7,7.4q-10.35-.15-20.7-.6h-.8c-.9.1-1.4.6-2,1.6a136.66,136.66,0,0,0-14.6,39.7,2.16,2.16,0,0,0,1,2.7c4.9,3.1,9.6,6.5,14.6,9.3,2.8,1.6,4.2,3.6,3.5,7.3a11.5,11.5,0,0,0,.1,3.7,4.27,4.27,0,0,1-1.6,3.9c-5.5,5-11,10.1-16.4,15.3a4.18,4.18,0,0,0-1.2,2.9,97.89,97.89,0,0,0,14.4,35.9A3.82,3.82,0,0,0,911.2,1188.1Z" style="fill:none"/></clipPath></defs><path d="M1612.3,906.9c-29.7,228.3-197.9,187.4-452,228.2s-158.4,200-257.3,361.7-267.2-3.3-306.8-115.5-128.7-62.7-211.2-59.1-69.3-68-69.3-68c19.3-69.3,79.5-105.4,146.7-173.7,1.7-1.7,3.3-3.4,5-5.2,69.3-71.7-48.3-137.6-152.5-251.6-.6-.7-1.2-1.3-1.8-2-54.1-61-50.4-143.2-20.1-216.6h0c19.5-47.3,50-91,83.1-123,30.4-29.4,63-49,91.3-52.6,17.7-2.2,39.1-.6,63.2,3.8a602.3,602.3,0,0,1,62.7,15.6c5.5,1.6,11,3.4,16.7,5.1,116.8,37.4,260.7,104.5,357.2,129,48.6,12.3,90.6-2.7,132.3-28.5,12.8-7.9,25.6-16.9,38.6-26.4,26.2-19.2,53.1-40.7,82.1-60.4,13.2-9,26.9-17.7,41.2-25.6,33.2-18.4,69.6-32.9,111.1-38.8,5.1-.7,10.3-1.3,15.5-1.8,28.2-2.4,53.6,1.9,76.4,11.7,3.2,1.4,6.4,2.9,9.5,4.5a169.68,169.68,0,0,1,32.3,22.1c15.6,13.6,29.5,30.3,41.8,49.4a345,345,0,0,1,25.4,48.4c3.1,7.2,6,14.6,8.8,22.2C1618.8,660.1,1627.3,791.8,1612.3,906.9Z" style="fill:#ebf5fc"/><path d="M447.5,599.7c-6.4,1-12.5,1.9-18.5,2.8a43.53,43.53,0,0,0-6.3,1c-2.2.7-3.1-.3-4.2-2a120.63,120.63,0,0,1-16.4-39.8,3.1,3.1,0,0,1,1.4-3.6c6.5-4.6,12.9-9.3,19.3-14.2a6.1,6.1,0,0,0,1.6-3.2c.2-.9-.2-2,0-2.9,1.2-5.3-1.4-8.4-5.7-11.1-5.3-3.4-10.2-7.4-15.3-11a2.77,2.77,0,0,1-1.3-3.3A121.74,121.74,0,0,1,419,471.6c.9-1.4,1.9-1.5,3.3-1.3,7.9,1.3,15.8,2.4,23.6,3.7a3.13,3.13,0,0,0,3.5-1.1,8,8,0,0,1,2-2.1c5-3,4.8-7.3,3.8-12.3-1.3-6.1-2-12.2-3-18.4a2.68,2.68,0,0,1,1.4-3,122.29,122.29,0,0,1,40.5-16.9c1.6-.3,2.6-.1,3.6,1.3,4.6,6.5,9.3,12.9,14.2,19.3a5.45,5.45,0,0,0,3.2,1.6c1.2.3,2.5-.2,3.7,0,4.7,1,7.4-1.2,9.8-5,3.5-5.4,7.6-10.5,11.3-15.8a3.11,3.11,0,0,1,3.7-1.5A122.29,122.29,0,0,1,584.1,437a2.63,2.63,0,0,1,1.4,3c-1.4,8-2.6,16.1-3.8,24.2a4.36,4.36,0,0,0,1,3c1.2,1.4,2.8,2.5,3.9,4,2,2.8,4.3,3.2,7.5,2.5,7.1-1.4,14.3-2.3,21.5-3.5a2.69,2.69,0,0,1,3.1,1.4,118,118,0,0,1,16.9,41,3.74,3.74,0,0,1-1.3,2.9c-6.3,4.8-12.7,9.4-19.1,14a3.63,3.63,0,0,0-1.9,4,13.42,13.42,0,0,1,.1,4c-.8,3.9.8,6.3,4.1,8.4,5.9,3.8,11.3,8.2,17,12.3a2.63,2.63,0,0,1,1.2,3.1,121.74,121.74,0,0,1-16.9,40.8,2.82,2.82,0,0,1-3.2,1.4c-8-1.4-16.1-2.6-24.2-3.8a3.7,3.7,0,0,0-2.7.9q-3.15,2.85-6,6a4.1,4.1,0,0,0-.9,2.8c1.2,8.1,2.4,16.1,3.8,24.2a2.76,2.76,0,0,1-1.2,3.1,118,118,0,0,1-41,16.9,3.85,3.85,0,0,1-3-1.2c-4.8-6.4-9.5-12.8-14.1-19.3a3.87,3.87,0,0,0-3.8-1.8,18.82,18.82,0,0,1-5.3,0c-2.9-.4-4.7.5-6.3,3-4.1,6.1-8.7,11.9-12.9,17.9-1.1,1.5-2,1.7-3.8,1.4a121.89,121.89,0,0,1-39.8-16.4,3.52,3.52,0,0,1-1.9-4.1c1.4-7.9,2.6-15.9,3.7-23.9a3,3,0,0,0-.5-2.1c-2.2-2.3-4.5-4.6-6.8-6.8A9.75,9.75,0,0,1,447.5,599.7Zm71.2-113.9c-27.8-.1-51,22.8-51.2,50.5-.2,28.4,22.5,51.6,50.7,51.7a51.1,51.1,0,1,0,.5-102.2Z" style="fill:#9594c8"/><path d="M289.7,536.5c-3.3.5-6.4,1-9.4,1.5a30.62,30.62,0,0,0-3.2.5c-1.1.3-1.6-.1-2.1-1a62.37,62.37,0,0,1-8.4-20.3,1.49,1.49,0,0,1,.7-1.8c3.3-2.4,6.6-4.8,9.8-7.2.4-.3.6-1.1.8-1.6s-.1-1,0-1.5c.6-2.7-.7-4.3-2.9-5.6-2.7-1.7-5.2-3.8-7.8-5.6a1.48,1.48,0,0,1-.7-1.7,62.35,62.35,0,0,1,8.6-20.8,1.35,1.35,0,0,1,1.7-.6c4,.6,8,1.2,12,1.9a1.72,1.72,0,0,0,1.8-.6,5.24,5.24,0,0,1,1-1.1c2.5-1.5,2.5-3.7,1.9-6.3-.7-3.1-1-6.2-1.5-9.4a1.34,1.34,0,0,1,.7-1.5,62.2,62.2,0,0,1,20.6-8.6,1.49,1.49,0,0,1,1.8.7c2.4,3.3,4.8,6.6,7.2,9.8a2.72,2.72,0,0,0,1.6.8c.6.1,1.3-.1,1.9,0,2.4.5,3.8-.6,5-2.6,1.8-2.8,3.9-5.3,5.8-8a1.62,1.62,0,0,1,1.9-.8,61.34,61.34,0,0,1,20.6,8.6,1.34,1.34,0,0,1,.7,1.5c-.7,4.1-1.3,8.2-1.9,12.3a2.1,2.1,0,0,0,.5,1.5c.6.7,1.4,1.3,2,2,1,1.4,2.2,1.6,3.8,1.3,3.6-.7,7.3-1.2,11-1.8a1.48,1.48,0,0,1,1.6.7,58.94,58.94,0,0,1,8.6,20.9,1.93,1.93,0,0,1-.7,1.5c-3.2,2.4-6.5,4.8-9.7,7.1a2,2,0,0,0-1,2,4.49,4.49,0,0,1,0,2c-.4,2,.4,3.2,2.1,4.3,3,2,5.8,4.2,8.7,6.3a1.3,1.3,0,0,1,.6,1.6,63.22,63.22,0,0,1-8.6,20.8,1.35,1.35,0,0,1-1.6.7c-4.1-.7-8.2-1.3-12.3-1.9a2,2,0,0,0-1.4.5c-1.1,1-2.1,2-3.1,3.1a1.79,1.79,0,0,0-.4,1.4c.6,4.1,1.2,8.2,1.9,12.3a1.48,1.48,0,0,1-.6,1.6,58.94,58.94,0,0,1-20.9,8.6,1.72,1.72,0,0,1-1.5-.6c-2.5-3.2-4.9-6.5-7.2-9.8a1.89,1.89,0,0,0-1.9-.9,8.16,8.16,0,0,1-2.7,0,3,3,0,0,0-3.2,1.5c-2.1,3.1-4.4,6.1-6.6,9.1a1.47,1.47,0,0,1-1.9.7,62.37,62.37,0,0,1-20.3-8.4,1.72,1.72,0,0,1-.9-2.1c.7-4,1.3-8.1,1.9-12.2a1.19,1.19,0,0,0-.3-1.1c-1.1-1.2-2.3-2.3-3.4-3.5A1.17,1.17,0,0,1,289.7,536.5Zm36.2-58a26.05,26.05,0,1,0,26,26.2A26.1,26.1,0,0,0,325.9,478.5Z" style="fill:#9594c8"/><path d="M329.6,646.6q-3.15.45-6,.9a15.17,15.17,0,0,0-2.1.3c-.7.2-1-.1-1.4-.6a41.19,41.19,0,0,1-5.4-13,1.06,1.06,0,0,1,.5-1.2c2.1-1.5,4.2-3,6.3-4.6.3-.2.4-.7.5-1.1s-.1-.6,0-.9c.4-1.7-.5-2.7-1.9-3.6-1.7-1.1-3.3-2.4-5-3.6a1,1,0,0,1-.4-1.1,39.87,39.87,0,0,1,5.5-13.3c.3-.5.6-.5,1.1-.4l7.7,1.2a1,1,0,0,0,1.1-.4,2.34,2.34,0,0,1,.7-.7c1.6-1,1.6-2.4,1.2-4-.4-2-.7-4-1-6-.1-.5.1-.7.5-1a40.24,40.24,0,0,1,13.2-5.5,1.15,1.15,0,0,1,1.2.4c1.5,2.1,3,4.2,4.6,6.3.2.3.7.4,1,.5s.8-.1,1.2,0c1.5.3,2.4-.4,3.2-1.6,1.1-1.8,2.5-3.4,3.7-5.1a1,1,0,0,1,1.2-.5,41.52,41.52,0,0,1,13.2,5.5.82.82,0,0,1,.4,1c-.4,2.6-.9,5.3-1.2,7.9a1.93,1.93,0,0,0,.3,1c.4.5.9.8,1.3,1.3a2.14,2.14,0,0,0,2.5.8c2.3-.5,4.7-.8,7-1.1a.82.82,0,0,1,1,.4,38.39,38.39,0,0,1,5.5,13.4c.1.3-.2.8-.4,1-2.1,1.6-4.1,3.1-6.2,4.6a1.14,1.14,0,0,0-.6,1.3,2.85,2.85,0,0,1,0,1.3c-.3,1.3.3,2,1.3,2.8,1.9,1.3,3.7,2.7,5.6,4a.86.86,0,0,1,.4,1,39.87,39.87,0,0,1-5.5,13.3.9.9,0,0,1-1.1.4c-2.6-.4-5.3-.9-7.9-1.2a1.4,1.4,0,0,0-.9.3c-.7.6-1.3,1.3-2,2a1.4,1.4,0,0,0-.3.9c.4,2.6.8,5.3,1.2,7.9a.82.82,0,0,1-.4,1,38.39,38.39,0,0,1-13.4,5.5c-.3.1-.8-.2-1-.4-1.6-2.1-3.1-4.2-4.6-6.3a1.22,1.22,0,0,0-1.2-.6,4.84,4.84,0,0,1-1.7,0,2.09,2.09,0,0,0-2.1,1c-1.4,2-2.8,3.9-4.2,5.8a.87.87,0,0,1-1.2.4,38.16,38.16,0,0,1-13-5.4,1.14,1.14,0,0,1-.6-1.3c.5-2.6.8-5.2,1.2-7.8a1,1,0,0,0-.2-.7c-.7-.8-1.5-1.5-2.2-2.2C329.9,646.7,329.7,646.6,329.6,646.6Zm23.2-37.2a16.7,16.7,0,1,0,16.7,16.8A16.69,16.69,0,0,0,352.8,609.4Z" style="fill:#9594c8"/><path d="M456.4,609.7c-6.4,1-12.5,1.9-18.5,2.8a43.53,43.53,0,0,0-6.3,1c-2.2.7-3.1-.3-4.2-2A120.63,120.63,0,0,1,411,571.7a3.1,3.1,0,0,1,1.4-3.6c6.5-4.6,12.9-9.3,19.3-14.2a6.1,6.1,0,0,0,1.6-3.2c.2-.9-.2-2,0-2.9,1.2-5.3-1.4-8.4-5.7-11.1-5.3-3.4-10.2-7.4-15.3-11a2.77,2.77,0,0,1-1.3-3.3,121.74,121.74,0,0,1,16.9-40.8c.9-1.4,1.9-1.5,3.3-1.3,7.9,1.3,15.8,2.4,23.6,3.7a3.13,3.13,0,0,0,3.5-1.1,8,8,0,0,1,2-2.1c5-3,4.8-7.3,3.8-12.3-1.3-6.1-2-12.2-3-18.4a2.68,2.68,0,0,1,1.4-3A122.29,122.29,0,0,1,503,430.2c1.6-.3,2.6-.1,3.6,1.3,4.6,6.5,9.3,12.9,14.2,19.3a5.45,5.45,0,0,0,3.2,1.6c1.2.3,2.5-.2,3.7,0,4.7,1,7.4-1.2,9.8-5,3.5-5.4,7.6-10.5,11.3-15.8a3.11,3.11,0,0,1,3.7-1.5A122.29,122.29,0,0,1,593,447a2.63,2.63,0,0,1,1.4,3c-1.4,8-2.6,16.1-3.8,24.2a4.36,4.36,0,0,0,1,3c1.2,1.4,2.8,2.5,3.9,4,2,2.8,4.3,3.2,7.5,2.5,7.1-1.4,14.3-2.3,21.5-3.5a2.69,2.69,0,0,1,3.1,1.4,118,118,0,0,1,16.9,41,3.74,3.74,0,0,1-1.3,2.9c-6.3,4.8-12.7,9.4-19.1,14a3.63,3.63,0,0,0-1.9,4,13.42,13.42,0,0,1,.1,4c-.8,3.9.8,6.3,4.1,8.4,5.9,3.8,11.3,8.2,17,12.3a2.63,2.63,0,0,1,1.2,3.1,121.74,121.74,0,0,1-16.9,40.8,2.82,2.82,0,0,1-3.2,1.4c-8-1.4-16.1-2.6-24.2-3.8a3.7,3.7,0,0,0-2.7.9q-3.15,2.85-6,6a4.1,4.1,0,0,0-.9,2.8c1.2,8.1,2.4,16.1,3.8,24.2a2.76,2.76,0,0,1-1.2,3.1,118,118,0,0,1-41,16.9,3.85,3.85,0,0,1-3-1.2c-4.8-6.4-9.5-12.8-14.1-19.3a3.87,3.87,0,0,0-3.8-1.8,18.82,18.82,0,0,1-5.3,0c-2.9-.4-4.7.5-6.3,3-4.1,6.1-8.7,11.9-12.9,17.9-1.1,1.5-2,1.7-3.8,1.4a121.89,121.89,0,0,1-39.8-16.4,3.52,3.52,0,0,1-1.9-4.1c1.4-7.9,2.6-15.9,3.7-23.9a3,3,0,0,0-.5-2.1c-2.2-2.3-4.5-4.6-6.8-6.8A11.32,11.32,0,0,1,456.4,609.7Zm71.2-113.9c-27.8-.1-51,22.8-51.2,50.5-.2,28.4,22.5,51.6,50.7,51.7a51.1,51.1,0,1,0,.5-102.2Z" style="fill:#c9ddf2"/><path d="M298.5,546.5c-3.3.5-6.4,1-9.4,1.5a30.62,30.62,0,0,0-3.2.5c-1.1.3-1.6-.1-2.1-1a62.37,62.37,0,0,1-8.4-20.3,1.49,1.49,0,0,1,.7-1.8c3.3-2.4,6.6-4.8,9.8-7.2.4-.3.6-1.1.8-1.6s-.1-1,0-1.5c.6-2.7-.7-4.3-2.9-5.6-2.7-1.7-5.2-3.8-7.8-5.6a1.48,1.48,0,0,1-.7-1.7,62.35,62.35,0,0,1,8.6-20.8,1.35,1.35,0,0,1,1.7-.6c4,.6,8,1.2,12,1.9a1.72,1.72,0,0,0,1.8-.6,5.24,5.24,0,0,1,1-1.1c2.5-1.5,2.5-3.7,1.9-6.3-.7-3.1-1-6.2-1.5-9.4a1.34,1.34,0,0,1,.7-1.5,62.2,62.2,0,0,1,20.6-8.6,1.49,1.49,0,0,1,1.8.7c2.4,3.3,4.8,6.6,7.2,9.8a2.72,2.72,0,0,0,1.6.8c.6.1,1.3-.1,1.9,0,2.4.5,3.8-.6,5-2.6,1.8-2.8,3.9-5.3,5.8-8a1.62,1.62,0,0,1,1.9-.8,61.34,61.34,0,0,1,20.6,8.6,1.34,1.34,0,0,1,.7,1.5c-.7,4.1-1.3,8.2-1.9,12.3a2.1,2.1,0,0,0,.5,1.5c.6.7,1.4,1.3,2,2,1,1.4,2.2,1.6,3.8,1.3,3.6-.7,7.3-1.2,11-1.8a1.48,1.48,0,0,1,1.6.7,58.94,58.94,0,0,1,8.6,20.9,1.93,1.93,0,0,1-.7,1.5c-3.2,2.4-6.5,4.8-9.7,7.1a2,2,0,0,0-1,2,4.49,4.49,0,0,1,0,2c-.4,2,.4,3.2,2.1,4.3,3,2,5.8,4.2,8.7,6.3a1.3,1.3,0,0,1,.6,1.6,63.22,63.22,0,0,1-8.6,20.8,1.35,1.35,0,0,1-1.6.7c-4.1-.7-8.2-1.3-12.3-1.9a2,2,0,0,0-1.4.5c-1.1,1-2.1,2-3.1,3.1a1.79,1.79,0,0,0-.4,1.4c.6,4.1,1.2,8.2,1.9,12.3a1.48,1.48,0,0,1-.6,1.6,58.94,58.94,0,0,1-20.9,8.6,1.72,1.72,0,0,1-1.5-.6c-2.5-3.2-4.9-6.5-7.2-9.8a1.89,1.89,0,0,0-1.9-.9,8.16,8.16,0,0,1-2.7,0,3,3,0,0,0-3.2,1.5c-2.1,3.1-4.4,6.1-6.6,9.1a1.47,1.47,0,0,1-1.9.7,62.37,62.37,0,0,1-20.3-8.4,1.72,1.72,0,0,1-.9-2.1c.7-4,1.3-8.1,1.9-12.2a1.19,1.19,0,0,0-.3-1.1c-1.1-1.2-2.3-2.3-3.4-3.5A1.17,1.17,0,0,1,298.5,546.5Zm36.3-58a26.05,26.05,0,1,0,26,26.2A26.1,26.1,0,0,0,334.8,488.5Z" style="fill:#c9ddf2"/><path d="M336.6,654.5q-3.15.45-6,.9a15.17,15.17,0,0,0-2.1.3c-.7.2-1-.1-1.4-.6a41.19,41.19,0,0,1-5.4-13,1.06,1.06,0,0,1,.5-1.2c2.1-1.5,4.2-3,6.3-4.6.3-.2.4-.7.5-1.1s-.1-.6,0-.9c.4-1.7-.5-2.7-1.9-3.6-1.7-1.1-3.3-2.4-5-3.6a1,1,0,0,1-.4-1.1,39.87,39.87,0,0,1,5.5-13.3c.3-.5.6-.5,1.1-.4l7.7,1.2a1,1,0,0,0,1.1-.4,2.34,2.34,0,0,1,.7-.7c1.6-1,1.6-2.4,1.2-4-.4-2-.7-4-1-6-.1-.5.1-.7.5-1a40.24,40.24,0,0,1,13.2-5.5,1.15,1.15,0,0,1,1.2.4c1.5,2.1,3,4.2,4.6,6.3.2.3.7.4,1,.5s.8-.1,1.2,0c1.5.3,2.4-.4,3.2-1.6,1.1-1.8,2.5-3.4,3.7-5.1a1,1,0,0,1,1.2-.5,41.52,41.52,0,0,1,13.2,5.5.82.82,0,0,1,.4,1c-.4,2.6-.9,5.3-1.2,7.9a1.93,1.93,0,0,0,.3,1c.4.5.9.8,1.3,1.3a2.14,2.14,0,0,0,2.5.8c2.3-.5,4.7-.8,7-1.1a.82.82,0,0,1,1,.4,38.39,38.39,0,0,1,5.5,13.4c.1.3-.2.8-.4,1-2.1,1.6-4.1,3.1-6.2,4.6a1.14,1.14,0,0,0-.6,1.3,2.85,2.85,0,0,1,0,1.3c-.3,1.3.3,2,1.3,2.8,1.9,1.3,3.7,2.7,5.6,4a.86.86,0,0,1,.4,1,39.87,39.87,0,0,1-5.5,13.3.9.9,0,0,1-1.1.4c-2.6-.4-5.3-.9-7.9-1.2a1.4,1.4,0,0,0-.9.3c-.7.6-1.3,1.3-2,2a1.4,1.4,0,0,0-.3.9c.4,2.6.8,5.3,1.2,7.9a.82.82,0,0,1-.4,1,38.39,38.39,0,0,1-13.4,5.5c-.3.1-.8-.2-1-.4-1.6-2.1-3.1-4.2-4.6-6.3a1.22,1.22,0,0,0-1.2-.6,4.84,4.84,0,0,1-1.7,0,2.09,2.09,0,0,0-2.1,1c-1.4,2-2.8,3.9-4.2,5.8a.87.87,0,0,1-1.2.4,38.16,38.16,0,0,1-13-5.4,1.14,1.14,0,0,1-.6-1.3c.5-2.6.8-5.2,1.2-7.8a1,1,0,0,0-.2-.7c-.7-.8-1.5-1.5-2.2-2.2C336.8,654.6,336.6,654.5,336.6,654.5Zm23.2-37.2a16.7,16.7,0,1,0,16.7,16.8A16.69,16.69,0,0,0,359.8,617.3Z" style="fill:#c9ddf2"/><path d="M1314.7,551.8c4-.6,7.8-1.2,11.6-1.8,1.3-.2,2.7-.3,3.9-.6,1.4-.4,2,.2,2.6,1.2a77.71,77.71,0,0,1,10.3,24.9,1.83,1.83,0,0,1-.9,2.2c-4.1,2.9-8.1,5.8-12.1,8.8a4.21,4.21,0,0,0-1,2c-.2.6.1,1.2,0,1.8-.7,3.3.9,5.2,3.6,6.9,3.3,2.1,6.4,4.6,9.6,6.9a1.81,1.81,0,0,1,.8,2.1,77.12,77.12,0,0,1-10.6,25.5,1.81,1.81,0,0,1-2.1.8c-4.9-.8-9.9-1.5-14.8-2.3a2.05,2.05,0,0,0-2.2.7,4,4,0,0,1-1.3,1.3c-3.1,1.9-3,4.6-2.4,7.7.8,3.8,1.3,7.7,1.9,11.5a1.57,1.57,0,0,1-.9,1.9,73.06,73.06,0,0,1-25.3,10.5,1.78,1.78,0,0,1-2.2-.8c-2.9-4.1-5.8-8.1-8.8-12.1a3.48,3.48,0,0,0-2-1,17.65,17.65,0,0,0-2.3,0c-2.9-.6-4.6.7-6.1,3.1-2.2,3.4-4.8,6.5-7.1,9.8a2,2,0,0,1-2.3,1,75.24,75.24,0,0,1-25.3-10.6,1.48,1.48,0,0,1-.8-1.9c.8-5,1.6-10.1,2.4-15.1a2.7,2.7,0,0,0-.6-1.9c-.7-.9-1.8-1.6-2.4-2.5-1.2-1.7-2.7-2-4.7-1.6-4.5.9-9,1.5-13.4,2.2a1.75,1.75,0,0,1-1.9-.8,72.35,72.35,0,0,1-10.5-25.7,2.5,2.5,0,0,1,.8-1.8c3.9-3,7.9-5.9,11.9-8.8a2.35,2.35,0,0,0,1.2-2.5,7,7,0,0,1,0-2.5c.5-2.5-.5-3.9-2.6-5.3-3.7-2.4-7.1-5.1-10.7-7.7a1.51,1.51,0,0,1-.7-1.9,77.12,77.12,0,0,1,10.6-25.5,1.75,1.75,0,0,1,2-.9c5,.9,10.1,1.6,15.1,2.4a2.24,2.24,0,0,0,1.7-.6,45.42,45.42,0,0,0,3.8-3.8,2.16,2.16,0,0,0,.5-1.7c-.7-5-1.5-10.1-2.4-15.1a1.62,1.62,0,0,1,.8-1.9,74.74,74.74,0,0,1,25.6-10.6,2.36,2.36,0,0,1,1.9.8c3,4,6,8,8.8,12.1a2.22,2.22,0,0,0,2.3,1.1,12.16,12.16,0,0,1,3.3,0c1.8.3,2.9-.3,4-1.9,2.6-3.8,5.4-7.4,8.1-11.2a1.83,1.83,0,0,1,2.3-.8,75.52,75.52,0,0,1,24.9,10.3,2.22,2.22,0,0,1,1.2,2.5c-.9,5-1.6,10-2.3,14.9a1.52,1.52,0,0,0,.3,1.3q2.1,2.25,4.2,4.2A1.4,1.4,0,0,0,1314.7,551.8ZM1270.2,623a32,32,0,1,0-31.9-32.2A32,32,0,0,0,1270.2,623Z" style="fill:#fff"/><path d="M1572.9,538c.1-.1.3-.2.4-.3a334.73,334.73,0,0,0-25.4-48.4A58.5,58.5,0,0,1,1437.4,462a58.29,58.29,0,0,1,27-48.8c-22.7-9.8-48.2-14.2-76.4-11.7-5.3.5-10.4,1-15.5,1.8a137.34,137.34,0,0,0-10.5,30.9,3.1,3.1,0,0,0,1.4,3.6c6.5,4.7,12.8,9.7,19.5,14.1,3.8,2.5,5.6,5.1,4.7,9.7a14.21,14.21,0,0,0,.1,4.6c.3,2.1-.5,3.3-2.2,4.5-7.4,5.3-14.7,10.6-21.9,16.1a4.29,4.29,0,0,0-1.5,3.4,134.38,134.38,0,0,0,19.3,47,3.15,3.15,0,0,0,3.5,1.6c8.2-1.4,16.5-2.4,24.6-4,3.7-.7,6.4-.3,8.6,2.9,1.2,1.7,3.1,2.9,4.5,4.6a5.33,5.33,0,0,1,1.1,3.4c-1.3,9.2-2.8,18.5-4.3,27.7a2.91,2.91,0,0,0,1.5,3.4,140.4,140.4,0,0,0,46.4,19.4c2,.4,3.1-.1,4.3-1.8,4.3-6.1,9-11.8,13-18.1,2.8-4.4,5.9-6.9,11.3-5.7,1.4.3,2.9-.3,4.2,0a6.93,6.93,0,0,1,3.7,1.9c5.5,7.3,10.9,14.7,16.2,22.1a3.44,3.44,0,0,0,4.1,1.5,138.12,138.12,0,0,0,46.4-19.3,3,3,0,0,0,1.6-3.5c-1.2-7-2-14.1-3.5-21C1567.3,546.4,1567.2,541.4,1572.9,538Z" style="fill:#fff"/><path d="M1462.5,667.4c2.6-.4,5.1-.8,7.6-1.2a20.24,20.24,0,0,0,2.6-.4c.9-.3,1.3.1,1.7.8a51.35,51.35,0,0,1,6.8,16.4,1.29,1.29,0,0,1-.6,1.5c-2.7,1.9-5.3,3.8-8,5.8-.4.3-.5.9-.7,1.3s.1.8,0,1.2c-.5,2.2.6,3.5,2.3,4.6,2.2,1.4,4.2,3,6.3,4.5a1.15,1.15,0,0,1,.5,1.4,49.58,49.58,0,0,1-7,16.8,1.15,1.15,0,0,1-1.4.5l-9.7-1.5a1.28,1.28,0,0,0-1.4.5,3.45,3.45,0,0,1-.8.9c-2.1,1.2-2,3-1.5,5.1.5,2.5.8,5,1.3,7.6a1,1,0,0,1-.6,1.2,50.06,50.06,0,0,1-16.7,6.9,1.44,1.44,0,0,1-1.5-.5c-1.9-2.7-3.8-5.3-5.8-8a2.09,2.09,0,0,0-1.3-.7c-.5-.1-1,.1-1.5,0-1.9-.4-3,.5-4.1,2.1-1.4,2.2-3.1,4.3-4.7,6.5a1.18,1.18,0,0,1-1.5.6,49.08,49.08,0,0,1-16.7-7,1,1,0,0,1-.6-1.2c.6-3.3,1.1-6.6,1.5-10a1.37,1.37,0,0,0-.4-1.2c-.5-.6-1.2-1-1.6-1.6a2.85,2.85,0,0,0-3.1-1.1c-2.9.6-5.9,1-8.9,1.4a1.2,1.2,0,0,1-1.3-.6,49.25,49.25,0,0,1-7-16.9,1.35,1.35,0,0,1,.5-1.2c2.6-2,5.2-3.9,7.9-5.8a1.55,1.55,0,0,0,.8-1.6,4.3,4.3,0,0,1,0-1.6,3.09,3.09,0,0,0-1.7-3.5c-2.4-1.6-4.7-3.4-7-5.1a1.14,1.14,0,0,1-.5-1.3,49.58,49.58,0,0,1,7-16.8,1.2,1.2,0,0,1,1.3-.6c3.3.6,6.6,1.1,10,1.6a1.19,1.19,0,0,0,1.1-.4,29.49,29.49,0,0,0,2.5-2.5,2.46,2.46,0,0,0,.4-1.1c-.5-3.3-1-6.6-1.6-10a1.14,1.14,0,0,1,.5-1.3,49.25,49.25,0,0,1,16.9-7,1.35,1.35,0,0,1,1.2.5c2,2.6,3.9,5.3,5.8,8a1.34,1.34,0,0,0,1.5.7,8.1,8.1,0,0,1,2.2,0,2.35,2.35,0,0,0,2.6-1.2c1.7-2.5,3.6-4.9,5.3-7.4a1.29,1.29,0,0,1,1.5-.6,49.18,49.18,0,0,1,16.4,6.8,1.43,1.43,0,0,1,.8,1.7c-.6,3.3-1.1,6.6-1.5,9.8a1.34,1.34,0,0,0,.2.9,37,37,0,0,0,2.8,2.8C1462.1,667.2,1462.4,667.3,1462.5,667.4Zm-29.4,46.9a21.05,21.05,0,1,0-21-21.2A21.11,21.11,0,0,0,1433.1,714.3Z" style="fill:#fff"/><path d="M640.1,1143.8c4.8-.7,9.3-1.4,13.8-2.1a24.3,24.3,0,0,0,4.7-.8c1.6-.5,2.3.2,3.1,1.5a91.7,91.7,0,0,1,12.3,29.8,2.29,2.29,0,0,1-1,2.7c-4.9,3.5-9.7,7-14.4,10.6a4.56,4.56,0,0,0-1.2,2.4,16.15,16.15,0,0,0,0,2.2c-.9,4,1.1,6.3,4.3,8.3,4,2.5,7.6,5.5,11.5,8.2a2.15,2.15,0,0,1,1,2.5,93.81,93.81,0,0,1-12.6,30.5c-.7,1.1-1.4,1.1-2.5.9-5.9-.9-11.8-1.8-17.7-2.8a2.33,2.33,0,0,0-2.6.8,5.72,5.72,0,0,1-1.5,1.6c-3.7,2.3-3.6,5.5-2.8,9.2,1,4.5,1.5,9.1,2.3,13.7a2,2,0,0,1-1,2.3,89.81,89.81,0,0,1-30.3,12.6,2.17,2.17,0,0,1-2.7-1c-3.5-4.9-7-9.7-10.6-14.4a4.56,4.56,0,0,0-2.4-1.2c-.9-.2-1.9.2-2.8,0-3.5-.7-5.5.9-7.3,3.8-2.6,4.1-5.7,7.8-8.5,11.8a2.31,2.31,0,0,1-2.8,1.1,91.52,91.52,0,0,1-30.3-12.6,1.84,1.84,0,0,1-1-2.2c1-6,2-12,2.8-18.1a3.6,3.6,0,0,0-.7-2.2c-.9-1.1-2.1-1.9-2.9-3-1.5-2.1-3.2-2.4-5.6-1.9-5.3,1-10.7,1.7-16.1,2.6a2,2,0,0,1-2.3-1,87.1,87.1,0,0,1-12.6-30.7,2.7,2.7,0,0,1,1-2.2c4.7-3.6,9.5-7,14.3-10.5a2.82,2.82,0,0,0,1.4-3,10.07,10.07,0,0,1-.1-3c.6-2.9-.6-4.7-3.1-6.3-4.4-2.9-8.5-6.1-12.7-9.2a2,2,0,0,1-.9-2.3,91.67,91.67,0,0,1,12.6-30.5,2,2,0,0,1,2.4-1c6,1,12,1.9,18.1,2.8a2.61,2.61,0,0,0,2-.7,47.78,47.78,0,0,0,4.5-4.5,3.07,3.07,0,0,0,.6-2.1c-.9-6-1.8-12-2.8-18.1a1.91,1.91,0,0,1,.9-2.3,87.1,87.1,0,0,1,30.7-12.6,2.94,2.94,0,0,1,2.2.9c3.6,4.8,7.1,9.6,10.6,14.4a2.55,2.55,0,0,0,2.8,1.3,17.83,17.83,0,0,1,4,0,4.3,4.3,0,0,0,4.7-2.2c3.1-4.5,6.5-8.9,9.7-13.4a2.26,2.26,0,0,1,2.8-1,89.56,89.56,0,0,1,29.8,12.3c1.2.8,1.7,1.5,1.4,3-1,5.9-1.9,11.9-2.8,17.9a1.88,1.88,0,0,0,.4,1.6c1.6,1.7,3.3,3.4,5,5.1C639.4,1143.6,639.9,1143.7,640.1,1143.8Zm-53.2,85.1a38.2,38.2,0,1,0-38.1-38.5A38.38,38.38,0,0,0,586.9,1228.9Z" style="fill:#fff"/><path d="M461.8,1204.5c3.2-.5,6.1-.9,9.1-1.4,1-.2,2.1-.2,3.1-.5s1.5.1,2.1,1a61.18,61.18,0,0,1,8.1,19.6,1.33,1.33,0,0,1-.7,1.7c-3.2,2.3-6.4,4.6-9.5,7a3.45,3.45,0,0,0-.8,1.6c-.1.4.1,1,0,1.4-.6,2.6.7,4.1,2.8,5.5,2.6,1.7,5,3.6,7.6,5.4a1.34,1.34,0,0,1,.6,1.6,59.05,59.05,0,0,1-8.3,20.1,1.34,1.34,0,0,1-1.6.6c-3.9-.6-7.8-1.2-11.6-1.8a1.63,1.63,0,0,0-1.7.6,3.18,3.18,0,0,1-1,1c-2.5,1.5-2.4,3.6-1.9,6.1.6,3,1,6,1.5,9a1.34,1.34,0,0,1-.7,1.5,59.73,59.73,0,0,1-20,8.3,1.49,1.49,0,0,1-1.8-.7c-2.3-3.2-4.6-6.4-7-9.5a2.72,2.72,0,0,0-1.6-.8c-.6-.1-1.2.1-1.8,0-2.3-.5-3.6.6-4.8,2.5-1.7,2.7-3.7,5.2-5.6,7.8a1.68,1.68,0,0,1-1.8.8,60.09,60.09,0,0,1-19.9-8.3,1.29,1.29,0,0,1-.7-1.5c.7-4,1.3-7.9,1.9-11.9a2.1,2.1,0,0,0-.5-1.5,18,18,0,0,1-1.9-2c-1-1.4-2.1-1.6-3.7-1.3-3.5.7-7.1,1.1-10.6,1.7a1.34,1.34,0,0,1-1.5-.7,59.55,59.55,0,0,1-8.3-20.2,1.62,1.62,0,0,1,.7-1.4c3.1-2.3,6.2-4.6,9.4-6.9a1.81,1.81,0,0,0,.9-2,4.49,4.49,0,0,1,0-2c.4-1.9-.4-3.1-2-4.1-2.9-1.9-5.6-4.1-8.4-6.1a1.29,1.29,0,0,1-.6-1.5,61.12,61.12,0,0,1,8.3-20.1c.4-.7.8-.8,1.6-.7,4,.7,7.9,1.3,11.9,1.9a1.66,1.66,0,0,0,1.3-.5q1.5-1.35,3-3a1.69,1.69,0,0,0,.4-1.4c-.6-4-1.2-7.9-1.9-11.9a1.29,1.29,0,0,1,.6-1.5,56.84,56.84,0,0,1,20.2-8.3,1.83,1.83,0,0,1,1.5.6c2.4,3.1,4.7,6.3,7,9.5a1.82,1.82,0,0,0,1.9.9,11.29,11.29,0,0,1,2.6,0,2.88,2.88,0,0,0,3.1-1.5c2-3,4.3-5.9,6.4-8.8a1.7,1.7,0,0,1,1.9-.7,58.15,58.15,0,0,1,19.6,8.1,1.64,1.64,0,0,1,.9,2c-.7,3.9-1.3,7.8-1.8,11.8,0,.3,0,.8.2,1,1.1,1.2,2.2,2.2,3.3,3.3A1,1,0,0,0,461.8,1204.5Zm-35.1,56.1a25.2,25.2,0,1,0-25.1-25.4A25.22,25.22,0,0,0,426.7,1260.6Z" style="fill:#fff"/><path d="M1027.2,1719.6s147.8,1.2,211.2,0,98.6-18,63.9-21-250.5-21-262.8,0Z" style="fill:#c9ddf2"/><path d="M791.6,1678.8a14.07,14.07,0,0,0,12.1,21.2c44.6.3,139.4.8,186.8-.2,63.4-1.2,98.6-18,63.9-21s-250.6-21-262.8,0Z" style="fill:#c9ddf2"/><path d="M942.9,1576.8s5,50.9,8.4,65.9c3.7,16.3,12.8,44.9-4,45.2S786.2,1703,786,1692.5s-5.5-21.3,8.4-24.4,62.7-6.7,80.9-13c25.7-8.9,35.9-22.4,34.4-30s-4.4-47.5-4.4-47.5Z" style="fill:#394480"/><path d="M786,1692.5s-3.1-4.5-.1-6.1,37.2,6.7,62,4.8,108.4-5,108.8-11.8l.8,14s-166.2,9-171.4,3.4Z" style="fill:#2d3166"/><path d="M860.2,1659.3c7.8-8,21.3-6,24.7,5.2.9,3.1,5.8,1.8,4.8-1.3-4.5-14.8-22.5-18.1-33.1-7.4-2.2,2.3,1.3,5.8,3.6,3.5Z" style="fill:#2d3166"/><path d="M831.5,1662.5c1.5-4.4,12.8-3.4,16-2.4,5.5,1.8,9.7,6.4,9.9,12.3.1,3.2,5.1,3.2,5,0A19.06,19.06,0,0,0,848,1655c-6.3-1.7-18.9-1.5-21.4,6.1-.9,3.2,3.9,4.5,4.9,1.4Z" style="fill:#2d3166"/><path d="M981.3,759.5s-32.2,11-32.9,17.4,0,88.2,0,88.2l37.1-98.6,2.8-8.3Z" style="fill:#f69d79"/><path d="M1031,755.9s-32-2.8-31,1.3,2.9,10.9,2.9,10.9l15.5,8.8Z" style="fill:#f69d79"/><path d="M860.7,221.4,765,808.9l-25.9,36.5L170.4,1096.2S-71.3,721.4,150.5,400.9,860.7,221.4,860.7,221.4Z" style="fill:url(#a)"/><path d="M1006.7,1128.9l-49.1,486.5s-64.9,24.7-77.4,3.9,62.7-574.1,62.7-574.1Z" style="fill:#2d3166"/><path d="M985,1075.8s-1.3,48.6,6.6,50.4,32.7,5.6,34.8-1-13.8-50.2-13.8-50.2Z" style="fill:#e57e80"/><path d="M1150.5,1570.5s-57.2,29.5-81.1,23.8c-11.8-2.8-70.5-121.9-97.8-248.3-1-4.8-2-9.5-3-14.3-6-29.8-11-60.1-15-88.9-1.1-7.7-2.1-15.4-3-22.8-10.4-81.7-13.2-146.3-13.2-146.3l46.7-2.3h0l31.5-1.6,27.2-1.4s-1,58.7,4.3,134.6c.5,6.7,1,13.6,1.6,20.5,3.1,37.8,4.1,30.1,4.1,87.4,0,0,55.1,164.6,77.8,215.9C1142.1,1553,1150.5,1570.5,1150.5,1570.5Z" style="fill:#394480"/><path d="M1006.4,720.2s-6.3,39.6,2.5,53.9-20.2,7.6-27.9,6.6,6.1-38.9,9.8-59.3S1006.4,720.2,1006.4,720.2Z" style="fill:#d37477"/><path d="M983.5,800.7s-15.4.5-23.1,26.5S864.3,1079,864.3,1079s103.2,6.3,117.1-4.7S1006.6,794,1006.6,794l-8.3-23.8Z" style="fill:#f69d79"/><polygon points="951.5 880.1 864.7 880.1 845.2 913.6 950.9 946.2 951.5 880.1" style="fill:#f69d79"/><polygon points="821.2 883.2 831.3 869.8 791.2 847 783.8 854.4 821.2 883.2" style="fill:#394480"/><polygon points="764.7 844.2 739.1 845.4 765 808.9 780.6 839.3 764.7 844.2" style="fill:#394480"/><path d="M988.3,762.2c9.3-4.8,20.5,9.4,30.1,5.4,8.6-3.6,12-19.2,13.9-7.6,2.7,16.8-.4,123.9,17.8,195.5,17.7,69.8,9.6,137.4,7.5,145-1.4,4.9-8.5,25.4-37.7,10.6-71.8-36.2-127.8,3.6-124-17.2,24.2-133.9,45.4-307.6,68.7-317C973.9,773.2,981.9,765.5,988.3,762.2Z" style="fill:#f9b17c"/><path d="M983.5,633.2c-1.8,1.9-3.7,3.8-5.6,5.6-11.1,10.3-44.2,44.5-26.7,71.1,15.1,22.8,57.8,22.4,67,5.6s34-62.3,15.1-72.2C1015.3,633.8,999.8,615.7,983.5,633.2Z" style="fill:#e57e80"/><path d="M969.1,647.7s-20.6,18.2-32.5,21.6c-9.6,2.8,12.3,23.8,17,15.6S969.1,647.7,969.1,647.7Z" style="fill:#e9595a"/><ellipse cx="986.39" cy="662.63" rx="12.7" ry="5.2" transform="matrix(0.56, -0.83, 0.83, 0.56, -114.26, 1110.52)" style="fill:#171339"/><circle cx="967.4" cy="706.5" r="5.8" style="fill:#171339"/><path d="M1020.5,647.9s-15.9-9.6-32.2-18.9c-31.5-17.9-19.4-25.6-4.1-30.4,59.4-18.6,35.8-6,55,17.9s18.4,35.2,27.5,34.9c29.1-.7-31.1,32.1-21.8,48.6,4.7,8.4-27.3,28.9-26.6,15.4s17.5-18,12.9-40.1S1020.5,647.9,1020.5,647.9Z" style="fill:#171338"/><path d="M1110.6,1540.6s28,42.8,38,54.5c10.8,12.7,32.2,33.8,17.4,41.9s-135.8,88-140.9,78.8-14.7-16.3-3.8-25.5,52.4-35,65.7-49c18.7-19.8,21.5-36.5,16.5-42.6s-25.9-40-25.9-40Z" style="fill:#394480"/><path d="M1025.1,1715.8s-4.8-2.6-2.9-5.3,36-11.3,57.2-24.5,93.7-54.7,90.9-60.9l7.2,12s-143.1,85-150.3,82.4Z" style="fill:#2d3166"/><path d="M1075.6,1652c3.2-10.8,16.1-15,24.4-6.7,2.3,2.3,5.8-1.2,3.5-3.5-10.9-11-28.4-5.4-32.7,8.9-1,3.1,3.9,4.4,4.8,1.3Z" style="fill:#2d3166"/><path d="M1051.7,1668.7c-.6-5.8,10.6-10.1,14.9-10.3a13.43,13.43,0,0,1,12.7,6.7c1.6,2.8,5.9.3,4.3-2.5a18.82,18.82,0,0,0-19.3-8.9c-6.5,1-18.5,7-17.6,15,.3,3.2,5.3,3.2,5,0Z" style="fill:#2d3166"/><ellipse cx="993.7" cy="689.4" rx="12.7" ry="5.7" style="fill:#e9595a"/><path d="M799.6,857.8v-1.3c2.5,1.1,6.3-2.1,6.3-2.1,6.8,5.9,10.4,1.3,10.4,1.3l-2.9-1.8a3.25,3.25,0,0,0,1.9-2.2s-4.9-7-8-7a15.56,15.56,0,0,0-2,.1l-4.7-5.6s-5.8.7-11.4,1.4c-3.3-2.6-7.2-5.4-9.3-5.5-3.4-.1-21.8,9.2-21.8,11s8.7,17,8.7,17l-1.3,6.1L826,890.8l11.6-14.7s-17.3,5.7-30.3-3.4A19.34,19.34,0,0,1,799.6,857.8Z" style="fill:#e57e80"/><polygon points="864.7 880.1 844.1 868.1 809.7 907.1 845.2 913.6 864.7 880.1" style="fill:#f9b17c"/><path d="M820.7,904.3c10.6,1.7,21.2,3.8,31.7,6.3.6.2.9-.8.3-1-10.5-2.5-21-4.6-31.7-6.3-.6-.1-.9.9-.3,1Z" style="fill:#f69d79"/><path d="M829.7,899.2c11,3.1,22,5.9,33.2,8.2.6.1.9-.8.3-1-11.2-2.3-22.2-5.1-33.2-8.2-.7-.1-1,.9-.3,1Z" style="fill:#f69d79"/><path d="M835.3,894.8c8.6,1.8,17.1,3.8,25.6,6.1.6.2.9-.8.3-1-8.5-2.3-17-4.3-25.6-6.1-.6-.1-.9.9-.3,1Z" style="fill:#f69d79"/><path d="M835.5,884.4a282.89,282.89,0,0,0,39.6,8.8c.6.1.9-.9.3-1a282.89,282.89,0,0,1-39.6-8.8c-.6-.1-.9.8-.3,1Z" style="fill:#f69d79"/><path d="M846.5,880.5c11,3.4,22.2,6.5,33.5,9.2.6.2.9-.8.3-1-11.3-2.7-22.4-5.8-33.5-9.2-.6-.2-.9.8-.3,1Z" style="fill:#f69d79"/><path d="M834.4,888.7c11.2,2.8,22.4,5.3,33.7,7.6.6.1.9-.8.3-1-11.3-2.3-22.5-4.8-33.7-7.6-.7-.1-1,.8-.3,1Z" style="fill:#f69d79"/><path d="M965.2,794.5a6.77,6.77,0,0,0-1,6c.5,1.7,3,2.6,4.2,1.1a9.29,9.29,0,0,0,2.2-6.6c-.2-1.7-2-3.3-3.8-2.2a8.12,8.12,0,0,0-3.3,4.4c1.6.2,3.3.4,4.9.7a12.1,12.1,0,0,1,.1-1.9,2.54,2.54,0,0,0-2.5-2.5,2.48,2.48,0,0,0-2.5,2.5,12.1,12.1,0,0,1-.1,1.9c-.1,2.8,4.2,3.4,4.9.7a1.87,1.87,0,0,1,1-1.4c-1.3-.7-2.5-1.4-3.8-2.2a4.24,4.24,0,0,1-.7,3.1c1.4.4,2.8.7,4.2,1.1a2.13,2.13,0,0,1,.5-2.1,2.47,2.47,0,0,0-.9-3.4,2.36,2.36,0,0,0-3.4.8Z" style="fill:#f69d79"/><path d="M960.8,825.9a6.23,6.23,0,0,0-1.8,7,2.61,2.61,0,0,0,4.2,1.1,7.65,7.65,0,0,0,2.8-6.6c-.4-3.1-5.1-4.6-6.1-1-.9,3.1,3.9,4.4,4.8,1.3,0-.1,0-.1.1-.2-.2.4-.4.7-.6,1.1l.1-.1c-.4.2-.7.4-1.1.6H962a1.34,1.34,0,0,1-.7-.6c-.2-.6-.2-.7-.2-.2.1-.2,0-.1,0,.2a1.42,1.42,0,0,1-.2.6,4.23,4.23,0,0,1-1.1,1.3c1.4.4,2.8.7,4.2,1.1-.1-.2-.1-.3-.2-.5s-.1-.4,0-.2c0-.4-.1,0,0-.5a2,2,0,0,1,.7-1,2.51,2.51,0,0,0,0-3.5,2.76,2.76,0,0,0-3.7.1Z" style="fill:#f69d79"/><path d="M957.4,856.9a5.06,5.06,0,0,0-3.5,4.5,3.59,3.59,0,0,0,1.4,3.2,4.23,4.23,0,0,0,3.8.1,2.46,2.46,0,0,0,1.8-2.4c0-.6.1-1.3.1-1.9a2.48,2.48,0,0,0-2.5-2.5,2.61,2.61,0,0,0-2.5,2.5c0,.6-.1,1.3-.1,1.9l1.8-2.4a.6.6,0,0,1-.4.1c-.3.1-.3.1-.1,0h-.1a14.31,14.31,0,0,0,1.5,1.1c0,.1.2.5.1.2.2.7,0,.3,0,.1s0,.4,0,.2v-.2c.1-.2,0-.1-.1.2l.2-.3-.1.1c.3-.3-.3.2-.1.1s-.6.2-.1,0a2.53,2.53,0,0,0,1.7-3.1,2.19,2.19,0,0,0-2.8-1.5Z" style="fill:#f69d79"/><path d="M954,890.9v3.8a2.66,2.66,0,0,0,2.2,2.5,2.42,2.42,0,0,0,2.7-1.8,6.94,6.94,0,0,0-.7-4.7,2.49,2.49,0,0,0-4.3,2.5c.1.1.2.3.1,0,.1.2.1.4.2.6s0-.3,0,0c0,.1-.1.6,0,.2,1.6.2,3.3.4,4.9.7v-3.8a2.54,2.54,0,0,0-2.5-2.5,2.63,2.63,0,0,0-2.6,2.5Z" style="fill:#f69d79"/><path d="M951.5,922a8,8,0,0,0-.9,6.7,2.45,2.45,0,0,0,3.1,1.7,4.67,4.67,0,0,0,1.9-7.7c-2.3-2.2-5.9,1.3-3.5,3.5.4.3,0-.1-.1-.3v-.1c.1-.3.1-.3,0-.1s0,.1.1-.1c-.1.2-.1.2,0,.1l-.1.1a1.38,1.38,0,0,1,.4-.3c1,.6,2.1,1.2,3.1,1.7a3.41,3.41,0,0,1,.4-2.9,2.56,2.56,0,0,0-.9-3.4,3,3,0,0,0-3.5,1.1Z" style="fill:#f69d79"/><path d="M948.2,955.5c0,1.6,0,3.1.1,4.7a2.54,2.54,0,0,0,2.5,2.5,5,5,0,0,0,4-2.5,5.1,5.1,0,0,0,0-4.8c-1.6-2.8-5.9-.3-4.3,2.5h0v-.2h0c-.1.2-.2.2,0,.1l-.1.1h0a.6.6,0,0,1,.4-.1l2.5,2.5c0-1.6,0-3.1-.1-4.7,0-3.4-5-3.4-5-.1Z" style="fill:#f69d79"/><path d="M946.7,998.8h0c-.1-.4.1-.2,0-.1v.1c-.1.2-.1.3-.2.5a4.17,4.17,0,0,0,.4,2.9,3.28,3.28,0,0,0,5.2.9,2.42,2.42,0,0,0,0-3.5,2.51,2.51,0,0,0-3.5,0c1-.9,2.8-.7,2.8.6,0,.4-.1.3,0-.1,0-.2.1-.4.1-.6a4.21,4.21,0,0,0-.5-3.3,2.58,2.58,0,0,0-3.4-.9c-1,.7-1.7,2.4-.9,3.5Z" style="fill:#f69d79"/><path d="M943.1,1033a8,8,0,0,0,.9,5.5,2.46,2.46,0,0,0,3.9.5,4,4,0,0,0,1-3.9,2.5,2.5,0,1,0-4.8,1.4c.1.3.1.3,0-.1a1.61,1.61,0,0,1,.3-.9c1.3.2,2.6.3,3.9.5,0,0-.3-.7-.2-.3-.1-.2-.1-.5-.2-.7-.1-.5-.1.2,0-.3v-.3a2.61,2.61,0,0,0-1.7-3.1c-1.2-.3-2.9.3-3.1,1.7Z" style="fill:#f69d79"/><path d="M941.4,1067.2v2.5h5v-2a2.48,2.48,0,0,0-2.5-2.5,2.54,2.54,0,0,0-2.5,2.5v2a2.48,2.48,0,0,0,2.5,2.5,2.54,2.54,0,0,0,2.5-2.5v-2.5a2.48,2.48,0,0,0-2.5-2.5,2.61,2.61,0,0,0-2.5,2.5Z" style="fill:#f69d79"/><g style="isolation:isolate"><path d="M1014.9,1219.8l-13.7-7.4a3.82,3.82,0,0,1-.9-.9c-3.9-5.5-8-10.9-12.1-16.2a4.35,4.35,0,0,0-.7-.6l13.7,7.4a1.34,1.34,0,0,1,.7.6c4.1,5.3,8.1,10.7,12.1,16.2A2.55,2.55,0,0,0,1014.9,1219.8Z" style="fill:#394480"/><g style="clip-path:url(#b)"><g style="isolation:isolate"><path d="M1014.9,1219.8l-13.7-7.4a3.82,3.82,0,0,1-.9-.9c-3.9-5.5-8-10.9-12.1-16.2a4.35,4.35,0,0,0-.7-.6l13.7,7.4a1.34,1.34,0,0,1,.7.6c4.1,5.3,8.1,10.7,12.1,16.2a2.55,2.55,0,0,0,.9.9" style="fill:#394480"/></g></g><path d="M1067,1034.1l13.7,7.4a1.55,1.55,0,0,0-1.2-.2,6.15,6.15,0,0,0-1.1.3,33.85,33.85,0,0,1-5.4,1.7l-15.9,4.9-13.7-7.4,15.9-4.9a33.85,33.85,0,0,0,5.4-1.7,2.61,2.61,0,0,1,1.1-.3A2.17,2.17,0,0,1,1067,1034.1Z" style="fill:#394480"/><g style="clip-path:url(#c)"><g style="isolation:isolate"><path d="M1057.2,1048.3l-13.7-7.4,15.9-4.9a33.85,33.85,0,0,0,5.4-1.7,2.61,2.61,0,0,1,1.1-.3h.8l13.7,7.4a1.1,1.1,0,0,0-.8,0,6.15,6.15,0,0,0-1.1.3,33.85,33.85,0,0,1-5.4,1.7l-15.9,4.9" style="fill:#394480"/><path d="M1080.3,1041.4l-13.7-7.4c.1,0,.2.1.3.1l13.7,7.4a1,1,0,0,0-.3-.1" style="fill:#394480"/><path d="M1080.7,1041.5l-13.7-7.4h.1l13.6,7.4h0" style="fill:#394480"/></g></g><path d="M1056.4,1048l-13.7-7.4a4.12,4.12,0,0,0,.8.3l13.7,7.4A3.39,3.39,0,0,0,1056.4,1048Z" style="fill:#394480"/><g style="clip-path:url(#d)"><g style="isolation:isolate"><path d="M1056.4,1048l-13.7-7.4h.1l13.6,7.4h0" style="fill:#394480"/><path d="M1056.5,1048l-13.7-7.4a2.39,2.39,0,0,1,.7.3l13.7,7.4c-.1-.1-.4-.1-.7-.3" style="fill:#394480"/></g></g><path d="M972.7,1158.2l-13.7-7.4a37.81,37.81,0,0,0,23.3,4.1l13.7,7.4A38.65,38.65,0,0,1,972.7,1158.2Z" style="fill:#394480"/><g style="clip-path:url(#e)"><g style="isolation:isolate"><path d="M972.7,1158.2l-13.7-7.4c.4.2.9.5,1.3.7l13.7,7.4a5.39,5.39,0,0,0-1.3-.7" style="fill:#394480"/><path d="M974.1,1158.9l-13.7-7.4a40.82,40.82,0,0,0,6.9,2.6l13.7,7.4a51.66,51.66,0,0,1-6.9-2.6" style="fill:#394480"/><path d="M981,1161.4l-13.7-7.4a39.32,39.32,0,0,0,15,.8l13.7,7.4a37.43,37.43,0,0,1-15-.8" style="fill:#394480"/></g></g><path d="M1005.9,1064.2l13.7,7.4c12.4,6.7,20.5,20.6,20.4,37.7-.2,25.6-20,49.5-44,52.9l-13.7-7.4c24-3.4,43.8-27.3,44-52.9C1026.4,1084.8,1018.3,1071,1005.9,1064.2Z" style="fill:#394480"/><g style="clip-path:url(#f)"><g style="isolation:isolate"><path d="M996,1162.2l-13.7-7.4A43.32,43.32,0,0,0,995,1151l13.7,7.4a43.32,43.32,0,0,1-12.7,3.8" style="fill:#394480"/><path d="M1008.7,1158.4,995,1151a63.69,63.69,0,0,0,7.2-4.1l13.7,7.4a51.33,51.33,0,0,1-7.2,4.1" style="fill:#394480"/><path d="M1015.9,1154.3l-13.7-7.4a55.64,55.64,0,0,0,5.4-4.2l13.7,7.4c-1.8,1.5-3.5,2.9-5.4,4.2" style="fill:#394480"/><path d="M1021.2,1150l-13.7-7.4a48.86,48.86,0,0,0,4.5-4.6l13.7,7.4a32.62,32.62,0,0,1-4.5,4.6" style="fill:#394480"/><path d="M1025.8,1145.5l-13.7-7.4a49.92,49.92,0,0,0,4-5.1l13.7,7.4c-1.3,1.8-2.6,3.4-4,5.1" style="fill:#394480"/><path d="M1029.8,1140.4l-13.7-7.4c1.3-1.9,2.5-3.8,3.6-5.8l13.7,7.4c-1.1,2-2.3,3.9-3.6,5.8" style="fill:#394480"/><path d="M1033.4,1134.6l-13.7-7.4a49.06,49.06,0,0,0,3.3-7.4l13.7,7.4a69.59,69.59,0,0,1-3.3,7.4" style="fill:#394480"/><path d="M1036.7,1127.2l-13.7-7.4a54,54,0,0,0,3.3-17.8c.1-17.1-8-31-20.4-37.7l13.7,7.4c12.4,6.7,20.5,20.6,20.4,37.7a54,54,0,0,1-3.3,17.8" style="fill:#394480"/></g></g><path d="M941.1,1215.6l-13.7-7.4a7.46,7.46,0,0,1-1.2-.7,2.18,2.18,0,0,1-1.2-2.6q1.8-11.4,3.3-22.8a3.85,3.85,0,0,0-.8-2.6c-1-1.2-2.4-1.9-3.3-3.2a6.37,6.37,0,0,0-1.7-1.6l13.7,7.4a4.25,4.25,0,0,1,1.7,1.6c.9,1.3,2.4,2,3.3,3.2a3.85,3.85,0,0,1,.8,2.6q-1.5,11.4-3.3,22.8a2.08,2.08,0,0,0,1.2,2.6A7.46,7.46,0,0,0,941.1,1215.6Z" style="fill:#394480"/><g style="clip-path:url(#g)"><g style="isolation:isolate"><path d="M941.1,1215.6l-13.7-7.4a7.46,7.46,0,0,1-1.2-.7,2.18,2.18,0,0,1-1.2-2.6q1.8-11.4,3.3-22.8a3.85,3.85,0,0,0-.8-2.6c-1-1.2-2.4-1.9-3.3-3.2a6.37,6.37,0,0,0-1.7-1.6l13.7,7.4a4.25,4.25,0,0,1,1.7,1.6c.9,1.3,2.4,2,3.3,3.2a3.85,3.85,0,0,1,.8,2.6q-1.5,11.4-3.3,22.8a2.08,2.08,0,0,0,1.2,2.6,7.46,7.46,0,0,0,1.2.7" style="fill:#394480"/></g></g><path d="M992.7,1028.1l-13.7-7.4,3.2-.7a10.87,10.87,0,0,1,1.8-.1,4.1,4.1,0,0,0,1.1-.1c1.9-.3,3.2-1.4,4.4-3.5,3.6-6.1,7.5-12,11.1-18.1.7-1.1,1.3-1.6,2.2-1.7h1.1a85.81,85.81,0,0,1,34.1,10.4l13.7,7.4a85.81,85.81,0,0,0-34.1-10.4h-1.1c-.9.1-1.5.6-2.2,1.7-3.7,6.1-7.5,12-11.1,18.1-1.2,2.1-2.5,3.2-4.4,3.5-.3,0-.7.1-1.1.1a10.87,10.87,0,0,0-1.8.1A18.94,18.94,0,0,0,992.7,1028.1Z" style="fill:#394480"/><g style="clip-path:url(#h)"><g style="isolation:isolate"><path d="M992.7,1028.1l-13.7-7.4,3.2-.7a10.87,10.87,0,0,1,1.8-.1,4.1,4.1,0,0,0,1.1-.1,5.73,5.73,0,0,0,1.4-.4l13.7,7.4a5.73,5.73,0,0,1-1.4.4c-.3,0-.7.1-1.1.1a10.87,10.87,0,0,0-1.8.1,18.94,18.94,0,0,0-3.2.7" style="fill:#394480"/><path d="M1000.3,1026.8l-13.7-7.4a2.51,2.51,0,0,0,.7-.4l13.7,7.4a5.74,5.74,0,0,1-.7.4" style="fill:#394480"/><path d="M1000.9,1026.4l-13.7-7.4a2.18,2.18,0,0,0,.5-.4l13.7,7.4a2.18,2.18,0,0,1-.5.4" style="fill:#394480"/><path d="M1001.5,1026l-13.7-7.4c.2-.2.4-.3.5-.5l13.7,7.4c-.2.1-.3.3-.5.5" style="fill:#394480"/><path d="M1002,1025.4l-13.7-7.4a5.55,5.55,0,0,0,.6-.8l13.7,7.4a5.55,5.55,0,0,1-.6.8" style="fill:#394480"/><path d="M1002.6,1024.7l-13.7-7.4.6-.9c3.6-6.1,7.5-12,11.1-18.1.1-.1.2-.3.3-.4l13.7,7.4c-.1.1-.2.3-.3.4-3.7,6.1-7.5,12-11.1,18.1l-.6.9" style="fill:#394480"/><path d="M1014.6,1005.2l-13.7-7.4a1.38,1.38,0,0,1,.3-.4l13.7,7.4c-.1.1-.2.3-.3.4" style="fill:#394480"/><path d="M1014.9,1004.8l-13.7-7.4.3-.3,13.7,7.4-.3.3" style="fill:#394480"/><path d="M1015.2,1004.5l-13.7-7.4c.1-.1.2-.1.3-.2l13.7,7.4a1.24,1.24,0,0,0-.3.2" style="fill:#394480"/><path d="M1015.4,1004.3l-13.7-7.4c.1-.1.2-.1.3-.2l13.7,7.4c-.1.1-.2.2-.3.2" style="fill:#394480"/><path d="M1015.8,1004.1l-13.7-7.4a1.85,1.85,0,0,1,.7-.2h1.1a94.37,94.37,0,0,1,14.1,2.4l13.7,7.4a83.09,83.09,0,0,0-14.1-2.4h-1.1a6.37,6.37,0,0,0-.7.2" style="fill:#394480"/><path d="M1031.6,1006.4l-13.7-7.4a84.9,84.9,0,0,1,16.4,6.1l13.7,7.4a78.81,78.81,0,0,0-16.4-6.1" style="fill:#394480"/><path d="M1048.1,1012.5l-13.7-7.4c1.2.6,2.4,1.2,3.5,1.8l13.7,7.4c-1.1-.6-2.3-1.2-3.5-1.8" style="fill:#394480"/></g></g><path d="M991.1,1027.8l-13.7-7.4a2.85,2.85,0,0,0,1.6.2l13.7,7.4A1.76,1.76,0,0,1,991.1,1027.8Z" style="fill:#394480"/><g style="clip-path:url(#i)"><g style="isolation:isolate"><path d="M991.1,1027.8l-13.7-7.4h.1l13.6,7.4h0" style="fill:#394480"/><path d="M991.2,1027.9l-13.7-7.4c.1.1.3.1.4.2l13.7,7.4c-.2-.1-.3-.2-.4-.2" style="fill:#394480"/><path d="M991.6,1028l-13.7-7.4a2,2,0,0,0,1.1,0l13.7,7.4a2,2,0,0,1-1.1,0" style="fill:#394480"/></g></g><path d="M963.6,1002.7l13.7,7.4a3.16,3.16,0,0,0-2-.3l-13.7-7.4A3.16,3.16,0,0,1,963.6,1002.7Z" style="fill:#394480"/><g style="clip-path:url(#j)"><g style="isolation:isolate"><path d="M975.3,1009.8l-13.7-7.4a2.88,2.88,0,0,1,1.3.1l13.7,7.4a2.77,2.77,0,0,0-1.3-.1" style="fill:#394480"/><path d="M976.6,1009.9l-13.7-7.4c.2.1.4.1.6.2l13.7,7.4a1.42,1.42,0,0,0-.6-.2" style="fill:#394480"/><path d="M977.2,1010.1l-13.7-7.4h.1l13.6,7.4h0" style="fill:#394480"/></g></g><path d="M934,1065.4l-13.7-7.4a3.44,3.44,0,0,0,2.3-1.2c1.8-2,3.5-4.1,5.2-6.3a3.82,3.82,0,0,0,.7-2.7c-1-7.3-2-14.6-3.2-21.9a2.76,2.76,0,0,1,1.1-3,115.37,115.37,0,0,1,35.2-20.6l13.7,7.4a116.56,116.56,0,0,0-35.2,20.6,2.76,2.76,0,0,0-1.1,3c1.1,7.3,2.2,14.6,3.2,21.9a4.39,4.39,0,0,1-.7,2.7,62.08,62.08,0,0,1-5.2,6.3A3.23,3.23,0,0,1,934,1065.4Z" style="fill:#394480"/><g style="clip-path:url(#k)"><g style="isolation:isolate"><path d="M934,1065.4l-13.7-7.4,1.2-.3,13.7,7.4a5.27,5.27,0,0,1-1.2.3" style="fill:#394480"/><path d="M935.2,1065.1l-13.7-7.4.6-.3,13.7,7.4-.6.3" style="fill:#394480"/><path d="M935.8,1064.7l-13.7-7.4c.1-.1.3-.2.4-.3l13.7,7.4a1.38,1.38,0,0,0-.4.3" style="fill:#394480"/><path d="M936.2,1064.4l-13.7-7.4c.1-.1.2-.1.2-.2.2-.3.5-.5.7-.8l13.7,7.4c-.2.3-.5.5-.7.8l-.2.2" style="fill:#394480"/><path d="M937.1,1063.4l-13.7-7.4c1.5-1.8,3-3.6,4.4-5.5v-.1l13.7,7.4v.1c-1.4,1.9-2.8,3.7-4.4,5.5" style="fill:#394480"/><path d="M941.6,1057.9l-13.7-7.4c.1-.1.1-.2.2-.3l13.7,7.4c-.1.1-.2.2-.2.3" style="fill:#394480"/><path d="M941.8,1057.5l-13.7-7.4a1.42,1.42,0,0,0,.2-.6l13.7,7.4a.85.85,0,0,1-.2.6" style="fill:#394480"/><path d="M942,1057l-13.7-7.4a5.55,5.55,0,0,0,.3-1.7c-1-7.3-2-14.6-3.2-21.9a3.15,3.15,0,0,1,.1-1.7l13.7,7.4a3.15,3.15,0,0,0-.1,1.7c1.1,7.3,2.2,14.6,3.2,21.9a5.55,5.55,0,0,1-.3,1.7" style="fill:#394480"/><path d="M939.2,1031.7l-13.7-7.4c0-.1.1-.2.1-.3l13.7,7.4a.37.37,0,0,0-.1.3" style="fill:#394480"/><path d="M939.3,1031.4l-13.7-7.4c0-.1.1-.2.2-.3l13.7,7.4c-.1.1-.2.2-.2.3" style="fill:#394480"/><path d="M939.4,1031.2l-13.7-7.4c.1-.1.1-.2.2-.3l13.7,7.4c0,.1-.1.2-.2.3" style="fill:#394480"/><path d="M939.7,1030.9l-13.7-7.4.3-.3,13.7,7.4-.3.3" style="fill:#394480"/><path d="M940,1030.5l-13.7-7.4a.35.35,0,0,1,.2-.1c3.1-2.6,6.3-5,9.5-7.3l13.7,7.4c-3.2,2.2-6.4,4.7-9.5,7.3-.1.1-.1.1-.2.1" style="fill:#394480"/><path d="M949.6,1023.1l-13.7-7.4a119.6,119.6,0,0,1,16.2-9.4l13.7,7.4a133.21,133.21,0,0,0-16.2,9.4" style="fill:#394480"/><path d="M965.9,1013.7l-13.7-7.4a78.9,78.9,0,0,1,9.5-3.9l13.7,7.4c-3.3,1.2-6.4,2.5-9.5,3.9" style="fill:#394480"/></g></g><path d="M1094.9,1120.5a2.35,2.35,0,0,1,1.1,2.9,133.83,133.83,0,0,1-14.6,39.7,2.4,2.4,0,0,1-2,1.5h-.9c-6.7-.2-13.5-.3-20.2-.6h-.9a2.86,2.86,0,0,0-2.1,1.4,7.6,7.6,0,0,1-1.7,2.2c-4.3,3.4-4.2,7.4-3.2,11.9,1.1,5.4,1.7,11.1,2.6,16.6a3,3,0,0,1-1.2,3,119.39,119.39,0,0,1-34.7,20.5,9.44,9.44,0,0,0-.9.3,2.08,2.08,0,0,1-2.1-1.1c-3.9-5.5-8-10.9-12.1-16.2a4.36,4.36,0,0,0-2.7-1.1h-.7a2.92,2.92,0,0,0-.9.2c-.3.1-.6.1-.9.2h-.7a10.8,10.8,0,0,0-1.8,0c-2.9.4-4.8,2.6-6.6,5.8-3,5.5-6.5,10.6-9.8,15.9a3.5,3.5,0,0,1-2.3,1.9h-.9a87.34,87.34,0,0,1-34.7-10.7,2.18,2.18,0,0,1-1.2-2.6q1.8-11.4,3.3-22.8a3.85,3.85,0,0,0-.8-2.6c-1-1.2-2.4-1.9-3.3-3.2a4.38,4.38,0,0,0-4.4-2,19.45,19.45,0,0,0-2,.5c-6.1,2.1-12.3,3.9-18.4,5.8a6.37,6.37,0,0,1-.7.2,2,2,0,0,1-2-1,100.38,100.38,0,0,1-14.4-35.9,3.93,3.93,0,0,1,1.2-2.9c5.4-5.2,10.9-10.2,16.4-15.3a3.79,3.79,0,0,0,1.6-3.9,11.5,11.5,0,0,1-.1-3.7c.7-3.7-.7-5.7-3.5-7.3-5-2.8-9.7-6.2-14.6-9.3a2.2,2.2,0,0,1-1-2.7,130.16,130.16,0,0,1,14.6-39.7c.6-1,1.1-1.5,2-1.6h.8q10.35.45,20.7.6a3.44,3.44,0,0,0,2.3-1.2c1.8-2,3.5-4.1,5.2-6.3a3.82,3.82,0,0,0,.7-2.7c-1-7.3-2-14.6-3.2-21.9a2.76,2.76,0,0,1,1.1-3,115.37,115.37,0,0,1,35.2-20.6,2.59,2.59,0,0,1,2.5.8c4.1,5.3,8.1,10.7,12.1,16.2a2.55,2.55,0,0,0,2.7,1.3l3.2-.7a10.87,10.87,0,0,1,1.8-.1,4.1,4.1,0,0,0,1.1-.1c1.9-.3,3.2-1.4,4.4-3.5,3.6-6.1,7.5-12,11.1-18.1.7-1.1,1.3-1.6,2.2-1.7h1.1a85.81,85.81,0,0,1,34.1,10.4c1.4.8,1.9,1.6,1.6,3.5-1.2,7.5-2.2,15-3.3,22.6a2.47,2.47,0,0,0,.4,1.9c1.9,1.9,3.8,3.7,5.8,5.5a3.45,3.45,0,0,0,1.1.5l15.9-4.9a33.85,33.85,0,0,0,5.4-1.7,2.61,2.61,0,0,1,1.1-.3c1.1-.2,1.8.5,2.5,1.7a103.17,103.17,0,0,1,14,34.9,3.29,3.29,0,0,1-1.2,3.5c-5.6,5.1-11.1,10.2-16.6,15.4a7.8,7.8,0,0,0-1.4,3.2,24.32,24.32,0,0,0,0,2.7c-1,5.1,1.2,7.6,4.9,9.6C1086.3,1114.7,1090.5,1117.8,1094.9,1120.5ZM996,1162.2c24-3.4,43.8-27.3,44-52.9.2-26.3-19.2-45-43.4-41.7s-44,27.2-44.2,53.1c-.2,26.3,19.3,44.8,43.6,41.5" style="fill:#9e9ec5"/><path d="M996.6,1067.7c-24.3,3.4-44,27.2-44.2,53.1a49.7,49.7,0,0,0,1.2,11.1c4.6-21.5,22.1-39.6,43-42.5,20.6-2.8,37.7,10.3,42.2,30.5a52,52,0,0,0,1.2-10.5C1040.2,1083.1,1020.7,1064.4,996.6,1067.7Z" style="fill:#2d3166;opacity:0.46000000834465027;isolation:isolate"/><path d="M1048.6,1223.5a115.72,115.72,0,0,1-31.6,17.9,9.44,9.44,0,0,0-.9.3,2.08,2.08,0,0,1-2.1-1.1c-3.9-5.5-8-10.9-12.1-16.1a4.36,4.36,0,0,0-2.7-1.1h-.7a2.92,2.92,0,0,0-.9.2c-.3.1-.6.1-.9.2s-.5.1-.7,0a10.8,10.8,0,0,0-1.8,0c-2.9.4-4.8,2.6-6.6,5.8-3,5.5-6.5,10.6-9.8,16-.7,1.1-1.3,1.7-2.3,1.8h-.9a86.44,86.44,0,0,1-21-4.6c-1.1-7.7-2.1-15.4-3-22.8a87.49,87.49,0,0,0,24.1,5.7h.9c1-.1,1.6-.7,2.3-1.8,3.2-5.3,6.8-10.5,9.8-15.9,1.8-3.2,3.7-5.4,6.6-5.8a5.44,5.44,0,0,1,1.8,0h.7a2.92,2.92,0,0,0,.9-.2c.3-.1.6-.1.9-.2h.7a3.93,3.93,0,0,1,2.7,1.1c4.1,5.3,8.2,10.7,12.1,16.2a2.08,2.08,0,0,0,2.1,1.1,1.61,1.61,0,0,0,.9-.3,114,114,0,0,0,30-16.8C1047.5,1209.7,1048.1,1216.6,1048.6,1223.5Z" style="fill:#2d3166"/><path d="M911.2,1188.1l-13.7-7.4a3.82,3.82,0,0,1-.9-.9,100.38,100.38,0,0,1-14.4-35.9,3.93,3.93,0,0,1,1.2-2.9c5.4-5.2,10.9-10.2,16.4-15.3a3.79,3.79,0,0,0,1.6-3.9,11.5,11.5,0,0,1-.1-3.7c.7-3.7-.7-5.7-3.5-7.3-5-2.8-9.7-6.2-14.6-9.3a2.2,2.2,0,0,1-1-2.7,130.16,130.16,0,0,1,14.6-39.7c.6-1,1.1-1.5,2-1.6h.8q10.35.45,20.7.6l13.7,7.4q-10.35-.15-20.7-.6h-.8c-.9.1-1.4.6-2,1.6a136.66,136.66,0,0,0-14.6,39.7,2.16,2.16,0,0,0,1,2.7c4.9,3.1,9.6,6.5,14.6,9.3,2.8,1.6,4.2,3.6,3.5,7.3a11.5,11.5,0,0,0,.1,3.7,4.27,4.27,0,0,1-1.6,3.9c-5.5,5-11,10.1-16.4,15.3a4.18,4.18,0,0,0-1.2,2.9,97.89,97.89,0,0,0,14.4,35.9A3.82,3.82,0,0,0,911.2,1188.1Z" style="fill:#394480"/><g style="clip-path:url(#l)"><g style="isolation:isolate"><path d="M911.2,1188.1l-13.7-7.4a3.82,3.82,0,0,1-.9-.9,100.38,100.38,0,0,1-14.4-35.9,2.09,2.09,0,0,1,.2-1.3l13.7,7.4a2.18,2.18,0,0,0-.2,1.3,97.89,97.89,0,0,0,14.4,35.9,3.82,3.82,0,0,0,.9.9" style="fill:#394480"/><path d="M896.2,1150l-13.7-7.4a4.88,4.88,0,0,0,.3-.7l13.7,7.4a4.88,4.88,0,0,0-.3.7" style="fill:#394480"/><path d="M896.5,1149.3l-13.7-7.4c.1-.2.2-.3.3-.5l13.7,7.4a2.19,2.19,0,0,1-.3.5" style="fill:#394480"/><path d="M896.8,1148.9l-13.7-7.4c.1-.1.2-.2.2-.3l13.7,7.4c-.1,0-.2.1-.2.3" style="fill:#394480"/><path d="M897,1148.6l-13.7-7.4a.1.1,0,0,1,.1-.1c5.4-5.2,10.9-10.2,16.4-15.3l.6-.6,13.7,7.4-.6.6c-5.5,5-11,10.1-16.4,15.3a.1.1,0,0,0-.1.1" style="fill:#394480"/><path d="M914.1,1132.5l-13.7-7.4c.1-.2.3-.3.4-.5l13.7,7.4a1,1,0,0,1-.4.5" style="fill:#394480"/><path d="M914.5,1132.1l-13.7-7.4c.1-.1.2-.3.3-.4l13.7,7.4a1.38,1.38,0,0,0-.3.4" style="fill:#394480"/><path d="M914.8,1131.6l-13.7-7.4c.1-.2.2-.3.2-.5l13.7,7.4a1.69,1.69,0,0,0-.2.5" style="fill:#394480"/><path d="M915,1131.2l-13.7-7.4a4,4,0,0,0,.2-1.9,11.5,11.5,0,0,1-.1-3.7c.7-3.7-.7-5.7-3.5-7.3-5-2.8-9.7-6.2-14.6-9.3a2.2,2.2,0,0,1-1-2.7,134.12,134.12,0,0,1,5.8-20.6l13.7,7.4a134.12,134.12,0,0,0-5.8,20.6,2.16,2.16,0,0,0,1,2.7c4.9,3.1,9.6,6.5,14.6,9.3,2.8,1.6,4.2,3.6,3.5,7.3a11.5,11.5,0,0,0,.1,3.7,5.84,5.84,0,0,1-.2,1.9" style="fill:#394480"/><path d="M901.8,1085.6l-13.7-7.4a141,141,0,0,1,7.8-17.3l13.7,7.4a116.18,116.18,0,0,0-7.8,17.3" style="fill:#394480"/><path d="M909.6,1068.3l-13.7-7.4c.3-.6.7-1.2,1-1.8a2.19,2.19,0,0,1,.3-.5l13.7,7.4c-.1.2-.2.3-.3.5a16.18,16.18,0,0,0-1,1.8" style="fill:#394480"/><path d="M910.9,1066l-13.7-7.4.3-.3,13.7,7.4q-.15,0-.3.3" style="fill:#394480"/><path d="M911.1,1065.6l-13.7-7.4c.1-.1.1-.2.2-.2l13.7,7.4a.22.22,0,0,1-.2.2" style="fill:#394480"/><path d="M911.4,1065.4l-13.7-7.4.2-.2,13.7,7.4c-.1.1-.2.1-.2.2" style="fill:#394480"/><path d="M911.6,1065.2l-13.7-7.4c.1-.1.2-.1.3-.2l13.7,7.4c-.1.1-.2.2-.3.2" style="fill:#394480"/><path d="M911.9,1065.1l-13.7-7.4a1.45,1.45,0,0,1,.7-.2h.8q10.35.45,20.7.6l13.7,7.4q-10.35-.15-20.7-.6h-.8a1.45,1.45,0,0,0-.7.2" style="fill:#394480"/></g></g></g><path d="M1068.2,653.3a53.58,53.58,0,0,1-32.6-52.1c.1-1.3-1.9-1.3-2,0a55.57,55.57,0,0,0,33.6,53.9c1.2.4,2.2-1.3,1-1.8Z" style="fill:#171338"/><path d="M1062.5,651.1c-5.5-7.7-10.5-15.4-12.4-24.8-1.9-9.2-1.2-18.7-.4-28,.1-1.3-1.9-1.3-2,0-.8,9.5-1.4,19.2.5,28.6,1.9,9.6,7,17.4,12.6,25.3.7.9,2.4-.1,1.7-1.1Z" style="fill:#171338"/><path d="M1052.1,640a63.21,63.21,0,0,1-9.5-39.3c.1-1.3-1.9-1.3-2,0a65,65,0,0,0,9.7,40.3c.8,1.1,2.5.1,1.8-1Z" style="fill:#171338"/><path d="M1019,639.2c-11.6-4-23.3-7.9-34.9-11.9-5-1.7-10.2-3.1-14.8-5.6a18.64,18.64,0,0,1-5.7-4.3c-3.4-3.9-4.6-13.1,2.9-13.1a1,1,0,0,0,0-2c-5.2,0-8.4,4.4-7.7,9.4.7,5.4,5,9.3,9.5,11.7,6.8,3.6,14.6,5.6,21.9,8,9.4,3.2,18.9,6.4,28.3,9.6,1.2.6,1.7-1.3.5-1.8Z" style="fill:#171338"/><path d="M985,620c-3.9-.9-8-2-11.1-4.6s-6.7-9.3-1.4-11.6c1.2-.5.2-2.2-1-1.7-4.6,1.9-4.1,7.7-1.9,11.4,3.2,5.2,9.3,7.1,14.9,8.5,1.2.2,1.7-1.7.5-2Z" style="fill:#171338"/><path d="M1054.8,671.7c4-4.4,9.2-7.6,14.1-10.9a107,107,0,0,1,15.1-8.6c1.2-.5.2-2.3-1-1.7a117.57,117.57,0,0,0-16.5,9.5c-4.6,3.1-9.3,6.1-13.1,10.2-.9,1,.5,2.4,1.4,1.5Z" style="fill:#171338"/><path d="M1062.4,661.8c3.9-1.5,7.9-2.9,11.6-4.6s5.9-5.5,9.9-7.2c1.2-.5.7-2.4-.5-1.9a23.9,23.9,0,0,0-8,5.7c-3.2,3.2-9.4,4.4-13.6,6.1-1.1.4-.6,2.4.6,1.9Z" style="fill:#171338"/><path d="M1060.6,666.2c-6.4,3.5-13.1,11.2-15.8,18-1.5,3.7-3.1,12.3,2.6,13.3,1.3.2,1.8-1.7.5-1.9-3.6-.6-2.6-6.6-1.9-9a24.49,24.49,0,0,1,4.6-8.2c3-3.8,6.6-8.1,10.9-10.4a1,1,0,0,0-.9-1.8Z" style="fill:#171338"/><path d="M1057.8,669.6a22,22,0,0,0-7.6,14.2c-.5,4.1,0,9.2,4.8,10.2a1,1,0,1,0,.5-1.9c-5.1-1.2-3.5-8.9-2.4-12.2a21.22,21.22,0,0,1,6.1-8.9c1-.9-.4-2.3-1.4-1.4Z" style="fill:#171338"/><path d="M1029.4,686.7s-5.7,12.9-7.7,15.9,1.9,6.9,11.4,0,14.2-9.1,10.6-15.9S1029.4,686.7,1029.4,686.7Z" style="fill:#e57e80"/><path d="M1027.9,697.6a80.91,80.91,0,0,0,13.7-7.1c.5-.3,0-1.2-.5-.9a85.36,85.36,0,0,1-13.4,7c-.7.3-.4,1.3.2,1Z" style="fill:#e9595a"/><path d="M1028.6,693a57,57,0,0,0,10.7,3.1c.6.1.9-.8.3-1a54.87,54.87,0,0,1-10.7-3.1c-.6-.2-.9.8-.3,1Z" style="fill:#e9595a"/><path d="M973.1,1112.1s-3.6,55.3-3.6,67.2,5.3,40.7,10.1,41.5,3-3.7,5.8-5.1-.2,1.6,4.8-1.5.3-2.5,7.1-3.1,2.6-.7,6.8-3.1,4.7-2.8,3.2-6.6-2.6-23.3-8.3-34.9.2-48,.2-48Z" style="fill:#e57e80"/><path d="M993.5,779.3s-6,129-20.7,224.1c-11.2,72.1-5,128.5-5,128.5s35.3,10.6,42.7,3.9,13.6-321.8,4.3-341.2S999.3,774.8,993.5,779.3Z" style="fill:#f69d79"/><path d="M967.8,1131.8s-6.3-33.3-.8-37.2,52.5,7.2,52.5,7.2l-9,33.9C1010.5,1135.8,1012,1146.2,967.8,1131.8Z" style="fill:#f9b17c"/><path d="M974.2,1083a225.9,225.9,0,0,0,.1,34.9c.1,1.3,2.1,1.3,2,0a225.9,225.9,0,0,1-.1-34.9c.1-1.3-1.9-1.2-2,0Z" style="fill:#f69d79"/><path d="M982.9,1087.7c-3,4.1-1.9,10.8-2,15.5q0,11.4.6,22.8c.1,1.3,2.1,1.3,2,0-.3-6.3-.5-12.5-.6-18.8,0-5.2-1.5-14.1,1.7-18.5.8-1.1-.9-2.1-1.7-1Z" style="fill:#f69d79"/><path d="M987.9,1090.5c-.4,9.3-.8,18.7-1.2,28-.1,1.3,1.9,1.3,2,0,.4-9.3.8-18.7,1.2-28,.1-1.3-1.9-1.3-2,0Z" style="fill:#f69d79"/><path d="M998.9,1092.2c.1,12.3,1.6,25.4-.3,37.6-.2,1.3,1.7,1.8,1.9.5,1.9-12.4.5-25.6.4-38.1a1,1,0,0,0-2,0Z" style="fill:#f69d79"/><path d="M1007.9,1092.7c-.2,7.1-.4,14.1-.6,21.2a1,1,0,0,0,2,0c.2-7.1.4-14.1.6-21.2a1,1,0,0,0-2,0Z" style="fill:#f69d79"/><path d="M1150.5,1570.5s-57.2,29.5-81.1,23.8c-11.8-2.8-70.5-121.9-97.8-248.3-1-4.8-2-9.5-3-14.3,0,0,48.7,115.3,89.3,145.9,24.3,18.3,51.9,32.8,72.8,49.2C1142.1,1553,1150.5,1570.5,1150.5,1570.5Z" style="fill:#2d3166"/><path d="M970.8,1148.8s-9.5,16.9-11.8,24.2-6.7,15.5-9.7,17.4,2.6,7,8,1.9,5.3-15.3,8.7-15.3,4.4,1.9,4.7,4.9,6.7-4,6.7-4Z" style="fill:#e57e80"/><polygon points="1243 1413 1600.1 1413 1600.1 1704.4 1242.8 1704.4 1243 1413" style="fill:#9e9ec5"/><polygon points="1243 1413 1292.8 1393.5 1623.6 1393.5 1602.1 1415 1243 1413" style="fill:#c9ddf2"/><polygon points="1623.6 1393.5 1623.6 1679.4 1599.3 1703.6 1599.3 1415 1623.6 1393.5" style="fill:#394480"/><rect x="1265.4" y="1405.1" width="346.1" height="1" style="fill:#394480"/><polygon points="1383.8 1398.1 1383.8 1355.4 1499.3 1355.4 1499.3 1398.1 1489.5 1398.1 1489.5 1363.1 1392.2 1363.1 1392.2 1398.1 1383.8 1398.1" style="fill:#9e9ec5"/><polygon points="1345.8 1405.5 1322.3 1415 1322.3 1452 1347.5 1452 1347.5 1417.3 1376.3 1405.6 1345.8 1405.5" style="fill:#394480"/><polygon points="1490.3 1405.5 1466.8 1415 1466.8 1452 1492 1452 1492 1417.3 1520.8 1405.6 1490.3 1405.5" style="fill:#394480"/><circle cx="1333.3" cy="1440" r="5.5" style="fill:#9e9ec5"/><circle cx="1478.7" cy="1440" r="5.5" style="fill:#9e9ec5"/></svg>