<svg xmlns="http://www.w3.org/2000/svg" xmlns:xlink="http://www.w3.org/1999/xlink" viewBox="0 0 1792 1008"><defs><linearGradient id="a" x1="3853.56" y1="-2.03" x2="3852.56" y2="-2.03" gradientTransform="matrix(-274.63, -152.23, 115.38, -208.16, 1059499.91, 586890.14)" gradientUnits="userSpaceOnUse"><stop offset="0" stop-color="#589df6"/><stop offset="1" stop-color="#589df6" stop-opacity="0"/></linearGradient><linearGradient id="b" x1="1989.72" y1="2916.89" x2="2129.03" y2="2916.89" gradientTransform="matrix(0.71, -0.71, -0.71, -0.71, 874.43, 4377.46)" gradientUnits="userSpaceOnUse"><stop offset="0" stop-color="#589df6"/><stop offset="1" stop-color="#467fff" stop-opacity="0"/></linearGradient><linearGradient id="c" x1="2059.82" y1="2808.93" x2="2099.82" y2="2808.93" xlink:href="#b"/><linearGradient id="d" x1="3833.61" y1="-3.37" x2="3832.61" y2="-2.37" gradientTransform="translate(-1903673 1868.22) scale(497 406)" gradientUnits="userSpaceOnUse"><stop offset="0" stop-color="#f6f7ff" stop-opacity="0"/><stop offset="1" stop-color="#dee1f7"/></linearGradient><linearGradient id="e" x1="1275.92" y1="1058.04" x2="1369.16" y2="1058.04" gradientTransform="matrix(1, 0, 0, -1, 0, 2000)" xlink:href="#b"/><linearGradient id="f" x1="3831.38" y1="-5.54" x2="3832.15" y2="-5.54" gradientTransform="matrix(366.5, 19.21, 11.72, -223.69, -1403370.7, -74050.58)" gradientUnits="userSpaceOnUse"><stop offset="0" stop-color="#cc7832" stop-opacity="0.4"/><stop offset="1" stop-color="#fff" stop-opacity="0"/></linearGradient><linearGradient id="g" x1="2005.99" y1="3059.96" x2="2046" y2="3059.96" xlink:href="#b"/></defs><path d="M1153.28,656.12c-57.6-32-143.7-18.7-192.2,29.5s-14.1,128.2,76.8,178.6,177,37.2,192.2-29.5-19.1-146.7-76.8-178.6Z" style="fill-rule:evenodd;opacity:0.75;isolation:isolate;fill:url(#a)"/><path d="M320.61,896.32a65.22,65.22,0,0,1-40.2,23.7,63.19,63.19,0,0,1-23.7-.5,65.26,65.26,0,0,1-22-9,64,64,0,0,1-17.3-16.3,65,65,0,0,1-5.2-68.2,64.06,64.06,0,0,1,14.6-18.9,65.27,65.27,0,0,1,105.9,67.3c-.5,1.7-.8,3-1,3.9s-.1,1.4.1,1.5.5-.3,1-1.1a14.14,14.14,0,0,0,1.5-3.8,68.29,68.29,0,0,0-27.7-76.4,69.34,69.34,0,0,0-95.9,20h0q-1.65,2.55-3,5.1a71.38,71.38,0,0,0-7.9,24.6,68.32,68.32,0,0,0,1.6,25.9,70.41,70.41,0,0,0,80.1,52.4,71.29,71.29,0,0,0,24.5-9.1,70.28,70.28,0,0,0,19.5-17.3,44,44,0,0,0,7.4-14.2,19.12,19.12,0,0,0,.7-4.1c0-1-.2-1.6-.5-1.7s-.9,0-1.5.7a16.55,16.55,0,0,0-2.4,3,142,142,0,0,1-8.6,12.5" style="fill-opacity:0.47999998927116394;fill-rule:evenodd;fill:url(#b)"/><path d="M374.11,931.22a20.11,20.11,0,0,1-5.1,4.5,16.64,16.64,0,0,1-6.4,2.3,19.66,19.66,0,0,1-6.8-.1,18.44,18.44,0,0,1-6.3-2.6,18.66,18.66,0,0,1-5-4.7,19.33,19.33,0,0,1-2.9-6.2,17.18,17.18,0,0,1-.5-6.8,19.07,19.07,0,0,1,2-6.6,18.73,18.73,0,0,1,34.6,13.9,5.44,5.44,0,0,1-.3,1.1v.4a.86.86,0,0,0,.3-.3,4,4,0,0,0,.4-1.1,19.71,19.71,0,0,0-5.1-19.7,19.09,19.09,0,0,0-2.8-2.2,19.83,19.83,0,0,0-17.4-2.2,18.48,18.48,0,0,0-6.3,3.6,20.13,20.13,0,0,0-4.7,5.8,21.59,21.59,0,0,0-2.3,7.1,18.31,18.31,0,0,0,.5,7.4,20.41,20.41,0,0,0,8.5,12,22.11,22.11,0,0,0,6.9,2.9,20.45,20.45,0,0,0,14.5-2.5,19.55,19.55,0,0,0,5.6-5,10.81,10.81,0,0,0,2.1-4.1,5.47,5.47,0,0,0,.2-1.2.62.62,0,0,0-.2-.5c-.1-.1-.2,0-.4.2a4.72,4.72,0,0,0-.7.9,22.53,22.53,0,0,1-2.4,3.7" style="fill-opacity:0.47999998927116394;fill-rule:evenodd;fill:url(#c)"/><path d="M1467,535.47c-112.3-83.2-244.2-62.7-308.3,26.6-72.6,80.8-39.8,181.1,89,246.7,137.7,80.2,300.6,108.9,353.2,45.4,49.6-68.2-14.6-219.3-133.9-318.7Z" style="fill-rule:evenodd;fill:url(#d)"/><path d="M1328.5,984.6a43.71,43.71,0,0,1-30.2-7.8,42.32,42.32,0,0,1-11-11.4,45.44,45.44,0,0,1-6.2-14.7,42.52,42.52,0,0,1-.4-15.9,44.49,44.49,0,0,1,5.4-15,41.93,41.93,0,0,1,10.4-12.1,45.12,45.12,0,0,1,14.1-7.6,43.69,43.69,0,0,1,34.1,80c-1,.6-1.8,1-2.3,1.3s-.7.6-.7.7.4.1,1,0a10.93,10.93,0,0,0,2.5-1.1,45.62,45.62,0,0,0,8.1-74.9,49.33,49.33,0,0,0-10.1-6.6,47.83,47.83,0,0,0-16.5-4.5,45.17,45.17,0,0,0-17.1,1.8,47.19,47.19,0,0,0-31.7,58.7,46.6,46.6,0,0,0,17.9,24.9,47.46,47.46,0,0,0,33.4,8.3,28.07,28.07,0,0,0,10.2-3.2,11.41,11.41,0,0,0,2.3-1.6c.5-.5.7-.79.6-1.09s-.4-.41-1-.41a12.56,12.56,0,0,0-2.6.3,72.15,72.15,0,0,1-10.2,1.91" style="fill-opacity:0.47999998927116394;fill-rule:evenodd;fill:url(#e)"/><path d="M939.5,913.9a5.88,5.88,0,0,1,3.2,3,7,7,0,0,1,.6,4.5,6.73,6.73,0,0,1-2.4,3.8,5.74,5.74,0,0,1-4.2,1.1,6,6,0,0,1-3.9-2.1,6.79,6.79,0,0,1,0-8.7,6.16,6.16,0,0,1,4-2.2c.9-.1.9-.6,0-.6a7.25,7.25,0,0,0-4.5,2.3,8.22,8.22,0,0,0-2,4.9,7.61,7.61,0,0,0,1.7,5.2,7.13,7.13,0,0,0,9.9,1.5,8.39,8.39,0,0,0,2.6-10.5,8,8,0,0,0-4.2-3.9,3.35,3.35,0,0,0-2-.2c-.5.2-.7.4-.7.6,0,.5.8.9,2.1,1.4" style="fill:#cc7832;fill-opacity:0.3199999928474426;fill-rule:evenodd"/><path d="M965.4,938.4a11,11,0,0,1,5.8,5,10.72,10.72,0,0,1-3.4,13.9,11.32,11.32,0,0,1-7.6,1.9,11.07,11.07,0,0,1-9.8-12.1,10.42,10.42,0,0,1,2.8-6.2,11.87,11.87,0,0,1,7.2-3.8c1.6-.1,1.6-1-.1-1a13.11,13.11,0,0,0-8.1,3.8,12.4,12.4,0,0,0-3.6,8.3,13,13,0,0,0,3,8.7,13.44,13.44,0,0,0,8.3,4.7A13.57,13.57,0,0,0,974,941.8a14.11,14.11,0,0,0-7.6-6.6,6,6,0,0,0-3.7-.3c-.8.3-1.2.7-1.2,1.1.2,1,1.6,1.5,3.9,2.4" style="fill:#589df6;fill-opacity:0.7200000286102295;fill-rule:evenodd"/><path d="M1472.14,938.94c-5.1-9-14.1-17.2-20.2-18.4s-5.4,5.4,1.5,14.7,15.9,17.5,20.2,18.4S1477.24,947.84,1472.14,938.94Z" style="fill:#cc7832;fill-opacity:0.47999998927116394;fill-rule:evenodd"/><path d="M899.69,713.62c90.2,23.7,151.3,63.8,136.5,89.4s-79.8,59.1-145.1,74.7-126.4-24.4-136.5-89.4c-9.9-65,55-98.4,145.1-74.7Z" style="fill-rule:evenodd;fill:url(#f)"/><path d="M158.56,791.67a20.11,20.11,0,0,1-5.1,4.5,16.64,16.64,0,0,1-6.4,2.3,19.66,19.66,0,0,1-6.8-.1,18.44,18.44,0,0,1-6.3-2.6,18.66,18.66,0,0,1-5-4.7,19.33,19.33,0,0,1-2.9-6.2,17.18,17.18,0,0,1-.5-6.8,19.07,19.07,0,0,1,2-6.6,18.73,18.73,0,0,1,34.6,13.9,5.44,5.44,0,0,1-.3,1.1v.4a.86.86,0,0,0,.3-.3,4,4,0,0,0,.4-1.1,19.16,19.16,0,0,0-7.9-21.8,19.83,19.83,0,0,0-17.4-2.2,18.65,18.65,0,0,0-6.3,3.6,20.13,20.13,0,0,0-4.7,5.8A21.59,21.59,0,0,0,124,778a18.31,18.31,0,0,0,.5,7.4,20.41,20.41,0,0,0,8.5,12,22.11,22.11,0,0,0,6.9,2.9,20.45,20.45,0,0,0,14.5-2.5,19.55,19.55,0,0,0,5.6-5,10.81,10.81,0,0,0,2.1-4.1,5.47,5.47,0,0,0,.2-1.2.62.62,0,0,0-.2-.5c-.1-.1-.2,0-.4.2a4.72,4.72,0,0,0-.7.9,26.21,26.21,0,0,1-2.4,3.6" style="fill-opacity:0.47999998927116394;fill-rule:evenodd;fill:url(#g)"/><path d="M152.8,870a5.88,5.88,0,0,1,3.2,3,7.06,7.06,0,0,1,.6,4.5,6.77,6.77,0,0,1-2.4,3.8,5.74,5.74,0,0,1-4.2,1.1,6.12,6.12,0,0,1-3.9-2.1,6.77,6.77,0,0,1,0-8.7,6.12,6.12,0,0,1,4-2.2c.9-.1.9-.6,0-.6a7.23,7.23,0,0,0-4.5,2.3,8.14,8.14,0,0,0-2,4.9,7.57,7.57,0,0,0,1.7,5.2,7.13,7.13,0,0,0,9.9,1.5,8.39,8.39,0,0,0,2.6-10.5,8,8,0,0,0-4.2-3.9,3.35,3.35,0,0,0-2-.2c-.5.2-.7.4-.7.6,0,.5.8.9,2.1,1.4" style="fill:#cc7832;fill-opacity:0.3199999928474426;fill-rule:evenodd"/></svg>