<svg xmlns="http://www.w3.org/2000/svg" viewBox="0 0 1984.3 1984.3"><path d="M1599.7,998.6c-8.7,29.1-17.8,55.1-27.4,78.5a6.94,6.94,0,0,0-.5,1.3c-.2.5-.4.9-.6,1.4-3.3,8.1-6.8,15.9-10.2,23.3-.6,1.4-1.3,2.7-1.9,4.1-5.5,11.7-11.2,22.6-17,32.8-.4.6-.7,1.2-1.1,1.9s-.7,1.2-1,1.7a341.47,341.47,0,0,1-33.2,47.6,6603702443221.57,6603702443221.57,0,0,0-1.4,1.6,255.91,255.91,0,0,1-18.8,19.8c-.3.2-.5.5-.8.7a4.62,4.62,0,0,0-.7.7,214,214,0,0,1-38.3,28.4c-.4.2-.7.4-1.1.6s-.7.4-1.1.6a197.36,197.36,0,0,1-26,12.2l-2.4.9a20.94,20.94,0,0,1-2.3.8,236.45,236.45,0,0,1-46.1,11.1l-2,.3c-7.3,1-14.7,1.7-22.1,2.1-.7,0-1.3.1-2,.1-4.9.3-9.7.4-14.7.5h-12.4c-6-.1-12.1-.2-18.2-.5h-1.2a4.87,4.87,0,0,1-1.2-.1c-9.7-.4-19.5-1.1-29.3-1.8-.3,0-.7-.1-1-.1s-.7-.1-1-.1c-7.3-.6-14.7-1.2-22.2-1.9l-2.4-.2c-2.8-.2-5.5-.5-8.3-.8-.4,0-.8-.1-1.2-.1s-.8-.1-1.2-.1l-20.7-1.8c-.7-.1-1.3-.1-2-.2-4.7-.4-9.4-.8-14.1-1.1-.3,0-.6-.1-.9-.1a4.48,4.48,0,0,1-1.1-.1l-4.4-.3a14.77,14.77,0,0,0-2.1-.1c-4.9-.3-9.7-.6-14.6-.8-.5,0-1-.1-1.5-.1s-1-.1-1.5-.1c-7.1-.3-14.3-.5-21.4-.5h-2c-5.3,0-10.6,0-16,.2h0c-1,0-2,0-3,.1-3.2.1-6.5.3-9.8.4-.5,0-1,.1-1.5.1s-1,.1-1.5.1c-9,.6-18.1,1.5-27.2,2.7-5.1.7-10,1.5-14.8,2.4a14.16,14.16,0,0,0-2,.4c-7.7,1.4-15.1,3.1-22.1,4.9-.7.2-1.3.3-2,.5-4.5,1.2-8.8,2.5-13,3.8-.3.1-.7.2-1,.3s-.6.2-1,.3c-2.2.7-4.3,1.4-6.4,2.2a13.36,13.36,0,0,0-1.8.7c-4.2,1.5-8.2,3.2-12.2,4.9-.3.1-.6.3-.9.4a10.37,10.37,0,0,1-1,.4c-37.7,16.6-65,39.9-90.3,66-.7.7-1.3,1.4-2,2.1-1.7,1.8-3.4,3.6-5.2,5.4-.7.7-1.3,1.4-2,2.1-4.9,5.2-9.8,10.6-14.7,16-.6.7-1.3,1.4-2,2.2-4.2,4.6-8.3,9.2-12.6,13.8h0c-.7.7-1.3,1.4-2,2.2-30.4,33-64.5,66.8-116.3,94.8a19.83,19.83,0,0,0-2,1.1c-6.5,3.4-13.2,6.8-20.2,10.1-.7.3-1.3.6-2,.9-6.4,2.9-13.1,5.8-20.1,8.6-.7.3-1.3.5-2,.8-6.5,2.5-13.2,5-20.2,7.3-.7.2-1.3.5-2,.7-4,1.4-8.2,2.7-12.4,4l-2,.6c-5.2,1.6-10.6,3.1-16.1,4.6-12.5,3.4-24.7,6.2-36.6,8.6-.7.1-1.3.3-2,.4-12.7,2.5-25.1,4.4-37.1,5.7a13.55,13.55,0,0,1-2,.2c-7,.8-13.9,1.3-20.6,1.7-.7,0-1.3.1-2,.1-2,.1-4,.2-6.1.2-.7,0-1.3.1-2,.1-4.5.1-9,.2-13.4.1h-2c-4.2-.1-8.3-.2-12.4-.4-.7,0-1.3-.1-2-.1-44.9-2.8-83.9-14.9-117.6-35.2-.7-.4-1.3-.8-2-1.2-1.5-1-3.1-1.9-4.6-2.9-5.4-3.5-10.7-7.3-15.9-11.2-.7-.5-1.3-1.1-2-1.6-5.9-4.7-11.7-9.6-17.2-14.9-.9-.9-1.9-1.8-2.8-2.7l-2-2a300.34,300.34,0,0,1-20.6-22.8c-.7-.8-1.3-1.7-2-2.5-4.4-5.6-8.6-11.3-12.7-17.3-.7-1-1.4-2-2-3a359.86,359.86,0,0,1-22.5-38.5c-.2-.3-.3-.7-.5-1h0c-.2-.3-.3-.7-.5-1-3.1-6.2-6.2-12.6-9.1-19.1a15.39,15.39,0,0,1-.8-1.9c-1.4-3.2-2.8-6.4-4.1-9.6a10.37,10.37,0,0,1-.4-1c-.1-.4-.3-.6-.4-1-3.7-9-7.2-18.3-10.5-27.8l-.6-1.8h0c-.2-.6-.4-1.2-.6-1.9-1.1-3.2-2.2-6.5-3.2-9.8-.1-.3-.2-.6-.3-1s-.2-.7-.3-1c-4-12.6-7.7-25.6-11.2-39.1-.1-.6-.3-1.1-.4-1.7h0c-.1-.6-.3-1.2-.4-1.7-2.3-9.1-4.4-18.3-6.4-27.8a4.25,4.25,0,0,1-.2-1.1c-.1-.4-.1-.7-.2-1.1-1-4.5-1.9-9-2.8-13.6-45.5-236.3,38-715.2,249.5-583.6,168.1,104.6,49.8-152,518-176.4,209.6-11-53.8,335.3,271.7,233.3C1619.8,592.9,1639.1,866.7,1599.7,998.6Z" style="fill:#eaf4fb"/><path d="M270.8,1312.3a54.09,54.09,0,0,1-1.6,13.3c-.2-.6-.4-1.2-.6-1.9-1.1-3.2-2.2-6.5-3.2-9.8-.1-.3-.2-.6-.3-1A37.39,37.39,0,0,1,270.8,1312.3Z" style="fill:#fff"/><path d="M271.8,1311.2h-1a54.41,54.41,0,0,0-6,.6c.1.3.2.7.3,1s.2.6.3,1a35.38,35.38,0,0,1,4.5-.5,48,48,0,0,1-1.2,10.3c.2.6.4,1.2.6,1.9h0l.6,1.8a60.55,60.55,0,0,0,1.9-15.1Z" style="fill:#9ccbf0"/><path d="M261,1234s-2.3,21.8-7.9,37.1c-.1-.6-.3-1.2-.4-1.7-2.3-9.1-4.4-18.3-6.4-27.8a4.25,4.25,0,0,1-.2-1.1C255.4,1234.6,261,1234,261,1234Z" style="fill:#fff"/><path d="M260.9,1233c-.4,0-6,.7-15.1,6.4a4.25,4.25,0,0,1,.2,1.1,4.25,4.25,0,0,1,.2,1.1c6.6-4.3,11.4-5.8,13.5-6.3-.6,4.8-2.8,21.4-7.1,34.1.1.6.3,1.2.4,1.7h0a10.46,10.46,0,0,1,.4,1.7c5.8-15.1,8.3-37.5,8.4-38.7l.1-1.2Z" style="fill:#9ccbf0"/><path d="M320.8,1431.2c-.7-1-1.4-2-2-3-.4-45.8-.8-86.8-1-103.5,0-1.9,0-3.5-.1-4.7a22,22,0,0,0-.1-3.1v-.1c-.3-5.9-6.8-48.4-27.1-62.5l1.1-1.6c19.4,13.5,26.6,51.8,27.8,62.2.1.8.2,1.5.2,1.9s.1,2.4.1,5.5c0,1.7.1,3.7.1,6C320.1,1347.1,320.4,1387.1,320.8,1431.2Z" style="fill:#9ccbf0"/><path d="M335.6,1451c-.7-.8-1.3-1.7-2-2.5-.6-93.5-1.5-194.8-2.7-206.5-.1-1-.2-2.1-.4-3.2-.1-.4-.1-.9-.2-1.4s-.1-.9-.2-1.4c-3.8-22.7-17.2-64-41.5-73.6l.7-1.9c24.3,9.6,38,49.2,42.3,72.8.2.9.3,1.7.5,2.6s.3,1.6.4,2.4c.2,1.2.3,2.4.4,3.5C334,1253.6,334.9,1356.8,335.6,1451Z" style="fill:#9ccbf0"/><path d="M379.5,1347.6v3.7c0,29.3.3,89,.7,143.7-.7-.5-1.3-1.1-2-1.6-.3-54.4-.7-113.2-.7-142.2v-14.1a38,38,0,0,1,.1-4.1c1.2-17.1,8.5-50.2,43.3-79.4l1.3,1.5c-34.3,28.8-41.4,61.2-42.6,78-.1,1-.1,5-.1,11.5Z" style="fill:#9ccbf0"/><path d="M401,1381.2l.1,9.7v3.9l1.4,115.5c-.7-.4-1.3-.8-2-1.2l-1.4-115.4v-4h0l-.1-8.4c0-.3-1.4-35.2,33.7-52.7l.9,1.8C399.7,1347.3,401,1380.8,401,1381.2Z" style="fill:#9ccbf0"/><path d="M358.1,1475.8l-2-2c0-86.8-.1-198.9-.5-282.1v-2.9c-.2-64.2-.6-110.5-1.2-113.4l2-.4c.6,3,1,48.9,1.2,112.6v4.3C358,1275.8,358.1,1388.8,358.1,1475.8Z" style="fill:#9ccbf0"/><path d="M400.6,1394s10.7-19.4,23.7-28.7,22.2-33.3,22-49.1c0,0-27.6,1-39.8,18.9S388.8,1376.9,400.6,1394Z" style="fill:#fff"/><path d="M447.2,1315.2h-1c-1.1,0-28.3,1.3-40.5,19.3-10.7,15.7-18.6,40.4-6.4,59.2.2.3.3.5.5.8l.9,1.3.6-1,.2-.4c.1-.2,10.8-19.3,23.4-28.3,13.5-9.7,22.6-34.1,22.4-49.9Zm-40,20.4c10.4-15.3,32.9-17.9,37.9-18.3-.2,15.3-9.2,38.3-21.5,47.2-10.3,7.4-19.1,20.9-22.5,26.4a10.54,10.54,0,0,1-.7,1.1c-.5-.8-.9-1.6-1.4-2.4h0C390,1372.1,397.5,1350,407.2,1335.6Z" style="fill:#9ccbf0"/><path d="M297.6,1361.2a61.24,61.24,0,0,0-11.5,7.3,15.39,15.39,0,0,1-.8-1.9,69.56,69.56,0,0,1,11.4-7.2Z" style="fill:#9ccbf0"/><path d="M310.2,1347.1c.2,12.5-5.6,30.1-14.4,41.5-.2-.3-.3-.7-.5-1-3.1-6.2-6.2-12.6-9.1-19.1a15.39,15.39,0,0,1-.8-1.9c-1.4-3.2-2.8-6.4-4.1-9.6a10.37,10.37,0,0,1-.4-1C293.9,1347.7,310.2,1347.1,310.2,1347.1Z" style="fill:#fff"/><path d="M311.2,1346.1h-1c-.9,0-16.7.7-29.7,9a10.37,10.37,0,0,1,.4,1c.1.4.3.6.4,1,10.9-7,24.2-8.5,28-8.8-.1,11.9-5.6,28.5-13.9,39.5.2.3.3.7.5,1h0c.2.3.3.7.5,1,9.3-11.7,15.1-29.9,14.9-42.6Z" style="fill:#9ccbf0"/><path d="M378.5,1351.1s-11.1-47.3,14.2-79.3,43.6-33.8,43.6-33.8-4.2,39.5-14.8,49.3C411.1,1297.1,383.1,1330.9,378.5,1351.1Z" style="fill:#fff"/><path d="M436.3,1237c-.8.1-19,2.2-44.3,34.2-24.6,31.1-15.1,76.9-14.4,80v.2l1,4.2,1-4.2v-.1c4.6-19.7,32-53.2,42.8-63.2s14.9-48.3,15.1-50l.1-1.2Zm-56.8,107.6a14.27,14.27,0,0,0-.8,2.2c-.4-2.4-.8-5.7-1.2-9.7v-.1c-1.3-16.3-.4-43.9,16-64.6,21-26.5,37.2-32.1,41.7-33.2-.9,7-5.2,38.9-14.3,47.4C411.1,1295.7,387.4,1324.4,379.5,1344.6Z" style="fill:#9ccbf0"/><path d="M356.8,1191.5s-30.6-26.9-15.9-87,8.5-68.4,8.5-68.4,26.1,33.1,26.6,76.4S356.8,1191.5,356.8,1191.5Z" style="fill:#fff"/><path d="M350.3,1035.4l-1.6,1.2c.1.1,5.5,9.5-8.7,67.6-7.7,31.3-2.9,53.6,2.5,66.7,5,12.4,11.4,19.1,13.2,20.9.3.3.5.4.5.5l.9.8.6-1v-.1c.2-.4,19.9-36.4,19.4-79.5C376.6,1069.2,350.5,1035.8,350.3,1035.4Zm1.2,5.2c6.7,10,23.1,37.9,23.5,71.8.4,35.1-12.7,65.3-17.4,75.2-.4.9-.8,1.6-1.1,2.2a9,9,0,0,1-.9-1c-6.3-7-26-34-13.7-84.2C351.5,1065.5,352.2,1048.1,351.5,1040.6Z" style="fill:#9ccbf0"/><path d="M331.3,1238.2s15.1-45.4-22-76.7-51.1-28.4-51.1-28.4,18.1,49.8,39.8,73.9S331.3,1238.2,331.3,1238.2Z" style="fill:#fff"/><path d="M309.9,1160.8c-37.1-31.2-51.4-28.8-52-28.7l-1.1.2.4,1.1c.2.5,18.4,50.3,40,74.2,19.6,21.7,31,29.7,33.2,31.2.2.1.4.2.4.3l1.1.7.4-1.2a.31.31,0,0,1,.1-.2C333.4,1234.8,345.9,1191,309.9,1160.8Zm-11.2,45.5c-19.4-21.5-36.1-64.3-39.1-72.2,4.1.2,18.9,2.9,49.1,28.3,29.4,24.8,25.5,58.9,22.9,71.1-.3,1.4-.6,2.5-.8,3.3-.2-.2-.5-.3-.8-.6C325.9,1233.1,315.1,1224.5,298.7,1206.3Z" style="fill:#9ccbf0"/><path d="M319,1327.1s7.5-40.3-6.9-63.3a107.51,107.51,0,0,0-34.1-34.1s-2.8,25.8,8.5,43.4S318.5,1310.3,319,1327.1Z" style="fill:#fff"/><path d="M313,1263.2a110.2,110.2,0,0,0-34.4-34.4l-1.3-.8-.2,1.5c-.1,1.1-2.8,26.4,8.7,44,3.4,5.3,7.7,10.8,11.9,16.2,9.2,11.8,18.6,24,20.2,34.8a19.42,19.42,0,0,1,.2,2.4l.3,9.3,1.5-8.2.2-.9C320.3,1325.6,327.4,1286.3,313,1263.2Zm4.7,53.6c-3.7-9.2-11.1-18.8-18.5-28.2-4.1-5.3-8.4-10.9-11.8-16.1-9.4-14.6-8.9-35.3-8.5-41.1a110.76,110.76,0,0,1,32.4,32.9c9.2,14.7,9.3,36.8,8.2,50.4-.2,2.2-.4,4.1-.6,5.8A31.64,31.64,0,0,0,317.7,1316.8Z" style="fill:#9ccbf0"/><path d="M522.2,1545.6c-.7,0-1.3-.1-2-.1-.6-61.6-1.5-152-1.9-179.5h0c0-1.9-.1-3.5-.1-4.8a22,22,0,0,0-.1-3.1v-.2c-.3-5.9-6.8-48.4-27.1-62.5l1.1-1.6c19.4,13.5,26.6,51.8,27.8,62.2h0c.1.8.1,1.5.2,1.9s.1,2.4.1,5.4c0,1.7,0,3.7.1,6h0C520.8,1400.2,521.7,1486.2,522.2,1545.6Z" style="fill:#9ccbf0"/><path d="M536.6,1546.1h-2c-.5-89.3-1.7-247-3.3-262.8-.1-1-.2-2.1-.4-3.2-.1-.4-.1-.9-.2-1.4s-.1-.9-.2-1.4c-3.8-22.7-17.2-64-41.5-73.6l.7-1.9c24.3,9.6,38,49.2,42.3,72.8h0a23.36,23.36,0,0,1,.4,2.6c.1.8.3,1.6.4,2.4.2,1.2.3,2.4.4,3.5C534.9,1298.9,536.1,1456.8,536.6,1546.1Z" style="fill:#9ccbf0"/><path d="M559.1,1343.6v3.7c0,39.6.6,134.8,1,198.3-.7,0-1.3.1-2,.1-.4-63.6-1-158.8-1-198.5v-14.3h0a34.68,34.68,0,0,1,.1-3.9c1.2-17.1,8.5-50.2,43.3-79.4l1.3,1.5c-34.3,28.8-41.4,61.2-42.6,78-.1,1-.1,5.1-.1,11.5h0Z" style="fill:#9ccbf0"/><path d="M580.6,1377.2l.1,9.7v3.9l1.9,152.8a13.55,13.55,0,0,1-2,.2l-1.9-154.2h0v-4h0l-.1-8.4c0-.3-1.4-35.2,33.7-52.7l.9,1.8C579.2,1343.3,580.6,1376.9,580.6,1377.2Z" style="fill:#9ccbf0"/><path d="M552,1545.9c-.7,0-1.3.1-2,.1,0-84.7,0-239.1-.4-346v-2.9c-.2-64.1-.6-110.5-1.2-113.4l2-.4c.6,3,1,49,1.2,112.5h0v4.3C552,1307.1,552,1461.1,552,1545.9Z" style="fill:#9ccbf0"/><path d="M580.2,1390s10.7-19.4,23.7-28.7,22.2-33.3,22-49.1c0,0-27.6,1-39.8,18.9S568.4,1372.9,580.2,1390Z" style="fill:#fff"/><path d="M626.7,1311.2h-1c-1.1,0-28.3,1.2-40.6,19.3-10.7,15.7-18.6,40.4-6.4,59.1h0a9.22,9.22,0,0,1,.5.8l.9,1.3.6-1,.2-.4c.1-.2,10.8-19.3,23.4-28.3,13.5-9.7,22.6-34.1,22.4-49.9Zm-48,74.5c-9.1-17.5-1.7-39.7,8.1-54,10.4-15.3,32.9-17.9,38-18.3-.2,15.3-9.2,38.3-21.5,47.2-10.3,7.4-19.1,20.9-22.5,26.4a10.54,10.54,0,0,1-.7,1.1c-.5-.8-.9-1.6-1.4-2.4Z" style="fill:#9ccbf0"/><path d="M558.1,1347.1s-11.1-47.3,14.2-79.3,43.6-33.8,43.6-33.8-4.2,39.5-14.8,49.3S562.7,1327,558.1,1347.1Z" style="fill:#fff"/><path d="M615.8,1233c-.8.1-19,2.2-44.3,34.2-24.6,31.1-15.1,76.9-14.4,80v.2l1,4.2,1-4.2v-.1c4.6-19.7,32-53.2,42.8-63.2s14.9-48.3,15.1-49.9l.1-1.2Zm-56.7,107.7h0a19.45,19.45,0,0,0-.8,2.2c-.4-2.4-.8-5.8-1.2-9.9h0c-1.3-16.3-.4-43.7,16-64.4,21-26.5,37.2-32.1,41.7-33.2-.8,7-5.2,38.9-14.3,47.3C590.7,1291.8,567,1320.4,559.1,1340.7Z" style="fill:#9ccbf0"/><path d="M550.7,1199.7s-30.6-26.9-15.9-87,8.5-68.4,8.5-68.4,26.1,33.1,26.6,76.4S550.7,1199.7,550.7,1199.7Z" style="fill:#fff"/><path d="M544.2,1043.6l-1.6,1.2c.2.4,5.5,9.6-8.7,67.6-7.7,31.3-2.9,53.6,2.5,66.7,5.1,12.4,11.4,19.1,13.2,20.9l.5.5.9.8.6-1h0c.2-.4,19.9-36.4,19.4-79.5C570.5,1077.4,544.4,1043.9,544.2,1043.6Zm-8.4,69.3c9.6-39.2,10.3-56.6,9.6-64.1,6.7,10,23.1,37.9,23.5,71.8.4,35-12.6,65.2-17.4,75.1h0a22.22,22.22,0,0,1-1.1,2.2,9,9,0,0,1-.9-1C543.3,1190,523.5,1163.1,535.8,1112.9Z" style="fill:#9ccbf0"/><path d="M531.9,1279.5s15.1-45.4-22-76.7-51.1-28.4-51.1-28.4,18.1,49.8,39.8,73.9C520.1,1272.2,531.9,1279.5,531.9,1279.5Z" style="fill:#fff"/><path d="M510.5,1202.1c-37.1-31.2-51.4-28.8-52-28.7l-1.1.2.4,1.1c.2.5,18.4,50.3,40,74.2,19.6,21.7,30.9,29.7,33.2,31.2.2.2.4.2.4.3l1.1.7.4-1.2a.31.31,0,0,1,.1-.2C534,1276.1,546.4,1232.3,510.5,1202.1Zm-11.3,45.5c-19.4-21.5-36.1-64.2-39.1-72.2,4.1.2,18.9,2.9,49.1,28.3,29.5,24.8,25.5,58.9,22.9,71.1h0c-.3,1.4-.6,2.5-.8,3.2-.2-.2-.5-.3-.8-.6C526.4,1274.3,515.6,1265.8,499.2,1247.6Z" style="fill:#9ccbf0"/><path d="M519.5,1368.3s7.5-40.3-6.9-63.3a107.51,107.51,0,0,0-34.1-34.1s-2.8,25.8,8.5,43.4S519,1351.6,519.5,1368.3Z" style="fill:#fff"/><path d="M513.5,1304.5a110.2,110.2,0,0,0-34.4-34.4l-1.3-.8-.2,1.5c-.1,1.1-2.8,26.4,8.7,44,3.4,5.3,7.7,10.8,11.9,16.2,9.2,11.8,18.7,24,20.2,34.9h0a17.85,17.85,0,0,1,.2,2.3l.3,9.3,1.6-8.3h0l.1-.8C520.8,1366.8,528,1327.6,513.5,1304.5Zm4.7,53.6h0c-3.7-9.2-11.2-18.9-18.5-28.3-4.1-5.3-8.5-10.9-11.8-16.1-9.4-14.6-8.9-35.3-8.5-41.1a110.76,110.76,0,0,1,32.4,32.9c9.2,14.6,9.3,36.8,8.2,50.4h0c-.2,2.2-.4,4.1-.6,5.8A37.88,37.88,0,0,0,518.2,1358.1Z" style="fill:#9ccbf0"/><path d="M676.5,1523.8l-2,.6c-.6-73.2-1.4-171.3-1.8-199.7h0c0-1.9-.1-3.4-.1-4.6a22,22,0,0,0-.1-3.1v-.1c-.3-5.9-6.8-48.4-27.1-62.5l1.1-1.6c19.4,13.5,26.6,51.8,27.8,62.2h0c.1.8.2,1.5.2,1.9s.1,2.4.1,5.5c0,1.7,0,3.7.1,6h0C675.1,1360.3,675.9,1453.4,676.5,1523.8Z" style="fill:#9ccbf0"/><path d="M690.9,1519.1c-.7.2-1.3.5-2,.7-.6-104.2-1.7-263.1-3.2-277.8-.1-1-.2-2.1-.4-3.2-.1-.4-.1-.9-.2-1.4s-.1-.9-.2-1.4c-3.8-22.7-17.2-64-41.5-73.6l.7-1.9c24.3,9.6,38,49.2,42.4,72.8h0c.2.9.3,1.7.4,2.5s.3,1.6.4,2.4c.2,1.2.3,2.4.4,3.5C689.2,1256.6,690.3,1414.8,690.9,1519.1Z" style="fill:#9ccbf0"/><path d="M734.4,1347.6v3.6c0,30.5.3,93.8.7,150.3-.7.3-1.3.6-2,.9-.4-56.8-.7-120.6-.7-151.3v-14.3h0a34.68,34.68,0,0,1,.1-3.9c1.2-17.1,8.5-50.2,43.3-79.4l1.3,1.5c-34.3,28.8-41.4,61.2-42.6,78-.1,1-.1,5-.1,11.5h0Z" style="fill:#9ccbf0"/><path d="M756,1381.2l.1,9.8v3.9l1.2,95.5a19.83,19.83,0,0,0-2,1.1l-1.2-97.7h0v-4h0l-.1-8.4c0-.3-1.4-35.2,33.7-52.7l.9,1.8C754.6,1347.3,755.9,1380.8,756,1381.2Z" style="fill:#9ccbf0"/><path d="M713,1511c-.7.3-1.3.5-2,.8,0-89.7-.1-224.1-.5-320v-2.9c-.2-64.2-.6-110.5-1.2-113.4l2-.4c.6,3,1,48.9,1.2,112.6h0v4.3C713,1287.7,713,1421.3,713,1511Z" style="fill:#9ccbf0"/><path d="M755.5,1394s10.7-19.4,23.7-28.7,22.2-33.3,22-49.1c0,0-27.6,1-39.8,18.9S743.7,1376.9,755.5,1394Z" style="fill:#fff"/><path d="M802.1,1315.2h-1c-1.1,0-28.3,1.3-40.6,19.3-10.7,15.7-18.6,40.4-6.4,59.2h0c.2.3.3.5.5.8l.9,1.3.5-1,.2-.4c.1-.2,10.8-19.3,23.4-28.3,13.5-9.7,22.6-34.1,22.4-49.9Zm-48,74.5h0c-9.1-17.5-1.7-39.7,8.1-54,10.4-15.3,32.9-17.9,37.9-18.3-.2,15.3-9.2,38.3-21.5,47.2-10.3,7.4-19.1,20.9-22.5,26.5a10.54,10.54,0,0,1-.7,1.1c-.5-.9-.9-1.7-1.3-2.5Z" style="fill:#9ccbf0"/><path d="M619.9,1412.1l.1,9.7v3.9l1.6,111.9c-.7.1-1.3.3-2,.4l-1.7-113.3v-4h0l-.1-8.5c0-.3-1.4-35.2,33.7-52.7l.9,1.8C618.6,1378.2,619.9,1411.8,619.9,1412.1Z" style="fill:#9ccbf0"/><path d="M619.5,1424.9s10.7-19.4,23.7-28.7,22.2-33.3,22-49.1c0,0-27.6,1-39.8,18.9S607.7,1407.8,619.5,1424.9Z" style="fill:#fff"/><path d="M666,1346.1h-1c-1.2,0-28.3,1.3-40.6,19.3-10.7,15.7-18.6,40.5-6.3,59.2.2.3.3.5.5.8l.9,1.3.6-1.1.2-.4c.1-.2,10.8-19.3,23.4-28.3,13.5-9.7,22.6-34.1,22.4-49.9Zm-47.9,74.5h0c-9.2-17.6-1.7-39.8,8.1-54.1,10.4-15.3,32.9-17.9,37.9-18.3-.2,15.3-9.2,38.3-21.5,47.2-10.3,7.4-19.1,20.8-22.5,26.4a10.54,10.54,0,0,1-.7,1.1A17.1,17.1,0,0,1,618.1,1420.6Z" style="fill:#9ccbf0"/><path d="M733.4,1351.1s-11.1-47.3,14.2-79.3,43.6-33.8,43.6-33.8-4.2,39.5-14.8,49.3C766,1297.1,738,1330.9,733.4,1351.1Z" style="fill:#fff"/><path d="M791.2,1237c-.8.1-19,2.2-44.3,34.2-24.6,31.1-15.1,76.9-14.4,80v.2l1,4.2,1-4.2v-.1c4.6-19.7,32.1-53.2,42.8-63.1s14.9-48.3,15.1-50l.1-1.2Zm-56.8,107.6h0a19.45,19.45,0,0,0-.8,2.2c-.4-2.4-.8-5.8-1.2-9.9h0c-1.3-16.3-.4-43.7,16-64.4,21-26.5,37.2-32.1,41.7-33.2-.8,7-5.2,38.9-14.3,47.4C766,1295.7,742.3,1324.4,734.4,1344.6Z" style="fill:#9ccbf0"/><path d="M711.7,1191.5s-30.6-26.9-15.9-87,8.5-68.4,8.5-68.4,26.1,33.1,26.6,76.4S711.7,1191.5,711.7,1191.5Z" style="fill:#fff"/><path d="M705.2,1035.4l-1.6,1.2c.1.1,5.5,9.5-8.7,67.6-7.7,31.3-2.9,53.6,2.5,66.7,5.1,12.4,11.4,19.1,13.2,20.9.3.3.5.4.5.5l.9.8.6-1h0c.2-.4,19.9-36.4,19.4-79.5C731.5,1069.2,705.4,1035.8,705.2,1035.4Zm7.4,152.3c-.4.9-.8,1.6-1.1,2.2a9,9,0,0,1-.9-1c-6.3-7-26-34-13.7-84.2,9.6-39.2,10.3-56.6,9.6-64.1,6.7,10,23.1,37.9,23.5,71.8.4,35.1-12.7,65.4-17.4,75.3Z" style="fill:#9ccbf0"/><path d="M686.2,1238.2s15.1-45.4-22-76.7-51.1-28.4-51.1-28.4,18.1,49.8,39.8,73.9S686.2,1238.2,686.2,1238.2Z" style="fill:#fff"/><path d="M664.8,1160.8c-37.1-31.2-51.4-28.8-52-28.7l-1.1.2.4,1.1c.2.5,18.4,50.3,40,74.2,19.6,21.7,30.9,29.7,33.2,31.2.2.2.4.2.4.3l1.1.7.4-1.2a.31.31,0,0,1,.1-.2C688.3,1234.8,700.8,1191,664.8,1160.8Zm21.7,72.6c-.3,1.4-.6,2.5-.8,3.2-.2-.2-.5-.3-.8-.6-4.1-3-14.9-11.6-31.3-29.8-19.4-21.5-36.1-64.3-39.1-72.2,4.1.2,18.9,2.9,49.1,28.3,29.4,24.8,25.4,58.9,22.9,71.1Z" style="fill:#9ccbf0"/><path d="M673.9,1327.1s7.5-40.3-6.9-63.3a107.51,107.51,0,0,0-34.1-34.1s-2.8,25.8,8.5,43.4S673.4,1310.3,673.9,1327.1Z" style="fill:#fff"/><path d="M667.9,1263.2a110.2,110.2,0,0,0-34.4-34.4l-1.3-.8-.2,1.5c-.1,1.1-2.8,26.4,8.7,44,3.4,5.3,7.7,10.8,11.9,16.2,9.1,11.8,18.6,23.9,20.2,34.7h0a19.42,19.42,0,0,1,.2,2.4l.3,9.3,1.5-8.3h0l.2-.8C675.2,1325.6,682.3,1286.3,667.9,1263.2Zm4.7,53.6h0c-3.7-9.2-11.2-18.8-18.5-28.2a199.21,199.21,0,0,1-11.8-16.1c-9.4-14.6-8.9-35.3-8.5-41.1a109.65,109.65,0,0,1,32.3,32.9c9.2,14.7,9.3,36.8,8.2,50.4h0c-.2,2.2-.4,4.1-.6,5.8A19.2,19.2,0,0,0,672.6,1316.8Z" style="fill:#9ccbf0"/><path d="M875.6,1393.4h0c-.7.7-1.3,1.4-2,2.2-.1-12.6-.3-22.8-.4-29.4v-.1c0-1.9,0-3.5-.1-4.8a22,22,0,0,0-.1-3.1v-.1c-.3-5.9-6.8-48.4-27.1-62.5l1.1-1.6c19.4,13.5,26.6,51.8,27.8,62.2h0c.1.8.2,1.5.2,1.9s.1,2.4.1,5.4c0,1.7,0,3.7.1,6h0C875.4,1375.4,875.5,1383.6,875.6,1393.4Z" style="fill:#9ccbf0"/><path d="M890.2,1377.4c-.6.7-1.3,1.4-2,2.2-.5-49.1-1.2-88.8-2-96.3-.1-1-.2-2.1-.4-3.2-.1-.4-.1-.9-.2-1.4a6.75,6.75,0,0,1-.2-1.4c-3.8-22.7-17.2-64-41.5-73.6l.7-1.9c24.3,9.6,38,49.2,42.3,72.8h0c.2.9.3,1.7.4,2.5s.3,1.6.4,2.4c.2,1.2.3,2.4.4,3.5C889,1290.5,889.6,1329.2,890.2,1377.4Z" style="fill:#9ccbf0"/><path d="M956.7,1251.1c-34.3,28.8-41.4,61.2-42.6,78-.1,1-.1,5.1-.1,11.5h0v11.1c-.7.7-1.3,1.4-2,2.1v-21c0-2,.1-3.4.1-3.9,1.2-17.1,8.5-50.2,43.3-79.4Z" style="fill:#9ccbf0"/><path d="M906.8,1359.3c-.7.7-1.3,1.4-2,2.1-.1-56.3-.2-113.6-.3-161.5V1197c-.2-64.1-.6-110.5-1.2-113.4l2-.4c.6,3,1,49,1.2,112.5h0v4.4C906.7,1247.4,906.8,1303.8,906.8,1359.3Z" style="fill:#9ccbf0"/><path d="M913,1347.1s-11.1-47.3,14.2-79.3,43.6-33.8,43.6-33.8-4.2,39.5-14.8,49.3S917.6,1327,913,1347.1Z" style="fill:#fff"/><path d="M970.8,1233c-.8.1-19,2.2-44.3,34.2-24.6,31.1-15.1,76.9-14.4,80v.2l1,4.2,1-4.2v-.1c4.6-19.7,32-53.2,42.8-63.2s14.9-48.3,15.1-49.9l.1-1.2ZM914,1340.7h0a19.45,19.45,0,0,0-.8,2.2c-.4-2.4-.8-5.7-1.2-9.7v-.2c-1.3-16.3-.4-43.8,16-64.4,21-26.5,37.2-32.1,41.7-33.2-.9,7-5.2,38.9-14.3,47.3C945.6,1291.8,921.9,1320.4,914,1340.7Z" style="fill:#9ccbf0"/><path d="M905.6,1199.7s-30.6-26.9-15.9-87,8.5-68.4,8.5-68.4,26.1,33.1,26.6,76.4S905.6,1199.7,905.6,1199.7Z" style="fill:#fff"/><path d="M899.1,1043.6l-1.6,1.2c.2.4,5.5,9.6-8.7,67.6-7.7,31.3-2.9,53.6,2.5,66.7a66,66,0,0,0,13.2,20.9l.5.5.9.8.6-1h0c.2-.4,19.9-36.4,19.4-79.5C925.4,1077.4,899.3,1043.9,899.1,1043.6Zm7.4,152.2a22.22,22.22,0,0,1-1.1,2.2,7.3,7.3,0,0,0-.9-1h0c-6.3-7.1-26-34-13.8-84.1,9.6-39.2,10.3-56.6,9.6-64.1,6.7,10,23.1,37.9,23.5,71.8.5,35.1-12.5,65.3-17.3,75.2Z" style="fill:#9ccbf0"/><path d="M886.8,1279.5s15.1-45.4-22-76.7-51.1-28.4-51.1-28.4,18.1,49.8,39.8,73.9C875,1272.2,886.8,1279.5,886.8,1279.5Z" style="fill:#fff"/><path d="M865.4,1202.1c-37.1-31.2-51.4-28.8-52-28.7l-1.1.2.4,1.1c.2.5,18.4,50.3,40,74.2,19.6,21.7,31,29.7,33.2,31.2.2.2.4.2.4.3l1.1.7.4-1.2a.31.31,0,0,1,.1-.2C888.8,1276.1,901.3,1232.3,865.4,1202.1Zm21.6,72.6c-.3,1.4-.6,2.5-.8,3.2-.2-.2-.5-.3-.8-.6-4.1-3-14.9-11.6-31.3-29.8-19.4-21.5-36.1-64.2-39.1-72.2,4.1.2,18.9,2.9,49.1,28.3,29.4,24.7,25.4,58.9,22.9,71.1Z" style="fill:#9ccbf0"/><path d="M874.4,1368.3s7.5-40.3-6.9-63.3a107.51,107.51,0,0,0-34.1-34.1s-2.8,25.8,8.5,43.4C853.4,1331.9,873.9,1351.6,874.4,1368.3Z" style="fill:#fff"/><path d="M868.4,1304.5a110.2,110.2,0,0,0-34.4-34.4l-1.3-.8-.2,1.5c-.1,1.1-2.7,26.4,8.7,44,3.4,5.3,7.7,10.8,11.9,16.2,9.2,11.8,18.7,24,20.2,34.9v.1a16.35,16.35,0,0,1,.2,2.2l.3,9.3,1.6-8.3h0l.1-.8C875.7,1366.8,882.9,1327.6,868.4,1304.5Zm4.7,53.6h0c-3.7-9.2-11.2-18.8-18.4-28.2a199.21,199.21,0,0,1-11.8-16.1c-9.4-14.6-8.9-35.3-8.5-41.1a110.76,110.76,0,0,1,32.4,32.9c9.2,14.6,9.3,36.8,8.2,50.4h0c-.2,2.2-.4,4.1-.6,5.8C874,1360.5,873.6,1359.3,873.1,1358.1Z" style="fill:#9ccbf0"/><path d="M1020.3,1279.5a13.36,13.36,0,0,0-1.8.7c-4.2-10.4-10-20.4-18-25.9l1.1-1.6C1009.9,1258.3,1015.9,1268.7,1020.3,1279.5Z" style="fill:#9ccbf0"/><path d="M1043.6,1272.2c-.7.2-1.3.3-2,.5-.3-16.3-.6-27.4-1-30.8-.1-1-.2-2.1-.4-3.2-.1-.4-.1-.9-.2-1.4s-.1-.9-.2-1.4c-3.8-22.7-17.2-64-41.5-73.6l.7-1.9c24.3,9.6,38,49.2,42.3,72.8h0c.2.9.3,1.7.4,2.5s.3,1.6.4,2.4c.2,1.2.3,2.4.4,3.5C1042.9,1245.2,1043.3,1256.1,1043.6,1272.2Z" style="fill:#9ccbf0"/><path d="M1132.1,1255.1c-2.4,2-4.6,4-6.8,6.1h0c-1,0-2,0-3,.1,2.6-2.6,5.4-5.1,8.4-7.7Z" style="fill:#9ccbf0"/><path d="M1067.7,1266.9a14.16,14.16,0,0,0-2,.4c-.1-26.7-.1-52.2-.2-75.5v-2.9c-.2-64.2-.6-110.5-1.2-113.4l2-.4c.6,3,1,48.9,1.2,112.6v2.2h0v2.1C1067.6,1215.2,1067.7,1240.5,1067.7,1266.9Z" style="fill:#9ccbf0"/><path d="M1146.2,1238a228.5,228.5,0,0,1-3.9,23h-1c-5.3,0-10.6,0-16,.2h0c-1,0-2,0-3,.1-3.2.1-6.5.3-9.8.4-.5,0-1,.1-1.5.1C1131.9,1239.4,1146.2,1238,1146.2,1238Z" style="fill:#fff"/><path d="M1146.1,1237c-.7.1-15.3,1.8-36.4,24.9.5,0,1-.1,1.5-.1s1-.1,1.5-.1c16.4-17.4,28.6-21.5,32.4-22.5-.4,3.3-1.6,12.3-3.7,21.7h2a211.41,211.41,0,0,0,3.8-22.9l.1-1.2Z" style="fill:#9ccbf0"/><path d="M1066.6,1191.5s-30.6-26.9-15.9-87,8.5-68.4,8.5-68.4,26.1,33.1,26.6,76.4S1066.6,1191.5,1066.6,1191.5Z" style="fill:#fff"/><path d="M1060.1,1035.4l-1.6,1.2c.2.4,5.5,9.6-8.7,67.6-7.7,31.3-2.9,53.6,2.5,66.7,5.1,12.4,11.4,19.1,13.2,20.9.3.3.5.4.5.5l.9.8.6-1v-.1c.2-.4,19.9-36.4,19.4-79.5C1086.4,1069.2,1060.3,1035.8,1060.1,1035.4Zm1.2,5.2c6.7,10,23.1,37.9,23.5,71.8.4,35-12.7,65.3-17.4,75.2h0c-.4.9-.8,1.6-1.1,2.2a9,9,0,0,1-.9-1c-6.3-7-26-34-13.7-84.2C1061.3,1065.5,1062.1,1048.1,1061.3,1040.6Z" style="fill:#9ccbf0"/><path d="M1041.2,1238.2s15.1-45.4-22-76.7-51.1-28.4-51.1-28.4,18.1,49.8,39.8,73.9C1029.4,1231,1041.2,1238.2,1041.2,1238.2Z" style="fill:#fff"/><path d="M1019.8,1160.8c-37.1-31.2-51.4-28.8-52-28.7l-1.1.2.4,1.1c.2.5,18.4,50.3,40,74.2,19.6,21.7,31,29.7,33.2,31.2.2.1.4.2.4.3l1.1.7.4-1.2a.31.31,0,0,1,.1-.2C1043.2,1234.8,1055.7,1191,1019.8,1160.8Zm20,75.3c-4.1-3-14.9-11.6-31.3-29.8-19.4-21.5-36.1-64.3-39.1-72.2,4.1.2,18.9,2.9,49.1,28.3,29.4,24.8,25.5,58.9,22.9,71.1h0c-.3,1.4-.6,2.5-.8,3.2C1040.3,1236.5,1040.1,1236.3,1039.8,1236.1Z" style="fill:#9ccbf0"/><path d="M1027.6,1276.9c-.3.1-.6.2-1,.3-2.2.7-4.3,1.4-6.4,2.2a13.36,13.36,0,0,0-1.8.7c-4.2,1.5-8.2,3.2-12.2,4.9-.3.1-.6.3-.9.4-3.2-4.2-6.3-8.3-8.9-12.3-11.4-17.6-8.5-43.4-8.5-43.4a108.63,108.63,0,0,1,34.1,34.1A51.26,51.26,0,0,1,1027.6,1276.9Z" style="fill:#fff"/><path d="M1022.8,1263.2a110.2,110.2,0,0,0-34.4-34.4l-1.3-.8-.2,1.5c-.1,1.1-2.8,26.4,8.7,44,2.6,4,5.7,8.1,8.8,12.2a10.37,10.37,0,0,1,1-.4c.3-.1.6-.3.9-.4-3.2-4.2-6.4-8.4-9-12.5-9.4-14.6-8.9-35.3-8.5-41.1a110.76,110.76,0,0,1,32.4,32.9,44.29,44.29,0,0,1,5.5,13c.3-.1.6-.2,1-.3s.6-.2,1-.3A59.9,59.9,0,0,0,1022.8,1263.2Z" style="fill:#9ccbf0"/><path d="M1184.5,1262.6a14.77,14.77,0,0,0-2.1-.1c-6.1-22.6-18.6-50.9-38.2-58.7l.7-1.9C1165.3,1210,1178.3,1239.4,1184.5,1262.6Z" style="fill:#9ccbf0"/><path d="M1257,1251.1a137,137,0,0,0-16.2,16.1l-2.4-.2a136,136,0,0,1,17.4-17.4Z" style="fill:#9ccbf0"/><path d="M1206.9,1264.2c-.7-.1-1.3-.1-2-.2-.1-22.5-.1-44.2-.2-64.1V1197c-.2-64.1-.6-110.5-1.2-113.4l2-.4c.6,3,1,49,1.2,112.6v4.3C1206.8,1220.2,1206.9,1241.8,1206.9,1264.2Z" style="fill:#9ccbf0"/><path d="M1271.1,1234s-2.1,20.1-7.2,35.1c-.3,0-.7-.1-1-.1-7.3-.6-14.7-1.2-22.2-1.9l-2.4-.2c-2.8-.2-5.5-.5-8.3-.8-.4,0-.8-.1-1.2-.1C1253.4,1235.8,1271.1,1234,1271.1,1234Z" style="fill:#fff"/><path d="M1271,1233c-.8.1-18.6,2.2-43.4,33,.4,0,.8.1,1.2.1s.8.1,1.2.1c20.1-24.6,35.5-29.9,39.9-31-.6,4.8-2.8,21.2-7,33.8a3.4,3.4,0,0,1,1,.1c.4,0,.7.1,1,.1,4.9-14.8,7-34,7.1-35.1l.1-1.2Z" style="fill:#9ccbf0"/><path d="M1205.9,1199.7s-30.6-26.9-15.9-87,8.5-68.4,8.5-68.4,26.1,33.1,26.6,76.4S1205.9,1199.7,1205.9,1199.7Z" style="fill:#fff"/><path d="M1199.3,1043.6l-1.6,1.2c.2.4,5.5,9.6-8.7,67.6-7.7,31.3-2.9,53.6,2.5,66.7,5.1,12.4,11.4,19.1,13.2,20.9l.5.5.9.8.6-1h0c.2-.4,19.9-36.4,19.4-79.5C1225.6,1077.4,1199.6,1043.9,1199.3,1043.6Zm-8.3,69.3c9.6-39.2,10.3-56.6,9.6-64.1,6.7,10,23.1,37.9,23.5,71.8.4,35-12.6,65.3-17.4,75.2-.4.9-.8,1.6-1.1,2.2a9,9,0,0,1-.9-1C1198.4,1190,1178.7,1163.1,1191,1112.9Z" style="fill:#9ccbf0"/><path d="M1189.9,1262.9a4.48,4.48,0,0,1-1.1-.1l-4.4-.3a14.77,14.77,0,0,0-2.1-.1c-4.9-.3-9.7-.6-14.6-.8-.5,0-1-.1-1.5-.1-3.7-3.7-8-8.2-12.7-13.4-21.7-24-39.8-73.8-39.8-73.8s13.9-2.8,51.1,28.4C1187.9,1222.1,1190.9,1246.9,1189.9,1262.9Z" style="fill:#fff"/><path d="M1165.6,1202.1c-37.1-31.2-51.4-28.8-52-28.7l-1.1.2.4,1.1c.2.5,18.4,50.3,40,74.2,4.4,4.9,8.4,9,11.9,12.6a9339045558173.3,9339045558173.3,0,0,1,3,.2c-3.9-3.9-8.4-8.5-13.4-14.1-19.4-21.5-36.1-64.3-39.1-72.2,4.1.1,18.7,2.7,49.1,28.3,22.5,19,25.5,43.4,24.5,59.3a4.1,4.1,0,0,1,1.1.1,2.77,2.77,0,0,1,.9.1C1191.8,1246.7,1188.8,1221.5,1165.6,1202.1Z" style="fill:#9ccbf0"/><path d="M1317,1271.7h-2.2c-3.7-7.1-8.4-13.5-14.2-17.5l1.1-1.6C1308.1,1256.9,1313.1,1263.9,1317,1271.7Z" style="fill:#9ccbf0"/><path d="M1343.8,1271c-.7,0-1.3.1-2,.1-.3-15.4-.6-25.8-.9-29.1-.1-1-.2-2.1-.4-3.2-.1-.4-.1-.9-.2-1.4s-.1-.9-.2-1.4c-3.8-22.7-17.2-64-41.5-73.6l.7-1.9c24.3,9.6,38,49.2,42.3,72.8.2.9.3,1.7.5,2.6s.3,1.6.4,2.4c.2,1.2.3,2.4.4,3.5C1343.2,1245.1,1343.5,1255.6,1343.8,1271Z" style="fill:#9ccbf0"/><path d="M1367.9,1268.6l-2,.3c-.1-27.2-.1-53.4-.2-77.1v-2.9c-.2-64.2-.6-110.5-1.2-113.4l2-.4c.6,3,1,48.9,1.2,112.6v4.3C1367.8,1215.7,1367.9,1241.6,1367.9,1268.6Z" style="fill:#9ccbf0"/><path d="M1446.4,1238s-.2,1.9-.6,5c-.4.2-.7.4-1.1.6a197.36,197.36,0,0,1-26,12.2l-2.4.9C1434.3,1239.2,1446.4,1238,1446.4,1238Z" style="fill:#fff"/><path d="M1446.3,1237c-.6.1-13.4,1.6-32.3,20.6a20.94,20.94,0,0,1,2.3-.8l2.4-.9c13.4-12.5,23.2-15.8,26.6-16.6-.1,1-.3,2.5-.6,4.4.4-.2.7-.4,1.1-.6s.7-.4,1.1-.6c.3-2.4.5-4,.5-4.3l.1-1.2Z" style="fill:#9ccbf0"/><path d="M1366.9,1191.5s-30.6-26.9-15.9-87,8.5-68.4,8.5-68.4,26.1,33.1,26.6,76.4S1366.9,1191.5,1366.9,1191.5Z" style="fill:#fff"/><path d="M1360.3,1035.4l-1.6,1.2c.1.1,5.5,9.5-8.7,67.6-7.7,31.3-2.9,53.6,2.5,66.7,5.1,12.4,11.4,19.1,13.2,20.9.3.3.5.4.5.5l.9.8.6-1v-.1c.2-.4,19.9-36.4,19.4-79.5C1386.6,1069.2,1360.6,1035.8,1360.3,1035.4Zm1.3,5.2c6.7,10,23.1,37.9,23.5,71.8.4,35.1-12.7,65.3-17.4,75.2-.4.9-.8,1.6-1.1,2.2a9,9,0,0,1-.9-1c-6.3-7-26-34-13.7-84.2C1361.6,1065.5,1362.3,1048.1,1361.6,1040.6Z" style="fill:#9ccbf0"/><path d="M1341.4,1238.2s15.1-45.4-22-76.7-51.1-28.4-51.1-28.4,18.1,49.8,39.8,73.9S1341.4,1238.2,1341.4,1238.2Z" style="fill:#fff"/><path d="M1320,1160.8c-37.1-31.2-51.4-28.8-52-28.7l-1.1.2.4,1.1c.2.5,18.4,50.3,40,74.2,19.6,21.7,31,29.7,33.2,31.2.2.1.4.2.4.3l1.1.7.4-1.2a.31.31,0,0,1,.1-.2C1343.5,1234.6,1355.9,1191,1320,1160.8Zm-11.3,45.5c-19.4-21.5-36.1-64.3-39.1-72.2,4.1.2,18.9,2.9,49.1,28.3,29.4,24.8,25.5,58.9,22.9,71.1-.3,1.4-.6,2.5-.8,3.3-.2-.2-.5-.3-.8-.6C1335.9,1233.1,1325.2,1224.5,1308.7,1206.3Z" style="fill:#9ccbf0"/><path d="M1322.2,1263.8a52.73,52.73,0,0,1,3.9,7.9h-11.3c-6-.1-12.1-.2-18.2-.5h-1.2c-10-17.5-7.3-41.5-7.3-41.5A108.63,108.63,0,0,1,1322.2,1263.8Z" style="fill:#fff"/><path d="M1323,1263.2a110.2,110.2,0,0,0-34.4-34.4l-1.3-.8-.2,1.5c-.1,1-2.5,24.1,7.2,41.5a4.87,4.87,0,0,1,1.2.1h1.2c-8.6-14.5-8-34.1-7.7-39.8a110.76,110.76,0,0,1,32.4,32.9,46.47,46.47,0,0,1,3.7,7.4h2.2A66.46,66.46,0,0,0,1323,1263.2Z" style="fill:#9ccbf0"/><path d="M1561,1103.1c-.6,1.4-1.3,2.7-1.9,4.1-.2-13.9-.4-22.4-.6-23.6l2-.4C1560.6,1084.4,1560.8,1091.4,1561,1103.1Z" style="fill:#9ccbf0"/><path d="M1571.8,1078.4c-.2.5-.4.9-.6,1.4-3.3,8.1-6.8,15.9-10.2,23.3-.6,1.4-1.3,2.7-1.9,4.1-5.5,11.7-11.2,22.6-17,32.8-.4.6-.7,1.2-1.1,1.9a132,132,0,0,1,4-29.2c13.8-56.6,9.2-67.2,8.6-68.3A144.14,144.14,0,0,1,1571.8,1078.4Z" style="fill:#fff"/><path d="M1554.2,1043.6l-1.6,1.2c.2.4,5.5,9.6-8.7,67.6a134,134,0,0,0-4,31.2c.3-.6.7-1.2,1-1.7s.7-1.2,1.1-1.9a130,130,0,0,1,3.9-27.1c9.6-39.2,10.3-56.6,9.6-64.1a147.61,147.61,0,0,1,15.7,31c.2-.5.4-.9.6-1.4a6.94,6.94,0,0,0,.5-1.3C1564.5,1056.9,1554.4,1043.8,1554.2,1043.6Z" style="fill:#9ccbf0"/><path d="M1506.1,1192a5,5,0,0,1-.7.8,255.91,255.91,0,0,1-18.8,19.8c-.3.2-.5.5-.8.7a378.25,378.25,0,0,1-17.1-38.9S1479.2,1172.2,1506.1,1192Z" style="fill:#fff"/><path d="M1468.5,1173.4l-1.1.2.4,1.1a384.62,384.62,0,0,0,17.3,39.3,4.62,4.62,0,0,0,.7-.7c.3-.2.5-.5.8-.7a377.12,377.12,0,0,1-16.5-37.3c3.4.1,14.1,1.9,35.3,17.4.2-.2.4-.5.7-.8a5,5,0,0,1,.7-.8C1479.8,1171.4,1469,1173.3,1468.5,1173.4Z" style="fill:#9ccbf0"/><path d="M1318.2,1500.1c-21.3,5.2-145.8-3.2-179.1-15.1-4.4-1.6-7.2-3.2-8-4.9-.1-.1-.1-.3-.2-.4-6.9-17.2,12.3-144.1,12.3-144.1l215.9,33.6c2.2,15.8-27.9,103.9-37.1,127.5h0c-.3.7-.5,1.3-.7,1.9S1319.9,1499.7,1318.2,1500.1Z" style="fill:#eaf4fb"/><path d="M1143.1,1335.6s83,122.4,99.5,119.9,116.4-86.3,116.4-86.3S1265.3,1341,1143.1,1335.6Z" style="fill:#9ccbf0"/><path d="M1143.1,1335.6s85.3,113.7,101.8,111.1,114.2-77.5,114.2-77.5S1265.3,1341,1143.1,1335.6Z" style="fill:#c8dcf0"/><path d="M1318.2,1500.1l-40-66.7,3-3.8,40.8,67h0c-.3.7-.5,1.3-.7,1.9S1319.9,1499.7,1318.2,1500.1Z" style="fill:#9ccbf0"/><path d="M1218,1430.2l-79,54.8c-4.4-1.6-7.2-3.2-8-4.9-.1-.1-.1-.3-.2-.4l84.8-53.2Z" style="fill:#9ccbf0"/><path d="M1336.8,1416.3q111.6,15.15,223.2,30.2c1.8.2,2.5-2.5.7-2.7q-111.6-15.15-223.2-30.2c-1.8-.2-2.5,2.5-.7,2.7Z" style="fill:#ebf5fc"/><path d="M1321,1434.3a795.61,795.61,0,0,0,116.6,20.8c1.8.2,1.8-2.6,0-2.8a786.16,786.16,0,0,1-115.9-20.7,1.4,1.4,0,0,0-.7,2.7Z" style="fill:#ebf5fc"/><path d="M1464.9,1456.1a625.39,625.39,0,0,0,79.5,9.8c1.8.1,1.8-2.7,0-2.8a612.23,612.23,0,0,1-78.8-9.7c-1.7-.3-2.5,2.3-.7,2.7Z" style="fill:#ebf5fc"/><path d="M1573.1,1466.7a205.92,205.92,0,0,0,43.7,2.8c1.8-.1,1.8-2.9,0-2.8a198.85,198.85,0,0,1-42.9-2.7c-1.8-.3-2.6,2.4-.8,2.7Z" style="fill:#ebf5fc"/><path d="M1322.2,1472.8q70.65,12.15,141.9,19.4c1.8.2,1.8-2.6,0-2.8q-70.95-7.2-141.2-19.3c-1.7-.3-2.4,2.4-.7,2.7Z" style="fill:#ebf5fc"/><path d="M1341.7,1392.9c27.2,4.5,54.3,8.9,81.5,13.4,1.8.3,2.5-2.4.7-2.7-27.2-4.5-54.3-8.9-81.5-13.4-1.7-.3-2.4,2.4-.7,2.7Z" style="fill:#ebf5fc"/><path d="M1515.3,1387.6c-13,2.5-87.8-6.4-107.5-14.6-2.6-1.1-4.2-2.2-4.7-3.2,0-.1-.1-.2-.1-.3-3.7-10.6,11.8-86.5,11.8-86.5l129.2,27c.8,9.6-20,61.8-26.3,75.7h0a9.74,9.74,0,0,0-.5,1.1C1517,1387.2,1516.3,1387.4,1515.3,1387.6Z" style="fill:#eaf4fb"/><path d="M1414.8,1283.1s46.3,76.4,56.3,75.3,72.8-48.4,72.8-48.4S1488.3,1290.1,1414.8,1283.1Z" style="fill:#9ccbf0"/><path d="M1414.8,1283.1s47.9,71.2,58,70.1S1544,1310,1544,1310,1488.3,1290.1,1414.8,1283.1Z" style="fill:#c8dcf0"/><path d="M1515.3,1387.6l-22.1-41.4,2-2.2,22.5,41.6h0a9.74,9.74,0,0,0-.5,1.1C1517,1387.2,1516.3,1387.4,1515.3,1387.6Z" style="fill:#9ccbf0"/><path d="M1457,1342.4l-49.3,30.6c-2.6-1.1-4.2-2.2-4.7-3.2,0-.1-.1-.2-.1-.3l52.8-29.5Z" style="fill:#9ccbf0"/><path d="M1529.1,1337.7q66.9,12.6,133.7,25.1c1.1.2,1.5-1.4.4-1.6q-66.9-12.6-133.7-25.1c-1-.2-1.5,1.4-.4,1.6Z" style="fill:#ebf5fc"/><path d="M1519,1348.1a483.25,483.25,0,0,0,69.5,16.1c1.1.2,1.5-1.5.4-1.6a476.18,476.18,0,0,1-69.5-16.1c-1-.4-1.4,1.2-.4,1.6Z" style="fill:#ebf5fc"/><path d="M1605.1,1365.6a366,366,0,0,0,47.7,8.3c1.1.1,1.1-1.6,0-1.7a379.05,379.05,0,0,1-47.2-8.3c-1.1-.2-1.5,1.5-.5,1.7Z" style="fill:#ebf5fc"/><path d="M1670,1375.3a129.3,129.3,0,0,0,26.3,3,.85.85,0,0,0,0-1.7,124.51,124.51,0,0,1-25.8-3c-1.1-.1-1.5,1.5-.5,1.7Z" style="fill:#ebf5fc"/><path d="M1518.6,1371.3c28.1,6.3,56.3,11.7,84.7,16,1.1.2,1.5-1.5.4-1.6-28.4-4.4-56.7-9.7-84.7-16-1-.3-1.5,1.4-.4,1.6Z" style="fill:#ebf5fc"/><path d="M1532.8,1323.8c16.2,3.5,32.5,7,48.7,10.6,1.1.2,1.5-1.4.4-1.6-16.2-3.5-32.5-7-48.7-10.6a.82.82,0,0,0-.4,1.6Z" style="fill:#ebf5fc"/><path d="M396,1033.3v472.9c-5.4-3.5-10.7-7.3-15.9-11.2-.7-.5-1.3-1.1-2-1.6-5.9-4.7-11.7-9.6-17.2-14.9V1041.2Z" style="fill:#394480"/><path d="M261.8,1022.7a17.74,17.74,0,0,0,17.7,18.3l134.7,9h51.5V931.1h-166A41.21,41.21,0,0,0,258.5,971Z" style="fill:#7983c8"/><path d="M468.3,931.1H454.5a40.2,40.2,0,0,0-40.2,40.2v78.6h94.3V971.3A40.35,40.35,0,0,0,468.3,931.1Z" style="fill:#171338"/><path d="M414.3,1050s43.6,27.7,56.3,39.6l71.4-4s-11.1-23-33.3-35.7H414.3Z" style="fill:#7983c8"/><path d="M387.1,1495.5c17-6,35.7-15.1,42.6-33,7.6-19.5-1.6-40.9-15.3-55.1-16.6-17.1-38.9-25.5-61-33-22.4-7.7-52.9-16-64.6-38.9-12.5-24.5,14.9-49.7,34.1-60.7,24-13.8,51.9-11.6,77.2-21.4a106.07,106.07,0,0,0,29.5-17.5c8.2-6.9,17.3-15.9,16.8-27.5-1-22.2-25.6-35.5-44.4-40.4-27.3-7.1-56.6-2.3-83.4-12-7-2.5-15.1-6.4-18.5-13.5-3-6.2-1.5-14.3,5.3-16.9,4.6-1.8,9.9-2.3,12.1-7.3,1.6-3.5,1-8-2.8-9.7-2.9-1.3-5.4,2.9-2.5,4.3,4.9,2.2-3,6.4-4.6,6.9a32.6,32.6,0,0,0-6.8,2.5,14.59,14.59,0,0,0-6.7,9.5c-2.3,9.5,3.3,17.9,10.9,23.1,19.9,13.5,47.5,12.2,70.4,14,21.6,1.7,47.2,6.7,60.6,25.7,3.9,5.6,6.6,12.7,4.7,19.5-1.7,6.1-6.5,10.9-11,15.1a97.53,97.53,0,0,1-31.8,19.9c-23.6,9-49.8,7.5-72.7,19-18.3,9.1-38.7,26.2-43.7,47-5.2,21.7,12.5,38.6,29.9,48,22.4,12.1,47.9,17,70.8,28.1,21.4,10.3,43.7,28.9,45,54.4,1.3,25.1-20.8,38-41.6,45.4-2.8.8-1.5,5.6,1.5,4.5Z" style="fill:#394480"/><path d="M289.1,1301.3c-3.5-18,4.5-37.6,19.5-48.1,2.1-1.5,5.3-2.6,6.9-.7,1.3,1.6.5,3.9-.3,5.8a93.86,93.86,0,0,1-5.8,11.4c-2.8,4.5-6.3,8.6-9.5,12.8-4.8,6.2-9.2,13.3-9,21.1" style="fill:#394480"/><path d="M409,1246c12.5-3.3,25-6.6,37.6-9.8,10.8-2.8,21.8-5.7,31.4-11.4a6.36,6.36,0,0,0,2.4-2.2c1.4-2.9-2.3-5.6-5.4-6.1-7.5-1.1-14.9,2.3-21.7,5.6q-20.85,10.35-41.1,21.9" style="fill:#394480"/><path d="M351.4,1165.3l-31.2,3.6c-12.5,1.5-26,2.8-37.2-3-2.1-1.1-4.4-3.5-3.2-5.5a4.16,4.16,0,0,1,2.6-1.6c8.1-2.6,16.9-1.2,25.4-.1a329.67,329.67,0,0,0,47.6,2.8" style="fill:#394480"/><path d="M299.5,1131.7c-.5-1.6,1.3-2.9,2.8-3.5,11.6-5,24.7-4.9,36.7-8.9a24.81,24.81,0,0,0,8.9-4.8c1.4-1.2,2.6-2.9,2.4-4.7-.3-3.1-4.1-4.4-7.2-4.7-2.8-.3-5.8-.4-8.5.8-3.7,1.6-5.9,5.2-8.8,8-5.7,5.4-13.7,7.5-20.8,10.9-2.6,1.2-5.4,3.3-5.2,6.1" style="fill:#394480"/><path d="M327.8,1367.7c-12-7.1-20.4-15.7-28-27.3-2-3.2-3.4-7.9-.4-10.2a5.92,5.92,0,0,1,3.7-1c5.1.1,9.4,3.9,12,8.3s4,9.3,6.4,13.8a64.36,64.36,0,0,0,7.3,10.6c2.7,3.3,5.4,6.6,8.9,9s7.8,4,12,3.3" style="fill:#394480"/><path d="M288.8,980.5l1.9,28.6a5.38,5.38,0,0,0,5,5l84.3,6a5.46,5.46,0,0,0,5.8-5.6c-.4-9.4-1-27.7.4-38.6a5.39,5.39,0,0,0-5.7-6l-86.6,4.9A5.33,5.33,0,0,0,288.8,980.5Z" style="fill:#fff"/><path d="M295.9,986.7c22.2.1,44.4.1,66.6.2,3.2,0,3.2-4.9,0-4.9-22.2-.1-44.4-.1-66.6-.2-3.1,0-3.2,4.9,0,4.9Z" style="fill:#ebf5fc"/><path d="M299,1001.2h45.7c3.2,0,3.2-4.9,0-4.9H299c-3.1-.1-3.1,4.9,0,4.9Z" style="fill:#ebf5fc"/><path d="M1579.2,955.4c-4.3-1.7-24.7-18.1-29-24.2-.6-.8-.9-1.4-.8-1.8v-.1c.9-3.8,19.5-23.3,19.5-23.3l33.1,31.8c-1.5,3-17.3,14.5-21.7,17.5h0a.52.52,0,0,1-.4.2A2.25,2.25,0,0,1,1579.2,955.4Z" style="fill:#7983c8"/><path d="M1579.2,955.4c-4.3-1.7-24.7-18.1-29-24.2-.6-.8-.9-1.4-.8-1.8v-.1c.9-3.8,19.5-23.3,19.5-23.3l33.1,31.8c-1.5,3-17.3,14.5-21.7,17.5h0a.52.52,0,0,1-.4.2A2.25,2.25,0,0,1,1579.2,955.4Z" style="fill:#7983c8"/><path d="M1579.2,955.4c-4.3-1.7-24.7-18.1-29-24.2-.6-.8-.9-1.4-.8-1.8v-.1c.9-3.8,19.5-23.3,19.5-23.3l33.1,31.8c-1.5,3-17.3,14.5-21.7,17.5h0a.52.52,0,0,1-.4.2A2.25,2.25,0,0,1,1579.2,955.4Z" style="fill:#394480;opacity:0.25999999046325684;isolation:isolate"/><path d="M1568.8,906s-.4,31.1,2.7,32.6,30.4-.8,30.4-.8A202,202,0,0,0,1568.8,906Z" style="fill:#7983c8"/><path d="M1568.8,906s1,29.8,4.2,31.4,29,.4,29,.4A205.44,205.44,0,0,0,1568.8,906Z" style="fill:#7983c8"/><path d="M1579.2,955.4l1.1-16.3,1-.3-1,16.4h0a.52.52,0,0,1-.4.2A.82.82,0,0,1,1579.2,955.4Z" style="fill:#7983c8"/><path d="M1570.3,931.3l-20.2-.1c-.6-.8-.9-1.4-.8-1.8v-.1l21,1Z" style="fill:#7983c8"/><path d="M1693.3,949.2c-5.6,2.4-40.8,5.9-50.8,4.2-1.3-.2-2.2-.5-2.5-1l-.1-.1c-2.9-4.4-5.1-40-5.1-40l62.1-.9c1.5,4.2-1.7,29.7-2.8,36.6h0a4.33,4.33,0,0,1-.1.5C1694.1,948.8,1693.8,949,1693.3,949.2Z" style="fill:#7983c8"/><path d="M1693.3,949.2c-5.6,2.4-40.8,5.9-50.8,4.2-1.3-.2-2.2-.5-2.5-1l-.1-.1c-2.9-4.4-5.1-40-5.1-40l62.1-.9c1.5,4.2-1.7,29.7-2.8,36.6h0a4.33,4.33,0,0,1-.1.5C1694.1,948.8,1693.8,949,1693.3,949.2Z" style="fill:#7983c8"/><path d="M1693.3,949.2c-5.6,2.4-40.8,5.9-50.8,4.2-1.3-.2-2.2-.5-2.5-1l-.1-.1c-2.9-4.4-5.1-40-5.1-40l62.1-.9c1.5,4.2-1.7,29.7-2.8,36.6h0a4.33,4.33,0,0,1-.1.5C1694.1,948.8,1693.8,949,1693.3,949.2Z" style="fill:#394480;opacity:0.25999999046325684;isolation:isolate"/><path d="M1634.9,912.4s30.3,29.6,34.8,28.1,27.4-29,27.4-29A289.52,289.52,0,0,0,1634.9,912.4Z" style="fill:#7983c8"/><path d="M1634.9,912.4s30.4,27.1,34.9,25.6,27.3-26.5,27.3-26.5A289.52,289.52,0,0,0,1634.9,912.4Z" style="fill:#7983c8"/><path d="M1693.3,949.2l-15.1-16.4.6-1.2,15.3,16.4h0a4.33,4.33,0,0,1-.1.5C1694.1,948.8,1693.8,949,1693.3,949.2Z" style="fill:#7983c8"/><path d="M1661.3,934.7l-18.8,18.7c-1.3-.2-2.2-.5-2.5-1l-.1-.1,20.5-18.5Z" style="fill:#7983c8"/><path d="M1613.2,1073.6c-5.3-.4-33.9-11.5-40.9-16.8a4.61,4.61,0,0,1-1.6-1.7v-.1c-.5-4.5,11.9-32.9,11.9-32.9L1631,1046c-.5,3.9-13,22.3-16.7,27.1h0c-.1.1-.2.3-.3.4S1613.7,1073.7,1613.2,1073.6Z" style="fill:#7983c8"/><path d="M1613.2,1073.6c-5.3-.4-33.9-11.5-40.9-16.8a4.61,4.61,0,0,1-1.6-1.7v-.1c-.5-4.5,11.9-32.9,11.9-32.9L1631,1046c-.5,3.9-13,22.3-16.7,27.1h0c-.1.1-.2.3-.3.4S1613.7,1073.7,1613.2,1073.6Z" style="fill:#7983c8"/><path d="M1613.2,1073.6c-5.3-.4-33.9-11.5-40.9-16.8a4.61,4.61,0,0,1-1.6-1.7v-.1c-.5-4.5,11.9-32.9,11.9-32.9L1631,1046c-.5,3.9-13,22.3-16.7,27.1h0c-.1.1-.2.3-.3.4S1613.7,1073.7,1613.2,1073.6Z" style="fill:#394480;opacity:0.25999999046325684;isolation:isolate"/><path d="M1582.7,1022.1s11.7,34.9,15.7,35.5S1631,1046,1631,1046A245.46,245.46,0,0,0,1582.7,1022.1Z" style="fill:#7983c8"/><path d="M1582.7,1022.1s12.8,33,16.8,33.6,31.5-9.7,31.5-9.7A245.46,245.46,0,0,0,1582.7,1022.1Z" style="fill:#7983c8"/><path d="M1613.2,1073.6,1608,1055l.9-.7,5.3,18.7h0c-.1.1-.2.3-.3.4C1614,1073.6,1613.7,1073.7,1613.2,1073.6Z" style="fill:#7983c8"/><path d="M1594.2,1049.8l-21.9,7a4.61,4.61,0,0,1-1.6-1.7v-.1l23.2-6.2Z" style="fill:#7983c8"/><polygon points="1625.2 783.9 1650.2 827.6 1691.9 801.3 1666.2 758.3 1625.2 783.9" style="fill:#7983c8"/><polygon points="1625.2 783.9 1578.9 790.6 1600 834.5 1650.2 827.6 1625.2 783.9" style="fill:#7983c8"/><polygon points="1625.2 783.9 1578.9 790.6 1600 834.5 1650.2 827.6 1625.2 783.9" style="fill:#394480;opacity:0.25999999046325684;isolation:isolate"/><polygon points="1666.2 758.3 1613.1 766.6 1578.9 790.6 1625.2 783.9 1666.2 758.3" style="fill:#7983c8"/><polygon points="1666.2 758.3 1613.1 766.6 1578.9 790.6 1625.2 783.9 1666.2 758.3" style="fill:#394480;opacity:0.3499999940395355;isolation:isolate"/><path d="M1600,834.5s-7.1-18.3-21.8-43.4c-25.2-42.8-114.6-110.8-205.1-122.5" style="fill:none;stroke:#9594c8;stroke-miterlimit:10;stroke-width:3.514400005340576px"/><path d="M1650.2,827.6S1537,627.6,1528.4,607" style="fill:none;stroke:#b5b5e2;stroke-miterlimit:10;stroke-width:3.514400005340576px"/><path d="M1691.9,801.3s-13.2-16.3-25.2-43.2c-21.2-47.4,2.9-132,65.7-215" style="fill:none;stroke:#b5b5e2;stroke-miterlimit:10;stroke-width:3.514400005340576px"/><path d="M1732.3,543.1c-36.3-100.7-147.3-152.9-248-116.7s-152.9,147.2-116.7,247.9h0a374.48,374.48,0,0,0,364.7-131.2Z" style="fill:#7983c8"/><path d="M1444.8,559.3a268.07,268.07,0,0,1,27.8-128.2c-93,40.4-139.8,146.6-105,243.3h0a375.2,375.2,0,0,0,110.1,5.6A268.35,268.35,0,0,1,1444.8,559.3Z" style="fill:#394480;opacity:0.25999999046325684;isolation:isolate"/><path d="M728.3,1660.3s69.8,8,137.8-13c74.7-23-118.4-21-128.1-4S723.3,1658.8,728.3,1660.3Z" style="fill:#ebf5fc"/><path d="M834.2,1498.7c-1.9,36.6,2,78.7,4,85.2s-114.7,75.9-116.2,76.7c.2-.5,7.6-16.7,16.7-22.8,36.3-24.2,56.6-52.1,63-62.9,12.1-20.4,17.4-22.9,11.1-137.6-2.6-47.8-3.7-92-4.1-127.2-.1-10.4-.2-20-.2-28.7,0-32.5.5-52.3.5-52.3l36.6-7.2s1.3,24.8,2.3,50.6c.4,10.2.7,20.5.9,29.5.2,10.8.3,19.7-.1,24.1C847.3,1343.7,836,1462.1,834.2,1498.7Z" style="fill:#d37477"/><path d="M1059.8,1599.2c-32.9,13.9-35.4-55.6-43.9-74.6-5.6-12.5-61.2-135.5-98.7-218.2-4.9-10.9-9.5-21-13.6-30.1h0c-12.2-27-20.3-44.9-20.3-44.9l46.3-46.8s7.8,27.7,18.8,66.6c2.4,8.4,4.9,17.3,7.5,26.6,17.3,61.2,39.1,138,52.1,182.3,24,82.2,31.6,91,51.8,116.3S1059.8,1599.2,1059.8,1599.2Z" style="fill:#d37477"/><path d="M722,1660.6s-3.1-21.7,15.9-25.7,10.8-.9,24.4-.8c7.8,0,29.6-19.5,44.8-33.1,17.8-15.9,26.4-28.3,27.9-44.8h0l6.2,31.9C841.1,1588,754.5,1658.1,722,1660.6Z" style="fill:#d22b3e"/><path d="M1045,1606.1s25.8,7,30.6-5-7.5-22.8-18.7-17.6-18.7,12.1-21.8,5.9-13.1-41.8-14.1-46.2-1.9,5.7-1.9,14.5S1026.3,1606.1,1045,1606.1Z" style="fill:#d22b3e"/><path d="M809.5,1303.8s-10.9,30.1-6.9,43.1,16.1,36.8,16.1,36.8Z" style="fill:#d37477"/><path d="M833.8,1533.7s-20.1,8.3-19.7-.2.7-10.2.7-10.2h18.8l-.1,8.9" style="fill:#d22b3e"/><path d="M1010.1,1515.9s14.3-3.2,15.4-6.6,3.9,16.5,3.9,16.5l-11.4,4.7C1018,1530.4,1010.3,1520.8,1010.1,1515.9Z" style="fill:#d22b3e"/><g style="opacity:0.10999999940395355"><path d="M847.9,1271.9c.4,10.2.8,21.1,1,30a120.91,120.91,0,0,0-11.9,2.8c-9.1,2.6-19.1,6.1-28.2,5.4-.1-10.4.1-20.4.1-29.1,7.3-1.4,14.9-3.9,22.2-6A134.38,134.38,0,0,1,847.9,1271.9Z" style="fill:#171338"/><path d="M955.9,1277.9c-4.8,5.6-9.7,11.1-14.6,16.6-4,4.5-8.3,9.1-14,11.1a23,23,0,0,1-10.1.9c-4.9-10.9-9.1-20.2-13.3-29.4,6,1.5,11.1-.4,16.8-2.4s10.7-4.4,14.7-8.9c4.3-4.8,8.6-9.7,12.8-14.5C950.8,1259.7,953.3,1268.6,955.9,1277.9Z" style="fill:#171338"/></g><path d="M767.8,764.7c-7.7,13.9-22.4,22.8-35.7,30.5a258.6,258.6,0,0,1-48.9,22c-17.2,5.6-34.8,9.6-49.7,20.3-7.8,5.6-15.5,10.1-25,12.3-9.2,2.2-18.6,2.5-28,2.3-3.8-.1-3.8,5.8,0,5.9,14.3.3,29-.8,42.1-6.8,6.8-3.1,12.4-8,18.7-12,6.6-4.2,13.9-7,21.3-9.4,14.8-4.8,29.7-9,44.1-15a258.24,258.24,0,0,0,36-19.1c11.6-7.2,23.4-15.8,30.2-28,1.7-3.3-3.3-6.3-5.1-3Z" style="fill:#394480"/><path d="M777.4,742.4a85.5,85.5,0,0,1-30.1,37.7,76.83,76.83,0,0,1-21.7,11.1c-8.5,2.6-17.4,3.4-26.1,4.8-18,2.9-34.3,10.5-51.1,17.4-17.2,7.1-35.8,13.4-54.6,10.1-3.7-.6-5.3,5-1.6,5.6,31.4,5.5,58.6-12.1,87.1-22,14.5-5.1,29.6-5.6,44.4-9.3,12.6-3.1,24.1-9.9,33.8-18.3A91.77,91.77,0,0,0,782.9,744c1.5-3.6-4.1-5.1-5.5-1.6Z" style="fill:#394480"/><path d="M900.6,776c-4.4,34.9-115.8,149-166.8,184.4-18.6,13-21.3-.7-33.6-5.7,0,0,17.1-13.2,21.5-23.3-10.8,20.6-32.2,48.5-66.9,43.8a.79.79,0,0,1-.7-.5c-13.8-13.8,3.3-9.4-3.9-37.1a22.55,22.55,0,0,0-2-5.2c54.4-18.4,71.6-69.6,71.6-69.6s-18.5,19.3-53.4,45.4S606.7,920,606.7,920h0c-2.5-.5-7.1-5.4-11.8-11.8-9.6-13.1-19.8-32.4-14.1-34,65.8-17.6,51.8-11.6,94-49.9,33.6-30.5,58.4-33.8,76.4-49.4,7.7-6.7,14.2-15.6,19.6-29.8,10.3-27,4.1-51.3,1.4-68.1-3.9-24.3,1.5-31.4,1.5-31.4s80.4-4.3,108.7,48.9C889.5,707.7,905,741,900.6,776Z" style="fill:#171338"/><path d="M817.3,744.5s1,26.2.6,42.7c-.1,4.3-29,1.5-29.3,3.8-1.6,11.4,88.2,31.5,78,6.1-1.2-3-33.9-.6-33.9-9.2-.1-18,4.1-43.4,4.1-43.4Z" style="fill:#d37477"/><path d="M791.7,704.9s-11.7-12.2-11.5-2.1,4.7,37.2,13.4,29.9S791.7,704.9,791.7,704.9Z" style="fill:#e95a5a"/><path d="M862.3,742.1h0c-5.6,13.4-19.7,23.8-41.7,14.4-1.9-.8-7.7-2.9-10.9-4.1-4.6-1.7-11.3-4.4-13.3-7.3s-.4-13.9-2.1-18.3c-2.3-5.8-4.3-10.6-3.2-16.2a36.21,36.21,0,0,0-2.7-22.9c-1.3-3-2.6-5.4-2.8-7.4a16.18,16.18,0,0,1,1.1-2.9s-.5-1.2,5-3.6c4.2-1.8,11.7-4.3,25.5-7.4,32-7.2,45,34.1,47.7,59A36.18,36.18,0,0,1,862.3,742.1Z" style="fill:#e57e80"/><path d="M1024,718.7h-5.9a19.72,19.72,0,0,0-16.1,8.4l-14.5,21,17.3-13.6Z" style="fill:#d37477"/><path d="M1072.8,779.4c-7,9.2-60.8,46.8-78.5,53-2.3.8-4,1.1-4.9.6-.1,0-.1-.1-.2-.1-8.5-4.8-42.5-63.2-42.5-63.2l99.7-57.5c6.1,5.8,22.9,51.8,26.9,64.5h0c.1.4.2.7.3,1A2.79,2.79,0,0,1,1072.8,779.4Z" style="fill:#9594c8"/><path d="M946.7,769.7s74.5,22.8,80.4,16.3,19.3-73.8,19.3-73.8S998.6,731.6,946.7,769.7Z" style="fill:#7983c8"/><path d="M946.7,769.7s72.5,18.5,78.4,12,21.2-69.5,21.2-69.5S998.6,731.6,946.7,769.7Z" style="fill:#b5b5e2"/><path d="M1072.8,779.4l-38.4-14.1v-2.6l38.8,14h0c.1.4.2.7.3,1A2.12,2.12,0,0,1,1072.8,779.4Z" style="fill:#7983c8"/><path d="M1008.6,783.8l-14.3,48.5c-2.3.8-4,1.1-4.9.6-.1,0-.1-.1-.2-.1l17.2-49.8Z" style="fill:#7983c8"/><path d="M829.7,702.8s16,17.3,22.1,21.4-6.4,7.5-13.5,4.8S829.7,702.8,829.7,702.8Z" style="fill:#e95a5a"/><path d="M830.9,746.9c-6.3,0-13.6-2.3-20.6-9.6a1.77,1.77,0,0,1,2.5-2.5c16.3,16.9,33.2,3.8,33.9,3.3a1.78,1.78,0,0,1,2.2,2.8A32.11,32.11,0,0,1,830.9,746.9Z" style="fill:#171338"/><path d="M867.4,791s86,68.8,103.1,87.5c6.9,7.6,7,31.2,7,31.2s-1.5,9.5-28.7-9.7-85.6-75.6-85.6-75.6Z" style="fill:#e57e80"/><ellipse cx="817.25" cy="705.97" rx="4.8" ry="9.2" transform="translate(-187.44 309.87) rotate(-19.3)" style="fill:#171338"/><ellipse cx="845.79" cy="699.53" rx="4.8" ry="9.2" transform="translate(-109.15 158.43) rotate(-10.06)" style="fill:#171338"/><path d="M955.7,882.5s26.5-40.4,39.1-81.5,9.4-68.3,9.4-68.3l19.8-14s4,13.3,5.3,23.2-15.7,31.8-20.6,53.1c-4.3,18.8-24,106.8-31.3,114.8" style="fill:#e57e80"/><path d="M777.4,791s-8.2,7.8-7.1,21.5,0,236.9,0,236.9l51.9-162.8Z" style="fill:#e95a5a"/><path d="M929.9,1134.2c5.8,29.6,8.4,59.8,14.1,89.5,1.8,9.2,10.7,23.4,2.8,31.6-11.8,12.4-23.8,22.8-41.9,21.9-9.8-.5-19.3-3.2-29-4.7a109.48,109.48,0,0,0-47.6,3.4c-6.9,2.1-13.7,4.8-20.9,5.3-21.2,1.4-24.1-20.7-37.4-31.7-12.1-10-30.6-7.5-44.1-15.7-18.2-11-20.9-36.8-35.7-52-8.2-8.4-19.6-13-28.6-20.5s-15.7-20.6-10-30.9c4.5-8,14.4-10.8,23.3-13.1,19.4-5,39.1-11.2,54.5-23.9,19.2-16,29.4-40.2,36.7-64.1,18.2-59.3,13.8-122.1,15.1-184.1.9-44.1-11-36.9-11-36.9-.6-13.3,4.9-19.7,12.4-22.3,0,0,23.9,10.3,29,11.3,12.4,2.5,15.3,2.6,30,0,11.9-2.1,31.4-7.8,31.4-7.8,4.7,2,8.4,6.3,9.9,14.2,0,0-8.6-7.1-9.3,2.8-3.2,45.2-31.3,118,24.5,232.9,8.8,18.2,15.4,37.9,21.9,57A308.92,308.92,0,0,1,929.9,1134.2Z" style="fill:#f69d79"/><path d="M700.9,1198.2a71.08,71.08,0,0,0-10.9-15.9c-8.1-8.4-19.1-13.1-28.1-20.5a30.64,30.64,0,0,1-3.7-3.5C834.6,1122,821,918.9,821,918.9s16.7,59.2-16.2,167.8C782.6,1159.7,731.8,1187.7,700.9,1198.2Z" style="fill:#f9b17c"/><path d="M780.2,1263.1c-3.3-5.8-6.5-11.7-11.6-15.6-6.7-5.1-15.3-6-23.8-7.3,83.1-51.8,104.3-178.4,104.3-178.4C843.6,1118.7,847.5,1149.3,780.2,1263.1Z" style="fill:#f9b17c"/><ellipse cx="813.29" cy="724.06" rx="7.4" ry="10.9" transform="translate(-220.42 1066.35) rotate(-60)" style="fill:#e95a5a"/><path d="M802.2,692.7a1.8,1.8,0,0,1-1.2-3.1c7.6-7,19.8-1.6,20.3-1.4a1.75,1.75,0,1,1-1.4,3.2c-.2-.1-10.6-4.6-16.5.8A2.08,2.08,0,0,1,802.2,692.7Z" style="fill:#e95a5a"/><path d="M715.9,814.9c-29.9,12.1-30.7,23.2-54.5,63.9-12.8,21.8-42.1,28.2-66.5,29.4-9.6-13.1-19.8-32.4-14.1-34,65.8-17.6,51.8-11.6,94-49.9,33.6-30.5,58.4-33.8,76.4-49.4C758.3,788.1,741.2,804.8,715.9,814.9Z" style="fill:#394480"/><path d="M862.3,742.1c3.1-12.1-1.9-32.6-8.8-43.3s-16.6-9.9-29.1-15.9-19.4-4.8-19.4-4.8l6.4,3.9c-11-3.4-23.1,5.7-23.1,5.7l3.4-13.9c4.2-1.8,11.7-4.3,25.5-7.4,32-7.2,45,34.1,47.7,59A36.18,36.18,0,0,1,862.3,742.1Z" style="fill:#d37477"/><path d="M895.2,790.8c.3-.7,6-13.2,2.4-35.5a50.78,50.78,0,0,0-2.6-10,29.05,29.05,0,0,1-1.7-11.3v-.1c1.5-29.2-36-53-26.4-43,7.7,8,15.3,22.3,17.2,34.4A136.88,136.88,0,0,0,871.8,711a120.53,120.53,0,0,1-19.6-25.4c-11.4-19.6-36.2-22.9-24-15.2,6.8,4.3,10.8,8.8,15.6,15.1-17.7-11.2-47.4-22.3-58.2.7,0,0,.2-28.6-11.7-40.6,8.7-7.2,26.2-11.5,53.5-6.6,47.8,8.6,71.4,77.3,75.1,109.3C905.3,774.7,895.7,790,895.2,790.8Z" style="fill:#394480"/><path d="M813.3,673.2s-26.7-4.1-27.9-14.6,1.1-18.3-3.3-17.8-8.2,3.9-8.9,5.8,5.9,21.1,5.9,21.1l6.4,23.2S795.9,671.5,813.3,673.2Z" style="fill:#171338"/><path d="M826.1,807.2h0c.4.8.9,1.7,1.4,2.5v-.1c-.1.5-.3,1-.4,1.5V811l-1.1,1.1h.1c-.5.1-1,.3-1.5.4h.1c-.8-.5-1.7-1-2.5-1.5h0a3.38,3.38,0,0,0,1.8,1.3,3.12,3.12,0,0,0,2.3-.3,3.08,3.08,0,0,0,1-4.1,3.36,3.36,0,0,0-2.6-1.5,3.1,3.1,0,0,0-2.2.9,3,3,0,0,0,.6,4.7,2.94,2.94,0,0,0,4-1.1,2.63,2.63,0,0,0-1-3.7Z" style="fill:#e95a5a"/><path d="M825.2,817.9H825a2.9,2.9,0,0,0-2.9,2.9,3,3,0,0,0,2.9,2.9h.2a2.9,2.9,0,0,0,0-5.8Z" style="fill:#e95a5a"/><path d="M825.4,832.4h-.2a2.9,2.9,0,0,0-2.9,2.9,3,3,0,0,0,2.9,2.9h.2a2.9,2.9,0,0,0,2.9-2.9,2.84,2.84,0,0,0-2.9-2.9Z" style="fill:#e95a5a"/><path d="M945.5,1248.2c-3.3,2.8-5.7,6.9-10,8.4-.7.2-.4,1.4.3,1.1,4.5-1.6,6.9-5.8,10.5-8.7.6-.5-.3-1.3-.8-.8Z" style="fill:#e95a5a"/><path d="M929.9,1261.7a67.42,67.42,0,0,1-17,7.9c-.7.2-.4,1.4.3,1.1a70,70,0,0,0,17.3-8.1c.6-.3,0-1.3-.6-.9Z" style="fill:#e95a5a"/><path d="M902.7,1268.7a28.79,28.79,0,0,1-14.5-2.2c-.7-.3-1.3.7-.6,1a30.12,30.12,0,0,0,15.1,2.4c.7-.1.8-1.3,0-1.2Z" style="fill:#e95a5a"/><path d="M875.8,1264.3a55.5,55.5,0,0,0-20.3,1.4.57.57,0,0,0,.3,1.1,54,54,0,0,1,20-1.3c.7,0,.7-1.1,0-1.2Z" style="fill:#e95a5a"/><path d="M835.2,1267.4c-8.8,2.4-17.6,4.5-26.5,6.3a.57.57,0,0,0,.3,1.1c8.9-1.8,17.8-3.9,26.5-6.3.8-.1.5-1.3-.3-1.1Z" style="fill:#e95a5a"/><path d="M799.7,1270.1a34.26,34.26,0,0,1-13.9-7.8c-.6-.5-1.4.3-.8.8a36.78,36.78,0,0,0,14.4,8.1.57.57,0,0,0,.3-1.1Z" style="fill:#e95a5a"/><path d="M776.5,1245.7c-3.7-2.1-7.4-4.6-11.4-6.2-3.8-1.5-7.7-1.5-11.7-1.4a.6.6,0,0,0,0,1.2c4.3-.1,8.4,0,12.4,1.8,3.5,1.6,6.8,3.8,10.1,5.7.7.2,1.3-.8.6-1.1Z" style="fill:#e95a5a"/><path d="M740.1,1234.3a45.51,45.51,0,0,1-9-2.2c-3.2-1.3-7.5-3.4-8-7.3-.1-.7-1.3-.7-1.2,0,1,7.5,11.8,9.7,17.9,10.6.8.1,1.1-1,.3-1.1Z" style="fill:#e95a5a"/><path d="M712.7,1209.6c-3.7-4.7-5-10.7-9-15.3-.5-.6-1.3.3-.8.8,3.9,4.5,5.3,10.6,9,15.3.4.6,1.3-.2.8-.8Z" style="fill:#e95a5a"/><path d="M692.4,1178c-5.5-4-11-8-16.5-12.1-.6-.5-1.2.6-.6,1,5.4,4.1,10.9,8.1,16.5,12.1.6.5,1.2-.5.6-1Z" style="fill:#e95a5a"/><path d="M661.8,1153.8c-4.7-2.7-6.9-8.8-8.7-13.6-.3-.7-1.4-.4-1.1.3,1.9,5.2,4.2,11.4,9.2,14.3.6.4,1.2-.6.6-1Z" style="fill:#e95a5a"/><path d="M659.7,1131a29.25,29.25,0,0,1,2.9-2.5,18.06,18.06,0,0,1,3.7-1.8,17.75,17.75,0,0,1,7.6-1,.6.6,0,1,0,0-1.2,20.56,20.56,0,0,0-11.9,3c-.9.6-5.7,3.9-2.6,4.6a.57.57,0,1,0,.3-1.1Z" style="fill:#e95a5a"/><path d="M817.5,798.6h-.3a.6.6,0,1,0,0,1.2h.3c.7,0,.7-1.2,0-1.2Z" style="fill:#e95a5a"/><path d="M816.7,799.2a494.75,494.75,0,0,0,2.2,51.6c.1.7,1.2.8,1.2,0-1.6-17.1-2.3-34.3-2.2-51.6,0-.7-1.2-.7-1.2,0Z" style="fill:#e95a5a"/><path d="M846.8,656.7c12.3,5,22.3,13.7,31,23.5A294.73,294.73,0,0,1,902.7,713c15.5,23.7,18.4,53.8,6.4,79.7-1.6,3.4,3.5,6.4,5.1,3a88,88,0,0,0-5.4-84A271.73,271.73,0,0,0,882,676.1c-9.4-10.6-20.3-19.6-33.5-25-3.7-1.4-5.2,4.2-1.7,5.6Z" style="fill:#394480"/><path d="M864.3,1068.1c-12.1,2.9-82.4-1.8-101.3-8.6-2.5-.9-4.1-1.8-4.5-2.8a.35.35,0,0,0-.1-.2c-3.9-9.7,6.9-81.5,6.9-81.5l122.1,19c1.2,8.9-15.8,58.7-21,72h0a6.89,6.89,0,0,0-.4,1C865.9,1067.6,865.3,1067.9,864.3,1068.1Z" style="fill:#ebf5fc"/><path d="M765.3,975.1s46.9,69.2,56.3,67.8,65.8-48.8,65.8-48.8S834.4,978.2,765.3,975.1Z" style="fill:#b5b5e2"/><path d="M765.3,975.1s48.2,64.2,57.5,62.8,64.5-43.8,64.5-43.8S834.4,978.2,765.3,975.1Z" style="fill:#fff"/><path d="M864.3,1068.1l-22.6-37.7,1.7-2.1,23,37.9h0a6.89,6.89,0,0,0-.4,1C865.9,1067.6,865.3,1067.9,864.3,1068.1Z" style="fill:#b5b5e2"/><path d="M807.6,1028.6l-44.6,31c-2.5-.9-4.1-1.8-4.5-2.8a.35.35,0,0,0-.1-.2l47.9-30.1Z" style="fill:#b5b5e2"/><path d="M874.6,1021.2l126.2,17.1c1.5.2,2.2-2.2.7-2.4l-126.2-17.1c-1.5-.2-2.2,2.2-.7,2.4Z" style="fill:#ebf5fc"/><path d="M865.7,1031.4a449.72,449.72,0,0,0,66,11.8c1.6.2,1.6-2.3,0-2.5a452.55,452.55,0,0,1-65.4-11.7c-1.4-.4-2.1,2-.6,2.4Z" style="fill:#ebf5fc"/><path d="M947.1,1043.7a358.47,358.47,0,0,0,45.1,5.6c1.6.1,1.6-2.4,0-2.5a349.65,349.65,0,0,1-44.4-5.5c-1.6-.3-2.3,2.1-.7,2.4Z" style="fill:#ebf5fc"/><path d="M1008.2,1049.7a121.21,121.21,0,0,0,24.8,1.6,1.25,1.25,0,0,0,0-2.5,123,123,0,0,1-24.2-1.5c-1.5-.3-2.1,2.1-.6,2.4Z" style="fill:#ebf5fc"/><path d="M866.4,1053.1q39.9,6.9,80.3,11c1.6.2,1.6-2.3,0-2.5-26.7-2.7-53.2-6.4-79.7-10.9-1.5-.2-2.1,2.1-.6,2.4Z" style="fill:#ebf5fc"/><path d="M877.5,1008c15.4,2.5,30.7,5,46.1,7.6,1.5.3,2.2-2.1.7-2.4-15.4-2.5-30.7-5-46.1-7.6-1.6-.3-2.3,2.1-.7,2.4Z" style="fill:#ebf5fc"/><path d="M1010.5,1642.6s20.9,86.5,71.4,60.7,5.3-48.1-10.2-53-29.1-16.5-42.8-19.4S1008.3,1635.1,1010.5,1642.6Z" style="fill:#ebf5fc"/></svg>