<svg xmlns="http://www.w3.org/2000/svg" viewBox="0 0 1984.3 1984.3"><path d="M1706.8,570.7C1590,842.5,1656,973.3,1677,1174c11.7,112-40.4,176.4-115.1,202.7-1,.3-2,.7-3,1a250.22,250.22,0,0,1-58.3,11.8l-4.1.3c-5.6.4-11.3.7-17.1.8h-3a354.64,354.64,0,0,1-113.5-18.6c-151.1-50.4-256.5-121.4-461.5,23.6-4.7,3.3-9.5,6.5-14.5,9.7-1,.6-2,1.2-3,1.9-10.2,6.3-21.1,12.2-32.5,17.9-75,37.1-174.5,61-269.9,70.4-1.8.2-3.6.4-5.3.5-7.8.7-15.5,1.3-23.1,1.9-.5,0-1,.1-1.5.1s-1,.1-1.5.1c-37.4,2.4-73.7,2.5-107,.1-9.2-.7-18.2-1.5-26.9-2.5-1-.1-2-.2-3-.4-115.4-14.4-182.5-62.5-110.2-149.2,164.6-197.4,49.6-602.6-8.2-923.8C239.8,117,646.4,250.7,826,352c133.4,75.3,192.4,92.2,304.1-.8.7-.5,1.3-1.1,2-1.7,26.9-22.6,56.9-51.5,91.8-87.5,1-1,1.9-2,2.9-3,6.9-7.1,13.9-14.5,21.2-22.1,1-1,2-2.1,3-3.2,6.3-6.6,12.7-13.5,19.3-20.5,5.3-5.7,10.7-11.1,16.1-16.1l3.3-3c100.1-89.4,215.3-62.3,301.9,13.8l2.3,2c4.7,4.2,9.3,8.5,13.8,13l3,3c5.7,5.8,11.3,11.8,16.7,18l2,2.3c3.6,4.2,7.1,8.5,10.6,12.8.8,1,1.6,2,2.3,3C1712.5,352.8,1747.3,476.2,1706.8,570.7Z" style="fill:#e9f3fb"/><path d="M1352,584.3a48.41,48.41,0,0,0-19.4,3.4,76.72,76.72,0,0,0-70.4-51.5,75.41,75.41,0,0,0-26.1,3.8A104,104,0,0,0,1038,569a57.53,57.53,0,0,0-18.7-3.6,58.82,58.82,0,0,0-3.2,117.6c219.6,22.4,333.3-.6,333.3-.6a49.07,49.07,0,1,0,2.6-98.1Z" style="fill:#fff"/><path d="M1156.5,660a15.72,15.72,0,0,1-6.4,7.1,15.11,15.11,0,0,1-1.8.9,19.69,19.69,0,0,1-4.3,1.4,15.52,15.52,0,0,1-2.1.4h0a17.85,17.85,0,0,1-2.3.2H1138a21,21,0,0,1-5.8-.7,11.76,11.76,0,0,1-2-.7,13.89,13.89,0,0,1-4.3-2.8c-4-3.9-4.8-9.5-4.7-13.6.2-13.2,9.9-16.9,12.9-17.7l-2.2-155.8L1130.1,351c.7-.5,1.3-1.1,2-1.7l1.9,129.2,2.3,157.6-.9.1c-.5.1-11.9,2.1-12.1,15.9-.1,3.6.6,8.7,4.1,12.1a11.3,11.3,0,0,0,4.5,2.7c.7.2,1.4.4,2.2.6a24.93,24.93,0,0,0,4.9.4c.6,0,1.2-.1,1.8-.1h.1q1.2-.15,2.1-.3h.2a21,21,0,0,0,4-1.2,15,15,0,0,0,1.8-.9,13.32,13.32,0,0,0,5.7-6.3,16.3,16.3,0,0,0-2-16.3c-1-1.2-3.2-3.2-6.2-2.4l-.5-1.9c3-.8,5.9.3,8.2,3A18.74,18.74,0,0,1,1156.5,660Z" style="fill:#9abedb"/><rect x="1076.4" y="735.7" width="127.9" height="18.4" style="fill:#9abedb"/><path d="M1203.6,740.2,1147.5,667c-.2-.4-1.1-1.5-2-1.5h0c-.8,0-1.7.8-2.5,2.3-3.3,5.8-33.5,71.5-33.8,72.1l-1.8-.8c1.2-2.7,30.6-66.4,33.9-72.3,1.3-2.2,2.7-3.3,4.3-3.4a4.76,4.76,0,0,1,3.7,2.4l56,73Z" style="fill:#9abedb"/><path d="M1077.3,740.1l-1.6-1.2c.1-.2,13.5-19.2,27.7-37.9,29-38.2,33.3-38.1,34.8-38s4.6.2,21.4,38.4c8.1,18.6,15.6,37.5,15.7,37.7l-1.9.7c-14.3-36.3-31.5-74.2-35.3-74.8h0C1132.2,665.1,1097.7,711.1,1077.3,740.1Z" style="fill:#9abedb"/><path d="M851.4,451.9v973.2c-75,37.1-174.5,61-269.9,70.4V422.2Z" style="fill:#fff"/><path d="M851.4,1256.6V1425c-75,37.1-174.5,61-269.9,70.4-1.8.2-3.6.4-5.3.5-1.3-57-2.2-117-2-164.2v-3c.3-56.3,2.3-93.4,7.3-83.9,10.2,19.3,37.5,28.3,71.1,31.4l3.1.3c5.6.4,11.3.8,17.1.9,2.3.1,4.5.1,6.8.1,32.4.3,67.4-3.2,97.4-7.5,7.4-1.1,14.5-2.1,21.1-3.2,2-.3,4-.7,5.9-1C832.3,1261.1,851.4,1256.6,851.4,1256.6Z" style="fill:#e9f3fb"/><path d="M581.6,422.2V1495.5c-1.8.2-3.6.4-5.3.5-7.8.7-15.5,1.3-23.1,1.9-.5,0-1,.1-1.5.1s-1,.1-1.5.1c-37.4,2.4-73.7,2.5-107,.1V445.7Z" style="fill:#c7dbee"/><polygon points="777.1 490.1 777.1 577.6 804.2 580.4 804.2 492.9 777.1 490.1" style="fill:#e9f3fb"/><polygon points="652.6 476.6 652.6 564.2 679.7 567 679.7 479.4 652.6 476.6" style="fill:#e9f3fb"/><path d="M553.1,450V1497.9c-.5,0-1,.1-1.5.1s-1,.1-1.5.1V450Z" style="fill:#9abedb"/><path d="M416.1,465.6v1030c-1-.1-2-.2-3-.4V465.6Z" style="fill:#9abedb"/><polygon points="885.3 601.9 551.6 572.2 414.9 593.5 414.4 590.5 551.5 569.2 551.7 569.2 885.5 598.9 885.3 601.9" style="fill:#9abedb"/><polygon points="885.3 789.1 551.6 759.4 414.9 780.7 414.4 777.8 551.5 756.4 551.7 756.4 885.5 786.1 885.3 789.1" style="fill:#9abedb"/><polygon points="885.3 976.3 551.6 946.7 414.9 967.9 414.4 965 551.5 943.7 551.7 943.7 885.5 973.4 885.3 976.3" style="fill:#9abedb"/><path d="M886.9,468.3v937c-1,.6-2,1.2-3,1.9V468.3Z" style="fill:#9abedb"/><polygon points="777.1 505 777.1 518.3 804.2 529 804.2 515.7 777.1 505" style="fill:#fff"/><polygon points="777.1 524.1 777.1 527.7 804.2 538.4 804.2 534.8 777.1 524.1" style="fill:#fff"/><polygon points="652.6 502.7 652.6 516 679.7 526.7 679.7 513.4 652.6 502.7" style="fill:#fff"/><polygon points="652.6 521.8 652.6 525.4 679.7 536.1 679.7 532.5 652.6 521.8" style="fill:#fff"/><polygon points="777.1 675.2 777.1 762.8 804.2 765.6 804.2 678 777.1 675.2" style="fill:#e9f3fb"/><polygon points="652.6 661.8 652.6 749.3 679.7 752.1 679.7 664.6 652.6 661.8" style="fill:#e9f3fb"/><polygon points="777.1 690.2 777.1 703.5 804.2 714.1 804.2 700.9 777.1 690.2" style="fill:#fff"/><polygon points="777.1 709.3 777.1 712.8 804.2 723.5 804.2 720 777.1 709.3" style="fill:#fff"/><polygon points="652.6 687.9 652.6 701.2 679.7 711.8 679.7 698.6 652.6 687.9" style="fill:#fff"/><polygon points="652.6 707 652.6 710.6 679.7 721.2 679.7 717.7 652.6 707" style="fill:#fff"/><polygon points="777.1 860.4 777.1 948 804.2 950.8 804.2 863.2 777.1 860.4" style="fill:#e9f3fb"/><polygon points="652.6 846.9 652.6 934.5 679.7 937.3 679.7 849.7 652.6 846.9" style="fill:#e9f3fb"/><polygon points="777.1 875.4 777.1 888.6 804.2 899.3 804.2 886.1 777.1 875.4" style="fill:#fff"/><polygon points="777.1 894.5 777.1 898 804.2 908.7 804.2 905.2 777.1 894.5" style="fill:#fff"/><polygon points="652.6 873.1 652.6 886.3 679.7 897 679.7 883.7 652.6 873.1" style="fill:#fff"/><polygon points="652.6 892.2 652.6 895.7 679.7 906.4 679.7 902.8 652.6 892.2" style="fill:#fff"/><polygon points="885.3 1167.9 551.6 1138.2 414.9 1159.5 414.4 1156.5 551.5 1135.2 551.7 1135.2 885.5 1164.9 885.3 1167.9" style="fill:#9abedb"/><polygon points="777.1 1051.9 777.1 1139.5 804.2 1142.3 804.2 1054.7 777.1 1051.9" style="fill:#e9f3fb"/><polygon points="652.6 1038.5 652.6 1126 679.7 1128.8 679.7 1041.3 652.6 1038.5" style="fill:#e9f3fb"/><polygon points="777.1 1066.9 777.1 1080.2 804.2 1090.8 804.2 1077.6 777.1 1066.9" style="fill:#fff"/><polygon points="777.1 1086 777.1 1089.5 804.2 1100.2 804.2 1096.7 777.1 1086" style="fill:#fff"/><polygon points="652.6 1064.6 652.6 1077.9 679.7 1088.5 679.7 1075.3 652.6 1064.6" style="fill:#fff"/><polygon points="652.6 1083.7 652.6 1087.2 679.7 1097.9 679.7 1094.4 652.6 1083.7" style="fill:#fff"/><polygon points="885.3 1359.4 551.6 1329.7 414.9 1351 414.4 1348.1 551.5 1326.7 551.7 1326.7 885.5 1356.4 885.3 1359.4" style="fill:#9abedb"/><polygon points="777.1 1243.5 777.1 1331 804.2 1333.8 804.2 1246.3 777.1 1243.5" style="fill:#e9f3fb"/><polygon points="652.6 1230 652.6 1317.6 679.7 1320.4 679.7 1232.8 652.6 1230" style="fill:#e9f3fb"/><polygon points="777.1 1258.4 777.1 1271.7 804.2 1282.4 804.2 1269.1 777.1 1258.4" style="fill:#fff"/><polygon points="777.1 1277.5 777.1 1281.1 804.2 1291.8 804.2 1288.2 777.1 1277.5" style="fill:#fff"/><polygon points="652.6 1256.1 652.6 1269.4 679.7 1280.1 679.7 1266.8 652.6 1256.1" style="fill:#fff"/><polygon points="652.6 1275.2 652.6 1278.8 679.7 1289.5 679.7 1285.9 652.6 1275.2" style="fill:#fff"/><path d="M1479.4,259.7l-68.1-62.8-2.6-2.4-.5-.5H1289.7l-3.3,3H1407l4.3,4,62.9,57.9H1226.8c-1,1-1.9,2-2.9,3h258Z" style="fill:#c7dbee"/><path d="M1411.2,192.4v68h-3V198.6l-74.4,60.3-3.7,3-2,1.7V198.7L1253.7,259l-3.7,3-2,1.7V236.9c1-1,2-2.1,3-3.2v23.7l74.5-60.3,3.7-3,2-1.6v64.9l74.5-60.3,3.1-2.5Z" style="fill:#c7dbee"/><path d="M1639.8,258.9c.8,1,1.6,2,2.3,3H1528.9v-3Z" style="fill:#c7dbee"/><path d="M1591.5,207.8l2.3,2-60.6,49.1-1,.8-2.3,1.9-.9-1.2-.6-.7-.4-.4Z" style="fill:#c7dbee"/><path d="M1627.3,243.8l2,2.3-15.9,12.8-3.7,3-2,1.7V222.9l3,3v31.4Z" style="fill:#c7dbee"/><path d="M1477.8,1369.2l1.7,1.5v-1.5Zm0,0,1.7,1.5v-1.5Zm0,0,1.7,1.5v-1.5Zm0,0,1.7,1.5v-1.5Zm0,0,1.7,1.5v-1.5Zm-1.4-1109.5V1390.6h3V262.7h79.5v1115c1-.3,2-.7,3-1V259.7Zm1.4,1109.5,1.7,1.5v-1.5Zm0,0,1.7,1.5v-1.5Zm0,0,1.7,1.5v-1.5Zm0,0,1.7,1.5v-1.5Zm0,0,1.7,1.5v-1.5Z" style="fill:#c7dbee"/><path d="M1561.9,1367l2.8,2.2h-87l1.7,1.5,21.2,18.8-4.1.3-17.1-15.1-3-2.6-6.6-5.8H1556l-76.7-60.5-3-2.4-2.8-2.2H1556l-76.7-60.8-3-2.4-2.8-2.2h82.6l-76.8-63.8-2.1-1.8H1556l-76.6-59.7-3-2.3-2.9-2.2h83.1l-77.2-72.3-3-2.8-2.3-2.2h82.7l-77.4-79.3-3-3.1-2.1-2.1h82.5l-77.4-79.3-3-3.1-2.1-2.1h82.5l-77.4-79.3-3-3.1-2.1-2.1h82.5l-77.4-79.3-3-3.1-2.1-2.1h82.5l-77.4-79.3-3-3.1-2.1-2.1h82.5l-77.4-79.3-3-3.1-2.1-2.1h82.5l-77.4-79.3-3-3.1-2.1-2.1h82.5l-77.4-79.3-3-3.1-2.1-2.1h82.5l-77.4-79.3-2.6-2.6,2.1-2.1.4.4,79.5,81.4,3,3.1,2.1,2.1h-82.5l77.4,79.3,3,3.1,2.1,2.1h-82.5l77.4,79.3,3,3.1,2.1,2.1h-82.5l77.4,79.3,3,3.1,2.1,2.1h-82.5l77.4,79.3,3,3.1,2.1,2.1h-82.5l77.4,79.3,3,3.1,2.1,2.1h-82.5l77.4,79.3,3,3.1,2.1,2.1h-82.5l77.4,79.3,3,3.1,2.1,2.1h-82.5l77.4,79.3,3,3.1,2.1,2.1h-82.3l77.2,72.3,3,2.8,2.3,2.2h-81.9l76.6,59.7,3,2.3,2.9,2.2h-79.2l73.3,60.9,3,2.5,2.7,2.2h-82.3l76.7,60.8,3,2.4,2.8,2.2h-82.5l76.7,60.5Z" style="fill:#c7dbee"/><path d="M885.7,1785.4H659.1c-7.8,0-15.4,6.9-15,15s6.6,15,15,15H885.7c7.8,0,15.4-6.9,15-15s-6.6-15-15-15Z" style="fill:#c7dbee"/><polygon points="865.7 1675.4 854.8 1700.3 834.3 1690.4 831.2 1668.1 855.2 1651.9 865.7 1675.4" style="fill:#5f64ac"/><path d="M827.4,1674.2s28.1,13.9,39.8,18-13.3,9.7-19.9,28.8-11.3,49.9.6,59.1-34-8.1-34-8.1L793,1716.9l22.7-33.9Z" style="fill:#171338"/><path d="M984.8,1076.4s-56-4.8-60.5-8.8-30.4-185.5-30.4-185.5L878.6,986.6s15.9,109.5,22.4,113.5,77.2,11.6,77.2,11.6Z" style="fill:#5f64ac"/><path d="M841.8,859.1s-4.3,36.3-21.3,45.9-26.6,17.1-23.1,20.8,48.2,12.3,48.2,12.3l28.1-45s-22.5,9.8-23,2.5,7.5-21.3,7.5-21.3Z" style="fill:#d27477"/><path d="M802.6,916.4s43.3,5.4,64.8-20.8l6.3,187.3v144.9H834.5Z" style="fill:#5f64ac"/><polygon points="808.7 1707 814.3 1760.3 786.8 1754.6 786.8 1701.3 808.7 1707" style="fill:#5f64ac"/><path d="M778.1,1730.8s15.6,6.1,42.9,3.2c0,0-9.7,43.6,40,43.6,42.9,0,58.6,11.9,62.1,23.4a4.19,4.19,0,0,1-4,5.4H777.5a5.11,5.11,0,0,1-5.1-5.9C774.7,1786.1,780.1,1749.3,778.1,1730.8Z" style="fill:#171338"/><path d="M897,1219.8s60.1,251,56.3,275.5-87.6,180.2-87.6,180.2-32.6,5.3-38.9-4.8,16.1-168.5,16.1-175.7-40.3-259-40.3-259S864.6,1202.2,897,1219.8Z" style="fill:#171338"/><path d="M763.3,1168s1.3,127-2.5,300.3c-1.3,60.6,10.3,237.2,17.8,248.8s28.1,7.2,40.8,0,32.7-188.7,36.7-218.9,2.6-289.9,2.6-289.9Z" style="fill:#2c2a5c"/><path d="M922.7,805.7s-.2,26.1-21.4,52c-18.9,23-42.6,26.5-56.7,12.1s-10.9-60.6-5-70.6,24.4-38.4,44.1-29.7S922.7,805.7,922.7,805.7Z" style="fill:#e57e80"/><path d="M850.7,807.5s-9.4-14.2-16.2-3.4-8.1,23.3,1.7,24" style="fill:#e95a5a"/><path d="M888.7,832s-8.5,15.3-2.1,32c0,0-14-5.5-15.6-11.2S888.7,832,888.7,832Z" style="fill:#e95a5a"/><circle cx="857.1" cy="856.5" r="2.6" style="fill:#171338"/><ellipse cx="879.76" cy="822.99" rx="9.7" ry="4.1" transform="translate(-302.26 1055.62) rotate(-54.22)" style="fill:#171338"/><ellipse cx="900.93" cy="835.68" rx="9.7" ry="4.1" transform="translate(-303.77 1078.07) rotate(-54.22)" style="fill:#171338"/><path d="M834.5,773.4S854,728,888.6,734.7c38.6,7.5,48.4,32.4,45.6,48.2a266.23,266.23,0,0,1-7.8,31.2Z" style="fill:#f9b17c"/><path d="M879.8,734s1.7-6.3,7-6.6,25.6,7.3,27.1,9.5-1.9,44-7.4,68.3L890,798s7.5-28.9-.2-63Z" style="fill:#f48a77"/><polygon points="953.3 823 953.3 833.1 834.5 773.4 953.3 823" style="fill:#f48a77"/><path d="M834.5,804.1V773.4l32.4,16.3-13.5,23.1S843.6,792.9,834.5,804.1Z" style="fill:#171338"/><path d="M858.7,1103.6v.9c-.5,54.2-2.3,122.4-5.9,122.7-4.5.5-92.5-9.3-94.8-15.8a40.22,40.22,0,0,1-.5-6.7c-.1-3.7-.2-8.8-.2-15,0-5.4,0-11.5.1-18.3,0-5,.1-10.2.1-15.7.6-56.2,16.4-134.5,16.4-134.5l-4.3-99s9.8.6,15.8-2.2,24.4-17.8,26.9-12.6c1,2,17.1,2.8,22.1,11.6S856,1023.8,858,1039.4v.4a1.76,1.76,0,0,0,.1.6C858.8,1046.8,859,1072.9,858.7,1103.6Z" style="fill:#f48a77"/><path d="M910.3,1214.6c-5.3,5.5-51.6,13.1-51.6,13.1v-60.3c0-20,0-42.3-.1-62.6v-1.1c-.1-31.8-.2-58.4-.5-63.2,0-.3,0-.5-.1-.6v-.4c-.9-10.3-1-146.9-1-146.9s35.8-13.1,36.8-10.5-8.1,105.1,0,155.8c4.8,30.1,11.6,84.9,15.1,125.6.4,4.3.7,8.5,1,12.5q.6,7.2.9,13.5c.3,4.5.4,8.5.5,12C911.6,1208.8,911.3,1213.6,910.3,1214.6Z" style="fill:#f48a77"/><path d="M856.6,1165.6v14.1c-46,2.7-88.8-4.9-99.1-8.3,0-5,.1-10.2.1-15.7C810.4,1171,856.6,1165.6,856.6,1165.6Z" style="fill:#ffcaa6"/><path d="M855.7,1195l-.6,10.5-.3,4.5s-41.1,8.6-97.2-5.3c0-1.3-.1-2.7-.1-4.2,0-3.1-.1-6.7-.1-10.8C771.1,1192.4,828.3,1200.1,855.7,1195Z" style="fill:#ffcaa6"/><path d="M911.5,1201.3c-7.5,2.4-36.1,11.2-52.7,8.2a.6.6,0,0,1-.4-.1v-13.5h.4c4-.2,37.8-1.9,52.2-6.6.2,3.2.3,6.2.4,8.9C911.4,1199.3,911.5,1200.3,911.5,1201.3Z" style="fill:#ffcaa6"/><path d="M910.1,1175.9c-7.9,1.4-36.7,6.1-51.3,4.4h-.4v-12.9h.4c4.1-.3,38-2.5,50.3-3.9C909.5,1167.7,909.8,1171.9,910.1,1175.9Z" style="fill:#ffcaa6"/><path d="M1072.7,1000.5l-66.9,170.3c-16.4,8.3-79.8-2-81.4-8.7-.8-3.5,14.1-48.5,28.7-91.4,13.8-40.4,27.3-78.8,27.3-78.8C1012.9,998.5,1072.7,1000.5,1072.7,1000.5Z" style="fill:#9392c7"/><path d="M1055.3,1075.6a10.36,10.36,0,0,1-3,5.8c-2.6,2.3-1.7,3.7-3.2,6.6s-3,2.6-3,3.9-.3,4.7-2.1,6.2a7.82,7.82,0,0,0-3.3,5.9c-.3,3-14.2,0-13.9-3.6s1.5-3.9.6-6.6-.6-8.7,1.4-9.1.4-5.5,2.6-6.9,1.5-6.8,3.2-7.7S1049,1068.4,1055.3,1075.6Z" style="fill:#d27477"/><path d="M841.3,825.7s-5.8-14.9-1.4-12.9,5.1,5.1,7.3,3S841.3,825.7,841.3,825.7Z" style="fill:#e57e80"/><polygon points="910.3 1126.1 937.3 1117.7 933.5 1129.2 910.3 1126.1" style="fill:#e57e80"/><polygon points="852.9 1227.2 858.7 1227.7 858.9 1139.4 858.3 1139.4 852.9 1227.2" style="fill:#fff"/><path d="M893.9,815.9a1.2,1.2,0,0,1-1-.7,9.78,9.78,0,0,0-4.6-5.4c-2.5-1.3-5.7-1.3-9.5.1a1,1,0,1,1-.7-1.9q6.45-2.25,11.1,0a12,12,0,0,1,5.6,6.6.89.89,0,0,1-.7,1.2C894.1,815.9,894,815.9,893.9,815.9Z" style="fill:#e95a5a"/><path d="M914.3,829.1a1.05,1.05,0,0,1-1-.8c-.9-3.7-2.6-6.3-4.9-7.6a7.6,7.6,0,0,0-5.4-.7,1,1,0,0,1-.6-2,9.52,9.52,0,0,1,7,.9c2.8,1.6,4.7,4.5,5.8,8.8a1,1,0,0,1-.7,1.2C914.4,829.1,914.3,829.1,914.3,829.1Z" style="fill:#e95a5a"/><ellipse cx="859.66" cy="835.67" rx="5.7" ry="9.2" transform="translate(-293.88 1162.31) rotate(-60)" style="fill:#e95a5a"/><g style="opacity:0.1899999976158142"><path d="M1072.7,1000.5s-23,40.3-31.6,23.7c-14.3-27.4-6.2-16.4-44.4-12.7s10.5,14.8-21,50.1c-10.9,12.2-18,13.1-22.6,9,13.8-40.4,27.3-78.8,27.3-78.8C1012.9,998.5,1072.7,1000.5,1072.7,1000.5Z" style="fill:#e9f3fb"/></g><polygon points="919.5 823.5 921.1 816.9 866.9 789.6 919.5 823.5" style="fill:#d27477"/><g style="opacity:0.38999998569488525"><path d="M933.5,1129.2s15.1-4.2,24.3,0,13.4,8.6,24.8,8.1,16.7,1.1,17.6,9.2-.6,17.4-9,17.9-37.8,4.8-46.5-5.3S933.5,1129.2,933.5,1129.2Z" style="fill:#5f64ac"/></g><path d="M908.9,1125s24.2,2.8,30.3,4c9.2,1.8,24.1,9.7,32.7,9.7s21.6-1,22.1,3.5-11.1,4.5-27.6,2.5c0,0,28.6,1,30.1,4.5s-6,5.5-31.1,4c0,0,28.2.6,30.2,1.5s2.9,7.2-29.3,5.4c0,0,17.4.2,17.7,1.7s-15,4.8-31.1,0-28.7-13-40.6-17.2-19.2-7.2-19.2-7.2Z" style="fill:#e57e80"/><path d="M908.1,1152.8s-93.8-18.5-118.1-19.6c-15.1-.7-33.3-3.2-33.3-10.7s13.1-200.2,13.1-200.2,40.3,14.5,38.3,62.7c0,0,2.3,98,6.2,106.5,3.1,6.9,56.1,16.9,81.9,26.6,6.2,2.3,10.8,4.6,12.8,6.9C918.5,1135.8,905.1,1137.3,908.1,1152.8Z" style="fill:#5f64ac"/><g style="opacity:0.2800000011920929"><path d="M896.1,1118.1c-13.1,3.8-34.7,5.1-51.3-.4-31.4-10.4-65.8,4.3-71.9-8.9s41.2-17.3,41.2-17.3C817.4,1098.4,870.4,1108.5,896.1,1118.1Z" style="fill:#2c2a5c"/></g><path d="M855.1,1205.5l-.3,4.5s-41.1,8.6-97.2-5.3c0-1.3-.1-2.7-.1-4.2C771,1202.3,811.8,1207.4,855.1,1205.5Z" style="fill:#fff"/><path d="M911.5,1201.3c-7.5,2.4-36.1,11.2-52.7,8.2a.6.6,0,0,1-.4-.1v-4.1a297.82,297.82,0,0,0,53.1-7.1C911.4,1199.3,911.5,1200.3,911.5,1201.3Z" style="fill:#fff"/><path d="M1190.9,1611l-8-.5,6.9-117.5a22,22,0,0,1,21.9-20.7h38.2v8h-38.2a13.92,13.92,0,0,0-13.9,13.1Z" style="fill:#4a52a3"/><path d="M1220,1639.9h-8a25.1,25.1,0,1,0-50.2,0h-8a33.1,33.1,0,1,1,66.2,0Z" style="fill:#4a52a3"/><path d="M987.3,1802.7c25.5-11,53.2,4.7,77.3,12.2,13.1,4.1,26.4,6.3,40.1,4.9,15-1.5,29.4-6,44.1-9.1,32.5-6.8,65.8-3.4,98.3,1,30.7,4.2,61.2,8.8,92.3,8.9,32.2.1,63.7-5.5,94.7-13.8,3.4-.9,2-6.2-1.5-5.3-28.1,7.5-56.6,13-85.7,13.6-32.1.7-63.8-3.9-95.5-8.2-31.1-4.3-62.7-7.9-93.9-3.2-15.6,2.3-30.7,7.3-46.3,9.8-15,2.4-29.2,1-43.7-3.3-26.7-8.1-55.1-24.3-83.1-12.2-3.1,1.4-.3,6.1,2.9,4.7Z" style="fill:#c7dbee"/><polygon points="1203.9 1384.1 1394.3 1399.8 1426.2 1379.1 1258.5 1368.1 1203.9 1384.1" style="fill:#5560a6"/><polygon points="1216.4 1648.8 1203.9 1384.1 1394.3 1399.8 1410 1660.6 1216.4 1648.8" style="fill:#b4b4da"/><polygon points="1438.4 1619.6 1410 1660.6 1394.3 1399.8 1426.2 1379.1 1438.4 1619.6" style="fill:#4a52a3"/><polygon points="1236.3 1444.9 1249.3 1601.2 1373.8 1609.5 1364.7 1456 1236.3 1444.9" style="fill:#c7dbee"/><path d="M1362.1,1814.2h-1.9c-46.6-1.1-53.5-4.5-79.3-17.3q-5.1-2.55-11.7-5.7c-24.3-11.7-55.6-.3-83.2,9.7-12.8,4.7-24.9,9.1-35.3,10.8-18.7,3.2-33.1,2.6-44-1.6-13.3-5.1-21.8-15.6-26-32-7-27.7-16.6-44.9-26.1-47.2-4.6-1.1-9.4,1.1-14.3,6.7-8.4,9.5-13.4,23.1-17.8,35.1-4.1,11.3-7.4,20.1-12.4,22.3a5.85,5.85,0,0,1-5-.1l.8-1.8a4.28,4.28,0,0,0,3.5.1c4.2-1.8,7.5-10.8,11.3-21.2,4.2-11.6,9.5-25.9,18.2-35.8,5.4-6.2,10.9-8.6,16.3-7.3,14.1,3.4,23.3,31.9,27.6,48.7,7.4,28.9,28.2,38.8,67.7,32.1,10.2-1.7,22.2-6.1,35-10.7,28-10.2,59.7-21.7,84.7-9.6,4.3,2.1,8.3,4,11.7,5.7,25.5,12.6,32.3,16,78.4,17.1,26.1.6,50.5-12,63.9-33,12.9-20.2,13.7-45.2,2.2-68.5-12.4-25-7-42.7-1.3-61.6,3.6-12,7.4-24.4,7.4-40,0-23.5-4.1-28.9-6.6-30.1a3.83,3.83,0,0,0-4.1.8l-1.3-1.5c.1-.1,3-2.6,6.3-1.1,5.2,2.3,7.8,13.1,7.8,31.9,0,15.9-3.8,28.4-7.5,40.6-5.8,19.2-10.8,35.8,1.2,60.1,11.8,23.9,11,49.6-2.3,70.4C1412.4,1801.3,1388.1,1814.2,1362.1,1814.2Z" style="fill:#5560a6"/><circle cx="1247.5" cy="1457.4" r="4.4" style="fill:#5560a6"/><circle cx="1354.8" cy="1465.8" r="4.4" style="fill:#5560a6"/><circle cx="1362" cy="1595.4" r="4.6" style="fill:#5560a6"/><circle cx="1260.7" cy="1590.8" r="4.4" style="fill:#5560a6"/><rect x="1281.73" y="1652.83" width="10" height="102.2" transform="translate(-84.28 67.05) rotate(-2.89)" style="fill:#5560a6"/><rect x="1357.1" y="1657.27" width="10" height="106.3" transform="translate(-141.52 122.98) rotate(-4.91)" style="fill:#5560a6"/><path d="M1221.9,1767.5s40.1-27.4,73.7-12.2Z" style="fill:#5560a6"/><path d="M1309.9,1779.3s32.6-30.9,68.5-11.6Z" style="fill:#5560a6"/><path d="M965.3,1784.2s36.3-8.6,46.6,8.3-40.1,14.2-46.6,11.6Z" style="fill:#5560a6"/><rect x="953.1" y="1789.5" width="19.4" height="1" style="fill:#5560a6"/><rect x="953.1" y="1796.7" width="19.4" height="1" style="fill:#5560a6"/><path d="M1307.9,1344l3.6,37.5s3.9,5.8,12.8,0l-2.8-39.6Z" style="fill:#4a52a3"/><polygon points="1235.8 1188.4 1235.8 1345 1378.6 1351.9 1378.6 1207.2 1235.8 1188.4" style="fill:#b4b4da"/><polygon points="1401.9 1331.9 1378.6 1351.9 1378.6 1207.2 1401.9 1188.4 1401.9 1331.9" style="fill:#4a52a3"/><polygon points="1401.9 1188.4 1259.7 1172 1235.8 1188.4 1378.6 1207.2 1401.9 1188.4" style="fill:#5f64ac"/><path d="M1258.5,1264.1a1.57,1.57,0,0,1-1.4-.9,1.48,1.48,0,0,1,.8-1.9l37.7-15.1a1.46,1.46,0,1,1,1.1,2.7L1259,1264A.9.9,0,0,1,1258.5,1264.1Z" style="fill:#5560a6"/><path d="M1289.3,1264.1a1.61,1.61,0,0,1-1.1-.5l-19.5-21.4a1.49,1.49,0,0,1,2.2-2l19.5,21.4a1.45,1.45,0,0,1-.1,2.1A1.28,1.28,0,0,1,1289.3,1264.1Z" style="fill:#5560a6"/><path d="M1335.8,1271.6a1.61,1.61,0,0,1-1.1-.5l-17-18.2a1.49,1.49,0,1,1,2.2-2l17,18.2a1.45,1.45,0,0,1-.1,2.1A1.16,1.16,0,0,1,1335.8,1271.6Z" style="fill:#5560a6"/><path d="M1318.8,1271.6a1.5,1.5,0,0,1-1.1-.4,1.45,1.45,0,0,1,0-2.1l25.8-25.8a1.48,1.48,0,1,1,2.1,2.1l-25.8,25.8A1.16,1.16,0,0,1,1318.8,1271.6Z" style="fill:#5560a6"/><circle cx="1311.5" cy="1318.6" r="3.6" style="fill:#5560a6"/><g style="opacity:0.2199999988079071"><path d="M1409.5,1652.9s-26.4-25.9-19.2-66.5,4.8-45.6,0-74.5-3.4-34.7-6.9-58.9,4-39.1-24.1-39.8-63.6,38.1-79.7,8.5-48.5-24-57.7-25.4-18-12.2-18-12.2l190.4,15.6Z" style="fill:#5560a6"/></g><g style="opacity:0.2199999988079071"><path d="M1235.8,1188.4s2.8,19.9,43.7,26.3,52.8-14.8,70.9,8.3,15.2,50.1,0,66.7-21.5,27.7-5.8,32.4,33.5-7.3,33.7,11.2l.2-126.1Z" style="fill:#5560a6"/></g><path d="M1463.4,1625.8l-6.9-117.5a13.85,13.85,0,0,0-13.9-13.1h-38.2v-8h38.2a22,22,0,0,1,21.9,20.7l6.9,117.4Z" style="fill:#4a52a3"/><path d="M1500.4,1654.6h-8a25.1,25.1,0,0,0-50.2,0h-8a33.1,33.1,0,0,1,66.2,0Z" style="fill:#4a52a3"/><path d="M1266,1500c-.2,6.6-2.7,12.8-4.8,19-1.2,3.6-5.5,10.8-3.5,14.5,1.8,3.3,6.9,2.5,10,2.5h19.8c3.2,0,3.2-5,0-5h-22.6c-3.6,0-2.4-.5-1.4-3.5,3.1-8.9,7.1-17.9,7.5-27.4.2-3.3-4.8-3.3-5-.1Z" style="fill:#e95a5a"/><path d="M1272.7,1524.6a58.59,58.59,0,0,1,1.9,23.9c-.4,3.2,4.6,3.2,5,0a61.19,61.19,0,0,0-2.1-25.2c-.9-3.1-5.7-1.8-4.8,1.3Z" style="fill:#e95a5a"/><path d="M1340.2,1500c-.2,6.6-2.7,12.8-4.8,19-1.2,3.6-5.5,10.8-3.5,14.5,1.8,3.3,6.9,2.5,10,2.5h19.8c3.2,0,3.2-5,0-5h-22.6c-3.6,0-2.4-.5-1.4-3.5,3.1-8.9,7.1-17.9,7.5-27.4.1-3.3-4.9-3.3-5-.1Z" style="fill:#e95a5a"/><path d="M1346.9,1524.6a58.59,58.59,0,0,1,1.9,23.9c-.4,3.2,4.6,3.2,5,0a61.19,61.19,0,0,0-2.1-25.2c-.9-3.1-5.8-1.8-4.8,1.3Z" style="fill:#e95a5a"/><path d="M1306.6,1502.3c-11.9-.2-12.5,15.2-12.8,23.8-.1,5-.7,10.7,3.4,14.3,3.3,2.9,8.6,5.6,13,5.5,11.4,0,10.9-13.9,11-21.9,0-4.9,1.1-11.2-1.5-15.7-2.4-4.2-7.3-4.9-11.7-5.1-3.2-.2-3.2,4.8,0,5,4,.2,7.6,1.1,8.2,5.7a57.75,57.75,0,0,1,0,9.3c0,5.1,1.7,17.3-6,17.8-2.7.2-6.8-2-8.9-3.7-3.1-2.6-2.5-6.6-2.5-10.2.1-5.5-.3-19.8,7.8-19.7,3.3,0,3.2-5,0-5.1Z" style="fill:#e95a5a"/></svg>